<svg width="144" height="25" viewBox="0 0 144 25" fill="none" xmlns="http://www.w3.org/2000/svg">
<path d="M14.2737 10.6635L23.2023 0.5H21.0872L13.3313 9.32305L7.14125 0.5H0L9.3626 13.8433L0 24.5H2.11504L10.3002 15.1806L16.8388 24.5H23.98M2.8784 2.0619H6.12769L21.0856 23.0148H17.8355" fill="#FDEED7"/>
<g clip-path="url(#clip0_932_9844)">
<path d="M51.9805 2.663C55.1845 2.663 55.5645 2.675 56.8305 2.733C60.0825 2.881 61.6015 4.424 61.7495 7.652C61.8075 8.917 61.8185 9.297 61.8185 12.501C61.8185 15.706 61.8065 16.085 61.7495 17.35C61.6005 20.575 60.0855 22.121 56.8305 22.269C55.5645 22.327 55.1865 22.339 51.9805 22.339C48.7765 22.339 48.3965 22.327 47.1315 22.269C43.8715 22.12 42.3605 20.57 42.2125 17.349C42.1545 16.084 42.1425 15.705 42.1425 12.5C42.1425 9.296 42.1555 8.917 42.2125 7.651C42.3615 4.424 43.8765 2.88 47.1315 2.732C48.3975 2.675 48.7765 2.663 51.9805 2.663ZM51.9805 0.5C48.7215 0.5 48.3135 0.514 47.0335 0.572C42.6755 0.772 40.2535 3.19 40.0535 7.552C39.9945 8.833 39.9805 9.241 39.9805 12.5C39.9805 15.759 39.9945 16.168 40.0525 17.448C40.2525 21.806 42.6705 24.228 47.0325 24.428C48.3135 24.486 48.7215 24.5 51.9805 24.5C55.2395 24.5 55.6485 24.486 56.9285 24.428C61.2825 24.228 63.7105 21.81 63.9075 17.448C63.9665 16.168 63.9805 15.759 63.9805 12.5C63.9805 9.241 63.9665 8.833 63.9085 7.553C63.7125 3.199 61.2915 0.773 56.9295 0.573C55.6485 0.514 55.2395 0.5 51.9805 0.5ZM51.9805 6.338C48.5775 6.338 45.8185 9.097 45.8185 12.5C45.8185 15.903 48.5775 18.663 51.9805 18.663C55.3835 18.663 58.1425 15.904 58.1425 12.5C58.1425 9.097 55.3835 6.338 51.9805 6.338ZM51.9805 16.5C49.7715 16.5 47.9805 14.71 47.9805 12.5C47.9805 10.291 49.7715 8.5 51.9805 8.5C54.1895 8.5 55.9805 10.291 55.9805 12.5C55.9805 14.71 54.1895 16.5 51.9805 16.5ZM58.3865 4.655C57.5905 4.655 56.9455 5.3 56.9455 6.095C56.9455 6.89 57.5905 7.535 58.3865 7.535C59.1815 7.535 59.8255 6.89 59.8255 6.095C59.8255 5.3 59.1815 4.655 58.3865 4.655Z" fill="#FDEED7"/>
</g>
<g clip-path="url(#clip1_932_9844)">
<path d="M99.5955 3.684C95.9915 3.438 87.9645 3.439 84.3655 3.684C80.4685 3.95 80.0095 6.304 79.9805 12.5C80.0095 18.685 80.4645 21.049 84.3655 21.316C87.9655 21.561 95.9915 21.562 99.5955 21.316C103.492 21.05 103.951 18.696 103.98 12.5C103.951 6.315 103.496 3.951 99.5955 3.684ZM88.9805 16.5V8.5L96.9805 12.493L88.9805 16.5Z" fill="#FDEED7"/>
</g>
<g clip-path="url(#clip2_932_9844)">
<path d="M138.98 0.5H124.98C122.219 0.5 119.98 2.739 119.98 5.5V19.5C119.98 22.261 122.219 24.5 124.98 24.5H138.98C141.742 24.5 143.98 22.261 143.98 19.5V5.5C143.98 2.739 141.742 0.5 138.98 0.5ZM127.98 19.5H124.98V8.5H127.98V19.5ZM126.48 7.232C125.514 7.232 124.73 6.442 124.73 5.468C124.73 4.494 125.514 3.704 126.48 3.704C127.446 3.704 128.23 4.494 128.23 5.468C128.23 6.442 127.447 7.232 126.48 7.232ZM139.98 19.5H136.98V13.896C136.98 10.528 132.98 10.783 132.98 13.896V19.5H129.98V8.5H132.98V10.265C134.376 7.679 139.98 7.488 139.98 12.741V19.5Z" fill="#FDEED7"/>
</g>
<defs>
<clipPath id="clip0_932_9844">
<rect width="24" height="24" fill="white" transform="translate(39.9805 0.5)"/>
</clipPath>
<clipPath id="clip1_932_9844">
<rect width="24" height="24" fill="white" transform="translate(79.9805 0.5)"/>
</clipPath>
<clipPath id="clip2_932_9844">
<rect width="24" height="24" fill="white" transform="translate(119.98 0.5)"/>
</clipPath>
</defs>
</svg>
