<svg width="144" height="25" viewBox="0 0 144 25" fill="none" xmlns="http://www.w3.org/2000/svg">
<path d="M14.2737 10.6635L23.2023 0.5H21.0872L13.3313 9.32305L7.14125 0.5H0L9.3626 13.8433L0 24.5H2.11504L10.3002 15.1806L16.8388 24.5H23.98M2.8784 2.0619H6.12769L21.0856 23.0148H17.8355" fill="#FDEED7"/>
<g clip-path="url(#clip0_932_12910)">
<path d="M51.98 2.663C55.184 2.663 55.564 2.675 56.83 2.733C60.082 2.881 61.601 4.424 61.749 7.652C61.807 8.917 61.818 9.297 61.818 12.501C61.818 15.706 61.806 16.085 61.749 17.35C61.6 20.575 60.085 22.121 56.83 22.269C55.564 22.327 55.186 22.339 51.98 22.339C48.776 22.339 48.396 22.327 47.131 22.269C43.871 22.12 42.36 20.57 42.212 17.349C42.154 16.084 42.142 15.705 42.142 12.5C42.142 9.296 42.155 8.917 42.212 7.651C42.361 4.424 43.876 2.88 47.131 2.732C48.397 2.675 48.776 2.663 51.98 2.663ZM51.98 0.5C48.721 0.5 48.313 0.514 47.033 0.572C42.675 0.772 40.253 3.19 40.053 7.552C39.994 8.833 39.98 9.241 39.98 12.5C39.98 15.759 39.994 16.168 40.052 17.448C40.252 21.806 42.67 24.228 47.032 24.428C48.313 24.486 48.721 24.5 51.98 24.5C55.239 24.5 55.648 24.486 56.928 24.428C61.282 24.228 63.71 21.81 63.907 17.448C63.966 16.168 63.98 15.759 63.98 12.5C63.98 9.241 63.966 8.833 63.908 7.553C63.712 3.199 61.291 0.773 56.929 0.573C55.648 0.514 55.239 0.5 51.98 0.5ZM51.98 6.338C48.577 6.338 45.818 9.097 45.818 12.5C45.818 15.903 48.577 18.663 51.98 18.663C55.383 18.663 58.142 15.904 58.142 12.5C58.142 9.097 55.383 6.338 51.98 6.338ZM51.98 16.5C49.771 16.5 47.98 14.71 47.98 12.5C47.98 10.291 49.771 8.5 51.98 8.5C54.189 8.5 55.98 10.291 55.98 12.5C55.98 14.71 54.189 16.5 51.98 16.5ZM58.386 4.655C57.59 4.655 56.945 5.3 56.945 6.095C56.945 6.89 57.59 7.535 58.386 7.535C59.181 7.535 59.825 6.89 59.825 6.095C59.825 5.3 59.181 4.655 58.386 4.655Z" fill="#FDEED7"/>
</g>
<g clip-path="url(#clip1_932_12910)">
<path d="M99.595 3.684C95.991 3.438 87.964 3.439 84.365 3.684C80.468 3.95 80.009 6.304 79.98 12.5C80.009 18.685 80.464 21.049 84.365 21.316C87.965 21.561 95.991 21.562 99.595 21.316C103.492 21.05 103.951 18.696 103.98 12.5C103.951 6.315 103.496 3.951 99.595 3.684ZM88.98 16.5V8.5L96.98 12.493L88.98 16.5Z" fill="#FDEED7"/>
</g>
<g clip-path="url(#clip2_932_12910)">
<path d="M138.98 0.5H124.98C122.219 0.5 119.98 2.739 119.98 5.5V19.5C119.98 22.261 122.219 24.5 124.98 24.5H138.98C141.742 24.5 143.98 22.261 143.98 19.5V5.5C143.98 2.739 141.742 0.5 138.98 0.5ZM127.98 19.5H124.98V8.5H127.98V19.5ZM126.48 7.232C125.514 7.232 124.73 6.442 124.73 5.468C124.73 4.494 125.514 3.704 126.48 3.704C127.446 3.704 128.23 4.494 128.23 5.468C128.23 6.442 127.447 7.232 126.48 7.232ZM139.98 19.5H136.98V13.896C136.98 10.528 132.98 10.783 132.98 13.896V19.5H129.98V8.5H132.98V10.265C134.376 7.679 139.98 7.488 139.98 12.741V19.5Z" fill="#FDEED7"/>
</g>
<defs>
<clipPath id="clip0_932_12910">
<rect width="24" height="24" fill="white" transform="translate(39.98 0.5)"/>
</clipPath>
<clipPath id="clip1_932_12910">
<rect width="24" height="24" fill="white" transform="translate(79.98 0.5)"/>
</clipPath>
<clipPath id="clip2_932_12910">
<rect width="24" height="24" fill="white" transform="translate(119.98 0.5)"/>
</clipPath>
</defs>
</svg>
