<svg width="104" height="26" viewBox="0 0 104 26" fill="none" xmlns="http://www.w3.org/2000/svg">
<g clip-path="url(#clip0_1048_1700)">
<path d="M0 0.5V4.6769H7.47995V25.0086H12.5145V4.6769H19.9945V0.5H0Z" fill="#FDEED7"/>
<path d="M22.9539 14.3002H30.8859C30.7421 12.0684 29.2625 10.5328 27.1048 10.5328C24.5773 10.5328 23.3649 12.007 22.9539 14.3002ZM18.2275 16.1839C18.2275 10.9832 21.8031 6.94965 27.0226 6.94965C32.7559 6.94965 35.8177 11.2699 35.8177 17.5352H22.8922C23.2416 20.2379 24.7622 21.9169 27.4542 21.9169C29.2831 21.9169 30.3722 21.0979 30.8859 19.7465H35.5506C34.893 22.8587 32.0778 25.5 27.4747 25.5C21.5565 25.5 18.2275 21.4255 18.2275 16.1839Z" fill="#FDEED7"/>
<path d="M42.4135 10.2256H42.5163C43.5848 8.23953 44.8178 7.21578 46.8933 7.21578C47.2631 7.19531 47.6536 7.23626 48.0029 7.35911V11.4336H47.9002C44.7972 11.1265 42.5779 12.7236 42.5779 16.4295V25.0086H37.8516V7.42053H42.4135V10.2256Z" fill="#FDEED7"/>
<path d="M55.0102 10.2256H55.113C56.1815 8.23953 57.4145 7.21578 59.49 7.21578C59.8599 7.19531 60.2503 7.23626 60.5996 7.35911V11.4336H60.4969C57.4145 11.1265 55.1746 12.7236 55.1746 16.4295V25.0086H50.4277V7.42053H54.9897V10.2256H55.0102Z" fill="#FDEED7"/>
<path d="M66.3738 14.3002H74.3058C74.162 12.0684 72.6824 10.5328 70.5248 10.5328C67.9972 10.5328 66.7848 12.007 66.3738 14.3002ZM61.6475 16.1839C61.6475 10.9832 65.223 6.94965 70.4426 6.94965C76.1758 6.94965 79.2377 11.2699 79.2377 17.5352H66.3122C66.6615 20.2379 68.2027 21.9169 70.8741 21.9169C72.703 21.9169 73.7921 21.0979 74.3264 19.7465H78.9911C78.3335 22.8587 75.5182 25.5 70.9152 25.5C64.9764 25.5 61.6475 21.4255 61.6475 16.1839Z" fill="#FDEED7"/>
<path d="M80.6973 19.2961H85.0743C85.3825 21.3231 86.8415 22.224 88.9581 22.224C91.0747 22.224 92.2254 21.4255 92.2254 20.197C92.2254 18.518 89.965 18.3338 87.5196 17.8628C84.3139 17.2486 81.1904 16.3886 81.1904 12.5598C81.1904 8.73097 84.3961 6.94965 88.4649 6.94965C93.1501 6.94965 95.7599 9.24285 96.1092 12.7646H91.8555C91.65 10.8809 90.4376 10.2052 88.4238 10.2052C86.5949 10.2052 85.362 10.8809 85.362 12.1503C85.362 13.6655 87.7251 13.7883 90.2732 14.3207C93.2734 14.9349 96.5613 15.7539 96.5613 19.8694C96.5613 23.3911 93.4995 25.5205 89.0608 25.5205C83.8619 25.5 80.9644 23.0225 80.6973 19.2961Z" fill="#FDEED7"/>
<path d="M101.308 19.6851C101.843 19.7056 102.377 19.8694 102.809 20.1765C103.261 20.4836 103.589 20.9136 103.795 21.405C104 21.8964 104.042 22.4492 103.918 22.9611C103.815 23.473 103.548 23.9644 103.158 24.3329C102.767 24.7015 102.274 24.9677 101.74 25.07C101.206 25.1724 100.651 25.111 100.158 24.9062C99.6645 24.7015 99.233 24.3534 98.9247 23.903C98.6165 23.4525 98.4727 22.9406 98.4727 22.4083C98.4727 22.0397 98.5343 21.6917 98.6781 21.3436C98.822 21.016 99.0275 20.7089 99.2946 20.4427C99.5618 20.197 99.87 19.9922 100.219 19.8694C100.569 19.7261 100.939 19.6646 101.308 19.6851Z" fill="#FDEED7"/>
</g>
<defs>
<clipPath id="clip0_1048_1700">
<rect width="104" height="25" fill="white" transform="translate(0 0.5)"/>
</clipPath>
</defs>
</svg>
