<svg width="36" height="36" viewBox="0 0 36 36" fill="none" xmlns="http://www.w3.org/2000/svg">
<rect width="36" height="36" rx="18" fill="#F9D9AF"/>
<path d="M21.6 19.6001C22.928 19.6001 24 20.6721 24 22.0001C24 23.3281 22.928 24.4001 21.6 24.4001C20.272 24.4001 19.2 23.3281 19.2 22.0001C19.2 21.8081 19.224 21.6321 19.272 21.4481L15.768 19.6081C15.328 20.0961 14.704 20.4001 14 20.4001C12.672 20.4001 11.6 19.3281 11.6 18.0001C11.6 16.6721 12.672 15.6001 14 15.6001C14.704 15.6001 15.328 15.9121 15.768 16.3921L19.272 14.5521C19.224 14.3681 19.2 14.1921 19.2 14.0001C19.2 12.6721 20.272 11.6001 21.6 11.6001C22.928 11.6001 24 12.6721 24 14.0001C24 15.3281 22.928 16.4001 21.6 16.4001C20.896 16.4001 20.272 16.0881 19.832 15.6081L16.328 17.4481C16.4249 17.8097 16.4249 18.1905 16.328 18.5521L19.832 20.3921C20.272 19.9041 20.896 19.6001 21.6 19.6001Z" fill="#DD6219"/>
</svg>
