<svg width="104" height="26" viewBox="0 0 104 26" fill="none" xmlns="http://www.w3.org/2000/svg">
<g clip-path="url(#clip0_36_1410)">
<path d="M0 0.5V4.6769H7.47995V25.0086H12.5145V4.6769H19.9945V0.5H0Z" fill="#EC7C23"/>
<path d="M22.9536 14.3001H30.8857C30.7418 12.0683 29.2623 10.5327 27.1046 10.5327C24.577 10.5327 23.3646 12.0069 22.9536 14.3001ZM18.2273 16.1838C18.2273 10.9832 21.8029 6.94958 27.0224 6.94958C32.7556 6.94958 35.8175 11.2698 35.8175 17.5352H22.892C23.2413 20.2379 24.762 21.9168 27.4539 21.9168C29.2828 21.9168 30.3719 21.0978 30.8857 19.7465H35.5504C34.8928 22.8587 32.0775 25.5 27.4745 25.5C21.5563 25.5 18.2273 21.4254 18.2273 16.1838Z" fill="#EC7C23"/>
<path d="M42.4138 10.2257H42.5165C43.5851 8.23959 44.818 7.21584 46.8935 7.21584C47.2634 7.19537 47.6538 7.23632 48.0032 7.35917V11.4337H47.9004C44.7975 11.1266 42.5781 12.7236 42.5781 16.4296V25.0086H37.8518V7.42059H42.4138V10.2257Z" fill="#EC7C23"/>
<path d="M55.0105 10.2257H55.1132C56.1818 8.23959 57.4147 7.21584 59.4902 7.21584C59.8601 7.19537 60.2505 7.23632 60.5999 7.35917V11.4337H60.4971C57.4147 11.1266 55.1749 12.7236 55.1749 16.4296V25.0086H50.428V7.42059H54.9899V10.2257H55.0105Z" fill="#EC7C23"/>
<path d="M66.3743 14.3001H74.3063C74.1625 12.0683 72.6829 10.5327 70.5252 10.5327C67.9977 10.5327 66.7853 12.0069 66.3743 14.3001ZM61.6479 16.1838C61.6479 10.9832 65.2235 6.94958 70.443 6.94958C76.1763 6.94958 79.2381 11.2698 79.2381 17.5352H66.3126C66.662 20.2379 68.2032 21.9168 70.8746 21.9168C72.7035 21.9168 73.7926 21.0978 74.3269 19.7465H78.9916C78.334 22.8587 75.5187 25.5 70.9157 25.5C64.9769 25.5 61.6479 21.4254 61.6479 16.1838Z" fill="#EC7C23"/>
<path d="M80.697 19.296H85.074C85.3823 21.323 86.8413 22.2239 88.9578 22.2239C91.0744 22.2239 92.2252 21.4254 92.2252 20.1969C92.2252 18.518 89.9648 18.3337 87.5194 17.8628C84.3137 17.2485 81.1902 16.3886 81.1902 12.5597C81.1902 8.73091 84.3959 6.94958 88.4647 6.94958C93.1499 6.94958 95.7597 9.24279 96.109 12.7645H91.8553C91.6498 10.8808 90.4374 10.2051 88.4236 10.2051C86.5947 10.2051 85.3617 10.8808 85.3617 12.1502C85.3617 13.6654 87.7249 13.7882 90.273 14.3206C93.2732 14.9348 96.5611 15.7538 96.5611 19.8693C96.5611 23.391 93.4992 25.5204 89.0606 25.5204C83.8616 25.5 80.9642 23.0225 80.697 19.296Z" fill="#EC7C23"/>
<path d="M101.308 19.6851C101.842 19.7056 102.377 19.8694 102.808 20.1765C103.26 20.4836 103.589 20.9136 103.794 21.405C104 21.8964 104.041 22.4492 103.918 22.9611C103.815 23.473 103.548 23.9644 103.157 24.3329C102.767 24.7015 102.274 24.9677 101.74 25.07C101.205 25.1724 100.65 25.111 100.157 24.9062C99.664 24.7015 99.2325 24.3534 98.9242 23.903C98.616 23.4525 98.4722 22.9406 98.4722 22.4083C98.4722 22.0397 98.5338 21.6917 98.6777 21.3436C98.8215 21.016 99.027 20.7089 99.2941 20.4427C99.5613 20.197 99.8695 19.9922 100.219 19.8694C100.568 19.7261 100.938 19.6646 101.308 19.6851Z" fill="#EC7C23"/>
</g>
<defs>
<clipPath id="clip0_36_1410">
<rect width="104" height="25" fill="white" transform="translate(0 0.5)"/>
</clipPath>
</defs>
</svg>
