<svg width="16" height="16" viewBox="0 0 16 16" fill="none" xmlns="http://www.w3.org/2000/svg">
<path d="M12.36 2.77997L8.69337 1.40664C8.31337 1.26664 7.69337 1.26664 7.31337 1.40664L3.6467 2.77997C2.94003 3.04664 2.3667 3.8733 2.3667 4.62664V10.0266C2.3667 10.5666 2.72003 11.28 3.15337 11.6L6.82003 14.34C7.4667 14.8266 8.5267 14.8266 9.17337 14.34L12.84 11.6C13.2734 11.2733 13.6267 10.5666 13.6267 10.0266V4.62664C13.6334 3.8733 13.06 3.04664 12.36 2.77997ZM8.50003 8.57997V10.3333C8.50003 10.6066 8.27337 10.8333 8.00003 10.8333C7.7267 10.8333 7.50003 10.6066 7.50003 10.3333V8.57997C6.8267 8.36664 6.33337 7.73997 6.33337 6.99997C6.33337 6.07997 7.08003 5.3333 8.00003 5.3333C8.92003 5.3333 9.6667 6.07997 9.6667 6.99997C9.6667 7.74664 9.17337 8.36664 8.50003 8.57997Z" fill="white"/>
</svg>
