<svg width="104" height="26" viewBox="0 0 104 26" fill="none" xmlns="http://www.w3.org/2000/svg">
<g clip-path="url(#clip0_30_1420)">
<path d="M0 0.5V4.6769H7.47995V25.0086H12.5145V4.6769H19.9945V0.5H0Z" fill="#EC7C23"/>
<path d="M22.9536 14.3002H30.8857C30.7418 12.0684 29.2623 10.5328 27.1046 10.5328C24.577 10.5328 23.3646 12.007 22.9536 14.3002ZM18.2273 16.1839C18.2273 10.9832 21.8029 6.94965 27.0224 6.94965C32.7556 6.94965 35.8175 11.2699 35.8175 17.5352H22.892C23.2413 20.2379 24.762 21.9169 27.4539 21.9169C29.2828 21.9169 30.3719 21.0979 30.8857 19.7465H35.5504C34.8928 22.8587 32.0775 25.5 27.4745 25.5C21.5563 25.5 18.2273 21.4255 18.2273 16.1839Z" fill="#EC7C23"/>
<path d="M42.4138 10.2256H42.5165C43.5851 8.23956 44.818 7.21581 46.8935 7.21581C47.2634 7.19534 47.6538 7.23629 48.0032 7.35914V11.4337H47.9004C44.7975 11.1265 42.5781 12.7236 42.5781 16.4296V25.0086H37.8518V7.42056H42.4138V10.2256Z" fill="#EC7C23"/>
<path d="M55.0105 10.2256H55.1132C56.1818 8.23956 57.4147 7.21581 59.4902 7.21581C59.8601 7.19534 60.2505 7.23629 60.5999 7.35914V11.4337H60.4971C57.4147 11.1265 55.1749 12.7236 55.1749 16.4296V25.0086H50.428V7.42056H54.9899V10.2256H55.0105Z" fill="#EC7C23"/>
<path d="M66.3743 14.3002H74.3063C74.1625 12.0684 72.6829 10.5328 70.5252 10.5328C67.9977 10.5328 66.7853 12.007 66.3743 14.3002ZM61.6479 16.1839C61.6479 10.9832 65.2235 6.94965 70.443 6.94965C76.1763 6.94965 79.2381 11.2699 79.2381 17.5352H66.3126C66.662 20.2379 68.2032 21.9169 70.8746 21.9169C72.7035 21.9169 73.7926 21.0979 74.3269 19.7465H78.9916C78.334 22.8587 75.5187 25.5 70.9157 25.5C64.9769 25.5 61.6479 21.4255 61.6479 16.1839Z" fill="#EC7C23"/>
<path d="M80.697 19.2961H85.074C85.3823 21.3231 86.8413 22.224 88.9578 22.224C91.0744 22.224 92.2252 21.4255 92.2252 20.197C92.2252 18.518 89.9648 18.3338 87.5194 17.8628C84.3137 17.2486 81.1902 16.3886 81.1902 12.5598C81.1902 8.73097 84.3959 6.94965 88.4647 6.94965C93.1499 6.94965 95.7597 9.24285 96.109 12.7646H91.8553C91.6498 10.8809 90.4374 10.2052 88.4236 10.2052C86.5947 10.2052 85.3617 10.8809 85.3617 12.1503C85.3617 13.6655 87.7249 13.7883 90.273 14.3207C93.2732 14.9349 96.5611 15.7539 96.5611 19.8694C96.5611 23.3911 93.4992 25.5205 89.0606 25.5205C83.8616 25.5 80.9642 23.0225 80.697 19.2961Z" fill="#EC7C23"/>
<path d="M101.308 19.6851C101.842 19.7056 102.377 19.8694 102.808 20.1765C103.26 20.4836 103.589 20.9136 103.794 21.405C104 21.8964 104.041 22.4492 103.918 22.9611C103.815 23.473 103.548 23.9644 103.157 24.3329C102.767 24.7015 102.274 24.9676 101.74 25.07C101.205 25.1724 100.65 25.111 100.157 24.9062C99.664 24.7015 99.2325 24.3534 98.9242 23.9029C98.616 23.4525 98.4722 22.9406 98.4722 22.4083C98.4722 22.0397 98.5338 21.6916 98.6777 21.3436C98.8215 21.016 99.027 20.7088 99.2941 20.4427C99.5613 20.197 99.8695 19.9922 100.219 19.8694C100.568 19.726 100.938 19.6646 101.308 19.6851Z" fill="#EC7C23"/>
</g>
<defs>
<clipPath id="clip0_30_1420">
<rect width="104" height="25" fill="white" transform="translate(0 0.5)"/>
</clipPath>
</defs>
</svg>
