<svg width="104" height="26" viewBox="0 0 104 26" fill="none" xmlns="http://www.w3.org/2000/svg">
<g clip-path="url(#clip0_1048_2352)">
<path d="M0 0.5V4.6769H7.47995V25.0086H12.5145V4.6769H19.9945V0.5H0Z" fill="#EC7C23"/>
<path d="M22.9536 14.3002H30.8857C30.7418 12.0685 29.2623 10.5328 27.1046 10.5328C24.577 10.5328 23.3646 12.007 22.9536 14.3002ZM18.2273 16.1839C18.2273 10.9833 21.8029 6.94971 27.0224 6.94971C32.7556 6.94971 35.8175 11.2699 35.8175 17.5353H22.892C23.2413 20.238 24.762 21.9169 27.4539 21.9169C29.2828 21.9169 30.3719 21.0979 30.8857 19.7466H35.5504C34.8928 22.8588 32.0775 25.5001 27.4745 25.5001C21.5563 25.5001 18.2273 21.4255 18.2273 16.1839Z" fill="#EC7C23"/>
<path d="M42.4138 10.2255H42.5165C43.5851 8.23947 44.818 7.21572 46.8935 7.21572C47.2634 7.19525 47.6538 7.2362 48.0032 7.35905V11.4336H47.9004C44.7975 11.1265 42.5781 12.7235 42.5781 16.4295V25.0085H37.8518V7.42047H42.4138V10.2255Z" fill="#EC7C23"/>
<path d="M55.0105 10.2255H55.1132C56.1818 8.23947 57.4147 7.21572 59.4902 7.21572C59.8601 7.19525 60.2505 7.2362 60.5999 7.35905V11.4336H60.4971C57.4147 11.1265 55.1749 12.7235 55.1749 16.4295V25.0085H50.428V7.42047H54.9899V10.2255H55.0105Z" fill="#EC7C23"/>
<path d="M66.3743 14.3002H74.3063C74.1625 12.0685 72.6829 10.5328 70.5252 10.5328C67.9977 10.5328 66.7853 12.007 66.3743 14.3002ZM61.6479 16.1839C61.6479 10.9833 65.2235 6.94971 70.443 6.94971C76.1763 6.94971 79.2381 11.2699 79.2381 17.5353H66.3126C66.662 20.238 68.2032 21.9169 70.8746 21.9169C72.7035 21.9169 73.7926 21.0979 74.3269 19.7466H78.9916C78.334 22.8588 75.5187 25.5001 70.9157 25.5001C64.9769 25.5001 61.6479 21.4255 61.6479 16.1839Z" fill="#EC7C23"/>
<path d="M80.697 19.2961H85.074C85.3823 21.3232 86.8413 22.2241 88.9578 22.2241C91.0744 22.2241 92.2252 21.4255 92.2252 20.197C92.2252 18.5181 89.9648 18.3338 87.5194 17.8629C84.3137 17.2486 81.1902 16.3887 81.1902 12.5599C81.1902 8.73103 84.3959 6.94971 88.4647 6.94971C93.1499 6.94971 95.7597 9.24291 96.109 12.7646H91.8553C91.6498 10.8809 90.4374 10.2052 88.4236 10.2052C86.5947 10.2052 85.3617 10.8809 85.3617 12.1504C85.3617 13.6655 87.7249 13.7884 90.273 14.3207C93.2732 14.935 96.5611 15.754 96.5611 19.8694C96.5611 23.3911 93.4992 25.5205 89.0606 25.5205C83.8616 25.5001 80.9642 23.0226 80.697 19.2961Z" fill="#EC7C23"/>
<path d="M101.308 19.685C101.842 19.7055 102.377 19.8693 102.808 20.1764C103.26 20.4835 103.589 20.9135 103.794 21.4049C104 21.8963 104.041 22.4491 103.918 22.961C103.815 23.4729 103.548 23.9643 103.157 24.3328C102.767 24.7014 102.274 24.9675 101.74 25.0699C101.205 25.1723 100.65 25.1109 100.157 24.9061C99.664 24.7014 99.2325 24.3533 98.9242 23.9028C98.616 23.4524 98.4722 22.9405 98.4722 22.4082C98.4722 22.0396 98.5338 21.6915 98.6777 21.3435C98.8215 21.0159 99.027 20.7087 99.2941 20.4426C99.5613 20.1969 99.8695 19.9921 100.219 19.8693C100.568 19.7259 100.938 19.6645 101.308 19.685Z" fill="#EC7C23"/>
</g>
<defs>
<clipPath id="clip0_1048_2352">
<rect width="104" height="25" fill="white" transform="translate(0 0.5)"/>
</clipPath>
</defs>
</svg>
