<svg width="52" height="12" viewBox="0 0 52 12" fill="none" xmlns="http://www.w3.org/2000/svg">
<g clip-path="url(#clip0_93_4960)">
<path d="M0 0V2.00491H3.73997V11.7641H6.25726V2.00491H9.99723V0H0Z" fill="#F09947"/>
<path d="M11.4769 6.62396H15.443C15.371 5.55271 14.6313 4.8156 13.5524 4.8156C12.2886 4.8156 11.6824 5.52322 11.4769 6.62396ZM9.11377 7.52813C9.11377 5.03182 10.9016 3.0957 13.5113 3.0957C16.3779 3.0957 17.9089 5.16941 17.9089 8.17678H11.4461C11.6208 9.47408 12.3811 10.28 13.7271 10.28C14.6415 10.28 15.1861 9.88686 15.443 9.23821H17.7753C17.4465 10.7321 16.0389 11.9999 13.7374 11.9999C10.7783 11.9999 9.11377 10.0441 9.11377 7.52813Z" fill="#F09947"/>
<path d="M21.2068 4.66832H21.2581C21.7924 3.71501 22.4089 3.2236 23.4466 3.2236C23.6316 3.21378 23.8268 3.23343 24.0015 3.2924V5.24817H23.9501C22.3986 5.10075 21.289 5.86734 21.289 7.64621V11.7641H18.9258V3.32188H21.2068V4.66832Z" fill="#F09947"/>
<path d="M27.5051 4.66832H27.5565C28.0908 3.71501 28.7072 3.2236 29.745 3.2236C29.9299 3.21378 30.1251 3.23343 30.2998 3.2924V5.24817H30.2484C28.7072 5.10075 27.5873 5.86734 27.5873 7.64621V11.7641H25.2139V3.32188H27.4948V4.66832H27.5051Z" fill="#F09947"/>
<path d="M33.1869 6.62396H37.1529C37.081 5.55271 36.3412 4.8156 35.2624 4.8156C33.9986 4.8156 33.3924 5.52322 33.1869 6.62396ZM30.8237 7.52813C30.8237 5.03182 32.6115 3.0957 35.2213 3.0957C38.0879 3.0957 39.6188 5.16941 39.6188 8.17678H33.1561C33.3307 9.47408 34.1013 10.28 35.437 10.28C36.3515 10.28 36.896 9.88686 37.1632 9.23821H39.4955C39.1667 10.7321 37.7591 11.9999 35.4576 11.9999C32.4882 11.9999 30.8237 10.0441 30.8237 7.52813Z" fill="#F09947"/>
<path d="M40.3486 9.02199H42.5371C42.6913 9.99497 43.4208 10.4274 44.479 10.4274C45.5373 10.4274 46.1127 10.0441 46.1127 9.45443C46.1127 8.64853 44.9825 8.56008 43.7598 8.33403C42.157 8.03919 40.5952 7.62642 40.5952 5.78858C40.5952 3.95074 42.1981 3.0957 44.2324 3.0957C46.5751 3.0957 47.88 4.19644 48.0546 5.88686H45.9278C45.825 4.98268 45.2188 4.65836 44.2119 4.65836C43.2975 4.65836 42.681 4.98268 42.681 5.59202C42.681 6.31929 43.8626 6.37826 45.1366 6.63379C46.6367 6.92863 48.2807 7.32175 48.2807 9.29718C48.2807 10.9876 46.7497 12.0097 44.5304 12.0097C41.9309 11.9999 40.4822 10.8107 40.3486 9.02199Z" fill="#F09947"/>
<path d="M50.6542 9.20887C50.9214 9.2187 51.1885 9.29733 51.4043 9.44475C51.6303 9.59217 51.7947 9.79855 51.8975 10.0344C52.0002 10.2703 52.0208 10.5357 51.9591 10.7814C51.9077 11.0271 51.7742 11.2629 51.5789 11.4398C51.3837 11.6167 51.1371 11.7445 50.87 11.7936C50.6029 11.8428 50.3254 11.8133 50.0788 11.715C49.8323 11.6167 49.6165 11.4497 49.4624 11.2334C49.3082 11.0172 49.2363 10.7715 49.2363 10.516C49.2363 10.3391 49.2672 10.172 49.3391 10.0049C49.411 9.8477 49.5137 9.70027 49.6473 9.57251C49.7809 9.45457 49.935 9.35629 50.1097 9.29733C50.2843 9.22853 50.4693 9.19905 50.6542 9.20887Z" fill="#F09947"/>
</g>
<defs>
<clipPath id="clip0_93_4960">
<rect width="52" height="12" fill="white"/>
</clipPath>
</defs>
</svg>
