<svg width="633" height="406" viewBox="0 0 633 406" fill="none" xmlns="http://www.w3.org/2000/svg">
<g clip-path="url(#clip0_543_10219)">
<path d="M437.408 66.303C471.581 79.6488 497.827 105.396 507.681 138.344C516.256 167.016 510.959 198.076 493.326 222.287C472.081 251.293 436.056 267.748 404.995 288.202C379.212 305.138 356.041 325.74 336.186 349.341C327.48 359.743 320.942 373.829 309.384 381.567C296.901 389.933 283.546 396.023 268.062 398.966C236.815 404.908 203.383 399.207 173.118 387.99C148.707 378.938 125.499 366.148 107.31 348.619C89.1029 331.09 76.1931 308.581 73.8593 285.055C71.5255 261.529 78.8417 241.742 98.086 226.711C126.073 204.851 172.97 208.997 189.362 175.494C196.678 160.556 197.327 133.161 189.436 117.854C183.713 106.729 174.026 96.4189 173.804 84.3318C173.174 48.7555 236.352 46.2566 264.191 45.4052C298.827 44.3316 334.371 42.2029 368.933 46.5898C392.437 49.5884 415.497 57.7699 437.427 66.3215L437.408 66.303ZM378.453 354.912C376.508 357.004 374.693 359.206 373.026 361.539C365.562 371.997 373.081 382.844 383.602 387.416C395.382 392.525 412.478 395.708 422.868 386.49C428.907 381.122 432.259 373.274 433.778 365.352C435.13 358.336 435.167 351.173 435 344.047C434.63 327.295 411.311 334.607 402.254 338.401C393.233 342.159 385.121 347.804 378.471 354.912H378.453Z" fill="#F5BE7C"/>
<path d="M306.865 383.51V127.386C306.865 115.54 316.46 105.933 328.295 105.933H501.142C512.978 105.933 522.572 115.54 522.572 127.386V383.51C522.572 395.357 512.978 404.963 501.142 404.963H328.295C316.46 404.963 306.865 395.357 306.865 383.51Z" fill="#FEF8EE"/>
<path d="M501.161 405.648H328.314C316.108 405.648 306.199 395.764 306.199 383.603V128.645C306.199 116.484 316.108 106.6 328.314 106.6H501.161C513.367 106.6 523.276 116.484 523.276 128.645V383.621C523.276 395.783 513.367 405.667 501.161 405.667V405.648ZM328.295 107.969C316.849 107.969 307.532 117.243 307.532 128.645V383.621C307.532 395.005 316.849 404.297 328.295 404.297H501.142C512.589 404.297 521.905 395.024 521.905 383.621V128.645C521.905 117.261 512.589 107.969 501.142 107.969H328.295Z" fill="#472C27"/>
<path d="M495.345 392.913H334.148C324.647 392.913 316.96 384.917 316.96 375.051V135.845C316.96 125.98 324.665 117.983 334.148 117.983H495.345C504.847 117.983 512.533 125.98 512.533 135.845V375.051C512.533 384.917 504.828 392.913 495.345 392.913Z" fill="#472C27"/>
<path d="M73.5816 297.586C95.0838 297.586 112.515 280.167 112.515 258.678C112.515 237.19 95.0838 219.77 73.5816 219.77C52.0794 219.77 34.6484 237.19 34.6484 258.678C34.6484 280.167 52.0794 297.586 73.5816 297.586Z" fill="#FEF8EE" stroke="#472C27" stroke-width="0.69" stroke-miterlimit="25.1"/>
<path d="M89.3435 251.071H88.3433V243.87C88.3433 236.263 82.1199 230.08 74.4333 230.08C66.7467 230.08 60.5233 236.263 60.5233 243.87V251.071H59.5231C57.7265 251.071 56.3003 252.496 56.3003 254.273V277.873C56.3003 279.65 57.745 281.076 59.5231 281.076H89.362C91.1586 281.076 92.5848 279.65 92.5848 277.873V254.273C92.5848 252.496 91.1401 251.071 89.362 251.071H89.3435ZM64.95 243.889C64.95 238.687 69.1916 234.486 74.4333 234.486C79.675 234.486 83.9165 238.687 83.9165 243.889V251.089H64.9686V243.889H64.95Z" fill="#F09947"/>
<path d="M62.1348 250.886C62.1348 250.886 61.7273 241.686 62.9313 239.28C64.1352 236.874 65.3577 234.893 68.5805 233.283C70.8216 232.135 73.3221 231.598 75.8411 231.691C77.4525 231.691 79.0639 231.302 79.4714 230.506C76.7487 229.544 73.8222 229.414 71.0068 230.117C66.5801 231.302 65.7651 232.116 63.3573 234.911C60.9309 237.706 60.5234 238.502 60.1345 241.705C59.7455 244.907 59.9863 251.126 59.9863 251.126L62.1534 250.923V250.886H62.1348Z" fill="#FEF8EE"/>
<path d="M56.4859 276.874C58.9122 279.28 64.5429 278.465 66.5618 278.465C68.5807 278.465 76.4525 278.669 80.8793 278.669C85.306 278.669 91.7702 279.465 92.5666 275.078C92.5666 275.078 93.8261 280.372 90.3625 280.927C86.8989 281.483 58.7085 281.075 58.7085 281.075C58.7085 281.075 55.6894 279.687 56.4859 276.874Z" fill="#472C27"/>
<path d="M56.4855 258.067C56.4855 258.067 58.3007 254.884 60.5233 254.069C63.7461 252.885 68.5803 254.069 74.2295 254.069C79.8787 254.069 85.5094 254.069 88.3433 253.681C91.1771 253.292 91.1957 252.922 91.1771 251.681C91.1771 251.681 89.5657 251.293 85.9354 251.293C82.3051 251.293 59.3379 250.904 59.3379 250.904C59.3379 250.904 54.5037 252.496 56.504 258.104V258.067H56.4855Z" fill="#FEF8EE"/>
<path d="M74.4337 273.672C72.989 273.672 71.8036 272.505 71.8036 271.062V267.267C69.6921 265.842 69.1364 262.973 70.5997 260.881C71.4702 259.641 72.8964 258.882 74.4152 258.882C76.9712 258.882 79.0457 260.937 79.0457 263.473C79.0457 264.99 78.3048 266.397 77.0268 267.267V271.062C77.0268 272.487 75.8599 273.672 74.3967 273.672H74.4337Z" fill="#472C27"/>
<path d="M89.5476 250.497V243.889C89.5476 235.615 82.7871 228.877 74.4337 228.877C66.0803 228.877 59.3198 235.578 59.3198 243.889V250.497C57.3009 250.608 55.6895 252.274 55.6895 254.292V277.892C55.6895 279.984 57.412 281.686 59.5235 281.686H89.3624C91.4739 281.686 93.1964 279.984 93.1964 277.892V254.292C93.1964 252.274 91.6035 250.608 89.5661 250.497H89.5476ZM74.4337 230.08C82.1203 230.08 88.3437 236.263 88.3437 243.87V250.46H83.9169V243.87C83.9169 238.669 79.6754 234.467 74.4337 234.467C69.192 234.467 64.9504 238.669 64.9504 243.87V250.46H60.5237V243.87C60.5237 236.263 66.7656 230.08 74.4337 230.08ZM82.6945 250.478H66.1729V243.889C66.1729 239.354 69.8773 235.689 74.4337 235.689C78.9901 235.689 82.6945 239.372 82.6945 243.889V250.478ZM91.9554 277.873C91.9554 279.299 90.7886 280.483 89.3253 280.483H59.505C58.0603 280.483 56.8749 279.317 56.8749 277.873V254.273C56.8749 252.848 58.0417 251.663 59.505 251.663H89.3438C90.7886 251.663 91.974 252.829 91.974 254.273V277.873H91.9554Z" fill="#472C27"/>
<path d="M379.897 266.86H406.384V405.315H379.897V266.86Z" fill="#F09947"/>
<path d="M406.366 406H379.879C379.509 406 379.194 405.685 379.194 405.315V266.86C379.194 266.489 379.509 266.175 379.879 266.175H406.366C406.736 266.175 407.051 266.489 407.051 266.86V405.315C407.051 405.685 406.736 406 406.366 406ZM380.583 404.63H405.68V267.545H380.583V404.63Z" fill="#472C27"/>
<path d="M379.897 271.413C379.897 278.41 382.583 278.466 386.399 276.503C394.011 272.616 401.031 272.561 406.365 272.616V263.546L379.879 263.731V271.395L379.897 271.413Z" fill="#472C27"/>
<path d="M382.935 278.299C382.361 278.299 381.787 278.188 381.287 277.855C379.879 276.985 379.212 274.949 379.212 271.413V263.75C379.212 263.38 379.527 263.065 379.898 263.065L406.384 262.88C406.755 262.88 407.069 263.195 407.069 263.565V272.635C407.069 272.82 406.995 272.987 406.866 273.135C406.736 273.283 406.551 273.338 406.366 273.338C401.939 273.264 394.53 273.172 386.714 277.133C385.547 277.707 384.195 278.299 382.935 278.299ZM380.583 264.435V271.413C380.583 274.338 381.065 276.115 381.991 276.689C382.769 277.17 384.084 276.929 386.103 275.911C393.289 272.246 399.957 271.895 405.699 271.95V264.268L380.602 264.453L380.583 264.435Z" fill="#472C27"/>
<path d="M388.899 270.414H397.345V302.214H388.899V270.414Z" fill="#472C27"/>
<path d="M397.364 302.899H388.918C388.547 302.899 388.232 302.584 388.232 302.214V270.414C388.232 270.043 388.547 269.729 388.918 269.729H397.364C397.734 269.729 398.049 270.043 398.049 270.414V302.214C398.049 302.584 397.734 302.899 397.364 302.899ZM389.603 301.529H396.697V271.099H389.603V301.529ZM388.788 337.642H397.456V369.443H388.788V337.642Z" fill="#472C27"/>
<path d="M397.475 370.109H388.806C388.436 370.109 388.121 369.794 388.121 369.424V337.624C388.121 337.254 388.436 336.939 388.806 336.939H397.475C397.845 336.939 398.16 337.254 398.16 337.624V369.424C398.16 369.794 397.845 370.109 397.475 370.109ZM389.473 368.739H396.789V338.309H389.473V368.739Z" fill="#472C27"/>
<path d="M158.319 405.315H234V165.351L158.319 229.303V405.315Z" fill="#FEF8EE"/>
<path d="M234.018 406H158.338C157.967 406 157.652 405.685 157.652 405.315V229.303C157.652 229.099 157.745 228.914 157.893 228.766L233.574 164.814C233.87 164.573 234.296 164.61 234.537 164.906C234.648 165.017 234.685 165.184 234.685 165.351V405.297C234.685 405.667 234.37 405.982 234 405.982L234.018 406ZM159.004 404.63H233.315V166.831L159.004 229.618V404.63Z" fill="#472C27"/>
<path d="M181.898 240.335V319.003H234V196.336L181.898 240.353V240.335Z" fill="#F09947"/>
<path d="M234.019 319.669H181.916C181.546 319.669 181.231 319.354 181.231 318.984V240.316C181.231 240.113 181.324 239.928 181.472 239.78L233.574 195.763C233.87 195.522 234.296 195.559 234.537 195.855C234.648 195.966 234.685 196.133 234.685 196.299V318.966C234.685 319.336 234.37 319.651 234 319.651L234.019 319.669ZM182.583 318.299H233.315V197.78L182.583 240.65V318.299Z" fill="#472C27"/>
<path d="M234.019 260.548C230.129 258.53 219.794 267.119 223.165 272.635C226.536 278.151 220.664 281.594 216.349 284.741C209.31 289.886 212.83 295.55 216.349 299.567C219.72 303.454 226.462 307.73 234.297 306.397C239.316 305.546 237.908 262.547 234.019 260.548Z" fill="#FEF8EE"/>
<path d="M207.958 322.834C207.588 322.834 207.273 322.52 207.273 322.149V218.326C207.273 217.956 207.588 217.642 207.958 217.642C208.329 217.642 208.644 217.956 208.644 218.326V322.149C208.644 322.52 208.329 322.834 207.958 322.834Z" fill="#472C27"/>
<path d="M189.158 322.76H234.018V389.563H189.158V322.76Z" fill="#472C27"/>
<path d="M234.019 390.248H189.158C188.788 390.248 188.473 389.933 188.473 389.563V322.76C188.473 322.39 188.788 322.075 189.158 322.075H234.019C234.389 322.075 234.704 322.39 234.704 322.76V389.563C234.704 389.933 234.389 390.248 234.019 390.248ZM189.844 388.897H233.333V323.445H189.844V388.897Z" fill="#472C27"/>
<path d="M210.125 322.76H213.051V389.563H210.125V322.76Z" fill="#F09947"/>
<path d="M135.778 322.149H139.186V405.315H135.778V322.149Z" fill="#472C27"/>
<path d="M139.186 406H135.778C135.408 406 135.093 405.685 135.093 405.315V322.149C135.093 321.779 135.408 321.465 135.778 321.465H139.186C139.557 321.465 139.871 321.779 139.871 322.149V405.315C139.871 405.685 139.557 406 139.186 406ZM136.463 404.63H138.501V322.834H136.463V404.63Z" fill="#472C27"/>
<path d="M160.597 401.891V405.297H135.778V401.891H160.597Z" fill="#472C27"/>
<path d="M160.598 406H135.778C135.408 406 135.093 405.685 135.093 405.315V401.909C135.093 401.539 135.408 401.224 135.778 401.224H160.598C160.968 401.224 161.283 401.539 161.283 401.909V405.315C161.283 405.685 160.968 406 160.598 406ZM136.463 404.63H159.931V402.594H136.463V404.63ZM234.019 288.183V291.589H135.778V288.183H234.019Z" fill="#472C27"/>
<path d="M234.019 292.274H135.778C135.408 292.274 135.093 291.959 135.093 291.589V288.183C135.093 287.813 135.408 287.499 135.778 287.499H234.019C234.389 287.499 234.704 287.813 234.704 288.183V291.589C234.704 291.959 234.389 292.274 234.019 292.274ZM136.463 290.904H233.315V288.868H136.463V290.904Z" fill="#472C27"/>
<path d="M216.349 319.669C215.978 319.669 215.663 319.354 215.663 318.984V289.886C215.663 289.516 215.978 289.201 216.349 289.201C216.719 289.201 217.034 289.516 217.034 289.886V318.984C217.034 319.354 216.719 319.669 216.349 319.669ZM229.184 319.669C228.814 319.669 228.499 319.354 228.499 318.984V289.886C228.499 289.516 228.814 289.201 229.184 289.201C229.555 289.201 229.87 289.516 229.87 289.886V318.984C229.87 319.354 229.555 319.669 229.184 319.669ZM203.476 319.669C203.106 319.669 202.791 319.354 202.791 318.984V289.886C202.791 289.516 203.106 289.201 203.476 289.201C203.846 289.201 204.161 289.516 204.161 289.886V318.984C204.161 319.354 203.846 319.669 203.476 319.669ZM190.622 319.669C190.251 319.669 189.936 319.354 189.936 318.984V289.886C189.936 289.516 190.251 289.201 190.622 289.201C190.992 289.201 191.307 289.516 191.307 289.886V318.984C191.307 319.354 190.992 319.669 190.622 319.669ZM177.768 319.669C177.397 319.669 177.082 319.354 177.082 318.984V289.886C177.082 289.516 177.397 289.201 177.768 289.201C178.138 289.201 178.453 289.516 178.453 289.886V318.984C178.453 319.354 178.138 319.669 177.768 319.669ZM164.895 319.669C164.524 319.669 164.209 319.354 164.209 318.984V289.886C164.209 289.516 164.524 289.201 164.895 289.201C165.265 289.201 165.58 289.516 165.58 289.886V318.984C165.58 319.354 165.265 319.669 164.895 319.669ZM152.059 319.669C151.689 319.669 151.374 319.354 151.374 318.984V289.886C151.374 289.516 151.689 289.201 152.059 289.201C152.429 289.201 152.744 289.516 152.744 289.886V318.984C152.744 319.354 152.429 319.669 152.059 319.669ZM139.186 319.669C138.816 319.669 138.501 319.354 138.501 318.984V289.886C138.501 289.516 138.816 289.201 139.186 289.201C139.557 289.201 139.872 289.516 139.872 289.886V318.984C139.872 319.354 139.557 319.669 139.186 319.669ZM242.057 319.669C241.687 319.669 241.372 319.354 241.372 318.984V289.886C241.372 289.516 241.687 289.201 242.057 289.201C242.428 289.201 242.743 289.516 242.743 289.886V318.984C242.743 319.354 242.428 319.669 242.057 319.669ZM234.019 398.115H158.338C157.968 398.115 157.653 397.8 157.653 397.43V389.563C157.653 389.193 157.968 388.878 158.338 388.878H234.019C234.389 388.878 234.704 389.193 234.704 389.563V397.43C234.704 397.8 234.389 398.115 234.019 398.115ZM159.005 396.763H233.315V390.266H159.005V396.763Z" fill="#472C27"/>
<path d="M234.018 406H158.338C157.967 406 157.652 405.685 157.652 405.315V397.448C157.652 397.078 157.967 396.763 158.338 396.763H234.018C234.389 396.763 234.704 397.078 234.704 397.448V405.315C234.704 405.685 234.389 406 234.018 406ZM159.004 404.63H233.315V398.133H159.004V404.63Z" fill="#472C27"/>
<path d="M158.319 389.582H164.283V397.448H158.319V389.582Z" fill="#472C27"/>
<path d="M164.302 398.115H158.338C157.967 398.115 157.652 397.8 157.652 397.43V389.563C157.652 389.193 157.967 388.878 158.338 388.878H164.302C164.672 388.878 164.987 389.193 164.987 389.563V397.43C164.987 397.8 164.672 398.115 164.302 398.115ZM159.004 396.763H163.598V390.266H159.004V396.763Z" fill="#472C27"/>
<path d="M158.319 397.448H161.301V405.315H158.319V397.448Z" fill="#472C27"/>
<path d="M161.301 406H158.319C157.949 406 157.634 405.685 157.634 405.315V397.448C157.634 397.078 157.949 396.763 158.319 396.763H161.301C161.672 396.763 161.986 397.078 161.986 397.448V405.315C161.986 405.685 161.672 406 161.301 406ZM159.004 404.63H160.616V398.133H159.004V404.63ZM135.778 318.984H234.018V326.536H135.778V318.984Z" fill="#472C27"/>
<path d="M234.019 327.221H135.778C135.408 327.221 135.093 326.906 135.093 326.536V318.984C135.093 318.614 135.408 318.299 135.778 318.299H234.019C234.389 318.299 234.704 318.614 234.704 318.984V326.536C234.704 326.906 234.389 327.221 234.019 327.221ZM136.463 325.851H233.315V319.669H136.463V325.851Z" fill="#472C27"/>
<path d="M379.897 405.315H234.019V165.351L379.897 266.86V405.315Z" fill="#FEF8EE"/>
<path d="M379.898 406H234.019C233.648 406 233.333 405.685 233.333 405.315V165.35C233.333 164.98 233.648 164.666 234.019 164.666C234.148 164.666 234.297 164.721 234.408 164.777L380.287 266.286C380.472 266.397 380.583 266.619 380.583 266.841V405.297C380.583 405.667 380.268 405.981 379.898 405.981V406ZM234.704 404.63H379.231V267.211L234.704 166.646V404.63Z" fill="#472C27"/>
<path d="M356.264 318.984H257.542V210.719L356.264 279.391V318.947V318.984Z" fill="#F09947"/>
<path d="M356.263 319.669H257.541C257.171 319.669 256.856 319.354 256.856 318.984V210.719C256.856 210.349 257.171 210.034 257.541 210.034C257.671 210.034 257.819 210.089 257.93 210.145L356.652 278.817C356.837 278.928 356.949 279.151 356.949 279.373V318.929C356.949 319.299 356.634 319.614 356.263 319.614V319.669ZM258.227 318.299H355.578V279.78L258.227 212.033V318.299Z" fill="#472C27"/>
<path d="M258.06 229.969C259.227 227.655 262.857 227.489 264.784 229.21C266.729 230.95 267.229 233.838 266.821 236.429C266.414 239.021 265.302 241.408 264.506 243.889C263.432 247.221 262.932 250.719 263.043 254.217C263.117 256.42 263.487 258.789 265.043 260.363C267.229 262.603 270.803 262.454 273.804 263.398C280.398 265.435 283.917 272.876 284.306 279.743C284.602 285 283.25 290.719 279.194 294.088C275.138 297.457 267.988 297.105 265.469 292.478C264.024 289.812 264.358 286.592 264.858 283.63C265.358 280.668 265.969 277.522 264.969 274.671C263.969 271.821 260.635 269.544 257.912 270.84L258.079 230.006L258.06 229.969ZM316.367 289.627C316.627 294.495 318.794 299.549 322.832 302.288C336.797 311.765 343.576 298.901 343.743 296.05C344.039 291.312 341.242 287.776 338.094 284.926C335.871 282.927 333.167 281.52 331.185 279.28C329.148 276.966 328.073 273.986 326.499 271.302C324.073 267.156 320.146 263.509 315.219 262.862C309.625 262.121 308.514 266.027 312.089 268.729C319.701 274.504 315.941 281.002 316.404 289.609L316.367 289.627ZM306.773 271.487C310.366 271.321 313.219 278.058 309.144 281.187C305.069 284.315 303.81 279.687 302.939 277.151C302.068 274.616 304.18 271.617 306.773 271.506V271.487Z" fill="#FEF8EE"/>
<path d="M257.542 337.642H356.264V405.315H257.542V337.642Z" fill="#F09947"/>
<path d="M356.263 406H257.541C257.171 406 256.856 405.685 256.856 405.315V337.642C256.856 337.272 257.171 336.958 257.541 336.958H356.263C356.634 336.958 356.949 337.272 356.949 337.642V405.315C356.949 405.685 356.634 406 356.263 406ZM258.227 404.63H355.578V338.327H258.227V404.63Z" fill="#472C27"/>
<path d="M265.987 346.083H347.817V405.315H265.987V346.083Z" fill="#FEF8EE"/>
<path d="M347.836 406H266.006C265.636 406 265.321 405.685 265.321 405.315V346.083C265.321 345.713 265.636 345.398 266.006 345.398H347.836C348.207 345.398 348.521 345.713 348.521 346.083V405.315C348.521 405.685 348.207 406 347.836 406ZM266.691 404.63H347.151V346.786H266.691V404.63Z" fill="#472C27"/>
<path d="M347.836 346.768H266.006C265.636 346.768 265.321 346.453 265.321 346.083C265.321 345.713 265.636 345.398 266.006 345.398H347.836C348.207 345.398 348.521 345.713 348.521 346.083C348.521 346.453 348.207 346.768 347.836 346.768ZM347.836 355.227H266.006C265.636 355.227 265.321 354.912 265.321 354.542C265.321 354.172 265.636 353.857 266.006 353.857H347.836C348.207 353.857 348.521 354.172 348.521 354.542C348.521 354.912 348.207 355.227 347.836 355.227ZM347.836 363.686H266.006C265.636 363.686 265.321 363.371 265.321 363.001C265.321 362.631 265.636 362.316 266.006 362.316H347.836C348.207 362.316 348.521 362.631 348.521 363.001C348.521 363.371 348.207 363.686 347.836 363.686ZM347.836 372.145H266.006C265.636 372.145 265.321 371.83 265.321 371.46C265.321 371.09 265.636 370.775 266.006 370.775H347.836C348.207 370.775 348.521 371.09 348.521 371.46C348.521 371.83 348.207 372.145 347.836 372.145ZM347.836 380.623H266.006C265.636 380.623 265.321 380.308 265.321 379.938C265.321 379.568 265.636 379.253 266.006 379.253H347.836C348.207 379.253 348.521 379.568 348.521 379.938C348.521 380.308 348.207 380.623 347.836 380.623ZM347.836 389.063H266.006C265.636 389.063 265.321 388.749 265.321 388.378C265.321 388.008 265.636 387.693 266.006 387.693H347.836C348.207 387.693 348.521 388.008 348.521 388.378C348.521 388.749 348.207 389.063 347.836 389.063ZM347.836 397.522H266.006C265.636 397.522 265.321 397.208 265.321 396.837C265.321 396.467 265.636 396.153 266.006 396.153H347.836C348.207 396.153 348.521 396.467 348.521 396.837C348.521 397.208 348.207 397.522 347.836 397.522ZM347.836 406H266.006C265.636 406 265.321 405.685 265.321 405.315C265.321 404.945 265.636 404.63 266.006 404.63H347.836C348.207 404.63 348.521 404.945 348.521 405.315C348.521 405.685 348.207 406 347.836 406ZM290.455 319.669C290.085 319.669 289.77 319.354 289.77 318.984V233.634C289.77 233.264 290.085 232.949 290.455 232.949C290.826 232.949 291.14 233.264 291.14 233.634V318.984C291.14 319.354 290.826 319.669 290.455 319.669ZM323.369 319.669C322.998 319.669 322.683 319.354 322.683 318.984V256.513C322.683 256.142 322.998 255.828 323.369 255.828C323.739 255.828 324.054 256.142 324.054 256.513V318.984C324.054 319.354 323.739 319.669 323.369 319.669Z" fill="#472C27"/>
<path d="M385.01 270.414H412.181V258.678L261.209 153.597H234.019L385.01 270.395V270.414Z" fill="#F09947"/>
<path d="M412.182 271.099H385.01C384.862 271.099 384.695 271.043 384.584 270.969L233.593 154.17C233.278 153.93 233.241 153.504 233.482 153.208C233.611 153.041 233.797 152.93 234.019 152.93H261.209C261.339 152.93 261.487 152.986 261.598 153.041L412.57 258.123C412.756 258.253 412.867 258.456 412.867 258.678V270.414C412.867 270.784 412.552 271.099 412.182 271.099ZM385.251 269.729H411.496V259.03L261.005 154.3H236.019L385.251 269.729Z" fill="#472C27"/>
<path d="M412.181 259.363H385.01C384.639 259.363 384.324 259.049 384.324 258.678C384.324 258.308 384.639 257.994 385.01 257.994H412.181C412.552 257.994 412.867 258.308 412.867 258.678C412.867 259.049 412.552 259.363 412.181 259.363ZM395.401 247.683H368.229C367.858 247.683 367.544 247.369 367.544 246.999C367.544 246.628 367.858 246.314 368.229 246.314H395.401C395.771 246.314 396.086 246.628 396.086 246.999C396.086 247.369 395.771 247.683 395.401 247.683ZM378.62 236.022H351.448C351.078 236.022 350.763 235.707 350.763 235.337C350.763 234.967 351.078 234.652 351.448 234.652H378.62C378.99 234.652 379.305 234.967 379.305 235.337C379.305 235.707 378.99 236.022 378.62 236.022ZM361.857 224.342H334.686C334.315 224.342 334 224.028 334 223.657C334 223.287 334.315 222.972 334.686 222.972H361.857C362.228 222.972 362.543 223.287 362.543 223.657C362.543 224.028 362.228 224.342 361.857 224.342ZM345.095 212.662H317.923C317.553 212.662 317.238 212.348 317.238 211.978C317.238 211.607 317.553 211.293 317.923 211.293H345.095C345.465 211.293 345.78 211.607 345.78 211.978C345.78 212.348 345.465 212.662 345.095 212.662ZM328.296 200.983H301.124C300.753 200.983 300.439 200.668 300.439 200.298C300.439 199.927 300.753 199.613 301.124 199.613H328.296C328.666 199.613 328.981 199.927 328.981 200.298C328.981 200.668 328.666 200.983 328.296 200.983ZM311.533 189.321H284.343C283.973 189.321 283.658 189.007 283.658 188.636C283.658 188.266 283.973 187.951 284.343 187.951H311.533C311.904 187.951 312.219 188.266 312.219 188.636C312.219 189.007 311.904 189.321 311.533 189.321ZM294.771 177.641H267.581C267.21 177.641 266.895 177.327 266.895 176.956C266.895 176.586 267.21 176.272 267.581 176.272H294.771C295.141 176.272 295.456 176.586 295.456 176.956C295.456 177.327 295.141 177.641 294.771 177.641ZM277.99 165.98H250.8C250.429 165.98 250.114 165.665 250.114 165.295C250.114 164.925 250.429 164.61 250.8 164.61H277.99C278.36 164.61 278.675 164.925 278.675 165.295C278.675 165.665 278.36 165.98 277.99 165.98ZM261.209 154.282H234.019C233.648 154.282 233.333 153.967 233.333 153.597C233.333 153.227 233.648 152.912 234.019 152.912H261.209C261.579 152.912 261.894 153.227 261.894 153.597C261.894 153.967 261.579 154.282 261.209 154.282Z" fill="#472C27"/>
<path d="M385.01 258.678H412.181V270.414H385.01V258.678Z" fill="#472C27"/>
<path d="M412.181 271.099H385.01C384.639 271.099 384.324 270.784 384.324 270.414V258.678C384.324 258.308 384.639 257.993 385.01 257.993H412.181C412.552 257.993 412.867 258.308 412.867 258.678V270.414C412.867 270.784 412.552 271.099 412.181 271.099ZM385.695 269.729H411.496V259.363H385.695V269.729Z" fill="#472C27"/>
<path d="M190.622 246.832C188.066 242.574 197.068 233.634 201.92 236.096C206.94 238.669 202.865 272.542 194.993 274.264C187.121 275.985 195.197 260.585 196.178 253.792C197.16 246.998 193.104 250.96 190.64 246.832H190.622ZM215.126 257.66C211.403 255.124 219.516 242.463 224.184 246.832C228.851 251.2 218.497 259.955 215.126 257.66Z" fill="#FEF8EE"/>
<path d="M379.212 400.965C374.378 398.725 372.359 392.506 372.581 387.157C372.804 381.807 374.007 376.291 372.155 371.294C370.692 367.351 367.525 364.352 365.45 360.687C363.394 357.022 362.783 351.821 366.006 349.118C367.173 348.156 368.655 347.675 369.877 346.786C373.47 344.195 373.896 339.123 374.156 334.718C374.415 330.312 375.285 325.166 379.194 323.112V400.965H379.212Z" fill="#F09947"/>
<path d="M257.541 284.944C257.171 284.944 256.856 284.629 256.856 284.259V223.657C256.856 223.287 257.171 222.972 257.541 222.972C257.912 222.972 258.227 223.287 258.227 223.657V284.259C258.227 284.629 257.912 284.944 257.541 284.944ZM158.319 391.729C158.319 395.949 164.357 397.948 161.727 382.714C159.486 369.794 159.542 350.211 162.19 342.714C168.618 324.5 158.338 325.833 158.338 325.833V391.729H158.319Z" fill="#472C27"/>
<path d="M160.301 395.449C159.987 395.449 159.709 395.375 159.431 395.227C158.357 394.69 157.634 393.284 157.634 391.71V325.814C157.634 325.481 157.894 325.185 158.227 325.129C158.357 325.129 161.394 324.759 163.376 327.203C165.673 330.053 165.488 335.329 162.82 342.899C160.32 350.026 160.116 369.276 162.394 382.548C163.561 389.248 163.191 393.691 161.413 395.005C161.079 395.264 160.672 395.375 160.283 395.375V395.412L160.301 395.449ZM159.005 326.518V391.747C159.005 392.895 159.542 393.765 160.024 394.024C160.227 394.135 160.394 394.117 160.579 393.968C161.542 393.247 162.246 389.896 161.024 382.825C158.709 369.369 158.949 349.766 161.524 342.473C164.636 333.644 163.672 329.775 162.302 328.091C161.265 326.795 159.801 326.536 159.005 326.499V326.518ZM234.019 158.113V178.178C234.019 178.178 231.981 190.765 247.614 190.098C260.19 189.562 288.158 203.833 297.494 214.587C306.829 225.342 319.257 239.039 333.222 245.925C347.206 252.811 374.267 262.954 379.898 266.86C388.788 258.03 234.019 158.132 234.019 158.132V158.113Z" fill="#472C27"/>
<path d="M379.897 267.545C379.768 267.545 379.619 267.508 379.508 267.434C376.434 265.305 366.691 261.196 356.393 256.864C347.947 253.31 339.186 249.627 332.944 246.554C319.701 240.057 307.847 227.563 296.993 215.05C292.64 210.052 283.657 203.796 273.489 198.743C263.024 193.523 253.355 190.543 247.669 190.783C242.298 191.005 238.575 190.043 236.26 187.84C233.685 185.378 233.352 181.75 233.352 178.178V158.113C233.352 157.743 233.666 157.428 234.037 157.428C234.167 157.428 234.296 157.465 234.407 157.539C234.759 157.78 271.025 181.195 306.995 206.036C328.128 220.622 345.039 232.857 357.226 242.371C380.416 260.455 380.823 264.342 380.972 265.601C381.064 266.471 380.712 267.008 380.416 267.323C380.286 267.434 380.101 267.526 379.934 267.526H379.897V267.545ZM248.317 189.395C261.838 189.395 289.103 203.87 298.012 214.143C308.773 226.545 320.516 238.91 333.537 245.314C339.742 248.368 348.484 252.033 356.912 255.587C366.617 259.678 375.822 263.546 379.601 265.842V265.768C378.842 258.364 333.296 225.878 306.217 207.165C273.711 184.694 240.946 163.407 234.722 159.353V178.16C234.722 181.917 235.148 184.842 237.223 186.822C239.242 188.747 242.65 189.599 247.613 189.395H248.354H248.317Z" fill="#472C27"/>
<path d="M153.208 221.88L234.019 153.615L385.01 258.697V270.432L234.019 165.35L153.208 233.616V221.88Z" fill="#F09947"/>
<path d="M385.01 271.099C384.88 271.099 384.732 271.062 384.621 270.988L234.056 166.221L153.652 234.152C153.355 234.393 152.929 234.356 152.689 234.06C152.578 233.949 152.541 233.782 152.541 233.616V221.88C152.541 221.677 152.633 221.492 152.781 221.344L233.593 153.078C233.833 152.875 234.167 152.856 234.426 153.041L385.417 258.123C385.602 258.253 385.713 258.456 385.713 258.678V270.414C385.713 270.784 385.399 271.099 385.028 271.099H385.01ZM234.019 164.666C234.148 164.666 234.296 164.703 234.408 164.777L384.324 269.1V259.03L234.037 154.467L153.874 222.195V232.135L233.556 164.814C233.667 164.703 233.852 164.666 234 164.666H234.019Z" fill="#472C27"/>
<path d="M234.019 219.418C233.648 219.418 233.333 219.104 233.333 218.734V165.369C233.333 164.999 233.648 164.684 234.019 164.684C234.389 164.684 234.704 164.999 234.704 165.369V218.734C234.704 219.104 234.389 219.418 234.019 219.418Z" fill="#472C27"/>
<path d="M281.305 66.0996C299.391 66.0996 314.052 51.4477 314.052 33.3738C314.052 15.2998 299.391 0.647949 281.305 0.647949C263.219 0.647949 248.558 15.2998 248.558 33.3738C248.558 51.4477 263.219 66.0996 281.305 66.0996Z" fill="#FEF8EE" stroke="#472C27" stroke-width="0.7" stroke-miterlimit="25.2"/>
<path d="M130.148 136.604C148.141 136.604 162.728 122.027 162.728 104.045C162.728 86.0631 148.141 71.4858 130.148 71.4858C112.154 71.4858 97.5674 86.0631 97.5674 104.045C97.5674 122.027 112.154 136.604 130.148 136.604Z" fill="#FEF8EE" stroke="#472C27" stroke-width="0.69" stroke-miterlimit="25.1"/>
<path d="M281.065 245.425C280.694 245.425 280.379 245.111 280.379 244.74V66.7659C280.379 66.3957 280.694 66.0811 281.065 66.0811C281.435 66.0811 281.75 66.3957 281.75 66.7659V244.759C281.75 245.129 281.435 245.444 281.065 245.444V245.425Z" fill="#472C27"/>
<path d="M281.065 250.015C282.65 250.015 283.936 248.731 283.936 247.146C283.936 245.562 282.65 244.277 281.065 244.277C279.479 244.277 278.194 245.562 278.194 247.146C278.194 248.731 279.479 250.015 281.065 250.015Z" fill="#FEF8EE"/>
<path d="M281.065 250.719C279.101 250.719 277.508 249.127 277.508 247.165C277.508 245.203 279.101 243.611 281.065 243.611C283.028 243.611 284.621 245.203 284.621 247.165C284.621 249.127 283.028 250.719 281.065 250.719ZM281.065 244.944C279.861 244.944 278.842 245.925 278.842 247.165C278.842 248.405 279.824 249.386 281.065 249.386C282.305 249.386 283.287 248.405 283.287 247.165C283.287 245.925 282.305 244.944 281.065 244.944Z" fill="#472C27"/>
<path d="M555.652 367.518C555.652 367.888 555.338 368.203 554.967 368.203H320.961C320.59 368.203 320.275 367.888 320.275 367.518C320.275 367.147 320.59 366.833 320.961 366.833H554.967C555.338 366.833 555.652 367.147 555.652 367.518Z" fill="#472C27"/>
<path d="M320.942 370.146C322.528 370.146 323.813 368.862 323.813 367.277C323.813 365.692 322.528 364.408 320.942 364.408C319.357 364.408 318.071 365.692 318.071 367.277C318.071 368.862 319.357 370.146 320.942 370.146Z" fill="#FEF8EE"/>
<path d="M324.517 367.277C324.517 369.239 322.924 370.831 320.961 370.831C318.997 370.831 317.404 369.239 317.404 367.277C317.404 365.315 318.997 363.723 320.961 363.723C322.924 363.723 324.517 365.315 324.517 367.277ZM318.738 367.277C318.738 368.48 319.72 369.498 320.961 369.498C322.201 369.498 323.183 368.517 323.183 367.277C323.183 366.037 322.201 365.056 320.961 365.056C319.72 365.056 318.738 366.037 318.738 367.277Z" fill="#472C27"/>
<path d="M196.049 261.751H129.851C129.481 261.751 129.166 261.436 129.166 261.066V136.382C129.166 136.012 129.481 135.697 129.851 135.697C130.222 135.697 130.537 136.012 130.537 136.382V260.381H196.067C196.438 260.381 196.753 260.696 196.753 261.066C196.753 261.436 196.438 261.751 196.067 261.751H196.049Z" fill="#472C27"/>
<path d="M194.864 263.935C196.449 263.935 197.734 262.65 197.734 261.066C197.734 259.481 196.449 258.197 194.864 258.197C193.278 258.197 191.993 259.481 191.993 261.066C191.993 262.65 193.278 263.935 194.864 263.935Z" fill="#FEF8EE"/>
<path d="M194.863 264.62C192.9 264.62 191.307 263.028 191.307 261.066C191.307 259.104 192.9 257.512 194.863 257.512C196.827 257.512 198.42 259.104 198.42 261.066C198.42 263.028 196.827 264.62 194.863 264.62ZM194.863 258.845C193.659 258.845 192.641 259.826 192.641 261.066C192.641 262.306 193.622 263.287 194.863 263.287C196.104 263.287 197.086 262.306 197.086 261.066C197.086 259.826 196.104 258.845 194.863 258.845Z" fill="#472C27"/>
<path d="M197.753 359.521H73.7483C73.3779 359.521 73.063 359.207 73.063 358.836V298.438C73.063 298.068 73.3779 297.753 73.7483 297.753C74.1187 297.753 74.4336 298.068 74.4336 298.438V358.17H197.753C198.123 358.17 198.438 358.485 198.438 358.855C198.438 359.225 198.123 359.54 197.753 359.54V359.521Z" fill="#472C27"/>
<path d="M197.753 361.705C199.339 361.705 200.624 360.421 200.624 358.836C200.624 357.252 199.339 355.967 197.753 355.967C196.168 355.967 194.882 357.252 194.882 358.836C194.882 360.421 196.168 361.705 197.753 361.705Z" fill="#FEF8EE"/>
<path d="M197.753 362.39C195.79 362.39 194.197 360.798 194.197 358.836C194.197 356.874 195.79 355.282 197.753 355.282C199.716 355.282 201.309 356.874 201.309 358.836C201.309 360.798 199.716 362.39 197.753 362.39ZM197.753 356.634C196.549 356.634 195.53 357.615 195.53 358.855C195.53 360.095 196.512 361.076 197.753 361.076C198.994 361.076 199.976 360.095 199.976 358.855C199.976 357.615 198.994 356.634 197.753 356.634Z" fill="#472C27"/>
<path d="M593.622 400.003C611.708 400.003 626.369 385.351 626.369 367.277C626.369 349.203 611.708 334.551 593.622 334.551C575.537 334.551 560.875 349.203 560.875 367.277C560.875 385.351 575.537 400.003 593.622 400.003Z" fill="#FEF8EE" stroke="#472C27" stroke-width="0.7" stroke-miterlimit="25.2"/>
<path d="M611.014 371.072C611.014 385.343 593.641 391.118 593.641 391.118C593.641 391.118 585.917 388.545 580.749 382.603C578.342 379.827 576.489 376.328 576.267 371.979C576.267 371.664 576.267 371.368 576.267 371.053V351.654C576.267 350.118 577.49 348.878 579.008 348.878H608.292C609.81 348.878 611.033 350.118 611.033 351.654V371.053L611.014 371.072Z" fill="#FEF8EE"/>
<path d="M581.639 352.543C580.805 352.543 580.138 353.228 580.138 354.061V370.831C580.138 371.072 580.138 371.312 580.138 371.553C580.323 374.922 581.75 377.643 583.62 379.808C587.621 384.417 593.622 386.416 593.622 386.416H593.678V352.524H581.639V352.543Z" fill="#F09947"/>
<path d="M605.624 352.543H593.659V386.416C594.493 386.12 607.125 381.585 607.125 370.849V354.079C607.125 353.246 606.439 352.561 605.624 352.561V352.543Z" fill="#472C27"/>
<path d="M593.622 391.803C593.622 391.803 593.493 391.803 593.4 391.766C593.085 391.655 585.436 389.082 580.231 383.066C577.36 379.771 575.804 376.032 575.582 372.034C575.582 371.719 575.545 371.405 575.545 371.071V351.673C575.545 349.766 577.082 348.211 578.971 348.211H608.255C610.144 348.211 611.681 349.766 611.681 351.673V371.071C611.681 377.143 608.588 382.64 602.717 386.99C598.345 390.248 594.011 391.71 593.845 391.766C593.771 391.766 593.715 391.803 593.641 391.803H593.622ZM578.99 349.581C577.842 349.581 576.934 350.525 576.934 351.654V371.053C576.934 371.368 576.934 371.645 576.934 371.941C577.138 375.643 578.582 379.068 581.25 382.14C585.75 387.323 592.344 389.915 593.604 390.359C595.567 389.637 610.311 383.806 610.311 371.053V351.654C610.311 350.488 609.385 349.581 608.255 349.581H578.971H578.99Z" fill="#472C27"/>
<mask id="mask0_543_10219" style="mask-type:luminance" maskUnits="userSpaceOnUse" x="107" y="79" width="46" height="50">
<path d="M146.324 79.6632L107.047 85.3894L113.357 128.616L152.634 122.889L146.324 79.6632Z" fill="white"/>
</mask>
<g mask="url(#mask0_543_10219)">
<path d="M144.594 102.083C144.372 100.565 145.65 98.381 147.151 96.1413C147.873 95.0307 147.873 93.6054 147.151 92.4948C146.502 91.5323 145.78 90.6068 144.983 89.7554C144.094 88.7928 142.742 88.4967 141.52 88.9594C139.001 89.9219 136.63 90.6994 135.259 90.1255C133.852 89.5517 132.611 87.3305 131.444 84.8872C130.888 83.7211 129.666 82.9807 128.369 83.0732C127.202 83.1473 126.035 83.3138 124.906 83.5915C123.665 83.9062 122.702 84.9427 122.498 86.2199C122.072 88.9039 121.535 91.4027 120.405 92.3097C119.219 93.2538 116.7 93.1982 114.033 93.0131C112.737 92.9021 111.533 93.624 110.94 94.7901C110.421 95.8452 109.995 96.9558 109.662 98.0849C109.31 99.3436 109.718 100.695 110.718 101.528C112.792 103.268 114.663 104.971 114.867 106.433C115.089 107.951 113.811 110.135 112.311 112.375C111.57 113.485 111.588 114.911 112.311 116.021C112.959 116.984 113.681 117.909 114.478 118.761C115.367 119.723 116.719 120.019 117.941 119.557C120.46 118.594 122.831 117.817 124.202 118.39C125.609 118.964 126.85 121.185 128.017 123.629C128.573 124.795 129.795 125.535 131.092 125.443C132.259 125.369 133.426 125.202 134.556 124.924C135.797 124.61 136.76 123.573 136.963 122.296C137.389 119.612 137.927 117.113 139.056 116.206C140.242 115.262 142.761 115.318 145.428 115.503C146.725 115.614 147.928 114.892 148.521 113.726C149.04 112.671 149.466 111.56 149.799 110.431C150.151 109.172 149.744 107.821 148.743 106.988C146.669 105.248 144.798 103.545 144.594 102.083ZM130.833 111.634C126.813 112.208 123.053 109.395 122.461 105.304C121.868 101.213 124.646 97.437 128.684 96.8447C132.703 96.2709 136.463 99.0844 137.056 103.175C137.649 107.266 134.87 111.042 130.833 111.634Z" fill="#F09947"/>
<path d="M128.869 111.653L125.887 119.834C125.461 119.205 124.906 118.686 124.22 118.372C123.053 117.891 121.109 118.409 118.96 119.186L123.183 107.636C124.313 109.857 126.443 111.356 128.851 111.671L128.869 111.653ZM136.685 90.2735L133.852 98.0477C131.833 96.6595 129.24 96.3818 126.961 97.3073L131.481 84.9241C132.648 87.3489 133.889 89.5331 135.278 90.1069C135.741 90.2735 136.222 90.329 136.685 90.2735ZM145.52 90.329L132.777 125.239C132.24 125.332 131.666 125.369 131.129 125.406C129.962 125.48 128.851 124.869 128.239 123.869L132.944 110.986C136.556 109.265 138.149 104.915 136.519 101.213L140.908 89.1629C141.112 89.0703 141.334 89.0148 141.557 88.9222C142.761 88.4595 144.131 88.7742 145.02 89.7182C145.206 89.9218 145.372 90.1254 145.557 90.329H145.52Z" fill="#FEF8EE"/>
<path d="M132.87 125.85C132.296 125.942 131.722 125.979 131.147 126.016C129.61 126.109 128.184 125.258 127.517 123.851C126.406 121.574 125.22 119.39 123.998 118.89C123.998 118.89 123.961 118.89 123.924 118.853C122.59 118.39 119.719 119.482 118.163 120.056C116.737 120.593 115.107 120.223 114.07 119.094C113.255 118.205 112.514 117.28 111.847 116.262C110.977 114.947 110.977 113.245 111.847 111.949C113.237 109.839 114.496 107.729 114.292 106.414V106.359C114.015 104.971 111.625 102.971 110.347 101.898C109.162 100.917 108.662 99.3064 109.106 97.8256C109.44 96.6595 109.884 95.5304 110.421 94.4383C111.107 93.05 112.551 92.2171 114.07 92.3282C116.571 92.4947 119.015 92.5503 120.034 91.7543C120.034 91.7543 120.09 91.7173 120.108 91.6988C121.071 90.8288 121.534 88.33 121.923 86.0532C122.164 84.5169 123.294 83.2952 124.776 82.9435C125.943 82.6659 127.147 82.4808 128.332 82.4068C129.869 82.3142 131.296 83.1657 131.962 84.5724C133.074 86.8492 134.259 89.0334 135.482 89.5331C135.482 89.5331 135.519 89.5331 135.556 89.5702C136.889 90.0329 139.76 88.9408 141.316 88.367C142.742 87.8302 144.372 88.2004 145.409 89.3295C146.224 90.218 146.965 91.1435 147.632 92.1616C148.502 93.4758 148.502 95.1787 147.632 96.4744C146.243 98.5846 144.983 100.695 145.187 102.009C145.391 103.323 145.187 102.046 145.187 102.064C145.465 103.453 147.836 105.452 149.132 106.525C150.318 107.506 150.818 109.117 150.373 110.598C150.04 111.764 149.595 112.893 149.058 113.985C148.373 115.373 146.928 116.225 145.409 116.095C142.927 115.929 140.464 115.873 139.445 116.669C139.445 116.669 139.39 116.706 139.371 116.724C138.408 117.594 137.945 120.093 137.556 122.37C137.315 123.906 136.185 125.128 134.704 125.48C134.092 125.609 133.481 125.739 132.87 125.831V125.85ZM124.554 117.854C125.998 118.501 127.184 120.445 128.591 123.351C129.054 124.314 130.036 124.906 131.073 124.85C132.222 124.776 133.333 124.61 134.444 124.351C135.463 124.11 136.241 123.258 136.408 122.203C136.834 119.538 137.371 116.817 138.704 115.743C138.741 115.743 138.778 115.688 138.815 115.669C140.093 114.725 142.335 114.688 145.502 114.91C146.558 115.003 147.539 114.411 148.002 113.467C148.502 112.43 148.928 111.357 149.243 110.264C149.54 109.246 149.188 108.136 148.373 107.469C146.298 105.729 144.242 103.915 144.002 102.194C143.761 100.473 144.002 102.138 144.002 102.101C143.816 100.51 144.891 98.492 146.669 95.8266C147.261 94.9196 147.261 93.7534 146.669 92.8464C146.039 91.8839 145.335 91.0139 144.576 90.181C143.835 89.4036 142.742 89.1444 141.76 89.5331C139.26 90.4957 136.667 91.3471 135.074 90.6993C135.037 90.6993 135.018 90.6622 134.981 90.6437C133.537 89.9959 132.351 88.0523 130.944 85.1462C130.481 84.1837 129.499 83.5914 128.462 83.6469C127.313 83.721 126.202 83.8876 125.091 84.1467C124.072 84.3873 123.294 85.2388 123.127 86.2939C122.701 88.9593 122.164 91.6803 120.831 92.7539C120.794 92.7539 120.757 92.8094 120.72 92.8279C119.441 93.7719 117.2 93.809 114.033 93.5868C112.977 93.4943 111.996 94.0866 111.533 95.0306C111.033 96.0672 110.607 97.1408 110.292 98.2514C109.995 99.2694 110.347 100.38 111.162 101.046C113.237 102.786 115.293 104.6 115.533 106.322V106.414C115.719 108.006 114.644 110.024 112.866 112.689C112.274 113.596 112.292 114.762 112.866 115.669C113.496 116.632 114.2 117.502 114.959 118.335C115.7 119.094 116.793 119.371 117.775 118.983C120.275 118.02 122.868 117.169 124.461 117.817C124.498 117.817 124.517 117.817 124.554 117.854Z" fill="#472C27"/>
<path d="M130.925 112.226C126.573 112.856 122.516 109.783 121.886 105.378C121.238 100.972 124.257 96.8815 128.591 96.2522C132.944 95.6228 137 98.6955 137.63 103.101C138.26 107.506 135.259 111.597 130.925 112.226ZM128.777 97.4183C125.072 97.9551 122.516 101.435 123.072 105.193C123.609 108.95 127.054 111.56 130.758 111.023C134.463 110.486 137.019 107.007 136.463 103.249C135.926 99.4914 132.481 96.8815 128.777 97.4183Z" fill="#472C27"/>
</g>
<path d="M293.307 25.8029C293.307 34.7063 281.046 53.4385 281.046 53.4385C281.046 53.4385 268.784 34.7248 268.784 25.8029C268.784 16.8811 274.267 13.3271 281.046 13.3271C287.825 13.3271 293.307 18.9172 293.307 25.8029Z" fill="#F09947"/>
<path d="M281.064 54.1049C280.842 54.1049 280.638 53.9939 280.527 53.8088C280.008 53.0499 268.173 34.8174 268.173 25.803C268.173 16.7886 273.952 12.6609 281.064 12.6609C288.177 12.6609 293.955 18.5471 293.955 25.803C293.955 33.059 282.12 53.0314 281.601 53.8088C281.49 53.9939 281.286 54.1049 281.064 54.1049ZM281.064 13.9751C274.674 13.9751 269.469 19.269 269.469 25.803C269.469 33.3552 278.693 48.4779 281.064 52.2169C283.435 48.4779 292.659 33.3552 292.659 25.803C292.659 19.2875 287.454 13.9936 281.064 13.9751Z" fill="#472C27"/>
<path d="M281.064 32.9295C284.935 32.9295 288.066 29.7458 288.066 25.8031C288.066 21.8605 284.935 18.6768 281.064 18.6768C277.193 18.6768 274.063 21.8605 274.063 25.8031C274.063 29.7458 277.193 32.9295 281.064 32.9295Z" fill="#FEF8EE"/>
<path d="M281.065 33.5957C276.842 33.5957 273.415 30.0973 273.415 25.803C273.415 21.5087 276.842 18.0103 281.065 18.0103C285.288 18.0103 288.714 21.5087 288.714 25.803C288.714 30.0973 285.288 33.5957 281.065 33.5957ZM281.065 19.343C277.545 19.343 274.73 22.2306 274.73 25.8215C274.73 29.4125 277.582 32.3 281.065 32.3C284.547 32.3 287.399 29.4125 287.399 25.8215C287.399 22.2306 284.547 19.3615 281.065 19.343Z" fill="#472C27"/>
<mask id="mask1_543_10219" style="mask-type:luminance" maskUnits="userSpaceOnUse" x="317" y="117" width="196" height="276">
<path d="M495.086 117.983H334.408C324.943 117.983 317.275 125.98 317.275 135.845V189.414L331.5 199.742L347.595 211.404L363.691 223.065L395.901 246.406L411.996 258.067C411.996 258.067 412.052 258.123 412.07 258.141C412.07 258.141 412.126 258.215 412.144 258.253C412.144 258.253 412.181 258.308 412.2 258.345V258.382C412.2 258.382 412.2 258.456 412.237 258.493V258.623V270.358C412.237 270.506 412.181 270.673 412.089 270.784C411.978 270.932 411.792 271.043 411.589 271.061H406.68V392.876H495.03C504.495 392.876 512.163 384.88 512.163 375.014V135.845C512.163 125.98 504.495 117.983 495.03 117.983H495.086Z" fill="white"/>
</mask>
<g mask="url(#mask1_543_10219)">
<path d="M631.982 381.289H355.208C354.912 381.289 354.652 381.178 354.467 380.993C354.282 380.808 354.171 380.512 354.171 380.252V166.924C354.171 166.628 354.282 166.368 354.467 166.183C354.652 165.998 354.949 165.887 355.208 165.887H408.811V147.488C408.811 147.192 408.922 146.933 409.107 146.748C409.311 146.544 409.589 146.452 409.848 146.452H485.881C486.177 146.452 486.436 146.563 486.621 146.748C486.825 146.951 486.918 147.229 486.918 147.488V259.067H631.926C632.223 259.067 632.482 259.178 632.667 259.363C632.871 259.567 632.963 259.844 632.963 260.104V380.234C632.963 380.53 632.852 380.789 632.667 380.974C632.463 381.178 632.185 381.27 631.926 381.27H631.963L631.982 381.289ZM356.282 379.142H630.907V261.14H485.899C485.603 261.14 485.343 261.029 485.158 260.844C484.954 260.64 484.862 260.363 484.862 260.104V148.525H410.978V166.924C410.978 167.22 410.867 167.479 410.681 167.664C410.496 167.849 410.2 167.96 409.941 167.96H356.338V379.16H356.301L356.282 379.142ZM470.693 357.541H449.022C448.725 357.541 448.466 357.429 448.281 357.244C448.077 357.041 447.985 356.763 447.985 356.504V325.87C447.985 325.574 448.096 325.314 448.281 325.129C448.485 324.926 448.763 324.833 449.022 324.833H470.693C470.989 324.833 471.248 324.944 471.433 325.129C471.637 325.333 471.73 325.611 471.73 325.87V356.504C471.73 356.8 471.619 357.059 471.433 357.244C471.23 357.448 470.952 357.541 470.693 357.541ZM450.078 355.412H469.637V326.888H450.078V355.412ZM432.093 357.541H410.422C410.126 357.541 409.866 357.429 409.681 357.244C409.477 357.041 409.385 356.763 409.385 356.504V325.87C409.385 325.574 409.496 325.314 409.681 325.129C409.885 324.926 410.163 324.833 410.422 324.833H432.093C432.389 324.833 432.648 324.944 432.834 325.129C433.037 325.333 433.13 325.611 433.13 325.87V356.504C433.13 356.8 433.019 357.059 432.834 357.244C432.63 357.448 432.352 357.541 432.093 357.541ZM411.478 355.412H431.037V326.888H411.478V355.412ZM393.493 357.541H371.822C371.526 357.541 371.267 357.429 371.081 357.244C370.896 357.059 370.785 356.763 370.785 356.504V325.87C370.785 325.574 370.896 325.314 371.081 325.129C371.285 324.926 371.563 324.833 371.822 324.833H393.493C393.789 324.833 394.049 324.944 394.234 325.129C394.438 325.333 394.53 325.611 394.53 325.87V356.504C394.53 356.8 394.419 357.059 394.234 357.244C394.03 357.448 393.752 357.541 393.493 357.541ZM372.878 355.412H392.437V326.888H372.878V355.412ZM470.693 309.636H449.022C448.725 309.636 448.466 309.525 448.281 309.34C448.077 309.137 447.985 308.859 447.985 308.6V277.947C447.985 277.651 448.096 277.392 448.281 277.207C448.466 277.022 448.763 276.911 449.022 276.911H470.693C470.989 276.911 471.248 277.022 471.433 277.207C471.637 277.41 471.73 277.688 471.73 277.947V308.6C471.73 308.729 471.693 308.878 471.656 309.007C471.619 309.137 471.526 309.248 471.433 309.359C471.341 309.47 471.211 309.544 471.081 309.581C470.952 309.618 470.804 309.655 470.674 309.655L470.693 309.636ZM450.078 307.508H469.637V278.984H450.078V307.508ZM432.093 309.636H410.422C410.126 309.636 409.866 309.525 409.681 309.34C409.477 309.137 409.385 308.859 409.385 308.6V277.947C409.385 277.651 409.496 277.392 409.681 277.207C409.866 277.022 410.163 276.911 410.422 276.911H432.093C432.389 276.911 432.648 277.022 432.834 277.207C433.037 277.41 433.13 277.688 433.13 277.947V308.6C433.13 308.896 433.019 309.155 432.834 309.34C432.648 309.525 432.352 309.636 432.093 309.636ZM411.478 307.508H431.037V278.984H411.478V307.508ZM393.493 309.636H371.822C371.526 309.636 371.267 309.525 371.081 309.34C370.896 309.155 370.785 308.859 370.785 308.6V277.947C370.785 277.651 370.896 277.392 371.081 277.207C371.267 277.022 371.563 276.911 371.822 276.911H393.493C393.789 276.911 394.049 277.022 394.234 277.207C394.438 277.41 394.53 277.688 394.53 277.947V308.6C394.53 308.896 394.419 309.155 394.234 309.34C394.049 309.525 393.752 309.636 393.493 309.636ZM372.878 307.508H392.437V278.984H372.878V307.508ZM616.608 309.266H565.395C565.099 309.266 564.84 309.155 564.654 308.97C564.451 308.766 564.358 308.489 564.358 308.23V277.54C564.358 277.244 564.469 276.985 564.654 276.8C564.84 276.614 565.136 276.503 565.395 276.503H616.608C616.905 276.503 617.164 276.614 617.349 276.8C617.553 277.003 617.646 277.281 617.646 277.54V308.193C617.646 308.322 617.646 308.489 617.59 308.618C617.535 308.748 617.46 308.878 617.368 308.989C617.257 309.1 617.146 309.174 617.016 309.229C616.886 309.285 616.738 309.322 616.608 309.322V309.285V309.266ZM566.451 307.138H615.534V278.577H566.451V307.138ZM551.374 309.266H500.291C499.994 309.266 499.735 309.155 499.55 308.97C499.346 308.766 499.253 308.489 499.253 308.23V277.54C499.253 277.244 499.365 276.985 499.55 276.8C499.735 276.614 500.031 276.503 500.291 276.503H551.448C551.745 276.503 552.004 276.614 552.189 276.8C552.393 277.003 552.485 277.281 552.485 277.54V308.193C552.485 308.322 552.486 308.489 552.411 308.618C552.374 308.748 552.282 308.878 552.189 308.989C552.078 309.1 551.967 309.174 551.837 309.229C551.708 309.285 551.559 309.303 551.411 309.303H551.337H551.374V309.266ZM501.291 307.138H550.3V278.577H501.365L501.272 307.138H501.291ZM470.618 261.732H449.003C448.707 261.732 448.448 261.621 448.262 261.436C448.059 261.233 447.966 260.955 447.966 260.696V230.043C447.966 229.747 448.077 229.488 448.262 229.303C448.448 229.118 448.744 229.007 449.003 229.007H470.674C470.97 229.007 471.23 229.118 471.415 229.303C471.619 229.506 471.711 229.784 471.711 230.043V260.696C471.711 260.825 471.674 260.973 471.637 261.103C471.6 261.233 471.507 261.344 471.415 261.455C471.322 261.566 471.193 261.64 471.063 261.677C470.933 261.714 470.785 261.751 470.655 261.751H470.581H470.618V261.732ZM450.004 259.604H469.563V231.08H450.096L450.022 259.604H450.004ZM432.019 261.732H410.404C410.107 261.732 409.848 261.621 409.663 261.436C409.459 261.233 409.366 260.955 409.366 260.696V230.043C409.366 229.747 409.477 229.488 409.663 229.303C409.848 229.118 410.144 229.007 410.404 229.007H432.074C432.371 229.007 432.63 229.118 432.815 229.303C433 229.488 433.111 229.784 433.111 230.043V260.696C433.111 260.992 433 261.251 432.815 261.436C432.63 261.621 432.334 261.732 432.074 261.732H432H432.019ZM411.404 259.604H431.019V231.08H411.459L411.385 259.604H411.404ZM393.419 261.732H371.804C371.507 261.732 371.248 261.621 371.063 261.436C370.878 261.251 370.767 260.955 370.767 260.696V230.043C370.767 229.747 370.878 229.488 371.063 229.303C371.248 229.118 371.545 229.007 371.804 229.007H393.474C393.771 229.007 394.03 229.118 394.215 229.303C394.401 229.488 394.512 229.784 394.512 230.043V260.696C394.512 260.992 394.401 261.251 394.215 261.436C394.03 261.621 393.734 261.732 393.474 261.732H393.4H393.419ZM372.804 259.604H392.419V231.08H372.86L372.785 259.604H372.804ZM470.618 213.828H449.003C448.707 213.828 448.448 213.717 448.262 213.532C448.077 213.347 447.966 213.051 447.966 212.792V182.158C447.966 181.861 448.077 181.602 448.262 181.417C448.448 181.232 448.744 181.121 449.003 181.121H470.674C470.97 181.121 471.23 181.232 471.415 181.417C471.619 181.621 471.711 181.898 471.711 182.158V212.792C471.711 212.921 471.674 213.069 471.637 213.199C471.6 213.329 471.507 213.44 471.415 213.551C471.322 213.662 471.193 213.736 471.063 213.773C470.933 213.828 470.785 213.847 470.655 213.847H470.581H470.618V213.828ZM450.004 211.7H469.563V183.176H450.096L450.022 211.7H450.004ZM432.019 213.828H410.404C410.107 213.828 409.848 213.717 409.663 213.532C409.459 213.329 409.366 213.051 409.366 212.792V182.158C409.366 181.861 409.477 181.602 409.663 181.417C409.848 181.232 410.144 181.121 410.404 181.121H432.074C432.371 181.121 432.63 181.232 432.815 181.417C433 181.602 433.111 181.898 433.111 182.158V212.792C433.111 213.088 433 213.347 432.815 213.532C432.63 213.717 432.334 213.828 432.074 213.828H432H432.019ZM411.404 211.7H431.019V183.176H411.459L411.385 211.7H411.404ZM393.419 213.828H371.804C371.507 213.828 371.248 213.717 371.063 213.532C370.878 213.347 370.767 213.051 370.767 212.792V182.158C370.767 181.861 370.878 181.602 371.063 181.417C371.248 181.232 371.545 181.121 371.804 181.121H393.474C393.771 181.121 394.03 181.232 394.215 181.417C394.401 181.602 394.512 181.898 394.512 182.158V212.792C394.512 213.088 394.401 213.347 394.215 213.532C394.03 213.717 393.734 213.828 393.474 213.828H393.4H393.419ZM372.804 211.7H392.419V183.176H372.86L372.785 211.7H372.804Z" fill="#F09947"/>
</g>
</g>
<defs>
<clipPath id="clip0_543_10219">
<rect width="599" height="406" fill="white" transform="translate(34)"/>
</clipPath>
</defs>
</svg>
