<svg width="104" height="26" viewBox="0 0 104 26" fill="none" xmlns="http://www.w3.org/2000/svg">
<g clip-path="url(#clip0_38_1738)">
<path d="M0 0.5V4.6769H7.47995V25.0086H12.5145V4.6769H19.9945V0.5H0Z" fill="#EC7C23"/>
<path d="M22.9534 14.3002H30.8854C30.7416 12.0685 29.262 10.5328 27.1043 10.5328C24.5768 10.5328 23.3644 12.007 22.9534 14.3002ZM18.2271 16.1839C18.2271 10.9833 21.8026 6.94971 27.0222 6.94971C32.7554 6.94971 35.8173 11.2699 35.8173 17.5353H22.8917C23.2411 20.238 24.7617 21.9169 27.4537 21.9169C29.2826 21.9169 30.3717 21.0979 30.8854 19.7466H35.5501C34.8925 22.8588 32.0773 25.5001 27.4742 25.5001C21.556 25.5001 18.2271 21.4255 18.2271 16.1839Z" fill="#EC7C23"/>
<path d="M42.4135 10.2255H42.5163C43.5848 8.23947 44.8178 7.21572 46.8933 7.21572C47.2631 7.19525 47.6536 7.2362 48.0029 7.35905V11.4336H47.9002C44.7972 11.1265 42.5779 12.7235 42.5779 16.4295V25.0085H37.8516V7.42047H42.4135V10.2255Z" fill="#EC7C23"/>
<path d="M55.0102 10.2255H55.113C56.1815 8.23947 57.4145 7.21572 59.49 7.21572C59.8599 7.19525 60.2503 7.2362 60.5996 7.35905V11.4336H60.4969C57.4145 11.1265 55.1746 12.7235 55.1746 16.4295V25.0085H50.4277V7.42047H54.9897V10.2255H55.0102Z" fill="#EC7C23"/>
<path d="M66.3743 14.3002H74.3063C74.1625 12.0685 72.6829 10.5328 70.5252 10.5328C67.9977 10.5328 66.7853 12.007 66.3743 14.3002ZM61.6479 16.1839C61.6479 10.9833 65.2235 6.94971 70.443 6.94971C76.1763 6.94971 79.2381 11.2699 79.2381 17.5353H66.3126C66.662 20.238 68.2032 21.9169 70.8746 21.9169C72.7035 21.9169 73.7926 21.0979 74.3269 19.7466H78.9916C78.334 22.8588 75.5187 25.5001 70.9157 25.5001C64.9769 25.5001 61.6479 21.4255 61.6479 16.1839Z" fill="#EC7C23"/>
<path d="M80.6973 19.2961H85.0743C85.3825 21.3232 86.8415 22.2241 88.9581 22.2241C91.0747 22.2241 92.2254 21.4255 92.2254 20.197C92.2254 18.5181 89.965 18.3338 87.5196 17.8629C84.3139 17.2486 81.1904 16.3887 81.1904 12.5599C81.1904 8.73103 84.3961 6.94971 88.4649 6.94971C93.1501 6.94971 95.7599 9.24291 96.1092 12.7646H91.8555C91.65 10.8809 90.4376 10.2052 88.4238 10.2052C86.5949 10.2052 85.362 10.8809 85.362 12.1504C85.362 13.6655 87.7251 13.7884 90.2732 14.3207C93.2734 14.935 96.5613 15.754 96.5613 19.8694C96.5613 23.3911 93.4995 25.5205 89.0608 25.5205C83.8619 25.5001 80.9644 23.0226 80.6973 19.2961Z" fill="#EC7C23"/>
<path d="M101.308 19.685C101.842 19.7055 102.377 19.8693 102.808 20.1764C103.26 20.4835 103.589 20.9135 103.794 21.4049C104 21.8963 104.041 22.4491 103.918 22.961C103.815 23.4729 103.548 23.9643 103.157 24.3328C102.767 24.7014 102.274 24.9675 101.74 25.0699C101.205 25.1723 100.65 25.1109 100.157 24.9061C99.664 24.7014 99.2325 24.3533 98.9242 23.9028C98.616 23.4524 98.4722 22.9405 98.4722 22.4082C98.4722 22.0396 98.5338 21.6915 98.6777 21.3435C98.8215 21.0159 99.027 20.7087 99.2941 20.4426C99.5613 20.1969 99.8695 19.9921 100.219 19.8693C100.568 19.7259 100.938 19.6645 101.308 19.685Z" fill="#EC7C23"/>
</g>
<defs>
<clipPath id="clip0_38_1738">
<rect width="104" height="25" fill="white" transform="translate(0 0.5)"/>
</clipPath>
</defs>
</svg>
