<svg width="117" height="28" viewBox="0 0 117 28" fill="none" xmlns="http://www.w3.org/2000/svg">
<g clip-path="url(#clip0_1048_5770)">
<path d="M0 0V4.67813H8.41494V27.4496H14.0788V4.67813H22.4938V0H0Z" fill="#EC7C23"/>
<path d="M25.8227 15.4562H34.7463C34.5845 12.9566 32.92 11.2367 30.4926 11.2367C27.6491 11.2367 26.2851 12.8878 25.8227 15.4562ZM20.5056 17.566C20.5056 11.7412 24.5281 7.22363 30.4001 7.22363C36.85 7.22363 40.2946 12.0623 40.2946 19.0795H25.7534C26.1464 22.1065 27.8571 23.9869 30.8856 23.9869C32.9431 23.9869 34.1683 23.0697 34.7463 21.5561H39.9941C39.2543 25.0418 36.0871 28 30.9087 28C24.2507 28 20.5056 23.4366 20.5056 17.566Z" fill="#EC7C23"/>
<path d="M47.7154 10.8928H47.831C49.0332 8.66835 50.4202 7.52174 52.7552 7.52174C53.1713 7.49881 53.6105 7.54468 54.0035 7.68227V12.2457H53.8879C50.3971 11.9018 47.9004 13.6905 47.9004 17.8412V27.4497H42.5833V7.75106H47.7154V10.8928Z" fill="#EC7C23"/>
<path d="M61.8868 10.8928H62.0023C63.2045 8.66835 64.5916 7.52174 66.9265 7.52174C67.3426 7.49881 67.7818 7.54468 68.1748 7.68227V12.2457H68.0592C64.5916 11.9018 62.0717 13.6905 62.0717 17.8412V27.4497H56.7314V7.75106H61.8636V10.8928H61.8868Z" fill="#EC7C23"/>
<path d="M74.671 15.4562H83.5945C83.4327 12.9566 81.7682 11.2367 79.3408 11.2367C76.4973 11.2367 75.1334 12.8878 74.671 15.4562ZM69.3539 17.566C69.3539 11.7412 73.3764 7.22363 79.2484 7.22363C85.6983 7.22363 89.1429 12.0623 89.1429 19.0795H74.6017C74.9947 22.1065 76.7285 23.9869 79.7338 23.9869C81.7913 23.9869 83.0166 23.0697 83.6177 21.5561H88.8654C88.1257 25.0418 84.9585 28 79.7801 28C73.099 28 69.3539 23.4366 69.3539 17.566Z" fill="#EC7C23"/>
<path d="M90.7842 21.0516H95.7083C96.0551 23.3219 97.6964 24.3309 100.078 24.3309C102.459 24.3309 103.753 23.4366 103.753 22.0607C103.753 20.1802 101.21 19.9738 98.4593 19.4464C94.8529 18.7584 91.339 17.7953 91.339 13.507C91.339 9.21872 94.9454 7.22363 99.5228 7.22363C104.794 7.22363 107.73 9.79202 108.123 13.7363H103.337C103.106 11.6266 101.742 10.8698 99.4765 10.8698C97.419 10.8698 96.032 11.6266 96.032 13.0484C96.032 14.7453 98.6905 14.8829 101.557 15.4792C104.932 16.1671 108.631 17.0844 108.631 21.6937C108.631 25.638 105.187 28.023 100.193 28.023C94.3443 28 91.0847 25.2253 90.7842 21.0516Z" fill="#EC7C23"/>
<path d="M113.972 21.4872C114.573 21.5101 115.174 21.6936 115.659 22.0376C116.168 22.3816 116.538 22.8631 116.769 23.4135C117 23.9639 117.046 24.583 116.908 25.1563C116.792 25.7296 116.491 26.28 116.052 26.6928C115.613 27.1056 115.058 27.4037 114.457 27.5183C113.856 27.633 113.232 27.5642 112.677 27.3349C112.122 27.1056 111.637 26.7157 111.29 26.2112C110.943 25.7067 110.781 25.1334 110.781 24.5372C110.781 24.1244 110.851 23.7345 111.012 23.3447C111.174 22.9778 111.405 22.6338 111.706 22.3357C112.007 22.0605 112.353 21.8312 112.746 21.6936C113.139 21.5331 113.555 21.4643 113.972 21.4872Z" fill="#EC7C23"/>
</g>
<defs>
<clipPath id="clip0_1048_5770">
<rect width="117" height="28" fill="white"/>
</clipPath>
</defs>
</svg>
