<svg width="104" height="26" viewBox="0 0 104 26" fill="none" xmlns="http://www.w3.org/2000/svg">
<g clip-path="url(#clip0_932_14102)">
<path d="M0 0.5V4.6769H7.47995V25.0086H12.5145V4.6769H19.9945V0.5H0Z" fill="#EC7C23"/>
<path d="M22.9534 14.3001H30.8854C30.7416 12.0683 29.262 10.5327 27.1043 10.5327C24.5768 10.5327 23.3644 12.0069 22.9534 14.3001ZM18.2271 16.1838C18.2271 10.9832 21.8026 6.94958 27.0222 6.94958C32.7554 6.94958 35.8173 11.2698 35.8173 17.5352H22.8917C23.2411 20.2379 24.7617 21.9168 27.4537 21.9168C29.2826 21.9168 30.3717 21.0978 30.8854 19.7465H35.5501C34.8925 22.8587 32.0773 25.5 27.4742 25.5C21.556 25.5 18.2271 21.4254 18.2271 16.1838Z" fill="#EC7C23"/>
<path d="M42.4135 10.2257H42.5163C43.5848 8.23959 44.8178 7.21584 46.8933 7.21584C47.2631 7.19537 47.6536 7.23632 48.0029 7.35917V11.4337H47.9002C44.7972 11.1266 42.5779 12.7236 42.5779 16.4296V25.0086H37.8516V7.42059H42.4135V10.2257Z" fill="#EC7C23"/>
<path d="M55.0102 10.2257H55.113C56.1815 8.23959 57.4145 7.21584 59.49 7.21584C59.8599 7.19537 60.2503 7.23632 60.5996 7.35917V11.4337H60.4969C57.4145 11.1266 55.1746 12.7236 55.1746 16.4296V25.0086H50.4277V7.42059H54.9897V10.2257H55.0102Z" fill="#EC7C23"/>
<path d="M66.3743 14.3001H74.3063C74.1625 12.0683 72.6829 10.5327 70.5252 10.5327C67.9977 10.5327 66.7853 12.0069 66.3743 14.3001ZM61.6479 16.1838C61.6479 10.9832 65.2235 6.94958 70.443 6.94958C76.1763 6.94958 79.2381 11.2698 79.2381 17.5352H66.3126C66.662 20.2379 68.2032 21.9168 70.8746 21.9168C72.7035 21.9168 73.7926 21.0978 74.3269 19.7465H78.9916C78.334 22.8587 75.5187 25.5 70.9157 25.5C64.9769 25.5 61.6479 21.4254 61.6479 16.1838Z" fill="#EC7C23"/>
<path d="M80.6973 19.296H85.0743C85.3825 21.323 86.8415 22.2239 88.9581 22.2239C91.0747 22.2239 92.2254 21.4254 92.2254 20.1969C92.2254 18.518 89.965 18.3337 87.5196 17.8628C84.3139 17.2485 81.1904 16.3886 81.1904 12.5597C81.1904 8.73091 84.3961 6.94958 88.4649 6.94958C93.1501 6.94958 95.7599 9.24279 96.1092 12.7645H91.8555C91.65 10.8808 90.4376 10.2051 88.4238 10.2051C86.5949 10.2051 85.362 10.8808 85.362 12.1502C85.362 13.6654 87.7251 13.7882 90.2732 14.3206C93.2734 14.9348 96.5613 15.7538 96.5613 19.8693C96.5613 23.391 93.4995 25.5204 89.0608 25.5204C83.8619 25.5 80.9644 23.0225 80.6973 19.296Z" fill="#EC7C23"/>
<path d="M101.308 19.6851C101.842 19.7056 102.377 19.8694 102.808 20.1765C103.26 20.4836 103.589 20.9136 103.794 21.405C104 21.8964 104.041 22.4492 103.918 22.9611C103.815 23.473 103.548 23.9644 103.157 24.3329C102.767 24.7015 102.274 24.9677 101.74 25.07C101.205 25.1724 100.65 25.111 100.157 24.9062C99.664 24.7015 99.2325 24.3534 98.9242 23.903C98.616 23.4525 98.4722 22.9406 98.4722 22.4083C98.4722 22.0397 98.5338 21.6917 98.6777 21.3436C98.8215 21.016 99.027 20.7089 99.2941 20.4427C99.5613 20.197 99.8695 19.9922 100.219 19.8694C100.568 19.7261 100.938 19.6646 101.308 19.6851Z" fill="#EC7C23"/>
</g>
<defs>
<clipPath id="clip0_932_14102">
<rect width="104" height="25" fill="white" transform="translate(0 0.5)"/>
</clipPath>
</defs>
</svg>
