<svg width="361" height="245" viewBox="0 0 361 245" fill="none" xmlns="http://www.w3.org/2000/svg">
<g clip-path="url(#clip0_543_5730)">
<path d="M240.02 38.2141C259.76 45.906 274.92 60.7457 280.612 79.7354C285.565 96.2607 282.505 114.162 272.32 128.116C260.049 144.834 239.239 154.318 221.297 166.107C206.405 175.868 193.02 187.742 181.551 201.344C176.523 207.34 172.746 215.458 166.07 219.918C158.859 224.74 151.145 228.25 142.201 229.946C124.152 233.371 104.841 230.085 87.3589 223.62C73.2578 218.403 59.8522 211.031 49.346 200.928C38.829 190.825 31.3719 177.852 30.0239 164.293C28.6758 150.733 32.9019 139.329 44.0179 130.666C60.1839 118.067 87.2733 120.457 96.7418 101.147C100.968 92.5375 101.342 76.7483 96.7845 67.9256C93.4786 61.5139 87.8831 55.5716 87.7547 48.6051C87.391 28.1005 123.885 26.6603 139.965 26.1696C159.972 25.5508 180.503 24.3239 200.467 26.8523C214.044 28.5806 227.364 33.296 240.031 38.2248L240.02 38.2141ZM205.966 204.555C204.843 205.761 203.794 207.03 202.831 208.375C198.52 214.402 202.863 220.654 208.94 223.289C215.745 226.233 225.62 228.068 231.622 222.756C235.11 219.662 237.046 215.138 237.923 210.572C238.704 206.529 238.726 202.4 238.63 198.293C238.416 188.638 224.946 192.852 219.714 195.039C214.504 197.205 209.818 200.459 205.977 204.555H205.966Z" fill="#F5BE7C"/>
<path d="M164.615 221.038V73.4198C164.615 66.5921 170.157 61.0552 176.994 61.0552H276.835C283.672 61.0552 289.214 66.5921 289.214 73.4198V221.038C289.214 227.866 283.672 233.403 276.835 233.403H176.994C170.157 233.403 164.615 227.866 164.615 221.038Z" fill="#FEF8EE"/>
<path d="M276.846 233.797H177.004C169.954 233.797 164.23 228.1 164.23 221.091V74.1452C164.23 67.1361 169.954 61.4392 177.004 61.4392H276.846C283.896 61.4392 289.62 67.1361 289.62 74.1452V221.102C289.62 228.111 283.896 233.808 276.846 233.808V233.797ZM176.994 62.2287C170.382 62.2287 165 67.5735 165 74.1452V221.102C165 227.663 170.382 233.019 176.994 233.019H276.835C283.447 233.019 288.828 227.674 288.828 221.102V74.1452C288.828 67.5842 283.447 62.2287 276.835 62.2287H176.994Z" fill="#472C27"/>
<path d="M273.486 226.458H180.374C174.886 226.458 170.446 221.849 170.446 216.163V78.2952C170.446 72.609 174.897 68.0002 180.374 68.0002H273.486C278.975 68.0002 283.415 72.609 283.415 78.2952V216.163C283.415 221.849 278.964 226.458 273.486 226.458Z" fill="#472C27"/>
<path d="M29.8634 171.515C42.2837 171.515 52.3523 161.475 52.3523 149.09C52.3523 136.705 42.2837 126.666 29.8634 126.666C17.4431 126.666 7.37447 136.705 7.37447 149.09C7.37447 161.475 17.4431 171.515 29.8634 171.515Z" fill="#FEF8EE" stroke="#472C27" stroke-width="0.69" stroke-miterlimit="25.1"/>
<path d="M38.9681 144.706H38.3903V140.556C38.3903 136.171 34.7955 132.608 30.3555 132.608C25.9155 132.608 22.3207 136.171 22.3207 140.556V144.706H21.743C20.7052 144.706 19.8814 145.527 19.8814 146.551V160.154C19.8814 161.178 20.7159 161.999 21.743 161.999H38.9788C40.0166 161.999 40.8404 161.178 40.8404 160.154V146.551C40.8404 145.527 40.0059 144.706 38.9788 144.706H38.9681ZM24.8777 140.567C24.8777 137.569 27.3278 135.147 30.3555 135.147C33.3833 135.147 35.8333 137.569 35.8333 140.567V144.716H24.8884V140.567H24.8777Z" fill="#F09947"/>
<path d="M23.2515 144.599C23.2515 144.599 23.0161 139.297 23.7116 137.91C24.407 136.523 25.1131 135.382 26.9747 134.453C28.2693 133.792 29.7136 133.483 31.1687 133.536C32.0995 133.536 33.0302 133.312 33.2656 132.853C31.6929 132.298 30.0025 132.224 28.3763 132.629C25.8192 133.312 25.3485 133.781 23.9576 135.392C22.5561 137.003 22.3207 137.462 22.096 139.307C21.8714 141.153 22.0105 144.738 22.0105 144.738L23.2622 144.62V144.599H23.2515Z" fill="#FEF8EE"/>
<path d="M19.9884 159.578C21.3899 160.964 24.6424 160.495 25.8085 160.495C26.9747 160.495 31.5217 160.612 34.0787 160.612C36.6357 160.612 40.3696 161.071 40.8297 158.543C40.8297 158.543 41.5572 161.594 39.5565 161.914C37.5559 162.234 21.2722 161.999 21.2722 161.999C21.2722 161.999 19.5283 161.199 19.9884 159.578Z" fill="#472C27"/>
<path d="M19.9884 148.739C19.9884 148.739 21.0369 146.904 22.3207 146.434C24.1823 145.751 26.9747 146.434 30.2379 146.434C33.501 146.434 36.7534 146.434 38.3904 146.21C40.0273 145.986 40.038 145.773 40.0273 145.058C40.0273 145.058 39.0965 144.834 36.9995 144.834C34.9025 144.834 21.636 144.61 21.636 144.61C21.636 144.61 18.8436 145.527 19.9991 148.76V148.739H19.9884Z" fill="#FEF8EE"/>
<path d="M30.3555 157.732C29.521 157.732 28.8363 157.06 28.8363 156.228V154.041C27.6166 153.219 27.2957 151.565 28.1409 150.36C28.6437 149.645 29.4675 149.208 30.3448 149.208C31.8213 149.208 33.0195 150.392 33.0195 151.854C33.0195 152.728 32.5916 153.539 31.8534 154.041V156.228C31.8534 157.049 31.1793 157.732 30.3341 157.732H30.3555Z" fill="#472C27"/>
<path d="M39.0858 144.375V140.566C39.0858 135.798 35.1807 131.914 30.3555 131.914C25.5304 131.914 21.6253 135.776 21.6253 140.566V144.375C20.4591 144.439 19.5283 145.399 19.5283 146.562V160.164C19.5283 161.37 20.5233 162.351 21.743 162.351H38.9788C40.1985 162.351 41.1934 161.37 41.1934 160.164V146.562C41.1934 145.399 40.2733 144.439 39.0965 144.375H39.0858ZM30.3555 132.608C34.7955 132.608 38.3904 136.171 38.3904 140.556V144.354H35.8333V140.556C35.8333 137.558 33.3833 135.136 30.3555 135.136C27.3278 135.136 24.8777 137.558 24.8777 140.556V144.354H22.3207V140.556C22.3207 136.171 25.9262 132.608 30.3555 132.608ZM35.1272 144.364H25.5839V140.566C25.5839 137.953 27.7236 135.84 30.3555 135.84C32.9874 135.84 35.1272 137.963 35.1272 140.566V144.364ZM40.4766 160.153C40.4766 160.975 39.8026 161.658 38.9574 161.658H21.7323C20.8978 161.658 20.213 160.986 20.213 160.153V146.551C20.213 145.73 20.8871 145.047 21.7323 145.047H38.9681C39.8026 145.047 40.4873 145.719 40.4873 146.551V160.153H40.4766Z" fill="#472C27"/>
<path d="M206.801 153.806H222.1V233.605H206.801V153.806Z" fill="#F09947"/>
<path d="M222.089 234H206.79C206.576 234 206.394 233.819 206.394 233.605V153.806C206.394 153.592 206.576 153.411 206.79 153.411H222.089C222.303 153.411 222.485 153.592 222.485 153.806V233.605C222.485 233.819 222.303 234 222.089 234ZM207.196 233.211H221.693V154.201H207.196V233.211Z" fill="#472C27"/>
<path d="M206.801 156.43C206.801 160.463 208.352 160.495 210.556 159.364C214.953 157.124 219.008 157.092 222.089 157.124V151.896L206.79 152.003V156.42L206.801 156.43Z" fill="#472C27"/>
<path d="M208.555 160.399C208.224 160.399 207.892 160.335 207.603 160.143C206.79 159.641 206.405 158.468 206.405 156.43V152.014C206.405 151.8 206.587 151.619 206.801 151.619L222.1 151.512C222.314 151.512 222.496 151.694 222.496 151.907V157.134C222.496 157.241 222.453 157.337 222.378 157.422C222.303 157.508 222.196 157.54 222.089 157.54C219.532 157.497 215.253 157.444 210.738 159.727C210.064 160.058 209.283 160.399 208.555 160.399ZM207.196 152.408V156.43C207.196 158.116 207.475 159.14 208.01 159.471C208.459 159.748 209.219 159.609 210.385 159.023C214.536 156.91 218.387 156.708 221.704 156.74V152.312L207.207 152.419L207.196 152.408Z" fill="#472C27"/>
<path d="M212 155.854H216.879V174.183H212V155.854Z" fill="#472C27"/>
<path d="M216.89 174.577H212.011C211.797 174.577 211.615 174.396 211.615 174.182V155.854C211.615 155.641 211.797 155.459 212.011 155.459H216.89C217.104 155.459 217.285 155.641 217.285 155.854V174.182C217.285 174.396 217.104 174.577 216.89 174.577ZM212.407 173.788H216.504V156.249H212.407V173.788ZM211.936 194.602H216.943V212.93H211.936V194.602Z" fill="#472C27"/>
<path d="M216.954 213.314H211.947C211.733 213.314 211.551 213.133 211.551 212.919V194.591C211.551 194.378 211.733 194.196 211.947 194.196H216.954C217.168 194.196 217.35 194.378 217.35 194.591V212.919C217.35 213.133 217.168 213.314 216.954 213.314ZM212.332 212.525H216.558V194.986H212.332V212.525Z" fill="#472C27"/>
<path d="M78.8105 233.605H122.526V95.3005L78.8105 132.16V233.605Z" fill="#FEF8EE"/>
<path d="M122.537 234H78.8212C78.6072 234 78.4254 233.819 78.4254 233.605V132.16C78.4254 132.042 78.4788 131.936 78.5644 131.85L122.28 94.9912C122.451 94.8525 122.697 94.8738 122.836 95.0445C122.9 95.1085 122.922 95.2046 122.922 95.3006V233.595C122.922 233.808 122.74 233.989 122.526 233.989L122.537 234ZM79.2064 233.211H122.13V96.154L79.2064 132.341V233.211Z" fill="#472C27"/>
<path d="M92.4301 138.518V183.859H122.526V113.159L92.4301 138.529V138.518Z" fill="#F09947"/>
<path d="M122.537 184.243H92.4408C92.2268 184.243 92.045 184.061 92.045 183.848V138.507C92.045 138.39 92.0985 138.283 92.184 138.198L122.28 112.829C122.451 112.69 122.697 112.711 122.836 112.882C122.9 112.946 122.922 113.042 122.922 113.138V183.837C122.922 184.051 122.74 184.232 122.526 184.232L122.537 184.243ZM92.826 183.453H122.13V113.991L92.826 138.699V183.453Z" fill="#472C27"/>
<path d="M122.537 150.168C120.29 149.005 114.32 153.955 116.267 157.134C118.214 160.314 114.823 162.298 112.33 164.112C108.264 167.077 110.297 170.342 112.33 172.657C114.277 174.897 118.171 177.362 122.697 176.594C125.596 176.103 124.783 151.32 122.537 150.168Z" fill="#FEF8EE"/>
<path d="M107.483 186.067C107.269 186.067 107.088 185.886 107.088 185.672V125.833C107.088 125.62 107.269 125.439 107.483 125.439C107.697 125.439 107.879 125.62 107.879 125.833V185.672C107.879 185.886 107.697 186.067 107.483 186.067Z" fill="#472C27"/>
<path d="M96.6241 186.024H122.537V224.527H96.6241V186.024Z" fill="#472C27"/>
<path d="M122.537 224.921H96.6241C96.4101 224.921 96.2282 224.74 96.2282 224.527V186.024C96.2282 185.811 96.4101 185.63 96.6241 185.63H122.537C122.751 185.63 122.932 185.811 122.932 186.024V224.527C122.932 224.74 122.751 224.921 122.537 224.921ZM97.0199 224.142H122.141V186.419H97.0199V224.142Z" fill="#472C27"/>
<path d="M108.735 186.024H110.426V224.527H108.735V186.024Z" fill="#F09947"/>
<path d="M65.7901 185.672H67.7586V233.605H65.7901V185.672Z" fill="#472C27"/>
<path d="M67.7586 234H65.7901C65.5761 234 65.3942 233.819 65.3942 233.605V185.672C65.3942 185.459 65.5761 185.278 65.7901 185.278H67.7586C67.9726 185.278 68.1545 185.459 68.1545 185.672V233.605C68.1545 233.819 67.9726 234 67.7586 234ZM66.1859 233.211H67.3628V186.067H66.1859V233.211Z" fill="#472C27"/>
<path d="M80.1265 231.632V233.595H65.7901V231.632H80.1265Z" fill="#472C27"/>
<path d="M80.1265 234H65.7901C65.5761 234 65.3942 233.819 65.3942 233.605V231.642C65.3942 231.429 65.5761 231.248 65.7901 231.248H80.1265C80.3405 231.248 80.5223 231.429 80.5223 231.642V233.605C80.5223 233.819 80.3405 234 80.1265 234ZM66.1859 233.211H79.7413V232.037H66.1859V233.211ZM122.537 166.096V168.059H65.7901V166.096H122.537Z" fill="#472C27"/>
<path d="M122.537 168.454H65.7901C65.5761 168.454 65.3942 168.272 65.3942 168.059V166.096C65.3942 165.883 65.5761 165.701 65.7901 165.701H122.537C122.751 165.701 122.932 165.883 122.932 166.096V168.059C122.932 168.272 122.751 168.454 122.537 168.454ZM66.1859 167.664H122.13V166.491H66.1859V167.664Z" fill="#472C27"/>
<path d="M112.33 184.243C112.116 184.243 111.934 184.061 111.934 183.848V167.077C111.934 166.864 112.116 166.683 112.33 166.683C112.544 166.683 112.726 166.864 112.726 167.077V183.848C112.726 184.061 112.544 184.243 112.33 184.243ZM119.744 184.243C119.53 184.243 119.348 184.061 119.348 183.848V167.077C119.348 166.864 119.53 166.683 119.744 166.683C119.958 166.683 120.14 166.864 120.14 167.077V183.848C120.14 184.061 119.958 184.243 119.744 184.243ZM104.894 184.243C104.68 184.243 104.498 184.061 104.498 183.848V167.077C104.498 166.864 104.68 166.683 104.894 166.683C105.108 166.683 105.29 166.864 105.29 167.077V183.848C105.29 184.061 105.108 184.243 104.894 184.243ZM97.4693 184.243C97.2553 184.243 97.0734 184.061 97.0734 183.848V167.077C97.0734 166.864 97.2553 166.683 97.4693 166.683C97.6832 166.683 97.8651 166.864 97.8651 167.077V183.848C97.8651 184.061 97.6832 184.243 97.4693 184.243ZM90.0443 184.243C89.8303 184.243 89.6484 184.061 89.6484 183.848V167.077C89.6484 166.864 89.8303 166.683 90.0443 166.683C90.2583 166.683 90.4401 166.864 90.4401 167.077V183.848C90.4401 184.061 90.2583 184.243 90.0443 184.243ZM82.6086 184.243C82.3946 184.243 82.2128 184.061 82.2128 183.848V167.077C82.2128 166.864 82.3946 166.683 82.6086 166.683C82.8226 166.683 83.0045 166.864 83.0045 167.077V183.848C83.0045 184.061 82.8226 184.243 82.6086 184.243ZM75.1943 184.243C74.9803 184.243 74.7985 184.061 74.7985 183.848V167.077C74.7985 166.864 74.9803 166.683 75.1943 166.683C75.4083 166.683 75.5902 166.864 75.5902 167.077V183.848C75.5902 184.061 75.4083 184.243 75.1943 184.243ZM67.7586 184.243C67.5447 184.243 67.3628 184.061 67.3628 183.848V167.077C67.3628 166.864 67.5447 166.683 67.7586 166.683C67.9726 166.683 68.1545 166.864 68.1545 167.077V183.848C68.1545 184.061 67.9726 184.243 67.7586 184.243ZM127.18 184.243C126.966 184.243 126.784 184.061 126.784 183.848V167.077C126.784 166.864 126.966 166.683 127.18 166.683C127.394 166.683 127.576 166.864 127.576 167.077V183.848C127.576 184.061 127.394 184.243 127.18 184.243ZM122.537 229.455H78.8212C78.6072 229.455 78.4254 229.274 78.4254 229.061V224.527C78.4254 224.313 78.6072 224.132 78.8212 224.132H122.537C122.751 224.132 122.932 224.313 122.932 224.527V229.061C122.932 229.274 122.751 229.455 122.537 229.455ZM79.2064 228.677H122.13V224.932H79.2064V228.677Z" fill="#472C27"/>
<path d="M122.537 234H78.8212C78.6072 234 78.4254 233.819 78.4254 233.605V229.071C78.4254 228.858 78.6072 228.677 78.8212 228.677H122.537C122.751 228.677 122.932 228.858 122.932 229.071V233.605C122.932 233.819 122.751 234 122.537 234ZM79.2064 233.211H122.13V229.466H79.2064V233.211Z" fill="#472C27"/>
<path d="M78.8105 224.537H82.2555V229.071H78.8105V224.537Z" fill="#472C27"/>
<path d="M82.2662 229.455H78.8212C78.6072 229.455 78.4254 229.274 78.4254 229.061V224.527C78.4254 224.313 78.6072 224.132 78.8212 224.132H82.2662C82.4802 224.132 82.6621 224.313 82.6621 224.527V229.061C82.6621 229.274 82.4802 229.455 82.2662 229.455ZM79.2064 228.677H81.8597V224.932H79.2064V228.677Z" fill="#472C27"/>
<path d="M78.8105 229.071H80.533V233.605H78.8105V229.071Z" fill="#472C27"/>
<path d="M80.533 234H78.8105C78.5965 234 78.4147 233.819 78.4147 233.605V229.071C78.4147 228.858 78.5965 228.677 78.8105 228.677H80.533C80.747 228.677 80.9289 228.858 80.9289 229.071V233.605C80.9289 233.819 80.747 234 80.533 234ZM79.2064 233.211H80.1372V229.466H79.2064V233.211ZM65.7901 183.848H122.537V188.201H65.7901V183.848Z" fill="#472C27"/>
<path d="M122.537 188.596H65.7901C65.5761 188.596 65.3942 188.414 65.3942 188.201V183.848C65.3942 183.635 65.5761 183.453 65.7901 183.453H122.537C122.751 183.453 122.932 183.635 122.932 183.848V188.201C122.932 188.414 122.751 188.596 122.537 188.596ZM66.1859 187.806H122.13V184.243H66.1859V187.806Z" fill="#472C27"/>
<path d="M206.801 233.605H122.537V95.3005L206.801 153.806V233.605Z" fill="#FEF8EE"/>
<path d="M206.801 234H122.537C122.323 234 122.141 233.819 122.141 233.605V95.3005C122.141 95.0871 122.323 94.9058 122.537 94.9058C122.611 94.9058 122.697 94.9378 122.761 94.9698L207.025 153.475C207.132 153.539 207.196 153.667 207.196 153.795V233.595C207.196 233.808 207.015 233.989 206.801 233.989V234ZM122.932 233.211H206.415V154.009L122.932 96.0473V233.211Z" fill="#472C27"/>
<path d="M193.149 183.848H136.124V121.449L193.149 161.028V183.827V183.848Z" fill="#F09947"/>
<path d="M193.149 184.243H136.124C135.91 184.243 135.728 184.061 135.728 183.848V121.449C135.728 121.235 135.91 121.054 136.124 121.054C136.199 121.054 136.285 121.086 136.349 121.118L193.374 160.698C193.481 160.762 193.545 160.89 193.545 161.018V183.816C193.545 184.029 193.363 184.211 193.149 184.211V184.243ZM136.52 183.453H192.753V161.252L136.52 122.206V183.453Z" fill="#472C27"/>
<path d="M136.424 132.544C137.098 131.21 139.195 131.114 140.307 132.106C141.431 133.109 141.72 134.773 141.484 136.267C141.249 137.761 140.607 139.137 140.147 140.566C139.526 142.487 139.237 144.503 139.302 146.519C139.344 147.789 139.558 149.154 140.457 150.061C141.72 151.352 143.784 151.267 145.518 151.811C149.326 152.984 151.359 157.273 151.584 161.231C151.755 164.261 150.974 167.557 148.631 169.499C146.288 171.441 142.158 171.238 140.703 168.571C139.869 167.035 140.061 165.178 140.35 163.471C140.639 161.764 140.992 159.951 140.414 158.308C139.837 156.665 137.911 155.353 136.338 156.1L136.434 132.565L136.424 132.544ZM170.104 166.928C170.253 169.734 171.505 172.646 173.837 174.225C181.904 179.687 185.82 172.273 185.916 170.63C186.088 167.899 184.472 165.861 182.653 164.218C181.369 163.066 179.807 162.255 178.663 160.964C177.486 159.631 176.865 157.913 175.956 156.366C174.554 153.977 172.286 151.875 169.44 151.501C166.209 151.075 165.567 153.326 167.632 154.883C172.029 158.212 169.857 161.956 170.125 166.917L170.104 166.928ZM164.562 156.473C166.637 156.377 168.285 160.26 165.931 162.063C163.577 163.866 162.85 161.199 162.347 159.737C161.844 158.276 163.064 156.548 164.562 156.484V156.473Z" fill="#FEF8EE"/>
<path d="M136.124 194.602H193.149V233.605H136.124V194.602Z" fill="#F09947"/>
<path d="M193.149 234H136.124C135.91 234 135.728 233.819 135.728 233.605V194.602C135.728 194.388 135.91 194.207 136.124 194.207H193.149C193.363 194.207 193.545 194.388 193.545 194.602V233.605C193.545 233.819 193.363 234 193.149 234ZM136.52 233.211H192.753V194.996H136.52V233.211Z" fill="#472C27"/>
<path d="M141.003 199.467H188.27V233.605H141.003V199.467Z" fill="#FEF8EE"/>
<path d="M188.281 234H141.013C140.799 234 140.618 233.819 140.618 233.605V199.467C140.618 199.253 140.799 199.072 141.013 199.072H188.281C188.495 199.072 188.677 199.253 188.677 199.467V233.605C188.677 233.819 188.495 234 188.281 234ZM141.409 233.211H187.885V199.872H141.409V233.211Z" fill="#472C27"/>
<path d="M188.281 199.861H141.013C140.799 199.861 140.618 199.68 140.618 199.467C140.618 199.253 140.799 199.072 141.013 199.072H188.281C188.495 199.072 188.677 199.253 188.677 199.467C188.677 199.68 188.495 199.861 188.281 199.861ZM188.281 204.737H141.013C140.799 204.737 140.618 204.555 140.618 204.342C140.618 204.129 140.799 203.947 141.013 203.947H188.281C188.495 203.947 188.677 204.129 188.677 204.342C188.677 204.555 188.495 204.737 188.281 204.737ZM188.281 209.612H141.013C140.799 209.612 140.618 209.431 140.618 209.217C140.618 209.004 140.799 208.823 141.013 208.823H188.281C188.495 208.823 188.677 209.004 188.677 209.217C188.677 209.431 188.495 209.612 188.281 209.612ZM188.281 214.488H141.013C140.799 214.488 140.618 214.306 140.618 214.093C140.618 213.88 140.799 213.698 141.013 213.698H188.281C188.495 213.698 188.677 213.88 188.677 214.093C188.677 214.306 188.495 214.488 188.281 214.488ZM188.281 219.374H141.013C140.799 219.374 140.618 219.192 140.618 218.979C140.618 218.766 140.799 218.584 141.013 218.584H188.281C188.495 218.584 188.677 218.766 188.677 218.979C188.677 219.192 188.495 219.374 188.281 219.374ZM188.281 224.238H141.013C140.799 224.238 140.618 224.057 140.618 223.844C140.618 223.63 140.799 223.449 141.013 223.449H188.281C188.495 223.449 188.677 223.63 188.677 223.844C188.677 224.057 188.495 224.238 188.281 224.238ZM188.281 229.114H141.013C140.799 229.114 140.618 228.933 140.618 228.719C140.618 228.506 140.799 228.324 141.013 228.324H188.281C188.495 228.324 188.677 228.506 188.677 228.719C188.677 228.933 188.495 229.114 188.281 229.114ZM188.281 234H141.013C140.799 234 140.618 233.819 140.618 233.605C140.618 233.392 140.799 233.211 141.013 233.211H188.281C188.495 233.211 188.677 233.392 188.677 233.605C188.677 233.819 188.495 234 188.281 234ZM155.136 184.243C154.922 184.243 154.74 184.061 154.74 183.848V134.656C154.74 134.443 154.922 134.261 155.136 134.261C155.35 134.261 155.532 134.443 155.532 134.656V183.848C155.532 184.061 155.35 184.243 155.136 184.243ZM174.148 184.243C173.934 184.243 173.752 184.061 173.752 183.848V147.842C173.752 147.629 173.934 147.448 174.148 147.448C174.362 147.448 174.544 147.629 174.544 147.842V183.848C174.544 184.061 174.362 184.243 174.148 184.243Z" fill="#472C27"/>
<path d="M209.753 155.854H225.449V149.09L138.242 88.5261H122.537L209.753 155.844V155.854Z" fill="#F09947"/>
<path d="M225.449 156.249H209.753C209.668 156.249 209.572 156.217 209.507 156.174L122.291 88.8569C122.109 88.7182 122.087 88.4728 122.226 88.3021C122.301 88.2061 122.408 88.1421 122.537 88.1421H138.243C138.317 88.1421 138.403 88.1741 138.467 88.2061L225.673 148.77C225.78 148.845 225.844 148.962 225.844 149.09V155.854C225.844 156.068 225.663 156.249 225.449 156.249ZM209.893 155.46H225.053V149.293L138.125 88.9315H123.692L209.893 155.46Z" fill="#472C27"/>
<path d="M225.449 149.485H209.753C209.539 149.485 209.358 149.304 209.358 149.09C209.358 148.877 209.539 148.696 209.753 148.696H225.449C225.663 148.696 225.844 148.877 225.844 149.09C225.844 149.304 225.663 149.485 225.449 149.485ZM215.755 142.753H200.06C199.846 142.753 199.664 142.572 199.664 142.359C199.664 142.145 199.846 141.964 200.06 141.964H215.755C215.969 141.964 216.151 142.145 216.151 142.359C216.151 142.572 215.969 142.753 215.755 142.753ZM206.062 136.032H190.367C190.153 136.032 189.971 135.851 189.971 135.638C189.971 135.424 190.153 135.243 190.367 135.243H206.062C206.276 135.243 206.458 135.424 206.458 135.638C206.458 135.851 206.276 136.032 206.062 136.032ZM196.38 129.301H180.685C180.471 129.301 180.289 129.119 180.289 128.906C180.289 128.692 180.471 128.511 180.685 128.511H196.38C196.594 128.511 196.776 128.692 196.776 128.906C196.776 129.119 196.594 129.301 196.38 129.301ZM186.697 122.569H171.002C170.788 122.569 170.606 122.387 170.606 122.174C170.606 121.961 170.788 121.779 171.002 121.779H186.697C186.911 121.779 187.093 121.961 187.093 122.174C187.093 122.387 186.911 122.569 186.697 122.569ZM176.994 115.837H161.298C161.084 115.837 160.903 115.656 160.903 115.442C160.903 115.229 161.084 115.048 161.298 115.048H176.994C177.208 115.048 177.389 115.229 177.389 115.442C177.389 115.656 177.208 115.837 176.994 115.837ZM167.311 109.116H151.605C151.391 109.116 151.209 108.935 151.209 108.721C151.209 108.508 151.391 108.327 151.605 108.327H167.311C167.525 108.327 167.707 108.508 167.707 108.721C167.707 108.935 167.525 109.116 167.311 109.116ZM157.629 102.384H141.923C141.709 102.384 141.527 102.203 141.527 101.99C141.527 101.776 141.709 101.595 141.923 101.595H157.629C157.843 101.595 158.025 101.776 158.025 101.99C158.025 102.203 157.843 102.384 157.629 102.384ZM147.936 95.6632H132.23C132.016 95.6632 131.834 95.4819 131.834 95.2685C131.834 95.0551 132.016 94.8738 132.23 94.8738H147.936C148.15 94.8738 148.331 95.0551 148.331 95.2685C148.331 95.4819 148.15 95.6632 147.936 95.6632ZM138.242 88.9208H122.537C122.323 88.9208 122.141 88.7394 122.141 88.5261C122.141 88.3127 122.323 88.1313 122.537 88.1313H138.242C138.456 88.1313 138.638 88.3127 138.638 88.5261C138.638 88.7394 138.456 88.9208 138.242 88.9208Z" fill="#472C27"/>
<path d="M209.753 149.09H225.449V155.854H209.753V149.09Z" fill="#472C27"/>
<path d="M225.449 156.249H209.753C209.539 156.249 209.358 156.068 209.358 155.854V149.091C209.358 148.877 209.539 148.696 209.753 148.696H225.449C225.663 148.696 225.844 148.877 225.844 149.091V155.854C225.844 156.068 225.663 156.249 225.449 156.249ZM210.149 155.46H225.053V149.485H210.149V155.46Z" fill="#472C27"/>
<path d="M97.4693 142.263C95.9928 139.809 101.192 134.656 103.996 136.075C106.895 137.558 104.541 157.081 99.9942 158.073C95.4472 159.065 100.112 150.189 100.679 146.274C101.246 142.359 98.9029 144.642 97.48 142.263H97.4693ZM111.624 148.504C109.473 147.042 114.159 139.745 116.856 142.263C119.552 144.78 113.571 149.827 111.624 148.504Z" fill="#FEF8EE"/>
<path d="M206.405 231.098C203.612 229.807 202.446 226.223 202.575 223.14C202.703 220.056 203.398 216.877 202.328 213.997C201.483 211.724 199.654 209.996 198.455 207.884C197.268 205.772 196.915 202.774 198.776 201.216C199.45 200.661 200.306 200.384 201.012 199.872C203.088 198.378 203.334 195.455 203.484 192.916C203.634 190.377 204.137 187.411 206.394 186.227V231.098H206.405Z" fill="#F09947"/>
<path d="M136.124 164.229C135.91 164.229 135.728 164.048 135.728 163.834V128.906C135.728 128.693 135.91 128.511 136.124 128.511C136.338 128.511 136.52 128.693 136.52 128.906V163.834C136.52 164.048 136.338 164.229 136.124 164.229ZM78.8105 225.775C78.8105 228.207 82.2983 229.359 80.7791 220.579C79.4845 213.133 79.5166 201.846 81.0466 197.525C84.7591 187.027 78.8212 187.795 78.8212 187.795V225.775H78.8105Z" fill="#472C27"/>
<path d="M79.9553 227.919C79.7734 227.919 79.6129 227.876 79.4524 227.791C78.8319 227.482 78.4147 226.671 78.4147 225.764V187.785C78.4147 187.593 78.5644 187.422 78.757 187.39C78.8319 187.39 80.5865 187.176 81.7313 188.585C83.0579 190.228 82.951 193.268 81.4103 197.631C79.966 201.739 79.8483 212.834 81.1643 220.483C81.8383 224.345 81.6243 226.905 80.5972 227.663C80.4046 227.812 80.1693 227.876 79.9446 227.876V227.898L79.9553 227.919ZM79.2064 188.19V225.785C79.2064 226.447 79.5166 226.948 79.7948 227.098C79.9125 227.162 80.0088 227.151 80.1158 227.065C80.6721 226.649 81.0787 224.718 80.3725 220.643C79.0352 212.887 79.1743 201.589 80.6614 197.386C82.4588 192.297 81.9025 190.068 81.1108 189.097C80.5116 188.35 79.6664 188.201 79.2064 188.179V188.19ZM122.537 91.1292V102.694C122.537 102.694 121.36 109.948 130.39 109.564C137.654 109.255 153.809 117.48 159.201 123.678C164.594 129.877 171.773 137.771 179.84 141.74C187.917 145.709 203.548 151.555 206.801 153.806C211.936 148.717 122.537 91.1398 122.537 91.1398V91.1292Z" fill="#472C27"/>
<path d="M206.801 154.2C206.726 154.2 206.64 154.179 206.576 154.136C204.8 152.91 199.172 150.541 193.224 148.045C188.345 145.997 183.285 143.874 179.679 142.103C172.029 138.358 165.182 131.157 158.913 123.945C156.398 121.065 151.209 117.459 145.336 114.546C139.291 111.538 133.706 109.82 130.422 109.959C127.319 110.087 125.169 109.532 123.831 108.263C122.344 106.844 122.151 104.753 122.151 102.694V91.1291C122.151 90.9157 122.333 90.7344 122.547 90.7344C122.622 90.7344 122.697 90.7557 122.761 90.7984C122.965 90.9371 143.913 104.433 164.69 118.75C176.897 127.156 186.665 134.208 193.705 139.692C207.1 150.115 207.336 152.355 207.421 153.08C207.475 153.582 207.271 153.891 207.1 154.072C207.025 154.136 206.918 154.19 206.822 154.19H206.801V154.2ZM130.796 109.159C138.606 109.159 154.355 117.501 159.501 123.422C165.717 130.57 172.5 137.697 180.021 141.388C183.606 143.148 188.655 145.26 193.523 147.309C199.13 149.666 204.447 151.896 206.629 153.219V153.176C206.191 148.909 179.882 130.186 164.241 119.4C145.464 106.449 126.538 94.1803 122.943 91.8439V102.683C122.943 104.849 123.189 106.534 124.388 107.676C125.554 108.785 127.522 109.276 130.39 109.159H130.818H130.796Z" fill="#472C27"/>
<path d="M75.8576 127.882L122.537 88.5369L209.753 149.101V155.865L122.537 95.3006L75.8576 134.646V127.882Z" fill="#F09947"/>
<path d="M209.753 156.249C209.679 156.249 209.593 156.228 209.529 156.185L122.558 95.802L76.1144 134.955C75.9432 135.094 75.6972 135.072 75.5581 134.902C75.4939 134.838 75.4725 134.742 75.4725 134.646V127.882C75.4725 127.764 75.526 127.658 75.6116 127.572L122.291 88.2274C122.43 88.1101 122.622 88.0994 122.772 88.2061L209.989 148.77C210.096 148.845 210.16 148.962 210.16 149.09V155.854C210.16 156.068 209.978 156.249 209.764 156.249H209.753ZM122.537 94.9058C122.611 94.9058 122.697 94.9272 122.761 94.9698L209.358 155.097V149.293L122.547 89.0276L76.2428 128.063V133.792L122.269 94.9912C122.333 94.9272 122.44 94.9058 122.526 94.9058H122.537Z" fill="#472C27"/>
<path d="M122.537 126.463C122.323 126.463 122.141 126.282 122.141 126.068V95.3112C122.141 95.0979 122.323 94.9165 122.537 94.9165C122.751 94.9165 122.932 95.0979 122.932 95.3112V126.068C122.932 126.282 122.751 126.463 122.537 126.463Z" fill="#472C27"/>
<path d="M149.851 38.0966C160.297 38.0966 168.766 29.652 168.766 19.235C168.766 8.81795 160.297 0.373291 149.851 0.373291C139.404 0.373291 130.935 8.81795 130.935 19.235C130.935 29.652 139.404 38.0966 149.851 38.0966Z" fill="#FEF8EE" stroke="#472C27" stroke-width="0.7" stroke-miterlimit="25.2"/>
<path d="M62.5376 78.7325C72.9312 78.7325 81.3568 70.3308 81.3568 59.9668C81.3568 49.6028 72.9312 41.2012 62.5376 41.2012C52.144 41.2012 43.7184 49.6028 43.7184 59.9668C43.7184 70.3308 52.144 78.7325 62.5376 78.7325Z" fill="#FEF8EE" stroke="#472C27" stroke-width="0.69" stroke-miterlimit="25.1"/>
<path d="M149.712 141.452C149.498 141.452 149.316 141.271 149.316 141.057V38.4809C149.316 38.2675 149.498 38.0862 149.712 38.0862C149.926 38.0862 150.107 38.2675 150.107 38.4809V141.068C150.107 141.281 149.926 141.463 149.712 141.463V141.452Z" fill="#472C27"/>
<path d="M149.712 144.098C150.627 144.098 151.37 143.357 151.37 142.444C151.37 141.531 150.627 140.791 149.712 140.791C148.796 140.791 148.053 141.531 148.053 142.444C148.053 143.357 148.796 144.098 149.712 144.098Z" fill="#FEF8EE"/>
<path d="M149.712 144.503C148.578 144.503 147.657 143.586 147.657 142.455C147.657 141.324 148.578 140.406 149.712 140.406C150.846 140.406 151.766 141.324 151.766 142.455C151.766 143.586 150.846 144.503 149.712 144.503ZM149.712 141.175C149.016 141.175 148.428 141.74 148.428 142.455C148.428 143.17 148.995 143.735 149.712 143.735C150.428 143.735 150.995 143.17 150.995 142.455C150.995 141.74 150.428 141.175 149.712 141.175Z" fill="#472C27"/>
<path d="M308.322 211.821C308.322 212.034 308.14 212.215 307.926 212.215H172.757C172.543 212.215 172.361 212.034 172.361 211.821C172.361 211.607 172.543 211.426 172.757 211.426H307.926C308.14 211.426 308.322 211.607 308.322 211.821Z" fill="#472C27"/>
<path d="M172.746 213.336C173.662 213.336 174.405 212.595 174.405 211.682C174.405 210.769 173.662 210.028 172.746 210.028C171.83 210.028 171.088 210.769 171.088 211.682C171.088 212.595 171.83 213.336 172.746 213.336Z" fill="#FEF8EE"/>
<path d="M174.811 211.682C174.811 212.813 173.891 213.73 172.757 213.73C171.623 213.73 170.703 212.813 170.703 211.682C170.703 210.551 171.623 209.634 172.757 209.634C173.891 209.634 174.811 210.551 174.811 211.682ZM171.473 211.682C171.473 212.375 172.04 212.962 172.757 212.962C173.474 212.962 174.041 212.397 174.041 211.682C174.041 210.967 173.474 210.402 172.757 210.402C172.04 210.402 171.473 210.967 171.473 211.682Z" fill="#472C27"/>
<path d="M100.604 150.861H62.3664C62.1524 150.861 61.9706 150.68 61.9706 150.467V78.6044C61.9706 78.3911 62.1524 78.2097 62.3664 78.2097C62.5804 78.2097 62.7623 78.3911 62.7623 78.6044V150.072H100.615C100.829 150.072 101.011 150.253 101.011 150.467C101.011 150.68 100.829 150.861 100.615 150.861H100.604Z" fill="#472C27"/>
<path d="M99.9193 152.12C100.835 152.12 101.578 151.38 101.578 150.467C101.578 149.553 100.835 148.813 99.9193 148.813C99.0034 148.813 98.261 149.553 98.261 150.467C98.261 151.38 99.0034 152.12 99.9193 152.12Z" fill="#FEF8EE"/>
<path d="M99.9193 152.515C98.7852 152.515 97.8651 151.597 97.8651 150.467C97.8651 149.336 98.7852 148.418 99.9193 148.418C101.053 148.418 101.973 149.336 101.973 150.467C101.973 151.597 101.053 152.515 99.9193 152.515ZM99.9193 149.186C99.2239 149.186 98.6354 149.752 98.6354 150.467C98.6354 151.181 99.2025 151.747 99.9193 151.747C100.636 151.747 101.203 151.181 101.203 150.467C101.203 149.752 100.636 149.186 99.9193 149.186Z" fill="#472C27"/>
<path d="M101.588 207.212H29.9597C29.7457 207.212 29.5638 207.03 29.5638 206.817V172.006C29.5638 171.793 29.7457 171.611 29.9597 171.611C30.1737 171.611 30.3555 171.793 30.3555 172.006V206.433H101.588C101.802 206.433 101.984 206.614 101.984 206.828C101.984 207.041 101.802 207.222 101.588 207.222V207.212Z" fill="#472C27"/>
<path d="M101.588 208.471C102.504 208.471 103.247 207.73 103.247 206.817C103.247 205.904 102.504 205.163 101.588 205.163C100.672 205.163 99.93 205.904 99.93 206.817C99.93 207.73 100.672 208.471 101.588 208.471Z" fill="#FEF8EE"/>
<path d="M101.588 208.865C100.454 208.865 99.5341 207.948 99.5341 206.817C99.5341 205.686 100.454 204.769 101.588 204.769C102.722 204.769 103.643 205.686 103.643 206.817C103.643 207.948 102.722 208.865 101.588 208.865ZM101.588 205.547C100.893 205.547 100.304 206.113 100.304 206.828C100.304 207.542 100.872 208.108 101.588 208.108C102.305 208.108 102.872 207.542 102.872 206.828C102.872 206.113 102.305 205.547 101.588 205.547Z" fill="#472C27"/>
<path d="M330.254 230.543C340.701 230.543 349.17 222.099 349.17 211.682C349.17 201.265 340.701 192.82 330.254 192.82C319.808 192.82 311.339 201.265 311.339 211.682C311.339 222.099 319.808 230.543 330.254 230.543Z" fill="#FEF8EE" stroke="#472C27" stroke-width="0.7" stroke-miterlimit="25.2"/>
<path d="M340.3 213.869C340.3 222.094 330.265 225.423 330.265 225.423C330.265 225.423 325.804 223.94 322.819 220.515C321.428 218.915 320.358 216.899 320.229 214.392C320.229 214.21 320.229 214.039 320.229 213.858V202.678C320.229 201.792 320.936 201.077 321.813 201.077H338.728C339.605 201.077 340.311 201.792 340.311 202.678V213.858L340.3 213.869Z" fill="#FEF8EE"/>
<path d="M323.332 203.19C322.851 203.19 322.466 203.585 322.466 204.065V213.73C322.466 213.869 322.466 214.008 322.466 214.146C322.573 216.088 323.396 217.656 324.477 218.904C326.788 221.561 330.254 222.713 330.254 222.713H330.286V203.179H323.332V203.19Z" fill="#F09947"/>
<path d="M337.187 203.19H330.276V222.713C330.757 222.542 338.054 219.928 338.054 213.741V204.075C338.054 203.595 337.658 203.2 337.187 203.2V203.19Z" fill="#472C27"/>
<path d="M330.254 225.817C330.254 225.817 330.179 225.817 330.126 225.796C329.944 225.732 325.525 224.249 322.519 220.782C320.861 218.883 319.962 216.728 319.834 214.424C319.834 214.242 319.812 214.061 319.812 213.869V202.688C319.812 201.59 320.7 200.693 321.792 200.693H338.706C339.798 200.693 340.686 201.59 340.686 202.688V213.869C340.686 217.368 338.899 220.537 335.507 223.044C332.982 224.921 330.479 225.764 330.383 225.796C330.34 225.796 330.308 225.817 330.265 225.817H330.254ZM321.802 201.483C321.139 201.483 320.615 202.027 320.615 202.678V213.858C320.615 214.04 320.615 214.2 320.615 214.37C320.732 216.504 321.567 218.478 323.107 220.248C325.707 223.236 329.516 224.729 330.244 224.985C331.378 224.569 339.894 221.209 339.894 213.858V202.678C339.894 202.006 339.359 201.483 338.706 201.483H321.792H321.802Z" fill="#472C27"/>
<mask id="mask0_543_5730" style="mask-type:luminance" maskUnits="userSpaceOnUse" x="49" y="45" width="27" height="30">
<path d="M71.8818 45.9143L49.1944 49.2146L52.8392 74.1282L75.5267 70.8279L71.8818 45.9143Z" fill="white"/>
</mask>
<g mask="url(#mask0_543_5730)">
<path d="M70.8827 58.8361C70.7543 57.9613 71.4925 56.7025 72.3591 55.4116C72.7764 54.7715 72.7764 53.95 72.3591 53.3099C71.9847 52.7552 71.5674 52.2218 71.1074 51.731C70.5938 51.1763 69.8128 51.0056 69.1067 51.2723C67.6516 51.827 66.2822 52.2751 65.4905 51.9444C64.6774 51.6137 63.9606 50.3335 63.2865 48.9252C62.9656 48.2531 62.2594 47.8264 61.5105 47.8797C60.8365 47.9224 60.1625 48.0184 59.5098 48.1784C58.793 48.3598 58.2367 48.9572 58.119 49.6934C57.8729 51.2403 57.5627 52.6805 56.91 53.2032C56.2253 53.7473 54.7703 53.7153 53.2296 53.6086C52.4807 53.5446 51.7853 53.9607 51.4429 54.6328C51.1434 55.2409 50.8973 55.881 50.7047 56.5318C50.5014 57.2572 50.7368 58.036 51.3145 58.5161C52.5128 59.5189 53.5934 60.5004 53.7111 61.3432C53.8395 62.218 53.1012 63.4769 52.2346 64.7678C51.8067 65.4079 51.8174 66.2293 52.2346 66.8694C52.6091 67.4242 53.0264 67.9576 53.4864 68.4484C54 69.0031 54.781 69.1738 55.4871 68.9071C56.9421 68.3523 58.3116 67.9043 59.1033 68.235C59.9164 68.5657 60.6332 69.8459 61.3072 71.2541C61.6282 71.9262 62.3343 72.353 63.0833 72.2996C63.7573 72.257 64.4313 72.1609 65.0839 72.0009C65.8008 71.8195 66.3571 71.2221 66.4748 70.486C66.7209 68.9391 67.0311 67.4989 67.6837 66.9761C68.3685 66.432 69.8235 66.464 71.3641 66.5707C72.1131 66.6347 72.8085 66.2187 73.1508 65.5465C73.4504 64.9385 73.6965 64.2983 73.8891 63.6476C74.0923 62.9221 73.857 62.1433 73.2792 61.6633C72.081 60.6604 71.0004 59.6789 70.8827 58.8361ZM62.9335 64.341C60.6118 64.6717 58.44 63.0501 58.0976 60.6924C57.7552 58.3347 59.3601 56.1584 61.6924 55.817C64.014 55.4863 66.1859 57.1079 66.5283 59.4656C66.8706 61.8233 65.2658 63.9996 62.9335 64.341Z" fill="#F09947"/>
<path d="M61.7994 64.3517L60.0769 69.0671C59.8308 68.7043 59.5098 68.4056 59.114 68.2243C58.44 67.9469 57.3166 68.2456 56.0755 68.6937L58.5149 62.0366C59.1675 63.3168 60.3978 64.181 61.7887 64.3623L61.7994 64.3517ZM66.3143 52.0297L64.6774 56.5104C63.5112 55.7103 62.0134 55.5503 60.6974 56.0837L63.3079 48.9465C63.9819 50.3441 64.6988 51.603 65.5012 51.9337C65.7687 52.0297 66.0468 52.0617 66.3143 52.0297ZM71.4176 52.0617L64.0568 72.1822C63.7466 72.2356 63.4149 72.2569 63.1046 72.2783C62.4306 72.3209 61.7887 71.9689 61.4356 71.3928L64.1531 63.9676C66.2394 62.9754 67.1595 60.4684 66.218 58.3347L68.7536 51.3896C68.8713 51.3362 68.9997 51.3042 69.1281 51.2509C69.8235 50.9842 70.6152 51.1656 71.1288 51.7096C71.2358 51.827 71.332 51.9443 71.439 52.0617H71.4176Z" fill="#FEF8EE"/>
<path d="M64.1103 72.5343C63.7787 72.5876 63.447 72.609 63.1153 72.6303C62.2273 72.6837 61.4035 72.1929 61.0184 71.3821C60.3764 70.0699 59.6917 68.8111 58.9856 68.523C58.9856 68.523 58.9642 68.523 58.9428 68.5017C58.1725 68.235 56.5142 68.8644 55.6155 69.1951C54.7917 69.5045 53.8502 69.2911 53.251 68.6404C52.7803 68.1283 52.3523 67.5949 51.9672 67.0081C51.4643 66.2506 51.4643 65.2691 51.9672 64.5224C52.7696 63.3062 53.4971 62.09 53.3794 61.3325V61.3005C53.2189 60.5004 51.8388 59.3482 51.1006 58.7294C50.4158 58.164 50.127 57.2359 50.3837 56.3824C50.5763 55.7103 50.8331 55.0595 51.1434 54.4301C51.5392 53.63 52.3737 53.1499 53.251 53.2139C54.6954 53.3099 56.1076 53.3419 56.696 52.8832C56.696 52.8832 56.7281 52.8618 56.7388 52.8512C57.2952 52.3498 57.5627 50.9095 57.7873 49.5973C57.9264 48.7118 58.579 48.0077 59.4349 47.805C60.109 47.645 60.8044 47.5383 61.4891 47.4956C62.3771 47.4423 63.2009 47.933 63.5861 48.7438C64.228 50.0561 64.9127 51.3149 65.6189 51.603C65.6189 51.603 65.6403 51.603 65.6617 51.6243C66.432 51.891 68.0903 51.2616 68.989 50.9309C69.8128 50.6215 70.7543 50.8348 71.3534 51.4856C71.8242 51.9977 72.2521 52.5311 72.6373 53.1179C73.1401 53.8753 73.1401 54.8568 72.6373 55.6036C71.8349 56.8198 71.1074 58.036 71.225 58.7935C71.3427 59.5509 71.225 58.8148 71.225 58.8255C71.3855 59.6256 72.755 60.7778 73.5039 61.3965C74.1886 61.962 74.4775 62.8901 74.2207 63.7436C74.0281 64.4157 73.7714 65.0665 73.4611 65.6959C73.0652 66.496 72.2307 66.9868 71.3534 66.9121C69.9198 66.8161 68.4968 66.7841 67.9084 67.2428C67.9084 67.2428 67.8763 67.2641 67.8656 67.2748C67.3093 67.7762 67.0418 69.2164 66.8171 70.5287C66.678 71.4141 66.0254 72.1182 65.1695 72.3209C64.8165 72.3956 64.4634 72.4703 64.1103 72.5236V72.5343ZM59.3066 67.9256C60.1411 68.299 60.8258 69.4191 61.6389 71.0941C61.9064 71.6488 62.4734 71.9902 63.0725 71.9582C63.7359 71.9155 64.3778 71.8195 65.0197 71.6702C65.6082 71.5315 66.0575 71.0407 66.1538 70.4326C66.3999 68.8964 66.7101 67.3281 67.4805 66.7094C67.5019 66.7094 67.5233 66.6774 67.5447 66.6667C68.2829 66.1226 69.5774 66.1013 71.4069 66.2293C72.0168 66.2826 72.5838 65.9413 72.8513 65.3972C73.1401 64.7997 73.3862 64.181 73.5681 63.5515C73.7393 62.9648 73.536 62.3247 73.0652 61.9406C71.867 60.9378 70.6794 59.8923 70.5403 58.9001C70.4012 57.908 70.5403 58.8681 70.5403 58.8468C70.4333 57.9293 71.0539 56.7665 72.081 55.2302C72.4233 54.7075 72.4233 54.0354 72.081 53.5126C71.7172 52.9579 71.3106 52.4564 70.872 51.9764C70.444 51.5283 69.8128 51.3789 69.2458 51.603C67.8014 52.1577 66.3036 52.6485 65.3835 52.2751C65.3621 52.2751 65.3514 52.2537 65.33 52.2431C64.4955 51.8697 63.8108 50.7495 62.9977 49.0746C62.7302 48.5198 62.1631 48.1784 61.564 48.2104C60.9007 48.2531 60.2588 48.3491 59.6168 48.4985C59.0284 48.6372 58.579 49.1279 58.4827 49.736C58.2367 51.2722 57.9264 52.8405 57.1561 53.4593C57.1347 53.4593 57.1133 53.4913 57.0919 53.5019C56.3537 54.046 55.0591 54.0674 53.2296 53.9393C52.6198 53.886 52.0528 54.2274 51.7853 54.7715C51.4964 55.3689 51.2503 55.9877 51.0685 56.6278C50.8973 57.2145 51.1006 57.8546 51.5713 58.2387C52.7696 59.2415 53.9571 60.287 54.0962 61.2792V61.3325C54.2032 62.25 53.5827 63.4129 52.5556 64.9491C52.2132 65.4718 52.2239 66.144 52.5556 66.6667C52.9194 67.2215 53.3259 67.7229 53.7646 68.203C54.1925 68.6404 54.8238 68.8004 55.3908 68.5763C56.8351 68.0216 58.333 67.5308 59.2531 67.9042C59.2745 67.9042 59.2852 67.9042 59.3066 67.9256Z" fill="#472C27"/>
<path d="M62.987 64.6824C60.4727 65.0451 58.1297 63.2742 57.7659 60.7351C57.3915 58.196 59.1354 55.8383 61.6389 55.4756C64.1531 55.1129 66.4962 56.8838 66.8599 59.4229C67.2237 61.962 65.4905 64.3197 62.987 64.6824ZM61.7459 56.1477C59.6061 56.4571 58.1297 58.4627 58.4507 60.6284C58.7609 62.7941 60.7509 64.2983 62.8907 63.9889C65.0304 63.6796 66.5069 61.6739 66.1859 59.5082C65.8756 57.3426 63.8857 55.8383 61.7459 56.1477Z" fill="#472C27"/>
</g>
<path d="M156.784 14.8716C156.784 20.0031 149.701 30.7995 149.701 30.7995C149.701 30.7995 142.618 20.0138 142.618 14.8716C142.618 9.72948 145.785 7.68115 149.701 7.68115C153.617 7.68115 156.784 10.903 156.784 14.8716Z" fill="#F09947"/>
<path d="M149.712 31.1836C149.583 31.1836 149.466 31.1196 149.401 31.0129C149.102 30.5755 142.265 20.0672 142.265 14.8717C142.265 9.67616 145.603 7.29712 149.712 7.29712C153.82 7.29712 157.158 10.6897 157.158 14.8717C157.158 19.0537 150.321 30.5648 150.022 31.0129C149.958 31.1196 149.84 31.1836 149.712 31.1836ZM149.712 8.05457C146.021 8.05457 143.014 11.1057 143.014 14.8717C143.014 19.2244 148.342 27.9404 149.712 30.0954C151.081 27.9404 156.409 19.2244 156.409 14.8717C156.409 11.1164 153.403 8.06524 149.712 8.05457Z" fill="#472C27"/>
<path d="M149.712 18.979C151.948 18.979 153.756 17.1441 153.756 14.8717C153.756 12.5994 151.948 10.7644 149.712 10.7644C147.476 10.7644 145.667 12.5994 145.667 14.8717C145.667 17.1441 147.476 18.979 149.712 18.979Z" fill="#FEF8EE"/>
<path d="M149.712 19.3631C147.272 19.3631 145.293 17.3468 145.293 14.8718C145.293 12.3967 147.272 10.3804 149.712 10.3804C152.151 10.3804 154.13 12.3967 154.13 14.8718C154.13 17.3468 152.151 19.3631 149.712 19.3631ZM149.712 11.1485C147.679 11.1485 146.053 12.8128 146.053 14.8824C146.053 16.9521 147.7 18.6164 149.712 18.6164C151.723 18.6164 153.371 16.9521 153.371 14.8824C153.371 12.8128 151.723 11.1592 149.712 11.1485Z" fill="#472C27"/>
<mask id="mask1_543_5730" style="mask-type:luminance" maskUnits="userSpaceOnUse" x="170" y="68" width="114" height="159">
<path d="M273.337 68.0002H180.524C175.057 68.0002 170.628 72.609 170.628 78.2952V109.169L178.844 115.122L188.142 121.844L197.439 128.565L216.044 142.017L225.342 148.738C225.342 148.738 225.374 148.77 225.384 148.781C225.384 148.781 225.416 148.824 225.427 148.845C225.427 148.845 225.449 148.877 225.459 148.898V148.92C225.459 148.92 225.459 148.962 225.481 148.984V149.059V155.822C225.481 155.908 225.449 156.004 225.395 156.068C225.331 156.153 225.224 156.217 225.106 156.228H222.271V226.436H273.304C278.772 226.436 283.201 221.827 283.201 216.141V78.2952C283.201 72.609 278.772 68.0002 273.304 68.0002H273.337Z" fill="white"/>
</mask>
<g mask="url(#mask1_543_5730)">
<path d="M352.412 219.758H192.539C192.368 219.758 192.218 219.694 192.111 219.587C192.004 219.48 191.94 219.31 191.94 219.16V96.2074C191.94 96.0367 192.004 95.8874 192.111 95.7807C192.218 95.674 192.389 95.61 192.539 95.61H223.501V85.0056C223.501 84.8349 223.566 84.6856 223.673 84.5789C223.79 84.4615 223.951 84.4082 224.101 84.4082H268.019C268.19 84.4082 268.34 84.4722 268.447 84.5789C268.565 84.6962 268.618 84.8563 268.618 85.0056V149.315H352.379C352.551 149.315 352.7 149.379 352.807 149.485C352.925 149.603 352.979 149.763 352.979 149.912V219.15C352.979 219.32 352.914 219.47 352.807 219.576C352.69 219.694 352.529 219.747 352.379 219.747H352.401L352.412 219.758ZM193.16 218.52H351.791V150.509H268.03C267.859 150.509 267.709 150.445 267.602 150.339C267.484 150.221 267.431 150.061 267.431 149.912V85.6031H224.753V96.2074C224.753 96.3781 224.689 96.5275 224.582 96.6342C224.475 96.7408 224.304 96.8048 224.154 96.8048H193.192V218.531H193.17L193.16 218.52ZM259.246 206.07H246.729C246.557 206.07 246.408 206.006 246.301 205.9C246.183 205.782 246.129 205.622 246.129 205.473V187.817C246.129 187.646 246.194 187.497 246.301 187.39C246.418 187.273 246.579 187.219 246.729 187.219H259.246C259.417 187.219 259.567 187.283 259.674 187.39C259.792 187.507 259.845 187.667 259.845 187.817V205.473C259.845 205.644 259.781 205.793 259.674 205.9C259.556 206.017 259.396 206.07 259.246 206.07ZM247.338 204.843H258.636V188.403H247.338V204.843ZM236.95 206.07H224.432C224.261 206.07 224.111 206.006 224.004 205.9C223.887 205.782 223.833 205.622 223.833 205.473V187.817C223.833 187.646 223.897 187.497 224.004 187.39C224.122 187.273 224.282 187.219 224.432 187.219H236.95C237.121 187.219 237.271 187.283 237.378 187.39C237.495 187.507 237.549 187.667 237.549 187.817V205.473C237.549 205.644 237.485 205.793 237.378 205.9C237.26 206.017 237.1 206.07 236.95 206.07ZM225.042 204.843H236.34V188.403H225.042V204.843ZM214.653 206.07H202.136C201.965 206.07 201.815 206.006 201.708 205.9C201.601 205.793 201.537 205.622 201.537 205.473V187.817C201.537 187.646 201.601 187.497 201.708 187.39C201.826 187.273 201.986 187.219 202.136 187.219H214.653C214.825 187.219 214.974 187.283 215.081 187.39C215.199 187.507 215.253 187.667 215.253 187.817V205.473C215.253 205.644 215.188 205.793 215.081 205.9C214.964 206.017 214.803 206.07 214.653 206.07ZM202.746 204.843H214.044V188.403H202.746V204.843ZM259.246 178.461H246.729C246.557 178.461 246.408 178.397 246.301 178.29C246.183 178.172 246.129 178.012 246.129 177.863V160.196C246.129 160.026 246.194 159.876 246.301 159.77C246.408 159.663 246.579 159.599 246.729 159.599H259.246C259.417 159.599 259.567 159.663 259.674 159.77C259.792 159.887 259.845 160.047 259.845 160.196V177.863C259.845 177.938 259.824 178.023 259.803 178.098C259.781 178.172 259.728 178.237 259.674 178.301C259.621 178.365 259.546 178.407 259.471 178.429C259.396 178.45 259.31 178.471 259.235 178.471L259.246 178.461ZM247.338 177.234H258.636V160.794H247.338V177.234ZM236.95 178.461H224.432C224.261 178.461 224.111 178.397 224.004 178.29C223.887 178.172 223.833 178.012 223.833 177.863V160.196C223.833 160.026 223.897 159.876 224.004 159.77C224.111 159.663 224.282 159.599 224.432 159.599H236.95C237.121 159.599 237.271 159.663 237.378 159.77C237.495 159.887 237.549 160.047 237.549 160.196V177.863C237.549 178.034 237.485 178.183 237.378 178.29C237.271 178.397 237.1 178.461 236.95 178.461ZM225.042 177.234H236.34V160.794H225.042V177.234ZM214.653 178.461H202.136C201.965 178.461 201.815 178.397 201.708 178.29C201.601 178.183 201.537 178.012 201.537 177.863V160.196C201.537 160.026 201.601 159.876 201.708 159.77C201.815 159.663 201.986 159.599 202.136 159.599H214.653C214.825 159.599 214.974 159.663 215.081 159.77C215.199 159.887 215.253 160.047 215.253 160.196V177.863C215.253 178.034 215.188 178.183 215.081 178.29C214.974 178.397 214.803 178.461 214.653 178.461ZM202.746 177.234H214.044V160.794H202.746V177.234ZM343.532 178.247H313.949C313.778 178.247 313.628 178.183 313.521 178.076C313.404 177.959 313.35 177.799 313.35 177.65V159.962C313.35 159.791 313.414 159.642 313.521 159.535C313.628 159.428 313.799 159.364 313.949 159.364H343.532C343.703 159.364 343.853 159.428 343.96 159.535C344.077 159.652 344.131 159.812 344.131 159.962V177.628C344.131 177.703 344.131 177.799 344.099 177.874C344.066 177.948 344.024 178.023 343.97 178.087C343.906 178.151 343.842 178.194 343.767 178.226C343.692 178.258 343.606 178.279 343.532 178.279V178.258V178.247ZM314.559 177.02H342.911V160.559H314.559V177.02ZM305.85 178.247H276.343C276.172 178.247 276.022 178.183 275.915 178.076C275.797 177.959 275.744 177.799 275.744 177.65V159.962C275.744 159.791 275.808 159.642 275.915 159.535C276.022 159.428 276.193 159.364 276.343 159.364H305.893C306.064 159.364 306.214 159.428 306.321 159.535C306.439 159.652 306.492 159.812 306.492 159.962V177.628C306.492 177.703 306.492 177.799 306.449 177.874C306.428 177.948 306.375 178.023 306.321 178.087C306.257 178.151 306.193 178.194 306.118 178.226C306.043 178.258 305.957 178.269 305.872 178.269H305.829H305.85V178.247ZM276.921 177.02H305.23V160.559H276.963L276.91 177.02H276.921ZM259.203 150.851H246.718C246.547 150.851 246.397 150.787 246.29 150.68C246.172 150.563 246.119 150.403 246.119 150.253V132.587C246.119 132.416 246.183 132.266 246.29 132.16C246.397 132.053 246.568 131.989 246.718 131.989H259.235C259.407 131.989 259.556 132.053 259.663 132.16C259.781 132.277 259.835 132.437 259.835 132.587V150.253C259.835 150.328 259.813 150.413 259.792 150.488C259.77 150.563 259.717 150.627 259.663 150.691C259.61 150.755 259.535 150.797 259.46 150.819C259.385 150.84 259.3 150.861 259.225 150.861H259.182H259.203V150.851ZM247.296 149.624H258.594V133.184H247.349L247.306 149.624H247.296ZM236.907 150.851H224.422C224.25 150.851 224.101 150.787 223.994 150.68C223.876 150.563 223.822 150.403 223.822 150.253V132.587C223.822 132.416 223.887 132.266 223.994 132.16C224.101 132.053 224.272 131.989 224.422 131.989H236.939C237.11 131.989 237.26 132.053 237.367 132.16C237.474 132.266 237.538 132.437 237.538 132.587V150.253C237.538 150.424 237.474 150.573 237.367 150.68C237.26 150.787 237.089 150.851 236.939 150.851H236.896H236.907ZM224.999 149.624H236.329V133.184H225.031L224.989 149.624H224.999ZM214.611 150.851H202.125C201.954 150.851 201.804 150.787 201.697 150.68C201.59 150.573 201.526 150.403 201.526 150.253V132.587C201.526 132.416 201.59 132.266 201.697 132.16C201.804 132.053 201.975 131.989 202.125 131.989H214.643C214.814 131.989 214.964 132.053 215.071 132.16C215.178 132.266 215.242 132.437 215.242 132.587V150.253C215.242 150.424 215.178 150.573 215.071 150.68C214.964 150.787 214.793 150.851 214.643 150.851H214.6H214.611ZM202.703 149.624H214.033V133.184H202.735L202.692 149.624H202.703ZM259.203 123.241H246.718C246.547 123.241 246.397 123.177 246.29 123.07C246.183 122.964 246.119 122.793 246.119 122.644V104.987C246.119 104.817 246.183 104.667 246.29 104.561C246.397 104.454 246.568 104.39 246.718 104.39H259.235C259.407 104.39 259.556 104.454 259.663 104.561C259.781 104.678 259.835 104.838 259.835 104.987V122.644C259.835 122.718 259.813 122.804 259.792 122.878C259.77 122.953 259.717 123.017 259.663 123.081C259.61 123.145 259.535 123.188 259.46 123.209C259.385 123.241 259.3 123.252 259.225 123.252H259.182H259.203V123.241ZM247.296 122.014H258.594V105.574H247.349L247.306 122.014H247.296ZM236.907 123.241H224.422C224.25 123.241 224.101 123.177 223.994 123.07C223.876 122.953 223.822 122.793 223.822 122.644V104.987C223.822 104.817 223.887 104.667 223.994 104.561C224.101 104.454 224.272 104.39 224.422 104.39H236.939C237.11 104.39 237.26 104.454 237.367 104.561C237.474 104.667 237.538 104.838 237.538 104.987V122.644C237.538 122.814 237.474 122.964 237.367 123.07C237.26 123.177 237.089 123.241 236.939 123.241H236.896H236.907ZM224.999 122.014H236.329V105.574H225.031L224.989 122.014H224.999ZM214.611 123.241H202.125C201.954 123.241 201.804 123.177 201.697 123.07C201.59 122.964 201.526 122.793 201.526 122.644V104.987C201.526 104.817 201.59 104.667 201.697 104.561C201.804 104.454 201.975 104.39 202.125 104.39H214.643C214.814 104.39 214.964 104.454 215.071 104.561C215.178 104.667 215.242 104.838 215.242 104.987V122.644C215.242 122.814 215.178 122.964 215.071 123.07C214.964 123.177 214.793 123.241 214.643 123.241H214.6H214.611ZM202.703 122.014H214.033V105.574H202.735L202.692 122.014H202.703Z" fill="#F09947"/>
</g>
</g>
<defs>
<clipPath id="clip0_543_5730">
<rect width="346" height="234" fill="white" transform="translate(7)"/>
</clipPath>
</defs>
</svg>
