<svg width="100" height="24" viewBox="0 0 100 24" fill="none" xmlns="http://www.w3.org/2000/svg">
<g clip-path="url(#clip0_93_4900)">
<path d="M0 0V4.00983H7.19226V23.5283H12.0332V4.00983H19.2255V0H0Z" fill="#EC7C23"/>
<path d="M22.0709 13.2479H29.6979C29.5596 11.1054 28.1369 9.63121 26.0622 9.63121C23.6319 9.63121 22.4661 11.0464 22.0709 13.2479ZM17.5264 15.0563C17.5264 10.0636 20.9644 6.19141 25.9832 6.19141C31.4959 6.19141 34.44 10.3388 34.44 16.3536H22.0116C22.3475 18.9482 23.8097 20.56 26.3981 20.56C28.1567 20.56 29.2039 19.7737 29.6979 18.4764H34.1832C33.5509 21.4641 30.8439 23.9998 26.4179 23.9998C20.7273 23.9998 17.5264 20.0882 17.5264 15.0563Z" fill="#EC7C23"/>
<path d="M40.7825 9.33664H40.8813C41.9087 7.43001 43.0943 6.44721 45.0899 6.44721C45.4456 6.42755 45.821 6.46687 46.1569 6.5848V10.4963H46.0581C43.0745 10.2015 40.9406 11.7347 40.9406 15.2924V23.5283H36.396V6.64377H40.7825V9.33664Z" fill="#EC7C23"/>
<path d="M52.8945 9.33664H52.9933C54.0208 7.43001 55.2063 6.44721 57.202 6.44721C57.5576 6.42755 57.9331 6.46687 58.269 6.5848V10.4963H58.1702C55.2063 10.2015 53.0526 11.7347 53.0526 15.2924V23.5283H48.4883V6.64377H52.8748V9.33664H52.8945Z" fill="#EC7C23"/>
<path d="M63.8214 13.2479H71.4484C71.3101 11.1054 69.8874 9.63121 67.8127 9.63121C65.3824 9.63121 64.2166 11.0464 63.8214 13.2479ZM59.2769 15.0563C59.2769 10.0636 62.7149 6.19141 67.7337 6.19141C73.2464 6.19141 76.1905 10.3388 76.1905 16.3536H63.7621C64.098 18.9482 65.58 20.56 68.1486 20.56C69.9072 20.56 70.9544 19.7737 71.4681 18.4764H75.9534C75.3211 21.4641 72.6141 23.9998 68.1881 23.9998C62.4778 23.9998 59.2769 20.0882 59.2769 15.0563Z" fill="#EC7C23"/>
<path d="M77.5933 18.044H81.8019C82.0983 19.9899 83.5012 20.8548 85.5364 20.8548C87.5715 20.8548 88.678 20.0882 88.678 18.9089C88.678 17.2971 86.5045 17.1202 84.1532 16.6681C81.0708 16.0784 78.0675 15.2528 78.0675 11.5772C78.0675 7.90148 81.1499 6.19141 85.0621 6.19141C89.5672 6.19141 92.0766 8.39288 92.4125 11.7737H88.3224C88.1248 9.96536 86.959 9.31671 85.0226 9.31671C83.2641 9.31671 82.0785 9.96536 82.0785 11.184C82.0785 12.6386 84.3508 12.7565 86.8009 13.2676C89.6857 13.8573 92.8472 14.6435 92.8472 18.5944C92.8472 21.9752 89.9031 24.0194 85.6351 24.0194C80.6361 23.9998 77.8501 21.6214 77.5933 18.044Z" fill="#EC7C23"/>
<path d="M97.4118 18.4177C97.9255 18.4374 98.4393 18.5947 98.8542 18.8895C99.2889 19.1843 99.605 19.5971 99.8026 20.0689C100 20.5406 100.04 21.0713 99.9212 21.5627C99.8224 22.0541 99.5655 22.5259 99.1901 22.8797C98.8147 23.2335 98.3405 23.489 97.8267 23.5873C97.313 23.6856 96.7795 23.6266 96.3053 23.43C95.8311 23.2335 95.4161 22.8993 95.1198 22.4669C94.8234 22.0345 94.6851 21.5431 94.6851 21.032C94.6851 20.6782 94.7443 20.344 94.8826 20.0099C95.021 19.6954 95.2186 19.4005 95.4754 19.145C95.7323 18.9091 96.0287 18.7126 96.3646 18.5947C96.7005 18.4571 97.0561 18.3981 97.4118 18.4177Z" fill="#EC7C23"/>
</g>
<defs>
<clipPath id="clip0_93_4900">
<rect width="100" height="24" fill="white"/>
</clipPath>
</defs>
</svg>
