<svg width="25" height="24" viewBox="0 0 25 24" fill="none" xmlns="http://www.w3.org/2000/svg">
<path fill-rule="evenodd" clip-rule="evenodd" d="M12.9932 3.99997C8.82193 3.99997 5.44042 7.35566 5.44042 11.4951C5.44042 12.6932 5.72297 13.823 6.22462 14.825C6.34314 15.0618 6.36239 15.3354 6.27815 15.5862L4.99954 19.3926L8.874 18.1529C9.12452 18.0727 9.3967 18.093 9.63234 18.2094C10.6434 18.7089 11.7838 18.9903 12.9932 18.9903C17.1645 18.9903 20.546 15.6346 20.546 11.4951C20.546 7.35566 17.1645 3.99997 12.9932 3.99997ZM3.42504 11.4951C3.42504 6.25109 7.70887 1.99997 12.9932 1.99997C18.2776 1.99997 22.5614 6.25109 22.5614 11.4951C22.5614 16.7392 18.2776 20.9903 12.9932 20.9903C11.6142 20.9903 10.301 20.7001 9.11435 20.1774L3.72322 21.9025C3.36165 22.0182 2.96524 21.9222 2.69793 21.6543C2.43062 21.3864 2.33785 20.9921 2.45799 20.6345L4.23893 15.3326C3.71545 14.1581 3.42504 12.8591 3.42504 11.4951Z" fill="#40180A"/>
</svg>
