<svg width="25" height="24" viewBox="0 0 25 24" fill="none" xmlns="http://www.w3.org/2000/svg">
<path fill-rule="evenodd" clip-rule="evenodd" d="M12.9934 4C8.82212 4 5.44061 7.35569 5.44061 11.4952C5.44061 12.6933 5.72315 13.823 6.22481 14.8251C6.34333 15.0618 6.36257 15.3355 6.27833 15.5862L4.99972 19.3927L8.87419 18.1529C9.12471 18.0727 9.39689 18.093 9.63252 18.2094C10.6436 18.7089 11.7839 18.9903 12.9934 18.9903C17.1647 18.9903 20.5462 15.6346 20.5462 11.4952C20.5462 7.35569 17.1647 4 12.9934 4ZM3.42522 11.4952C3.42522 6.25113 7.70905 2 12.9934 2C18.2778 2 22.5616 6.25113 22.5616 11.4952C22.5616 16.7392 18.2778 20.9903 12.9934 20.9903C11.6143 20.9903 10.3012 20.7002 9.11453 20.1774L3.7234 21.9025C3.36183 22.0182 2.96542 21.9223 2.69811 21.6544C2.4308 21.3865 2.33803 20.9922 2.45817 20.6345L4.23911 15.3326C3.71563 14.1581 3.42522 12.8591 3.42522 11.4952Z" fill="#40180A"/>
</svg>
