<svg width="32" height="32" viewBox="0 0 32 32" fill="none" xmlns="http://www.w3.org/2000/svg">
<path fill-rule="evenodd" clip-rule="evenodd" d="M16 2.66675C12.3181 2.66675 9.33333 5.65152 9.33333 9.33342C9.33333 13.0153 12.3181 16.0001 16 16.0001C19.6819 16.0001 22.6667 13.0153 22.6667 9.33342C22.6667 5.65152 19.6819 2.66675 16 2.66675ZM12 9.33342C12 7.12428 13.7909 5.33341 16 5.33341C18.2091 5.33341 20 7.12428 20 9.33342C20 11.5426 18.2091 13.3334 16 13.3334C13.7909 13.3334 12 11.5426 12 9.33342Z" fill="#40180A"/>
<path d="M10.6667 18.6667C8.89856 18.6667 7.20286 19.3691 5.95262 20.6194C4.70238 21.8696 4 23.5653 4 25.3334V28.0001C4 28.7365 4.59695 29.3334 5.33333 29.3334C6.06971 29.3334 6.66667 28.7365 6.66667 28.0001V25.3334C6.66667 24.2725 7.08809 23.2551 7.83824 22.505C8.58839 21.7548 9.6058 21.3334 10.6667 21.3334H21.3333C22.3942 21.3334 23.4116 21.7548 24.1618 22.505C24.9119 23.2551 25.3333 24.2726 25.3333 25.3334V28.0001C25.3333 28.7365 25.9303 29.3334 26.6667 29.3334C27.403 29.3334 28 28.7365 28 28.0001V25.3334C28 23.5653 27.2976 21.8696 26.0474 20.6194C24.7971 19.3691 23.1014 18.6667 21.3333 18.6667H10.6667Z" fill="#40180A"/>
</svg>
