<svg width="25" height="24" viewBox="0 0 25 24" fill="none" xmlns="http://www.w3.org/2000/svg">
<path fill-rule="evenodd" clip-rule="evenodd" d="M12.4774 2C9.69477 2 7.43897 4.23858 7.43897 7C7.43897 9.76142 9.69477 12 12.4774 12C15.2601 12 17.5159 9.76142 17.5159 7C17.5159 4.23858 15.2601 2 12.4774 2ZM9.45436 7C9.45436 5.34315 10.8078 4 12.4774 4C14.147 4 15.5005 5.34315 15.5005 7C15.5005 8.65685 14.147 10 12.4774 10C10.8078 10 9.45436 8.65685 9.45436 7Z" fill="#40180A"/>
<path d="M8.44667 14C7.11038 14 5.82883 14.5268 4.88394 15.4645C3.93904 16.4021 3.4082 17.6739 3.4082 19V21C3.4082 21.5523 3.85936 22 4.4159 22C4.97243 22 5.42359 21.5523 5.42359 21V19C5.42359 18.2043 5.74209 17.4413 6.30903 16.8787C6.87597 16.3161 7.6449 16 8.44667 16H16.5082C17.31 16 18.0789 16.3161 18.6459 16.8787C19.2128 17.4413 19.5313 18.2044 19.5313 19V21C19.5313 21.5523 19.9825 22 20.539 22C21.0955 22 21.5467 21.5523 21.5467 21V19C21.5467 17.6739 21.0158 16.4021 20.0709 15.4645C19.126 14.5268 17.8445 14 16.5082 14H8.44667Z" fill="#40180A"/>
</svg>
