<svg width="32" height="32" viewBox="0 0 32 32" fill="none" xmlns="http://www.w3.org/2000/svg">
<path fill-rule="evenodd" clip-rule="evenodd" d="M16.8185 1.72403C16.3371 1.35241 15.6629 1.35241 15.1814 1.72403L3.18137 10.9861C2.85659 11.2368 2.66663 11.6222 2.66663 12.0306V26.5853C2.66663 27.638 3.08805 28.6477 3.8382 29.3921C4.58834 30.1365 5.60576 30.5547 6.66663 30.5547H25.3333C26.3942 30.5547 27.4116 30.1365 28.1617 29.3921C28.9119 28.6477 29.3333 27.638 29.3333 26.5853V12.0306C29.3333 11.6222 29.1433 11.2368 28.8185 10.9861L16.8185 1.72403ZM21.3333 27.9084H25.3333C25.6869 27.9084 26.0261 27.769 26.2761 27.5209C26.5262 27.2727 26.6666 26.9362 26.6666 26.5853V12.6777L16 4.44472L5.33329 12.6777V26.5853C5.33329 26.9362 5.47377 27.2727 5.72382 27.5209C5.97387 27.769 6.313 27.9084 6.66663 27.9084H10.6666V16C10.6666 15.2693 11.2636 14.6769 12 14.6769H20C20.7363 14.6769 21.3333 15.2693 21.3333 16V27.9084ZM13.3333 27.9084V17.3232H18.6666V27.9084H13.3333Z" fill="#FEF8EE"/>
</svg>
