<svg width="46" height="46" viewBox="0 0 46 46" fill="none" xmlns="http://www.w3.org/2000/svg">
<path fill-rule="evenodd" clip-rule="evenodd" d="M26.4389 6.3153C25.3568 5.94828 24.1995 5.75 23 5.75C17.5442 5.75 12.9609 9.85228 12.3584 15.2747L11.8757 19.6182L11.8634 19.7288C11.6162 21.8826 10.9152 23.9593 9.80652 25.8223L9.74942 25.9175L8.64151 27.7641C7.63613 29.4398 7.13342 30.2776 7.24194 30.9655C7.31416 31.423 7.5497 31.8391 7.90498 32.1364C8.4389 32.5833 9.41598 32.5833 11.3701 32.5833H34.63C36.584 32.5833 37.5611 32.5833 38.0949 32.1364C38.4503 31.8391 38.6858 31.423 38.7581 30.9655C38.8666 30.2776 38.3638 29.4398 37.3585 27.7641L36.2505 25.9175L36.1934 25.8223C35.319 24.353 34.6982 22.7505 34.3536 21.0822C29.1284 21.004 24.9167 16.7438 24.9167 11.5C24.9167 9.58968 25.4756 7.8099 26.4389 6.3153ZM31.1921 9.56192C32.5082 11.124 33.3891 13.0743 33.6371 15.2359C31.9355 14.8445 30.6667 13.3204 30.6667 11.5C30.6667 10.7929 30.8582 10.1306 31.1921 9.56192Z" fill="#40180A"/>
<path d="M17.25 32.5834C17.25 33.3385 17.3987 34.0862 17.6877 34.7839C17.9767 35.4814 18.4002 36.1152 18.9341 36.6492C19.4682 37.1832 20.102 37.6068 20.7995 37.8956C21.4971 38.1846 22.2448 38.3334 23 38.3334C23.7552 38.3334 24.5029 38.1846 25.2005 37.8956C25.898 37.6068 26.5318 37.1832 27.0658 36.6492C27.5998 36.1152 28.0234 35.4814 28.3122 34.7839C28.6013 34.0862 28.75 33.3385 28.75 32.5834H23H17.25Z" fill="#40180A"/>
<path d="M34.5 16.2917C37.1464 16.2917 39.2917 14.1464 39.2917 11.5C39.2917 8.85368 37.1464 6.70837 34.5 6.70837C31.8537 6.70837 29.7084 8.85368 29.7084 11.5C29.7084 14.1464 31.8537 16.2917 34.5 16.2917Z" fill="#EC7C23" stroke="#EC7C23"/>
</svg>
