<svg width="28" height="28" viewBox="0 0 28 28" fill="none" xmlns="http://www.w3.org/2000/svg">
<path fill-rule="evenodd" clip-rule="evenodd" d="M14.2912 4.92305C9.56042 4.92305 5.72534 8.795 5.72534 13.5713C5.72534 14.9538 6.04578 16.2573 6.61472 17.4135C6.74914 17.6866 6.77097 18.0024 6.67543 18.2918L5.22531 22.6838L9.61947 21.2533C9.90359 21.1608 10.2123 21.1842 10.4795 21.3186C11.6262 21.8949 12.9195 22.2196 14.2912 22.2196C19.022 22.2196 22.8571 18.3476 22.8571 13.5713C22.8571 8.795 19.022 4.92305 14.2912 4.92305ZM3.43962 13.5713C3.43962 7.5205 8.29805 2.61536 14.2912 2.61536C20.2844 2.61536 25.1428 7.5205 25.1428 13.5713C25.1428 19.6221 20.2844 24.5273 14.2912 24.5273C12.7272 24.5273 11.2379 24.1925 9.89205 23.5893L3.7778 25.5798C3.36773 25.7133 2.91814 25.6026 2.61498 25.2935C2.31182 24.9844 2.20661 24.5294 2.34286 24.1167L4.36268 17.9992C3.76899 16.6439 3.43962 15.1451 3.43962 13.5713Z" fill="#534340"/>
</svg>
