<svg width="25" height="24" viewBox="0 0 25 24" fill="none" xmlns="http://www.w3.org/2000/svg">
<path fill-rule="evenodd" clip-rule="evenodd" d="M13.1418 1.21065C12.7779 0.929784 12.2683 0.929784 11.9044 1.21065L2.8352 8.21065C2.58974 8.4001 2.44617 8.69141 2.44617 9V20C2.44617 20.7957 2.76467 21.5587 3.33161 22.1213C3.89854 22.6839 4.66747 23 5.46924 23H19.5769C20.3787 23 21.1476 22.6839 21.7146 22.1213C22.2815 21.5587 22.6 20.7957 22.6 20V9C22.6 8.69141 22.4564 8.4001 22.211 8.21065L13.1418 1.21065ZM16.5539 21H19.5769C19.8442 21 20.1005 20.8946 20.2895 20.7071C20.4785 20.5196 20.5846 20.2652 20.5846 20V9.48908L12.5231 3.26686L4.46155 9.48908V20C4.46155 20.2652 4.56772 20.5196 4.7567 20.7071C4.94568 20.8946 5.20199 21 5.46924 21H8.49232V12C8.49232 11.4477 8.94348 11 9.50001 11H15.5462C16.1027 11 16.5539 11.4477 16.5539 12V21ZM10.5077 21V13H14.5385V21H10.5077Z" fill="#40180A"/>
</svg>
