<svg width="25" height="24" viewBox="0 0 25 24" fill="none" xmlns="http://www.w3.org/2000/svg">
<path fill-rule="evenodd" clip-rule="evenodd" d="M12.477 2C9.69428 2 7.43849 4.23858 7.43849 7C7.43849 9.76142 9.69428 12 12.477 12C15.2596 12 17.5154 9.76142 17.5154 7C17.5154 4.23858 15.2596 2 12.477 2ZM9.45387 7C9.45387 5.34315 10.8074 4 12.477 4C14.1466 4 15.5 5.34315 15.5 7C15.5 8.65685 14.1466 10 12.477 10C10.8074 10 9.45387 8.65685 9.45387 7Z" fill="#40180A"/>
<path d="M8.44618 14C7.1099 14 5.82834 14.5268 4.88345 15.4645C3.93855 16.4021 3.40771 17.6739 3.40771 19V21C3.40771 21.5523 3.85887 22 4.41541 22C4.97194 22 5.4231 21.5523 5.4231 21V19C5.4231 18.2043 5.7416 17.4413 6.30854 16.8787C6.87548 16.3161 7.64441 16 8.44618 16H16.5077C17.3095 16 18.0784 16.3161 18.6454 16.8787C19.2123 17.4413 19.5308 18.2044 19.5308 19V21C19.5308 21.5523 19.982 22 20.5385 22C21.095 22 21.5462 21.5523 21.5462 21V19C21.5462 17.6739 21.0154 16.4021 20.0705 15.4645C19.1256 14.5268 17.844 14 16.5077 14H8.44618Z" fill="#40180A"/>
</svg>
