<svg width="32" height="32" viewBox="0 0 32 32" fill="none" xmlns="http://www.w3.org/2000/svg">
<path fill-rule="evenodd" clip-rule="evenodd" d="M16 2.66663C12.3181 2.66663 9.33333 5.65139 9.33333 9.33329C9.33333 13.0152 12.3181 16 16 16C19.6819 16 22.6667 13.0152 22.6667 9.33329C22.6667 5.65139 19.6819 2.66663 16 2.66663ZM12 9.33329C12 7.12415 13.7909 5.33329 16 5.33329C18.2091 5.33329 20 7.12415 20 9.33329C20 11.5424 18.2091 13.3333 16 13.3333C13.7909 13.3333 12 11.5424 12 9.33329Z" fill="#40180A"/>
<path d="M10.6667 18.6666C8.89856 18.6666 7.20286 19.369 5.95262 20.6192C4.70238 21.8695 4 23.5652 4 25.3333V28C4 28.7363 4.59695 29.3333 5.33333 29.3333C6.06971 29.3333 6.66667 28.7363 6.66667 28V25.3333C6.66667 24.2724 7.08809 23.255 7.83824 22.5049C8.58839 21.7547 9.6058 21.3333 10.6667 21.3333H21.3333C22.3942 21.3333 23.4116 21.7547 24.1618 22.5049C24.9119 23.255 25.3333 24.2724 25.3333 25.3333V28C25.3333 28.7363 25.9303 29.3333 26.6667 29.3333C27.403 29.3333 28 28.7363 28 28V25.3333C28 23.5652 27.2976 21.8695 26.0474 20.6192C24.7971 19.369 23.1014 18.6666 21.3333 18.6666H10.6667Z" fill="#40180A"/>
</svg>
