<svg width="46" height="46" viewBox="0 0 46 46" fill="none" xmlns="http://www.w3.org/2000/svg">
<path fill-rule="evenodd" clip-rule="evenodd" d="M26.4389 6.3153C25.3567 5.94828 24.1995 5.75 23 5.75C17.5442 5.75 12.9608 9.85228 12.3583 15.2747L11.8757 19.6182L11.8633 19.7288C11.6162 21.8826 10.9151 23.9593 9.80649 25.8223L9.74939 25.9175L8.64148 27.7641C7.6361 29.4398 7.13339 30.2776 7.24191 30.9655C7.31413 31.423 7.54967 31.8391 7.90495 32.1364C8.43887 32.5833 9.41595 32.5833 11.3701 32.5833H34.63C36.584 32.5833 37.5611 32.5833 38.0949 32.1364C38.4503 31.8391 38.6858 31.423 38.7581 30.9655C38.8665 30.2776 38.3638 29.4398 37.3585 27.7641L36.2505 25.9175L36.1934 25.8223C35.319 24.353 34.6982 22.7505 34.3536 21.0822C29.1283 21.004 24.9167 16.7438 24.9167 11.5C24.9167 9.58968 25.4756 7.8099 26.4389 6.3153ZM31.192 9.56192C32.5082 11.124 33.3891 13.0743 33.6371 15.2359C31.9355 14.8445 30.6667 13.3204 30.6667 11.5C30.6667 10.7929 30.8581 10.1306 31.192 9.56192Z" fill="black"/>
<path d="M17.25 32.5833C17.25 33.3384 17.3987 34.0861 17.6877 34.7838C17.9767 35.4813 18.4002 36.1151 18.9341 36.6491C19.4682 37.1831 20.102 37.6066 20.7995 37.8955C21.4971 38.1845 22.2448 38.3333 23 38.3333C23.7552 38.3333 24.5029 38.1845 25.2005 37.8955C25.898 37.6066 26.5318 37.1831 27.0658 36.6491C27.5998 36.1151 28.0234 35.4813 28.3122 34.7838C28.6013 34.0861 28.75 33.3384 28.75 32.5833H23H17.25Z" fill="black"/>
<path d="M34.5 16.2916C37.1464 16.2916 39.2917 14.1463 39.2917 11.4999C39.2917 8.85355 37.1464 6.70825 34.5 6.70825C31.8536 6.70825 29.7083 8.85355 29.7083 11.4999C29.7083 14.1463 31.8536 16.2916 34.5 16.2916Z" fill="#FF0000" stroke="#FF0000"/>
</svg>
