<svg width="25" height="24" viewBox="0 0 25 24" fill="none" xmlns="http://www.w3.org/2000/svg">
<path fill-rule="evenodd" clip-rule="evenodd" d="M13.1419 1.21065C12.778 0.929784 12.2684 0.929784 11.9045 1.21065L2.83532 8.21065C2.58986 8.4001 2.44629 8.69141 2.44629 9V20C2.44629 20.7957 2.76479 21.5587 3.33173 22.1213C3.89866 22.6839 4.6676 23 5.46937 23H19.5771C20.3788 23 21.1478 22.6839 21.7147 22.1213C22.2816 21.5587 22.6001 20.7957 22.6001 20V9C22.6001 8.69141 22.4566 8.4001 22.2111 8.21065L13.1419 1.21065ZM16.554 21H19.5771C19.8443 21 20.1006 20.8946 20.2896 20.7071C20.4786 20.5196 20.5848 20.2652 20.5848 20V9.48908L12.5232 3.26686L4.46167 9.48908V20C4.46167 20.2652 4.56784 20.5196 4.75682 20.7071C4.9458 20.8946 5.20211 21 5.46937 21H8.49244V12C8.49244 11.4477 8.9436 11 9.50014 11H15.5463C16.1028 11 16.554 11.4477 16.554 12V21ZM10.5078 21V13H14.5386V21H10.5078Z" fill="#40180A"/>
</svg>
