<svg width="31" height="30" viewBox="0 0 31 30" fill="none" xmlns="http://www.w3.org/2000/svg">
<path fill-rule="evenodd" clip-rule="evenodd" d="M16.2674 1.51331C15.816 1.16223 15.184 1.16223 14.7326 1.51331L3.48257 10.2633C3.17809 10.5001 3 10.8643 3 11.25V25C3 25.9946 3.39509 26.9484 4.09835 27.6517C4.80161 28.3549 5.75544 28.75 6.75 28.75H24.25C25.2446 28.75 26.1984 28.3549 26.9017 27.6517C27.6049 26.9484 28 25.9946 28 25V11.25C28 10.8643 27.8219 10.5001 27.5174 10.2633L16.2674 1.51331ZM20.5 26.25H24.25C24.5815 26.25 24.8995 26.1183 25.1339 25.8839C25.3683 25.6495 25.5 25.3315 25.5 25V11.8614L15.5 4.08358L5.5 11.8614V25C5.5 25.3315 5.6317 25.6495 5.86612 25.8839C6.10054 26.1183 6.41848 26.25 6.75 26.25H10.5V15C10.5 14.3096 11.0596 13.75 11.75 13.75H19.25C19.9404 13.75 20.5 14.3096 20.5 15V26.25ZM13 26.25V16.25H18V26.25H13Z" fill="#FEF8EE"/>
</svg>
