<svg width="28" height="28" viewBox="0 0 28 28" fill="none" xmlns="http://www.w3.org/2000/svg">
<path fill-rule="evenodd" clip-rule="evenodd" d="M14.2912 4.92293C9.56042 4.92293 5.72534 8.79488 5.72534 13.5712C5.72534 14.9536 6.04578 16.2572 6.61472 17.4134C6.74914 17.6865 6.77097 18.0023 6.67543 18.2917L5.22531 22.6837L9.61947 21.2532C9.90359 21.1607 10.2123 21.1841 10.4795 21.3184C11.6262 21.8948 12.9195 22.2194 14.2912 22.2194C19.022 22.2194 22.8571 18.3475 22.8571 13.5712C22.8571 8.79488 19.022 4.92293 14.2912 4.92293ZM3.43962 13.5712C3.43962 7.52038 8.29805 2.61523 14.2912 2.61523C20.2844 2.61523 25.1428 7.52038 25.1428 13.5712C25.1428 19.622 20.2844 24.5271 14.2912 24.5271C12.7272 24.5271 11.2379 24.1924 9.89205 23.5892L3.7778 25.5796C3.36773 25.7131 2.91814 25.6025 2.61498 25.2934C2.31182 24.9842 2.20661 24.5293 2.34286 24.1166L4.36268 17.999C3.76899 16.6438 3.43962 15.145 3.43962 13.5712Z" fill="#534340"/>
</svg>
