<svg width="32" height="32" viewBox="0 0 32 32" fill="none" xmlns="http://www.w3.org/2000/svg">
<path fill-rule="evenodd" clip-rule="evenodd" d="M16 2.66669C12.3181 2.66669 9.33333 5.65146 9.33333 9.33335C9.33333 13.0153 12.3181 16 16 16C19.6819 16 22.6667 13.0153 22.6667 9.33335C22.6667 5.65146 19.6819 2.66669 16 2.66669ZM12 9.33335C12 7.12421 13.7909 5.33335 16 5.33335C18.2091 5.33335 20 7.12421 20 9.33335C20 11.5425 18.2091 13.3334 16 13.3334C13.7909 13.3334 12 11.5425 12 9.33335Z" fill="#40180A"/>
<path d="M10.6667 18.6667C8.89856 18.6667 7.20286 19.3691 5.95262 20.6193C4.70238 21.8696 4 23.5652 4 25.3334V28C4 28.7364 4.59695 29.3334 5.33333 29.3334C6.06971 29.3334 6.66667 28.7364 6.66667 28V25.3334C6.66667 24.2725 7.08809 23.2551 7.83824 22.5049C8.58839 21.7548 9.6058 21.3334 10.6667 21.3334H21.3333C22.3942 21.3334 23.4116 21.7548 24.1618 22.5049C24.9119 23.2551 25.3333 24.2725 25.3333 25.3334V28C25.3333 28.7364 25.9303 29.3334 26.6667 29.3334C27.403 29.3334 28 28.7364 28 28V25.3334C28 23.5652 27.2976 21.8696 26.0474 20.6193C24.7971 19.3691 23.1014 18.6667 21.3333 18.6667H10.6667Z" fill="#40180A"/>
</svg>
