<svg width="46" height="46" viewBox="0 0 46 46" fill="none" xmlns="http://www.w3.org/2000/svg">
<path fill-rule="evenodd" clip-rule="evenodd" d="M26.4388 6.3153C25.3566 5.94828 24.1994 5.75 22.9999 5.75C17.5441 5.75 12.9607 9.85228 12.3582 15.2747L11.8756 19.6182L11.8633 19.7288C11.6161 21.8826 10.9151 23.9593 9.8064 25.8223L9.7493 25.9175L8.64139 27.7641C7.636 29.4398 7.1333 30.2776 7.24182 30.9655C7.31404 31.423 7.54958 31.8391 7.90486 32.1364C8.43878 32.5833 9.41586 32.5833 11.37 32.5833H34.6299C36.5839 32.5833 37.561 32.5833 38.0948 32.1364C38.4502 31.8391 38.6857 31.423 38.758 30.9655C38.8665 30.2776 38.3637 29.4398 37.3584 27.7641L36.2504 25.9175L36.1933 25.8223C35.3189 24.353 34.6981 22.7505 34.3535 21.0822C29.1283 21.004 24.9166 16.7438 24.9166 11.5C24.9166 9.58968 25.4755 7.8099 26.4388 6.3153ZM31.1919 9.56192C32.5081 11.124 33.389 13.0743 33.637 15.2359C31.9354 14.8445 30.6666 13.3204 30.6666 11.5C30.6666 10.7929 30.858 10.1306 31.1919 9.56192Z" fill="#40180A"/>
<path d="M17.25 32.5834C17.25 33.3385 17.3987 34.0862 17.6877 34.7839C17.9767 35.4814 18.4002 36.1152 18.9341 36.6492C19.4682 37.1832 20.102 37.6068 20.7995 37.8956C21.4971 38.1846 22.2448 38.3334 23 38.3334C23.7552 38.3334 24.5029 38.1846 25.2005 37.8956C25.898 37.6068 26.5318 37.1832 27.0658 36.6492C27.5998 36.1152 28.0234 35.4814 28.3122 34.7839C28.6013 34.0862 28.75 33.3385 28.75 32.5834H23H17.25Z" fill="#40180A"/>
<path d="M34.4999 16.2917C37.1463 16.2917 39.2916 14.1464 39.2916 11.5C39.2916 8.85368 37.1463 6.70837 34.4999 6.70837C31.8536 6.70837 29.7083 8.85368 29.7083 11.5C29.7083 14.1464 31.8536 16.2917 34.4999 16.2917Z" fill="#EC7C23" stroke="#EC7C23"/>
</svg>
