<svg width="21" height="20" viewBox="0 0 21 20" fill="none" xmlns="http://www.w3.org/2000/svg">
<path d="M13.3904 5.00002V13.75C13.3904 15.5917 11.9233 17.0834 10.112 17.0834C8.30072 17.0834 6.83364 15.5917 6.83364 13.75V5.00002C6.83364 3.85002 7.75159 2.91669 8.88264 2.91669C10.0137 2.91669 10.9316 3.85002 10.9316 5.00002V12.9167C10.9316 13.375 10.5628 13.75 10.112 13.75C9.66125 13.75 9.29243 13.375 9.29243 12.9167V5.00002H8.06304V12.9167C8.06304 14.0667 8.98099 15 10.112 15C11.2431 15 12.161 14.0667 12.161 12.9167V5.00002C12.161 3.15835 10.6939 1.66669 8.88264 1.66669C7.07133 1.66669 5.60425 3.15835 5.60425 5.00002V13.75C5.60425 16.2834 7.62046 18.3334 10.112 18.3334C12.6036 18.3334 14.6198 16.2834 14.6198 13.75V5.00002H13.3904Z" fill="#797676"/>
</svg>
