<svg width="28" height="28" viewBox="0 0 28 28" fill="none" xmlns="http://www.w3.org/2000/svg">
<path fill-rule="evenodd" clip-rule="evenodd" d="M4.16826 2.80005L2.62939 4.31381L22.4319 23.8L23.9708 22.2858L4.16826 2.80005Z" fill="#923C1A"/>
<path d="M5.88035 7.51287L7.32878 8.93814C5.74321 10.2666 4.48062 11.9202 3.66472 13.367L3.66224 13.3718C5.93451 17.1103 9.53994 20.6434 14.0905 20.1075C15.3188 19.9628 16.4646 19.5496 17.5115 18.9585L18.9779 20.4009C16.9371 21.6897 14.5978 22.3723 12.0631 22.0349C7.49276 21.4267 3.75565 17.7381 1.3999 13.4061C2.50598 11.2161 4.01901 9.121 5.88035 7.51287ZM9.17473 5.40065C10.4527 4.84032 11.8356 4.51078 13.3123 4.48731C13.3943 4.48682 14.3677 4.53229 14.809 4.60368C15.0857 4.64866 15.3615 4.70489 15.6333 4.77481C19.9687 5.88617 23.1805 9.49259 25.1999 13.2081C24.3527 14.8915 23.2432 16.5343 21.9199 17.942L20.5152 16.5597C21.4926 15.5232 22.3075 14.3693 22.9351 13.2501C22.9351 13.2501 22.304 12.2517 21.8255 11.6249C21.518 11.222 21.1945 10.8308 20.8546 10.4539C20.5863 10.1566 19.5443 9.14691 19.2964 8.93667C17.6328 7.52901 15.6795 6.42449 13.3367 6.44307C12.4294 6.45725 11.5568 6.63327 10.7285 6.92957L9.17473 5.40065Z" fill="#923C1A"/>
<path fill-rule="evenodd" clip-rule="evenodd" d="M9.82323 11.3933L10.9414 12.4931L15.2453 16.7282C14.6699 17.046 14.006 17.2269 13.3 17.2269C11.1012 17.2269 9.31641 15.4706 9.31641 13.307C9.31641 12.6123 9.50075 11.9595 9.82323 11.3933ZM13.2264 9.38819C13.2508 9.3877 13.2756 9.38721 13.3 9.38721C15.4987 9.38721 17.2835 11.144 17.2835 13.307C17.2835 13.3315 17.2835 13.3554 17.283 13.3794L13.2264 9.38819Z" fill="#923C1A"/>
</svg>
