<svg width="16" height="16" viewBox="0 0 16 16" fill="none" xmlns="http://www.w3.org/2000/svg">
<path d="M6.6665 10.3334C6.39317 10.3334 6.1665 10.56 6.1665 10.8334V11.8334C6.1665 12.1067 6.39317 12.3334 6.6665 12.3334C6.93984 12.3334 7.1665 12.1067 7.1665 11.8334V10.8334C7.1665 10.56 6.93984 10.3334 6.6665 10.3334Z" fill="white"/>
<path d="M14.6668 14.1667H14.0002V6.65335C14.0002 6.24002 13.8135 5.85335 13.4868 5.60002L8.82016 1.97335C8.34016 1.59335 7.66016 1.59335 7.18016 1.97335L2.5135 5.60002C2.18683 5.85335 2.00016 6.24002 2.00016 6.64669L1.96683 14.1667H1.3335C1.06016 14.1667 0.833496 14.3867 0.833496 14.6667C0.833496 14.94 1.06016 15.1667 1.3335 15.1667H14.6668C14.9402 15.1667 15.1668 14.94 15.1668 14.6667C15.1668 14.3867 14.9402 14.1667 14.6668 14.1667ZM7.00016 4.50002H9.00016C9.2735 4.50002 9.50016 4.72669 9.50016 5.00002C9.50016 5.27335 9.2735 5.50002 9.00016 5.50002H7.00016C6.72683 5.50002 6.50016 5.27335 6.50016 5.00002C6.50016 4.72669 6.72683 4.50002 7.00016 4.50002ZM11.3335 14.1667H4.66683V8.33335C4.66683 7.78002 5.1135 7.33335 5.66683 7.33335H10.3335C10.8868 7.33335 11.3335 7.78002 11.3335 8.33335V14.1667Z" fill="white"/>
</svg>
