<svg width="24" height="24" viewBox="0 0 24 24" fill="none" xmlns="http://www.w3.org/2000/svg">
<path fill-rule="evenodd" clip-rule="evenodd" d="M12.5049 4C8.36549 4 5.00979 7.35569 5.00979 11.4952C5.00979 12.6933 5.29018 13.823 5.788 14.8251C5.90562 15.0618 5.92472 15.3355 5.84112 15.5862L4.57227 19.3927L8.41716 18.1529C8.66577 18.0727 8.93587 18.093 9.16971 18.2094C10.173 18.7089 11.3047 18.9903 12.5049 18.9903C16.6444 18.9903 20.0001 15.6346 20.0001 11.4952C20.0001 7.35569 16.6444 4 12.5049 4ZM3.00979 11.4952C3.00979 6.25113 7.26092 2 12.5049 2C17.749 2 22.0001 6.25113 22.0001 11.4952C22.0001 16.7392 17.749 20.9903 12.5049 20.9903C11.1364 20.9903 9.83327 20.7002 8.65567 20.1774L3.3057 21.9025C2.94688 22.0182 2.5535 21.9223 2.28823 21.6544C2.02296 21.3865 1.9309 20.9922 2.05012 20.6345L3.81747 15.3326C3.29799 14.1581 3.00979 12.8591 3.00979 11.4952Z" fill="#534340"/>
</svg>
