<svg width="18" height="19" viewBox="0 0 18 19" fill="none" xmlns="http://www.w3.org/2000/svg">
<path fill-rule="evenodd" clip-rule="evenodd" d="M11.07 9.98961L15.3675 14.2871L14.25 15.4046L9.9525 11.1071C9.15 11.6846 8.1825 12.0371 7.125 12.0371C4.4325 12.0371 2.25 9.85461 2.25 7.16211C2.25 4.46961 4.4325 2.28711 7.125 2.28711C9.8175 2.28711 12 4.46961 12 7.16211C12 8.21961 11.6475 9.18711 11.07 9.98961ZM7.125 3.78711C5.2575 3.78711 3.75 5.29461 3.75 7.16211C3.75 9.02961 5.2575 10.5371 7.125 10.5371C8.9925 10.5371 10.5 9.02961 10.5 7.16211C10.5 5.29461 8.9925 3.78711 7.125 3.78711Z" fill="#F09947"/>
</svg>
