<svg width="32" height="32" viewBox="0 0 32 32" fill="none" xmlns="http://www.w3.org/2000/svg">
<path fill-rule="evenodd" clip-rule="evenodd" d="M16.8184 1.72403C16.3369 1.35241 15.6627 1.35241 15.1813 1.72403L3.18125 10.9861C2.85647 11.2368 2.6665 11.6222 2.6665 12.0306V26.5853C2.6665 27.638 3.08793 28.6477 3.83808 29.3921C4.58822 30.1365 5.60564 30.5547 6.6665 30.5547H25.3332C26.394 30.5547 27.4115 30.1365 28.1616 29.3921C28.9117 28.6477 29.3332 27.638 29.3332 26.5853V12.0306C29.3332 11.6222 29.1432 11.2368 28.8184 10.9861L16.8184 1.72403ZM21.3332 27.9084H25.3332C25.6868 27.9084 26.0259 27.769 26.276 27.5209C26.526 27.2727 26.6665 26.9362 26.6665 26.5853V12.6777L15.9998 4.44472L5.33317 12.6777V26.5853C5.33317 26.9362 5.47365 27.2727 5.72369 27.5209C5.97374 27.769 6.31288 27.9084 6.6665 27.9084H10.6665V16C10.6665 15.2693 11.2635 14.6769 11.9998 14.6769H19.9998C20.7362 14.6769 21.3332 15.2693 21.3332 16V27.9084ZM13.3332 27.9084V17.3232H18.6665V27.9084H13.3332Z" fill="#40180A"/>
</svg>
