<svg width="32" height="32" viewBox="0 0 32 32" fill="none" xmlns="http://www.w3.org/2000/svg">
<path d="M6.6665 10.6667C4.45317 10.6667 2.6665 12.4534 2.6665 14.6667V25.3334C2.6665 27.5467 4.45317 29.3334 6.6665 29.3334H8.6665C10.1332 29.3334 11.3332 28.1334 11.3332 26.6667V13.3334C11.3332 11.8667 10.1332 10.6667 8.6665 10.6667H6.6665ZM7.99984 22.6667C7.99984 23.2134 7.5465 23.6667 6.99984 23.6667C6.45317 23.6667 5.99984 23.2134 5.99984 22.6667V17.3334C5.99984 16.7867 6.45317 16.3334 6.99984 16.3334C7.5465 16.3334 7.99984 16.7867 7.99984 17.3334V22.6667Z" fill="#FEF8EE"/>
<path d="M25.3335 2.66675H17.3335C15.1202 2.66675 13.3335 4.45341 13.3335 6.66675V25.3334C13.3335 27.5467 15.1202 29.3334 17.3335 29.3334H18.0002C18.3735 29.3334 18.6668 29.0401 18.6668 28.6667V24.0001C18.6668 23.2667 19.2668 22.6667 20.0002 22.6667H22.6668C23.4002 22.6667 24.0002 23.2667 24.0002 24.0001V28.6667C24.0002 29.0401 24.2935 29.3334 24.6668 29.3334H25.3335C27.5468 29.3334 29.3335 27.5467 29.3335 25.3334V6.66675C29.3335 4.45341 27.5468 2.66675 25.3335 2.66675ZM19.6668 17.3334C19.6668 17.8801 19.2135 18.3334 18.6668 18.3334C18.1202 18.3334 17.6668 17.8801 17.6668 17.3334V10.6667C17.6668 10.1201 18.1202 9.66675 18.6668 9.66675C19.2135 9.66675 19.6668 10.1201 19.6668 10.6667V17.3334ZM25.0002 17.3334C25.0002 17.8801 24.5468 18.3334 24.0002 18.3334C23.4535 18.3334 23.0002 17.8801 23.0002 17.3334V10.6667C23.0002 10.1201 23.4535 9.66675 24.0002 9.66675C24.5468 9.66675 25.0002 10.1201 25.0002 10.6667V17.3334Z" fill="#FEF8EE"/>
</svg>
