<svg width="28" height="28" viewBox="0 0 28 28" fill="none" xmlns="http://www.w3.org/2000/svg">
<path fill-rule="evenodd" clip-rule="evenodd" d="M14.2914 4.92293C9.56054 4.92293 5.72546 8.79488 5.72546 13.5712C5.72546 14.9536 6.0459 16.2572 6.61484 17.4134C6.74926 17.6865 6.77109 18.0023 6.67555 18.2917L5.22544 22.6837L9.61959 21.2532C9.90372 21.1607 10.2124 21.1841 10.4796 21.3184C11.6263 21.8948 12.9196 22.2194 14.2914 22.2194C19.0222 22.2194 22.8572 18.3475 22.8572 13.5712C22.8572 8.79488 19.0222 4.92293 14.2914 4.92293ZM3.43974 13.5712C3.43974 7.52038 8.29817 2.61523 14.2914 2.61523C20.2845 2.61523 25.143 7.52038 25.143 13.5712C25.143 19.622 20.2845 24.5271 14.2914 24.5271C12.7273 24.5271 11.238 24.1924 9.89217 23.5892L3.77792 25.5796C3.36785 25.7131 2.91827 25.6025 2.6151 25.2934C2.31194 24.9842 2.20673 24.5293 2.34298 24.1166L4.36281 17.999C3.76911 16.6438 3.43974 15.145 3.43974 13.5712Z" fill="#534340"/>
</svg>
