<svg width="361" height="255" viewBox="0 0 361 255" fill="none" xmlns="http://www.w3.org/2000/svg">
<g clip-path="url(#clip0_543_7029)">
<path d="M161.188 120.296C162.806 120.296 164.117 116.31 164.117 111.393C164.117 106.476 162.806 102.49 161.188 102.49C159.57 102.49 158.259 106.476 158.259 111.393C158.259 116.31 159.57 120.296 161.188 120.296Z" fill="#F09947"/>
<path d="M161.188 120.772C158.97 120.772 157.772 115.934 157.772 111.393C157.772 106.852 158.97 102.014 161.188 102.014C163.405 102.014 164.603 106.852 164.603 111.393C164.603 115.934 163.405 120.772 161.188 120.772ZM161.188 102.977C160.168 102.977 158.733 106.175 158.733 111.393C158.733 116.611 160.156 119.809 161.188 119.809C162.22 119.809 163.643 116.611 163.643 111.393C163.643 106.175 162.22 102.977 161.188 102.977Z" fill="#472C27"/>
<path d="M161.188 133.016C172.106 133.016 180.957 127.113 180.957 119.833C180.957 112.552 172.106 106.65 161.188 106.65C150.27 106.65 141.419 112.552 141.419 119.833C141.419 127.113 150.27 133.016 161.188 133.016Z" fill="#F09947"/>
<path d="M161.188 133.503C150.016 133.503 140.932 127.369 140.932 119.833C140.932 112.296 150.016 106.163 161.188 106.163C172.359 106.163 181.443 112.296 181.443 119.833C181.443 127.369 172.359 133.503 161.188 133.503ZM161.188 107.137C150.55 107.137 141.893 112.831 141.893 119.833C141.893 126.834 150.55 132.528 161.188 132.528C171.825 132.528 180.482 126.834 180.482 119.833C180.482 112.831 171.825 107.137 161.188 107.137ZM235.259 227.838C235.259 230.643 228.322 233.199 216.889 235.149C203.56 237.419 184.135 238.845 162.504 238.845C139.308 238.845 118.649 237.205 105.332 234.649C95.5718 232.771 89.749 230.418 89.749 227.85C89.749 224.843 97.7183 222.12 110.633 220.135C123.832 218.103 142.201 216.854 162.504 216.854C181.004 216.854 197.903 217.901 210.735 219.612C225.772 221.633 235.247 224.569 235.247 227.85L235.259 227.838Z" fill="#472C27"/>
<path d="M162.516 239.321C140.055 239.321 119.183 237.788 105.248 235.113C94.6465 233.08 89.2744 230.632 89.2744 227.838C89.2744 223.773 100.849 221.146 110.573 219.648C124.389 217.52 142.83 216.355 162.516 216.355C180.328 216.355 197.476 217.342 210.817 219.125C222.19 220.646 235.757 223.404 235.757 227.838C235.757 230.881 229.448 233.508 216.984 235.624C203.156 237.978 183.304 239.321 162.516 239.321ZM162.516 217.318C142.877 217.318 124.484 218.483 110.715 220.599C91.7174 223.523 90.2469 226.875 90.2469 227.838C90.2469 228.86 91.7292 231.535 105.438 234.162C119.313 236.825 140.114 238.346 162.516 238.346C183.245 238.346 203.038 237.003 216.818 234.661C222.581 233.675 227.088 232.569 230.195 231.357C233.16 230.204 234.784 228.956 234.784 227.826C234.784 225.639 228.452 222.453 210.687 220.076C197.393 218.293 180.28 217.318 162.516 217.318Z" fill="#472C27"/>
<path d="M216.901 235.149C203.572 237.419 184.147 238.845 162.516 238.845C139.32 238.845 118.661 237.205 105.344 234.649C107.372 230.168 109.127 225.259 110.645 220.135C114.416 207.357 116.669 193.223 117.76 181.003C120.215 153.509 199.315 155.589 202.908 180.243C204.283 189.645 206.288 205.098 210.747 219.6C212.419 225.033 214.435 230.346 216.901 235.149Z" fill="#F09947"/>
<path d="M120.642 220.135C118.247 217.936 114.926 217.532 112.068 216.403C111.582 216.213 111.89 215.773 111.001 218.863C112.602 219.208 114.013 219.303 115.828 219.696C121.805 221.027 123.168 225.508 117.915 230.608C116.539 231.951 114.238 233.746 112.922 235.886C113.942 236.028 114.997 236.171 116.077 236.302C117.761 233.306 126.963 225.794 120.654 220.135H120.642ZM210.213 217.817C202.849 222.739 197.05 229.728 193.646 237.788C195.449 237.657 197.204 237.514 198.912 237.372C201.402 230.786 205.6 224.926 210.972 220.337C210.854 219.981 210.711 219.565 210.202 217.817H210.213Z" fill="#FDEED7"/>
<path d="M162.516 239.321C140.056 239.321 119.184 237.788 105.249 235.113C104.988 235.065 104.811 234.804 104.87 234.542C104.87 234.507 104.894 234.471 104.905 234.435C106.838 230.18 108.605 225.318 110.183 219.981C113.527 208.664 116.041 194.804 117.286 180.944C117.844 174.739 122.267 169.556 130.106 165.931C136.937 162.781 146.281 160.879 156.433 160.593C167.509 160.284 178.74 161.925 187.242 165.087C196.896 168.688 202.481 173.895 203.394 180.147C203.513 180.944 203.632 181.776 203.762 182.656C205.114 192.034 207.154 206.192 211.221 219.434C213.024 225.282 215.076 230.489 217.341 234.899C217.459 235.137 217.364 235.434 217.127 235.553C217.08 235.577 217.032 235.588 216.985 235.6C203.157 237.954 183.305 239.297 162.516 239.297V239.321ZM106.032 234.281C119.907 236.872 140.435 238.358 162.516 238.358C182.926 238.358 202.422 237.051 216.178 234.78C214.008 230.441 212.028 225.389 210.296 219.755C206.205 206.442 204.153 192.237 202.801 182.822C202.683 181.99 202.564 181.146 202.434 180.314C200.548 167.369 177.34 160.998 156.457 161.58C139.593 162.055 119.456 167.428 118.247 181.039C117.002 194.959 114.464 208.89 111.108 220.266C109.59 225.413 107.882 230.12 106.032 234.281Z" fill="#472C27"/>
<path d="M170.331 47.1082H152.045C150.041 47.1082 148.416 48.7367 148.416 50.7456V91.0663C148.416 93.0752 150.041 94.7037 152.045 94.7037H170.331C172.336 94.7037 173.96 93.0752 173.96 91.0663V50.7456C173.96 48.7367 172.336 47.1082 170.331 47.1082Z" fill="#FDEED7"/>
<path d="M170.331 95.1911H152.045C149.78 95.1911 147.93 93.3486 147.93 91.0663V50.7337C147.93 48.4633 149.768 46.6089 152.045 46.6089H170.331C172.596 46.6089 174.446 48.4514 174.446 50.7337V91.0663C174.446 93.3367 172.608 95.1911 170.331 95.1911ZM152.045 47.5955C150.313 47.5955 148.902 49.0101 148.902 50.7456V91.0782C148.902 92.8137 150.313 94.2282 152.045 94.2282H170.331C172.063 94.2282 173.474 92.8137 173.474 91.0782V50.7456C173.474 49.0101 172.063 47.5955 170.331 47.5955H152.045Z" fill="#472C27"/>
<path d="M148.416 89.2119H173.96V91.0782C173.96 93.0871 172.336 94.7156 170.331 94.7156H152.045C150.041 94.7156 148.416 93.0871 148.416 91.0782V89.2119Z" fill="#F09947"/>
<path d="M170.331 95.1911H152.045C149.78 95.1911 147.93 93.3486 147.93 91.0663V89.2C147.93 88.9266 148.143 88.7126 148.416 88.7126H173.96C174.233 88.7126 174.446 88.9266 174.446 89.2V91.0663C174.446 93.3367 172.608 95.1911 170.331 95.1911ZM148.902 89.6993V91.0782C148.902 92.8137 150.313 94.2282 152.045 94.2282H170.331C172.063 94.2282 173.474 92.8137 173.474 91.0782V89.6993H148.902Z" fill="#472C27"/>
<path d="M160.619 76.79C158.449 78.6562 156.765 79.4645 155.164 81.3665C152.578 84.469 152.578 89.9608 148.606 93.8478C145.214 97.1643 126.939 109.705 122.433 118.656C122.136 119.25 121.887 119.833 121.721 120.391C121.686 120.534 121.638 120.665 121.614 120.796C121.022 123.244 121.116 125.788 121.614 128.356C123.464 137.711 130.793 147.304 129.809 153.057C128.552 160.391 111.013 199.571 111.013 199.571C101.857 193.497 78.8153 175.119 76.1826 154.852C76.0166 153.616 75.9455 152.368 75.9336 151.119C75.9336 137.069 83.3455 125.753 93.2596 116.231C108.202 101.86 127.686 95.0841 137.114 85.5388C141.526 81.0812 142.783 73.0574 145.178 68.6711C146.044 67.0902 147.052 65.9847 148.404 65.6875V79.4645C151.499 76.683 156.444 74.6265 158.591 74.1273C160.737 73.628 163.382 74.3888 160.607 76.7781L160.619 76.79Z" fill="#F09947"/>
<path d="M145.427 72.8079C144.218 81.2358 138.383 88.3323 131.671 93.5388C124.959 98.7453 117.25 102.502 110.23 107.292C97.8726 115.732 87.745 127.429 81.1633 140.897C78.9931 145.342 77.1786 150.026 76.1944 154.864C76.0283 153.628 75.9572 152.379 75.9453 151.131C75.9453 137.081 83.3572 125.764 93.2713 116.243C108.214 101.872 127.698 95.096 137.126 85.5508C141.537 81.0931 142.795 73.0694 145.19 68.6831C145.546 70.0026 145.605 71.4884 145.427 72.8079Z" fill="#FDEED7"/>
<path d="M111.012 200.07C110.918 200.07 110.823 200.046 110.74 199.987C107.965 198.144 98.2166 191.357 89.4646 181.407C80.1672 170.828 75.4473 160.641 75.4473 151.131C75.4473 138.721 81.1633 127.191 92.9274 115.886C101.051 108.065 110.562 102.466 118.958 97.5209C126.216 93.2416 132.489 89.5447 136.77 85.2059C139.545 82.4006 141.075 78.05 142.415 74.2224C143.992 69.741 145.356 65.8777 148.297 65.2239C148.439 65.1882 148.594 65.2239 148.7 65.319C148.819 65.4141 148.878 65.5448 148.878 65.6994V78.4422C151.962 76.0054 156.29 74.1867 158.472 73.6637C159.919 73.3189 161.65 73.4854 162.148 74.472C162.528 75.2209 162.113 76.1243 160.915 77.1584C160.085 77.8717 159.338 78.4185 158.626 78.9534C157.476 79.7974 156.48 80.5344 155.519 81.6874C154.464 82.9593 153.835 84.7067 153.171 86.5611C152.282 89.0692 151.262 91.9221 148.926 94.2044C148.036 95.0722 146.174 96.5343 143.826 98.3886C137.209 103.595 126.145 112.32 122.848 118.882C122.551 119.464 122.326 120.023 122.172 120.546C122.136 120.677 122.101 120.808 122.065 120.938C121.531 123.137 121.531 125.539 122.077 128.284C122.895 132.445 124.781 136.582 126.607 140.576C128.872 145.544 130.841 149.847 130.271 153.152C129.014 160.463 112.163 198.18 111.439 199.773C111.356 199.951 111.19 200.058 111.001 200.058L111.012 200.07ZM147.93 66.365C145.878 67.316 144.692 70.6919 143.34 74.5433C141.953 78.4779 140.387 82.9236 137.47 85.8835C133.106 90.3055 126.785 94.038 119.456 98.353C111.107 103.274 101.656 108.849 93.6034 116.588C82.0409 127.702 76.4197 138.995 76.4197 151.131C76.4197 160.391 81.0566 170.364 90.188 180.766C98.4182 190.121 107.538 196.658 110.799 198.869C112.886 194.186 128.172 159.737 129.323 152.998C129.845 149.978 127.852 145.604 125.741 140.98C123.974 137.116 121.982 132.742 121.14 128.475C120.571 125.586 120.559 123.054 121.14 120.712C121.176 120.57 121.211 120.427 121.259 120.284C121.436 119.702 121.686 119.096 122.006 118.466C125.397 111.714 136.58 102.906 143.245 97.6516C145.581 95.8092 147.42 94.3589 148.273 93.5268C150.455 91.3991 151.38 88.772 152.282 86.252C152.97 84.3144 153.622 82.4838 154.796 81.0812C155.828 79.8449 156.919 79.0366 158.069 78.1926C158.769 77.6696 159.504 77.1347 160.298 76.4452C161.2 75.6607 161.401 75.1495 161.295 74.9356C161.105 74.5552 159.931 74.3412 158.709 74.6265C156.741 75.0901 151.796 77.099 148.736 79.8568C148.534 80.0351 148.226 80.0232 148.048 79.8211C147.965 79.7379 147.93 79.6191 147.93 79.5002V66.3888V66.365Z" fill="#472C27"/>
<path d="M248.257 139.019C248.257 144.106 247.699 148.695 246.715 152.843C239.659 182.561 210.699 189.954 208.149 203.375C199.943 196.29 191.12 148.029 191.12 148.029C194.678 139.839 204.556 137.176 208.742 131.981C209.94 130.507 210.664 128.831 210.664 126.763C210.664 125.669 210.533 124.564 210.272 123.435C210.225 123.233 210.177 123.019 210.13 122.817C207.474 112.724 195.342 101.729 181.526 97.937C174.197 95.9281 173.96 91.0782 173.96 91.0782V80.8673C171.814 83.9698 168.03 82.7692 170.556 77.955C173.082 73.1526 175.098 68.5405 178.051 68.8614C181.941 69.2893 184.052 78.5493 187.586 83.5181C189.234 85.8242 192.709 87.8806 197.215 90.0084C209.383 95.7617 229.021 102.074 240.05 115.637C245.031 121.759 248.257 129.342 248.257 139.019Z" fill="#F09947"/>
<path d="M246.858 150.228C247.735 134.799 240.916 119.12 229.034 109.253C222.215 103.595 214.032 99.8983 206.264 95.619C203.157 93.9072 200.098 92.0885 197.216 90.0083C209.383 95.7616 229.022 102.074 240.051 115.637C245.031 121.758 248.257 129.342 248.257 139.018C248.257 144.106 247.7 148.694 246.715 152.843C246.739 151.975 246.81 151.096 246.858 150.228Z" fill="#FDEED7"/>
<path d="M208.149 203.862C208.031 203.862 207.924 203.814 207.829 203.743C199.599 196.635 191.001 150.097 190.633 148.112C190.622 148.017 190.633 147.922 190.669 147.827C192.887 142.715 197.535 139.684 201.639 136.998C204.271 135.274 206.774 133.646 208.363 131.672C209.584 130.163 210.177 128.546 210.177 126.751C210.177 125.705 210.047 124.623 209.798 123.53C209.75 123.328 209.703 123.126 209.655 122.923C208.386 118.074 204.841 112.903 199.682 108.362C194.416 103.726 187.918 100.184 181.383 98.3887C173.806 96.3084 173.473 91.2921 173.462 91.09C173.462 91.09 173.462 91.0782 173.462 91.0663V82.1272C172.406 83.0425 171.137 83.3278 170.212 82.7691C169.204 82.1629 168.659 80.5106 170.117 77.7291C170.378 77.2298 170.639 76.7305 170.888 76.2313C173.153 71.845 175.11 68.053 178.087 68.374C180.826 68.6712 182.629 72.5939 184.526 76.7424C185.593 79.0485 186.684 81.4378 187.965 83.2327C190.396 86.6562 197.274 89.6042 205.232 93.0276C216.901 98.0439 231.428 104.297 240.394 115.292C240.394 115.292 240.418 115.316 240.418 115.328C245.932 122.103 248.731 130.079 248.731 139.018C248.731 150.977 245.707 161.176 239.504 170.198C234.156 177.96 227.408 183.511 221.455 188.421C215.099 193.651 209.62 198.168 208.612 203.47C208.564 203.696 208.375 203.862 208.137 203.862H208.149ZM191.618 148.088C192.151 150.953 200.275 194.043 207.865 202.424C209.311 197.158 214.684 192.748 220.85 187.672C232.84 177.794 247.77 165.515 247.77 139.03C247.77 130.21 245.126 122.674 239.706 115.981C239.706 115.981 239.682 115.958 239.682 115.946C230.871 105.117 216.451 98.9117 204.864 93.931C196.433 90.3055 189.78 87.4407 187.194 83.8033C185.866 81.9371 184.751 79.5121 183.672 77.1585C181.882 73.2595 180.186 69.5865 178.004 69.3487C175.691 69.0872 173.877 72.6176 171.778 76.683C171.517 77.1823 171.256 77.6815 170.995 78.1808C169.845 80.368 170.141 81.5686 170.734 81.9371C171.398 82.3412 172.631 81.9371 173.568 80.5819C173.723 80.368 174.019 80.3085 174.244 80.4631C174.375 80.5582 174.458 80.7008 174.458 80.8553V91.0544C174.481 91.3397 174.897 95.5952 181.668 97.4615C188.333 99.2921 194.974 102.906 200.346 107.637C205.647 112.296 209.288 117.646 210.616 122.674C210.675 122.888 210.723 123.102 210.77 123.316C211.031 124.469 211.173 125.622 211.173 126.739C211.173 128.772 210.509 130.579 209.134 132.267C207.438 134.359 204.888 136.035 202.184 137.794C198.045 140.504 193.764 143.298 191.641 148.064L191.618 148.088Z" fill="#472C27"/>
<path d="M173.96 81.3546C173.687 81.3546 173.474 81.1406 173.474 80.8672C173.474 80.7483 173.521 80.6295 173.604 80.5344C175.573 78.4304 177.695 76.3145 177.707 76.2907C177.897 76.1005 178.205 76.1005 178.395 76.2907C178.585 76.4809 178.585 76.79 178.395 76.9802C178.395 76.9802 176.272 79.1198 174.304 81.2C174.209 81.2951 174.09 81.3546 173.948 81.3546H173.96Z" fill="#472C27"/>
<path d="M129.809 153.069C128.552 160.403 111.013 199.583 111.013 199.583C101.857 193.509 78.8153 175.131 76.1826 154.864C76.0166 153.628 75.9455 152.379 75.9336 151.131C75.9336 137.081 83.3455 125.764 93.2596 116.243C95.5365 115.173 98.4064 114.46 101.49 114.127C109.174 113.283 118.14 114.769 122.421 118.668C122.041 119.417 121.769 120.13 121.603 120.819C118.828 132.195 131.066 145.747 129.809 153.069Z" fill="#F09947"/>
<path d="M101.502 114.127C93.0817 121.628 86.1205 130.769 81.1516 140.897C78.9814 145.342 77.1669 150.026 76.1826 154.864C76.0166 153.628 75.9455 152.379 75.9336 151.131C75.9336 137.081 83.3455 125.764 93.2596 116.243C95.5365 115.173 98.4064 114.46 101.49 114.127H101.502Z" fill="#FDEED7"/>
<path d="M110.728 138.816C111.214 133.693 108.404 128.308 103.103 126.442C94.1965 123.268 89.3343 130.662 86.7016 132.849C83.9148 135.167 81.5074 134.68 80.2385 133.265C79.7048 134.347 79.2068 135.452 78.7561 136.57C81.2228 138.103 84.5433 138.198 87.1049 136.296C90.7218 133.764 92.1924 129.972 96.1889 128.665C101.288 126.977 106.886 129.675 108.143 135.452C110.562 146.816 94.6709 149.467 90.3898 150.632C84.7686 152.166 79.9657 154.151 76.918 158.608C77.3449 160.332 77.9141 162.02 78.6019 163.696C79.0526 162.139 79.8353 160.582 81.0093 159.119C88.3619 150.977 109.4 153.176 110.74 138.805L110.728 138.816ZM109.684 155.672C91.3148 156.897 92.1094 180.778 107.538 182.252C108.083 182.299 108.309 181.526 107.763 181.312C93.7103 175.535 98.1693 155.351 116.515 159.702C120.393 160.617 123.844 162.305 126.299 163.541C126.512 162.983 126.726 162.436 126.927 161.913C121.745 158.133 116.065 155.304 109.684 155.684V155.672ZM110.977 114.246C110.775 115.91 110.93 117.741 111.594 119.714C113.527 125.17 117.938 127.238 121.496 127.714C121.389 127.084 121.306 126.442 121.259 125.8C120.002 125.432 118.579 124.742 117.096 123.47C114.452 121.152 113.207 117.883 113.373 114.65C112.578 114.484 111.783 114.353 110.977 114.246Z" fill="#FDEED7"/>
<path d="M248.257 139.018C248.257 144.106 247.699 148.694 246.715 152.843C239.659 182.561 210.699 189.954 208.15 203.375C199.943 196.29 191.12 148.029 191.12 148.029C195.686 137.509 210.676 136.106 210.676 126.763C210.676 125.479 210.498 124.16 210.142 122.816C214.743 117.824 224.183 113.354 234.37 114.436C236.255 114.638 238.153 115.031 240.062 115.637C245.043 121.759 248.269 129.342 248.269 139.018H248.257Z" fill="#F09947"/>
<path d="M224.657 141.836C211.565 142.905 207.117 157.8 215.3 166.715C220.542 172.385 231.832 173.669 227.491 182.703C229.329 181.075 231.179 179.327 232.97 177.449C231.44 169.485 221.704 168.189 218.075 164.587C208.22 154.923 218.17 140.338 229.128 145.461C235.022 148.171 237.666 157.669 243.169 162.911C243.916 161.342 244.58 159.726 245.161 158.085C239.552 152.261 236.03 140.944 224.645 141.836H224.657ZM231.322 132.623C236.516 136.605 242.576 136.605 247.936 133.883C247.521 130.626 247.462 131.149 247.248 131.244C244.094 132.754 240.797 133.051 238.425 132.564C226.602 130.044 231.037 119.69 228.049 114.448C227.135 114.543 226.234 114.686 225.333 114.864C228.475 119.69 223.578 125.907 231.322 132.623ZM204.485 136.57C203.382 143.238 200.215 149.455 192.649 155.803C192.851 156.754 193.041 157.717 193.254 158.668C201.662 152.665 208.114 143.738 207.39 133.42C204.117 136.439 204.746 134.763 204.497 136.57H204.485Z" fill="#FDEED7"/>
<path d="M246.858 150.228C247.593 137.283 242.909 124.148 234.358 114.436C236.244 114.638 238.141 115.031 240.051 115.637C245.032 121.759 248.257 129.342 248.257 139.018C248.257 144.106 247.7 148.695 246.715 152.843C246.739 151.975 246.81 151.096 246.858 150.228Z" fill="#FDEED7"/>
<path d="M111.012 200.07C110.918 200.07 110.823 200.046 110.74 199.987C107.965 198.144 98.2166 191.357 89.4646 181.407C80.1672 170.828 75.4473 160.641 75.4473 151.131C75.4473 138.721 81.1633 127.191 92.9274 115.886C92.963 115.851 93.0105 115.815 93.0579 115.791C100.897 112.118 116.444 112.558 122.741 118.299C122.907 118.442 122.943 118.68 122.848 118.882C122.48 119.607 122.219 120.296 122.065 120.926C120.523 127.227 123.761 134.311 126.607 140.564C128.872 145.544 130.841 149.836 130.271 153.152C129.014 160.463 112.163 198.18 111.439 199.773C111.356 199.951 111.19 200.058 111.001 200.058L111.012 200.07ZM93.556 116.647C82.029 127.738 76.4316 139.018 76.4316 151.131C76.4316 160.391 81.0684 170.364 90.1999 180.766C98.43 190.121 107.55 196.658 110.811 198.869C112.898 194.186 128.184 159.737 129.335 152.998C129.856 149.978 127.864 145.604 125.753 140.98C122.836 134.585 119.527 127.333 121.152 120.712C121.294 120.118 121.531 119.476 121.852 118.799C115.661 113.533 101.063 113.188 93.5678 116.659L93.556 116.647ZM208.15 203.862C208.031 203.862 207.924 203.814 207.829 203.743C199.599 196.635 191.001 150.097 190.634 148.112C190.622 148.017 190.634 147.922 190.669 147.827C192.887 142.715 197.536 139.684 201.639 136.998C206.228 134.002 210.189 131.411 210.189 126.751C210.189 125.527 210.011 124.243 209.667 122.923C209.62 122.769 209.667 122.591 209.786 122.472C212.763 119.238 217.376 116.54 222.428 115.054C226.59 113.83 233.042 112.867 240.193 115.161C240.287 115.185 240.37 115.244 240.43 115.316C245.944 122.091 248.743 130.068 248.743 139.007C248.743 150.965 245.719 161.164 239.517 170.186C234.168 177.948 227.42 183.5 221.467 188.409C215.111 193.639 209.632 198.156 208.624 203.458C208.576 203.684 208.387 203.85 208.15 203.85V203.862ZM191.618 148.088C192.152 150.953 200.275 194.043 207.865 202.424C209.312 197.158 214.684 192.748 220.851 187.672C232.84 177.794 247.77 165.515 247.77 139.03C247.77 130.246 245.15 122.733 239.766 116.065C228.44 112.499 216.403 116.909 210.664 122.959C210.984 124.267 211.15 125.539 211.15 126.763C211.15 131.958 206.786 134.799 202.161 137.818C198.022 140.528 193.729 143.322 191.618 148.088Z" fill="#472C27"/>
<path d="M208.02 208.878C203.987 216.462 193.006 221.205 188.915 228.219C182.701 238.857 177.376 257.865 152.591 254.013C126.821 250.007 134.743 234.614 127.426 218.554C123.334 209.58 101.917 204.837 101.917 181.515C101.917 180.183 102.024 178.864 102.237 177.58C105.688 156.409 135.857 141.931 137.458 133.503C137.743 132.017 137.66 130.579 137.375 129.176C136.628 125.384 134.446 121.818 134.15 118.24C133.486 110.466 141.087 101.456 150.041 102.977C160.643 104.772 166.122 119.571 171.138 119.571C176.154 119.571 177.755 116.73 180.791 116.73C183.827 116.73 187.029 119.013 187.029 122.805C187.029 128.403 183.056 130.008 185.416 134.656C191.109 145.842 219.001 148.029 219.001 166.989C219.001 178.745 209.146 183.595 207.747 189.265C206.003 196.326 212.562 200.367 208.02 208.902V208.878Z" fill="#472C27"/>
<path d="M158.816 255C156.812 255 154.712 254.822 152.495 254.489C134.054 251.624 132.501 242.768 130.698 232.51C129.915 228.064 129.109 223.476 126.962 218.745C125.646 215.868 122.42 213.384 118.673 210.519C110.976 204.623 101.406 197.289 101.406 181.503C101.406 180.171 101.513 178.828 101.738 177.497C103.897 164.278 116.028 153.889 125.788 145.544C131.469 140.683 136.378 136.475 136.96 133.408C137.209 132.112 137.173 130.757 136.877 129.271C136.544 127.607 135.928 125.966 135.335 124.374C134.588 122.388 133.817 120.32 133.639 118.276C133.283 114.044 135.252 109.384 138.774 106.127C142.059 103.096 146.079 101.812 150.087 102.49C156.349 103.548 160.844 108.98 164.449 113.342C166.998 116.421 169.192 119.072 171.102 119.072C173.805 119.072 175.489 118.204 176.972 117.432C178.181 116.813 179.308 116.219 180.755 116.219C184.064 116.219 187.479 118.668 187.479 122.769C187.479 125.265 186.732 126.977 186.068 128.498C185.226 130.424 184.562 131.946 185.819 134.406C188.013 138.709 193.705 141.693 199.741 144.867C208.979 149.717 219.463 155.232 219.463 166.965C219.463 174.561 215.419 179.375 212.169 183.238C210.296 185.461 208.683 187.387 208.197 189.36C207.485 192.225 208.208 194.566 208.979 197.039C210.035 200.474 211.138 204.017 208.434 209.104C206.287 213.134 202.255 216.355 198.342 219.482C194.689 222.406 191.238 225.164 189.305 228.456C188.428 229.966 187.562 231.63 186.649 233.401C183.897 238.762 180.767 244.825 175.62 249.187C171.019 253.074 165.48 255 158.804 255H158.816ZM148.012 103.274C144.953 103.274 141.976 104.499 139.45 106.828C136.129 109.883 134.279 114.234 134.623 118.18C134.789 120.094 135.501 121.996 136.26 124.017C136.877 125.646 137.505 127.333 137.849 129.069C138.169 130.686 138.193 132.16 137.932 133.586C137.292 136.986 132.501 141.087 126.429 146.269C116.799 154.507 104.81 164.766 102.711 177.639C102.497 178.911 102.402 180.207 102.391 181.491C102.391 196.801 111.759 203.969 119.278 209.734C123.12 212.682 126.441 215.226 127.864 218.328C130.069 223.167 130.923 228.028 131.67 232.32C133.473 242.614 134.908 250.744 152.661 253.514C154.867 253.859 156.906 254.013 158.804 254.013C174.98 254.013 180.933 242.447 185.819 232.95C186.732 231.166 187.597 229.479 188.499 227.957C190.515 224.51 194.203 221.562 197.761 218.709C201.591 215.642 205.552 212.48 207.604 208.629C210.118 203.898 209.133 200.7 208.078 197.3C207.307 194.804 206.513 192.225 207.283 189.098C207.829 186.899 209.513 184.902 211.458 182.584C214.6 178.84 218.526 174.192 218.526 166.941C218.526 155.791 208.766 150.668 199.326 145.699C193.159 142.454 187.325 139.399 185 134.822C183.542 131.958 184.36 130.079 185.226 128.094C185.854 126.668 186.554 125.039 186.554 122.757C186.554 119.262 183.625 117.17 180.79 117.17C179.581 117.17 178.597 117.681 177.446 118.276C175.869 119.096 174.078 120.023 171.137 120.023C168.777 120.023 166.548 117.337 163.737 113.949C160.227 109.705 155.863 104.427 149.957 103.429C149.317 103.322 148.676 103.262 148.024 103.262L148.012 103.274Z" fill="#472C27"/>
<path d="M144.621 232.498C144.348 232.498 144.135 232.284 144.135 232.011C144.135 231.963 144.135 231.915 144.159 231.868C151.013 208.724 141.478 200.558 134.517 194.59C132.122 192.546 130.058 190.775 129.24 188.766C125.706 180.136 132.335 174.156 138.751 168.391C145.356 162.448 152.175 156.29 148.724 147.042C148.629 146.793 148.748 146.507 148.997 146.412C149.246 146.317 149.531 146.436 149.626 146.686C149.626 146.686 149.626 146.686 149.626 146.698C153.314 156.576 146.234 162.947 139.391 169.116C132.952 174.917 126.856 180.409 130.129 188.409C130.865 190.204 132.845 191.904 135.146 193.865C141.905 199.654 152.128 208.415 145.084 232.153C145.024 232.355 144.835 232.498 144.621 232.498ZM159.599 243.493C159.386 243.493 159.196 243.351 159.137 243.137C158.97 242.566 158.793 241.984 158.615 241.377C157.275 236.956 155.614 231.464 158.2 225.924C158.757 224.724 159.386 223.511 160.002 222.346C162.149 218.245 164.366 214.002 164.07 209.104C163.821 204.956 162.611 201.58 161.437 198.299C160.026 194.352 158.567 190.275 158.84 184.95C159.03 181.241 160.228 177.818 161.39 174.501C163.287 169.081 165.078 163.957 162.659 157.847C162.564 157.598 162.682 157.313 162.931 157.217C163.18 157.122 163.465 157.241 163.56 157.491C166.11 163.934 164.177 169.473 162.303 174.822C161.164 178.079 159.99 181.431 159.812 185.009C159.552 190.144 160.903 193.948 162.35 197.99C163.548 201.33 164.77 204.777 165.042 209.057C165.362 214.216 163.074 218.59 160.868 222.81C160.263 223.975 159.635 225.164 159.089 226.352C156.658 231.559 158.2 236.635 159.552 241.116C159.741 241.722 159.919 242.317 160.085 242.899C160.156 243.161 160.014 243.422 159.753 243.493C159.706 243.505 159.67 243.517 159.623 243.517L159.599 243.493ZM173.296 231.927C173.071 231.927 172.881 231.773 172.822 231.559C170.77 223.357 176.13 217.39 181.325 211.612C186.388 205.978 191.18 200.641 189.792 193.354C189.401 191.309 188.393 189.372 187.42 187.506C186.175 185.116 184.894 182.632 184.823 179.874C184.728 176.094 186.483 173.039 188.179 170.091C190.421 166.192 192.531 162.507 190.243 157.443C188.488 153.58 183.756 149.241 179.178 148.968C178.917 148.956 178.704 148.718 178.728 148.457C178.739 148.195 178.977 147.981 179.238 148.005C184.254 148.314 189.223 152.843 191.12 157.051C193.622 162.567 191.286 166.644 189.021 170.578C187.397 173.408 185.713 176.344 185.796 179.85C185.855 182.394 187.041 184.665 188.286 187.066C189.294 189.003 190.338 191.012 190.753 193.188C192.223 200.95 187.053 206.703 182.048 212.266C176.795 218.115 171.837 223.63 173.771 231.321C173.83 231.583 173.676 231.844 173.415 231.904C173.379 231.904 173.332 231.915 173.296 231.915V231.927ZM139.581 118.644C139.32 118.644 139.107 118.442 139.095 118.181C138.988 115.387 140.103 112.546 142.06 110.561C144.016 108.576 146.851 107.435 149.637 107.518C149.91 107.518 150.112 107.756 150.1 108.017C150.1 108.279 149.875 108.481 149.614 108.481H149.602C147.076 108.409 144.514 109.444 142.736 111.239C140.957 113.034 139.96 115.613 140.055 118.145C140.055 118.406 139.854 118.632 139.593 118.644H139.569H139.581ZM183.281 125.099C183.009 125.099 182.795 124.885 182.795 124.611C182.795 124.588 182.795 124.564 182.795 124.528C183.08 122.805 181.775 120.903 180.056 120.546C179.795 120.487 179.629 120.237 179.676 119.976C179.724 119.714 179.985 119.548 180.246 119.595C182.475 120.059 184.1 122.436 183.744 124.683C183.708 124.921 183.507 125.087 183.27 125.087L183.281 125.099Z" fill="#F09947"/>
<path d="M138.893 154.198C134.6 159.131 127.84 157.455 119.966 163.173C113.538 167.856 111.261 179.482 102.213 177.568C105.664 156.397 135.833 141.919 137.434 133.491C137.719 132.005 137.636 130.567 137.351 129.164C140.767 139.648 143.174 149.265 138.881 154.198H138.893Z" fill="#F09947"/>
<path d="M104.135 178.257C103.494 178.257 102.83 178.186 102.119 178.032C101.87 177.984 101.704 177.734 101.739 177.485C103.898 164.266 116.029 153.877 125.789 145.533C131.47 140.671 136.379 136.463 136.96 133.396C137.209 132.1 137.174 130.745 136.877 129.259C136.83 128.998 136.996 128.736 137.257 128.689C137.292 128.689 137.316 128.689 137.352 128.689C137.565 128.689 137.743 128.819 137.814 129.021C141.075 139.007 143.862 149.206 139.249 154.519C136.972 157.134 134.091 157.954 130.746 158.905C127.604 159.797 124.046 160.807 120.239 163.577C118.01 165.206 116.255 167.737 114.547 170.198C111.796 174.18 108.973 178.269 104.111 178.269L104.135 178.257ZM102.783 177.176C103.245 177.247 103.696 177.283 104.123 177.283C108.487 177.283 111.072 173.55 113.776 169.627C115.519 167.096 117.322 164.492 119.694 162.769C123.643 159.904 127.283 158.87 130.497 157.954C133.687 157.051 136.45 156.267 138.538 153.865C142.285 149.562 140.554 141.122 138.04 132.849C138.016 133.087 137.98 133.336 137.933 133.574C137.292 136.974 132.501 141.075 126.43 146.258C116.919 154.4 105.095 164.516 102.795 177.164L102.783 177.176Z" fill="#472C27"/>
<path d="M284.107 128.392L283.881 128.344C283.62 128.285 283.466 128.023 283.526 127.762C283.585 127.5 283.846 127.334 284.107 127.405L284.32 127.452C285.174 127.655 286.04 127.821 286.905 127.952C287.166 127.987 287.356 128.237 287.309 128.499C287.273 128.76 287.024 128.95 286.763 128.903C285.874 128.772 284.984 128.594 284.107 128.392ZM279.719 127.084C279.719 127.084 279.683 127.084 279.66 127.06C278.746 126.715 277.833 126.335 276.956 125.919C276.718 125.8 276.612 125.515 276.73 125.277C276.849 125.039 277.134 124.932 277.371 125.051C278.236 125.455 279.114 125.836 280.003 126.169C280.252 126.264 280.383 126.537 280.288 126.787C280.205 127.013 279.968 127.143 279.731 127.084H279.719ZM291.056 129.283C290.795 129.224 290.629 128.962 290.688 128.701C290.736 128.475 290.937 128.32 291.175 128.32C292.135 128.344 293.096 128.32 294.033 128.249C294.294 128.237 294.531 128.439 294.543 128.701C294.554 128.962 294.365 129.188 294.104 129.212C293.119 129.283 292.147 129.307 291.163 129.283C291.127 129.283 291.092 129.283 291.068 129.271L291.056 129.283ZM273.244 123.839C273.244 123.839 273.137 123.803 273.09 123.779C272.259 123.244 271.465 122.686 270.682 122.08C270.469 121.913 270.433 121.616 270.599 121.402C270.765 121.188 271.062 121.152 271.275 121.319C272.034 121.901 272.805 122.448 273.611 122.971C273.837 123.114 273.896 123.411 273.754 123.637C273.647 123.815 273.434 123.898 273.232 123.851L273.244 123.839ZM298.254 128.57C297.994 128.51 297.828 128.249 297.899 127.987C297.946 127.809 298.077 127.666 298.254 127.631C299.179 127.417 300.081 127.143 300.982 126.822C301.231 126.727 301.516 126.858 301.599 127.108C301.682 127.357 301.563 127.643 301.314 127.726C300.389 128.059 299.44 128.344 298.48 128.57C298.409 128.582 298.326 128.582 298.266 128.57H298.254ZM267.599 119.31C267.516 119.286 267.433 119.25 267.374 119.179C266.674 118.49 265.998 117.776 265.358 117.051C265.18 116.849 265.203 116.54 265.405 116.362C265.607 116.184 265.903 116.207 266.081 116.409C266.709 117.123 267.374 117.824 268.05 118.49C268.239 118.68 268.239 118.989 268.05 119.179C267.931 119.298 267.765 119.346 267.599 119.31ZM304.943 125.836C304.682 125.776 304.516 125.515 304.575 125.253C304.599 125.135 304.682 125.016 304.789 124.956C305.583 124.457 306.342 123.886 307.042 123.268C307.244 123.09 307.552 123.114 307.73 123.316C307.908 123.518 307.884 123.827 307.682 124.005C306.935 124.659 306.141 125.253 305.299 125.788C305.192 125.86 305.062 125.883 304.931 125.848L304.943 125.836ZM262.891 113.794C262.784 113.771 262.677 113.699 262.606 113.604C262.037 112.808 261.48 111.999 260.958 111.179C260.804 110.953 260.863 110.656 261.088 110.502C261.314 110.347 261.61 110.407 261.764 110.632C261.764 110.632 261.764 110.632 261.764 110.644C262.286 111.453 262.82 112.249 263.389 113.022C263.543 113.236 263.496 113.545 263.282 113.699C263.164 113.782 263.021 113.806 262.891 113.782V113.794ZM310.113 120.831C309.853 120.772 309.687 120.51 309.746 120.249C309.758 120.19 309.781 120.142 309.817 120.083C310.339 119.298 310.789 118.478 311.181 117.622C311.287 117.372 311.572 117.265 311.821 117.384C312.07 117.503 312.177 117.776 312.058 118.026C311.655 118.93 311.169 119.809 310.612 120.629C310.505 120.796 310.291 120.879 310.102 120.831H310.113ZM259.025 107.649C258.894 107.613 258.776 107.53 258.705 107.411C258.242 106.555 257.78 105.687 257.353 104.82C257.234 104.582 257.329 104.285 257.566 104.166C257.803 104.047 258.1 104.142 258.218 104.38C258.645 105.236 259.096 106.092 259.558 106.936C259.689 107.173 259.606 107.47 259.369 107.589C259.262 107.649 259.143 107.661 259.025 107.637V107.649ZM289.752 110.371C289.491 110.311 289.325 110.05 289.396 109.788C289.455 109.539 289.704 109.372 289.953 109.42C290.866 109.586 291.803 109.658 292.728 109.622C292.989 109.622 293.214 109.824 293.226 110.086C293.238 110.347 293.025 110.573 292.764 110.585C291.756 110.62 290.748 110.549 289.752 110.359V110.371ZM285.625 109.016C285.625 109.016 285.553 108.992 285.53 108.98C284.628 108.552 283.775 108.029 282.968 107.435C282.755 107.268 282.719 106.971 282.885 106.757C283.039 106.555 283.336 106.508 283.549 106.662C284.296 107.221 285.103 107.708 285.945 108.112C286.182 108.231 286.289 108.516 286.17 108.754C286.075 108.956 285.85 109.063 285.625 109.016ZM255.752 101.158C255.621 101.123 255.503 101.04 255.432 100.921C254.969 100.089 254.471 99.2803 253.937 98.4958C253.783 98.2818 253.842 97.9727 254.056 97.8182C254.269 97.6637 254.578 97.7231 254.732 97.9371C255.289 98.7454 255.811 99.5894 256.285 100.457C256.416 100.695 256.333 100.992 256.096 101.111C255.989 101.17 255.87 101.182 255.752 101.158ZM312.829 114.151C312.58 114.092 312.414 113.854 312.462 113.592C312.616 112.724 312.663 111.785 312.616 110.811C312.616 110.537 312.817 110.323 313.09 110.311C313.351 110.311 313.564 110.502 313.588 110.763C313.647 111.809 313.588 112.82 313.422 113.771C313.375 114.032 313.126 114.21 312.865 114.163C312.865 114.163 312.853 114.163 312.841 114.163L312.829 114.151ZM296.867 109.646C296.606 109.586 296.44 109.325 296.499 109.063C296.535 108.909 296.642 108.778 296.784 108.719C297.65 108.362 298.456 107.91 299.215 107.363C299.428 107.209 299.737 107.256 299.891 107.482C300.045 107.708 299.998 108.005 299.772 108.16C298.954 108.742 298.077 109.23 297.152 109.622C297.057 109.658 296.95 109.67 296.855 109.646H296.867ZM280.158 104.38C280.039 104.356 279.932 104.285 279.861 104.178C279.292 103.322 278.841 102.407 278.521 101.468C278.438 101.218 278.568 100.944 278.829 100.849C279.078 100.766 279.351 100.897 279.446 101.158C279.731 102.014 280.146 102.846 280.679 103.643C280.834 103.869 280.762 104.166 280.549 104.32C280.442 104.392 280.3 104.415 280.169 104.392L280.158 104.38ZM251.471 95.3219C251.388 95.2982 251.305 95.2506 251.233 95.1912C250.569 94.5017 249.882 93.8598 249.146 93.2536C248.933 93.0872 248.909 92.7781 249.075 92.576C249.241 92.3739 249.55 92.3383 249.751 92.5047C250.51 93.1347 251.233 93.8004 251.921 94.5136C252.111 94.7038 252.099 95.0129 251.921 95.203C251.803 95.3219 251.637 95.3695 251.471 95.3219ZM302.488 105.188C302.227 105.129 302.061 104.867 302.12 104.606C302.132 104.546 302.168 104.475 302.203 104.427C302.773 103.655 303.247 102.835 303.591 102.014C303.698 101.765 303.982 101.658 304.22 101.753C304.469 101.86 304.575 102.145 304.48 102.383C304.101 103.274 303.591 104.154 302.974 104.998C302.856 105.152 302.666 105.224 302.476 105.188H302.488ZM312.212 106.983C312.046 106.947 311.904 106.817 311.857 106.65C311.584 105.735 311.252 104.843 310.884 103.976C310.778 103.726 310.884 103.441 311.133 103.334C311.382 103.227 311.667 103.334 311.774 103.583C312.165 104.487 312.509 105.414 312.794 106.365C312.865 106.626 312.722 106.888 312.473 106.971C312.39 106.995 312.307 106.995 312.224 106.971L312.212 106.983ZM245.731 90.9237C245.731 90.9237 245.648 90.9 245.612 90.8762C244.782 90.4245 243.916 90.0441 243.027 89.735C242.778 89.6518 242.636 89.3665 242.731 89.1169C242.814 88.8673 243.086 88.7365 243.347 88.8197C244.284 89.1526 245.197 89.5448 246.075 90.0203C246.312 90.1511 246.395 90.4364 246.276 90.6741C246.17 90.8643 245.956 90.9713 245.743 90.9237H245.731ZM237.951 88.8792C237.69 88.8197 237.524 88.5582 237.596 88.2967C237.643 88.0827 237.833 87.9282 238.058 87.9282C238.366 87.9282 238.663 87.9282 238.971 87.9401C239.232 87.952 239.446 88.1778 239.434 88.4512C239.422 88.7128 239.197 88.9267 238.924 88.9148C238.639 88.9029 238.355 88.8911 238.07 88.9029C238.034 88.9029 237.987 88.9029 237.951 88.8911V88.8792ZM278.497 97.4854C278.248 97.4259 278.082 97.1763 278.13 96.9267C278.153 96.8197 278.177 96.7008 278.201 96.5938C278.391 95.7499 278.735 94.894 279.197 94.0619C279.327 93.8242 279.624 93.741 279.849 93.8717C280.075 94.0025 280.169 94.2996 280.039 94.5255C279.612 95.2744 279.316 96.047 279.138 96.7959C279.114 96.891 279.09 96.9861 279.078 97.0812C279.031 97.3427 278.782 97.521 278.521 97.4735C278.521 97.4735 278.509 97.4735 278.497 97.4735V97.4854ZM309.177 100.398C309.058 100.374 308.939 100.291 308.88 100.184C308.37 99.3754 307.825 98.5908 307.244 97.842C307.078 97.628 307.113 97.3308 307.327 97.1644C307.54 96.998 307.837 97.0455 308.003 97.2476C308.607 98.0322 309.165 98.8286 309.698 99.6726C309.841 99.8984 309.77 100.196 309.544 100.338C309.437 100.41 309.307 100.433 309.177 100.398ZM304.872 98.4482C304.635 98.3888 304.48 98.1748 304.504 97.9371C304.587 97.0336 304.599 96.0708 304.563 95.0961C304.563 94.9891 304.587 94.8702 304.658 94.787C304.552 94.7751 304.457 94.7276 304.386 94.6562C303.698 93.9906 302.986 93.3725 302.227 92.79C302.014 92.6236 301.99 92.3145 302.156 92.1124C302.322 91.9104 302.619 91.8747 302.82 92.0292C303.603 92.6355 304.338 93.2774 305.05 93.9668C305.228 94.1332 305.251 94.4066 305.097 94.6087C305.334 94.6444 305.5 94.8346 305.512 95.0723C305.56 96.0946 305.536 97.0931 305.453 98.0322C305.429 98.2937 305.192 98.4958 304.931 98.472C304.907 98.472 304.884 98.472 304.86 98.472L304.872 98.4482ZM282.304 91.4705C282.043 91.4111 281.877 91.1496 281.936 90.8881C281.96 90.7811 282.019 90.686 282.102 90.6266C282.885 89.9965 283.739 89.4497 284.64 89.0099C284.877 88.8911 285.174 88.9861 285.293 89.2239C285.411 89.4616 285.316 89.7588 285.079 89.8777C284.237 90.2818 283.454 90.7811 282.731 91.3636C282.612 91.4586 282.458 91.4943 282.316 91.4586L282.304 91.4705ZM288.91 88.7127C288.649 88.6533 288.483 88.3918 288.542 88.1303C288.589 87.9282 288.755 87.7856 288.957 87.7618C289.918 87.6429 290.926 87.6191 291.945 87.6786C292.206 87.6905 292.408 87.9282 292.396 88.1897C292.384 88.4512 292.147 88.6652 291.886 88.6414C290.926 88.582 289.989 88.6058 289.087 88.7127C289.028 88.7127 288.969 88.7127 288.921 88.7127H288.91ZM298.753 90.5315C298.753 90.5315 298.681 90.5077 298.646 90.4958C297.78 90.056 296.903 89.6994 296.037 89.4141C295.788 89.3309 295.645 89.0575 295.728 88.8078C295.811 88.5582 296.084 88.4156 296.333 88.4988C297.246 88.796 298.171 89.1763 299.085 89.6281C299.322 89.7469 299.417 90.0441 299.298 90.2818C299.203 90.4839 298.978 90.5909 298.753 90.5315ZM304.409 91.2209C304.22 91.1734 304.077 91.0307 304.042 90.8405C303.864 89.9014 303.65 88.9624 303.401 88.0352C303.33 87.7737 303.484 87.5122 303.745 87.4408C304.006 87.3695 304.267 87.524 304.338 87.7856C304.587 88.7365 304.812 89.6875 304.99 90.6503C305.038 90.9118 304.872 91.1615 304.611 91.2209C304.54 91.2328 304.48 91.2209 304.409 91.2209ZM302.488 84.2195C302.334 84.1838 302.192 84.0649 302.144 83.8985C301.836 82.9832 301.504 82.0798 301.16 81.1764C301.065 80.9268 301.184 80.6415 301.433 80.5464C301.682 80.4513 301.966 80.5701 302.061 80.8198C302.061 80.8198 302.061 80.8317 302.061 80.8436C302.405 81.7589 302.737 82.6742 303.045 83.5895C303.128 83.8391 302.998 84.1125 302.749 84.2076C302.666 84.2313 302.571 84.2432 302.488 84.2195ZM299.903 77.4201C299.749 77.3844 299.618 77.2775 299.559 77.1348C299.191 76.2433 298.824 75.3518 298.456 74.4483C298.349 74.1987 298.468 73.9134 298.717 73.8183C298.966 73.7232 299.251 73.8302 299.345 74.0798C299.713 74.9833 300.093 75.8748 300.448 76.7663C300.543 77.0159 300.425 77.3012 300.187 77.3963C300.093 77.432 299.998 77.4439 299.891 77.4201H299.903ZM297.14 70.7039C296.986 70.6683 296.855 70.5613 296.796 70.4187C296.428 69.5152 296.072 68.6237 295.717 67.7084C295.622 67.4588 295.74 67.1735 295.989 67.0784C296.238 66.9833 296.523 67.1022 296.618 67.3518C296.974 68.2552 297.329 69.1467 297.697 70.0383C297.804 70.2879 297.685 70.5732 297.436 70.6683C297.341 70.7039 297.246 70.7158 297.14 70.6921V70.7039ZM294.531 63.9165C294.365 63.8808 294.234 63.7619 294.187 63.6074C293.867 62.6921 293.558 61.7649 293.274 60.8258C293.191 60.5643 293.333 60.3028 293.594 60.2196C293.855 60.1364 294.116 60.279 294.199 60.5406C294.483 61.4559 294.78 62.3712 295.1 63.2865C295.183 63.5361 295.052 63.8214 294.803 63.9046C294.72 63.9402 294.626 63.9402 294.531 63.9165ZM292.491 56.9507C292.313 56.9031 292.171 56.7724 292.123 56.5822C291.922 55.6907 291.744 54.7872 291.602 53.8838L291.578 53.6936C291.554 53.4321 291.744 53.1825 292.005 53.1587C292.254 53.135 292.491 53.3014 292.538 53.551L292.562 53.7293C292.704 54.6089 292.87 55.5005 293.072 56.3682C293.131 56.6297 292.965 56.8912 292.704 56.9507C292.633 56.9626 292.562 56.9626 292.491 56.9507ZM291.862 49.7472C291.625 49.6877 291.459 49.4619 291.495 49.2122C291.554 48.713 291.649 48.2137 291.756 47.7264C291.862 47.239 292.005 46.7516 292.171 46.288C292.266 46.0384 292.538 45.9076 292.787 45.9909C293.036 46.0741 293.167 46.3594 293.084 46.609C292.93 47.0488 292.799 47.4886 292.693 47.9403C292.586 48.392 292.503 48.8556 292.444 49.3311C292.408 49.5926 292.171 49.7828 291.898 49.7472C291.886 49.7472 291.862 49.7472 291.851 49.7472H291.862ZM294.649 43.1499C294.388 43.0904 294.222 42.8289 294.294 42.5674C294.305 42.4961 294.341 42.4248 294.388 42.3653C295.029 41.5927 295.764 40.8913 296.57 40.297C296.784 40.1425 297.092 40.1781 297.246 40.404C297.401 40.6179 297.365 40.927 297.14 41.0815C296.393 41.6402 295.717 42.2702 295.124 42.9953C295.005 43.138 294.815 43.1974 294.637 43.1618L294.649 43.1499ZM316.482 44.0176C316.399 43.9938 316.316 43.9582 316.245 43.8869C315.58 43.2212 314.869 42.5912 314.11 42.0206C313.896 41.8542 313.849 41.557 314.015 41.343C314.181 41.1291 314.478 41.0815 314.691 41.2479C315.486 41.8423 316.233 42.4961 316.932 43.1974C317.122 43.3876 317.122 43.6967 316.932 43.8869C316.814 44.0057 316.648 44.0533 316.482 44.0176ZM300.626 39.2272C300.365 39.1677 300.199 38.9062 300.259 38.6447C300.294 38.4783 300.425 38.3356 300.591 38.2881C301.551 38.0028 302.536 37.8126 303.544 37.7413C303.804 37.7175 304.042 37.9196 304.065 38.193C304.089 38.4545 303.887 38.6922 303.615 38.716C302.69 38.7873 301.765 38.9538 300.875 39.2272C300.792 39.2509 300.709 39.2509 300.626 39.2272ZM310.552 39.9166C310.552 39.9166 310.493 39.9047 310.469 39.8928C309.639 39.5362 308.773 39.2509 307.884 39.0488L307.789 39.0251C307.528 38.9656 307.362 38.7041 307.421 38.4426C307.481 38.1811 307.742 38.0147 308.003 38.0741L308.097 38.0979C309.022 38.3119 309.947 38.6209 310.837 39.0013C311.086 39.1083 311.193 39.3936 311.086 39.6313C310.991 39.8453 310.766 39.9642 310.529 39.9166H310.552Z" fill="#472C27"/>
<path d="M71.0826 58.6861C70.9284 58.7694 70.7505 58.7575 70.6082 58.6743C70.1932 58.4246 69.7781 58.1988 69.3512 57.9729C69.114 57.8422 69.0191 57.545 69.1496 57.3073C69.2682 57.0695 69.5646 56.9744 69.8018 57.0933C70.2525 57.3191 70.6912 57.5688 71.13 57.8303C71.3672 57.9729 71.4384 58.2701 71.2961 58.5078C71.2486 58.5911 71.1775 58.6505 71.0945 58.6861H71.0826ZM117.558 87.2031C117.558 87.2031 117.499 87.2268 117.463 87.2387C116.479 87.5002 115.471 87.6667 114.463 87.738C114.19 87.7618 113.953 87.5478 113.941 87.2863C113.917 87.0129 114.131 86.7751 114.404 86.7632C115.352 86.6919 116.301 86.5374 117.226 86.2997C117.487 86.2283 117.76 86.3829 117.831 86.6444C117.89 86.8702 117.783 87.108 117.582 87.2031H117.558ZM110.241 87.4408C110.146 87.4884 110.039 87.5121 109.933 87.4884C108.996 87.3338 108.035 87.1199 106.992 86.8346C106.731 86.7633 106.577 86.4899 106.66 86.2283C106.731 85.9668 106.992 85.8242 107.253 85.8836C108.261 86.157 109.186 86.3591 110.087 86.5136C110.36 86.5612 110.537 86.8108 110.49 87.0842C110.466 87.2387 110.371 87.3695 110.229 87.4408H110.241ZM103.126 85.42C103.007 85.4795 102.865 85.4913 102.734 85.4438C101.786 85.0991 100.837 84.7306 99.9593 84.374C99.7102 84.2789 99.5798 83.9936 99.6865 83.7321C99.7814 83.4824 100.066 83.3517 100.327 83.4587C101.204 83.8034 102.141 84.1719 103.078 84.5166C103.339 84.6117 103.458 84.897 103.375 85.1466C103.327 85.2655 103.244 85.3606 103.137 85.42H103.126ZM78.5538 98.0084C78.5538 98.0084 78.5063 98.0321 78.4826 98.0321C77.439 98.3887 76.4073 98.5552 75.4111 98.5433C75.1384 98.5433 74.9249 98.3174 74.9249 98.044C74.9249 97.7706 75.1502 97.5567 75.423 97.5567C76.3124 97.5685 77.2256 97.414 78.1624 97.1049C78.4233 97.0217 78.6961 97.1525 78.7909 97.414C78.874 97.6399 78.7672 97.9014 78.5538 98.0084ZM82.4317 95.8687C82.1945 95.9876 81.898 95.8925 81.7676 95.6547C81.6608 95.4408 81.7201 95.1792 81.9099 95.0366C82.6807 94.4422 83.3685 93.7766 83.9615 93.0634C84.1394 92.8494 84.4477 92.8256 84.6493 92.992C84.8628 93.1585 84.8865 93.4794 84.7205 93.6815C84.0919 94.4541 83.3448 95.1674 82.5147 95.8093C82.491 95.833 82.4672 95.8449 82.4435 95.8568L82.4317 95.8687ZM86.689 89.949C86.4519 90.0797 86.1554 89.9846 86.0249 89.735C85.9656 89.6161 85.9538 89.4854 85.9894 89.3546C86.274 88.475 86.4756 87.5359 86.5823 86.5612C86.606 86.2878 86.8551 86.0976 87.1278 86.1213C87.4006 86.1451 87.5903 86.3948 87.5666 86.6682C87.4599 87.7142 87.2464 88.7246 86.9262 89.6637C86.8788 89.7944 86.7958 89.8895 86.689 89.949ZM71.5332 97.0336C71.3672 97.1168 71.1537 97.1049 70.9996 96.9861C70.1813 96.3323 69.5053 95.524 68.9954 94.5611C68.865 94.3234 68.9598 94.0262 69.197 93.8955C69.4342 93.7647 69.7307 93.8598 69.8611 94.0975C70.2999 94.9296 70.8928 95.6428 71.6044 96.2134C71.8179 96.3798 71.8534 96.6889 71.6874 96.9029C71.64 96.9623 71.5925 96.998 71.5214 97.0336H71.5332ZM96.2118 82.7573C96.0932 82.8168 95.9509 82.8287 95.8205 82.7811C94.8006 82.4007 93.8993 82.0917 93.0455 81.8064C92.7846 81.7232 92.6423 81.4498 92.7253 81.1882C92.8083 80.9267 93.081 80.7841 93.3419 80.8673C94.2907 81.1764 95.2275 81.4973 96.1644 81.8539C96.4134 81.949 96.5439 82.2343 96.449 82.4839C96.4016 82.6028 96.3186 82.6979 96.2118 82.7454V82.7573ZM87.1871 82.6147C86.9499 82.7454 86.6535 82.6503 86.523 82.4007C86.4993 82.3532 86.4756 82.2937 86.4756 82.2462C86.3807 81.5924 86.2621 80.9386 86.108 80.2967C86.0487 80.2967 85.9894 80.2967 85.9301 80.2848C85.6573 80.2611 85.4557 80.0233 85.4794 79.7499C85.5031 79.5359 85.6573 79.3576 85.8708 79.3101C85.8589 79.0724 86.0012 78.8584 86.2384 78.799C86.4993 78.7276 86.7721 78.8822 86.8432 79.1437C86.8669 79.2269 86.8906 79.3101 86.9025 79.3933C87.6022 79.4765 88.3019 79.5954 89.0016 79.7261C89.2625 79.7737 89.4403 80.0352 89.3929 80.3086C89.3455 80.582 89.0846 80.7484 88.8118 80.7009C88.2663 80.5939 87.7089 80.4988 87.1515 80.4275C87.2701 80.9862 87.3769 81.5449 87.4599 82.1154C87.4836 82.3175 87.3887 82.5315 87.199 82.6266L87.1871 82.6147ZM68.8057 90.472C68.5685 90.6028 68.272 90.5077 68.1416 90.258C68.0941 90.1748 68.0823 90.0797 68.0941 89.9965C68.1771 88.9623 68.4499 87.9519 68.9005 86.9772C69.0073 86.7276 69.3037 86.6206 69.5528 86.7276C69.8018 86.8346 69.9086 87.1318 69.8018 87.3814C69.3986 88.2372 69.1614 89.1406 69.0784 90.0678C69.0666 90.2343 68.9598 90.3888 68.8175 90.4601L68.8057 90.472ZM81.7676 80.3086C81.7676 80.3086 81.6608 80.3562 81.6015 80.3562C80.6528 80.475 79.7041 80.6652 78.7791 80.9267C78.5182 80.9981 78.2454 80.8435 78.1743 80.582C78.1031 80.3205 78.2573 80.0471 78.5182 79.9758C79.4906 79.7024 80.4868 79.5003 81.4829 79.3814C81.7557 79.3458 81.9929 79.5478 82.0285 79.8094C82.0522 80.0114 81.9454 80.2135 81.7676 80.3086ZM72.2922 84.16C72.055 84.2908 71.7586 84.1957 71.6281 83.946C71.5214 83.744 71.5688 83.4943 71.7467 83.3398C72.4938 82.7098 73.3595 82.1511 74.3082 81.6518C74.5454 81.5211 74.8419 81.6162 74.9723 81.8658C75.1028 82.1035 75.0079 82.4007 74.7589 82.5315C73.8695 82.9951 73.0749 83.5181 72.3752 84.1006C72.3515 84.1243 72.3159 84.1481 72.2804 84.16H72.2922ZM85.1118 75.5181C84.8746 75.6489 84.5781 75.5538 84.4477 75.3042C84.4477 75.3042 84.4477 75.2804 84.4358 75.2685C84.0445 74.377 83.6294 73.4974 83.1669 72.6296C83.0365 72.3919 83.1313 72.0947 83.3685 71.9639C83.6057 71.8332 83.9022 71.9283 84.0326 72.166C84.507 73.0456 84.9339 73.9491 85.3371 74.8762C85.4438 75.114 85.3371 75.3874 85.1118 75.5063V75.5181ZM81.5185 69.0516C81.2932 69.1705 81.0323 69.0992 80.89 68.8971C80.3445 68.0888 79.7634 67.3042 79.1586 66.5316C78.9925 66.3176 79.0281 66.0085 79.2416 65.8421C79.4551 65.6757 79.7634 65.7114 79.9294 65.9253C80.5461 66.7099 81.139 67.5182 81.7083 68.3384C81.8624 68.5642 81.8031 68.8733 81.5778 69.0278C81.566 69.0278 81.5422 69.0516 81.5304 69.0635L81.5185 69.0516ZM76.8342 63.334C76.6445 63.4291 76.4073 63.3934 76.2531 63.2389C75.5653 62.5494 74.8538 61.8838 74.1185 61.2419C73.9169 61.0636 73.8932 60.7545 74.0592 60.5524C74.2371 60.3503 74.5454 60.3266 74.7589 60.493C75.5179 61.1468 76.2531 61.8243 76.9528 62.5375C77.1425 62.7277 77.1425 63.0487 76.9528 63.2389C76.9172 63.2745 76.8816 63.2983 76.8342 63.3221V63.334ZM121.721 85.4319C121.483 85.5508 121.187 85.4557 121.056 85.2179C120.938 84.9921 121.021 84.7068 121.246 84.576C121.661 84.3264 122.064 84.0649 122.456 83.7915C122.681 83.637 122.989 83.6845 123.144 83.9104C123.298 84.1362 123.25 84.4453 123.025 84.5998C122.61 84.897 122.183 85.1704 121.756 85.4319C121.756 85.4319 121.744 85.4319 121.732 85.4438L121.721 85.4319Z" fill="#472C27"/>
<path d="M189.448 59.8986C189.329 59.7916 189.258 59.6371 189.27 59.4707C189.305 58.9239 189.341 58.3771 189.388 57.8422C189.412 57.545 189.673 57.3191 189.97 57.3429C190.266 57.3667 190.491 57.6163 190.468 57.9135C190.42 58.4484 190.385 58.9714 190.349 59.5064C190.337 59.8035 190.076 60.0294 189.78 60.0175C189.661 60.0175 189.543 59.9699 189.448 59.8867V59.8986ZM190.254 53.5628C190.112 53.4321 190.041 53.2419 190.088 53.0517C190.325 51.9581 190.61 50.9002 190.942 49.9254C191.037 49.6401 191.345 49.4856 191.618 49.5807C191.903 49.6758 192.045 49.973 191.95 50.2583C191.63 51.1973 191.357 52.2077 191.132 53.2657C191.072 53.5628 190.788 53.7412 190.491 53.6817C190.396 53.6579 190.313 53.6223 190.254 53.5628ZM193.088 46.1691C192.899 45.9908 192.851 45.7055 192.994 45.4797C193.563 44.5406 194.227 43.6729 194.962 42.8527C195.164 42.6268 195.508 42.6149 195.721 42.817C195.935 43.0191 195.958 43.3519 195.757 43.5778C195.069 44.3385 194.452 45.1706 193.907 46.0384C193.753 46.288 193.42 46.3712 193.171 46.2167C193.148 46.2048 193.124 46.181 193.1 46.1572L193.088 46.1691ZM198.65 40.5941C198.425 40.4039 198.413 40.0592 198.603 39.8334C198.638 39.7977 198.674 39.762 198.721 39.7264C199.599 39.1796 200.571 38.6684 201.603 38.2286C201.876 38.1097 202.196 38.2286 202.315 38.502C202.433 38.7754 202.315 39.0964 202.03 39.2152C201.046 39.6432 200.121 40.1186 199.291 40.6417C199.089 40.7724 198.828 40.7487 198.65 40.5941ZM205.967 37.6105C205.742 37.4084 205.73 37.0756 205.92 36.8497C205.991 36.7665 206.086 36.7071 206.193 36.6833C207.165 36.4337 208.197 36.2078 209.323 35.9939C209.62 35.9344 209.893 36.1246 209.952 36.4099C210.011 36.6952 209.821 36.9805 209.525 37.0399C209.525 37.0399 209.525 37.0399 209.513 37.0399C208.41 37.2539 207.402 37.4678 206.454 37.7175C206.276 37.765 206.098 37.7175 205.967 37.5986V37.6105ZM213.771 36.184C213.545 35.982 213.533 35.6491 213.723 35.4233C213.806 35.3282 213.925 35.2569 214.055 35.245C215.111 35.1142 216.154 34.9835 217.21 34.8646C217.506 34.8289 217.767 35.0429 217.803 35.3401C217.838 35.6372 217.625 35.8988 217.328 35.9344C216.285 36.0533 215.229 36.1722 214.186 36.3148C214.031 36.3386 213.877 36.291 213.759 36.184H213.771ZM221.645 35.3044C221.42 35.1023 221.408 34.7695 221.597 34.5436C221.692 34.4367 221.811 34.3772 221.941 34.3653C222.985 34.2584 224.04 34.1395 225.084 34.0087C225.381 33.9731 225.653 34.1751 225.689 34.4723C225.724 34.7695 225.523 35.0429 225.226 35.0786C225.226 35.0786 225.214 35.0786 225.203 35.0786C224.147 35.1974 223.104 35.3163 222.048 35.4352C221.894 35.4471 221.752 35.3995 221.633 35.3044H221.645ZM229.507 34.3178C229.282 34.1157 229.27 33.7829 229.46 33.557C229.543 33.4619 229.662 33.4025 229.78 33.3787C230.824 33.2242 231.856 33.0459 232.887 32.8676C233.184 32.82 233.456 33.0102 233.504 33.2955C233.551 33.5808 233.362 33.8661 233.065 33.9255C232.022 34.1157 230.966 34.294 229.923 34.4485C229.768 34.4723 229.602 34.4248 229.496 34.3178H229.507ZM237.287 32.82C237.062 32.6179 237.05 32.2851 237.24 32.0593C237.311 31.976 237.406 31.9166 237.512 31.8928C238.532 31.6432 239.54 31.3698 240.548 31.0726C240.833 30.9894 241.129 31.1558 241.212 31.4411C241.295 31.7264 241.129 32.0236 240.845 32.1068C239.825 32.404 238.793 32.6893 237.761 32.9389C237.595 32.9864 237.406 32.9389 237.275 32.82H237.287ZM244.877 30.4545C244.651 30.2524 244.64 29.9196 244.829 29.6937C244.889 29.6343 244.96 29.5749 245.043 29.5511C245.541 29.3609 246.039 29.1588 246.525 28.9449C246.798 28.8379 247.118 28.9686 247.225 29.242C247.332 29.5154 247.201 29.8126 246.94 29.9315C246.442 30.1455 245.932 30.3475 245.422 30.5496C245.232 30.6209 245.019 30.5853 244.877 30.4545Z" fill="#472C27"/>
<path d="M61.3705 58.0799L58.4176 45.8719L40.131 43.4945L0.486328 47.655L37.5457 53.0635L54.8243 52.6237L61.3705 58.068V58.0799Z" fill="#F09947"/>
<path d="M61.596 58.5079C61.4181 58.5911 61.2165 58.5792 61.0623 58.4484L54.6466 53.1112L37.5578 53.5391C37.5578 53.5391 37.4985 53.5391 37.4748 53.5391L0.41538 48.1305C0.154482 48.0948 -0.0352624 47.8452 0.0121736 47.5837C0.0477506 47.3697 0.225636 47.1914 0.439098 47.1677L40.0838 43.0072C40.0838 43.0072 40.1549 43.0072 40.1905 43.0072L58.4771 45.3846C58.6787 45.4084 58.8328 45.551 58.8803 45.7531L61.8332 57.9611C61.8806 58.175 61.7857 58.4009 61.5841 58.5079H61.596ZM37.5696 52.5762L54.8008 52.1364C54.9194 52.1364 55.0261 52.1721 55.121 52.2434L60.5524 56.7605L58.0264 46.288L40.1193 43.9582L4.36443 47.7145L37.5696 52.5644V52.5762Z" fill="#472C27"/>
<path d="M55.9037 50.5911L61.3707 58.0799L47.7803 56.1542L55.9037 50.5911Z" fill="#472C27"/>
<path d="M61.5962 58.5079C61.5131 58.5555 61.4064 58.5673 61.3115 58.5555L47.7211 56.6298C47.4602 56.5941 47.2705 56.3445 47.306 56.083C47.3298 55.9522 47.4009 55.8214 47.5077 55.7501L55.6311 50.187C55.8445 50.0444 56.141 50.0919 56.2952 50.3059L61.7622 57.7947C61.9163 58.0087 61.8689 58.3177 61.6554 58.4722C61.6317 58.4841 61.608 58.496 61.5962 58.5079ZM49.073 55.8571L60.3035 57.4381L55.7852 51.2568L49.073 55.8571Z" fill="#472C27"/>
<path d="M0.486328 47.655L55.9035 50.5911L48.2188 65.0101L0.486328 47.655Z" fill="#FDEED7"/>
<path d="M0.486328 47.655L48.2307 65.0101L49.8435 61.9789L0.486328 47.655Z" fill="#F09947"/>
<path d="M62.4141 38.3594L0.486328 47.655L58.4176 45.872L62.4141 38.3713V38.3594Z" fill="#FDEED7"/>
<path d="M58.4176 45.872L0.486328 47.655L59.6272 43.8868L58.4176 45.872Z" fill="#F09947"/>
<path d="M48.4443 65.4379C48.3257 65.4974 48.1834 65.5093 48.053 65.4617L0.320458 48.1067C0.0714187 48.0116 -0.0590304 47.7382 0.0239826 47.4886C0.0951366 47.2865 0.29674 47.1557 0.510202 47.1676L55.9273 50.1037C56.1882 50.1156 56.4017 50.3414 56.378 50.6149C56.378 50.6862 56.3543 50.7575 56.3187 50.8169L48.634 65.2359C48.5866 65.3191 48.5155 65.3904 48.4324 65.4379H48.4443ZM3.70027 48.3088L47.9937 64.4157L55.1209 51.0309L3.70027 48.3088Z" fill="#472C27"/>
<path d="M58.6429 46.2999C58.5837 46.3356 58.5125 46.3475 58.4413 46.3594L0.498243 48.1424C0.237345 48.1424 0.0238824 47.9522 0.000164428 47.7026C-0.0235536 47.453 0.154331 47.2152 0.41523 47.1796L62.3548 37.8839C62.6157 37.8483 62.8648 38.0266 62.9003 38.2881C62.9122 38.3951 62.9003 38.4902 62.8529 38.5853L58.8564 46.086C58.809 46.1692 58.7378 46.2405 58.6548 46.288L58.6429 46.2999ZM8.64538 46.9181L58.1211 45.3965L61.5365 38.9894L8.64538 46.9299V46.9181Z" fill="#472C27"/>
<path d="M250 28.3743L253.676 13.4799L274.418 6.94202L308.157 9.62848L282.956 19.566L262.037 22.1574L250 28.3862V28.3743Z" fill="#F09947"/>
<path d="M249.68 28.7428C249.55 28.6239 249.49 28.4337 249.526 28.2673L253.202 13.3729C253.238 13.2065 253.368 13.0757 253.522 13.0282L274.264 6.49033C274.264 6.49033 274.382 6.46655 274.442 6.46655L308.18 9.15302C308.441 9.17679 308.643 9.40264 308.619 9.67604C308.607 9.86624 308.489 10.0208 308.311 10.0921L283.11 20.0296C283.11 20.0296 283.027 20.0534 282.992 20.0653L262.156 22.6448L250.202 28.8379C250.024 28.933 249.81 28.8973 249.656 28.7666L249.68 28.7428ZM254.08 13.8603L250.724 27.459L261.812 21.7176C261.812 21.7176 261.918 21.67 261.978 21.67L282.838 19.0905L306.034 9.94944L274.477 7.44129L254.08 13.8603Z" fill="#472C27"/>
<path d="M256.202 21.1113L250.012 28.3862L261.254 25.3431L256.202 21.1113Z" fill="#472C27"/>
<path d="M249.68 28.7428C249.478 28.5645 249.467 28.2673 249.633 28.0652L255.823 20.7904C256.001 20.5883 256.297 20.5645 256.499 20.731L261.551 24.9627C261.681 25.0816 261.753 25.2599 261.717 25.4382C261.681 25.6165 261.539 25.7592 261.373 25.8067L250.131 28.8498C249.977 28.8973 249.81 28.8498 249.68 28.7428ZM256.262 21.7889L251.388 27.5065L260.235 25.1173L256.262 21.7889Z" fill="#472C27"/>
<path d="M249.383 0.487427L308.156 9.62853L253.676 13.4799L249.383 0.487427Z" fill="#FDEED7"/>
<path d="M249.383 0.487427L308.156 9.62853L250.344 3.41163L249.371 0.487427H249.383Z" fill="#F09947"/>
<path d="M261.527 37.2182L308.168 9.62842L256.202 21.1113L261.527 37.23V37.2182Z" fill="#FDEED7"/>
<path d="M256.202 21.1113L308.168 9.62842L257.305 24.6655L256.202 21.0994V21.1113Z" fill="#F09947"/>
<path d="M253.356 13.8364C253.296 13.777 253.249 13.7057 253.213 13.6225L248.92 0.62996C248.837 0.380333 248.968 0.106932 249.229 0.0118358C249.3 -0.0119382 249.383 -0.0238252 249.454 -0.0119382L308.227 9.12917C308.488 9.16483 308.666 9.41445 308.63 9.68786C308.595 9.91371 308.405 10.0801 308.192 10.092L253.711 13.9434C253.581 13.9434 253.451 13.9077 253.356 13.8245V13.8364ZM250.094 1.08167L254.02 12.9687L303.851 9.45012L250.094 1.08167Z" fill="#472C27"/>
<path d="M261.207 37.5867C261.147 37.5272 261.1 37.4559 261.064 37.3727L255.74 21.2539C255.657 21.0043 255.799 20.7309 256.048 20.6358C256.06 20.6358 256.083 20.6358 256.095 20.6239L308.061 9.14108C308.322 9.08164 308.583 9.24806 308.643 9.50957C308.69 9.71165 308.595 9.92562 308.417 10.0326L261.776 37.6223C261.598 37.7293 261.373 37.7055 261.207 37.5748V37.5867ZM256.831 21.4679L261.8 36.505L305.31 10.7577L256.831 21.4679Z" fill="#472C27"/>
<path d="M328.482 45.5985L325.861 56.9387L360.513 87.3813L343.46 56.3681L328.482 45.5985Z" fill="#472C27"/>
<path d="M360.407 87.8449C360.336 87.833 360.264 87.7855 360.193 87.7379L325.541 57.2953C325.411 57.1765 325.352 56.9982 325.387 56.8198L328.008 45.4796C328.067 45.2181 328.328 45.0636 328.589 45.123C328.648 45.1349 328.708 45.1587 328.767 45.2062L343.745 55.9759C343.745 55.9759 343.852 56.071 343.887 56.1304L360.94 87.1436C361.071 87.3813 360.988 87.6666 360.751 87.7974C360.644 87.8568 360.525 87.8687 360.407 87.8449ZM326.407 56.7604L358.77 85.1941L343.093 56.6891L328.791 46.4068L326.395 56.7604H326.407Z" fill="#472C27"/>
<path d="M309.235 57.7351L360.514 87.3813L321.782 49.6163L309.235 57.7351ZM339.191 38.3474L360.514 87.3813L328.482 45.5985L339.191 38.3474Z" fill="#FDEED7"/>
<path d="M309.235 57.7352L360.514 87.3814L311.465 56.2969L309.235 57.7352Z" fill="#F09947"/>
<path d="M360.407 87.845C360.407 87.845 360.313 87.8212 360.277 87.7974L308.999 58.1512C308.773 58.0205 308.69 57.7233 308.821 57.4855C308.856 57.4142 308.916 57.3667 308.975 57.3191L321.522 49.2003C321.712 49.0814 321.961 49.1052 322.127 49.2597L360.858 87.0247C361.048 87.2149 361.048 87.5121 360.858 87.7023C360.74 87.8212 360.573 87.8687 360.407 87.8331V87.845ZM310.161 57.7114L357.407 85.0277L321.712 50.2345L310.161 57.7114Z" fill="#472C27"/>
<path d="M328.482 45.5985L360.514 87.3814L330.676 44.1127L328.482 45.5985Z" fill="#F09947"/>
<path d="M360.407 87.8449C360.3 87.8212 360.205 87.7617 360.134 87.6666L328.103 45.8838C327.937 45.6698 327.984 45.3727 328.198 45.2062C328.198 45.2062 328.209 45.2062 328.221 45.1944L338.93 37.9433C339.049 37.8601 339.203 37.8363 339.333 37.8839C339.476 37.9195 339.582 38.0265 339.642 38.1573L360.964 87.1911C361.071 87.4408 360.964 87.7142 360.715 87.8212C360.62 87.8568 360.513 87.8687 360.419 87.8449H360.407ZM329.182 45.7055L358.497 83.946L338.977 39.0607L329.182 45.6936V45.7055Z" fill="#472C27"/>
<path d="M161.864 68.6951C166.272 68.6951 169.845 65.1134 169.845 60.6951C169.845 56.2769 166.272 52.6952 161.864 52.6952C157.456 52.6952 153.883 56.2769 153.883 60.6951C153.883 65.1134 157.456 68.6951 161.864 68.6951Z" fill="#F09947"/>
<path d="M161.864 69.1824C157.191 69.1824 153.396 65.3786 153.396 60.6951C153.396 56.0116 157.191 52.2078 161.864 52.2078C166.536 52.2078 170.331 56.0116 170.331 60.6951C170.331 65.3786 166.536 69.1824 161.864 69.1824ZM161.864 53.1825C157.725 53.1825 154.369 56.5584 154.369 60.6951C154.369 64.8318 157.737 68.2077 161.864 68.2077C165.991 68.2077 169.359 64.8318 169.359 60.6951C169.359 56.5584 165.991 53.1825 161.864 53.1825Z" fill="#472C27"/>
<path d="M160.844 65.1171C160.536 65.1171 160.251 64.9982 160.037 64.7724L157.073 61.6937C156.646 61.2419 156.658 60.5406 157.096 60.1008C157.547 59.6729 158.247 59.6847 158.686 60.1246L160.808 62.3237L164.757 57.7947C165.172 57.3311 165.884 57.3073 166.346 57.7234C166.797 58.1275 166.833 58.817 166.453 59.2806L161.698 64.7367C161.496 64.9745 161.2 65.1171 160.879 65.1171H160.856H160.844Z" fill="#472C27"/>
</g>
<defs>
<clipPath id="clip0_543_7029">
<rect width="361" height="255" fill="white"/>
</clipPath>
</defs>
</svg>
