<svg width="347" height="251" viewBox="0 0 347 251" fill="none" xmlns="http://www.w3.org/2000/svg">
<g clip-path="url(#clip0_543_6021)">
<mask id="mask0_543_6021" style="mask-type:luminance" maskUnits="userSpaceOnUse" x="0" y="147" width="96" height="94">
<path d="M95.9029 147.544H0V240.157H95.9029V147.544Z" fill="white"/>
</mask>
<g mask="url(#mask0_543_6021)">
<path d="M7.9323 202.851C7.2671 201.861 6.82781 200.745 6.6772 199.554L0.715427 156.193C0.338894 153.436 1.01665 150.628 2.61064 148.346L33.524 234.892L33.1474 234.804C30.4239 234.177 28.0392 232.535 26.4703 230.229L7.94486 202.851H7.9323Z" fill="#F09947"/>
<path d="M33.5114 235.494C33.5114 235.494 33.4236 235.494 33.3734 235.481L32.9968 235.393C30.1226 234.729 27.6124 233.012 25.9557 230.567L7.43027 203.189C6.71486 202.124 6.25046 200.908 6.07475 199.642L0.112982 156.281C-0.288653 153.373 0.426759 150.415 2.1086 148.008C2.18391 147.907 2.28432 147.832 2.39728 147.782C2.71106 147.669 3.06249 147.832 3.17545 148.146L34.0888 234.691C34.1139 234.754 34.1264 234.829 34.1264 234.892C34.1264 235.23 33.8503 235.494 33.524 235.494H33.5114ZM1.30534 156.106L7.2671 199.466C7.41772 200.557 7.81935 201.597 8.43435 202.5L26.9598 229.878C28.3027 231.858 30.2733 233.325 32.5576 234.014L2.46004 149.738C1.4183 151.681 1.00411 153.899 1.30534 156.118V156.106Z" fill="#472C27"/>
<path d="M95.3004 235.293H33.7248C34.1013 238.765 36.6366 239.555 39.4732 239.555H89.3638C94.4219 239.555 95.3004 235.293 95.3004 235.293Z" fill="#F09947"/>
<path d="M39.4732 240.157C38.0298 240.157 33.6495 240.157 33.1223 235.356C33.1223 235.33 33.1223 235.305 33.1223 235.293C33.1223 234.954 33.3984 234.691 33.7248 234.691H95.3004C95.3004 234.691 95.3883 234.691 95.4259 234.704C95.7523 234.766 95.9656 235.092 95.8903 235.418C95.8903 235.468 94.8486 240.157 89.3638 240.157H39.4732ZM34.4402 235.895C34.9171 238.026 36.4609 238.953 39.4857 238.953H89.3763C92.6647 238.953 93.9826 236.998 94.472 235.895H34.4402Z" fill="#472C27"/>
<path d="M75.3316 180.989H23.8596L33.7248 235.293H95.3004L75.3316 180.989Z" fill="#FEF8EE"/>
<path d="M33.7248 235.895C33.4361 235.895 33.1851 235.682 33.1349 235.393L23.2697 181.089C23.2697 181.089 23.2697 181.014 23.2697 180.976C23.2697 180.638 23.5458 180.375 23.8722 180.375H75.3442C75.5952 180.375 75.8211 180.537 75.909 180.776L95.8778 235.08C95.9029 235.142 95.9154 235.218 95.9154 235.293C95.9154 235.631 95.6393 235.895 95.313 235.895H33.7248ZM74.9049 181.59H24.575L34.2268 234.691H94.4344L74.9049 181.59Z" fill="#472C27"/>
<path d="M2.46002 148.146L23.8596 180.976L33.7248 235.28L9.63925 199.917L2.46002 148.146Z" fill="#472C27"/>
<path d="M33.7248 235.895C33.524 235.895 33.3357 235.794 33.2227 235.631L9.1372 200.269C9.08699 200.193 9.04934 200.106 9.03679 200.018L1.85756 148.233C1.83246 148.008 1.93287 147.769 2.12114 147.644C2.39726 147.456 2.77379 147.544 2.96206 147.82L24.3617 180.65C24.3993 180.713 24.437 180.788 24.4495 180.876L34.3147 235.18C34.3147 235.18 34.3147 235.255 34.3147 235.293C34.3147 235.631 34.0386 235.895 33.7122 235.895H33.7248ZM3.42645 150.74L10.2166 199.704L32.6077 232.598L23.2697 181.214L3.4139 150.753L3.42645 150.74Z" fill="#472C27"/>
<path d="M47.3301 222.331C47.9828 222.331 48.6103 222.77 48.7359 223.321L49.5391 226.756C49.6646 227.308 49.2379 227.771 48.5852 227.771H44.4685C43.8033 227.771 43.1757 227.32 43.0502 226.756L42.3097 223.321C42.1967 222.77 42.6235 222.331 43.2761 222.331H47.3301ZM59.4168 223.334C59.2788 222.795 58.6387 222.344 57.986 222.344H53.9446C53.2919 222.344 52.8777 222.782 53.0032 223.321L53.8442 226.744C53.9822 227.295 54.6223 227.746 55.2875 227.746H59.3792C60.0318 227.746 60.446 227.295 60.308 226.744L59.4168 223.321V223.334ZM68.6042 222.356H64.5753C63.9227 222.356 63.521 222.795 63.6717 223.334L64.6004 226.756C64.751 227.308 65.4037 227.759 66.0564 227.759H70.1355C70.7881 227.759 71.1898 227.308 71.0266 226.756L70.0351 223.346C69.8719 222.807 69.2318 222.369 68.5791 222.369L68.6042 222.356ZM79.1848 222.369H75.181C74.5409 222.369 74.1518 222.807 74.315 223.346L75.3442 226.756C75.5073 227.308 76.1725 227.759 76.8252 227.759H80.8917C81.5444 227.759 81.9335 227.308 81.7578 226.756L80.6784 223.346C80.5027 222.807 79.85 222.369 79.1973 222.369H79.1848ZM46.9536 215.687C46.8281 215.161 46.2131 214.734 45.573 214.734H41.5943C40.9542 214.734 40.5274 215.148 40.6404 215.675L41.3558 218.971C41.4688 219.511 42.0963 219.937 42.7364 219.949H46.7653C47.418 219.949 47.8322 219.523 47.7067 218.984L46.9411 215.687H46.9536ZM56.0406 214.772H52.087C51.4469 214.772 51.0327 215.186 51.1708 215.7L51.974 218.984C52.0995 219.523 52.7271 219.949 53.3798 219.949H57.3961C58.0362 219.949 58.4504 219.523 58.3123 218.984L57.4589 215.7C57.3208 215.173 56.6932 214.747 56.0657 214.747L56.0406 214.772ZM67.8637 215.737C67.7131 215.211 67.073 214.797 66.4454 214.797H62.5044C61.8643 214.797 61.4752 215.211 61.6133 215.725L62.5044 219.009C62.655 219.536 63.2951 219.974 63.9352 219.974H67.939C68.5791 219.974 68.9808 219.548 68.8176 219.022L67.8637 215.737ZM76.8126 214.822H72.8842C72.2566 214.822 71.8675 215.236 72.0181 215.75L72.9971 219.022C73.1603 219.548 73.8004 219.987 74.4405 219.987H78.4192C79.0593 219.987 79.4358 219.561 79.2727 219.034L78.2309 215.762C78.0678 215.236 77.4276 214.822 76.7875 214.822H76.8126ZM45.2467 208.366C45.1337 207.865 44.5312 207.451 43.9037 207.451H40.0003C39.3727 207.439 38.9586 207.84 39.059 208.341L39.7367 211.513C39.8497 212.027 40.4521 212.44 41.0922 212.453H45.0458C45.6859 212.466 46.1001 212.052 45.9746 211.538L45.2341 208.379L45.2467 208.366ZM55.526 208.404C55.4005 207.903 54.7855 207.489 54.1579 207.489H50.2796C49.6521 207.476 49.2505 207.877 49.376 208.379L50.1541 211.538C50.2796 212.052 50.8946 212.466 51.5222 212.466H55.4632C56.0908 212.478 56.4924 212.064 56.3669 211.55L55.5385 208.391L55.526 208.404ZM65.7551 208.442C65.6045 207.94 64.9895 207.539 64.3745 207.526H60.5088C59.8812 207.514 59.4921 207.915 59.6302 208.417L60.4837 211.575C60.6217 212.089 61.2493 212.503 61.8768 212.503H65.7928C66.4203 212.516 66.8094 212.102 66.6588 211.588L65.7426 208.442H65.7551ZM75.9466 208.479C75.7835 207.978 75.1559 207.577 74.5409 207.564H70.6877C70.0727 207.552 69.6836 207.953 69.8342 208.454L70.7756 211.601C70.9262 212.115 71.5663 212.528 72.1938 212.528H76.0972C76.7248 212.541 77.1013 212.127 76.9382 211.613L75.9466 208.467V208.479ZM43.615 201.309C43.5021 200.82 42.9122 200.431 42.2971 200.431L38.4691 200.406C37.8541 200.406 37.4399 200.795 37.5403 201.271L38.1929 204.317C38.2934 204.806 38.8958 205.22 39.5108 205.22H43.3891C44.0166 205.245 44.4183 204.844 44.3053 204.342L43.6025 201.296L43.615 201.309ZM53.681 201.372C53.5555 200.883 52.953 200.494 52.3506 200.494L48.5476 200.469C47.9326 200.469 47.531 200.858 47.6565 201.334L48.397 204.38C48.5225 204.869 49.1124 205.283 49.7399 205.283H53.6057C54.2207 205.308 54.6223 204.907 54.4968 204.418L53.7061 201.384L53.681 201.372ZM63.7219 201.422C63.5838 200.945 62.9813 200.544 62.3663 200.544L58.5759 200.519C57.9609 200.519 57.5718 200.908 57.7099 201.384L58.5383 204.418C58.6763 204.907 59.2788 205.308 59.9063 205.32H63.747C64.362 205.333 64.751 204.944 64.6004 204.455L63.7219 201.422ZM73.7251 201.472C73.5745 200.995 72.9595 200.594 72.357 200.594L68.5791 200.569C67.9767 200.569 67.6001 200.958 67.7382 201.434L68.6419 204.468C68.7925 204.957 69.4075 205.358 70.0225 205.358H73.8506C74.4656 205.37 74.8421 204.982 74.679 204.493L73.7251 201.472ZM42.0336 194.54C41.9206 194.076 41.3433 193.7 40.7408 193.687L36.988 193.662C36.3856 193.662 35.9714 194.038 36.0718 194.502L36.6994 197.435C36.7998 197.912 37.3771 198.3 37.9921 198.3L41.7951 198.325C42.4101 198.325 42.8117 197.949 42.6988 197.473L42.021 194.552L42.0336 194.54ZM51.9238 194.602C51.7983 194.138 51.221 193.762 50.6185 193.75L46.8783 193.725C46.2758 193.725 45.8868 194.088 45.9997 194.565L46.7151 197.485C46.8281 197.962 47.418 198.35 48.033 198.35L51.8234 198.376C52.4259 198.376 52.8275 197.999 52.702 197.523L51.9364 194.602H51.9238ZM61.7639 194.665C61.6258 194.201 61.0359 193.825 60.4335 193.813L56.7058 193.787C56.1033 193.787 55.7268 194.151 55.8523 194.627L56.643 197.548C56.7686 198.025 57.371 198.413 57.9735 198.413L61.7513 198.438C62.3538 198.438 62.7429 198.062 62.6048 197.586L61.7639 194.665ZM71.5788 194.728C71.4282 194.264 70.8258 193.888 70.2359 193.888L66.5208 193.863C65.9183 193.863 65.5543 194.226 65.6924 194.69L66.571 197.598C66.709 198.075 67.324 198.463 67.9265 198.463L71.6792 198.488C72.2817 198.488 72.6457 198.112 72.4951 197.636L71.5663 194.728H71.5788ZM39.2472 187.194L35.5572 187.169C34.9673 187.169 34.5657 187.52 34.6661 187.971L35.2811 190.791C35.3815 191.243 35.9463 191.619 36.5488 191.631L40.2764 191.656C40.8789 191.656 41.2805 191.293 41.1675 190.842L40.5149 188.021C40.4145 187.57 39.8497 187.206 39.2598 187.206L39.2472 187.194ZM50.2169 188.084C50.1039 187.633 49.5266 187.269 48.9367 187.269L45.2718 187.244C44.6819 187.244 44.2928 187.595 44.4057 188.046L45.096 190.867C45.209 191.318 45.7864 191.694 46.3763 191.707L50.0914 191.732C50.6938 191.732 51.0704 191.368 50.9574 190.917L50.2169 188.109V188.084ZM58.5885 187.344L54.9361 187.319C54.3462 187.319 53.9697 187.67 54.0952 188.121L54.8608 190.929C54.9863 191.381 55.5637 191.757 56.1661 191.769L59.8687 191.794C60.4586 191.794 60.8351 191.431 60.7096 190.98L59.8938 188.172C59.7683 187.72 59.1909 187.357 58.601 187.357L58.5885 187.344ZM69.5205 188.234C69.3824 187.783 68.7925 187.419 68.2026 187.419L64.5628 187.394C63.9729 187.394 63.6089 187.745 63.747 188.197L64.5879 191.005C64.7259 191.456 65.3158 191.832 65.9057 191.832L69.5958 191.857C70.1857 191.857 70.5496 191.493 70.4116 191.042L69.5205 188.234Z" fill="#F09947"/>
</g>
<mask id="mask1_543_6021" style="mask-type:luminance" maskUnits="userSpaceOnUse" x="141" y="167" width="186" height="84">
<path d="M326.228 167.225H141.99V250.937H326.228V167.225Z" fill="white"/>
</mask>
<g mask="url(#mask1_543_6021)">
<path d="M142.995 243.967C147.639 256.114 192.195 250.335 242.512 231.068C292.842 211.801 329.868 186.329 325.224 174.182C320.58 162.035 276.024 167.814 225.706 187.081C175.389 206.348 138.351 231.82 142.995 243.967Z" fill="#472C27"/>
<path d="M161.507 250.925C150.764 250.925 144.124 248.631 142.43 244.181C140.07 238.013 147.526 228.611 163.403 217.693C179.066 206.925 201.119 195.856 225.493 186.517C249.88 177.178 273.677 170.697 292.528 168.253C311.631 165.77 323.454 167.801 325.801 173.969C328.161 180.136 320.705 189.538 304.828 200.456C289.165 211.224 267.112 222.293 242.738 231.632C218.351 240.971 194.554 247.452 175.703 249.897C170.394 250.586 165.649 250.925 161.507 250.925ZM292.679 169.456C273.928 171.888 250.219 178.344 225.92 187.645C201.621 196.946 179.656 207.978 164.08 218.696C148.931 229.113 141.451 238.239 143.559 243.754C145.668 249.257 157.328 251.063 175.552 248.706C194.303 246.274 218.012 239.818 242.311 230.517C266.61 221.215 288.575 210.184 304.151 199.466C319.3 189.049 326.78 179.923 324.672 174.407C323.178 170.484 316.84 168.441 306.736 168.441C302.644 168.441 297.938 168.779 292.691 169.456H292.679Z" fill="#472C27"/>
</g>
<path d="M98.7018 144.059C98.7018 144.059 98.0491 141.013 98.2249 138.756C98.4006 136.513 100.647 136.099 100.911 139.045C101.187 141.991 103.584 146.265 103.584 146.265" fill="#F09947"/>
<path d="M103.057 146.553C102.957 146.378 100.584 142.141 100.308 139.095C100.208 137.967 99.7937 137.553 99.5553 137.553C99.3043 137.553 98.9026 137.954 98.8273 138.794C98.6641 140.925 99.2917 143.896 99.2917 143.921C99.367 144.247 99.1536 144.573 98.8273 144.648C98.501 144.723 98.1747 144.51 98.1119 144.184C98.0868 144.059 97.4467 141.025 97.6224 138.706C97.7354 137.164 98.6767 136.349 99.5427 136.337H99.5553C100.384 136.337 101.338 137.026 101.526 138.982C101.789 141.765 104.099 145.914 104.124 145.952C104.174 146.039 104.199 146.14 104.199 146.253C104.199 146.591 103.923 146.854 103.597 146.867C103.383 146.867 103.17 146.754 103.07 146.553H103.057Z" fill="#472C27"/>
<path d="M77.0511 141.439C74.202 141.439 74.1895 143.946 76.888 144.184C84.7575 144.886 87.3179 147.694 87.3179 147.694C87.3179 147.694 82.4732 146.704 78.118 147.958C75.8713 148.597 76.3357 150.74 79.3605 150.314C90.9954 149.713 98.7394 157.823 102.492 161.646C102.517 161.659 103.76 163.201 105.994 165.783L116.65 155.554C116.072 155.203 115.583 154.89 115.219 154.664C99.6556 144.611 93.0914 136.763 86.2511 131.523C83.3769 129.317 82.561 131.699 84.3935 133.191C88.8742 136.839 91.8614 142.317 91.8614 142.317C91.2339 141.464 85.8118 136.726 81.1177 135.221C78.1054 134.256 77.0888 136.35 79.8751 137.616C86.9037 140.812 89.4641 144.774 89.4641 144.774C89.4641 144.774 82.2849 141.452 77.0511 141.452V141.439Z" fill="#F09947"/>
<path d="M105.994 166.397H105.969C105.806 166.397 105.642 166.31 105.542 166.184C103.797 164.179 102.655 162.8 102.216 162.273L102.053 162.073L101.84 161.859C98.1621 158.124 90.531 150.364 79.4484 150.928C77.2896 151.229 76.3232 150.377 76.1474 149.562C75.9843 148.785 76.4738 147.807 77.9673 147.381C80.4274 146.679 83.0003 146.654 84.8579 146.779C83.3016 146.014 80.7537 145.137 76.8629 144.786C75.0555 144.623 74.2648 143.583 74.3024 142.68C74.3401 141.752 75.2187 140.825 77.0637 140.825H77.0762C80.5152 140.825 84.6822 142.191 87.2803 143.181C85.8369 141.79 83.3769 139.859 79.6366 138.155C77.7791 137.315 77.4527 136.149 77.7414 135.422C78.0678 134.569 79.3103 133.98 81.3185 134.632C83.904 135.459 86.7531 137.277 88.9244 138.907C87.6693 137.214 85.9875 135.246 84.0295 133.642C82.8874 132.714 82.4983 131.348 83.1384 130.533C83.3894 130.22 84.3935 129.305 86.6401 131.034C88.8868 132.752 91.0707 134.732 93.606 137.014C98.7394 141.64 105.115 147.393 115.57 154.15C116.035 154.451 116.512 154.752 116.989 155.04C117.039 155.065 117.077 155.103 117.114 155.14C117.34 155.379 117.34 155.767 117.102 155.993L106.446 166.222C106.333 166.335 106.182 166.385 106.032 166.385L105.994 166.397ZM115.671 155.654C115.37 155.466 115.119 155.303 114.905 155.165C104.375 148.359 97.9487 142.567 92.7902 137.916C90.28 135.648 88.1086 133.705 85.8996 132C84.77 131.135 84.1801 131.172 84.0797 131.285C83.9417 131.461 84.0672 132.112 84.7826 132.702C89.301 136.375 92.2756 141.777 92.4011 142.003C92.5517 142.266 92.4764 142.605 92.2254 142.793C91.9493 142.993 91.5727 142.931 91.3719 142.655C90.8197 141.903 85.5106 137.252 80.9294 135.785C79.6366 135.372 78.9463 135.635 78.8585 135.861C78.7832 136.049 79.0844 136.588 80.1261 137.052C87.2301 140.286 89.8658 144.259 89.9787 144.422C90.0917 144.598 90.1043 144.824 90.0164 145.012C89.8783 145.312 89.5144 145.45 89.2131 145.3C89.1378 145.262 82.1092 142.041 77.0762 142.041C76.0847 142.041 75.5324 142.404 75.5199 142.73C75.5199 143.031 75.9466 143.482 76.9633 143.57C84.9834 144.285 87.6819 147.155 87.7823 147.281C87.9204 147.418 87.9706 147.619 87.9329 147.82C87.8702 148.146 87.5438 148.359 87.2175 148.283C87.1673 148.283 82.4732 147.331 78.3062 148.534C77.5783 148.747 77.3021 149.111 77.3398 149.286C77.39 149.499 77.9422 149.9 79.348 149.7C91.0205 149.086 98.9277 157.121 102.718 160.982L102.919 161.183C102.919 161.183 103.007 161.283 103.17 161.483C104.124 162.624 105.078 163.765 106.057 164.893L115.683 155.642L115.671 155.654Z" fill="#472C27"/>
<path d="M51.9741 193.274C49.0748 194.69 50.1667 197.21 53.9572 196.37C60.0444 195.016 64.3369 192.058 68.6796 188.41C67.6127 192.998 67.55 192.509 67.3743 194.502C67.1986 196.495 69.6837 198.727 71.4157 194.189C73.1478 189.651 75.8588 181.716 79.7245 182.957C81.193 183.433 83.2514 184.612 84.8705 185.627L84.9207 185.665C85.4227 185.991 85.9122 186.304 86.4143 186.63C87.0293 187.044 87.4309 187.319 87.4309 187.319V187.282C91.3218 189.739 95.1749 191.882 98.9779 193.725L101.814 177.842C97.9864 177.303 94.0955 176.551 90.1294 175.699C89.1881 175.498 87.4937 175.185 87.4937 175.185C87.4937 175.185 77.3022 173.317 70.6376 175.762C61.9396 178.958 60.3959 180.738 54.8608 182.079C51.7231 182.844 52.5891 184.925 54.6851 184.75C57.2455 184.524 60.421 183.596 60.421 183.596C56.982 186.229 56.756 190.779 51.9741 193.261V193.274Z" fill="#F09947"/>
<path d="M69.031 197.448C68.8678 197.448 68.7298 197.423 68.6043 197.398C67.4621 197.135 66.6463 195.806 66.7592 194.439C66.8722 193.111 66.9475 192.822 67.2613 191.594C67.3617 191.193 67.4872 190.691 67.6629 190.014C63.5462 193.311 59.5047 195.743 54.0826 196.947C51.4469 197.536 50.1291 196.633 49.8027 195.693C49.5266 194.891 49.8529 193.625 51.6979 192.722C54.2709 191.381 55.4758 189.363 56.6305 187.42C57.1702 186.517 57.7225 185.589 58.4128 184.737C57.3208 184.988 55.9653 185.251 54.7353 185.351C53.4174 185.464 52.3631 184.85 52.2125 183.872C52.0745 183.045 52.6644 181.979 54.7228 181.478C57.6723 180.763 59.442 179.936 61.8894 178.782C63.9227 177.83 66.4455 176.639 70.4367 175.172C77.1892 172.69 87.1924 174.495 87.6192 174.571C88.5103 174.733 89.3889 174.909 90.2674 175.084C94.7733 176.05 98.4633 176.727 101.902 177.216C101.902 177.216 101.915 177.216 101.927 177.216C102.254 177.278 102.48 177.592 102.417 177.918L99.5803 193.8C99.5803 193.8 99.5553 193.913 99.5302 193.963C99.3795 194.264 99.0156 194.389 98.7143 194.239C94.8988 192.384 91.0456 190.253 87.2803 187.883C87.205 187.871 87.1422 187.833 87.0795 187.796C87.0795 187.796 86.6904 187.52 86.0754 187.119L85.5733 186.805C85.2345 186.592 84.9081 186.379 84.5316 186.128C82.3979 184.787 80.6659 183.884 79.5237 183.521C76.4487 182.543 73.8506 189.4 72.3068 193.499L71.968 194.402C71.0015 196.934 69.8217 197.448 69.0184 197.448H69.031ZM78.9087 182.205C79.2476 182.205 79.5865 182.255 79.9128 182.368C81.1679 182.769 82.9376 183.684 85.1843 185.1L85.247 185.151C85.5733 185.364 85.8997 185.577 86.226 185.79L86.7406 186.116C87.1171 186.367 87.4183 186.58 87.5941 186.692C87.6443 186.705 87.6945 186.73 87.7447 186.755C91.2213 188.961 94.8235 190.98 98.5135 192.81L101.099 178.344C97.7981 177.855 94.2587 177.203 89.9913 176.288C89.05 176.087 87.3807 175.774 87.3807 175.774C87.2803 175.761 77.2771 173.956 70.8384 176.326C66.8848 177.78 64.3871 178.945 62.3789 179.898C59.9566 181.039 58.0488 181.929 54.9863 182.669C53.7563 182.969 53.3547 183.446 53.3923 183.684C53.43 183.922 53.8818 184.21 54.6223 184.148C57.0824 183.935 60.2076 183.032 60.2452 183.02C60.4837 182.944 60.7473 183.032 60.8979 183.233C61.0987 183.496 61.0485 183.884 60.7849 184.085C59.4043 185.151 58.5634 186.555 57.6723 188.046C56.4297 190.14 55.1369 192.308 52.2502 193.813C52.2502 193.813 52.2502 193.813 52.2376 193.813C51.1833 194.327 50.8319 194.941 50.9574 195.292C51.0955 195.693 51.9992 196.169 53.8316 195.756C59.6302 194.465 63.7972 191.694 68.2905 187.933C68.4411 187.808 68.6294 187.758 68.8176 187.808C69.144 187.883 69.3448 188.209 69.2695 188.535C69.0059 189.663 68.7298 190.779 68.4411 191.895C68.1273 193.111 68.0771 193.324 67.9642 194.552C67.9014 195.292 68.3407 196.094 68.8678 196.219C69.3573 196.332 70.1355 195.806 70.8384 193.963L71.1772 193.073C72.8465 188.673 75.294 182.205 78.9087 182.205Z" fill="#472C27"/>
<path d="M92.6647 176.225C93.2671 179.159 94.083 186.203 88.6985 188.046C150.626 226.167 203.19 183.621 216.167 162.323L174.975 125.782C151.893 181.114 123.139 182.43 92.6772 176.213L92.6647 176.225Z" fill="#FEF8EE"/>
<path d="M139.204 203.992C122.084 203.992 105.053 198.839 88.3848 188.573C88.2592 188.498 88.1714 188.385 88.1337 188.247C88.0208 187.933 88.1965 187.583 88.5103 187.47C93.4428 185.777 92.6521 179.121 92.0873 176.338C92.0748 176.263 92.0748 176.175 92.0873 176.1C92.1501 175.774 92.4764 175.561 92.8027 175.624C121.118 181.402 150.739 182.292 174.422 125.544C174.448 125.481 174.485 125.419 174.523 125.368C174.749 125.118 175.125 125.093 175.376 125.318L216.569 161.859C216.795 162.06 216.833 162.373 216.682 162.624C210.469 172.828 190.563 194.088 159.763 201.497C152.897 203.152 146.044 203.967 139.192 203.967L139.204 203.992ZM175.201 126.81C164.608 151.906 152.056 167.551 136.845 174.646C122.411 181.377 106.86 179.685 93.4303 177.002C93.9574 180.186 94.1959 185.865 90.0164 188.147C112.759 201.861 136.129 205.96 159.499 200.344C189.484 193.136 208.976 172.665 215.389 162.449L175.213 126.81H175.201Z" fill="#472C27"/>
<path d="M241.734 231.119C255.528 225.841 268.305 220.1 279.525 214.296C279.174 203.641 279.638 111.303 223.296 88.6141C169.176 78.1845 157.202 183.082 158.621 250.373C176.945 250.875 208.047 244.018 241.734 231.131V231.119Z" fill="#FEF8EE"/>
<path d="M264.489 132.814C279.601 165.608 279.513 214.296 279.513 214.296C279.513 214.296 268.593 219.573 251.85 226.856C262.393 218.332 267.652 213.682 270.288 207.013C272.735 200.808 273.062 193.512 271.217 190.503C262.381 176.087 272.384 164.229 264.477 132.827L264.489 132.814ZM232.647 93.9793C236.412 94.5684 245.612 102.203 252.603 111.404C254.825 114.337 256.833 117.421 258.364 120.492C245.186 102.967 231.241 94.1297 221.012 95.0698C221.012 95.0698 227.677 93.2146 232.634 93.9793H232.647Z" fill="#F09947"/>
<path d="M255.854 139.809C252.879 139.809 249.968 138.944 247.482 137.315C244.156 135.134 241.935 131.812 241.207 127.976C239.801 120.467 244.696 113.046 252.352 111.065C252.666 110.99 252.992 111.178 253.08 111.491C253.168 111.817 252.98 112.156 252.666 112.244C245.625 114.061 241.119 120.881 242.412 127.75C243.077 131.26 245.11 134.294 248.16 136.299C251.21 138.305 254.913 139.032 258.565 138.343C261.05 137.879 263.372 136.763 265.255 135.146C265.506 134.933 265.895 134.958 266.108 135.209C266.322 135.459 266.297 135.848 266.046 136.061C263.987 137.829 261.477 139.032 258.778 139.534C257.799 139.722 256.82 139.809 255.854 139.809ZM199.788 91.9359C197.077 94.5057 196.437 98.1787 196.688 102.403C212.992 88.5388 219.192 85.5679 226.585 89.9428C214.122 81.218 202.499 89.3661 199.776 91.9234L199.788 91.9359ZM230.413 235.87C230.099 235.87 229.836 235.631 229.811 235.305C229.472 230.868 230.877 226.568 233.764 223.196C236.663 219.824 240.692 217.768 245.123 217.43C250.658 217.003 256.042 219.373 259.481 223.735C259.481 223.735 259.481 223.748 259.494 223.76C259.695 224.023 259.644 224.412 259.368 224.613C259.105 224.813 258.716 224.763 258.515 224.487C255.339 220.438 250.344 218.244 245.211 218.646C241.106 218.959 237.366 220.864 234.68 223.986C231.994 227.12 230.689 231.106 231.015 235.218C231.015 235.23 231.015 235.255 231.015 235.268C231.015 235.606 230.739 235.87 230.413 235.87Z" fill="#F09947"/>
<path d="M169.415 141.188C165.461 151.881 161.043 190.265 160.579 201.196C138.489 206.085 121.52 202.588 98.9779 193.712C118.269 192.12 128.034 199.328 135.941 194.452C143.848 189.563 150.312 185.577 155.232 176.075C158.483 169.794 163.365 155.604 169.415 141.188Z" fill="#472C27"/>
<path d="M160.503 251C159.863 251 159.236 251 158.596 250.975C158.269 250.975 158.018 250.699 158.006 250.386C157.604 231.57 157.843 183.471 168.636 143.407C173.77 124.366 180.573 109.95 188.869 100.535C198.458 89.6545 210.08 85.4425 223.409 88.0123C223.447 88.0123 223.485 88.0249 223.522 88.0499C258.515 102.152 278.597 146.328 280.078 212.453C280.09 213.205 280.103 213.819 280.128 214.283C280.128 214.521 280.002 214.735 279.801 214.847C268.179 220.864 255.44 226.531 241.947 231.695C210.57 243.704 179.669 251.013 160.503 251.013V251ZM241.508 230.542C254.825 225.452 267.401 219.862 278.898 213.92C278.898 213.519 278.873 213.03 278.86 212.466C278.007 174.483 269.635 107.982 223.121 89.1907C210.268 86.7337 199.06 90.8203 189.785 101.338C181.614 110.601 174.899 124.867 169.816 143.72C159.173 183.22 158.834 230.617 159.211 249.772C178.1 250.11 209.54 242.789 241.508 230.554V230.542Z" fill="#472C27"/>
<path d="M200.102 143.984C194.216 164.592 188.681 178.77 178.037 179.961C161.081 181.866 121.532 158.738 115.232 154.664C113.625 153.624 112.031 152.558 110.462 151.455C107.287 152.42 103.082 154.714 100.961 160.104C101.526 160.669 102.04 161.195 102.492 161.646C110.211 171.499 179.857 253.595 226.836 220.488C233.965 215.462 240.291 208.003 245.562 199.454C256.507 181.728 262.97 159.265 262.958 143.871" fill="#FEF8EE"/>
<path d="M174.385 211.5C174.385 203.302 181.05 196.633 189.245 196.633C197.441 196.633 204.106 203.302 204.106 211.5C204.106 219.699 197.441 226.368 189.245 226.368C181.05 226.368 174.385 219.699 174.385 211.5ZM175.602 211.5C175.602 219.034 181.727 225.152 189.258 225.152C196.789 225.152 202.914 219.022 202.914 211.5C202.914 203.979 196.789 197.849 189.258 197.849C181.727 197.849 175.602 203.979 175.602 211.5ZM195.684 125.481C192.998 123.476 191.417 120.329 191.254 116.606C191.09 112.933 192.308 109.122 194.718 105.888C197.115 102.654 200.403 100.385 203.968 99.4825C207.583 98.5674 211.059 99.1691 213.745 101.162C216.431 103.168 218.012 106.314 218.176 110.037C218.339 113.723 217.121 117.521 214.712 120.755C212.314 123.99 209.026 126.259 205.461 127.161C204.395 127.437 203.303 127.575 202.211 127.575C199.801 127.575 197.554 126.86 195.684 125.469V125.481ZM207.206 100.272C206.214 100.272 205.223 100.398 204.256 100.648C200.956 101.488 197.918 103.594 195.684 106.603C193.45 109.611 192.308 113.134 192.458 116.531C192.609 119.89 194.015 122.711 196.412 124.491C198.809 126.271 201.922 126.798 205.173 125.97C208.474 125.143 211.511 123.024 213.745 120.016C215.979 117.007 217.121 113.485 216.971 110.088C216.82 106.728 215.414 103.908 213.017 102.128C211.36 100.899 209.365 100.26 207.206 100.26V100.272Z" fill="#F09947"/>
<path d="M52.4133 193.763C52.1246 193.763 51.8862 193.562 51.8234 193.286C51.7481 192.96 51.9489 192.634 52.2753 192.559C57.1576 191.456 62.6048 187.332 62.6676 187.294C62.9311 187.106 63.2951 187.156 63.4959 187.407C63.7093 187.67 63.6591 188.046 63.3955 188.259C63.1696 188.435 57.6848 192.572 52.5388 193.737C52.4886 193.737 52.451 193.75 52.4008 193.75L52.4133 193.763Z" fill="#472C27"/>
<path d="M56.2163 189.325C58.3751 187.369 61.5882 185.752 61.5882 185.752L56.2163 189.325Z" fill="#F09947"/>
<path d="M56.2164 189.927C56.0406 189.927 55.8775 189.851 55.7645 189.726C55.5386 189.475 55.5637 189.099 55.8022 188.874C57.9861 186.893 61.174 185.276 61.2995 185.201C61.6008 185.05 61.9648 185.163 62.1154 185.464C62.266 185.765 62.153 186.128 61.8518 186.279C61.8141 186.291 58.6764 187.896 56.618 189.764C56.505 189.864 56.367 189.927 56.2164 189.927Z" fill="#472C27"/>
<path d="M142.367 202.312C142.141 202.074 142.141 201.685 142.38 201.447C145.028 198.927 146.484 195.517 146.484 191.87C146.484 184.574 140.56 178.645 133.267 178.645C129.113 178.645 125.285 180.537 122.762 183.847C122.561 184.11 122.172 184.16 121.909 183.96C121.645 183.759 121.595 183.371 121.796 183.107C124.557 179.497 128.737 177.429 133.267 177.429C141.225 177.429 147.701 183.91 147.701 191.87C147.701 195.868 146.107 199.579 143.208 202.337C143.095 202.45 142.944 202.5 142.794 202.5C142.631 202.5 142.467 202.437 142.354 202.312H142.367ZM191.73 169.331C181.966 187.006 163.277 177.341 155.495 174.871C142.229 170.659 113.299 153.874 113.299 153.874C113.299 153.874 133.669 167.563 137.522 170.935C139.782 172.903 142.731 174.972 144.877 175.197C147.036 175.423 151.14 176.589 153.688 178.645C159.399 183.258 160.943 180.074 163.44 181.427C165.951 182.781 168.536 186.279 171.348 186.241C175.326 186.191 175.113 181.716 179.757 184.085C185.355 186.956 189.434 190.98 191.718 169.306L191.73 169.331ZM246.943 197.197C243.152 194.239 240.981 189.801 240.981 185C240.981 176.476 247.909 169.544 256.419 169.544C257.122 169.544 257.825 169.594 258.515 169.682C258.515 169.682 258.54 169.682 258.552 169.682C258.879 169.732 259.105 170.045 259.055 170.384C259.004 170.71 258.691 170.935 258.352 170.885C257.712 170.797 257.059 170.76 256.419 170.76C248.574 170.76 242.186 177.14 242.186 185C242.186 189.425 244.194 193.524 247.683 196.245C247.834 196.357 247.922 196.533 247.922 196.721C247.922 197.059 247.646 197.323 247.319 197.323C247.181 197.323 247.056 197.272 246.943 197.197Z" fill="#F09947"/>
<path d="M189.082 106.628C188.128 105.951 188.605 104.346 189.045 103.193C191.806 95.9975 198.646 91.9109 198.947 91.7479C199.136 91.6351 199.362 91.6351 199.55 91.7479C199.838 91.9109 199.951 92.2744 199.788 92.5753C197.956 95.9599 197.127 99.0938 197.253 102.152C197.253 102.341 197.178 102.516 197.04 102.641C195.433 104.008 191.856 106.866 189.873 106.866C189.572 106.866 189.296 106.803 189.082 106.64V106.628ZM196.023 101.889C195.96 99.357 196.5 96.7998 197.667 94.1172C195.471 95.822 191.906 99.1063 190.174 103.632C189.534 105.286 189.785 105.637 189.785 105.637C190.275 105.951 193.023 104.421 196.035 101.889H196.023Z" fill="#472C27"/>
<path d="M196.174 102.629L193.048 105.036L194.529 106.803C195.533 107.355 197.002 106.553 197.002 106.553L197.065 104.459L196.174 102.629Z" fill="#472C27"/>
<path d="M195.358 107.605C194.981 107.605 194.592 107.53 194.228 107.33C194.165 107.292 194.103 107.242 194.052 107.192L192.571 105.424C192.571 105.424 192.571 105.412 192.559 105.399C192.358 105.136 192.408 104.747 192.672 104.547L195.797 102.14C195.797 102.14 195.86 102.09 195.897 102.077C196.199 101.927 196.563 102.052 196.713 102.353L197.604 104.183C197.642 104.271 197.667 104.371 197.667 104.471L197.604 106.565C197.604 106.778 197.479 106.979 197.291 107.079C197.165 107.154 196.299 107.605 195.358 107.605ZM196.45 104.584L195.948 103.556L193.914 105.123L194.906 106.302C195.345 106.477 195.985 106.302 196.4 106.151L196.45 104.584Z" fill="#472C27"/>
<path d="M182.355 122.498C184.601 116.681 187.865 109.085 196.086 103.907C193.663 107.706 191.304 114.525 188.028 126.359C184.338 139.722 174.385 141.301 174.385 141.301C179.694 136.726 180.096 128.314 182.355 122.498Z" fill="#472C27"/>
<path d="M189.86 134.206C191.329 128.49 191.454 126.095 191.341 119.853C191.254 115.227 191.09 109.824 196.086 103.406C194.881 107.756 196.174 111.88 197.065 120.392C198.508 134.181 189.86 134.206 189.86 134.206ZM94.9867 192.233C94.7482 192.233 94.5223 192.095 94.4344 191.87C94.2964 191.569 94.4344 191.205 94.7357 191.067C100.271 188.573 98.639 181.766 98.5637 181.465C98.4759 181.139 98.6767 180.813 99.003 180.725C99.3293 180.638 99.6557 180.838 99.7435 181.164C99.7686 181.239 101.702 189.25 95.2377 192.158C95.1624 192.196 95.0745 192.208 94.9867 192.208V192.233ZM105.504 165.457C105.191 165.332 105.04 164.981 105.166 164.667C107.098 159.753 112.244 156.77 112.458 156.645C112.746 156.482 113.123 156.582 113.286 156.87C113.449 157.159 113.349 157.535 113.06 157.698C113.01 157.723 108.077 160.593 106.295 165.106C106.195 165.344 105.969 165.495 105.73 165.495C105.655 165.495 105.58 165.482 105.504 165.457Z" fill="#472C27"/>
<path d="M180.522 149.725C180.761 147.882 180.108 146.278 179.079 146.152C178.05 146.027 177.021 147.406 176.795 149.261C176.556 151.104 177.209 152.709 178.238 152.834C179.267 152.959 180.296 151.568 180.522 149.725Z" fill="#F09947"/>
<path d="M178.351 153.435C178.276 153.435 178.213 153.435 178.138 153.423C177.41 153.335 176.82 152.796 176.456 151.906C176.142 151.141 176.042 150.164 176.167 149.173C176.443 146.967 177.736 145.375 179.129 145.538C180.51 145.714 181.376 147.581 181.1 149.788C180.836 151.881 179.644 153.435 178.338 153.435H178.351ZM178.928 146.741C178.338 146.741 177.573 147.807 177.385 149.324C177.284 150.101 177.359 150.878 177.598 151.455C177.786 151.906 178.037 152.194 178.301 152.22C178.903 152.295 179.706 151.204 179.907 149.637C180.108 148.07 179.581 146.817 178.991 146.741C178.966 146.741 178.953 146.741 178.928 146.741Z" fill="#472C27"/>
<path d="M177.435 169.694C177.573 167.839 176.845 166.272 175.803 166.197C174.761 166.121 173.82 167.563 173.682 169.418C173.544 171.274 174.272 172.841 175.314 172.916C176.355 172.991 177.297 171.549 177.435 169.694Z" fill="#F09947"/>
<path d="M175.389 173.53C175.389 173.53 175.301 173.53 175.263 173.53C173.87 173.43 172.904 171.612 173.067 169.381C173.23 167.162 174.435 165.495 175.841 165.595C177.234 165.695 178.188 167.513 178.037 169.744C177.962 170.747 177.673 171.675 177.221 172.364C176.719 173.116 176.079 173.53 175.402 173.53H175.389ZM174.272 169.469C174.159 171.048 174.736 172.264 175.339 172.314C175.602 172.339 175.916 172.114 176.18 171.7C176.519 171.186 176.744 170.434 176.807 169.657C176.92 168.077 176.343 166.861 175.74 166.811H175.703C175.113 166.811 174.372 167.927 174.259 169.469H174.272Z" fill="#472C27"/>
<path d="M169.277 234.929C170.318 235.005 171.26 233.563 171.398 231.708C171.536 229.852 170.808 228.286 169.766 228.21C168.724 228.135 167.783 229.577 167.645 231.432C167.507 233.287 168.235 234.854 169.277 234.929Z" fill="#F09947"/>
<path d="M169.339 235.556C169.339 235.556 169.264 235.556 169.214 235.556C167.821 235.456 166.867 233.638 167.017 231.407C167.093 230.404 167.381 229.476 167.833 228.787C168.36 227.985 169.076 227.571 169.779 227.634C171.172 227.734 172.138 229.552 171.975 231.783C171.812 233.939 170.67 235.569 169.327 235.569L169.339 235.556ZM168.862 229.451C168.523 229.965 168.298 230.717 168.235 231.495C168.122 233.074 168.699 234.29 169.302 234.34C169.929 234.378 170.657 233.262 170.77 231.683C170.883 230.103 170.306 228.887 169.703 228.837C169.703 228.837 169.678 228.837 169.666 228.837C169.402 228.837 169.113 229.063 168.85 229.451H168.862ZM176.155 222.118C191.63 228.248 204.746 229.238 212.189 226.769C219.632 224.299 219.544 219.385 217.535 217.229C215.527 215.086 206.917 214.246 200.19 217.104C193.475 219.949 184.991 220.689 180.573 218.934C176.155 217.179 179.179 212.967 167.883 211.688C156.6 210.41 143.133 201.472 143.133 201.472C150.299 207.314 160.679 215.988 176.155 222.118Z" fill="#472C27"/>
<path d="M201.621 228.561C195.433 228.561 188.919 227.458 182.129 225.252C170.356 221.429 157.667 214.296 144.438 204.042C123.139 187.545 106.747 167.902 102.229 162.286C102.141 162.173 102.078 162.098 102.053 162.06L101.865 161.872C101.463 161.471 101.024 161.02 100.534 160.531C100.359 160.355 100.308 160.104 100.396 159.879C102.605 154.25 106.998 151.869 110.286 150.866C110.462 150.816 110.663 150.841 110.814 150.953C112.382 152.044 113.964 153.11 115.57 154.15C122.561 158.663 161.533 181.202 177.987 179.359C187.2 178.331 193.638 168.503 200.228 145.438C200.315 145.112 200.654 144.924 200.981 145.024C201.307 145.124 201.495 145.45 201.395 145.776C196.462 163.038 190.224 179.209 178.125 180.563C177.422 180.638 176.682 180.675 175.916 180.675C156.073 180.675 115.332 155.429 114.918 155.165C113.387 154.175 111.893 153.172 110.374 152.119C107.45 153.072 103.71 155.19 101.689 159.954C102.065 160.33 102.417 160.694 102.743 161.02L102.919 161.195C102.919 161.195 103.007 161.295 103.195 161.521C107.688 167.124 124.005 186.655 145.204 203.076C174.925 226.104 200.516 232.823 221.251 223.033C230.262 218.784 238.383 210.886 245.386 199.566C250.495 191.306 254.825 181.44 257.9 171.023C258.816 167.914 259.607 164.78 260.285 161.621C261.653 155.128 262.381 148.998 262.381 143.846C262.569 136.4 260.372 130.082 256.042 125.556C251.775 121.106 245.612 118.587 238.709 118.474C238.37 118.474 238.107 118.198 238.107 117.86C238.107 117.521 238.383 117.258 238.722 117.258C245.951 117.371 252.415 120.016 256.921 124.704C261.489 129.455 263.799 136.086 263.598 143.846C263.598 149.061 262.87 155.291 261.477 161.859C260.799 165.056 259.996 168.227 259.067 171.361C255.967 181.879 251.599 191.857 246.428 200.193C239.287 211.713 231.003 219.761 221.778 224.111C215.54 227.057 208.812 228.524 201.658 228.524L201.621 228.561Z" fill="#472C27"/>
<path d="M193.199 167.388C194.755 156.218 196.261 157.46 194.868 148.158C193.475 138.857 198.583 136.525 201.031 137.465C202.788 138.13 201.608 144.56 201.608 144.56C200.064 150.916 198.32 159.327 193.199 167.388Z" fill="#472C27"/>
<path d="M197.943 166.535C197.943 158.337 204.608 151.668 212.804 151.668C221 151.668 227.664 158.337 227.664 166.535C227.664 174.733 221 181.402 212.804 181.402C204.608 181.402 197.943 174.733 197.943 166.535ZM199.161 166.535C199.161 174.069 205.286 180.186 212.816 180.186C220.347 180.186 226.472 174.057 226.472 166.535C226.472 159.014 220.347 152.884 212.816 152.884C205.286 152.884 199.161 159.014 199.161 166.535Z" fill="#F09947"/>
<path d="M229.534 119.126C225.543 120.266 221.815 122.134 218.502 124.641L229.534 119.126Z" fill="#FEF8EE"/>
<path d="M218.502 125.243C218.314 125.243 218.138 125.155 218.025 125.005C217.824 124.742 217.874 124.353 218.138 124.152C221.539 121.583 225.317 119.69 229.371 118.536C229.685 118.449 230.011 118.637 230.112 118.95C230.212 119.276 230.036 119.615 229.71 119.715C225.807 120.83 222.154 122.648 218.878 125.13C218.778 125.205 218.64 125.256 218.514 125.256L218.502 125.243Z" fill="#472C27"/>
<path d="M172.276 63.2169C174.46 62.4522 174.975 58.1901 173.406 53.6773C171.837 49.1645 168.8 46.1309 166.616 46.883C164.432 47.6477 163.917 51.9098 165.486 56.4226C167.055 60.9354 170.092 63.969 172.276 63.2169Z" fill="#FEF8EE"/>
<path d="M171.573 63.944C170.507 63.944 169.352 63.3549 168.222 62.2267C166.879 60.8853 165.699 58.8922 164.921 56.6232C163.227 51.7218 163.88 47.1965 166.427 46.3065C168.975 45.4164 172.301 48.5754 173.996 53.4643C174.786 55.7332 175.088 58.0147 174.862 59.9076C174.623 61.9509 173.77 63.3298 172.49 63.7685C172.201 63.8688 171.887 63.919 171.586 63.919L171.573 63.944ZM167.319 47.3845C167.143 47.3845 166.98 47.4096 166.817 47.4597C165.185 48.0238 164.482 51.6842 166.063 56.2221C166.791 58.3155 167.858 60.1457 169.076 61.3617C170.168 62.4523 171.26 62.9161 172.075 62.6403C172.891 62.352 173.469 61.3116 173.644 59.7822C173.845 58.0648 173.556 55.9714 172.828 53.878C171.41 49.7663 168.975 47.3845 167.306 47.3845H167.319Z" fill="#472C27"/>
<path d="M223.66 88.1627C215.138 86.3074 208.574 90.9205 200.654 95.1575L190.902 65.9997C190.902 65.9997 201.859 46.3063 204.997 60.2584C209.302 79.4504 223.673 88.1627 223.673 88.1627H223.66Z" fill="#F09947"/>
<path d="M199.939 93.8915C199.675 93.8915 199.449 93.7286 199.362 93.4779L190.312 66.1879C190.262 66.0249 190.275 65.8369 190.375 65.6865C191.04 64.5833 197.04 54.9309 201.872 55.6831C203.805 55.9839 205.21 57.8643 206.039 61.2865C210.796 80.8921 228.104 90.0306 228.279 90.1183C228.555 90.2688 228.668 90.6198 228.53 90.9081C228.38 91.2089 228.028 91.3343 227.714 91.1964C227.539 91.1086 209.741 81.732 204.859 61.5748C204.156 58.6791 203.089 57.1121 201.683 56.8865C198.345 56.3725 193.387 63.1418 191.555 66.0876L200.516 93.1018C200.516 93.1018 200.541 93.2272 200.541 93.2898C200.541 93.6283 200.265 93.8915 199.939 93.8915Z" fill="#472C27"/>
<path d="M208.348 56.8866L205.8 37.469C193.714 18.3146 166.817 33.3573 171.448 47.8735C172.653 51.6467 174.711 53.2262 172.176 58.3909C170.833 61.1361 172.59 63.0415 175.364 63.3424C178.263 65.3857 180.321 75.8905 187.237 74.6746C193.538 73.5714 195.684 70.9014 196.55 69.9111" fill="#F09947"/>
<path d="M177.598 67.642C176.732 66.0625 175.929 64.5708 175.125 63.9314C173.444 63.7058 172.138 62.9411 171.511 61.8004C171.109 61.0608 170.795 59.8323 171.636 58.1275C173.481 54.3793 172.766 52.7121 171.787 50.4056C171.473 49.6785 171.159 48.9389 170.883 48.0489C168.448 40.4147 174.259 33.119 181.263 29.8597C188.568 26.4626 199.512 26.3247 206.327 37.1304C206.378 37.2056 206.403 37.2933 206.415 37.3811L208.963 56.7987C209.001 57.1372 208.775 57.438 208.436 57.4756C208.11 57.5132 207.796 57.2876 207.758 56.9491L205.235 37.6694C198.822 27.6409 188.605 27.7788 181.777 30.9629C175.263 33.9965 169.829 40.7155 172.05 47.6853C172.314 48.5127 172.628 49.2272 172.916 49.9292C173.946 52.336 174.824 54.4169 172.741 58.6665C172.264 59.6317 172.213 60.5218 172.59 61.2112C173.042 62.0386 174.084 62.5901 175.439 62.7406C175.54 62.7406 175.64 62.7907 175.728 62.8534C176.782 63.6055 177.661 65.2101 178.677 67.0653C180.66 70.7007 182.92 74.8249 187.149 74.0853C193.023 73.0574 195.119 70.6505 196.023 69.6226L196.123 69.5098C196.337 69.2841 196.701 69.2591 196.952 69.4596C197.215 69.6727 197.253 70.0613 197.04 70.3121L196.952 70.4123C195.973 71.5405 193.663 74.173 187.375 75.2761C186.974 75.3514 186.559 75.389 186.145 75.389C181.853 75.389 179.518 71.1269 177.623 67.642H177.598Z" fill="#472C27"/>
<path d="M195.395 48.6883C194.868 50.7191 193.375 52.3612 191.944 48.1367C188.342 37.4564 182.292 45.429 171.222 42.0319C160.541 38.7601 159.073 21.8998 187.087 17.2365C202.424 14.6793 212.892 19.0918 226.146 28.6314C239.814 38.4718 241.721 43.5111 257.762 41.6558C268.669 40.3897 285.788 38.9607 293.557 47.2342C307.74 62.3521 314.982 62.0512 324.847 63.2797C347.339 66.0751 352.384 86.809 339.281 105.149C330.797 117.032 318.233 123.576 296.193 124.378C268.003 125.394 259.657 87.2101 227.539 81.0802C195.257 74.9127 200.868 59.4188 202.901 54.3293C204.068 51.4211 204.809 47.1339 201.972 45.4917C197.83 43.0974 196.048 46.5322 195.408 48.6883H195.395Z" fill="#472C27"/>
<path d="M183.986 62.5526C186.246 61.7628 186.773 57.3503 185.154 52.6745C183.535 48.0113 180.384 44.8649 178.125 45.6421C175.866 46.4318 175.339 50.8444 176.958 55.5201C178.577 60.1834 181.727 63.3298 183.986 62.5526Z" fill="#FEF8EE"/>
<path d="M183.258 63.2796C182.166 63.2796 180.962 62.6779 179.807 61.5121C178.414 60.1207 177.196 58.0648 176.393 55.7207C174.636 50.6563 175.314 45.9805 177.937 45.078C179.267 44.6142 180.824 45.1908 182.33 46.6951C183.723 48.0865 184.94 50.1424 185.744 52.4865C186.559 54.8307 186.873 57.1999 186.647 59.1429C186.396 61.2489 185.53 62.6654 184.2 63.1292C183.899 63.2295 183.585 63.2796 183.271 63.2796H183.258ZM178.853 46.1435C178.677 46.1435 178.502 46.1686 178.326 46.2313C176.619 46.8204 175.891 50.6187 177.523 55.3321C178.276 57.5007 179.393 59.3936 180.648 60.6597C181.79 61.8004 182.92 62.2768 183.773 61.9885C184.627 61.6876 185.216 60.6096 185.417 59.005C185.631 57.225 185.329 55.0563 184.576 52.8876C183.823 50.719 182.706 48.8261 181.451 47.56C180.535 46.6449 179.619 46.156 178.84 46.156L178.853 46.1435Z" fill="#472C27"/>
<path d="M178.728 54.8934C178.401 54.7931 178.226 54.4547 178.326 54.1413C178.426 53.8153 178.765 53.6399 179.079 53.7401C181.125 54.3544 182.192 53.0632 182.242 53.0005C182.443 52.7373 182.832 52.6871 183.095 52.9003C183.359 53.1008 183.409 53.4894 183.196 53.7527C183.146 53.8154 182.104 55.1316 180.146 55.1316C179.669 55.1316 179.179 55.0564 178.728 54.9185V54.8934Z" fill="#472C27"/>
<path d="M181.188 56.5856C181.765 56.3098 181.978 55.5326 181.652 54.8306C181.326 54.1286 180.598 53.7902 180.008 54.0534C179.43 54.3292 179.217 55.1064 179.543 55.8084C179.87 56.5104 180.598 56.8488 181.188 56.5856ZM181.514 70.1115C180.598 70.1115 179.619 69.8984 178.69 69.2841C178.414 69.0961 178.338 68.72 178.514 68.4443C178.702 68.1685 179.079 68.0807 179.355 68.2688C181.74 69.8482 184.865 67.8927 184.89 67.8802C185.166 67.7172 185.518 67.7924 185.706 68.0557C185.894 68.3314 185.831 68.7075 185.543 68.8955C185.43 68.9707 183.622 70.0989 181.501 70.0989L181.514 70.1115Z" fill="#472C27"/>
<path d="M293.859 47.6228C296.959 57.388 305.167 63.2797 316.174 65.298C327.282 67.3287 333.068 66.2256 343.297 74.4489C339.268 68.8706 335.415 64.3703 318.496 62.6655C303.159 61.1111 293.859 47.6228 293.859 47.6228Z" fill="#F09947"/>
<path d="M197.78 52.8752C198.596 49.3903 200.341 47.9863 200.341 47.9863L197.78 52.8752Z" fill="#472C27"/>
<path d="M197.78 53.4767C197.78 53.4767 197.692 53.4767 197.642 53.4642C197.316 53.389 197.115 53.063 197.19 52.7371C198.044 49.0893 199.876 47.585 199.964 47.5223C200.228 47.3092 200.604 47.3593 200.817 47.6101C201.031 47.8733 200.993 48.2494 200.73 48.4625C200.717 48.475 199.136 49.8038 198.383 53.0129C198.32 53.2887 198.069 53.4767 197.793 53.4767H197.78Z" fill="#472C27"/>
<path d="M199.173 49.7288C200.391 50.3681 200.742 52.0604 200.742 52.0604L199.173 49.7288Z" fill="#472C27"/>
<path d="M200.742 52.6619C200.453 52.6619 200.202 52.4613 200.152 52.1855C200.152 52.173 199.838 50.769 198.897 50.2676C198.897 50.2676 198.885 50.2676 198.872 50.2551C198.583 50.0921 198.47 49.7286 198.634 49.4277C198.797 49.1394 199.161 49.0266 199.462 49.1895C200.918 49.9542 201.332 51.8471 201.345 51.9348C201.345 51.9724 201.357 52.0226 201.357 52.0602C201.357 52.3987 201.081 52.6619 200.755 52.6619H200.742Z" fill="#472C27"/>
<path d="M182.731 121.52C181.363 124.679 180.008 131.16 177.874 136.362C180.096 134.996 183.196 128.327 185.292 122.197C187.513 115.716 192.797 106.164 192.797 106.164C187.676 109.411 184.099 118.361 182.731 121.52ZM225.819 32.4171C228.304 34.7487 239.462 45.592 251.549 42.1823C242.713 42.9595 241.634 40.3271 224.426 27.9168C207.218 15.5066 195.132 16.2838 195.132 16.2838C211.561 19.6935 223.334 30.0855 225.819 32.4046V32.4171Z" fill="#F09947"/>
<path d="M184.752 51.797C184.488 51.797 184.263 51.634 184.175 51.3833C184.062 51.0699 184.237 50.7189 184.551 50.6186L193.149 47.6728C193.463 47.5599 193.814 47.7354 193.914 48.0488C194.027 48.3622 193.852 48.7132 193.538 48.826L184.94 51.7719C184.878 51.797 184.815 51.8095 184.74 51.8095L184.752 51.797ZM176.155 53.8027H176.142L173.506 53.7275C173.167 53.7275 172.904 53.4391 172.916 53.1007C172.916 52.7622 173.23 52.499 173.544 52.5115L176.18 52.5867C176.519 52.5867 176.782 52.8625 176.782 53.201C176.782 53.5394 176.506 53.8027 176.167 53.8027H176.155Z" fill="#472C27"/>
<path d="M295.076 124.992C280.994 124.992 271.831 115.29 262.155 105.036C252.679 94.9946 242.876 84.6152 227.413 81.6568C214.122 79.112 205.65 74.687 202.261 68.4944C198.972 62.4773 201.407 56.385 202.324 54.091C202.738 53.0506 204.671 47.748 201.658 46.0056C200.403 45.2785 199.324 45.0905 198.42 45.454C197.002 46.0181 196.286 47.8107 195.973 48.8386C195.571 50.393 194.793 51.3332 193.889 51.3708H193.839C192.86 51.3708 192.057 50.3679 191.366 48.3121C189.346 42.3076 186.81 42.621 182.217 43.1725C179.242 43.5235 175.54 43.9748 171.046 42.5959C166.252 41.1292 163.239 37.0928 163.541 32.5423C163.729 29.6968 165.976 20.1196 186.986 16.6222C202.964 13.9646 213.569 18.8284 226.497 28.1298C229.208 30.0854 231.455 31.8404 233.438 33.3948C241.42 39.65 245.06 42.4956 257.686 41.0415C266.02 40.0762 285.55 37.8073 293.997 46.8078C306.937 60.597 313.878 61.3993 322.676 62.4021C323.416 62.4898 324.157 62.5776 324.923 62.6654C334.75 63.8813 341.942 68.6198 345.168 75.9907C348.895 84.5023 346.887 95.5337 339.771 105.487C330.696 118.198 317.254 124.203 296.218 124.967C295.842 124.98 295.465 124.992 295.089 124.992H295.076ZM271.656 41.2796C266.221 41.2796 261.125 41.8688 257.824 42.2574C244.709 43.7742 240.692 40.6278 232.697 34.36C230.727 32.8056 228.48 31.0506 225.794 29.1201C213.13 20.0068 202.75 15.2307 187.199 17.8256C171.197 20.4956 165.122 27.2273 164.758 32.6301C164.495 36.6039 167.168 40.1389 171.41 41.4426C175.665 42.7463 179.217 42.3201 182.079 41.9691C186.61 41.4301 190.187 40.9913 192.534 47.936C193.274 50.1423 193.852 50.1674 193.864 50.1674C194.052 50.1674 194.517 49.6785 194.818 48.5378V48.5127C195.195 47.2717 196.098 45.0905 197.993 44.3258C199.249 43.8244 200.692 44.0375 202.286 44.9526C205.298 46.695 204.871 51.0449 203.478 54.5423C202.022 58.2027 200.679 63.0163 203.353 67.9052C206.566 73.7719 214.737 77.9964 227.664 80.4659C243.504 83.487 253.444 94.0169 263.058 104.196C272.798 114.513 282.01 124.265 296.181 123.751C316.815 122.999 329.956 117.158 338.792 104.785C345.657 95.1827 347.628 84.6026 344.063 76.4796C341.013 69.5098 334.16 65.0346 324.772 63.8688C324.019 63.7685 323.278 63.6933 322.538 63.6055C313.853 62.6152 306.36 61.7503 293.118 47.6352C288.336 42.5457 279.638 41.2671 271.668 41.2671L271.656 41.2796Z" fill="#472C27"/>
<path d="M196.701 102.403C196.701 102.403 197.755 119.201 210.369 103.958C223.422 88.1753 234.969 94.9195 234.969 94.9195C226.735 87.724 216.293 81.5064 196.701 102.416V102.403Z" fill="#FEF8EE"/>
<path d="M201.646 110.965C201.219 110.965 200.792 110.902 200.391 110.764C196.575 109.523 196.111 102.729 196.086 102.441C196.086 102.278 196.136 102.115 196.249 101.989C216.08 80.8294 226.836 87.0095 235.358 94.4556C235.571 94.6436 235.634 94.9696 235.484 95.2203C235.32 95.5086 234.944 95.6089 234.655 95.4459C234.203 95.1827 223.372 89.1781 210.833 104.346C207.156 108.784 204.131 110.977 201.633 110.977L201.646 110.965ZM232.032 93.2647C224.112 87.1599 214.435 84.4647 197.328 102.616C197.504 104.522 198.37 108.834 200.767 109.611C202.901 110.301 206.064 108.207 209.904 103.556C217.059 94.9069 223.861 92.9012 228.618 92.9012C229.76 92.9012 230.902 93.014 232.032 93.2522V93.2647ZM195.107 70.6631C194.241 72.5183 193.073 73.1075 193.073 73.1075L194.529 76.7177C197.956 73.8722 198.709 69.3343 197.554 68.9833C196.349 68.6198 195.119 70.6756 195.119 70.6756L195.107 70.6631Z" fill="#472C27"/>
<path d="M174.385 141.915C174.209 141.915 174.046 141.84 173.92 141.702C173.707 141.452 173.732 141.063 173.983 140.85C177.56 137.766 178.828 132.852 180.058 128.101C180.598 126.02 181.1 124.065 181.79 122.285C184.288 115.829 187.626 108.521 195.772 103.406C195.973 103.281 196.224 103.281 196.425 103.406C196.713 103.582 196.789 103.958 196.613 104.246C194.341 107.819 192.019 114.274 188.63 126.534C184.878 140.123 174.912 141.853 174.498 141.915C174.46 141.915 174.435 141.915 174.397 141.915H174.385ZM194.278 105.901C187.965 110.702 185.103 117.045 182.907 122.723C182.242 124.428 181.752 126.359 181.225 128.402C180.209 132.363 179.066 136.776 176.431 140.048C179.468 138.807 184.903 135.359 187.438 126.208C190.237 116.08 192.32 109.849 194.278 105.901Z" fill="#472C27"/>
<path d="M191.266 119.301C191.781 123.563 191.442 126.296 190.413 131.072C192.458 128.603 194.492 123.288 194.165 119.552C193.826 115.716 193.312 108.032 193.312 108.032C191.781 110.251 190.751 115.027 191.266 119.289V119.301Z" fill="#F09947"/>
<path d="M189.86 134.808C189.86 134.808 189.76 134.808 189.71 134.783C189.383 134.695 189.195 134.369 189.27 134.043C190.751 128.302 190.839 125.882 190.726 119.853V119.677C190.639 115.164 190.538 109.536 195.596 103.017C195.747 102.829 195.998 102.742 196.236 102.804C196.563 102.892 196.751 103.23 196.663 103.556C195.835 106.552 196.249 109.511 196.864 113.999C197.115 115.816 197.404 117.885 197.655 120.316C198.219 125.694 197.353 129.706 195.094 132.225C192.81 134.77 189.973 134.808 189.848 134.808H189.86ZM195.031 105.963C191.781 111.178 191.868 115.653 191.944 119.665V119.84C192.057 125.682 191.969 128.214 190.676 133.491C192.044 133.19 193.287 132.476 194.216 131.423C196.236 129.167 197.002 125.469 196.475 120.454C196.224 118.048 195.935 115.992 195.684 114.174C195.22 110.84 194.868 108.32 195.044 105.963H195.031Z" fill="#472C27"/>
<mask id="mask2_543_6021" style="mask-type:luminance" maskUnits="userSpaceOnUse" x="49" y="152" width="28" height="26">
<path d="M69.3512 152.819L49.4453 165.286L56.8332 177.053L76.7391 164.586L69.3512 152.819Z" fill="white"/>
</mask>
<g mask="url(#mask2_543_6021)">
<path d="M76.3734 164.517C76.4989 164.229 76.3734 163.89 76.0722 163.765C75.9592 163.715 64.2742 158.926 51.4469 164.053C51.1457 164.166 51.0076 164.504 51.1206 164.805C51.2336 165.094 51.5725 165.244 51.8737 165.119C64.2491 160.167 75.5074 164.768 75.6203 164.818C75.7961 164.893 75.9969 164.88 76.1475 164.78C76.2479 164.717 76.3232 164.63 76.3734 164.517ZM69.8092 168.654C69.8343 168.34 69.5958 168.064 69.282 168.039C68.9683 168.014 61.3874 167.5 54.8608 173.003C54.6224 173.204 54.5847 173.568 54.7855 173.818C54.9863 174.056 55.3503 174.094 55.6013 173.881C61.7514 168.691 69.1063 169.18 69.1816 169.193C69.3071 169.193 69.4327 169.168 69.5331 169.105C69.6837 169.005 69.7841 168.842 69.8092 168.666V168.654Z" fill="#472C27"/>
</g>
<mask id="mask3_543_6021" style="mask-type:luminance" maskUnits="userSpaceOnUse" x="89" y="27" width="57" height="35">
<path d="M93.5731 27.1709L89.0056 52.6008L140.892 61.8971L145.459 36.4672L93.5731 27.1709Z" fill="white"/>
</mask>
<g mask="url(#mask3_543_6021)">
<path d="M98.137 28.7066C95.8652 28.3055 93.7064 29.8097 93.3174 32.0661L91.9116 39.9886C91.51 42.245 93.0287 44.3886 95.2879 44.7898L129.929 50.9197L134.033 60.0581L135.476 51.8974L137.773 52.2986C140.033 52.6997 142.204 51.1954 142.593 48.939L143.999 41.0165C144.4 38.7601 142.882 36.6166 140.622 36.2154L98.137 28.7066Z" fill="#FEF8EE"/>
<path d="M133.92 60.6598C133.719 60.6222 133.556 60.4968 133.468 60.3088L129.502 51.4586L95.175 45.3914C93.9324 45.1658 92.8279 44.4638 92.0999 43.4359C91.372 42.408 91.0833 41.1293 91.3092 39.8883L92.7149 31.9658C93.1668 29.3835 95.6519 27.6661 98.25 28.1174L140.735 35.6262C143.321 36.09 145.053 38.5595 144.601 41.1419L143.195 49.0643C142.744 51.6467 140.258 53.364 137.66 52.9128L135.966 52.6119L134.623 60.1834C134.56 60.5093 134.246 60.735 133.92 60.6723V60.6598ZM140.522 36.8171L98.0366 29.2957C96.1037 28.9573 94.2587 30.2359 93.9198 32.1664L92.5141 40.0889C92.351 41.0165 92.5518 41.9567 93.104 42.7339C93.6563 43.5111 94.4721 44.0501 95.4009 44.188L130.042 50.3179C130.243 50.3555 130.406 50.4809 130.494 50.6689L133.782 58.0022L134.887 51.7846C134.949 51.4586 135.263 51.233 135.589 51.2957L137.886 51.6968C139.819 52.0353 141.664 50.7567 142.003 48.8262L143.409 40.9037C143.748 38.9857 142.467 37.143 140.535 36.8045L140.522 36.8171Z" fill="#472C27"/>
<path d="M126.879 42.2074C127.03 41.3299 126.452 40.5026 125.574 40.3396C124.695 40.1766 123.854 40.7658 123.704 41.6308C123.553 42.4957 124.13 43.3356 125.009 43.4986C125.887 43.6615 126.728 43.0724 126.879 42.2074ZM119.524 40.9037C119.675 40.0262 119.097 39.1989 118.219 39.0359C117.34 38.8729 116.499 39.4621 116.349 40.3271C116.198 41.192 116.775 42.0319 117.654 42.1949C118.533 42.3578 119.373 41.7687 119.524 40.9037ZM112.169 39.6C112.32 38.7225 111.742 37.8952 110.864 37.7322C109.985 37.5692 109.144 38.1584 108.994 39.0234C108.843 39.8883 109.42 40.7282 110.299 40.8912C111.178 41.0541 112.019 40.465 112.169 39.6Z" fill="#472C27"/>
</g>
<mask id="mask4_543_6021" style="mask-type:luminance" maskUnits="userSpaceOnUse" x="32" y="39" width="37" height="30">
<path d="M36.9621 39.7512L32.6858 62.5071L64.2405 68.4222L68.5168 45.6663L36.9621 39.7512Z" fill="white"/>
</mask>
<g mask="url(#mask4_543_6021)">
<path d="M35.3187 62.3769C34.2896 62.1889 33.6118 61.1986 33.8001 60.1707L37.101 42.3952C37.2893 41.3673 38.2808 40.6904 39.31 40.8909L65.8807 45.8049C66.9098 45.9929 67.5876 46.9832 67.3993 48.0111L64.0984 65.7866C63.9101 66.8145 62.9186 67.4914 61.8894 67.2909L35.3187 62.3769Z" fill="#FEF8EE"/>
<path d="M33.5867 61.9382C33.2102 61.3867 33.0595 60.7223 33.1851 60.0579L36.486 42.2824C36.6115 41.6306 36.988 41.054 37.5403 40.6779C38.0925 40.3018 38.7703 40.1639 39.423 40.2767L65.9936 45.1907C67.3617 45.4539 68.2528 46.7576 68.0018 48.1115L64.7008 65.8995C64.4498 67.2533 63.132 68.1559 61.7639 67.9052L35.1932 62.9912C34.5406 62.8659 33.9632 62.4898 33.5867 61.9508V61.9382ZM65.7551 46.4066L39.1845 41.4927C38.8456 41.43 38.5067 41.4927 38.2306 41.6933C37.9545 41.8813 37.7537 42.1822 37.7035 42.5081L34.4025 60.2961C34.3398 60.6345 34.4025 60.973 34.6033 61.2488C34.7916 61.5246 35.0928 61.7126 35.4192 61.7753L61.9898 66.7018C62.3287 66.7644 62.6676 66.7018 62.9437 66.5012C63.2198 66.3132 63.4081 66.0248 63.4708 65.6864L66.7718 47.8984C66.8973 47.2089 66.4454 46.5445 65.7551 46.4192V46.4066Z" fill="#472C27"/>
<path d="M50.4302 54.9307C49.765 54.8054 49.1626 54.4669 48.7107 53.978L37.7411 42.2322C37.5152 41.9815 37.5277 41.6054 37.7787 41.3798C38.0298 41.1416 38.4188 41.1541 38.6573 41.3923L49.627 53.1381C50.1918 53.7524 51.108 53.9279 51.8611 53.5518L66.3074 46.5068C66.6086 46.3564 66.9851 46.4817 67.1357 46.7951C67.2864 47.096 67.1608 47.4721 66.8471 47.6225L52.4008 54.6675C51.7983 54.9683 51.108 55.0561 50.4428 54.9307H50.4302ZM62.5797 66.5136L54.1328 57.4504C53.9194 57.1997 53.932 56.8361 54.1579 56.6105C54.3964 56.3723 54.798 56.3723 55.0365 56.6105L63.4834 65.6612C63.6214 65.7991 63.6716 65.9997 63.634 66.2002C63.5712 66.5387 63.2449 66.7518 62.906 66.6891C62.7805 66.664 62.655 66.6014 62.5671 66.5011L62.5797 66.5136ZM34.1138 61.1108C33.9632 60.8099 34.0887 60.4339 34.4025 60.2834L45.5479 54.8555C45.8491 54.7051 46.2256 54.8304 46.3762 55.1438C46.5268 55.4447 46.4013 55.8208 46.0876 55.9712L34.9422 61.3991C34.8167 61.4618 34.6912 61.4743 34.5531 61.4492C34.3648 61.4116 34.1891 61.2863 34.1138 61.1108Z" fill="#472C27"/>
</g>
<mask id="mask5_543_6021" style="mask-type:luminance" maskUnits="userSpaceOnUse" x="76" y="80" width="30" height="24">
<path d="M79.6155 80.4257L76.0739 99.1104L101.934 104L105.476 85.3154L79.6155 80.4257Z" fill="white"/>
</mask>
<g mask="url(#mask5_543_6021)">
<path d="M78.6577 98.9807C77.6411 98.7927 76.9759 97.8149 77.1641 96.8121L79.7496 83.0229C79.9379 82.0076 80.9169 81.3557 81.9335 81.5437L102.894 85.4548C103.91 85.6429 104.576 86.6207 104.387 87.6235L101.802 101.413C101.614 102.415 100.635 103.08 99.618 102.892L78.6577 98.9807Z" fill="#FEF8EE"/>
<path d="M76.5617 96.6994L79.1472 82.9102C79.3982 81.5689 80.691 80.6914 82.0465 80.9422L103.007 84.8533C103.647 84.9786 104.224 85.3422 104.588 85.8812C104.965 86.4202 105.103 87.0846 104.977 87.7239L102.392 101.513C102.279 102.152 101.902 102.729 101.35 103.093C100.81 103.469 100.133 103.607 99.4925 103.481L78.5322 99.57C77.1892 99.3193 76.2981 98.0282 76.5491 96.6869L76.5617 96.6994ZM102.768 86.0441L81.808 82.133C81.1177 82.0077 80.4651 82.4464 80.3395 83.1359L77.754 96.925C77.6285 97.602 78.0803 98.2538 78.7581 98.3917L99.7184 102.303C100.045 102.365 100.384 102.303 100.66 102.102C100.936 101.914 101.124 101.626 101.187 101.3L103.772 87.5108C103.898 86.8339 103.446 86.182 102.768 86.0441Z" fill="#472C27"/>
<path d="M79.1346 86.2322C78.8083 86.1695 78.5824 85.8561 78.6451 85.5176C78.7079 85.1917 79.0217 84.9661 79.3605 85.0288L93.0287 87.586C93.5433 87.6863 94.0704 87.4481 94.3465 86.9968L95.4761 85.104C96.0158 84.2014 97.0576 83.7376 98.0868 83.9256C98.4131 83.9883 98.639 84.3017 98.5763 84.6401C98.5135 84.9661 98.1997 85.1917 97.8609 85.129C97.3337 85.0288 96.794 85.2669 96.5179 85.7307L95.3883 87.6236C94.8611 88.5137 93.8194 88.9775 92.8028 88.7894L79.1346 86.2322Z" fill="#472C27"/>
</g>
<mask id="mask6_543_6021" style="mask-type:luminance" maskUnits="userSpaceOnUse" x="18" y="85" width="40" height="49">
<path d="M25.709 85.7322L18.0174 127.63L49.5102 133.397L57.2018 91.4994L25.709 85.7322Z" fill="white"/>
</mask>
<g mask="url(#mask6_543_6021)">
<path d="M24.3993 96.2358L19.2534 124.641C19.0024 126.033 19.9311 127.362 21.3118 127.612L46.5144 132.163C47.9075 132.414 49.2379 131.486 49.489 130.107L55.9402 94.4808C56.1912 93.0894 55.2625 91.7606 53.8818 91.5099L35.9212 88.2632L24.3993 96.2358Z" fill="#FEF8EE"/>
<path d="M21.1988 128.202C20.3704 128.051 19.6425 127.587 19.1655 126.898C18.6886 126.208 18.5003 125.356 18.6509 124.529L23.7969 96.123C23.822 95.96 23.9224 95.8221 24.0479 95.7344L35.5698 87.7617C35.7079 87.674 35.871 87.6364 36.0216 87.6614L53.9822 90.9081C54.8106 91.0586 55.5386 91.5349 56.0155 92.2118C56.4925 92.9013 56.6807 93.7537 56.5301 94.5811L50.0789 130.207C49.9282 131.035 49.4639 131.762 48.761 132.238C48.0707 132.714 47.2172 132.902 46.3888 132.752L21.1862 128.202H21.1988ZM53.7814 92.099L36.0718 88.9025L24.9641 96.5993L19.8684 124.754C19.7805 125.268 19.8935 125.782 20.1822 126.208C20.4834 126.635 20.9227 126.923 21.4373 127.011L46.6399 131.561C47.1545 131.649 47.6816 131.536 48.0958 131.248C48.5225 130.959 48.8112 130.508 48.8991 129.994L55.3503 94.368C55.4382 93.854 55.3252 93.3401 55.0365 92.9138C54.7353 92.4876 54.296 92.1993 53.7814 92.1116V92.099Z" fill="#472C27"/>
<path d="M28.9805 104.183C28.6541 104.121 28.4282 103.807 28.491 103.481C28.5537 103.155 28.8675 102.93 29.1938 102.992L47.4055 106.289C47.7318 106.352 47.9577 106.665 47.895 106.991C47.8322 107.317 47.5184 107.543 47.1921 107.48L28.9805 104.183ZM27.5496 108.721C27.6124 108.395 27.9262 108.17 28.2525 108.232L46.4641 111.529C46.7905 111.592 47.0164 111.905 46.9536 112.231C46.8909 112.557 46.5771 112.783 46.2508 112.72L28.0391 109.423C27.7128 109.36 27.4869 109.047 27.5496 108.721ZM27.0852 114.663C26.7589 114.6 26.533 114.287 26.5958 113.961C26.6585 113.635 26.9723 113.409 27.2986 113.472L45.5102 116.769C45.8366 116.832 46.0625 117.145 45.9997 117.471C45.937 117.797 45.6232 118.023 45.2969 117.96L27.0852 114.663ZM31.5911 120.881C31.2648 120.818 31.0388 120.505 31.1016 120.179C31.1644 119.853 31.4781 119.627 31.8045 119.69L44.5564 121.996C44.8827 122.059 45.1086 122.372 45.0459 122.698C44.9831 123.024 44.6693 123.25 44.343 123.187L31.5911 120.881Z" fill="#472C27"/>
<path d="M24.3868 96.2483L31.6539 97.5646C33.047 97.8153 34.3774 96.9002 34.6285 95.5087L35.9463 88.2632L24.3993 96.2609L24.3868 96.2483Z" fill="#FEF8EE"/>
<path d="M23.8847 96.5869C23.6964 96.3111 23.7592 95.935 24.0353 95.747L35.5823 87.7493C35.7204 87.6615 35.8835 87.6239 36.0342 87.649C36.3605 87.7117 36.5864 88.0251 36.5237 88.351L35.2058 95.5965C35.0552 96.4239 34.5908 97.151 33.8879 97.6273C33.1851 98.1037 32.3441 98.2917 31.5158 98.1413L24.2487 96.825C24.0855 96.8 23.9475 96.6997 23.8596 96.5743L23.8847 96.5869ZM25.9431 95.9099L31.7668 96.9629C32.2814 97.0507 32.796 96.9379 33.2227 96.6495C33.6495 96.3612 33.9381 95.9099 34.026 95.396L35.0803 89.592L25.9431 95.9225V95.9099Z" fill="#472C27"/>
</g>
<mask id="mask7_543_6021" style="mask-type:luminance" maskUnits="userSpaceOnUse" x="58" y="-1" width="26" height="22">
<path d="M60.8151 -0.0045111L58.0491 16.2085L80.7902 20.0787L83.5562 3.86566L60.8151 -0.0045111Z" fill="white"/>
</mask>
<g mask="url(#mask7_543_6021)">
<path d="M58.1492 15.6318C58.1994 15.3059 58.5132 15.0928 58.827 15.1555L79.8249 18.6529L82.2222 4.26206C82.2724 3.93613 82.5862 3.72303 82.8999 3.77317C83.2263 3.82331 83.4396 4.1367 83.3894 4.45009L80.8918 19.4301C80.8416 19.756 80.5278 19.9691 80.214 19.919L58.6261 16.3338C58.2998 16.2837 58.0864 15.9703 58.1366 15.6569L58.1492 15.6318Z" fill="#472C27"/>
<path d="M71.8173 17.7754L76.6118 18.5777L78.1305 9.43924L73.336 8.63696L71.8173 17.7754Z" fill="#FEF8EE"/>
<path d="M71.7169 18.3521C71.3906 18.3019 71.1772 17.9885 71.2274 17.6752L72.7461 8.53671C72.7963 8.21079 73.1101 7.99768 73.4238 8.04783L78.2184 8.8501C78.5447 8.90025 78.7581 9.21364 78.7078 9.52702L77.1892 18.6655C77.139 18.9914 76.8252 19.2045 76.5114 19.1544L71.7169 18.3521ZM77.4527 9.92816L73.8255 9.32646L72.4951 17.2991L76.1223 17.9008L77.4527 9.92816Z" fill="#472C27"/>
<path d="M66.8345 16.9482L71.629 17.7504L73.6498 5.616L68.8553 4.81372L66.8345 16.9482Z" fill="#FEF8EE"/>
<path d="M66.7342 17.5246C66.4078 17.4745 66.1945 17.1611 66.2447 16.8477L68.2654 4.71323C68.3156 4.3873 68.6294 4.1742 68.9432 4.22434L73.7377 5.02662C74.064 5.07676 74.2774 5.39015 74.2272 5.70354L72.2064 17.838C72.1562 18.1639 71.8425 18.377 71.5287 18.3269L66.7342 17.5246ZM72.9721 6.09214L69.3448 5.49043L67.5123 16.4716L71.1396 17.0733L72.9721 6.09214Z" fill="#472C27"/>
<path d="M62.0275 16.1458L66.822 16.948L67.8386 10.8181L63.0441 10.0159L62.0275 16.1458Z" fill="#FEF8EE"/>
<path d="M61.9396 16.7349C61.6133 16.6848 61.3999 16.3714 61.4501 16.058L62.4668 9.92807C62.517 9.60215 62.8307 9.38904 63.1445 9.43918L67.939 10.2415C68.2654 10.2916 68.4787 10.605 68.4285 10.9184L67.4119 17.0483C67.3617 17.3742 67.0479 17.5873 66.7341 17.5372L61.9396 16.7349ZM67.1734 11.2944L63.5462 10.6927L62.7178 15.6568L66.345 16.2585L67.1734 11.2944Z" fill="#472C27"/>
</g>
</g>
<defs>
<clipPath id="clip0_543_6021">
<rect width="347" height="251" fill="white"/>
</clipPath>
</defs>
</svg>
