<svg width="322" height="233" viewBox="0 0 322 233" fill="none" xmlns="http://www.w3.org/2000/svg">
<g clip-path="url(#clip0_543_10696)">
<mask id="mask0_543_10696" style="mask-type:luminance" maskUnits="userSpaceOnUse" x="0" y="136" width="89" height="87">
<path d="M88.9935 136.963H0V222.934H88.9935V136.963Z" fill="white"/>
</mask>
<g mask="url(#mask0_543_10696)">
<path d="M7.36078 188.304C6.7435 187.384 6.33586 186.349 6.1961 185.243L0.663852 144.992C0.314447 142.432 0.943376 139.825 2.42252 137.708L31.1087 218.047L30.7593 217.965C28.2319 217.383 26.019 215.859 24.5632 213.718L7.37243 188.304H7.36078Z" fill="#F09947"/>
<path d="M31.097 218.605C31.097 218.605 31.0155 218.605 30.9689 218.594L30.6195 218.512C27.9524 217.895 25.623 216.301 24.0856 214.032L6.89491 188.618C6.23104 187.629 5.80011 186.5 5.63705 185.325L0.104809 145.073C-0.267889 142.374 0.39598 139.628 1.95666 137.393C2.02654 137.3 2.11971 137.23 2.22453 137.184C2.5157 137.079 2.84181 137.23 2.94664 137.521L31.6328 217.861C31.6561 217.919 31.6677 217.989 31.6677 218.047C31.6677 218.361 31.4115 218.605 31.1087 218.605H31.097ZM1.21126 144.911L6.7435 185.162C6.88327 186.174 7.25596 187.14 7.82666 187.978L25.0174 213.392C26.2636 215.231 28.0921 216.592 30.2119 217.232L2.28277 138.999C1.31608 140.803 0.931734 142.863 1.21126 144.922V144.911Z" fill="#472C27"/>
<path d="M88.4344 218.419H31.295C31.6444 221.643 33.9971 222.376 36.6293 222.376H82.9254C87.6191 222.376 88.4344 218.419 88.4344 218.419Z" fill="#F09947"/>
<path d="M36.6293 222.934C35.2899 222.934 31.2252 222.934 30.736 218.477C30.736 218.454 30.736 218.431 30.736 218.419C30.736 218.105 30.9923 217.861 31.2951 217.861H88.4344C88.4344 217.861 88.516 217.861 88.5509 217.872C88.8537 217.93 89.0517 218.233 88.9818 218.536C88.9818 218.582 88.0151 222.934 82.9255 222.934H36.6293ZM31.9589 218.978C32.4015 220.956 33.8341 221.817 36.641 221.817H82.9371C85.9886 221.817 87.2115 220.002 87.6657 218.978H31.9589Z" fill="#472C27"/>
<path d="M69.9043 168.009H22.1406L31.295 218.419H88.4344L69.9043 168.009Z" fill="#FEF8EE"/>
<path d="M31.2951 218.978C31.0272 218.978 30.7943 218.78 30.7477 218.512L21.5933 168.103C21.5933 168.103 21.5933 168.033 21.5933 167.998C21.5933 167.684 21.8495 167.439 22.1523 167.439H69.916C70.1489 167.439 70.3586 167.59 70.4401 167.812L88.9702 218.221C88.9935 218.28 89.0051 218.349 89.0051 218.419C89.0051 218.733 88.7489 218.978 88.4461 218.978H31.2951ZM69.5083 168.568H22.8045L31.7609 217.861H87.6308L69.5083 168.568Z" fill="#472C27"/>
<path d="M2.28278 137.521L22.1406 167.998L31.295 218.408L8.94476 185.581L2.28278 137.521Z" fill="#472C27"/>
<path d="M31.2951 218.978C31.1087 218.978 30.934 218.885 30.8292 218.733L8.47891 185.906C8.43232 185.837 8.39738 185.755 8.38573 185.674L1.72374 137.603C1.70045 137.393 1.79363 137.172 1.96833 137.056C2.22456 136.881 2.57396 136.963 2.74867 137.219L22.6065 167.695C22.6415 167.753 22.6764 167.823 22.688 167.905L31.8425 218.314C31.8425 218.314 31.8425 218.384 31.8425 218.419C31.8425 218.733 31.5862 218.978 31.2834 218.978H31.2951ZM3.1796 139.93L9.48054 185.383L30.2585 215.917L21.5932 168.219L3.16795 139.942L3.1796 139.93Z" fill="#472C27"/>
<path d="M43.9202 206.387C44.5259 206.387 45.1082 206.794 45.2247 207.306L45.9701 210.495C46.0865 211.007 45.6905 211.437 45.0849 211.437H41.2648C40.6475 211.437 40.0651 211.018 39.9487 210.495L39.2615 207.306C39.1567 206.794 39.5527 206.387 40.1583 206.387H43.9202ZM55.1361 207.318C55.008 206.817 54.414 206.398 53.8084 206.398H50.0581C49.4525 206.398 49.0681 206.806 49.1846 207.306L49.9649 210.483C50.0931 210.995 50.687 211.414 51.3043 211.414H55.1012C55.7068 211.414 56.0912 210.995 55.9631 210.483L55.1361 207.306V207.318ZM63.6616 206.41H59.923C59.3173 206.41 58.9446 206.817 59.0844 207.318L59.9463 210.495C60.086 211.007 60.6917 211.425 61.2973 211.425H65.0825C65.6882 211.425 66.0609 211.007 65.9095 210.495L64.9893 207.329C64.8379 206.829 64.244 206.422 63.6383 206.422L63.6616 206.41ZM73.4799 206.422H69.7646C69.1706 206.422 68.8095 206.829 68.9609 207.329L69.916 210.495C70.0674 211.007 70.6847 211.425 71.2903 211.425H75.0639C75.6695 211.425 76.0305 211.007 75.8675 210.495L74.8659 207.329C74.7028 206.829 74.0972 206.422 73.4915 206.422H73.4799ZM43.5708 200.219C43.4544 199.731 42.8837 199.335 42.2897 199.335H38.5976C38.0036 199.335 37.6076 199.719 37.7125 200.208L38.3763 203.268C38.4812 203.769 39.0635 204.164 39.6575 204.176H43.3961C44.0018 204.176 44.3861 203.78 44.2696 203.28L43.5592 200.219H43.5708ZM52.0031 199.37H48.3344C47.7404 199.37 47.356 199.754 47.4842 200.231L48.2296 203.28C48.346 203.78 48.9284 204.176 49.534 204.176H53.261C53.855 204.176 54.2393 203.78 54.1112 203.28L53.3192 200.231C53.1911 199.742 52.6088 199.347 52.0264 199.347L52.0031 199.37ZM62.9744 200.266C62.8347 199.777 62.2407 199.393 61.6584 199.393H58.0013C57.4073 199.393 57.0462 199.777 57.1743 200.254L58.0013 203.303C58.141 203.792 58.735 204.199 59.329 204.199H63.0443C63.6383 204.199 64.011 203.803 63.8596 203.315L62.9744 200.266ZM71.2786 199.416H67.6332C67.0508 199.416 66.6898 199.8 66.8296 200.278L67.738 203.315C67.8894 203.803 68.4834 204.211 69.0774 204.211H72.7694C73.3634 204.211 73.7128 203.815 73.5614 203.326L72.5947 200.289C72.4433 199.8 71.8493 199.416 71.2553 199.416H71.2786ZM41.9869 193.424C41.882 192.958 41.323 192.574 40.7406 192.574H37.1185C36.5361 192.563 36.1518 192.935 36.245 193.4L36.8739 196.344C36.9787 196.822 37.5378 197.206 38.1318 197.217H41.8005C42.3945 197.229 42.7788 196.845 42.6624 196.368L41.9752 193.435L41.9869 193.424ZM51.5256 193.459C51.4091 192.993 50.8385 192.609 50.2561 192.609H46.6572C46.0749 192.597 45.7022 192.97 45.8187 193.435L46.5408 196.368C46.6572 196.845 47.2279 197.229 47.8103 197.229H51.4674C52.0497 197.24 52.4224 196.856 52.306 196.379L51.5373 193.447L51.5256 193.459ZM61.0178 193.493C60.878 193.028 60.3073 192.656 59.7366 192.644H56.1494C55.5671 192.632 55.206 193.005 55.3341 193.47L56.1261 196.403C56.2542 196.88 56.8366 197.264 57.4189 197.264H61.0527C61.6351 197.275 61.9961 196.891 61.8564 196.414L61.0061 193.493H61.0178ZM70.475 193.528C70.3236 193.063 69.7413 192.691 69.1706 192.679H65.595C65.0243 192.667 64.6632 193.04 64.803 193.505L65.6765 196.426C65.8163 196.903 66.4103 197.287 66.9926 197.287H70.6148C71.1971 197.299 71.5465 196.915 71.3951 196.438L70.475 193.517V193.528ZM40.4728 186.872C40.3679 186.418 39.8205 186.058 39.2499 186.058L35.6976 186.034C35.1269 186.034 34.7425 186.395 34.8357 186.837L35.4413 189.665C35.5345 190.119 36.0936 190.503 36.6643 190.503H40.2631C40.8455 190.526 41.2182 190.154 41.1133 189.688L40.4611 186.861L40.4728 186.872ZM49.8135 186.93C49.6971 186.477 49.138 186.116 48.579 186.116L45.05 186.093C44.4793 186.093 44.1066 186.453 44.2231 186.895L44.9102 189.723C45.0267 190.177 45.5741 190.561 46.1564 190.561H49.7436C50.3143 190.584 50.687 190.212 50.5706 189.758L49.8368 186.942L49.8135 186.93ZM59.131 186.977C59.0029 186.535 58.4438 186.162 57.8731 186.162L54.3558 186.139C53.7851 186.139 53.424 186.5 53.5522 186.942L54.3209 189.758C54.449 190.212 55.008 190.584 55.5904 190.596H59.1543C59.725 190.608 60.086 190.247 59.9463 189.793L59.131 186.977ZM68.4135 187.023C68.2738 186.581 67.7031 186.209 67.144 186.209L63.6383 186.186C63.0793 186.186 62.7299 186.546 62.858 186.989L63.6966 189.805C63.8363 190.258 64.407 190.631 64.9777 190.631H68.53C69.1007 190.642 69.4501 190.282 69.2987 189.828L68.4135 187.023ZM39.0053 180.588C38.9004 180.158 38.3647 179.809 37.8056 179.797L34.3232 179.774C33.7642 179.774 33.3798 180.123 33.473 180.554L34.0554 183.276C34.1485 183.719 34.6843 184.079 35.255 184.079L38.784 184.103C39.3547 184.103 39.7274 183.754 39.6226 183.311L38.9936 180.6L39.0053 180.588ZM48.183 180.647C48.0665 180.216 47.5308 179.867 46.9717 179.855L43.5009 179.832C42.9419 179.832 42.5808 180.17 42.6857 180.612L43.3495 183.323C43.4544 183.765 44.0018 184.126 44.5725 184.126L48.0898 184.149C48.6488 184.149 49.0215 183.8 48.9051 183.358L48.1946 180.647H48.183ZM57.3141 180.705C57.186 180.274 56.6386 179.925 56.0795 179.914L52.6204 179.89C52.0614 179.89 51.712 180.228 51.8284 180.67L52.5622 183.381C52.6786 183.823 53.2377 184.184 53.7967 184.184L57.3024 184.207C57.8615 184.207 58.2225 183.858 58.0944 183.416L57.3141 180.705ZM66.4219 180.763C66.2821 180.332 65.7231 179.983 65.1757 179.983L61.7282 179.96C61.1692 179.96 60.8314 180.298 60.9595 180.728L61.7748 183.428C61.9029 183.87 62.4736 184.231 63.0327 184.231L66.5151 184.254C67.0741 184.254 67.4119 183.905 67.2721 183.463L66.4103 180.763H66.4219ZM36.4197 173.769L32.9955 173.746C32.4481 173.746 32.0754 174.072 32.1686 174.491L32.7393 177.109C32.8324 177.528 33.3566 177.877 33.9156 177.889L37.3747 177.912C37.9338 177.912 38.3065 177.575 38.2016 177.156L37.596 174.537C37.5028 174.118 36.9787 173.781 36.4313 173.781L36.4197 173.769ZM46.599 174.596C46.4942 174.177 45.9584 173.839 45.411 173.839L42.0102 173.816C41.4627 173.816 41.1017 174.142 41.2065 174.561L41.8471 177.179C41.9519 177.598 42.4877 177.947 43.0351 177.959L46.4825 177.982C47.0416 177.982 47.391 177.644 47.2862 177.225L46.599 174.619V174.596ZM54.3674 173.909L50.9782 173.886C50.4308 173.886 50.0814 174.212 50.1979 174.63L50.9083 177.237C51.0248 177.656 51.5606 178.005 52.1196 178.017L55.5554 178.04C56.1028 178.04 56.4522 177.703 56.3358 177.284L55.5787 174.677C55.4622 174.258 54.9265 173.921 54.3791 173.921L54.3674 173.909ZM64.5118 174.735C64.3837 174.316 63.8363 173.979 63.2889 173.979L59.9113 173.956C59.3639 173.956 59.0262 174.281 59.1543 174.7L59.9346 177.307C60.0627 177.726 60.6101 178.075 61.1575 178.075L64.5817 178.098C65.1291 178.098 65.4669 177.761 65.3388 177.342L64.5118 174.735Z" fill="#F09947"/>
</g>
<mask id="mask1_543_10696" style="mask-type:luminance" maskUnits="userSpaceOnUse" x="131" y="155" width="172" height="78">
<path d="M302.724 155.232H131.761V232.942H302.724V155.232Z" fill="white"/>
</mask>
<g mask="url(#mask1_543_10696)">
<path d="M132.692 226.472C137.002 237.748 178.348 232.383 225.04 214.498C271.744 196.612 306.102 172.967 301.793 161.691C297.483 150.415 256.137 155.779 209.445 173.665C162.753 191.55 128.383 215.196 132.692 226.472Z" fill="#472C27"/>
<path d="M149.871 232.93C139.902 232.93 133.74 230.801 132.168 226.67C129.979 220.944 136.897 212.217 151.63 202.081C166.165 192.086 186.629 181.81 209.247 173.141C231.877 164.472 253.959 158.456 271.453 156.187C289.179 153.883 300.15 155.768 302.328 161.493C304.518 167.218 297.6 175.946 282.866 186.081C268.331 196.077 247.868 206.352 225.25 215.021C202.62 223.691 180.537 229.707 163.044 231.976C158.117 232.616 153.715 232.93 149.871 232.93ZM271.592 157.304C254.192 159.561 232.191 165.554 209.643 174.188C187.095 182.823 166.713 193.063 152.259 203.012C138.201 212.682 131.26 221.154 133.216 226.274C135.173 231.382 145.993 233.058 162.904 230.87C180.304 228.613 202.305 222.62 224.854 213.986C247.402 205.351 267.784 195.111 282.238 185.162C296.295 175.492 303.237 167.02 301.28 161.9C299.894 158.258 294.013 156.361 284.637 156.361C280.84 156.361 276.472 156.675 271.604 157.304H271.592Z" fill="#472C27"/>
</g>
<path d="M91.5907 133.728C91.5907 133.728 90.9851 130.9 91.1481 128.806C91.3112 126.723 93.3959 126.339 93.6405 129.073C93.8968 131.808 96.1213 135.776 96.1213 135.776" fill="#F09947"/>
<path d="M95.6322 136.044C95.539 135.881 93.3377 131.948 93.0815 129.12C92.9883 128.073 92.604 127.689 92.3827 127.689C92.1498 127.689 91.7771 128.061 91.7072 128.841C91.5558 130.819 92.1381 133.577 92.1381 133.6C92.208 133.903 92.01 134.205 91.7072 134.275C91.4044 134.345 91.1015 134.147 91.0433 133.844C91.02 133.728 90.426 130.912 90.5891 128.759C90.6939 127.328 91.5674 126.571 92.371 126.56H92.3827C93.1514 126.56 94.0365 127.2 94.2112 129.015C94.4558 131.598 96.5988 135.45 96.6221 135.485C96.6687 135.567 96.692 135.66 96.692 135.764C96.692 136.079 96.4358 136.323 96.133 136.335C95.935 136.335 95.737 136.23 95.6438 136.044H95.6322Z" fill="#472C27"/>
<path d="M71.4999 131.296C68.8561 131.296 68.8445 133.623 71.3485 133.844C78.6511 134.496 81.027 137.103 81.027 137.103C81.027 137.103 76.5314 136.183 72.4899 137.347C70.4051 137.94 70.8361 139.93 73.643 139.535C84.4396 138.976 91.6257 146.505 95.1081 150.054C95.1314 150.066 96.2844 151.497 98.3575 153.894L108.246 144.399C107.71 144.073 107.256 143.782 106.918 143.572C92.4759 134.24 86.3846 126.955 80.0371 122.091C77.3699 120.043 76.6129 122.254 78.3133 123.639C82.4713 127.025 85.2432 132.11 85.2432 132.11C84.6609 131.319 79.6294 126.92 75.2735 125.524C72.4783 124.628 71.5349 126.571 74.1205 127.747C80.6427 130.714 83.0187 134.391 83.0187 134.391C83.0187 134.391 76.3567 131.307 71.4999 131.307V131.296Z" fill="#F09947"/>
<path d="M98.3575 154.464H98.3342C98.1828 154.464 98.0314 154.383 97.9382 154.267C96.3193 152.405 95.2594 151.125 94.8518 150.636L94.7004 150.45L94.5024 150.252C91.0899 146.784 84.0086 139.581 73.7244 140.105C71.7212 140.384 70.8244 139.593 70.6613 138.836C70.5099 138.115 70.9641 137.207 72.3501 136.812C74.6329 136.16 77.0205 136.137 78.7442 136.253C77.3 135.543 74.9357 134.729 71.3252 134.403C69.6481 134.252 68.9143 133.286 68.9492 132.448C68.9842 131.587 69.7995 130.726 71.5116 130.726H71.5232C74.7144 130.726 78.5812 131.994 80.9921 132.913C79.6527 131.622 77.3699 129.83 73.8992 128.247C72.1754 127.467 71.8726 126.385 72.1405 125.71C72.4433 124.919 73.5963 124.372 75.4598 124.977C77.8591 125.745 80.5029 127.433 82.5178 128.945C81.3531 127.374 79.7924 125.547 77.9755 124.058C76.9157 123.197 76.5546 121.928 77.1486 121.172C77.3816 120.881 78.3133 120.032 80.3981 121.637C82.4829 123.232 84.5094 125.07 86.8621 127.188C91.6256 131.482 97.5422 136.823 107.244 143.095C107.675 143.375 108.118 143.654 108.56 143.922C108.607 143.945 108.642 143.98 108.677 144.015C108.886 144.236 108.886 144.597 108.665 144.806L98.7768 154.301C98.672 154.406 98.5322 154.453 98.3924 154.453L98.3575 154.464ZM107.337 144.492C107.058 144.317 106.825 144.166 106.627 144.038C96.8551 137.719 90.8919 132.343 86.105 128.026C83.7757 125.92 81.7608 124.116 79.7109 122.534C78.6627 121.731 78.1153 121.765 78.0221 121.87C77.894 122.033 78.0105 122.638 78.6744 123.185C82.8672 126.595 85.6275 131.61 85.744 131.82C85.8837 132.064 85.8139 132.378 85.5809 132.553C85.3247 132.739 84.9753 132.681 84.7889 132.425C84.2765 131.726 79.3499 127.409 75.0988 126.048C73.8992 125.664 73.2586 125.908 73.177 126.118C73.1072 126.292 73.3867 126.793 74.3534 127.223C80.9455 130.225 83.3913 133.914 83.4961 134.065C83.601 134.228 83.6126 134.438 83.5311 134.612C83.403 134.892 83.0652 135.02 82.7857 134.88C82.7158 134.845 76.1936 131.854 71.5232 131.854C70.6031 131.854 70.0906 132.192 70.079 132.494C70.079 132.774 70.475 133.193 71.4184 133.274C78.8607 133.937 81.3648 136.602 81.4579 136.719C81.5861 136.847 81.6326 137.033 81.5977 137.219C81.5395 137.521 81.2367 137.719 80.9338 137.649C80.8872 137.649 76.5313 136.765 72.6646 137.882C71.9891 138.08 71.7328 138.417 71.7678 138.58C71.8144 138.778 72.3268 139.151 73.6313 138.964C84.4628 138.394 91.8003 145.853 95.3177 149.437L95.504 149.624C95.504 149.624 95.5855 149.717 95.737 149.903C96.6221 150.962 97.5073 152.021 98.4157 153.068L107.349 144.48L107.337 144.492Z" fill="#472C27"/>
<path d="M48.2295 179.413C45.5391 180.728 46.5524 183.067 50.0697 182.288C55.7184 181.031 59.7016 178.285 63.7315 174.898C62.7415 179.157 62.6832 178.704 62.5202 180.554C62.3571 182.404 64.6632 184.475 66.2705 180.263C67.8777 176.05 70.3934 168.684 73.9807 169.836C75.3433 170.279 77.2534 171.373 78.7559 172.315L78.8025 172.35C79.2683 172.653 79.7225 172.943 80.1884 173.246C80.7591 173.63 81.1318 173.886 81.1318 173.886V173.851C84.7423 176.132 88.3179 178.122 91.8469 179.832L94.4791 165.089C90.9268 164.588 87.3163 163.89 83.6359 163.099C82.7624 162.913 81.1901 162.622 81.1901 162.622C81.1901 162.622 71.7328 160.888 65.5484 163.157C57.4771 166.124 56.0445 167.777 50.9083 169.022C47.9966 169.732 48.8002 171.663 50.7452 171.501C53.1212 171.291 56.0678 170.43 56.0678 170.43C52.8766 172.874 52.667 177.098 48.2295 179.402V179.413Z" fill="#F09947"/>
<path d="M64.0576 183.288C63.9062 183.288 63.778 183.265 63.6616 183.242C62.6017 182.997 61.8447 181.764 61.9495 180.496C62.0543 179.262 62.1242 178.994 62.4154 177.854C62.5085 177.482 62.625 177.016 62.7881 176.388C58.9679 179.448 55.2176 181.706 50.1862 182.823C47.7404 183.37 46.5174 182.532 46.2146 181.659C45.9584 180.915 46.2612 179.739 47.9733 178.901C50.3609 177.656 51.479 175.783 52.5505 173.979C53.0513 173.141 53.5638 172.28 54.2043 171.489C53.1911 171.722 51.9332 171.966 50.7918 172.059C49.5689 172.164 48.5906 171.594 48.4508 170.686C48.3227 169.918 48.8701 168.929 50.7802 168.463C53.5172 167.8 55.1594 167.032 57.4305 165.961C59.3173 165.077 61.6583 163.972 65.362 162.61C71.628 160.306 80.9105 161.982 81.3065 162.052C82.1334 162.203 82.9487 162.366 83.764 162.529C87.9452 163.425 91.3694 164.053 94.5606 164.507C94.5606 164.507 94.5723 164.507 94.5839 164.507C94.8867 164.565 95.0964 164.856 95.0381 165.159L92.406 179.902C92.406 179.902 92.3827 180.007 92.3594 180.053C92.2196 180.333 91.8819 180.449 91.6023 180.309C88.0617 178.587 84.4861 176.609 80.9921 174.41C80.9222 174.398 80.8639 174.363 80.8057 174.328C80.8057 174.328 80.4447 174.072 79.874 173.7L79.4081 173.409C79.0936 173.211 78.7908 173.013 78.4414 172.781C76.4614 171.535 74.8542 170.698 73.7943 170.36C70.9408 169.452 68.53 175.818 67.0974 179.623L66.7829 180.461C65.8861 182.811 64.7913 183.288 64.0459 183.288H64.0576ZM73.2236 169.138C73.5381 169.138 73.8526 169.185 74.1554 169.29C75.3201 169.662 76.9623 170.511 79.047 171.826L79.1053 171.873C79.4081 172.071 79.7109 172.269 80.0137 172.466L80.4912 172.769C80.8407 173.002 81.1202 173.199 81.2832 173.304C81.3298 173.316 81.3764 173.339 81.423 173.362C84.6492 175.41 87.9918 177.284 91.416 178.983L93.8152 165.554C90.7521 165.1 87.4677 164.495 83.5078 163.646C82.6343 163.46 81.0852 163.169 81.0852 163.169C80.9921 163.157 71.7095 161.481 65.7347 163.681C62.066 165.031 59.7482 166.113 57.8847 166.997C55.6369 168.056 53.8666 168.882 51.0248 169.569C49.8834 169.848 49.5107 170.29 49.5456 170.511C49.5806 170.732 49.9998 171 50.687 170.942C52.9698 170.744 55.8698 169.906 55.9048 169.895C56.1261 169.825 56.3707 169.906 56.5104 170.092C56.6968 170.337 56.6502 170.698 56.4056 170.884C55.1244 171.873 54.3441 173.176 53.5172 174.561C52.3641 176.504 51.1645 178.517 48.4858 179.914C48.4858 179.914 48.4857 179.914 48.4741 179.914C47.4958 180.391 47.1697 180.961 47.2861 181.287C47.4142 181.659 48.2528 182.101 49.9533 181.717C55.3341 180.519 59.2008 177.947 63.3704 174.456C63.5102 174.34 63.6849 174.293 63.8596 174.34C64.1624 174.41 64.3487 174.712 64.2789 175.015C64.0343 176.062 63.778 177.098 63.5102 178.133C63.219 179.262 63.1724 179.46 63.0676 180.6C63.0094 181.287 63.417 182.032 63.9062 182.148C64.3604 182.253 65.0825 181.764 65.7347 180.053L66.0492 179.227C67.5982 175.143 69.8693 169.138 73.2236 169.138Z" fill="#472C27"/>
<path d="M85.9886 163.587C86.5476 166.31 87.3047 172.85 82.3082 174.561C139.774 209.948 188.551 170.453 200.593 150.682L162.369 116.762C140.95 168.126 114.267 169.348 86.0002 163.576L85.9886 163.587Z" fill="#FEF8EE"/>
<path d="M129.175 189.363C113.289 189.363 97.484 184.58 82.017 175.05C81.9005 174.98 81.819 174.875 81.784 174.747C81.6792 174.456 81.8423 174.13 82.1334 174.026C86.7106 172.455 85.9769 166.276 85.4528 163.692C85.4411 163.623 85.4411 163.541 85.4528 163.471C85.511 163.169 85.8138 162.971 86.1167 163.029C112.392 168.394 139.878 169.22 161.856 116.541C161.879 116.483 161.914 116.424 161.949 116.378C162.159 116.145 162.508 116.122 162.741 116.331L200.966 150.252C201.176 150.438 201.211 150.729 201.071 150.962C195.306 160.434 176.834 180.17 148.253 187.047C141.882 188.583 135.523 189.339 129.163 189.339L129.175 189.363ZM162.578 117.716C152.748 141.013 141.101 155.535 126.985 162.121C113.592 168.37 99.1611 166.799 86.699 164.309C87.1882 167.265 87.4095 172.536 83.5311 174.654C104.635 187.385 126.322 191.19 148.008 185.977C175.832 179.285 193.92 160.283 199.871 150.799L162.59 117.716H162.578Z" fill="#472C27"/>
<path d="M224.318 214.544C237.118 209.645 248.974 204.316 259.387 198.928C259.061 189.037 259.491 103.322 207.209 82.2593C156.988 72.5776 145.877 169.953 147.193 232.418C164.197 232.884 193.058 226.518 224.318 214.556V214.544Z" fill="#FEF8EE"/>
<path d="M245.434 123.29C259.457 153.731 259.375 198.928 259.375 198.928C259.375 198.928 249.242 203.827 233.705 210.588C243.489 202.675 248.369 198.358 250.815 192.167C253.086 186.407 253.389 179.634 251.676 176.842C243.477 163.46 252.76 152.451 245.422 123.302L245.434 123.29ZM215.886 87.2397C219.38 87.7866 227.917 94.8733 234.404 103.415C236.466 106.138 238.329 109 239.75 111.851C227.521 95.5831 214.581 87.3793 205.089 88.2521C205.089 88.2521 211.274 86.5299 215.874 87.2397H215.886Z" fill="#F09947"/>
<path d="M237.421 129.783C234.66 129.783 231.958 128.98 229.652 127.468C226.566 125.443 224.504 122.359 223.829 118.798C222.524 111.828 227.067 104.939 234.171 103.1C234.462 103.031 234.765 103.205 234.847 103.496C234.928 103.799 234.754 104.113 234.462 104.194C227.929 105.882 223.747 112.212 224.947 118.589C225.564 121.847 227.451 124.663 230.281 126.525C233.111 128.387 236.547 129.062 239.936 128.422C242.242 127.991 244.397 126.956 246.144 125.454C246.377 125.257 246.738 125.28 246.936 125.513C247.134 125.745 247.111 126.106 246.878 126.304C244.968 127.945 242.638 129.062 240.134 129.527C239.226 129.702 238.317 129.783 237.421 129.783ZM185.394 85.343C182.879 87.7285 182.285 91.1381 182.518 95.0596C197.647 82.1895 203.4 79.4316 210.26 83.4928C198.695 75.3937 187.91 82.9575 185.383 85.3314L185.394 85.343ZM213.813 218.955C213.521 218.955 213.277 218.734 213.254 218.431C212.939 214.312 214.243 210.32 216.922 207.19C219.613 204.06 223.351 202.151 227.463 201.837C232.599 201.442 237.595 203.641 240.787 207.69C240.787 207.69 240.787 207.702 240.798 207.714C240.985 207.958 240.938 208.319 240.682 208.505C240.437 208.691 240.076 208.645 239.89 208.389C236.943 204.63 232.308 202.594 227.544 202.966C223.736 203.257 220.265 205.026 217.772 207.923C215.28 210.832 214.069 214.533 214.372 218.35C214.372 218.361 214.372 218.384 214.372 218.396C214.372 218.71 214.115 218.955 213.813 218.955Z" fill="#F09947"/>
<path d="M157.209 131.063C153.54 140.989 149.441 176.621 149.01 186.768C128.511 191.306 112.765 188.059 91.8469 179.821C109.748 178.343 118.809 185.034 126.147 180.507C133.484 175.969 139.482 172.269 144.048 163.448C147.065 157.618 151.595 144.445 157.209 131.063Z" fill="#472C27"/>
<path d="M148.94 233C148.346 233 147.763 233 147.169 232.977C146.867 232.977 146.634 232.721 146.622 232.43C146.249 214.963 146.471 170.313 156.487 133.123C161.25 115.447 167.563 102.065 175.262 93.3256C184.16 83.225 194.945 79.3151 207.314 81.7006C207.349 81.7006 207.384 81.7123 207.418 81.7355C239.89 94.8267 258.525 135.834 259.899 197.217C259.911 197.916 259.922 198.486 259.946 198.916C259.946 199.137 259.829 199.335 259.643 199.44C248.858 205.026 237.036 210.285 224.516 215.08C195.399 226.227 166.724 233.012 148.94 233.012V233ZM224.108 214.009C236.466 209.285 248.136 204.095 258.804 198.579C258.804 198.206 258.781 197.753 258.769 197.229C257.977 161.97 250.209 100.238 207.046 82.7945C195.119 80.5137 184.719 84.3072 176.112 94.0704C168.53 102.67 162.299 115.912 157.582 133.414C147.705 170.081 147.391 214.079 147.74 231.86C165.269 232.174 194.444 225.378 224.108 214.021V214.009Z" fill="#472C27"/>
<path d="M185.685 133.658C180.223 152.789 175.087 165.95 165.21 167.055C149.475 168.824 112.776 147.354 106.93 143.573C105.439 142.607 103.96 141.618 102.504 140.594C99.5571 141.49 95.6554 143.619 93.6871 148.623C94.2112 149.147 94.6888 149.635 95.108 150.054C102.271 159.201 166.899 235.409 210.493 204.676C217.109 200.01 222.979 193.086 227.87 185.15C238.026 168.696 244.024 147.843 244.013 133.553" fill="#FEF8EE"/>
<path d="M161.821 196.333C161.821 188.723 168.006 182.532 175.611 182.532C183.216 182.532 189.401 188.723 189.401 196.333C189.401 203.943 183.216 210.134 175.611 210.134C168.006 210.134 161.821 203.943 161.821 196.333ZM162.951 196.333C162.951 203.327 168.634 209.005 175.623 209.005C182.611 209.005 188.294 203.315 188.294 196.333C188.294 189.351 182.611 183.661 175.623 183.661C168.634 183.661 162.951 189.351 162.951 196.333ZM181.586 116.483C179.093 114.621 177.626 111.7 177.474 108.244C177.323 104.834 178.453 101.297 180.689 98.2946C182.914 95.2924 185.965 93.1862 189.273 92.3483C192.627 91.4988 195.853 92.0574 198.346 93.9076C200.838 95.7695 202.306 98.6903 202.457 102.146C202.608 105.568 201.479 109.093 199.242 112.096C197.018 115.098 193.966 117.204 190.659 118.042C189.669 118.298 188.655 118.426 187.642 118.426C185.406 118.426 183.321 117.763 181.586 116.471V116.483ZM192.278 93.0814C191.357 93.0814 190.437 93.1978 189.541 93.4305C186.477 94.2102 183.659 96.1651 181.586 98.9579C179.513 101.751 178.453 105.021 178.593 108.174C178.732 111.293 180.037 113.911 182.261 115.563C184.486 117.216 187.374 117.705 190.391 116.936C193.454 116.168 196.272 114.202 198.346 111.409C200.419 108.616 201.479 105.346 201.339 102.193C201.199 99.0743 199.895 96.456 197.67 94.8036C196.133 93.6633 194.281 93.0698 192.278 93.0698V93.0814Z" fill="#F09947"/>
<path d="M48.6372 179.867C48.3693 179.867 48.148 179.681 48.0898 179.425C48.0199 179.122 48.2063 178.82 48.5091 178.75C53.0397 177.726 58.0944 173.898 58.1527 173.863C58.3972 173.688 58.735 173.735 58.9214 173.967C59.1194 174.212 59.0728 174.561 58.8282 174.759C58.6185 174.922 53.5289 178.762 48.7537 179.844C48.7071 179.844 48.6721 179.856 48.6256 179.856L48.6372 179.867Z" fill="#472C27"/>
<path d="M52.1661 175.748C54.1694 173.933 57.151 172.431 57.151 172.431L52.1661 175.748Z" fill="#F09947"/>
<path d="M52.1661 176.306C52.0031 176.306 51.8517 176.237 51.7469 176.12C51.5372 175.888 51.5605 175.538 51.7818 175.329C53.8083 173.49 56.7666 171.989 56.8831 171.919C57.1626 171.78 57.5004 171.885 57.6402 172.164C57.7799 172.443 57.6751 172.781 57.3956 172.92C57.3606 172.932 54.4489 174.421 52.5388 176.155C52.434 176.248 52.3059 176.306 52.1661 176.306Z" fill="#472C27"/>
<path d="M132.11 187.803C131.9 187.582 131.9 187.222 132.122 187.001C134.579 184.662 135.93 181.496 135.93 178.11C135.93 171.338 130.433 165.834 123.666 165.834C119.811 165.834 116.259 167.591 113.918 170.663C113.731 170.907 113.37 170.954 113.126 170.767C112.881 170.581 112.835 170.221 113.021 169.976C115.583 166.625 119.462 164.705 123.666 164.705C131.05 164.705 137.06 170.721 137.06 178.11C137.06 181.822 135.581 185.267 132.89 187.827C132.786 187.931 132.646 187.978 132.506 187.978C132.355 187.978 132.203 187.92 132.098 187.803H132.11ZM177.917 157.188C168.856 173.595 151.514 164.623 144.293 162.331C131.982 158.421 105.136 142.84 105.136 142.84C105.136 142.84 124.039 155.547 127.614 158.677C129.711 160.504 132.448 162.424 134.439 162.633C136.443 162.843 140.251 163.925 142.615 165.834C147.915 170.116 149.347 167.16 151.665 168.417C153.994 169.674 156.394 172.92 159.003 172.885C162.695 172.839 162.497 168.685 166.806 170.884C172 173.549 175.786 177.284 177.905 157.164L177.917 157.188ZM229.151 183.056C225.634 180.31 223.619 176.19 223.619 171.733C223.619 163.82 230.048 157.385 237.945 157.385C238.597 157.385 239.249 157.432 239.89 157.513C239.89 157.513 239.913 157.513 239.925 157.513C240.228 157.56 240.437 157.851 240.391 158.165C240.344 158.468 240.053 158.677 239.738 158.63C239.144 158.549 238.539 158.514 237.945 158.514C230.666 158.514 224.737 164.437 224.737 171.733C224.737 175.841 226.601 179.646 229.839 182.171C229.978 182.276 230.06 182.439 230.06 182.614C230.06 182.928 229.804 183.172 229.501 183.172C229.373 183.172 229.256 183.126 229.151 183.056Z" fill="#F09947"/>
<path d="M175.46 98.9811C174.574 98.3527 175.017 96.8632 175.425 95.7926C177.987 89.1132 184.334 85.3197 184.614 85.1684C184.789 85.0637 184.998 85.0637 185.173 85.1684C185.441 85.3197 185.546 85.6571 185.394 85.9364C183.694 89.0783 182.925 91.9874 183.042 94.8268C183.042 95.0013 182.972 95.1642 182.844 95.2806C181.353 96.549 178.033 99.2022 176.193 99.2022C175.914 99.2022 175.658 99.144 175.46 98.9927V98.9811ZM181.9 94.5824C181.842 92.2318 182.343 89.8579 183.426 87.3677C181.388 88.9503 178.08 91.9991 176.473 96.1999C175.879 97.7359 176.112 98.0618 176.112 98.0618C176.566 98.3527 179.117 96.933 181.912 94.5824H181.9Z" fill="#472C27"/>
<path d="M182.04 95.269L179.14 97.5033L180.514 99.144C181.446 99.656 182.809 98.9113 182.809 98.9113L182.867 96.968L182.04 95.269Z" fill="#472C27"/>
<path d="M181.283 99.8887C180.934 99.8887 180.572 99.8189 180.235 99.6327C180.176 99.5978 180.118 99.5512 180.072 99.5047L178.697 97.8639C178.697 97.8639 178.697 97.8523 178.686 97.8406C178.499 97.5963 178.546 97.2355 178.791 97.0493L181.691 94.8151C181.691 94.8151 181.749 94.7686 181.784 94.7569C182.063 94.6173 182.401 94.7337 182.541 95.0129L183.368 96.7119C183.403 96.7933 183.426 96.8864 183.426 96.9795L183.368 98.9228C183.368 99.1207 183.251 99.3068 183.077 99.3999C182.96 99.4698 182.156 99.8887 181.283 99.8887ZM182.296 97.0842L181.83 96.13L179.944 97.5846L180.864 98.6785C181.271 98.8414 181.865 98.6785 182.25 98.5388L182.296 97.0842Z" fill="#472C27"/>
<path d="M169.217 113.713C171.302 108.314 174.33 101.262 181.958 96.4558C179.711 99.9817 177.521 106.312 174.481 117.297C171.057 129.702 161.821 131.168 161.821 131.168C166.748 126.92 167.12 119.112 169.217 113.713Z" fill="#472C27"/>
<path d="M176.182 124.582C177.544 119.275 177.661 117.053 177.556 111.258C177.474 106.964 177.323 101.948 181.958 95.9905C180.84 100.028 182.04 103.857 182.867 111.758C184.206 124.558 176.182 124.582 176.182 124.582ZM88.1432 178.448C87.9219 178.448 87.7123 178.32 87.6308 178.11C87.5026 177.831 87.6308 177.493 87.9103 177.365C93.0465 175.05 91.5324 168.731 91.4626 168.452C91.381 168.149 91.5674 167.847 91.8702 167.765C92.173 167.684 92.4758 167.87 92.5574 168.172C92.5807 168.242 94.3743 175.678 88.3761 178.378C88.3063 178.413 88.2247 178.424 88.1432 178.424V178.448ZM97.9033 153.592C97.6121 153.475 97.4723 153.15 97.5888 152.859C99.3824 148.297 104.158 145.528 104.356 145.411C104.623 145.26 104.973 145.353 105.124 145.621C105.276 145.888 105.183 146.237 104.915 146.389C104.868 146.412 100.291 149.077 98.637 153.266C98.5438 153.487 98.3342 153.627 98.1129 153.627C98.043 153.627 97.9731 153.615 97.9033 153.592Z" fill="#472C27"/>
<path d="M167.516 138.988C167.738 137.277 167.132 135.788 166.177 135.671C165.222 135.555 164.267 136.835 164.057 138.557C163.836 140.268 164.442 141.757 165.397 141.874C166.352 141.99 167.307 140.698 167.516 138.988Z" fill="#F09947"/>
<path d="M165.501 142.432C165.432 142.432 165.373 142.432 165.303 142.421C164.628 142.339 164.081 141.839 163.743 141.013C163.452 140.303 163.358 139.395 163.475 138.476C163.731 136.428 164.931 134.95 166.224 135.101C167.505 135.264 168.308 136.998 168.052 139.046C167.808 140.989 166.701 142.432 165.49 142.432H165.501ZM166.037 136.218C165.49 136.218 164.779 137.207 164.605 138.615C164.511 139.337 164.581 140.058 164.803 140.594C164.977 141.013 165.21 141.28 165.455 141.304C166.014 141.373 166.759 140.361 166.946 138.906C167.132 137.452 166.643 136.288 166.095 136.218C166.072 136.218 166.061 136.218 166.037 136.218Z" fill="#472C27"/>
<path d="M164.651 157.525C164.779 155.803 164.104 154.348 163.137 154.278C162.171 154.208 161.297 155.547 161.169 157.269C161.041 158.991 161.716 160.446 162.683 160.515C163.65 160.585 164.523 159.247 164.651 157.525Z" fill="#F09947"/>
<path d="M162.753 161.086C162.753 161.086 162.671 161.086 162.636 161.086C161.344 160.993 160.447 159.305 160.598 157.234C160.75 155.174 161.868 153.627 163.172 153.72C164.465 153.813 165.35 155.5 165.21 157.572C165.14 158.502 164.873 159.364 164.453 160.004C163.987 160.702 163.393 161.086 162.765 161.086H162.753ZM161.716 157.316C161.611 158.782 162.147 159.91 162.706 159.957C162.951 159.98 163.242 159.771 163.487 159.387C163.801 158.91 164.011 158.212 164.069 157.49C164.174 156.024 163.638 154.895 163.079 154.849H163.044C162.497 154.849 161.809 155.884 161.705 157.316H161.716Z" fill="#472C27"/>
<path d="M157.081 218.082C158.047 218.152 158.921 216.813 159.049 215.091C159.177 213.369 158.502 211.914 157.535 211.845C156.568 211.775 155.695 213.113 155.567 214.835C155.439 216.557 156.114 218.012 157.081 218.082Z" fill="#F09947"/>
<path d="M157.139 218.664C157.139 218.664 157.069 218.664 157.023 218.664C155.73 218.571 154.845 216.883 154.984 214.812C155.054 213.881 155.322 213.02 155.741 212.38C156.231 211.635 156.895 211.251 157.547 211.309C158.84 211.402 159.736 213.09 159.585 215.161C159.434 217.163 158.374 218.675 157.127 218.675L157.139 218.664ZM156.696 212.997C156.382 213.474 156.172 214.172 156.114 214.893C156.009 216.36 156.545 217.488 157.104 217.535C157.686 217.57 158.362 216.534 158.467 215.068C158.572 213.602 158.036 212.473 157.477 212.426C157.477 212.426 157.454 212.426 157.442 212.426C157.197 212.426 156.929 212.636 156.685 212.997H156.696ZM163.463 206.189C177.824 211.879 189.995 212.799 196.901 210.506C203.808 208.214 203.726 203.652 201.863 201.651C199.999 199.661 192.01 198.881 185.767 201.535C179.536 204.176 171.663 204.863 167.563 203.233C163.463 201.604 166.27 197.694 155.788 196.508C145.318 195.321 132.82 187.024 132.82 187.024C139.471 192.446 149.103 200.499 163.463 206.189Z" fill="#472C27"/>
<path d="M187.095 212.17C181.353 212.17 175.308 211.146 169.007 209.098C158.082 205.549 146.308 198.928 134.032 189.409C114.267 174.095 99.0563 155.861 94.8634 150.648C94.7819 150.543 94.7237 150.473 94.7004 150.438L94.5257 150.264C94.153 149.891 93.7454 149.472 93.2911 149.018C93.1281 148.856 93.0815 148.623 93.163 148.413C95.2129 143.189 99.2893 140.978 102.341 140.047C102.504 140 102.69 140.023 102.83 140.128C104.286 141.14 105.753 142.13 107.244 143.095C113.731 147.285 149.895 168.207 165.164 166.497C173.713 165.542 179.687 156.419 185.802 135.008C185.883 134.705 186.198 134.531 186.501 134.624C186.804 134.717 186.978 135.02 186.885 135.322C182.308 151.346 176.519 166.357 165.292 167.614C164.64 167.684 163.952 167.719 163.242 167.719C144.828 167.719 107.023 144.282 106.638 144.038C105.217 143.119 103.832 142.188 102.422 141.21C99.7085 142.095 96.2378 144.061 94.3626 148.483C94.712 148.832 95.0382 149.17 95.341 149.472L95.504 149.635C95.504 149.635 95.5856 149.728 95.7603 149.938C99.9298 155.139 115.071 173.269 134.742 188.513C162.322 209.89 186.07 216.127 205.31 207.039C213.673 203.094 221.208 195.763 227.707 185.255C232.447 177.586 236.466 168.428 239.319 158.758C240.169 155.872 240.903 152.963 241.532 150.031C242.802 144.003 243.477 138.313 243.477 133.53C243.652 126.618 241.614 120.753 237.595 116.552C233.635 112.421 227.917 110.082 221.511 109.978C221.197 109.978 220.952 109.722 220.952 109.407C220.952 109.093 221.208 108.849 221.523 108.849C228.231 108.954 234.229 111.409 238.411 115.761C242.65 120.171 244.793 126.327 244.607 133.53C244.607 138.371 243.931 144.154 242.638 150.252C242.01 153.219 241.264 156.163 240.402 159.073C237.526 168.836 233.472 178.098 228.674 185.837C222.047 196.531 214.36 204.002 205.8 208.039C200.011 210.774 193.768 212.136 187.13 212.136L187.095 212.17Z" fill="#472C27"/>
<path d="M179.28 155.384C180.724 145.016 182.121 146.168 180.829 137.533C179.536 128.899 184.276 126.734 186.547 127.607C188.178 128.224 187.083 134.194 187.083 134.194C185.65 140.093 184.032 147.901 179.28 155.384Z" fill="#472C27"/>
<path d="M183.682 154.593C183.682 146.982 189.867 140.792 197.472 140.792C205.077 140.792 211.262 146.982 211.262 154.593C211.262 162.203 205.077 168.394 197.472 168.394C189.867 168.394 183.682 162.203 183.682 154.593ZM184.812 154.593C184.812 161.586 190.496 167.265 197.484 167.265C204.472 167.265 210.155 161.575 210.155 154.593C210.155 147.611 204.472 141.92 197.484 141.92C190.496 141.92 184.812 147.611 184.812 154.593Z" fill="#F09947"/>
<path d="M212.997 110.583C209.294 111.642 205.834 113.376 202.76 115.703L212.997 110.583Z" fill="#FEF8EE"/>
<path d="M202.76 116.262C202.585 116.262 202.422 116.18 202.317 116.04C202.131 115.796 202.177 115.435 202.422 115.249C205.578 112.864 209.084 111.106 212.846 110.036C213.137 109.954 213.44 110.129 213.533 110.42C213.626 110.722 213.463 111.037 213.16 111.13C209.538 112.165 206.149 113.853 203.109 116.157C203.016 116.227 202.888 116.273 202.771 116.273L202.76 116.262Z" fill="#472C27"/>
<path d="M159.864 58.6835C161.891 57.9737 162.369 54.0173 160.913 49.8281C159.457 45.6389 156.638 42.8228 154.612 43.521C152.585 44.2309 152.108 48.1873 153.564 52.3765C155.019 56.5657 157.838 59.3817 159.864 58.6835Z" fill="#FEF8EE"/>
<path d="M159.212 59.3584C158.222 59.3584 157.151 58.8114 156.103 57.7641C154.856 56.519 153.761 54.6688 153.039 52.5626C151.467 48.0127 152.073 43.8118 154.437 42.9856C156.801 42.1594 159.888 45.0919 161.46 49.6302C162.194 51.7364 162.473 53.8542 162.264 55.6114C162.042 57.5081 161.25 58.7882 160.062 59.1955C159.795 59.2885 159.503 59.3351 159.224 59.3351L159.212 59.3584ZM155.264 43.9864C155.101 43.9864 154.949 44.0097 154.798 44.0562C153.284 44.5799 152.632 47.9778 154.099 52.1902C154.775 54.1335 155.765 55.8325 156.894 56.9612C157.908 57.9736 158.921 58.4042 159.678 58.1482C160.435 57.8805 160.971 56.9147 161.134 55.495C161.32 53.9008 161.052 51.9575 160.377 50.0142C159.061 46.1974 156.801 43.9864 155.252 43.9864H155.264Z" fill="#472C27"/>
<path d="M207.547 81.8403C199.638 80.1181 193.547 84.4004 186.198 88.3335L177.148 61.2668C177.148 61.2668 187.316 42.9856 190.228 55.9372C194.223 73.7529 207.558 81.8403 207.558 81.8403H207.547Z" fill="#F09947"/>
<path d="M185.534 87.1583C185.289 87.1583 185.08 87.007 184.998 86.7743L176.601 61.4413C176.554 61.2901 176.566 61.1155 176.659 60.9759C177.276 59.9519 182.844 50.9917 187.328 51.6899C189.121 51.9691 190.426 53.7146 191.194 56.8914C195.609 75.0911 211.67 83.5742 211.833 83.6556C212.089 83.7953 212.194 84.1211 212.066 84.3887C211.926 84.668 211.6 84.7844 211.309 84.6564C211.145 84.5749 194.63 75.8707 190.1 57.1591C189.447 54.471 188.457 53.0164 187.153 52.807C184.055 52.3299 179.454 58.6136 177.754 61.3482L186.07 86.4252C186.07 86.4252 186.093 86.5415 186.093 86.5997C186.093 86.9139 185.837 87.1583 185.534 87.1583Z" fill="#472C27"/>
<path d="M193.337 52.807L190.973 34.7819C179.757 17.0011 154.798 30.9651 159.096 44.4403C160.214 47.9429 162.124 49.4091 159.771 54.2034C158.525 56.7518 160.156 58.5206 162.73 58.7999C165.42 60.6966 167.33 70.4481 173.747 69.3194C179.594 68.2953 181.586 65.8167 182.389 64.8975" fill="#F09947"/>
<path d="M164.803 62.7911C163.999 61.3249 163.254 59.9401 162.508 59.3466C160.948 59.1372 159.736 58.4273 159.154 57.3684C158.781 56.6818 158.49 55.5415 159.27 53.9589C160.982 50.4795 160.319 48.9319 159.41 46.7907C159.119 46.1158 158.828 45.4292 158.572 44.603C156.312 37.5163 161.705 30.7438 168.204 27.7183C174.982 24.5648 185.138 24.4368 191.462 34.4675C191.509 34.5374 191.532 34.6188 191.544 34.7003L193.908 52.7254C193.943 53.0396 193.733 53.3189 193.419 53.3538C193.116 53.3887 192.825 53.1792 192.79 52.865L190.449 34.9679C184.497 25.6586 175.017 25.7866 168.681 28.7423C162.636 31.5584 157.593 37.7956 159.655 44.2656C159.899 45.0336 160.191 45.6969 160.458 46.3485C161.413 48.5828 162.229 50.5144 160.295 54.4593C159.853 55.3553 159.806 56.1815 160.156 56.8215C160.575 57.5895 161.542 58.1015 162.799 58.2412C162.893 58.2412 162.986 58.2877 163.067 58.3459C164.046 59.0441 164.861 60.5336 165.804 62.2558C167.644 65.6304 169.741 69.4589 173.666 68.7723C179.117 67.8181 181.062 65.5839 181.9 64.6297L181.993 64.5249C182.191 64.3155 182.529 64.2922 182.762 64.4784C183.007 64.6762 183.042 65.0369 182.844 65.2697L182.762 65.3628C181.854 66.4101 179.711 68.8537 173.876 69.8778C173.503 69.9476 173.118 69.9825 172.734 69.9825C168.751 69.9825 166.585 66.0261 164.826 62.7911H164.803Z" fill="#472C27"/>
<path d="M181.318 45.1967C180.829 47.0818 179.443 48.6062 178.115 44.6847C174.772 34.7703 169.159 42.1711 158.886 39.0176C148.975 35.9805 147.612 20.3292 173.608 16.0004C187.84 13.6265 197.554 17.7226 209.853 26.5781C222.536 35.7128 224.306 40.3907 239.191 38.6685C249.312 37.4932 265.198 36.1666 272.408 43.8468C285.569 57.8806 292.289 57.6013 301.443 58.7417C322.314 61.3366 326.996 80.5836 314.837 97.608C306.964 108.639 295.305 114.714 274.854 115.459C248.695 116.401 240.95 80.956 211.145 75.2657C181.19 69.5405 186.396 55.1576 188.283 50.4331C189.366 47.7334 190.053 43.7537 187.421 42.2293C183.577 40.0067 181.924 43.1952 181.33 45.1967H181.318Z" fill="#472C27"/>
<path d="M170.731 58.0668C172.827 57.3337 173.317 53.2376 171.814 48.8971C170.312 44.5683 167.388 41.6475 165.292 42.369C163.195 43.1021 162.706 47.1982 164.209 51.5386C165.711 55.8675 168.634 58.7883 170.731 58.0668Z" fill="#FEF8EE"/>
<path d="M170.055 58.7417C169.042 58.7417 167.924 58.1831 166.853 57.1009C165.56 55.8093 164.43 53.9009 163.685 51.7248C162.054 47.0236 162.683 42.6832 165.117 41.8453C166.352 41.4148 167.796 41.9501 169.194 43.3465C170.486 44.6381 171.616 46.5465 172.361 48.7226C173.119 50.8986 173.41 53.0979 173.2 54.9016C172.967 56.8566 172.163 58.1715 170.929 58.6021C170.649 58.6952 170.358 58.7417 170.067 58.7417H170.055ZM165.967 42.8344C165.804 42.8344 165.641 42.8577 165.478 42.9159C163.894 43.4628 163.219 46.9887 164.733 51.3641C165.432 53.3772 166.468 55.1343 167.633 56.3096C168.693 57.3686 169.741 57.8108 170.533 57.5431C171.325 57.2638 171.872 56.2631 172.059 54.7736C172.257 53.1212 171.977 51.1081 171.278 49.0949C170.58 47.0818 169.543 45.3247 168.378 44.1494C167.528 43.2999 166.678 42.8461 165.956 42.8461L165.967 42.8344Z" fill="#472C27"/>
<path d="M165.851 50.9568C165.548 50.8637 165.385 50.5495 165.478 50.2586C165.571 49.956 165.886 49.7931 166.177 49.8862C168.075 50.4564 169.065 49.2578 169.112 49.1996C169.298 48.9553 169.659 48.9087 169.904 49.1065C170.149 49.2927 170.195 49.6535 169.997 49.8978C169.951 49.956 168.984 51.1779 167.167 51.1779C166.724 51.1779 166.27 51.108 165.851 50.98V50.9568Z" fill="#472C27"/>
<path d="M168.134 52.5277C168.669 52.2717 168.867 51.5503 168.565 50.8986C168.262 50.247 167.586 49.9328 167.039 50.1771C166.503 50.4332 166.305 51.1546 166.608 51.8063C166.911 52.4579 167.586 52.7721 168.134 52.5277ZM168.436 65.0837C167.586 65.0837 166.678 64.8858 165.816 64.3156C165.56 64.1411 165.49 63.792 165.653 63.536C165.828 63.28 166.177 63.1985 166.433 63.3731C168.646 64.8393 171.546 63.024 171.569 63.0123C171.826 62.8611 172.152 62.9309 172.327 63.1752C172.501 63.4313 172.443 63.7804 172.175 63.9549C172.07 64.0247 170.393 65.072 168.425 65.072L168.436 65.0837Z" fill="#472C27"/>
<path d="M272.687 44.2075C275.564 53.2724 283.181 58.7417 293.395 60.6151C303.703 62.5003 309.072 61.4763 318.564 69.1099C314.826 63.9316 311.25 59.754 295.55 58.1715C281.318 56.7285 272.687 44.2075 272.687 44.2075Z" fill="#F09947"/>
<path d="M183.531 49.0832C184.288 45.8482 185.907 44.5449 185.907 44.5449L183.531 49.0832Z" fill="#472C27"/>
<path d="M183.531 49.6419C183.531 49.6419 183.449 49.6419 183.403 49.6303C183.1 49.5604 182.914 49.2579 182.983 48.9553C183.775 45.5691 185.476 44.1727 185.557 44.1145C185.802 43.9167 186.151 43.9632 186.349 44.196C186.547 44.4403 186.512 44.7894 186.268 44.9873C186.256 44.9989 184.789 46.2324 184.09 49.2113C184.032 49.4674 183.799 49.6419 183.542 49.6419H183.531Z" fill="#472C27"/>
<path d="M184.824 46.1624C185.953 46.7558 186.279 48.3268 186.279 48.3268L184.824 46.1624Z" fill="#472C27"/>
<path d="M186.279 48.8855C186.012 48.8855 185.779 48.6993 185.732 48.4433C185.732 48.4317 185.441 47.1284 184.567 46.6629C184.567 46.6629 184.556 46.6629 184.544 46.6513C184.276 46.5 184.171 46.1626 184.323 45.8833C184.474 45.6156 184.812 45.5109 185.091 45.6622C186.443 46.372 186.827 48.1292 186.838 48.2106C186.838 48.2455 186.85 48.2921 186.85 48.327C186.85 48.6412 186.594 48.8855 186.291 48.8855H186.279Z" fill="#472C27"/>
<path d="M169.566 112.805C168.297 115.738 167.039 121.754 165.059 126.583C167.12 125.315 169.997 119.124 171.942 113.434C174.004 107.418 178.907 98.5504 178.907 98.5504C174.155 101.564 170.836 109.873 169.566 112.805ZM209.55 30.0922C211.856 32.2566 222.21 42.3223 233.426 39.1571C225.226 39.8786 224.225 37.4349 208.257 25.9147C192.289 14.3944 181.073 15.1159 181.073 15.1159C196.319 18.281 207.244 27.9278 209.55 30.0806V30.0922Z" fill="#F09947"/>
<path d="M171.441 48.0825C171.197 48.0825 170.987 47.9312 170.906 47.6985C170.801 47.4076 170.964 47.0817 171.255 46.9886L179.233 44.254C179.524 44.1493 179.85 44.3122 179.944 44.6031C180.048 44.8941 179.885 45.2199 179.594 45.3246L171.616 48.0592C171.558 48.0825 171.5 48.0941 171.43 48.0941L171.441 48.0825ZM163.463 49.9443H163.452L161.006 49.8745C160.691 49.8745 160.447 49.6069 160.458 49.2927C160.458 48.9785 160.75 48.7341 161.041 48.7458L163.487 48.8156C163.801 48.8156 164.046 49.0716 164.046 49.3858C164.046 49.7 163.789 49.9443 163.475 49.9443H163.463Z" fill="#472C27"/>
<path d="M273.817 116.029C260.749 116.029 252.247 107.022 243.267 97.5033C234.474 88.1824 225.378 78.5472 211.029 75.801C198.695 73.4388 190.833 69.331 187.689 63.5825C184.637 57.997 186.897 52.3416 187.747 50.2121C188.131 49.2462 189.925 44.3239 187.13 42.7065C185.965 42.0315 184.963 41.857 184.125 42.1944C182.809 42.7181 182.145 44.3821 181.854 45.3363C181.481 46.7793 180.759 47.652 179.92 47.6869H179.874C178.965 47.6869 178.22 46.756 177.579 44.8476C175.704 39.2737 173.351 39.5646 169.089 40.0766C166.328 40.4024 162.893 40.8213 158.723 39.5413C154.274 38.1798 151.479 34.4328 151.758 30.2087C151.933 27.5672 154.018 18.6768 173.514 15.4302C188.341 12.9633 198.182 17.4783 210.179 26.1126C212.694 27.9279 214.779 29.5571 216.619 31C224.027 36.8067 227.404 39.4482 239.121 38.0984C246.855 37.2023 264.977 35.0961 272.815 43.4512C284.823 56.2515 291.264 56.9962 299.428 57.9271C300.116 58.0086 300.803 58.0901 301.513 58.1715C310.633 59.3003 317.306 63.6989 320.3 70.5412C323.759 78.4425 321.895 88.6827 315.291 97.9222C306.871 109.722 294.397 115.296 274.877 116.006C274.527 116.017 274.178 116.029 273.829 116.029H273.817ZM252.084 38.3195C247.041 38.3195 242.312 38.8664 239.249 39.2271C227.078 40.6351 223.351 37.7143 215.932 31.896C214.104 30.4531 212.019 28.824 209.526 27.0319C197.775 18.5721 188.143 14.1386 173.712 16.5473C158.863 19.0259 153.226 25.2748 152.888 30.2902C152.643 33.979 155.124 37.2605 159.061 38.4707C163.009 39.6809 166.305 39.2853 168.961 38.9595C173.165 38.4591 176.484 38.0518 178.662 44.4985C179.35 46.5465 179.885 46.5698 179.897 46.5698C180.072 46.5698 180.503 46.116 180.782 45.0571V45.0338C181.132 43.8818 181.97 41.857 183.729 41.1471C184.893 40.6817 186.233 40.8795 187.712 41.729C190.507 43.3465 190.111 47.3844 188.818 50.631C187.467 54.0289 186.221 58.4973 188.702 63.0356C191.684 68.4816 199.266 72.4031 211.262 74.6955C225.96 77.4999 235.184 87.2747 244.106 96.7236C253.144 106.301 261.693 115.354 274.842 114.877C293.989 114.179 306.184 108.756 314.383 97.2706C320.754 88.3569 322.582 78.5356 319.275 70.9951C316.444 64.5251 310.085 60.3708 301.373 59.2886C300.675 59.1955 299.987 59.1257 299.3 59.0443C291.241 58.125 284.288 57.322 272 44.2192C267.563 39.4947 259.491 38.3078 252.096 38.3078L252.084 38.3195Z" fill="#472C27"/>
<path d="M182.529 95.0595C182.529 95.0595 183.508 110.653 195.213 96.5025C207.325 81.852 218.04 88.1125 218.04 88.1125C210.4 81.433 200.71 75.6613 182.529 95.0712V95.0595Z" fill="#FEF8EE"/>
<path d="M187.118 103.007C186.722 103.007 186.326 102.949 185.953 102.821C182.413 101.669 181.982 95.3621 181.958 95.0945C181.958 94.9432 182.005 94.7919 182.11 94.6756C200.512 75.033 210.493 80.7698 218.401 87.682C218.599 87.8565 218.658 88.1591 218.518 88.3918C218.366 88.6594 218.017 88.7525 217.749 88.6012C217.33 88.3569 207.279 82.7829 195.643 96.8632C192.231 100.983 189.424 103.019 187.106 103.019L187.118 103.007ZM215.315 86.5765C207.966 80.9094 198.986 78.4076 183.111 95.2574C183.275 97.0262 184.078 101.029 186.303 101.751C188.283 102.391 191.218 100.447 194.782 96.1301C201.42 88.1009 207.733 86.239 212.147 86.239C213.207 86.239 214.267 86.3437 215.315 86.5648V86.5765ZM181.05 65.5957C180.246 67.3179 179.163 67.8648 179.163 67.8648L180.514 71.2161C183.694 68.5746 184.393 64.3622 183.321 64.0363C182.203 63.6989 181.062 65.6073 181.062 65.6073L181.05 65.5957Z" fill="#472C27"/>
<path d="M161.821 131.738C161.658 131.738 161.507 131.668 161.39 131.54C161.192 131.307 161.215 130.947 161.448 130.749C164.768 127.886 165.944 123.325 167.085 118.914C167.586 116.983 168.052 115.168 168.693 113.515C171.01 107.522 174.108 100.738 181.667 95.9904C181.854 95.874 182.087 95.874 182.273 95.9904C182.541 96.1533 182.611 96.5024 182.448 96.77C180.34 100.086 178.185 106.079 175.04 117.46C171.558 130.074 162.31 131.68 161.926 131.738C161.891 131.738 161.868 131.738 161.833 131.738H161.821ZM180.281 98.306C174.423 102.763 171.767 108.651 169.729 113.922C169.112 115.505 168.658 117.297 168.169 119.194C167.225 122.871 166.165 126.967 163.72 130.004C166.538 128.852 171.581 125.652 173.934 117.157C176.531 107.755 178.464 101.972 180.281 98.306Z" fill="#472C27"/>
<path d="M177.486 110.746C177.964 114.702 177.649 117.239 176.694 121.673C178.593 119.38 180.479 114.446 180.176 110.978C179.862 107.418 179.385 100.284 179.385 100.284C177.964 102.344 177.009 106.778 177.486 110.734V110.746Z" fill="#F09947"/>
<path d="M176.182 125.14C176.182 125.14 176.088 125.14 176.042 125.117C175.739 125.036 175.564 124.733 175.634 124.43C177.009 119.101 177.09 116.855 176.985 111.258V111.095C176.904 106.906 176.811 101.681 181.504 95.6298C181.644 95.4552 181.877 95.3738 182.098 95.432C182.401 95.5134 182.576 95.8276 182.494 96.1302C181.726 98.9113 182.11 101.658 182.681 105.823C182.914 107.511 183.181 109.431 183.414 111.688C183.938 116.68 183.135 120.404 181.038 122.743C178.919 125.105 176.286 125.14 176.17 125.14H176.182ZM180.98 98.3644C177.964 103.205 178.045 107.359 178.115 111.083V111.246C178.22 116.669 178.138 119.019 176.939 123.918C178.208 123.639 179.361 122.976 180.223 121.998C182.098 119.904 182.809 116.471 182.32 111.816C182.087 109.582 181.819 107.674 181.586 105.986C181.155 102.891 180.829 100.552 180.992 98.3644H180.98Z" fill="#472C27"/>
<mask id="mask2_543_10696" style="mask-type:luminance" maskUnits="userSpaceOnUse" x="45" y="141" width="27" height="24">
<path d="M64.3547 141.86L45.883 153.432L52.7386 164.356L71.2103 152.783L64.3547 141.86Z" fill="white"/>
</mask>
<g mask="url(#mask2_543_10696)">
<path d="M70.871 152.719C70.9874 152.451 70.871 152.137 70.5915 152.021C70.4866 151.974 59.6434 147.529 47.7404 152.288C47.4608 152.393 47.3327 152.707 47.4375 152.986C47.5424 153.254 47.8568 153.394 48.1364 153.277C59.6201 148.681 70.0673 152.952 70.1722 152.998C70.3352 153.068 70.5216 153.056 70.6613 152.963C70.7545 152.905 70.8244 152.824 70.871 152.719ZM64.7797 156.559C64.803 156.268 64.5817 156.012 64.2905 155.989C63.9993 155.965 56.9647 155.488 50.9083 160.597C50.687 160.783 50.6521 161.12 50.8384 161.353C51.0248 161.574 51.3625 161.609 51.5955 161.411C57.3024 156.594 64.1275 157.048 64.1973 157.059C64.3138 157.059 64.4303 157.036 64.5235 156.978C64.6632 156.885 64.7564 156.733 64.7797 156.571V156.559Z" fill="#472C27"/>
</g>
<mask id="mask3_543_10696" style="mask-type:luminance" maskUnits="userSpaceOnUse" x="82" y="25" width="53" height="33">
<path d="M86.8315 25.2224L82.5931 48.8286L130.741 57.4582L134.98 33.852L86.8315 25.2224Z" fill="white"/>
</mask>
<g mask="url(#mask3_543_10696)">
<path d="M91.0666 26.648C88.9585 26.2756 86.9553 27.672 86.5942 29.7666L85.2898 37.121C84.9171 39.2155 86.3263 41.2054 88.4228 41.5778L120.568 47.2681L124.377 55.7512L125.716 48.1757L127.847 48.5481C129.944 48.9205 131.959 47.5241 132.32 45.4295L133.624 38.0752C133.997 35.9806 132.588 33.9907 130.491 33.6183L91.0666 26.648Z" fill="#FEF8EE"/>
<path d="M124.272 56.3097C124.085 56.2747 123.934 56.1584 123.852 55.9838L120.172 47.7684L88.3179 42.1362C87.1649 41.9268 86.1399 41.2751 85.4644 40.3209C84.7889 39.3667 84.521 38.1798 84.7307 37.0278L86.0351 29.6734C86.4544 27.2763 88.7605 25.6821 91.1714 26.101L130.596 33.0713C132.995 33.5019 134.602 35.7943 134.183 38.1914L132.879 45.5458C132.459 47.9429 130.153 49.5371 127.742 49.1182L126.17 48.8389L124.924 55.8675C124.866 56.17 124.574 56.3795 124.272 56.3213V56.3097ZM130.398 34.1768L90.9734 27.1948C89.1798 26.8806 87.4677 28.0676 87.1532 29.8596L85.8488 37.214C85.6974 38.0751 85.8837 38.9478 86.3962 39.6693C86.9086 40.3908 87.6657 40.8911 88.5275 41.0191L120.673 46.7094C120.859 46.7444 121.011 46.8607 121.092 47.0353L124.144 53.8427L125.168 48.0709C125.227 47.7684 125.518 47.5589 125.821 47.6171L127.952 47.9895C129.746 48.3037 131.458 47.1167 131.772 45.3247L133.077 37.9703C133.391 36.1899 132.203 34.4794 130.41 34.1652L130.398 34.1768Z" fill="#472C27"/>
<path d="M117.738 39.1807C117.878 38.3661 117.342 37.5981 116.527 37.4468C115.711 37.2955 114.931 37.8425 114.791 38.6454C114.651 39.4483 115.187 40.228 116.002 40.3792C116.818 40.5305 117.598 39.9836 117.738 39.1807ZM110.913 37.9705C111.053 37.1559 110.517 36.3879 109.701 36.2366C108.886 36.0853 108.106 36.6322 107.966 37.4352C107.826 38.2381 108.362 39.0178 109.177 39.169C109.993 39.3203 110.773 38.7734 110.913 37.9705ZM104.088 36.7603C104.227 35.9457 103.692 35.1777 102.876 35.0264C102.061 34.8751 101.281 35.422 101.141 36.225C101.001 37.0279 101.537 37.8075 102.352 37.9588C103.168 38.1101 103.948 37.5632 104.088 36.7603Z" fill="#472C27"/>
</g>
<mask id="mask4_543_10696" style="mask-type:luminance" maskUnits="userSpaceOnUse" x="30" y="36" width="34" height="28">
<path d="M34.2991 36.9007L30.3309 58.0247L59.6123 63.5156L63.5804 42.3916L34.2991 36.9007Z" fill="white"/>
</mask>
<g mask="url(#mask4_543_10696)">
<path d="M32.7742 57.9039C31.8192 57.7293 31.1902 56.81 31.3649 55.8558L34.4281 39.3551C34.6028 38.4009 35.5229 37.7725 36.4779 37.9587L61.1343 42.5203C62.0893 42.6948 62.7182 43.6141 62.5435 44.5683L59.4804 61.069C59.3057 62.0232 58.3856 62.6516 57.4306 62.4654L32.7742 57.9039Z" fill="#FEF8EE"/>
<path d="M31.1669 57.4966C30.8175 56.9846 30.6778 56.3678 30.7942 55.7511L33.8574 39.2504C33.9738 38.6453 34.3232 38.11 34.8357 37.7609C35.3481 37.4118 35.9771 37.2838 36.5827 37.3885L61.2391 41.9501C62.5086 42.1944 63.3355 43.4046 63.1026 44.6614L60.0394 61.1737C59.8065 62.4305 58.5836 63.2683 57.3141 63.0356L32.6577 58.4741C32.0521 58.3577 31.5163 58.0086 31.1669 57.5082V57.4966ZM61.0178 43.0788L36.3614 38.5173C36.047 38.4591 35.7325 38.5173 35.4763 38.7034C35.22 38.878 35.0337 39.1573 34.9871 39.4598L31.924 55.9722C31.8657 56.2864 31.924 56.6006 32.1103 56.8566C32.285 57.1126 32.5646 57.2871 32.8674 57.3453L57.5237 61.9185C57.8382 61.9767 58.1527 61.9185 58.4089 61.7323C58.6651 61.5578 58.8398 61.2901 58.898 60.9759L61.9612 44.4636C62.0776 43.8236 61.6583 43.2068 61.0178 43.0904V43.0788Z" fill="#472C27"/>
<path d="M46.797 50.9917C46.1797 50.8754 45.6207 50.5612 45.2014 50.1074L35.022 39.2038C34.8124 38.9711 34.8241 38.622 35.057 38.4126C35.2899 38.1915 35.651 38.2031 35.8723 38.4242L46.0516 49.3277C46.5757 49.8979 47.4259 50.0608 48.1247 49.7117L61.5302 43.1719C61.8098 43.0323 62.1592 43.1487 62.2989 43.4396C62.4387 43.7189 62.3222 44.068 62.0311 44.2076L48.6256 50.7474C48.0665 51.0267 47.4259 51.1081 46.8086 50.9917H46.797ZM58.0711 61.744L50.2328 53.3307C50.0348 53.098 50.0465 52.7605 50.2561 52.5511C50.4774 52.33 50.8501 52.33 51.0714 52.5511L58.9097 60.9527C59.0378 61.0807 59.0844 61.2669 59.0495 61.4531C58.9912 61.7673 58.6884 61.9651 58.3739 61.9069C58.2575 61.8836 58.141 61.8254 58.0595 61.7323L58.0711 61.744ZM31.6561 56.7286C31.5164 56.4493 31.6328 56.1002 31.924 55.9606L42.2664 50.9219C42.5459 50.7823 42.8953 50.8987 43.0351 51.1896C43.1748 51.4688 43.0584 51.8179 42.7672 51.9576L32.4248 56.9962C32.3083 57.0544 32.1919 57.0661 32.0638 57.0428C31.8891 57.0079 31.726 56.8915 31.6561 56.7286Z" fill="#472C27"/>
</g>
<mask id="mask5_543_10696" style="mask-type:luminance" maskUnits="userSpaceOnUse" x="70" y="74" width="28" height="23">
<path d="M73.8795 74.6583L70.5931 92.0029L94.5902 96.5419L97.8767 79.1973L73.8795 74.6583Z" fill="white"/>
</mask>
<g mask="url(#mask5_543_10696)">
<path d="M72.9907 91.8828C72.0473 91.7082 71.4301 90.8006 71.6048 89.8696L74.004 77.0693C74.1787 76.1268 75.0872 75.5217 76.0306 75.6962L95.4808 79.3268C96.4242 79.5014 97.0414 80.409 96.8667 81.34L94.4675 94.1403C94.2928 95.0712 93.3843 95.6879 92.4409 95.5134L72.9907 91.8828Z" fill="#FEF8EE"/>
<path d="M71.0457 89.7648L73.4449 76.9645C73.6779 75.7194 74.8775 74.9048 76.1354 75.1376L95.5856 78.7682C96.1796 78.8846 96.7153 79.222 97.0531 79.7224C97.4025 80.2228 97.5306 80.8395 97.4141 81.433L95.0149 94.2333C94.9101 94.8267 94.5606 95.362 94.0482 95.6995C93.5474 96.0486 92.9184 96.1766 92.3244 96.0602L72.8742 92.4296C71.628 92.1969 70.8011 90.9983 71.034 89.7532L71.0457 89.7648ZM95.3643 79.8737L75.9141 76.2431C75.2735 76.1267 74.6679 76.534 74.5514 77.174L72.1521 89.9743C72.0357 90.6026 72.455 91.2077 73.0839 91.3358L92.5341 94.9664C92.8369 95.0246 93.1514 94.9664 93.4076 94.7802C93.6638 94.6056 93.8385 94.338 93.8968 94.0354L96.296 81.2352C96.4125 80.6068 95.9932 80.0017 95.3643 79.8737Z" fill="#472C27"/>
<path d="M73.4333 80.0482C73.1305 79.99 72.9209 79.6991 72.9791 79.3849C73.0373 79.0823 73.3285 78.8729 73.643 78.9311L86.3264 81.3049C86.8039 81.398 87.293 81.1769 87.5493 80.758L88.5975 79.0009C89.0983 78.163 90.065 77.7325 91.02 77.907C91.3229 77.9652 91.5325 78.2561 91.4743 78.5703C91.416 78.8729 91.1249 79.0823 90.8104 79.0242C90.3212 78.9311 89.8204 79.1522 89.5642 79.5827L88.516 81.3398C88.0268 82.166 87.0601 82.5966 86.1167 82.422L73.4333 80.0482Z" fill="#472C27"/>
</g>
<mask id="mask6_543_10696" style="mask-type:luminance" maskUnits="userSpaceOnUse" x="16" y="79" width="38" height="45">
<path d="M23.8567 79.5839L16.7193 118.477L45.9432 123.83L53.0806 84.9376L23.8567 79.5839Z" fill="white"/>
</mask>
<g mask="url(#mask6_543_10696)">
<path d="M22.6414 89.3345L17.8662 115.703C17.6333 116.995 18.4951 118.228 19.7763 118.461L43.1631 122.685C44.4559 122.918 45.6905 122.057 45.9234 120.777L51.9099 87.7054C52.1428 86.4137 51.281 85.1802 49.9998 84.9475L33.3332 81.9336L22.6414 89.3345Z" fill="#FEF8EE"/>
<path d="M19.6715 119.008C18.9028 118.868 18.2273 118.437 17.7847 117.797C17.3421 117.157 17.1674 116.366 17.3072 115.598L22.0824 89.2295C22.1057 89.0782 22.1989 88.9502 22.3153 88.8687L33.0071 81.4678C33.1352 81.3864 33.2866 81.3515 33.4264 81.3748L50.093 84.3886C50.8617 84.5283 51.5372 84.9705 51.9798 85.5988C52.4224 86.2389 52.5971 87.0301 52.4573 87.7982L46.4709 120.869C46.3311 121.637 45.9002 122.312 45.2479 122.755C44.6074 123.197 43.8154 123.371 43.0467 123.232L19.6598 119.008H19.6715ZM49.9067 85.4941L33.473 82.5268L23.1655 89.6717L18.4369 115.808C18.3554 116.285 18.4602 116.762 18.7281 117.157C19.0076 117.553 19.4153 117.821 19.8928 117.902L43.2796 122.126C43.7571 122.208 44.2463 122.103 44.6307 121.835C45.0266 121.568 45.2945 121.149 45.3761 120.672L51.3625 87.6003C51.444 87.1232 51.3392 86.6461 51.0714 86.2505C50.7918 85.8549 50.3842 85.5872 49.9067 85.5058V85.4941Z" fill="#472C27"/>
<path d="M26.8926 96.7119C26.5897 96.6537 26.3801 96.3628 26.4383 96.0602C26.4966 95.7577 26.7877 95.5482 27.0905 95.6064L43.9901 98.6668C44.2929 98.725 44.5026 99.0159 44.4443 99.3185C44.3861 99.621 44.0949 99.8305 43.7921 99.7723L26.8926 96.7119ZM25.5648 100.924C25.623 100.622 25.9142 100.412 26.217 100.471L43.1166 103.531C43.4194 103.589 43.6291 103.88 43.5708 104.183C43.5126 104.485 43.2214 104.695 42.9186 104.636L26.019 101.576C25.7162 101.518 25.5066 101.227 25.5648 100.924ZM25.1339 106.44C24.8311 106.382 24.6214 106.091 24.6797 105.788C24.7379 105.486 25.0291 105.276 25.3319 105.335L42.2314 108.395C42.5342 108.453 42.7439 108.744 42.6857 109.047C42.6274 109.349 42.3363 109.559 42.0334 109.501L25.1339 106.44ZM29.3151 112.212C29.0123 112.154 28.8026 111.863 28.8609 111.56C28.9191 111.258 29.2103 111.048 29.5131 111.106L41.3463 113.248C41.6491 113.306 41.8587 113.597 41.8005 113.899C41.7423 114.202 41.4511 114.411 41.1483 114.353L29.3151 112.212Z" fill="#472C27"/>
<path d="M22.6298 89.3461L29.3733 90.568C30.6661 90.8007 31.9006 89.9512 32.1336 88.6596L33.3565 81.9336L22.6414 89.3578L22.6298 89.3461Z" fill="#FEF8EE"/>
<path d="M22.1639 89.6602C21.9892 89.4042 22.0474 89.0551 22.3037 88.8805L33.0188 81.4564C33.1469 81.3749 33.2983 81.34 33.438 81.3633C33.7409 81.4215 33.9505 81.7124 33.8923 82.0149L32.6694 88.7409C32.5296 89.5089 32.0987 90.1838 31.4464 90.626C30.7942 91.0682 30.0139 91.2428 29.2452 91.1031L22.5017 89.8813C22.3503 89.858 22.2221 89.7649 22.1406 89.6486L22.1639 89.6602ZM24.074 89.0318L29.4781 90.0093C29.9556 90.0907 30.4332 89.986 30.8292 89.7184C31.2252 89.4507 31.493 89.0318 31.5746 88.5547L32.5529 83.167L24.074 89.0434V89.0318Z" fill="#472C27"/>
</g>
<mask id="mask7_543_10696" style="mask-type:luminance" maskUnits="userSpaceOnUse" x="53" y="-1" width="25" height="20">
<path d="M56.4336 -0.00417825L53.8669 15.0461L74.9696 18.6388L77.5363 3.58845L56.4336 -0.00417825Z" fill="white"/>
</mask>
<g mask="url(#mask7_543_10696)">
<path d="M53.9598 14.5109C54.0064 14.2083 54.2975 14.0105 54.5887 14.0687L74.0739 17.3153L76.2984 3.95645C76.345 3.6539 76.6362 3.45608 76.9273 3.50262C77.2302 3.54917 77.4281 3.84009 77.3816 4.131L75.0638 18.0368C75.0172 18.3393 74.7261 18.5371 74.4349 18.4906L54.4024 15.1625C54.0995 15.116 53.9015 14.8251 53.9481 14.5341L53.9598 14.5109Z" fill="#472C27"/>
<path d="M66.6432 16.5007L71.0923 17.2454L72.5015 8.76232L68.0525 8.01758L66.6432 16.5007Z" fill="#FEF8EE"/>
<path d="M66.55 17.0359C66.2472 16.9894 66.0492 16.6985 66.0958 16.4076L67.505 7.92447C67.5516 7.62192 67.8428 7.4241 68.134 7.47064L72.5831 8.21539C72.8859 8.26193 73.0839 8.55285 73.0373 8.84376L71.628 17.3269C71.5814 17.6294 71.2903 17.8272 70.9991 17.7807L66.55 17.0359ZM71.8726 9.21614L68.5067 8.65758L67.2721 16.0585L70.638 16.617L71.8726 9.21614Z" fill="#472C27"/>
<path d="M62.0194 15.7328L66.4685 16.4775L68.3436 5.21325L63.8946 4.46851L62.0194 15.7328Z" fill="#FEF8EE"/>
<path d="M61.9262 16.268C61.6234 16.2215 61.4254 15.9306 61.472 15.6396L63.3471 4.3754C63.3937 4.07285 63.6849 3.87502 63.9761 3.92157L68.4252 4.66631C68.728 4.71286 68.926 5.00378 68.8794 5.29469L67.0042 16.5589C66.9577 16.8615 66.6665 17.0593 66.3753 17.0128L61.9262 16.268ZM67.7147 5.65543L64.3488 5.09687L62.6483 15.2905L66.0143 15.8491L67.7147 5.65543Z" fill="#472C27"/>
<path d="M57.5587 14.9879L62.0077 15.7327L62.9511 10.0424L58.502 9.29761L57.5587 14.9879Z" fill="#FEF8EE"/>
<path d="M57.4771 15.5349C57.1743 15.4884 56.9763 15.1974 57.0229 14.9065L57.9663 9.21622C58.0129 8.91367 58.304 8.71584 58.5952 8.76239L63.0443 9.50713C63.3471 9.55368 63.5451 9.8446 63.4985 10.1355L62.5551 15.8258C62.5086 16.1284 62.2174 16.3262 61.9262 16.2796L57.4771 15.5349ZM62.3339 10.4846L58.9679 9.92605L58.1992 14.5342L61.5652 15.0927L62.3339 10.4846Z" fill="#472C27"/>
</g>
</g>
<defs>
<clipPath id="clip0_543_10696">
<rect width="322" height="233" fill="white"/>
</clipPath>
</defs>
</svg>
