<svg width="337" height="278" viewBox="0 0 337 278" fill="none" xmlns="http://www.w3.org/2000/svg">
<g clip-path="url(#clip0_543_6160)">
<path d="M11.3441 95.1092C23.0816 23.8975 107.955 -0.350091 176.303 7.0106C233.942 13.2557 303.427 50.8138 281.329 131.224C265.832 187.594 210.783 231.55 146.763 223.271C140.282 222.428 42.9501 176.799 42.9501 176.799C25.3766 158.26 6.61189 141.505 11.355 95.1311C11.355 95.1311 11.355 95.1311 11.355 95.1201L11.3441 95.1092Z" fill="#F5BE7C"/>
<path d="M333.219 167.994H128.249C127.441 167.994 126.665 167.677 126.085 167.098C125.506 166.518 125.189 165.741 125.189 164.932V3.78437C125.189 2.10005 126.544 0.73291 128.216 0.73291H333.197C334.432 0.73291 335.546 1.4657 336.016 2.6141C336.18 2.98596 336.246 3.3797 336.246 3.78437V164.976C336.235 166.649 334.869 168.005 333.197 167.994H333.208H333.219Z" fill="#FEF8EE"/>
<path d="M336.158 11.1997V4.03583C336.158 2.36245 334.814 0.995312 333.142 0.984375H128.315C126.643 0.984375 125.288 2.34058 125.277 4.01396V11.1887H336.169L336.158 11.1997Z" fill="#F09947"/>
<path d="M331.732 6.05928L333.536 4.23278C333.754 4.01404 333.743 3.67499 333.536 3.44531C333.437 3.34687 333.295 3.28125 333.142 3.28125C332.989 3.28125 332.858 3.34687 332.749 3.44531L330.945 5.27181L329.142 3.44531C328.924 3.22656 328.585 3.22656 328.355 3.44531C328.137 3.66405 328.137 4.0031 328.355 4.23278L330.159 6.05928L328.355 7.86391C328.148 8.08265 328.17 8.44358 328.388 8.65138C328.596 8.84825 328.924 8.84825 329.131 8.65138L330.935 6.82488L332.738 8.65138C332.956 8.87012 333.295 8.87012 333.525 8.65138C333.743 8.43264 333.743 8.09359 333.525 7.86391L331.721 6.03741L331.732 6.05928Z" fill="#472C27"/>
<path d="M333.361 5.50999e-05H128.085C126.096 5.50999e-05 124.468 1.59688 124.457 3.60931V164.757C124.468 166.759 126.096 168.377 128.085 168.366H333.361C335.339 168.388 336.967 166.791 336.989 164.801V3.60931C336.978 1.60781 335.35 -0.010882 333.361 5.50999e-05ZM128.085 1.10471H333.361C334.749 1.10471 335.874 2.22029 335.885 3.60931V11.0247H125.55V3.60931C125.561 2.22029 126.697 1.09377 128.074 1.10471H128.085ZM335.907 12.1293V32.3521H125.561V12.1293H335.907ZM333.361 167.251H128.085C126.697 167.251 125.572 166.135 125.561 164.746V33.4458H335.907V164.801C335.885 166.179 334.749 167.283 333.383 167.262H333.372L333.361 167.251Z" fill="#472C27"/>
<path d="M323.656 8.82633H321.459C320.552 8.82633 319.809 8.0826 319.809 7.17482V4.97646C319.809 4.05774 320.541 3.32495 321.459 3.32495H323.656C324.563 3.32495 325.306 4.06868 325.306 4.97646V7.17482C325.306 8.09354 324.574 8.82633 323.656 8.82633ZM321.448 4.40773C321.142 4.40773 320.902 4.64834 320.902 4.95458V7.15295C320.902 7.45919 321.142 7.6998 321.448 7.6998H323.645C323.951 7.6998 324.191 7.45919 324.191 7.15295V4.95458C324.191 4.64834 323.951 4.40773 323.645 4.40773H321.448ZM316.334 8.82633H311.951C311.645 8.82633 311.405 8.58571 311.405 8.27947C311.405 8.13729 311.47 7.99511 311.569 7.88574C311.667 7.7873 311.809 7.72168 311.962 7.72168H316.345C316.651 7.72168 316.891 7.9623 316.891 8.26853C316.891 8.41072 316.825 8.5529 316.727 8.66227C316.629 8.76071 316.487 8.82633 316.334 8.82633ZM311.94 27.9335H178.052C176.937 27.9335 176.041 27.0257 176.041 25.9211V18.5713C176.041 17.4557 176.948 16.5589 178.052 16.5589H311.94C313.055 16.5589 313.951 17.4667 313.951 18.5713V25.9211C313.951 27.0367 313.044 27.9335 311.94 27.9335ZM178.052 17.6417C177.549 17.6417 177.134 18.0573 177.134 18.5604V25.9101C177.134 26.4242 177.549 26.8288 178.052 26.8288H311.94C312.443 26.8288 312.858 26.4132 312.858 25.9101V18.5604C312.858 18.0463 312.443 17.6417 311.94 17.6417H178.052ZM145.495 27.2007C145.189 27.2007 144.948 26.9601 144.948 26.6539C144.948 26.4898 145.025 26.3367 145.145 26.2382L149.79 22.2462L145.145 18.2541C144.916 18.0573 144.894 17.7073 145.08 17.4667C145.265 17.226 145.626 17.2151 145.845 17.401L150.959 21.8087C151.189 22.0056 151.211 22.3556 151.025 22.5962C151.014 22.618 150.992 22.629 150.959 22.6618L145.845 27.0695C145.746 27.157 145.615 27.2007 145.495 27.2007ZM136.708 27.2007C136.577 27.2007 136.457 27.157 136.358 27.0695L131.244 22.6618C131.014 22.4649 130.992 22.1149 131.178 21.8743C131.189 21.8525 131.211 21.8415 131.244 21.8087L136.358 17.401C136.588 17.2042 136.949 17.237 137.123 17.4776C137.309 17.7073 137.287 18.0354 137.058 18.2323L132.413 22.2243L137.058 26.2164C137.287 26.4132 137.309 26.7632 137.123 27.0038C137.014 27.1242 136.872 27.2007 136.708 27.2007ZM167.626 21.6884C167.32 21.6884 167.079 21.929 167.079 22.2353C167.09 24.2805 165.451 25.9539 163.429 25.9648C162.216 25.9648 161.079 25.3851 160.391 24.3899C159.221 22.7165 159.626 20.4088 161.287 19.2275C162.281 18.5276 163.549 18.3635 164.686 18.7791L163.637 19.1291C163.342 19.2275 163.199 19.5447 163.298 19.8291C163.342 19.9603 163.44 20.0806 163.571 20.1463C163.702 20.2119 163.855 20.2228 163.986 20.1681L166.183 19.4353C166.413 19.3588 166.566 19.14 166.566 18.8994C166.566 18.8229 166.544 18.7354 166.5 18.6697L165.396 16.4714C165.254 16.198 164.915 16.0995 164.653 16.2526C164.402 16.3839 164.281 16.7011 164.413 16.9745L164.751 17.6635C162.227 16.9417 159.593 18.4073 158.872 20.9447C158.741 21.404 158.675 21.8853 158.686 22.3665C158.719 25.0023 160.872 27.1242 163.495 27.0804C166.117 27.0367 168.227 24.893 168.183 22.2571C168.183 21.9509 167.943 21.7103 167.637 21.7103L167.626 21.6884ZM330.792 26.446L327.7 23.3399C329.055 21.5681 328.814 19.0416 327.142 17.5651C325.394 16.023 322.716 16.198 321.186 17.9588C319.645 19.7197 319.82 22.3993 321.579 23.9524C323.099 25.2867 325.339 25.3633 326.945 24.1274L330.038 27.2335C330.257 27.4523 330.596 27.4523 330.825 27.2335C331.044 27.0148 331.044 26.6757 330.825 26.446H330.814H330.792ZM321.273 20.7697C321.273 19.0416 322.661 17.6417 324.388 17.6417C326.115 17.6417 327.503 19.0307 327.503 20.7697C327.503 22.5087 326.115 23.8977 324.388 23.8977C322.661 23.8977 321.284 22.4868 321.273 20.7697Z" fill="#472C27"/>
<path d="M145.998 74.7771C162.828 53.0231 188.521 46.078 218.007 58.3057C253.919 73.3771 267.493 109.415 242.805 144.129C226.881 166.54 200.106 159.157 171.986 144.108C132.916 123.196 129.178 96.5091 146.008 74.7661L145.998 74.7771Z" fill="#FDEED7"/>
<mask id="mask0_543_6160" style="mask-type:luminance" maskUnits="userSpaceOnUse" x="-1" y="58" width="219" height="221">
<path d="M116.861 58.7317L-0.00854492 185.036L100.314 278.007L217.184 151.703L116.861 58.7317Z" fill="white"/>
</mask>
<g mask="url(#mask0_543_6160)">
<path d="M14.8631 176.164C14.8631 176.164 7.96708 190.984 8.74302 190.941C9.52989 190.897 13.0817 185.964 13.0817 185.964C13.0817 185.964 10.9616 195.633 11.8577 195.545C12.7539 195.458 15.5735 188.556 16.2402 188.709C16.9068 188.862 14.2402 198.64 15.5407 198.717C16.8631 198.793 19.3002 189.781 19.3002 189.781C19.3002 189.781 19.3112 197.842 20.3603 197.601C21.4095 197.361 22.8193 190.033 22.8193 190.033C22.8193 190.033 24.2291 194.429 26.4367 193.642L24.2182 184.094L24.4149 180.386C24.4149 180.386 18.2948 180.714 14.8631 176.143V176.164ZM142.358 88.8643C142.358 88.8643 147.67 87.4534 147.768 88.1534C147.877 88.8643 143.451 92.0579 143.451 92.0579C143.451 92.0579 143.484 91.1064 142.347 88.8533L142.358 88.8643Z" fill="#F09947"/>
<path d="M129.539 130.502C129.539 130.502 120.173 136.222 113.036 131.169C105.9 126.116 105.528 121.238 106.949 117.213L111.452 118.537L120.304 105.51L119.845 99.4513C119.845 99.4513 114.763 90.3954 115.375 90.1329C115.987 89.8813 121.911 84.1831 121.911 84.1831L127.648 81.5691C127.648 81.5691 136.861 83.0894 140.489 86.8408C143.364 89.7501 144.347 94.0265 143.058 97.9201C142.151 100.687 140.938 103.903 137.32 107.096C133.703 110.301 132.009 109.831 132.009 109.831L124.26 125.471C124.26 125.471 128.621 129.233 129.528 130.546V130.524L129.539 130.502ZM157.997 118.504C157.997 118.504 155.899 112.904 154.872 110.367C153.844 107.829 151.987 104.362 151.593 104.745C151.189 105.117 152.905 110.76 152.599 110.979C152.282 111.187 152.107 111.471 151.79 110.979C151.462 110.487 148.872 105.981 147.768 104.723C146.664 103.465 145.943 103.651 145.91 104.482C145.877 105.314 146.446 106.834 146.446 106.834C146.446 106.834 144.019 103.236 143.397 103.837C142.785 104.417 143.418 106.921 143.91 108.037C144.402 109.153 145.604 112.379 145.604 112.379C145.604 112.379 143.397 109.645 143.32 109.513C143.244 109.382 141.058 106.812 140.686 107.337C140.315 107.862 142.052 111.417 142.304 111.745C142.533 112.084 144.391 115.212 144.391 115.212C144.391 115.212 141.386 113.221 140.795 113.112C140.216 113.002 138.708 113.068 138.282 114.238L146.61 120.352L148.38 122.551L157.997 118.526V118.504Z" fill="#F09947"/>
<path d="M152.905 221.094C154.522 217.452 146.566 211.109 139.604 206.427C129.932 199.909 116.435 192.701 101.605 186.15C86.7744 179.599 72.3703 174.447 61.0371 171.68C46.2724 168.071 42.1194 169.711 41.2233 171.713C40.3271 173.714 42.338 176.525 45.4746 179.435C48.6111 182.344 51.387 184.28 54.5236 186.38C64.1956 192.898 77.6926 200.106 92.523 206.657C107.353 213.208 121.757 218.36 133.091 221.127C147.844 224.736 152.008 223.096 152.905 221.094Z" fill="#472C27"/>
<path d="M172.249 174.36C173.473 167.721 174.839 163.587 169.199 147.64C163.56 131.683 158.008 118.493 158.008 118.493L148.369 122.518C150.97 128.271 153.265 134.155 155.265 140.159C158.424 149.751 157.844 157.834 153.943 159.77C150.063 161.716 142.238 155.81 139.746 148.942C137.255 142.051 132.599 133.783 129.55 130.513C129.55 130.513 122.074 136.2 113.714 131.41C105.353 126.619 106.118 121.347 106.971 117.246C106.971 117.246 93.6487 114.894 78.2938 119.368C62.9388 123.841 50.9172 131.519 38.5458 144.326C26.1853 157.123 16.1636 174.196 14.874 176.186C17.4314 178.745 20.8958 180.178 24.5132 180.2C24.5132 180.2 33.5841 166.813 43.0047 162.373C52.4253 157.932 56.8733 157.626 62.3159 158.118L63.9552 158.216C63.9552 158.216 54.6985 173.791 49.5511 181.819C51.1357 183.055 52.9608 184.378 54.9717 185.745C64.6109 192.231 78.0533 199.417 92.8509 205.957C95.299 207.04 97.7579 208.112 100.239 209.118C102.501 207.696 111.856 197.634 115.954 192.373L119.714 187.014C119.714 187.014 125.692 191.422 134.905 194.079C144.129 196.737 152.456 195.6 158.511 192.1C164.566 188.6 170.992 181.009 172.216 174.382L172.249 174.36ZM135.025 94.1467C137.44 93.3046 139.112 91.7624 138.741 90.7015C138.369 89.6406 136.118 89.4656 133.681 90.3078C131.266 91.15 129.593 92.6921 129.965 93.753C130.337 94.8139 132.588 94.9889 135.025 94.1467Z" fill="#FEF8EE"/>
<path d="M139.145 90.5704C138.686 89.247 136.304 88.9845 133.571 89.9251C132.446 90.3079 131.418 90.8875 130.522 91.6641C129.692 92.4187 129.364 93.2172 129.593 93.8843C129.67 94.1031 129.79 94.289 129.965 94.4421C130.828 95.2515 132.894 95.3171 135.167 94.5296C137.888 93.589 139.604 91.8719 139.134 90.5704H139.145ZM130.358 93.6437C130.238 93.2937 130.5 92.7906 131.069 92.2656C131.877 91.5656 132.817 91.0407 133.845 90.7126C134.052 90.636 134.26 90.5813 134.468 90.5157C133.768 91.15 133.429 91.8063 133.637 92.3531C133.866 93.0094 134.839 93.3265 136.129 93.2718C135.735 93.4687 135.32 93.6437 134.905 93.7859C132.621 94.5843 130.621 94.3765 130.358 93.6437ZM146.14 116.065C146.14 116.065 146.074 115.988 146.052 115.955C145.943 115.759 146.019 115.529 146.216 115.42L152.839 111.963C152.937 111.92 153.047 111.898 153.145 111.942C153.309 111.985 153.418 112.127 153.429 112.292C153.429 112.401 153.407 112.499 153.331 112.587C153.298 112.62 153.254 112.663 153.21 112.685L146.588 116.141C146.446 116.229 146.249 116.207 146.129 116.076H146.15L146.14 116.065ZM138.052 102.437C139.692 100.851 140.358 98.8935 139.549 98.0514C138.741 97.2201 136.763 97.8326 135.123 99.4185C133.484 101.004 132.817 102.962 133.626 103.804C134.435 104.636 136.413 104.023 138.052 102.437Z" fill="#472C27"/>
<path d="M133.408 104.165L133.342 104.1C132.839 103.586 132.741 102.754 133.102 101.781C133.484 100.775 134.096 99.878 134.883 99.1452C136.719 97.3734 138.916 96.7828 139.888 97.789C140.391 98.303 140.49 99.1342 140.129 100.108C139.746 101.114 139.134 102.011 138.348 102.743C137.593 103.498 136.675 104.078 135.659 104.428C134.708 104.723 133.9 104.625 133.397 104.154L133.408 104.165ZM139.255 98.3249C138.664 97.789 136.992 98.2155 135.43 99.7358C134.73 100.381 134.195 101.169 133.856 102.044C133.626 102.711 133.648 103.258 133.932 103.531L133.954 103.553C134.238 103.804 134.774 103.848 135.408 103.651C136.304 103.334 137.102 102.831 137.779 102.153C138.479 101.508 139.014 100.72 139.353 99.8452C139.582 99.178 139.561 98.6311 139.276 98.3577L139.255 98.3358V98.3249Z" fill="#472C27"/>
<path d="M68.7856 188.687C68.7091 188.611 68.6653 188.512 68.6544 188.414C68.6544 188.195 68.8184 187.998 69.0369 187.987C86.6104 186.97 97.6594 184.291 103.812 182.256C111.594 179.664 114.217 177.182 114.271 176.394C114.282 176.219 114.227 176.055 114.085 175.935C112.621 174.568 105.069 175.41 99.561 176.044C92.8945 176.799 90.7196 176.963 90.4573 175.978C90.2825 175.322 90.7306 174.535 97.9654 171.396C109.987 166.212 117.102 160.699 120.971 156.981C125.123 152.989 126.457 150.211 126.468 150.167C126.5 150.068 126.588 149.981 126.697 149.948C126.905 149.861 127.134 149.959 127.222 150.167C127.266 150.276 127.255 150.397 127.211 150.495C127.167 150.615 125.79 153.426 121.528 157.538C117.626 161.29 110.424 166.879 98.2933 172.096C92.8835 174.425 91.583 175.344 91.3098 175.705C92.1732 176.011 96.195 175.541 99.4736 175.18C105.769 174.458 112.894 173.649 114.643 175.278L114.665 175.3C114.971 175.585 115.124 176 115.102 176.405C114.971 178.177 110.544 180.835 104.075 182.978C97.8671 185.056 86.7634 187.736 69.0916 188.764C68.9932 188.786 68.8839 188.764 68.8184 188.676H68.7856V188.687ZM64.8075 148.176C64.578 147.968 64.425 147.684 64.3813 147.389C64.272 146.897 64.4796 146.164 68.4031 143.856C70.5232 142.598 73.5287 141.012 77.3209 139.12C83.758 135.916 90.3371 132.952 90.4136 132.919C90.6213 132.831 90.8508 132.919 90.9382 133.127C90.971 133.225 90.9819 133.335 90.9382 133.422C90.9054 133.521 90.8289 133.608 90.7306 133.652C90.665 133.685 84.3263 136.539 78.0095 139.667C74.3046 141.494 71.3429 143.069 69.1899 144.305C65.5944 146.383 65.2119 147.072 65.1572 147.214C65.496 148.504 69.2336 147.717 72.5451 147.006C76.5996 146.153 80.8072 145.267 82.0968 147.094C82.1624 147.181 82.1843 147.29 82.1733 147.389C82.1624 147.498 82.0968 147.586 82.0094 147.64C81.922 147.695 81.8127 147.728 81.7143 147.717C81.605 147.706 81.5176 147.64 81.463 147.553C80.4684 146.142 76.3592 147.028 72.7418 147.783C69.1681 148.57 65.9878 149.237 64.8184 148.154H64.8075V148.176ZM30.2944 159.485C29.8135 159.048 30.1851 158.195 30.6113 157.396C31.7479 155.274 35.4309 151.829 41.551 147.192C46.0865 143.747 50.3487 140.87 50.3815 140.848C50.5782 140.728 50.8186 140.783 50.9279 140.98C51.0372 141.166 50.9935 141.395 50.8186 141.516C50.6438 141.636 33.9118 152.945 31.2998 157.801C31.0922 158.129 30.9501 158.512 30.8627 158.884C31.1031 158.862 31.9118 158.643 34.3599 156.882C35.9118 155.767 37.3107 154.607 37.3325 154.596C37.4527 154.487 37.6385 154.476 37.7806 154.553C37.879 154.596 37.9555 154.684 37.9773 154.793C38.021 154.957 37.9773 155.121 37.8462 155.231C37.8462 155.231 36.2834 156.51 34.655 157.681C31.5403 159.89 30.7315 159.879 30.3053 159.54C30.3053 159.54 30.2944 159.525 30.2725 159.496H30.2944V159.485Z" fill="#F09947"/>
<path d="M171.658 177.706C174.074 171.582 174.565 164.866 173.079 158.468C169.866 144.512 159.276 120.352 158.435 118.449C158.435 118.427 158.434 118.383 158.413 118.351C158.413 118.307 157.156 114.993 155.757 111.635C152.872 104.701 152.227 104.461 151.91 104.34C151.768 104.275 151.593 104.296 151.451 104.351C150.784 104.679 151.068 105.893 151.768 108.343C151.997 109.174 152.227 110.017 152.358 110.64V110.662C152.358 110.662 152.358 110.738 152.336 110.76C152.336 110.76 152.314 110.76 152.303 110.771C152.216 110.804 152.194 110.749 152.183 110.727C151.637 109.754 150.533 107.884 149.451 106.265C147.593 103.487 146.883 103.05 146.347 103.257C146.052 103.367 145.834 103.596 145.735 103.892C145.637 104.296 145.637 104.712 145.735 105.117C145.036 104.176 144.38 103.465 143.866 103.334C143.648 103.268 143.418 103.301 143.222 103.421C142.26 104.023 142.916 106.287 144.719 110.782C142.686 107.753 141.44 106.353 140.489 106.954C140.347 107.042 140.249 107.195 140.216 107.37C140.02 108.365 141.681 111.57 143.331 114.184C142.468 113.582 141.539 113.101 140.555 112.718C139.724 112.335 138.73 112.609 138.205 113.352C138.03 113.593 137.921 113.866 137.877 114.162C137.856 114.293 137.888 114.446 137.998 114.534C137.998 114.534 138.02 114.555 138.041 114.534L146.26 120.549C146.26 120.549 146.26 120.571 146.282 120.582C147.32 121.927 148.008 122.704 148.063 122.78C148.435 123.568 151.003 128.993 153.265 135.413C155.506 141.756 157.877 150.386 156.544 155.46C155.812 158.195 154.369 159.704 152.325 159.813C150.216 159.923 147.56 158.49 145.047 155.898C142.325 153.087 139.888 149.084 138.227 144.644C135.495 137.338 131.921 132.416 129.408 129.583C128.042 127.997 126.501 126.564 124.828 125.307L132.391 110.06C134.194 109.678 135.888 108.89 137.342 107.753C139.91 105.565 141.899 102.776 143.145 99.6482C143.866 97.7342 144.478 95.1202 143.987 92.375C144.369 92.1016 145.156 91.5438 145.965 90.8985C148.03 89.247 148.249 88.5907 148.227 88.1751C148.216 87.9673 148.096 87.7814 147.921 87.672C147.615 87.4642 146.959 87.2892 144.642 87.858C143.681 88.0876 142.795 88.3611 142.446 88.4595C140.861 86.0752 137.954 84.0846 133.998 82.7066C131.987 81.9957 129.91 81.4816 127.79 81.1863H127.714C127.408 80.9457 127.08 80.7269 126.741 80.541C124.151 79.0645 119.572 79.2504 117.069 79.491C113.342 79.841 109.681 80.7598 107.725 81.8097C105.9 82.7722 104.829 83.9206 104.512 85.2002C104.261 86.2502 104.512 87.3548 105.277 88.4814C105.812 89.2798 106.949 90.9422 106.709 91.9156C106.632 92.2 106.435 92.4406 106.173 92.5609C105.878 92.725 105.463 92.8781 105.026 93.064C103.594 93.6546 101.823 94.3874 101.375 95.8311C101.124 96.6295 101.343 97.5264 101.976 98.5107C102.162 98.7951 102.381 99.0466 102.621 99.2763C104.239 100.764 106.818 100.862 108.774 100.928C109.856 100.95 111.2 101.015 111.2 101.365C111.2 101.923 110.829 102.415 110.479 102.886C109.867 103.706 109.113 104.723 110.752 106.035C112.61 107.512 116.883 107.785 118.501 107.818L111.408 118.066C110.468 117.662 107.583 116.579 102.49 116.185C92.217 115.387 81.1024 118.033 73.5943 120.407C61.7585 124.191 50.2395 131.749 39.3545 142.828C32.513 149.806 25.9448 158.129 19.7373 167.677L19.7154 167.699C19.7154 167.699 19.6389 167.797 19.628 167.863C17.934 170.466 16.2838 173.168 14.6554 175.946C14.6226 175.978 14.5898 176.022 14.568 176.055C14.557 176.088 12.8849 179.588 11.2893 183.131C8.0107 190.492 8.28392 190.929 8.45878 191.225C8.56807 191.4 8.75386 191.498 8.95057 191.498C9.23472 191.498 9.71559 191.498 11.8139 188.512C12.0216 188.228 12.2183 187.955 12.4041 187.659C12.2401 188.381 12.0762 189.201 11.9013 190.033C10.9068 194.954 11.2893 195.512 11.4533 195.753C11.4751 195.786 11.5188 195.829 11.5516 195.862C11.65 195.95 11.7811 196.004 11.9013 196.037C12.6991 196.146 13.3986 194.834 14.9286 191.597C15.3002 190.798 15.7701 189.792 16.1308 189.18C16.0434 189.923 15.8248 191.126 15.6171 192.133C14.8084 196.311 14.3713 198.903 15.5516 199.209C16.2729 199.406 16.8958 198.596 17.6717 196.409C18.2291 194.867 18.7756 192.942 19.1908 191.389C19.1034 195.042 19.2236 197.186 19.9777 197.875C20.087 197.973 20.2182 198.05 20.3712 198.093C20.546 198.137 20.7427 198.104 20.8848 197.995C21.322 197.7 21.9449 196.628 23.0378 191.389C23.3438 191.969 23.6826 192.526 24.0651 193.051C24.2072 193.27 24.393 193.478 24.5897 193.664C25.4968 194.506 26.3711 194.298 26.7864 194.014C26.9175 193.926 26.994 193.762 26.9612 193.598L24.5569 183.142V183.12H24.546C24.7536 181.841 24.8847 180.911 24.9394 180.616C25.5295 179.741 32.9065 169.066 40.7861 164.112C47.5183 159.89 54.9389 158.063 63.4087 158.545C61.824 161.137 54.6548 172.894 49.2559 181.874C49.1576 182.038 49.1794 182.256 49.3215 182.377C49.3434 182.399 49.3543 182.409 49.398 182.42C49.4964 182.464 49.6057 182.486 49.704 182.453C49.8133 182.431 49.9007 182.355 49.9554 182.267C52.6985 177.685 55.9116 172.391 58.611 167.94C59.7694 168.541 63.6164 170.05 68.0862 166.89C70.1846 165.402 71.4742 162.449 76.5779 163.313C80.8948 164.046 82.8838 159.474 83.4084 158.02C88.3591 156.806 91.9219 154.793 95.0148 152.814C95.2006 152.693 95.2552 152.431 95.135 152.234C95.0148 152.037 94.7525 151.993 94.5558 152.114C88.7854 155.81 81.3756 159.595 66.1191 157.921C56.3596 156.86 47.9336 158.654 40.3599 163.401C36.2725 165.96 32.3382 170.029 29.3655 173.518C25.606 172.26 21.6608 168.847 20.6007 167.896C26.7317 158.468 33.2343 150.243 39.9883 143.375C50.4362 132.744 61.4634 125.405 72.7528 121.533C74.6982 124.519 80.097 125.602 85.6925 123.95C90.1952 122.605 93.6159 119.86 94.7962 116.962C97.3317 116.787 99.889 116.787 102.435 116.962C103.823 117.06 105.211 117.246 106.588 117.498C106.14 118.865 105.965 120.319 106.086 121.763C106.26 123.83 107.113 126.652 109.998 129.332C110.621 129.911 111.288 130.447 111.987 130.917C115.495 133.345 119.856 134.21 124.02 133.291C125.878 132.897 127.659 132.241 129.32 131.322C129.506 131.574 129.692 131.847 129.878 132.121C133.648 137.709 135.659 144.304 135.648 151.053C135.648 155.406 133.976 165.293 122.391 182.759C121.528 184.083 120.621 185.384 119.703 186.675C119.626 186.697 119.561 186.751 119.517 186.817C119.473 186.894 119.441 186.959 119.441 187.047C112.861 196.3 105.332 204.732 99.8999 208.888C99.7688 208.987 99.7032 209.162 99.7579 209.315C99.7688 209.359 99.7906 209.413 99.8344 209.457L99.8781 209.501C100.02 209.632 100.25 209.643 100.403 209.523C105.878 205.345 113.408 196.912 120.02 187.637C123.626 190 127.473 191.936 131.517 193.445C135.265 194.878 139.2 195.742 143.2 196.026C147.845 196.3 152.118 195.567 155.921 193.817C163.473 190.35 168.981 184.772 171.822 177.706H171.724H171.658ZM25.9776 193.39C25.6935 193.434 25.2126 193.347 24.6443 192.537C24.0651 191.739 23.5951 190.875 23.2345 189.956C23.311 189.562 23.3984 189.147 23.4749 188.698C23.6935 187.484 23.9012 186.292 24.0869 185.187L25.9776 193.39ZM23.9667 180.78C23.7919 181.917 23.3001 185.22 22.6771 188.556C21.4094 195.447 20.6662 196.879 20.4258 197.186C20.3056 197.054 20.0542 196.584 19.9449 195.075C19.8575 193.729 19.9012 192.144 19.934 190.875C19.934 190.284 19.9559 189.792 19.9559 189.42C19.9559 188.961 19.9449 188.501 19.5406 188.447C19.1253 188.37 18.9832 188.84 18.8083 189.398C18.6881 189.836 18.5133 190.437 18.3275 191.137C17.934 192.57 17.4532 194.353 16.9395 195.829C16.2073 197.896 15.8029 198.29 15.6827 198.356C15.6062 198.257 15.4641 197.842 15.6499 196.267C15.792 195.064 16.0871 193.565 16.3494 192.231C16.9723 188.994 17.0707 188.184 16.6444 187.867C16.5242 187.769 16.3603 187.736 16.2182 187.78C15.7264 187.911 15.2783 188.775 14.1308 191.203C13.5735 192.417 12.5571 194.539 12.0325 195.075C11.8576 193.959 12.721 189.431 13.6937 185.527C13.7374 185.33 13.6281 185.133 13.4532 185.045C13.2674 184.958 13.0489 185.045 12.9505 185.209C11.4751 187.605 9.9451 189.705 9.21287 190.404C9.56259 188.928 11.5407 184.148 14.9833 176.941C15.1144 177.083 15.2893 177.269 15.4969 177.455C16.7428 178.614 19.3548 180.375 24.0104 180.802L23.9886 180.78H23.9667ZM22.5897 170.685C24.7973 172.325 26.841 173.507 28.677 174.174C26.3273 176.985 24.7099 179.325 24.2399 179.981C18.5242 179.522 15.9778 176.875 15.3876 176.142C16.8739 173.583 18.4258 171.057 20.0433 168.574C20.5351 169.001 21.4312 169.799 22.6116 170.685H22.6006H22.5897ZM147.353 88.2736C147.189 88.7876 145.648 90.1547 143.735 91.4781C143.528 90.6797 143.233 89.9141 142.839 89.1923C142.839 89.1923 142.817 89.1595 142.817 89.1485C144.894 88.5032 146.872 88.1204 147.353 88.2845V88.2736ZM123.703 132.46C119.539 133.324 115.703 132.569 112.282 130.217C108.894 127.899 107.025 125.033 106.752 121.708C106.632 120.33 106.796 118.93 107.255 117.629C108.621 117.902 109.954 118.296 111.222 118.865C111.255 118.876 111.266 118.887 111.299 118.887C111.342 118.908 111.397 118.919 111.441 118.919H111.484C111.627 118.919 111.78 118.832 111.856 118.701V118.679L119.615 107.479C120.26 107.02 121.703 105.784 123.222 103.148C124.38 101.147 124.435 99.7466 124.282 98.9482C124.14 98.2154 123.572 97.6357 122.85 97.4717C119.768 96.717 119.43 95.5139 119.408 95.1749C119.32 94.464 119.583 93.7531 120.118 93.2828C120.708 92.7797 121.495 92.5609 122.26 92.7031C122.872 92.8343 123.309 93.4359 123.572 93.9171C123.757 94.2562 124.074 94.5077 124.435 94.6171C124.807 94.7155 125.189 94.6827 125.539 94.4968C126.949 93.7093 128.555 91.7625 129.287 89.9469C129.91 88.4814 130.151 86.8736 130.009 85.2877C129.889 84.1284 129.43 83.0237 128.697 82.1269C131.539 82.6409 139.473 84.4893 142.162 89.5751C144.041 93.1515 143.309 96.8483 142.369 99.331C141.167 102.339 139.265 105.007 136.806 107.107C132.796 110.432 125.451 109.798 124.632 109.71C124.501 109.667 124.337 109.71 124.227 109.809L124.195 109.842C124.107 109.94 124.085 110.06 124.107 110.181L126.522 120.057L123.943 125.241C123.856 125.405 123.9 125.613 124.031 125.733C124.053 125.755 124.096 125.777 124.129 125.81H124.151C125.856 127.232 127.397 128.839 128.719 130.622C127.156 131.475 125.473 132.099 123.736 132.46H123.714H123.703ZM148.916 122.726L157.801 119.018C158.139 119.827 159.047 121.894 160.271 124.76L151.353 128.216C150.227 125.547 149.298 123.535 148.905 122.715H148.916V122.726ZM139.167 113.484C139.517 113.32 139.91 113.32 140.271 113.473C142.019 114.031 144.664 116.152 144.708 116.185C144.883 116.316 145.134 116.294 145.287 116.109C145.418 115.934 145.396 115.682 145.222 115.551L145.2 115.529C145.2 115.463 145.167 115.42 145.123 115.365C144.019 113.812 143.047 112.182 142.172 110.498C141.331 108.846 141.058 107.971 141.036 107.654C141.211 107.72 141.626 107.96 142.424 108.934C143.222 109.907 144.063 111.209 144.741 112.248C145.713 113.735 145.866 113.932 146.129 113.987C146.249 114.009 146.358 113.987 146.457 113.91C146.752 113.681 146.62 113.32 146.424 112.784C146.282 112.39 146.052 111.843 145.801 111.231C145.254 109.885 144.588 108.234 144.129 106.79C143.462 104.668 143.615 104.187 143.67 104.121C143.79 104.143 144.544 104.45 146.62 107.949C146.795 108.245 146.959 108.54 147.123 108.813C147.648 109.896 148.205 110.968 148.828 112.007C148.937 112.204 149.178 112.259 149.364 112.149C149.56 112.04 149.637 111.81 149.538 111.613C149.265 111.11 148.61 109.787 147.79 108.354C146.948 106.571 146.314 104.854 146.544 104.187C146.555 104.143 146.577 104.1 146.62 104.067C147.134 104.286 148.872 106.56 151.506 111.143C151.746 111.581 152.314 111.734 152.752 111.482C153.079 111.296 153.265 110.924 153.2 110.553V110.52C153.079 109.853 152.817 108.988 152.588 108.146C152.314 107.239 152.096 106.342 151.932 105.412C152.959 106.845 155.44 112.685 157.549 118.274L148.522 122.036C148.249 121.708 147.702 121.041 146.992 120.144C146.97 120.079 146.916 120.035 146.872 120.002L138.763 114.074C138.85 113.845 138.992 113.648 139.2 113.527L139.167 113.495V113.484ZM155.418 193.051C152.752 194.254 149.91 194.965 146.992 195.173C147.309 192.822 141.768 192.023 142.315 190.109C142.894 188.162 142.533 185.877 137.582 183.011C132.61 180.135 137.309 179.445 136.752 174.6C136.293 170.619 132.774 168.651 131.55 168.082C135.561 159.474 136.326 153.984 136.326 151.02C136.326 145.311 134.938 139.689 132.26 134.647C134.38 137.852 136.129 141.297 137.462 144.906C139.407 150.079 142.26 154.465 145.309 157.276C148.347 160.087 145.79 157.702 146.019 157.888L148.828 164.451C148.97 164.823 149.276 165.107 149.648 165.26C150.03 165.402 150.446 165.391 150.795 165.227C151.506 164.899 152.358 165.151 152.762 165.84L154.97 169.668C155.691 170.904 157.484 171.494 159.254 171.002C161.473 170.411 162.806 168.388 161.866 166.682L156.697 157.352C156.948 156.806 157.156 156.226 157.309 155.624C158.424 151.381 157.309 144.49 154.008 135.095C153.243 132.886 152.413 130.775 151.659 128.949L160.566 125.482C164.161 134.078 170.019 148.854 172.27 158.61C173.735 164.855 173.265 171.396 170.904 177.346C168.128 184.214 162.784 189.628 155.429 193.008V193.04L155.418 193.051Z" fill="#472C27"/>
<path d="M151.495 187.222C151.429 187.156 151.396 187.102 151.375 187.014C151.331 186.795 151.462 186.577 151.681 186.522C161.221 184.356 166.511 175.235 166.566 175.158C166.609 175.06 166.697 174.983 166.806 174.961C166.915 174.929 167.025 174.939 167.123 174.994C167.221 175.038 167.287 175.136 167.32 175.235C167.342 175.344 167.331 175.454 167.276 175.541C166.161 177.378 164.828 179.063 163.32 180.561C160.948 182.978 157.025 186.128 151.866 187.287C151.746 187.32 151.593 187.287 151.495 187.2V187.222ZM122.031 82.0504C121.943 81.9738 121.9 81.8645 121.911 81.7442C121.911 81.5254 122.096 81.3395 122.315 81.3395C124.118 81.3067 125.867 81.9957 127.156 83.2754C127.714 83.8332 128.173 84.5003 128.49 85.2222C128.566 85.43 128.457 85.6597 128.238 85.7362C128.042 85.8128 127.823 85.7144 127.736 85.5175C127.692 85.3753 126.391 82.1817 122.326 82.1598C122.217 82.1598 122.118 82.127 122.042 82.0504H122.031Z" fill="#F09947"/>
</g>
<path d="M275.121 120.877H190.336C189.538 120.877 188.882 120.298 188.882 119.598V114.468C188.882 113.757 189.527 113.188 190.336 113.188H275.121C275.919 113.188 276.575 113.768 276.575 114.468V119.598C276.575 120.309 275.93 120.877 275.121 120.877Z" fill="#FEF8EE"/>
<path d="M275.121 121.347H190.336C189.276 121.347 188.423 120.549 188.423 119.576V114.446C188.423 113.473 189.276 112.674 190.336 112.674H275.121C276.181 112.674 277.034 113.473 277.034 114.446V119.576C277.034 120.549 276.181 121.347 275.121 121.347ZM190.336 113.648C189.8 113.648 189.363 114.02 189.363 114.457V119.587C189.363 120.024 189.8 120.396 190.336 120.396H275.121C275.657 120.396 276.094 120.024 276.094 119.587V114.457C276.094 114.02 275.657 113.648 275.121 113.648H190.336Z" fill="#472C27"/>
<path d="M211.57 120.396H190.292C189.691 120.396 189.188 119.958 189.188 119.433V114.61C189.188 114.074 189.68 113.648 190.292 113.648H211.57V120.418V120.396Z" fill="#F09947"/>
<path d="M219.308 96.9357C219.308 86.8298 230.084 80.4425 230.084 77.1176C230.084 73.7928 219.308 67.3945 219.308 57.2996H242.488C242.488 67.4055 231.712 73.7928 231.712 77.1176C231.712 80.4425 242.488 86.8408 242.488 96.9357H219.308Z" fill="#FEF8EE"/>
<path d="M242.499 97.4498H219.319C219.024 97.4498 218.805 97.2201 218.805 96.9358C218.805 90.3079 223.231 85.3096 226.455 81.6785C228.127 79.7863 229.581 78.1458 229.581 77.1177C229.581 76.0896 228.127 74.449 226.455 72.5569C223.231 68.9039 218.805 63.9056 218.805 57.2996C218.805 50.6936 219.035 56.7856 219.319 56.7856H242.499C242.794 56.7856 243.012 57.0152 243.012 57.2996C243.012 63.9275 238.586 68.9258 235.362 72.5569C233.69 74.449 232.237 76.0896 232.237 77.1177C232.237 78.1458 233.69 79.7863 235.362 81.6785C238.586 85.3315 243.023 90.3297 243.012 96.9358C243.012 97.7998 242.783 97.4498 242.499 97.4498ZM219.832 96.4108H241.952C241.723 90.4282 237.603 85.7799 234.575 82.3456C232.608 80.1363 231.187 78.5176 231.187 77.1177C231.187 75.7177 232.608 74.099 234.575 71.8897C237.603 68.4664 241.734 63.8072 241.952 57.8246H219.832C220.062 63.8072 224.182 68.4555 227.209 71.8897C229.177 74.099 230.597 75.7177 230.597 77.1177C230.597 78.5176 229.177 80.1363 227.209 82.3456C224.171 85.7689 220.04 90.4282 219.832 96.4108Z" fill="#472C27"/>
<path d="M224.062 68.6413C222.751 66.1914 238.892 66.6617 237.559 68.9366C236.029 71.2662 232.204 75.5645 232.204 75.5645C231.297 76.2536 230.062 76.1005 229.253 75.138C228.444 74.1646 225.209 70.6647 224.062 68.6632V68.6413Z" fill="#F09947"/>
<path d="M230.98 76.4723C230.193 76.4723 229.417 76.1005 228.86 75.4333C228.685 75.2146 228.379 74.8755 228.007 74.438C226.696 72.9615 224.521 70.4788 223.625 68.871C223.373 68.3788 223.483 67.8648 223.942 67.5039C225.275 66.443 229.581 66.4649 230.881 66.4867C234.925 66.5852 237.078 67.2414 237.745 67.832C238.182 68.2148 238.28 68.7288 238.018 69.1773V69.1991C236.488 71.5287 232.783 75.7067 232.619 75.8817C232.597 75.9036 232.586 75.9255 232.543 75.9583C232.095 76.3301 231.548 76.4833 231.013 76.4833L230.991 76.4614L230.98 76.4723ZM224.51 68.3898C225.373 69.8882 227.504 72.3162 228.772 73.7708C229.155 74.2083 229.472 74.5583 229.647 74.788C230.237 75.5099 231.166 75.663 231.843 75.1708C232.226 74.7443 235.679 70.8397 237.1 68.6851C236.991 68.5429 236.433 68.1929 234.783 67.8976C233.428 67.6679 231.679 67.5258 229.942 67.5258H229.876C226.204 67.5258 224.663 68.1054 224.488 68.3788V68.4007H224.499L224.51 68.3898ZM243.537 55.0137H218.248C217.953 55.0137 217.734 55.2434 217.734 55.5277V59.0604C217.734 59.3557 217.964 59.5745 218.248 59.5745H243.537C243.832 59.5745 244.051 59.3448 244.051 59.0604V55.5277C244.051 55.2324 243.821 55.0137 243.537 55.0137Z" fill="#472C27"/>
<path d="M219.308 95.2297C219.308 95.2297 225.472 88.3284 230.892 88.3284C236.313 88.3284 242.477 95.2297 242.477 95.2297H219.308Z" fill="#F09947"/>
<path d="M242.499 95.7436H219.319C219.111 95.7436 218.925 95.6233 218.838 95.4373C218.751 95.2514 218.794 95.0327 218.925 94.8795C219.177 94.5842 225.319 87.8032 230.903 87.8032C236.488 87.8032 242.619 94.5952 242.881 94.8795C243.012 95.0436 243.056 95.2514 242.969 95.4373C242.881 95.6233 242.695 95.7436 242.51 95.7436H242.499ZM220.521 94.7046H241.275C239.439 92.8999 234.903 88.8204 230.903 88.8204C226.903 88.8204 222.368 92.878 220.532 94.7046H220.521Z" fill="#472C27"/>
<path d="M243.537 94.4421H218.248C217.953 94.4421 217.734 94.6718 217.734 94.9562V98.4889C217.734 98.7842 217.964 99.0029 218.248 99.0029H243.537C243.832 99.0029 244.051 98.7732 244.051 98.4889V94.9562C244.051 94.6609 243.821 94.4421 243.537 94.4421Z" fill="#472C27"/>
<path d="M230.215 82.6299C230.571 82.6299 230.86 82.341 230.86 81.9846C230.86 81.6283 230.571 81.3394 230.215 81.3394C229.859 81.3394 229.57 81.6283 229.57 81.9846C229.57 82.341 229.859 82.6299 230.215 82.6299Z" fill="#472C27"/>
<path d="M230.215 83.1658C229.57 83.1658 229.045 82.6409 229.045 82.0065C229.045 81.3722 229.57 80.8472 230.215 80.8472C230.86 80.8472 231.384 81.3722 231.384 82.0065C231.384 82.6409 230.86 83.1658 230.215 83.1658ZM230.215 81.8534C230.138 81.8534 230.084 81.919 230.084 81.9846C230.084 82.0503 230.149 82.1159 230.215 82.1159C230.28 82.1159 230.346 82.0503 230.346 81.9846C230.346 81.919 230.28 81.8534 230.215 81.8534Z" fill="#472C27"/>
<path d="M232.783 85.8563C233.139 85.8563 233.428 85.5674 233.428 85.211C233.428 84.8546 233.139 84.5657 232.783 84.5657C232.427 84.5657 232.138 84.8546 232.138 85.211C232.138 85.5674 232.427 85.8563 232.783 85.8563Z" fill="#472C27"/>
<path d="M232.783 86.3924C232.138 86.3924 231.614 85.8674 231.614 85.2331C231.614 84.5987 232.138 84.0737 232.783 84.0737C233.428 84.0737 233.953 84.5987 233.953 85.2331C233.953 85.8674 233.428 86.3924 232.783 86.3924ZM232.783 85.0799C232.707 85.0799 232.652 85.1456 232.652 85.2112C232.652 85.2768 232.718 85.3424 232.783 85.3424C232.849 85.3424 232.914 85.2768 232.914 85.2112C232.914 85.1456 232.849 85.0799 232.783 85.0799Z" fill="#472C27"/>
</g>
<defs>
<clipPath id="clip0_543_6160">
<rect width="337" height="278" fill="white"/>
</clipPath>
</defs>
</svg>
