<svg width="347" height="228" viewBox="0 0 347 228" fill="none" xmlns="http://www.w3.org/2000/svg">
<g clip-path="url(#clip0_543_6953)">
<path d="M174.769 15.9801C209.047 -7.55542 281.411 -7.06064 301.55 30.7834C325.15 75.0996 264.519 102.994 213.55 97.2978C159.454 91.2535 129.079 47.3117 174.769 15.9801Z" fill="#DD6219"/>
<path d="M291.461 34.7014C291.407 27.2128 284.498 21.1952 276.159 21.7435C271.469 13.5863 259.869 11.4066 252.078 17.1701C243.712 8.74549 228.611 11.4735 224.241 22.1046C216.918 22.3051 211.078 27.8413 211.118 34.5944C211.145 39.1544 213.858 43.1126 217.867 45.2389C211.666 57.3677 224.068 70.6732 238.153 66.7551C247.427 74.2036 261.994 70.0314 265.134 59.1863C275.184 61.3393 284.792 54.6932 285.514 45.4261C289.135 43.019 291.474 39.1009 291.447 34.7014H291.461Z" fill="#FDEED7"/>
<path d="M248.978 70.807C245.035 70.807 241.187 69.5098 238.073 67.076C236.469 67.504 234.812 67.7313 233.155 67.7313C227.823 67.7313 222.745 65.4446 219.391 61.3125C215.582 56.6188 214.86 50.6681 217.466 45.3458C213.404 43.0592 210.851 38.9672 210.825 34.581C210.798 31.2379 212.188 28.0553 214.713 25.6616C217.239 23.2813 220.567 21.904 224.055 21.797C226.126 16.9294 230.656 13.3724 236.229 12.2491C242.095 11.0723 248.016 12.7572 252.118 16.7689C256.06 14.0009 260.992 12.9979 265.709 14.0142C270.253 14.9637 274.115 17.6783 276.346 21.4359C280.543 21.1952 284.619 22.6394 287.585 25.3808C290.271 27.8814 291.768 31.1978 291.781 34.688C291.808 38.9806 289.603 43.0324 285.835 45.5865C285.46 49.8523 283.255 53.6769 279.634 56.3915C275.531 59.4136 270.36 60.5369 265.375 59.5206C263.851 64.4016 259.856 68.2796 254.617 69.9377C252.813 70.5128 250.915 70.807 249.031 70.807H249.018H248.978ZM238.153 66.4475C238.153 66.4475 238.274 66.4609 238.34 66.5144C242.79 70.0715 248.791 71.1546 254.403 69.3627C259.548 67.7313 263.451 63.88 264.867 59.0793C264.921 58.9322 265.054 58.8386 265.215 58.8787C270.186 59.9352 275.317 58.8787 279.273 55.8967C282.801 53.2489 284.926 49.5314 285.26 45.386C285.26 45.2923 285.327 45.2121 285.38 45.1586C289.055 42.7382 291.22 38.8067 291.193 34.6746C291.167 31.3315 289.737 28.1623 287.184 25.7953C284.325 23.1209 280.315 21.7435 276.213 22.0109C276.106 22.0109 275.986 21.9575 275.932 21.8638C273.807 18.1597 270.039 15.4986 265.602 14.5625C260.965 13.5462 256.127 14.5625 252.279 17.3707C252.172 17.4509 251.998 17.4509 251.904 17.344C247.935 13.359 242.136 11.6607 236.376 12.8107C230.937 13.9072 226.514 17.3975 224.549 22.1714C224.496 22.2784 224.402 22.3453 224.282 22.3586C217.159 22.5592 211.399 28.0285 211.453 34.5543C211.479 38.8201 214.005 42.7917 218.041 44.9447C218.188 45.0249 218.241 45.1987 218.161 45.3458C215.515 50.5076 216.17 56.338 219.885 60.9114C224.161 66.1533 231.298 68.3197 238.1 66.4342H238.18H238.167L238.153 66.4475Z" fill="#472C27"/>
<path d="M207.578 46.0546C203.515 46.4156 202.941 50.521 205.279 52.2059C207.511 53.8106 211.119 52.0855 211.64 49.1302C211.921 47.4988 210.237 45.8139 207.578 46.0546Z" fill="#FDEED7"/>
<path d="M207.244 53.102C206.482 53.102 205.72 52.8747 205.105 52.4334C203.889 51.5642 203.355 50.0263 203.729 48.5688C204.157 46.9908 205.6 45.921 207.538 45.7472C209.061 45.6001 210.397 46.0681 211.226 46.9641C211.774 47.5524 212.054 48.3548 211.921 49.1705C211.6 50.802 210.464 52.1526 208.927 52.7543C208.393 52.9817 207.818 53.0886 207.23 53.102H207.244ZM207.618 46.3356C205.907 46.496 204.678 47.3786 204.304 48.7159C203.983 49.9194 204.424 51.2031 205.453 51.952C206.362 52.6072 207.538 52.6741 208.727 52.2061C210.077 51.6845 211.066 50.4944 211.36 49.0769C211.453 48.4618 211.253 47.8199 210.825 47.3786C210.117 46.603 208.941 46.2286 207.631 46.3489H207.618V46.3356Z" fill="#472C27"/>
<path d="M238.22 61.1388H238.126C237.966 61.0853 237.886 60.9114 237.939 60.7777C238.634 58.491 239.69 56.3381 241.04 54.3857C241.294 54.038 241.548 53.7037 241.801 53.3828C240.184 52.5938 238.634 51.6443 237.191 50.5478C237.097 50.4676 237.004 50.4007 236.924 50.3205C232.875 49.4646 229.387 48.3146 227.583 46.9372C226.554 46.1483 226.46 45.2791 226.554 44.6773C226.607 44.4232 226.674 44.1692 226.794 43.9284C226.607 43.8081 226.433 43.661 226.273 43.4872C225.444 42.5778 225.364 41.1871 226.032 39.4621C226.66 37.8173 227.863 36.0521 229.413 34.4608C228.104 33.7921 226.888 32.9363 225.819 31.9334C225.698 31.8264 225.698 31.6258 225.805 31.5188C225.912 31.3985 226.113 31.3985 226.219 31.5055C227.302 32.5351 228.518 33.391 229.854 34.0195C232.38 31.5456 235.708 29.5798 238.821 29.2589C241.347 29.0048 242.309 29.6333 242.657 30.195C242.71 28.8978 243.926 27.9484 246.332 27.3734C252.198 25.9826 256.956 27.3199 260.083 29.406C263.932 29.7403 267.433 30.8101 269.892 33.1904C271.255 34.5009 271.028 35.4904 270.6 36.0788C270.092 36.8009 268.956 37.3492 267.5 37.737C268.823 38.4458 270.052 39.3417 271.161 40.3446C273.126 42.2034 273.874 43.5005 273.406 44.3163C272.872 45.2791 270.747 45.2924 267.085 44.3831C267.246 44.5302 267.393 44.6639 267.513 44.8244C269.344 47.0041 268.783 48.4885 267.967 49.3042C266.431 50.9089 262.702 51.7112 258.319 51.9787C258.466 52.8479 257.985 53.6903 256.956 54.3723C254.39 56.0572 248.684 56.5387 242.336 53.6235C242.029 53.9711 241.761 54.3188 241.494 54.7066C240.184 56.6189 239.155 58.7184 238.474 60.9516C238.447 61.0719 238.314 61.1521 238.193 61.1521H238.207L238.22 61.1388ZM242.764 53.1822C244.755 54.1049 246.893 54.7066 249.058 55.0008C252.693 55.4555 255.352 54.7334 256.635 53.8909C257.13 53.57 257.918 52.888 257.731 52.0321C254.577 52.1792 251.41 52.1258 248.269 51.885C247.067 51.7914 245.851 51.6845 244.648 51.5507C243.966 52.0321 243.338 52.567 242.764 53.1822ZM238.287 50.6013C239.543 51.4839 240.853 52.2595 242.216 52.9147C242.71 52.3798 243.245 51.8984 243.819 51.4571C241.948 51.2298 240.091 50.949 238.3 50.6013H238.287ZM245.45 51.0426C246.399 51.1362 247.347 51.2164 248.336 51.2967C251.397 51.5374 254.457 51.5775 257.517 51.4571C256.969 50.6013 255.633 49.8926 253.922 49.5582C251.009 49.0367 248.016 49.5582 245.45 51.0426ZM251.757 48.7559C252.519 48.7559 253.281 48.8228 254.043 48.9565C256.101 49.3577 257.637 50.267 258.172 51.3903C262.889 51.0827 266.297 50.2135 267.593 48.8763C268.529 47.9001 268.368 46.6965 267.099 45.1721C266.644 44.6506 266.097 44.2226 265.482 43.8883C264.266 43.5273 262.929 43.086 261.526 42.5645C259.548 43.9686 256.301 45.239 250.996 45.5599C244.782 45.9343 241.227 45.1186 239.249 43.9418C237.124 44.811 235.841 45.8407 235.641 46.9239C235.467 47.8065 235.988 48.7559 237.191 49.7588C239.409 50.2135 241.882 50.6147 244.501 50.9089C246.652 49.478 249.165 48.7292 251.744 48.7292V48.7559H251.757ZM227.329 44.1959C227.248 44.3697 227.182 44.557 227.155 44.7442C227.048 45.3994 227.315 45.9477 227.957 46.4425C229.427 47.5791 232.327 48.6623 236.082 49.5181C235.24 48.6088 234.892 47.7129 235.066 46.8303C235.347 45.4262 236.857 44.3564 238.661 43.5674C238.26 43.2598 237.899 42.9121 237.605 42.5243C236.456 43.0994 235.227 43.5407 233.984 43.8482C230.977 44.6773 228.745 44.7843 227.342 44.1825L227.329 44.1959ZM239.944 43.7011C242.202 44.8378 245.944 45.3058 250.956 44.9982C255.566 44.7308 258.546 43.7279 260.484 42.5645C257.383 42.6313 253.521 42.3639 249.78 41.8424C247.214 42.0162 244.688 42.4174 242.189 43.0325C241.36 43.2331 240.612 43.4738 239.931 43.7145H239.944V43.7011ZM265.762 43.3936C266.097 43.4872 266.431 43.5808 266.738 43.661C270.841 44.7575 272.605 44.5703 272.912 44.0221C273.059 43.7814 273.112 42.979 270.774 40.7726C269.558 39.6359 268.168 38.6597 266.658 37.9376C266.056 38.058 265.468 38.1649 264.854 38.2452C265.789 38.7801 266.511 39.4353 266.885 40.1708C267.072 40.5185 267.032 40.9598 266.778 41.2673C266.324 41.8156 265.121 42.19 263.437 42.3906C264.239 42.6447 265.014 42.979 265.762 43.3936ZM227.636 43.6744C228.678 44.0889 230.549 44.1825 233.837 43.2999C235.026 42.979 236.175 42.5778 237.285 42.0296C237.031 41.5749 236.87 41.0534 236.83 40.5185C236.763 39.8231 236.844 39.1277 237.071 38.4591C236.95 38.3923 236.83 38.3388 236.723 38.2719C232.246 39.89 228.879 41.9092 227.649 43.6744H227.636ZM230.028 34.7148C228.451 36.2928 227.208 38.0713 226.594 39.676C226.193 40.7191 225.885 42.1767 226.714 43.0994C226.821 43.2197 226.954 43.3401 227.088 43.4337C228.318 41.5615 231.538 39.569 236.028 37.9109C234.973 37.2155 234.304 36.4666 234.064 35.6777C232.674 35.6108 231.298 35.3032 230.015 34.7416L230.028 34.7148ZM238.113 42.2703C238.447 42.6848 238.821 43.0459 239.289 43.3267C240.198 42.979 241.12 42.6982 242.069 42.4575C243.846 42.0162 245.65 41.6953 247.468 41.4947C245.57 41.1737 243.686 40.7726 241.815 40.2644C241.414 40.1574 241.053 40.0371 240.692 39.9301C240.251 40.7057 239.463 41.508 238.113 42.2836V42.2703ZM253.829 41.7086C255.352 41.829 256.822 41.9092 258.185 41.9493C256.742 41.7889 255.285 41.7086 253.829 41.7086ZM264.493 38.6998C264.426 38.9272 264.346 39.1411 264.252 39.3551C263.825 40.3179 263.197 41.1737 262.422 41.8691C264.466 41.7086 265.909 41.3743 266.337 40.8662C266.444 40.7458 266.457 40.5452 266.364 40.4115C266.043 39.7563 265.388 39.1946 264.493 38.6998ZM260.911 41.7487C261.112 41.7755 261.312 41.829 261.499 41.8691C262.448 41.1604 263.21 40.2109 263.704 39.1277C263.798 38.9004 263.878 38.6731 263.958 38.4324C263.892 38.4056 263.851 38.3655 263.785 38.3521C259.936 38.6998 255.633 38.3521 253.815 37.4294C253.388 37.2021 252.907 36.9079 252.973 36.4934C253.04 36.0922 253.548 35.9852 253.909 35.9184C255.633 35.6643 260.537 36.1992 263.865 37.7236C263.945 37.7236 264.025 37.7103 264.105 37.6969C264.159 37.4295 264.172 37.162 264.172 36.8678C259.482 35.223 253.882 34.9154 248.336 35.5573C251.771 37.7771 256.475 40.0371 260.925 41.7354H260.938L260.911 41.7487ZM237.592 38.7399C237.418 39.315 237.351 39.89 237.418 40.4784C237.472 40.933 237.592 41.3609 237.792 41.7755C238.888 41.1604 239.663 40.4784 240.118 39.7295C239.262 39.4487 238.407 39.1144 237.592 38.7266V38.7399ZM253.615 41.1069C255.219 41.1069 256.809 41.1871 258.399 41.3609C254.47 39.7295 250.421 37.6969 247.414 35.6777C245.249 35.9585 243.098 36.3864 240.973 36.948C241 37.055 241.04 37.1754 241.066 37.2824C241.227 37.9777 241.173 38.7132 240.919 39.3685C241.254 39.4754 241.601 39.569 241.948 39.676C244.528 40.3714 247.134 40.8929 249.78 41.254C251.049 41.1604 252.305 41.1069 253.588 41.1069H253.602H253.615ZM237.779 38.1649C238.621 38.5661 239.49 38.9138 240.372 39.1946C240.599 38.6196 240.639 38.0045 240.492 37.4161C240.465 37.3091 240.438 37.2155 240.412 37.0951C239.556 37.3358 238.714 37.5899 237.913 37.8574C237.859 37.951 237.819 38.058 237.792 38.1649H237.779ZM253.615 36.6004C253.762 36.7207 253.922 36.8277 254.096 36.9079C255.7 37.7103 259.174 38.0178 262.515 37.844C261.205 37.3893 259.842 37.0416 258.479 36.8143C255.807 36.3597 254.043 36.4399 253.615 36.6271V36.6004ZM234.705 35.6643C234.986 36.3329 235.681 36.9882 236.763 37.63C236.964 37.5498 237.191 37.4829 237.391 37.4027L237.472 37.376C237.886 36.5335 238.42 35.7579 239.035 35.0492C238.968 34.9823 238.888 34.9288 238.835 34.8619C237.525 35.3701 236.122 35.6375 234.705 35.6509V35.6643ZM264.76 37.0818C264.76 37.2556 264.747 37.4294 264.707 37.6167C265.041 37.5632 265.375 37.5231 265.682 37.4696C265.362 37.3225 265.068 37.2021 264.733 37.0951H264.747L264.76 37.0818ZM264.76 36.4666C265.428 36.7207 266.07 36.9882 266.711 37.2957C268.368 36.9347 269.665 36.4131 270.159 35.7178C270.319 35.4904 270.787 34.8352 269.504 33.5916C267.366 31.5188 264.359 30.4892 261.058 30.0612C261.66 30.5426 262.194 31.0642 262.689 31.6392C263.972 33.1636 264.667 34.8218 264.76 36.4533V36.4666ZM239.449 35.4771C239.008 35.9852 238.621 36.5335 238.3 37.1219C238.915 36.9347 239.57 36.7475 240.198 36.5469C239.997 36.1457 239.757 35.7846 239.449 35.4637V35.4771ZM239.85 35.0224C240.211 35.437 240.532 35.8916 240.772 36.3998C242.737 35.8782 244.715 35.4771 246.719 35.1829C245.289 34.1532 244.153 33.1369 243.459 32.1741C242.109 32.9363 240.893 33.8991 239.85 35.0224ZM253.602 34.6614C257.317 34.6614 260.952 35.1561 264.159 36.2393C264.012 34.8085 263.37 33.3509 262.248 32.027C261.566 31.238 260.778 30.5159 259.909 29.9543C255.94 29.6199 251.597 30.0746 247.722 30.6496C246.412 30.8502 245.142 31.2781 243.966 31.9066C244.688 32.8828 245.958 33.966 247.588 35.0759C249.579 34.8218 251.597 34.6747 253.602 34.6747V34.6614ZM234.558 35.0759C235.828 35.0759 237.084 34.8753 238.287 34.4474C237.271 33.7387 236.135 33.3375 235.4 33.4846C234.732 33.6049 234.451 34.1532 234.545 35.0625L234.558 35.0759ZM230.496 34.2468C231.605 34.6881 232.781 34.9556 233.984 35.0358C233.823 33.3509 234.852 32.9764 235.307 32.8828C236.336 32.6956 237.766 33.2171 238.968 34.1666C239.423 33.966 239.89 33.7253 240.318 33.4578C241.748 32.5218 242.55 31.345 242.296 30.6095C242.042 29.9008 240.826 29.6066 238.955 29.8072C236.068 30.1147 232.955 31.9468 230.523 34.2468H230.509H230.496ZM242.884 31.1578C242.83 31.4653 242.724 31.7595 242.563 32.027C242.75 31.9066 242.937 31.7863 243.138 31.6793C243.044 31.5055 242.951 31.3316 242.884 31.1578ZM251.076 27.36C249.526 27.36 247.989 27.5472 246.492 27.9083C244.367 28.4164 243.298 29.1787 243.285 30.195C243.285 30.6229 243.432 31.0508 243.659 31.3985C244.888 30.7299 246.238 30.2752 247.628 30.0345C251.183 29.513 255.112 29.0851 258.827 29.2723C256.448 27.9885 253.775 27.3199 251.076 27.36Z" fill="#472C27"/>
<path d="M174.182 169.616C181.85 169.616 188.066 163.396 188.066 155.722C188.066 148.049 181.85 141.828 174.182 141.828C166.513 141.828 160.297 148.049 160.297 155.722C160.297 163.396 166.513 169.616 174.182 169.616Z" fill="#F09947"/>
<path d="M187.283 182.566C187.485 174.282 145.798 166.543 94.172 165.281C42.5458 164.018 0.530572 169.71 0.32825 177.994C0.125928 186.278 41.8132 194.017 93.4393 195.279C145.065 196.542 187.081 190.85 187.283 182.566Z" fill="#472C27"/>
<path d="M107.564 195.679C102.913 195.679 98.1959 195.612 93.4117 195.505C68.4217 194.903 44.9686 192.764 27.3687 189.501C17.092 187.602 -0.147042 183.563 -4.25476e-05 177.934C0.146957 172.317 17.533 169.108 27.8899 167.704C45.6367 165.297 69.1701 164.294 94.1334 164.922C119.097 165.551 142.563 167.664 160.176 170.926C170.453 172.825 187.679 176.864 187.545 182.494C187.398 188.11 170.012 191.319 159.655 192.724C145.316 194.676 127.182 195.679 107.55 195.679H107.564ZM79.9813 165.337C60.3902 165.337 42.2825 166.353 27.9567 168.292C10.6374 170.632 0.668139 174.149 0.574593 177.947C0.481048 181.745 10.2766 185.716 27.4489 188.912C45.022 192.175 68.4351 194.302 93.3984 194.903C118.362 195.505 141.842 194.529 159.548 192.122C176.868 189.782 186.837 186.265 186.93 182.467C187.024 178.669 177.228 174.671 160.056 171.502C142.483 168.239 119.07 166.112 94.1066 165.511C89.3893 165.404 84.6719 165.337 79.9679 165.337H79.9813Z" fill="#472C27"/>
<path d="M183.496 88.4587C183.737 101.791 184.164 116.046 185.875 127.653C183.897 129.111 182.026 130.582 180.302 132.013C178.471 133.524 176.801 135.008 175.304 136.412C174.208 143.553 172.565 150.6 170.386 157.487C167.139 167.717 162.675 177.706 157.089 186.626C155.646 188.939 154.109 191.186 152.506 193.379C138.661 194.863 121.516 195.666 102.753 195.505C94.7749 186.225 88.4138 173.601 83.8301 162.248C90.3515 154.184 107.11 141.561 119.244 136.225C128.411 109.346 128.064 85.3831 129.801 65.1372C151.664 62.1418 169.357 71.4222 183.509 88.4855L183.496 88.4587Z" fill="#FDEED7"/>
<path d="M184.779 113.652H184.712C176.239 111.58 171.054 103.021 173.126 94.5431C174.155 90.3174 176.881 86.7202 180.649 84.5672C180.796 84.487 180.97 84.5405 181.064 84.6742C181.144 84.8213 181.09 84.9952 180.957 85.0888C173.674 89.2476 171.134 98.5281 175.291 105.829C177.362 109.453 180.836 112.088 184.886 113.064C185.046 113.091 185.14 113.264 185.113 113.425C185.086 113.545 184.952 113.652 184.832 113.652H184.805H184.779ZM159.214 118.533C159.054 118.533 158.907 118.413 158.907 118.226C158.907 118.159 158.933 118.079 158.987 118.038C163.397 112.89 163.891 105.442 160.19 99.7583C160.096 99.6112 160.136 99.4374 160.27 99.3438C160.417 99.2502 160.591 99.2903 160.684 99.424C164.546 105.335 164.025 113.077 159.428 118.413C159.361 118.48 159.281 118.52 159.201 118.52L159.214 118.533ZM168.769 157.848C160.043 157.848 153 150.747 153 142.029C153 133.31 160.069 126.236 168.796 126.236C171.682 126.236 174.489 127.025 176.961 128.536C177.055 128.603 177.121 128.71 177.108 128.817C177.028 129.659 176.948 130.502 176.854 131.331C176.68 132.895 176.48 134.46 176.239 136.024C176.239 136.091 176.186 136.145 176.146 136.198C176.039 136.292 175.945 136.399 175.825 136.506C174.729 143.633 173.086 150.667 170.907 157.541C170.881 157.648 170.787 157.728 170.653 157.741C170.025 157.821 169.384 157.848 168.756 157.848H168.769ZM168.809 126.824C167.713 126.824 166.631 126.931 165.548 127.172C157.357 128.964 152.158 137.067 153.949 145.278C155.593 152.86 162.689 157.982 170.386 157.153C172.538 150.346 174.168 143.352 175.25 136.292C175.25 136.225 175.304 136.171 175.344 136.118L175.424 136.051C175.504 135.971 175.585 135.891 175.678 135.81C175.905 134.286 176.106 132.775 176.279 131.25C176.373 130.395 176.453 129.632 176.52 128.924C174.195 127.546 171.535 126.811 168.823 126.811H168.809V126.824Z" fill="#F09947"/>
<path d="M132.3 74.2972C132.139 74.2972 131.992 74.1768 131.992 73.9896C131.992 73.9361 131.992 73.896 132.019 73.8692L140.371 56.445C138.901 56.2711 137.685 55.2949 137.084 53.7571C136.255 51.671 136.563 48.4884 139.088 46.0947C139.756 45.4394 140.545 44.9447 141.427 44.6505C141.587 44.597 141.748 44.704 141.788 44.8511C141.828 44.9981 141.734 45.172 141.587 45.2121C140.799 45.4796 140.064 45.9208 139.476 46.5092C137.151 48.6889 136.883 51.671 137.605 53.5298C138.193 55.0007 139.342 55.8566 140.799 55.8699C140.959 55.8699 141.106 55.9903 141.106 56.1775C141.106 56.231 141.106 56.2711 141.079 56.2979L132.527 74.1099C132.473 74.2035 132.366 74.2838 132.259 74.2838H132.273L132.3 74.2972Z" fill="#472C27"/>
<path d="M139.703 52.3798C139.556 52.3798 139.449 52.2862 139.423 52.1391C138.982 50.1065 140.265 48.1006 142.283 47.6593C142.443 47.6326 142.603 47.7262 142.63 47.8867C142.657 48.0471 142.563 48.2076 142.403 48.2343C140.692 48.6088 139.623 50.2937 139.984 52.0054C140.011 52.1658 139.917 52.3263 139.757 52.353H139.69V52.3798H139.703Z" fill="#472C27"/>
<path d="M143.138 52.099C143.057 52.099 142.977 52.0722 142.937 52.0054L140.278 49.264C140.171 49.1437 140.171 48.9564 140.291 48.8361C140.398 48.7291 140.599 48.7291 140.705 48.8361L143.365 51.5774C143.472 51.6844 143.472 51.885 143.365 52.0054C143.311 52.0588 143.245 52.0856 143.164 52.0856H143.151L143.138 52.099Z" fill="#472C27"/>
<path d="M159.107 84.166C159.268 85.4631 159.294 86.7736 159.174 88.0841L159.241 88.1644C158.292 100.574 142.229 105.174 131.565 92.5505C122.611 81.9595 125.551 67.4505 136.616 65.3777L141.053 56.1508C136.964 56.1374 135.627 49.9727 139.53 46.2819C140.144 45.6668 140.906 45.1854 141.748 44.9179L148.791 43.7812L152.412 54.1449L151.731 70.4058C155.579 73.8291 158.452 78.6566 159.121 84.166H159.107Z" fill="#F09947"/>
<path d="M146.092 100.333C141.508 100.333 136.055 98.3409 131.325 92.7512C126.42 86.9609 124.723 79.5526 126.888 73.4682C128.452 69.0553 131.926 66.0197 136.403 65.1371L140.559 56.445C139.089 56.2712 137.873 55.295 137.272 53.7572C136.443 51.6711 136.75 48.4885 139.276 46.0948C139.944 45.4395 140.733 44.9448 141.615 44.6506H141.641L148.684 43.5139C148.831 43.5005 148.965 43.5808 149.018 43.7011L152.64 54.0648C152.64 54.0648 152.653 54.145 152.653 54.1717L151.985 70.2989C156.114 74.0031 158.734 78.9107 159.362 84.126V84.1795C159.522 85.4632 159.549 86.747 159.442 88.0307C159.495 88.0976 159.509 88.1511 159.509 88.2313C159.081 93.7274 155.753 98.0199 150.595 99.6781C149.138 100.133 147.602 100.373 146.065 100.373L146.092 100.333ZM141.788 45.2122C141 45.4797 140.278 45.9209 139.704 46.5093C137.378 48.689 137.111 51.6711 137.833 53.5299C138.421 55.0008 139.57 55.8567 141.027 55.87C141.187 55.87 141.334 55.9904 141.334 56.1776C141.334 56.2311 141.334 56.2712 141.307 56.2979L136.871 65.5249C136.817 65.6052 136.75 65.672 136.67 65.6854C132.34 66.4877 128.959 69.4029 127.463 73.6687C125.378 79.5794 127.022 86.747 131.792 92.3901C138.047 99.7717 145.53 100.708 150.448 99.1031C155.339 97.5252 158.506 93.4867 158.947 88.2848C158.894 88.2179 158.881 88.1645 158.881 88.0842C158.987 86.8139 158.974 85.5301 158.814 84.2865V84.233C158.199 79.1113 155.606 74.2839 151.517 70.6466C151.45 70.5797 151.424 70.4995 151.424 70.4059L152.105 54.1851L148.591 44.1157L141.815 45.2122H141.788Z" fill="#472C27"/>
<path d="M159.227 88.2045C159.227 88.3115 159.2 88.4318 159.174 88.5522C151.53 89.8493 146.238 84.7143 144.394 77.0385L146.371 74.1902C147.494 81.759 151.73 88.1644 159.227 88.2045Z" fill="#472C27"/>
<path d="M156.902 89.0336C150.728 89.0336 145.931 84.6475 144.113 77.092C144.1 77.0118 144.113 76.9182 144.167 76.8513L146.144 74.003C146.238 73.8559 146.425 73.8292 146.559 73.9228C146.626 73.9763 146.666 74.0431 146.679 74.1234C147.962 82.7085 152.666 87.8568 159.241 87.8836C159.401 87.8836 159.548 88.0307 159.548 88.1912V88.2179C159.548 88.3249 159.521 88.4586 159.495 88.5656C159.481 88.6859 159.388 88.7929 159.254 88.8197C158.479 88.94 157.704 89.0202 156.929 89.0202H156.902V89.0336ZM144.728 77.092C146.599 84.6207 151.53 88.8464 157.798 88.4185C154.804 88.0574 152.198 86.6266 150.18 84.2062C148.216 81.866 146.853 78.6834 146.198 74.9524L144.728 77.092Z" fill="#472C27"/>
<path d="M107.511 195.679C106.041 195.679 104.571 195.679 103.074 195.665C102.994 195.665 102.9 195.639 102.847 195.558C94.254 185.569 87.786 171.916 83.8705 162.221C83.817 162.127 83.8571 161.994 83.9239 161.913C90.7928 153.422 107.644 141.039 119.338 135.864C126.634 114.441 127.864 94.8239 128.959 77.5199C129.227 73.1338 129.494 69.0017 129.841 64.9632C129.841 64.8161 129.948 64.7091 130.095 64.6958C150.675 61.8742 168.836 69.7773 184.058 88.151C184.111 88.2045 184.124 88.258 184.124 88.3382C184.365 101.938 184.819 116.113 186.476 127.493C186.49 127.6 186.45 127.72 186.37 127.774C182.708 130.448 179.22 133.35 175.892 136.439C173.166 154.411 166.698 172.264 157.664 186.679C156.194 189.019 154.644 191.306 153.054 193.446C153.001 193.512 152.934 193.553 152.854 193.566C139.717 194.97 124.108 195.706 107.497 195.706L107.511 195.679ZM103.221 195.064C121.369 195.211 138.461 194.462 152.68 192.951C154.23 190.865 155.753 188.631 157.197 186.331C166.217 171.956 172.658 154.157 175.371 136.225C175.371 136.158 175.425 136.105 175.465 136.051C178.779 132.962 182.267 130.06 185.929 127.386C184.285 116.033 183.817 101.965 183.59 88.4452C168.556 70.379 150.689 62.5695 130.443 65.2574C130.109 69.2156 129.855 73.2675 129.587 77.56C128.492 94.9308 127.262 114.615 119.899 136.171C119.872 136.252 119.819 136.319 119.738 136.345C108.166 141.427 91.461 153.689 84.5387 162.141C88.4275 171.755 94.8153 185.181 103.261 195.05H103.234L103.221 195.064Z" fill="#472C27"/>
<path d="M220.513 189.3C220.26 189.367 219.992 189.407 219.738 189.461C217.48 189.875 215.168 189.942 212.869 189.661C209.595 189.247 206.415 188.217 203.502 186.639C201.951 185.797 200.468 184.82 199.092 183.711C198.223 183.015 197.381 182.306 196.539 181.558C186.503 172.558 179.14 159.881 173.634 146.749C174.462 143.219 175.117 139.702 175.638 136.279C178.993 133.163 182.521 130.234 186.209 127.533C182.053 99.1032 185.501 54.72 180.663 47.0844C176.52 40.5319 176.574 35.4504 166.765 33.391C162.996 32.602 164.212 29.3392 172.003 31.6526C170.186 30.3555 167.446 29.727 166.658 29.5799C164.052 29.0985 164.426 27.1862 166.311 26.7984C165.696 25.7019 166.618 24.4047 169.798 24.8059C169.745 24.1908 171.028 23.6559 173.166 24.3245C177.456 25.6751 181.959 27.0926 185.501 29.9944C189.456 33.2439 190.766 37.0417 191.929 41.8424C202.072 83.6045 230.456 108.785 237.819 157.046C240.626 175.326 233.129 186.572 220.46 189.34H220.513V189.3Z" fill="#F09947"/>
<path d="M215.648 190.116C214.7 190.116 213.764 190.049 212.815 189.942C209.488 189.527 206.281 188.484 203.354 186.88C201.79 186.024 200.28 185.048 198.89 183.924C198.022 183.229 197.167 182.494 196.325 181.758C187.465 173.801 179.727 162.06 173.339 146.856C173.313 146.789 173.313 146.736 173.339 146.669C174.141 143.165 174.823 139.648 175.344 136.238C175.344 136.171 175.397 136.118 175.437 136.064C178.765 132.975 182.239 130.074 185.901 127.399C183.977 114.053 183.696 97.2176 183.442 82.3608C183.175 65.6586 182.934 51.203 180.422 47.2314C179.446 45.6936 178.725 44.2761 178.017 42.8987C175.731 38.4457 174.101 35.2363 166.711 33.6718C165.495 33.4177 164.653 32.8828 164.466 32.2275C164.359 31.8665 164.466 31.4787 164.733 31.2246C165.348 30.6095 166.965 30.2484 169.785 30.7833C168.756 30.3688 167.7 30.0612 166.617 29.8472C165.308 29.6065 164.533 28.978 164.506 28.1489C164.506 27.4536 165.04 26.8518 165.896 26.571C165.775 26.1698 165.816 25.7285 166.056 25.3808C166.363 24.9262 167.205 24.2308 169.557 24.4582C169.624 24.3111 169.718 24.1907 169.838 24.0971C170.346 23.6959 171.495 23.4686 173.259 24.0169C177.402 25.314 182.092 26.785 185.701 29.7536C189.883 33.1904 191.126 37.2288 192.235 41.7621C196.779 60.4434 204.797 75.5141 213.31 91.4407C223.52 110.55 234.064 130.314 238.139 156.992C239.489 165.778 238.474 173.44 235.226 179.15C232.126 184.58 227.061 188.19 220.553 189.621C220.286 189.688 220.032 189.728 219.764 189.782C218.401 190.036 217.025 190.143 215.635 190.143H215.622L215.648 190.116ZM173.954 146.709C180.288 161.78 187.959 173.44 196.739 181.317C197.567 182.066 198.396 182.774 199.265 183.456C200.641 184.553 202.098 185.516 203.648 186.358C206.508 187.923 209.662 188.952 212.909 189.354C215.167 189.621 217.453 189.554 219.684 189.153C219.938 189.1 220.192 189.059 220.446 188.993C233.783 186.077 240.184 174.136 237.565 157.032C233.502 130.461 222.972 110.737 212.802 91.668C204.276 75.6879 196.231 60.6172 191.674 41.8423C190.592 37.4027 189.376 33.4845 185.34 30.1548C181.825 27.2664 177.188 25.8221 173.112 24.5384C171.468 24.0169 170.533 24.2843 170.225 24.525C170.159 24.5785 170.119 24.632 170.119 24.7122C170.119 24.8727 170.012 25.0198 169.851 25.0332H169.785C168.168 24.8326 166.978 25.0599 166.577 25.6617C166.404 25.9425 166.404 26.2902 166.577 26.5844C166.657 26.7315 166.604 26.9053 166.47 26.9989C166.444 26.9989 166.404 27.0257 166.39 27.0257C165.628 27.1861 165.107 27.6274 165.121 28.1222C165.121 28.6304 165.749 29.0583 166.738 29.2455C167.085 29.3123 170.159 29.9141 172.203 31.3717C172.324 31.4653 172.364 31.6525 172.27 31.7862C172.19 31.8932 172.07 31.9333 171.936 31.8932C167.646 30.6228 165.668 31.131 165.161 31.6258C165.04 31.7194 164.987 31.8799 165.04 32.0403C165.134 32.3613 165.655 32.8159 166.844 33.07C174.502 34.6881 176.293 38.1916 178.551 42.6045C179.246 43.9685 179.981 45.386 180.93 46.8971C183.536 51.0158 183.763 65.5249 184.043 82.3207C184.284 97.2176 184.565 114.12 186.516 127.453C186.529 127.56 186.489 127.68 186.409 127.733C182.747 130.408 179.259 133.31 175.932 136.399C175.424 139.769 174.756 143.245 173.954 146.696V146.722V146.709Z" fill="#472C27"/>
<path d="M183.747 65.7546C190.382 49.9593 188.144 33.9506 178.748 29.9983C169.352 26.0459 156.356 35.6465 149.72 51.4418C143.085 67.2371 145.323 83.2458 154.719 87.1981C164.115 91.1505 177.111 81.5499 183.747 65.7546Z" fill="#F09947"/>
<path d="M223.467 177.452C222.117 181.036 220.514 185.69 219.712 189.447C214.166 190.464 208.513 189.34 203.488 186.612C203.301 186.438 203.087 186.265 202.9 186.091C209.235 184.098 212.268 174.029 215.836 165.15C219.618 155.775 228.612 163.665 223.467 177.425V177.452Z" fill="#472C27"/>
<path d="M215.622 190.116C211.493 190.116 207.31 189.019 203.354 186.88C203.341 186.88 203.328 186.866 203.301 186.853C203.114 186.679 202.9 186.505 202.713 186.332C202.593 186.225 202.593 186.024 202.7 185.904C202.726 185.877 202.78 185.837 202.82 185.823C208.152 184.139 211.186 176.302 214.139 168.72C214.62 167.517 215.088 166.26 215.582 165.056C217.199 161.044 219.631 160.336 221.369 161.018C223.106 161.7 224.469 163.759 225.044 166.527C225.498 168.774 225.645 172.518 223.761 177.546C221.903 182.48 220.66 186.505 220.032 189.501C220.006 189.608 219.925 189.701 219.792 189.742C218.415 189.996 217.025 190.116 215.636 190.116H215.622ZM203.675 186.372C208.767 189.126 214.246 190.089 219.484 189.193C220.139 186.198 221.382 182.226 223.199 177.345C226.393 168.827 224.068 162.716 221.155 161.566C219.271 160.844 217.346 162.248 216.117 165.27C215.622 166.474 215.155 167.704 214.687 168.907C211.787 176.396 208.78 184.125 203.488 186.184C203.555 186.238 203.595 186.291 203.662 186.345L203.675 186.372Z" fill="#472C27"/>
<path d="M159.375 88.5121C157.771 88.5121 156.195 88.2045 154.725 87.5894C150.168 85.6638 147.107 80.9165 146.118 74.2571C146.092 74.0966 146.199 73.9361 146.359 73.9094C146.519 73.8826 146.68 73.9896 146.706 74.1501C147.682 80.609 150.622 85.1824 154.965 87.0277C159.402 88.8999 164.827 87.7365 170.226 83.7649C175.665 79.7531 180.436 73.3611 183.63 65.7789C190.218 50.1599 188.067 34.3002 178.833 30.3955C178.672 30.3286 178.605 30.1548 178.672 29.9943C178.739 29.8338 178.913 29.767 179.073 29.8338C183.71 31.7996 186.797 36.6538 187.746 43.5138C188.695 50.3204 187.425 58.3038 184.191 65.9929C180.944 73.6687 176.12 80.1543 170.601 84.2195C166.792 87.0277 162.943 88.4586 159.415 88.4586V88.5121H159.375Z" fill="#472C27"/>
<path d="M185.154 128.322C181.839 130.796 178.686 133.457 175.652 136.278C175.077 140.116 174.102 144.957 173.647 146.749C174.65 149.143 175.719 151.536 176.855 153.877C173.18 145.652 180.744 134.045 186.61 129.846L185.167 128.322H185.154Z" fill="#472C27"/>
<path d="M176.841 154.157C176.734 154.157 176.614 154.091 176.574 153.984C175.478 151.737 174.409 149.343 173.367 146.843C173.34 146.776 173.34 146.722 173.367 146.655C173.821 144.85 174.81 140.009 175.371 136.225C175.371 136.158 175.425 136.105 175.465 136.051C178.485 133.23 181.666 130.568 184.993 128.081C185.113 127.988 185.274 128.001 185.394 128.108L186.837 129.632C186.944 129.753 186.944 129.94 186.837 130.06L186.811 130.087C181.465 133.898 173.447 145.398 177.175 153.743C177.242 153.89 177.175 154.077 177.028 154.144C177.002 154.157 176.948 154.171 176.908 154.171H176.855L176.841 154.157ZM173.955 146.709C174.503 148.033 175.091 149.37 175.692 150.694C175.331 147.578 176.053 143.968 177.87 140.21C179.875 136.078 183.015 132.12 186.129 129.806L185.1 128.71C181.906 131.117 178.832 133.684 175.906 136.412C175.358 140.13 174.396 144.837 173.928 146.709H173.941H173.955ZM193.853 44.6907C197.969 47.5925 197.956 56.5788 191.02 60.6841C185.474 63.9604 176.694 61.6068 174.222 54.9473L193.853 44.704V44.6907Z" fill="#472C27"/>
<path d="M185.393 62.4627C183.87 62.4627 182.373 62.1952 180.943 61.6871C177.615 60.4969 175.076 58.0899 173.954 55.0677C173.9 54.9206 173.954 54.7602 174.101 54.7067L193.732 44.4634C193.826 44.4099 193.959 44.4099 194.039 44.4768C195.95 45.8274 197.073 48.5152 196.953 51.4973C196.792 55.3887 194.641 58.9457 191.193 60.9783C189.442 61.9946 187.438 62.5162 185.42 62.4894L185.393 62.4627ZM174.609 55.0945C175.718 57.8492 178.097 60.0289 181.143 61.1254C184.498 62.3156 188.119 62.0615 190.859 60.4435C194.133 58.5178 196.191 55.1346 196.338 51.4438C196.445 48.7559 195.483 46.3088 193.826 45.0518L174.595 55.0945H174.609Z" fill="#472C27"/>
<path d="M177.79 34.2468C177.79 34.2468 177.697 34.2468 177.643 34.22C174.048 32.2142 169.398 31.0508 166.966 31.1042C166.805 31.1042 166.658 30.9839 166.658 30.8234C166.658 30.663 166.778 30.5159 166.939 30.5159C169.451 30.4891 174.235 31.6525 177.91 33.7119C178.057 33.7921 178.097 33.9659 178.017 34.1264C177.964 34.22 177.857 34.2869 177.763 34.2869V34.2601L177.79 34.2468ZM182.908 31.3316C182.828 31.3316 182.761 31.3048 182.721 31.2513C179.06 28.0018 174.249 25.7419 169.825 25.1803C169.665 25.1669 169.545 25.0064 169.571 24.8459C169.585 24.6855 169.745 24.5651 169.906 24.5919C174.449 25.1669 179.38 27.4937 183.122 30.8101C183.242 30.917 183.242 31.1176 183.149 31.2246C183.082 31.2915 183.002 31.3182 182.922 31.3182H182.908V31.3316ZM189.176 140.959C189.056 140.959 188.935 140.879 188.895 140.758C184.258 127.212 183.817 102.874 183.563 88.3383C183.563 88.1778 183.683 88.0307 183.844 88.0307C184.004 88.0307 184.151 88.1511 184.151 88.3115C184.418 102.821 184.846 127.092 189.457 140.558C189.51 140.718 189.43 140.879 189.269 140.932C189.243 140.932 189.203 140.945 189.176 140.945H189.189L189.176 140.959Z" fill="#472C27"/>
<path d="M168.569 24.6052C163.25 20.8876 153.468 22.7063 151.276 27.6942C147.093 24.8726 145.022 26.3837 143.111 30.5827C140.866 35.477 140.625 41.1603 141.534 44.9848C144.394 44.1423 146.626 47.1244 146.826 51.0826C146.92 53.1553 146.987 54.3321 147.2 55.9635C147.748 60.1491 152.332 59.7747 153.762 54.9472C154.203 53.4763 154.524 51.9919 154.711 50.4675C158.68 53.0216 167.927 57.702 181.906 56.3781C210.45 53.6635 209.274 12.8642 168.582 24.6186L168.569 24.6052Z" fill="#472C27"/>
<path d="M149.82 59.1328H149.593C148.163 59.0259 147.12 57.8223 146.88 56.0037C146.653 54.3188 146.599 53.1019 146.506 51.096C146.399 48.7157 145.503 46.6564 144.18 45.7069C143.432 45.1586 142.483 44.9982 141.601 45.2656C141.441 45.3191 141.28 45.2121 141.24 45.065C140.452 41.6952 140.385 35.8514 142.844 30.4757C144.033 27.8681 145.196 26.5175 146.639 26.1163C147.895 25.7686 149.379 26.143 151.17 27.2931C152.185 25.3273 154.404 23.7628 157.33 22.9337C161.353 21.8104 165.763 22.3453 168.649 24.311C175.598 22.3185 181.759 21.7435 186.971 22.586C191.581 23.3348 195.39 25.2337 197.982 28.0821C201.791 32.2409 202.82 38.2986 200.695 43.8883C197.956 51.0425 190.94 55.8165 181.959 56.6723C180.276 56.8328 178.685 56.913 177.135 56.913C166.417 56.913 158.907 53.4094 154.978 50.9757C154.778 52.353 154.484 53.717 154.069 55.0409C153.214 57.9026 151.357 59.1596 149.847 59.1596H149.833L149.82 59.1328ZM142.483 44.5168C143.232 44.5168 143.94 44.7575 144.528 45.1988C146.011 46.2819 146.987 48.4483 147.107 51.0425C147.201 53.035 147.267 54.2519 147.468 55.9101C147.668 57.4613 148.483 58.4375 149.633 58.5445C150.916 58.6514 152.653 57.5281 153.468 54.867C153.896 53.4094 154.216 51.9385 154.404 50.4274C154.417 50.2669 154.577 50.1466 154.738 50.1733C154.791 50.1733 154.818 50.1867 154.858 50.2268C159.148 52.9682 168.355 57.3677 181.852 56.0839C190.619 55.2415 197.448 50.6146 200.094 43.6877C202.152 38.2986 201.176 32.495 197.515 28.4966C195.002 25.7552 191.314 23.9232 186.837 23.1877C181.679 22.3453 175.558 22.9337 168.636 24.9262C168.556 24.9529 168.462 24.9262 168.382 24.8727C165.642 22.9604 161.339 22.4121 157.45 23.5087C154.537 24.311 152.386 25.9023 151.53 27.8413C151.464 27.9884 151.29 28.0687 151.129 28.0018C151.129 28.0018 151.103 28.0018 151.076 27.9751C149.325 26.7849 147.895 26.3704 146.76 26.6913C145.503 27.039 144.448 28.296 143.338 30.7298C141.013 35.8113 141 41.3208 141.708 44.6371C141.949 44.5836 142.203 44.5569 142.43 44.5569L142.456 44.5034L142.483 44.5168Z" fill="#472C27"/>
<path d="M155.673 103.583C155.512 103.583 155.365 103.462 155.365 103.275C155.365 103.168 155.432 103.075 155.526 103.008C160.671 100.28 163.945 95.4657 164.773 89.4883V89.3412C164.867 88.5522 164.893 87.7632 164.893 86.9609C164.893 86.8004 165.014 86.6533 165.201 86.6533C165.361 86.6533 165.508 86.7737 165.508 86.9609C165.508 87.79 165.481 88.5923 165.401 89.3947V89.515C165.401 89.515 165.401 89.515 165.401 89.5284C164.573 95.6262 161.098 100.721 155.86 103.516C155.806 103.529 155.766 103.543 155.713 103.543H155.686L155.673 103.583Z" fill="#472C27"/>
<path d="M158.373 32.5754C136.911 49.8526 151.263 81.7324 159.054 117.464C161.299 127.68 162.582 138.084 162.889 148.541C163.063 154.639 162.809 160.737 162.114 166.794C159.562 188.311 150.889 205.401 134.024 209.091C115.221 213.21 98.8108 195.318 86.7034 168.105C82.7611 159.587 77.5359 145.024 73.4199 128.041L107.029 83.4441C116.919 86.9878 123.293 94.3828 127.102 102.634C130.269 77.7207 128.705 56.2847 135.106 39.1145C137.017 33.9928 140.064 29.8206 144.621 25.595C146.8 23.5623 148.777 24.8728 147.748 25.9293C148.203 25.5281 148.657 25.1403 149.098 24.7926C152.559 21.9577 154.15 24.7659 152.626 26.531C154.871 25.0199 157.29 26.638 154.751 29.4462C153.228 31.1044 151.945 32.9364 150.555 35.7179C152.199 33.5382 154.216 31.666 156.502 30.1951C158.787 28.7241 160.524 30.8503 158.359 32.5887H158.373V32.5754Z" fill="#F09947"/>
<path d="M86.7031 168.091C80.1416 170.057 79.8476 167.436 84.1774 162.101C85.0059 164.147 85.8345 166.139 86.7031 168.091Z" fill="#472C27"/>
<path d="M83.2024 169.041C82.2269 169.041 81.5721 168.787 81.238 168.279C80.4896 167.169 81.385 165.083 83.924 161.927C84.031 161.806 84.2047 161.78 84.3383 161.873C84.365 161.9 84.4051 161.953 84.4319 161.994C85.2337 163.999 86.0756 165.979 86.9576 167.958C87.0244 168.105 86.9576 168.292 86.8106 168.359H86.7839C85.3005 168.8 84.1111 169.027 83.2024 169.027H83.189L83.2024 169.041ZM84.071 162.689C81.3181 166.192 81.4117 167.476 81.7324 167.944C81.9997 168.345 82.9485 168.854 86.2894 167.891C85.5277 166.166 84.7793 164.427 84.071 162.676V162.689Z" fill="#472C27"/>
<path d="M119.591 136.078C119.324 136.88 119.043 137.696 118.736 138.498C101.617 146.495 80.2622 164.414 82.4405 168.653C75.772 167.182 100.08 144.65 119.591 136.078Z" fill="#472C27"/>
<path d="M82.4404 168.961H82.3736C81.3446 168.733 81.0773 168.091 81.0238 167.57C80.5027 162.274 102.259 143.366 119.471 135.81C119.618 135.744 119.805 135.81 119.872 135.971C119.899 136.038 119.899 136.118 119.872 136.198C119.591 137.001 119.324 137.83 119.017 138.632C118.99 138.712 118.936 138.779 118.856 138.806C102.954 146.254 84.7389 161.298 82.7611 167.089C82.5607 167.704 82.5339 168.198 82.7077 168.546C82.7878 168.693 82.721 168.88 82.5874 168.947C82.5339 168.961 82.4938 168.974 82.4404 168.974V168.961ZM119.083 136.626C101.47 144.596 81.1575 162.997 81.6118 167.503C81.6118 167.771 81.7722 168.025 81.986 168.172C81.9593 167.73 82.0127 167.289 82.1731 166.875C84.3781 160.429 103.675 145.238 118.482 138.284C118.669 137.749 118.883 137.188 119.07 136.626H119.083Z" fill="#472C27"/>
<path d="M130.149 64.99C128.411 85.6638 128.692 109.4 119.591 136.078C115.288 137.963 110.758 140.531 106.375 143.406C101.363 146.696 96.5792 150.333 92.0489 154.264C81.7723 163.277 76.7342 171.074 86.6901 168.091C87.4385 169.897 88.3071 171.782 89.2425 173.681C93.265 181.771 98.7441 190.29 103.074 195.358C92.4498 195.278 81.0907 194.903 69.7851 194.141C60.0965 193.512 50.4613 192.603 41.374 191.4C41.4542 178.83 42.6302 167.155 44.755 156.391C46.1983 149.009 48.2028 141.761 50.7419 134.701C55.9805 120.178 63.1835 107.835 71.7629 97.7391C76.8411 91.7215 82.6142 86.3324 88.9619 81.6922C101.484 72.5588 115.569 66.9424 130.109 65.0034H130.135L130.149 64.99Z" fill="#FDEED7"/>
<path d="M122.277 127.653H122.183C113.871 125.046 109.247 116.166 111.866 107.835C113.564 102.433 118.027 98.3543 123.546 97.124C123.747 97.0705 123.947 97.0438 124.148 97.0037C124.308 96.9769 124.468 97.0839 124.495 97.2444C124.522 97.4048 124.415 97.5653 124.255 97.592C124.067 97.6188 123.88 97.6723 123.68 97.699C115.488 99.4909 110.29 107.595 112.08 115.805C113.216 121.034 117.011 125.273 122.063 126.971C124.134 119.349 125.698 111.366 126.82 102.567C127.061 100.735 127.261 98.8758 127.448 97.0438C127.462 96.8833 127.609 96.763 127.769 96.7763C127.93 96.7897 128.05 96.9368 128.036 97.1106C127.849 98.9694 127.636 100.815 127.408 102.66C126.272 111.606 124.682 119.71 122.544 127.439C122.517 127.56 122.384 127.667 122.263 127.667L122.277 127.653ZM60.1091 147.364C59.9488 147.364 59.8018 147.244 59.8018 147.057C59.8018 146.896 59.9087 146.776 60.069 146.749C60.6838 146.682 61.2985 146.589 61.8998 146.468C65.5214 145.679 68.742 143.566 70.9337 140.558C71.0272 140.437 71.2143 140.397 71.3479 140.491C71.4816 140.584 71.5083 140.772 71.4148 140.905C69.1296 144.021 65.802 146.214 62.0335 147.03C61.4054 147.177 60.7639 147.271 60.1225 147.337H60.0958H60.1091V147.364ZM70.359 136.88C70.1987 136.88 70.0517 136.76 70.0517 136.573C70.0517 136.506 70.065 136.452 70.1185 136.399C75.1833 129.699 73.8469 120.151 67.1651 115.083C65.4546 113.786 63.4901 112.863 61.4054 112.395C61.245 112.369 61.1381 112.208 61.1782 112.048C61.2049 111.887 61.3653 111.78 61.5257 111.82C70.0249 113.773 75.3303 122.251 73.3792 130.756C72.8848 132.922 71.9226 134.968 70.5996 136.747C70.5328 136.827 70.4526 136.853 70.359 136.853V136.88ZM91.5938 154.559C82.8674 154.559 75.8114 147.458 75.8248 138.739C75.8248 130.007 82.8941 122.933 91.6206 122.946C99.024 122.946 105.439 128.121 107.015 135.383C107.603 138.057 107.47 140.865 106.668 143.473C106.655 143.54 106.601 143.593 106.548 143.633C101.55 146.91 96.7656 150.534 92.262 154.465C92.2086 154.518 92.1551 154.545 92.0749 154.545H91.5938V154.559ZM91.6339 123.561C90.5381 123.561 89.4289 123.682 88.3732 123.909C80.1813 125.701 74.9828 133.805 76.7736 142.015C78.3237 149.129 84.6848 154.131 91.9546 153.97C96.4315 150.052 101.162 146.468 106.133 143.219C106.895 140.718 107.002 138.07 106.454 135.516C104.931 128.549 98.7835 123.561 91.6606 123.548H91.6473L91.6339 123.561ZM87.2507 112.877C79.8472 112.877 73.4327 107.702 71.829 100.44C71.6419 99.531 71.5083 98.6351 71.4816 97.7124C71.4816 97.6322 71.4949 97.5653 71.5484 97.5118C76.6399 91.4808 82.4397 86.0784 88.8008 81.4248C88.8676 81.3713 88.9211 81.3579 89.0013 81.3713C97.6609 82.3475 103.888 90.1703 102.913 98.8357C102.004 106.832 95.2555 112.877 87.2239 112.877H87.2373H87.2507ZM72.0963 97.8194C72.1498 98.6618 72.2567 99.5043 72.4304 100.32C74.2211 108.517 82.3195 113.719 90.498 111.927C98.6899 110.135 103.875 102.032 102.084 93.821C100.708 87.4959 95.4827 82.7486 89.0815 81.973C82.8273 86.5598 77.121 91.882 72.0963 97.806V97.8194Z" fill="#F09947"/>
<path d="M103.101 195.666C91.9153 195.585 80.7165 195.171 69.7985 194.449C59.6555 193.78 50.1005 192.871 41.374 191.707C41.227 191.694 41.1201 191.56 41.1201 191.4C41.1869 179.137 42.3362 167.343 44.5278 156.324C45.9845 148.929 47.9757 141.654 50.5281 134.58C55.6197 120.472 62.7024 108.009 71.5892 97.5253C76.6807 91.4943 82.4806 86.0918 88.8416 81.4382C101.136 72.4653 115.409 66.6617 130.135 64.696C130.296 64.6826 130.456 64.7896 130.469 64.95V65.0169C130.135 69.042 129.868 73.1206 129.601 77.4532C129.2 83.7784 128.799 90.3175 128.077 97.1241C126.888 108.491 125.151 118.119 122.585 127.453C121.783 130.395 120.874 133.297 119.899 136.198C119.872 136.279 119.819 136.345 119.738 136.372C111.68 139.903 101.858 146.335 93.4254 153.542C85.7146 160.135 80.9972 165.858 81.7188 167.797C82.0396 168.68 83.7902 168.68 86.65 167.824C86.797 167.771 86.9574 167.851 87.0108 167.998C87.7325 169.736 88.5877 171.609 89.5365 173.521C89.5365 173.521 89.5365 173.534 89.5499 173.548C93.5055 181.518 98.9178 189.996 103.355 195.184C103.461 195.305 103.448 195.505 103.328 195.599C103.274 195.652 103.208 195.679 103.141 195.679H103.114L103.101 195.666ZM41.7081 191.146C50.3544 192.282 59.8158 193.192 69.8252 193.86C80.5027 194.569 91.4743 194.97 102.446 195.064C98.0759 189.822 92.8507 181.584 89.0154 173.842C89.0154 173.842 89.0154 173.828 89.002 173.815C88.0799 171.956 87.2514 170.151 86.5297 168.466C83.3492 169.389 81.5718 169.228 81.1175 167.985C80.1419 165.31 86.6099 158.53 92.9977 153.088C101.43 145.88 111.279 139.448 119.351 135.891C120.3 133.083 121.182 130.207 121.997 127.306C124.563 118.025 126.287 108.41 127.476 97.0706C128.184 90.2774 128.598 83.7383 128.999 77.4131C129.267 73.2142 129.521 69.2559 129.841 65.3512C115.355 67.3571 101.31 73.0805 89.2025 81.933C82.8681 86.5732 77.1084 91.9356 72.0436 97.9265C63.1968 108.344 56.1408 120.753 51.076 134.794C48.5503 141.855 46.5457 149.089 45.1158 156.458C42.9509 167.356 41.8284 179.03 41.7348 191.159L41.7081 191.146Z" fill="#472C27"/>
<path d="M66.2973 165.163C63.825 167.637 59.9095 166.019 57.3303 163.585C53.6954 160.095 51.7176 157.674 49.1651 156.551C48.1629 156.11 46.2385 155.695 44.8086 156.377C46.2519 148.996 48.2564 141.748 50.7955 134.687C51.1296 137.977 54.2433 143.045 59.1879 149.063C62.6357 153.275 70.5469 160.924 66.324 165.163H66.3107H66.2973Z" fill="#472C27"/>
<path d="M63.2902 166.701C61.1788 166.701 58.8802 165.444 57.1162 163.799C56.2342 162.943 55.419 162.154 54.7108 161.446C52.4924 159.239 50.9155 157.661 49.0312 156.832C48.2294 156.484 46.3184 155.99 44.9152 156.658C44.7682 156.725 44.5811 156.658 44.5143 156.511C44.4876 156.444 44.4876 156.391 44.501 156.324C45.9576 148.929 47.9488 141.654 50.5012 134.58C50.5681 134.42 50.7284 134.34 50.8754 134.406C50.9823 134.433 51.0491 134.554 51.0625 134.661C51.3699 137.696 54.2431 142.617 59.3747 148.875C59.8558 149.464 60.417 150.106 61.0184 150.801C64.9473 155.334 70.3195 161.526 66.4975 165.39C65.6422 166.26 64.493 166.741 63.2635 166.701H63.2769H63.2902ZM46.5723 155.722C47.5078 155.722 48.4031 155.923 49.2584 156.27C51.2362 157.14 52.8666 158.758 55.1117 161.004C55.82 161.7 56.6218 162.515 57.5038 163.344C60.0161 165.738 63.7713 167.236 66.0699 164.949C69.5177 161.486 64.346 155.522 60.564 151.175C59.9627 150.48 59.3881 149.825 58.907 149.223C54.203 143.486 51.4367 138.993 50.6616 135.811C48.3631 142.363 46.5322 149.076 45.1691 155.896C45.6101 155.776 46.0912 155.709 46.559 155.709H46.5723V155.722Z" fill="#472C27"/>
<path d="M127.863 96.228C127.77 96.228 127.689 96.1745 127.623 96.121C122.184 89.4348 120.393 80.8229 122.959 73.6285C124.335 69.7639 126.674 66.7551 129.935 64.669C130.082 64.5754 130.255 64.6155 130.349 64.7626C130.442 64.9097 130.402 65.0836 130.255 65.1772C127.128 67.183 124.856 70.0982 123.507 73.8425C121.008 80.8229 122.758 89.2208 128.077 95.7465C128.184 95.8669 128.157 96.0675 128.024 96.1611C127.97 96.2146 127.903 96.228 127.837 96.228H127.85H127.863Z" fill="#472C27"/>
<path d="M129.827 69.082C129.386 75.113 129.066 81.4515 128.558 88.0709C125.016 81.1306 125.725 73.5618 129.827 69.082Z" fill="#F09947"/>
<path d="M128.558 88.3518C128.451 88.3518 128.358 88.2849 128.291 88.1913C124.776 81.3179 125.311 73.5619 129.6 68.8681C129.707 68.7478 129.908 68.7478 130.015 68.8548C130.081 68.9216 130.108 69.0019 130.108 69.0955C129.908 71.8769 129.734 74.6718 129.534 77.6271C129.333 81.0103 129.106 84.5139 128.839 88.0843C128.839 88.2448 128.692 88.3518 128.531 88.3518H128.545H128.558ZM129.467 69.9513C126.059 74.2706 125.631 80.8632 128.344 86.9343C128.585 83.7517 128.772 80.6359 128.959 77.6003C129.119 74.9526 129.28 72.4519 129.467 69.9647V69.9513ZM127.115 102.914C127.008 102.914 126.888 102.847 126.847 102.741C122.544 93.3932 115.662 86.8273 106.936 83.6848C106.775 83.6313 106.695 83.4575 106.762 83.3104C106.815 83.1499 106.989 83.0697 107.136 83.1365C116.01 86.3192 123.012 93.0054 127.382 102.486C127.449 102.634 127.382 102.821 127.235 102.888C127.208 102.901 127.155 102.914 127.115 102.914ZM107.711 158.45C107.55 158.45 107.403 158.33 107.403 158.142C107.403 158.049 107.457 157.969 107.51 157.902C111.546 154.786 116.838 143.205 119.284 135.984C119.337 135.824 119.511 135.744 119.658 135.797C119.805 135.851 119.898 136.024 119.845 136.172C117.359 143.473 112 155.174 107.858 158.37C107.804 158.423 107.751 158.437 107.684 158.437L107.711 158.45ZM160.764 79.0713C160.604 79.0713 160.457 78.9509 160.457 78.7905C160.43 76.477 158.653 73.5619 155.325 72.4653C155.165 72.4118 155.085 72.238 155.138 72.0909C155.192 71.9438 155.365 71.8502 155.512 71.9037C158.68 72.9467 161.005 75.8352 161.058 78.7771C161.058 78.9376 160.938 79.0847 160.778 79.0847H160.764V79.0713Z" fill="#472C27"/>
<path d="M171.49 65.3502C172.09 63.793 169.669 61.4078 166.081 60.0226C162.494 58.6374 159.099 58.7768 158.498 60.334C157.898 61.8912 160.319 64.2765 163.907 65.6617C167.494 67.0469 170.889 66.9074 171.49 65.3502Z" fill="#FDEED7"/>
<path d="M168.409 66.822C166.805 66.7685 165.215 66.4609 163.718 65.8592C161.941 65.1772 160.391 64.2277 159.335 63.198C158.226 62.1015 157.798 61.0317 158.132 60.1625C158.466 59.2933 159.509 58.7851 161.059 58.7049C162.529 58.638 164.32 58.9857 166.097 59.6677C169.892 61.1387 172.351 63.6393 171.683 65.3644C171.322 66.3272 170.066 66.822 168.396 66.822H168.409ZM161.42 59.2799H161.099C159.816 59.3334 158.934 59.7212 158.694 60.3631C158.453 61.005 158.841 61.8742 159.776 62.7701C160.778 63.7463 162.262 64.6556 163.959 65.2975C167.326 66.5946 170.641 66.5278 171.162 65.1504C171.683 63.7731 169.291 61.5131 165.91 60.216C164.48 59.641 162.97 59.3334 161.433 59.2799H161.42Z" fill="#472C27"/>
<path d="M170.724 65.2097C170.93 64.2041 169.644 63.0903 167.851 62.722C166.058 62.3537 164.437 62.8704 164.231 63.876C164.025 64.8816 165.311 65.9953 167.104 66.3636C168.897 66.7319 170.518 66.2153 170.724 65.2097Z" fill="#472C27"/>
<path d="M168.127 66.6749C167.727 66.6749 167.326 66.6214 166.925 66.5545C164.947 66.14 163.584 64.9097 163.824 63.733C164.065 62.5562 165.802 61.9411 167.78 62.3556C169.758 62.7701 171.121 64.0004 170.88 65.1772C170.693 66.1133 169.571 66.6883 168.127 66.6883V66.6749ZM167.032 65.9528C168.635 66.2871 170.119 65.8592 170.292 65.0301C170.466 64.201 169.25 63.2248 167.646 62.9039C166.043 62.5829 164.559 62.9975 164.386 63.8266C164.212 64.6557 165.428 65.6318 167.032 65.9528Z" fill="#472C27"/>
<path d="M185.63 72.062C186.209 70.7034 184.136 68.5168 181 67.1781C177.863 65.8394 174.851 65.8556 174.272 67.2143C173.693 68.5729 175.766 70.7595 178.903 72.0982C182.039 73.4369 185.051 73.4207 185.63 72.062Z" fill="#FDEED7"/>
<path d="M183.095 73.3076C181.839 73.3076 180.315 72.9733 178.712 72.2913C177.162 71.6227 175.798 70.7401 174.903 69.7906C173.941 68.7743 173.593 67.7982 173.928 67.0226C174.262 66.247 175.21 65.819 176.6 65.8057C177.91 65.8057 179.5 66.1534 181.05 66.822C184.391 68.2528 186.489 70.5529 185.848 72.0907C185.5 72.8931 184.485 73.3076 183.108 73.3076H183.095ZM176.64 66.3941H176.587C175.464 66.3941 174.689 66.715 174.449 67.2499C174.208 67.7848 174.542 68.5604 175.317 69.3895C176.173 70.2721 177.456 71.1279 178.926 71.743C182.173 73.1204 184.819 72.9198 185.273 71.85C185.714 70.7936 184.017 68.7342 180.796 67.3569C179.326 66.7417 177.856 66.3941 176.64 66.3941Z" fill="#472C27"/>
<path d="M184.95 71.9194C185.163 71.0365 184.063 70.0124 182.492 69.6321C180.921 69.2518 179.474 69.6592 179.261 70.5422C179.047 71.4251 180.148 72.4492 181.719 72.8295C183.29 73.2098 184.736 72.8024 184.95 71.9194Z" fill="#472C27"/>
<path d="M182.748 73.1605C182.333 73.1605 181.919 73.107 181.518 73C179.767 72.5721 178.578 71.4221 178.832 70.3523C179.086 69.2825 180.663 68.8011 182.427 69.229C184.191 69.6569 185.367 70.8069 185.113 71.8767C184.926 72.6791 183.977 73.1605 182.761 73.1605H182.748ZM181.652 72.4384C183.042 72.7727 184.365 72.4517 184.538 71.743C184.712 71.0343 183.683 70.1651 182.293 69.8307C180.903 69.4964 179.58 69.8174 179.407 70.5261C179.233 71.2348 180.262 72.1041 181.652 72.4384Z" fill="#472C27"/>
<path d="M175.037 66.1669C173.339 70.8205 177.081 74.9392 178.551 76.7712C180.836 79.6329 176.694 84.0191 169.17 75.8351L170.092 70.5664L174.823 65.0168L175.05 66.1669H175.037Z" fill="#F09947"/>
<path d="M176.734 80.8496C174.904 80.8496 172.244 79.5926 168.97 76.0356C168.863 75.9152 168.863 75.728 168.97 75.6077C169.09 75.5007 169.278 75.5007 169.384 75.6077C174.142 80.7962 177.229 80.6223 178.298 79.713C179.073 79.0444 179.086 77.881 178.325 76.9315C178.218 76.8112 178.124 76.6641 178.004 76.5303C176.427 74.578 173.126 70.5261 174.757 66.033C174.81 65.8725 174.984 65.7923 175.131 65.8458C175.278 65.8993 175.371 66.0731 175.318 66.2202C173.794 70.4058 176.841 74.1367 178.472 76.1292C178.579 76.2763 178.699 76.41 178.792 76.5303C179.755 77.7339 179.715 79.2583 178.686 80.1409C178.138 80.5822 177.456 80.8229 176.734 80.7962V80.863V80.8496ZM128.665 209.947C124.95 209.947 121.249 209.105 117.6 207.42C112.549 205.08 107.578 201.081 102.847 195.545C102.74 195.425 102.753 195.224 102.874 195.13C102.994 195.037 103.194 195.037 103.288 195.157C113.017 206.51 123.32 211.084 133.931 208.77C144.421 206.47 152.226 198.942 157.13 186.358C163.812 169.268 164.413 143.513 158.734 117.49C157.25 110.684 155.526 103.997 153.856 97.5384C150.862 85.9713 148.043 75.046 147.094 65.2574C146.399 57.9828 146.787 51.9518 148.323 46.8168C150.074 40.9597 153.295 36.2258 158.132 32.3077C159.068 31.5589 159.161 30.7833 158.854 30.3553C158.52 29.8739 157.638 29.7402 156.622 30.4088C153.361 32.5217 150.675 35.3967 148.831 38.8201C148.751 38.9672 148.577 39.0073 148.43 38.9271C148.283 38.8468 148.243 38.673 148.323 38.5259C150.221 35.0223 152.974 32.067 156.315 29.914C157.705 29.0315 158.867 29.339 159.348 30.021C159.829 30.6896 159.749 31.7996 158.506 32.7891C149.553 40.0102 146.212 49.9994 147.669 65.2039C148.604 74.939 151.424 85.8509 154.417 97.4047C156.101 103.864 157.825 110.563 159.308 117.397C165.001 143.54 164.386 169.415 157.678 186.599C155.299 192.683 152.185 197.685 148.404 201.469C144.475 205.441 139.49 208.182 134.051 209.372C132.274 209.773 130.456 209.96 128.652 209.96V209.934L128.665 209.947ZM130.149 65.2708H130.122C129.962 65.2708 129.841 65.1103 129.855 64.9498C130.55 56.8729 131.672 47.4854 134.853 38.9939C136.724 33.9793 139.677 29.7803 144.448 25.354C145.744 24.1505 147.081 24.0034 147.789 24.418C148.19 24.6052 148.404 25.0465 148.337 25.4744C148.31 25.6349 148.15 25.7418 147.989 25.7151C147.829 25.6884 147.722 25.5279 147.749 25.3674C147.762 25.1802 147.669 25.0064 147.495 24.9395C146.974 24.6587 145.931 24.7924 144.835 25.7953C140.145 30.1548 137.245 34.2868 135.387 39.2079C132.234 47.6325 131.111 56.9799 130.416 65.0033C130.416 65.1638 130.269 65.2708 130.109 65.2708H130.135H130.149Z" fill="#472C27"/>
<path d="M139.77 37.2154C139.77 37.2154 139.69 37.2154 139.664 37.202C139.503 37.1352 139.436 36.9613 139.49 36.8276C141.828 30.6629 145.65 27.0122 148.711 24.5116C150.755 22.8267 152.199 23.0406 152.853 23.8029C153.575 24.6052 153.401 25.9692 152.453 26.8919C152.346 26.9989 152.145 26.9989 152.025 26.8919C151.905 26.7849 151.918 26.5843 152.025 26.464C152.813 25.6884 152.827 24.6854 152.386 24.204C151.931 23.6825 150.769 23.5889 149.045 24.9796C146.038 27.4402 142.296 31.024 140.011 37.0683C139.958 37.1753 139.851 37.2555 139.744 37.2555H139.757L139.77 37.2154Z" fill="#472C27"/>
<path d="M143.953 38.0714C143.793 38.0714 143.646 37.9511 143.646 37.7638C143.646 37.7104 143.646 37.6836 143.673 37.6435C145.984 32.2811 148.991 29.3927 151.397 27.0659C151.557 26.9054 151.717 26.7583 151.878 26.6112C153.308 25.2339 154.965 25.1804 155.74 25.9426C156.368 26.5577 156.515 27.8014 155.032 29.4462C153.388 31.2648 152.132 33.1236 150.889 35.651C150.809 35.7981 150.635 35.8516 150.488 35.7981C150.341 35.7179 150.287 35.544 150.341 35.3969C151.624 32.816 152.893 30.9172 154.577 29.045C155.78 27.7211 155.753 26.7984 155.326 26.3705C154.751 25.8223 153.441 25.9292 152.292 27.0392C152.132 27.1863 151.971 27.3467 151.811 27.4938C149.432 29.7805 146.479 32.6288 144.22 37.8842C144.167 37.9912 144.06 38.058 143.953 38.058V38.0714ZM81.398 168.172C81.2911 168.172 81.1975 168.105 81.1307 168.011C76.8544 159.908 71.3753 147.271 69.5177 133.069C69.5044 132.909 69.6113 132.748 69.7716 132.735C69.932 132.722 70.0924 132.828 70.1057 132.989C71.9633 147.083 77.4023 159.654 81.6653 167.731C81.7454 167.878 81.6786 168.065 81.545 168.132C81.4915 168.145 81.4514 168.158 81.398 168.158H81.4114L81.398 168.172Z" fill="#472C27"/>
<path d="M186.235 127.52C186.342 128.295 186.476 129.071 186.596 129.833C186.449 129.927 186.329 130.02 186.182 130.114C182.413 132.681 178.778 135.463 175.304 138.431C175.424 137.709 175.544 136.987 175.651 136.265C179.005 133.149 182.533 130.234 186.222 127.52H186.235Z" fill="#472C27"/>
<path d="M175.291 138.726C175.13 138.726 174.983 138.605 174.983 138.418V138.365C175.104 137.656 175.224 136.92 175.331 136.212C175.331 136.145 175.384 136.091 175.424 136.038C178.779 132.922 182.32 129.993 186.022 127.265C186.142 127.172 186.342 127.199 186.436 127.332C186.463 127.359 186.489 127.412 186.489 127.453C186.583 128.148 186.717 128.897 186.85 129.766C186.864 129.873 186.824 130.007 186.73 130.074C186.583 130.167 186.463 130.261 186.316 130.354C182.547 132.922 178.926 135.69 175.464 138.659C175.411 138.712 175.344 138.739 175.277 138.739H175.291V138.726ZM175.932 136.412C175.865 136.813 175.812 137.241 175.745 137.683C178.819 135.088 182.347 132.414 186.035 129.873C186.115 129.806 186.209 129.766 186.289 129.699C186.195 129.097 186.102 128.563 186.035 128.054C182.52 130.649 179.153 133.443 175.959 136.412H175.946H175.932Z" fill="#472C27"/>
<path d="M175.638 136.559C175.478 136.559 175.331 136.439 175.331 136.252V136.198L175.358 135.957C175.598 134.406 175.799 132.855 175.973 131.291C176.079 130.354 176.16 129.552 176.226 128.776C176.373 127.212 176.48 125.621 176.561 124.069C176.561 123.909 176.708 123.789 176.881 123.789C177.055 123.789 177.162 123.936 177.162 124.11C177.082 125.687 176.975 127.265 176.828 128.843C176.748 129.686 176.667 130.528 176.574 131.357C176.4 132.922 176.2 134.487 175.959 136.051L175.932 136.292C175.919 136.439 175.785 136.546 175.625 136.546L175.638 136.559Z" fill="#472C27"/>
<path d="M63.9446 190.183C55.2181 190.169 48.1755 183.069 48.2022 174.336C48.2022 170.325 49.739 166.487 52.4652 163.572C52.5721 163.451 52.7726 163.451 52.8795 163.572C52.9998 163.679 52.9998 163.879 52.8795 163.999C47.1465 170.124 47.4539 179.752 53.5744 185.489C59.6949 191.239 69.3034 190.918 75.0364 184.794C80.7694 178.669 80.462 169.041 74.3415 163.304C73.1922 162.208 71.8692 161.325 70.4259 160.643C70.2789 160.576 70.2255 160.389 70.2789 160.242C70.3324 160.095 70.5328 160.041 70.6798 160.095C78.5644 163.812 81.932 173.24 78.2303 181.13C76.1456 185.569 72.1098 188.779 67.3256 189.835C66.2164 190.076 65.0805 190.196 63.9179 190.196H63.9446V190.183Z" fill="#F09947"/>
<path d="M103.1 195.358C92.4762 195.278 81.1172 194.903 69.8115 194.141C73.1524 194.061 73.4063 188.645 79.3799 188.19C88.3469 187.508 83.5226 174.457 89.2422 173.668C93.2647 181.758 98.7438 190.277 103.074 195.345H103.087L103.1 195.358Z" fill="#472C27"/>
<path d="M103.101 195.665C91.9153 195.585 80.7165 195.171 69.7984 194.449C69.6381 194.449 69.4911 194.301 69.5178 194.141C69.5178 193.981 69.6648 193.833 69.8252 193.86C71.1348 193.833 71.9366 192.897 72.9255 191.694C74.2352 190.129 75.8655 188.177 79.3802 187.909C84.1643 187.548 84.8192 183.59 85.474 179.752C85.9952 176.677 86.4896 173.761 89.2292 173.387C89.3494 173.374 89.4831 173.44 89.5499 173.547C93.5055 181.517 98.9178 189.996 103.355 195.184C103.461 195.304 103.448 195.505 103.328 195.599C103.274 195.652 103.208 195.679 103.141 195.679H103.127L103.101 195.665ZM71.4422 193.954C81.6253 194.609 92.0489 194.97 102.446 195.064C98.116 189.875 92.9309 181.691 89.0822 174.015C86.944 174.457 86.5297 176.957 86.0486 179.859C85.3938 183.724 84.6588 188.11 79.4203 188.511C76.1595 188.765 74.6762 190.517 73.3799 192.095C72.7652 192.817 72.1772 193.539 71.4555 193.981L71.4422 193.954ZM162.889 148.514C163.063 154.612 162.809 160.71 162.114 166.768C158.306 156.658 153.989 149.932 147.762 141.641C141.615 133.484 146.546 128.897 152.72 135.423C155.927 138.806 159.575 142.657 162.903 148.514H162.889Z" fill="#472C27"/>
<path d="M162.114 167.075C161.994 167.075 161.874 166.995 161.847 166.888C158.012 156.738 153.695 150.025 147.521 141.815C144.087 137.255 144.087 133.898 145.624 132.614C146.973 131.478 149.74 131.839 152.934 135.209C156.141 138.632 159.803 142.483 163.143 148.367C163.17 148.421 163.17 148.461 163.17 148.514C163.344 154.626 163.09 160.737 162.395 166.821C162.382 166.968 162.275 167.062 162.141 167.075H162.114ZM147.361 132.614C146.867 132.601 146.385 132.762 145.998 133.069C144.728 134.152 144.809 137.228 147.989 141.467C153.949 149.384 158.199 155.963 161.954 165.537C162.542 159.921 162.743 154.251 162.582 148.595C159.295 142.804 155.687 138.993 152.506 135.637C150.461 133.47 148.657 132.614 147.374 132.614H147.361Z" fill="#472C27"/>
<path d="M346.693 220.231V225.807C346.693 226.248 346.506 226.663 346.185 226.984C345.677 227.478 344.982 227.746 344.274 227.732H98.2362C96.8865 227.732 95.8174 226.877 95.8174 225.834V220.257C95.8174 219.201 96.9132 218.358 98.2362 218.358H344.274C345.624 218.358 346.693 219.214 346.693 220.257V220.231Z" fill="#472C27"/>
<path d="M331.672 225.914C319.391 224.764 306.669 223.159 294.548 223.159C273.393 223.159 242.082 226.235 228.652 226.235C215.221 226.235 195.964 223.707 185.608 223.707C175.251 223.707 150.662 226.369 130.63 226.369C110.598 226.369 106.014 225.713 95.8174 225.071V225.82C95.8174 226.863 96.9132 227.719 98.2362 227.719H344.541C344.635 227.719 344.715 227.706 344.809 227.692C344.862 227.692 344.982 227.666 345.062 227.626C345.143 227.585 345.223 227.572 345.303 227.545C345.383 227.519 345.463 227.478 345.544 227.438C346.292 227.077 346.693 226.462 346.693 225.82V222.036C346.693 225.874 337.325 226.409 331.672 225.914Z" fill="#F09947"/>
<path d="M344.274 228H98.2359C96.7259 228 95.5098 227.024 95.5098 225.794V220.217C95.5098 219 96.7259 218.011 98.2359 218.011H344.274C345.784 218.011 347 218.987 347 220.217V225.794C347 227.01 345.784 228 344.274 228ZM98.2359 218.612C97.0599 218.612 96.0978 219.335 96.0978 220.231V225.807C96.0978 226.689 97.0466 227.425 98.2359 227.425H344.274C345.45 227.425 346.412 226.703 346.412 225.807V220.231C346.412 219.348 345.463 218.612 344.274 218.612H98.2359Z" fill="#472C27"/>
<path d="M155.953 214.159V214.668C155.953 216.366 157.33 217.73 159.013 217.73H273.687C275.384 217.73 276.747 216.353 276.747 214.668V214.159C276.747 212.461 275.371 211.097 273.687 211.097H159.013C157.316 211.097 155.953 212.461 155.953 214.159Z" fill="#FDEED7"/>
<path d="M273.687 218.024H159.013C157.156 218.024 155.659 216.513 155.659 214.668V214.159C155.659 212.301 157.169 210.803 159.013 210.803H273.687C275.544 210.803 277.041 212.314 277.041 214.159V214.668C277.041 216.526 275.531 218.024 273.687 218.024ZM159.013 211.405C157.49 211.405 156.261 212.635 156.247 214.159V214.668C156.247 216.192 157.477 217.422 159.013 217.422H273.687C275.21 217.422 276.453 216.192 276.453 214.668V214.159C276.453 212.635 275.224 211.405 273.687 211.405H159.013Z" fill="#472C27"/>
<path d="M344.073 133.123H229.44C227.743 133.123 226.099 134.5 225.738 136.198L209.154 214.561C208.793 216.259 209.862 217.636 211.559 217.636H326.193C327.89 217.636 329.534 216.259 329.894 214.561L346.479 136.198C346.839 134.5 345.77 133.123 344.073 133.123Z" fill="#FDEED7"/>
<path d="M326.179 217.931H211.546C210.704 217.957 209.902 217.596 209.381 216.954C208.846 216.259 208.659 215.35 208.86 214.494L225.444 136.131C225.818 134.313 227.622 132.815 229.426 132.815H344.06C344.901 132.788 345.703 133.149 346.224 133.791C346.759 134.487 346.946 135.396 346.746 136.252L330.161 214.614C329.787 216.433 327.983 217.931 326.179 217.931ZM229.44 133.417C227.89 133.417 226.353 134.687 226.019 136.252L209.434 214.614C209.261 215.296 209.408 216.005 209.835 216.58C210.263 217.088 210.891 217.356 211.546 217.342H326.179C327.729 217.342 329.266 216.072 329.6 214.507L346.184 136.145C346.358 135.463 346.211 134.754 345.783 134.179C345.356 133.671 344.728 133.403 344.073 133.417H229.44Z" fill="#472C27"/>
<path d="M263.531 176.102L264.787 171.956C265.041 170.726 266.137 169.83 267.393 169.83H290.953C291.835 169.83 292.556 170.552 292.556 171.448C292.556 171.555 292.556 171.675 292.53 171.782L291.274 175.928C291.02 177.158 289.924 178.054 288.668 178.054H265.108C264.226 178.054 263.504 177.332 263.504 176.436C263.504 176.329 263.504 176.208 263.531 176.102Z" fill="#F09947"/>
<path d="M288.641 178.335H265.081C264.507 178.335 263.972 178.081 263.611 177.64C263.251 177.198 263.104 176.61 263.237 176.035V176.008L264.493 171.863C264.801 170.499 266.003 169.522 267.393 169.522H290.953C291.528 169.522 292.063 169.777 292.423 170.218C292.784 170.659 292.931 171.248 292.798 171.823V171.849L291.541 175.995C291.234 177.359 290.031 178.335 288.641 178.335ZM263.812 176.169C263.732 176.543 263.825 176.958 264.079 177.265C264.333 177.573 264.694 177.747 265.095 177.747H288.655C289.777 177.747 290.739 176.958 290.967 175.861V175.834L292.223 171.689C292.303 171.314 292.209 170.9 291.956 170.592C291.702 170.285 291.341 170.111 290.94 170.111H267.38C266.257 170.111 265.295 170.9 265.068 171.996V172.023L263.812 176.169Z" fill="#472C27"/>
</g>
<defs>
<clipPath id="clip0_543_6953">
<rect width="347" height="228" fill="white"/>
</clipPath>
</defs>
</svg>
