<svg width="506" height="471" viewBox="0 0 506 471" fill="none" xmlns="http://www.w3.org/2000/svg">
<g clip-path="url(#clip0_543_10593)">
<path d="M105.964 347.808V359.325C105.964 360.502 94.0545 361.462 79.3584 361.462C78.1828 361.462 77.0071 361.462 75.8532 361.462C62.8118 361.331 52.7314 360.437 52.7314 359.346V347.83H105.964V347.808Z" fill="#F09947"/>
<path d="M79.3368 362.007C78.1394 362.007 76.9855 362.007 75.8316 362.007C69.4742 361.942 63.6175 361.68 59.3285 361.309C57.1948 361.113 55.5402 360.895 54.3863 360.655C53.0146 360.371 52.1655 360.044 52.1655 359.346V347.83C52.1655 347.524 52.405 347.263 52.7316 347.263H105.964C106.269 347.263 106.53 347.503 106.53 347.83V359.346C106.53 360.088 105.55 360.437 103.983 360.72C102.633 360.982 100.673 361.2 98.213 361.397C93.162 361.789 86.478 362.029 79.3586 362.029L79.3368 362.007ZM53.2977 359.15C54.3645 359.804 61.854 360.72 75.8533 360.873C77.0072 360.873 78.1611 360.873 79.3368 360.873C94.7078 360.873 104.157 359.892 105.398 359.128V348.353H53.2977V359.128V359.15Z" fill="#472C27"/>
<path d="M79.3367 349.946C94.0303 349.946 105.942 348.989 105.942 347.808C105.942 346.627 94.0303 345.67 79.3367 345.67C64.643 345.67 52.7314 346.627 52.7314 347.808C52.7314 348.989 64.643 349.946 79.3367 349.946Z" fill="#472C27"/>
<path d="M79.3368 350.491C72.2174 350.491 65.5117 350.273 60.4824 349.858C58.0222 349.662 56.0845 349.422 54.7128 349.182C53.1453 348.877 52.1655 348.55 52.1655 347.808C52.1655 347.067 53.1453 346.739 54.7128 346.434C56.0627 346.172 58.0222 345.954 60.4824 345.758C65.5335 345.365 72.2174 345.125 79.3368 345.125C86.4562 345.125 93.162 345.343 98.1913 345.758C100.651 345.954 102.589 346.194 103.961 346.434C105.528 346.739 106.508 347.067 106.508 347.808C106.508 348.55 105.528 348.877 103.961 349.182C102.611 349.444 100.651 349.662 98.1913 349.858C93.1402 350.251 86.4562 350.491 79.3368 350.491ZM53.6896 347.808C55.9321 348.528 65.098 349.379 79.3368 349.379C93.5756 349.379 102.742 348.528 104.984 347.808C102.742 347.088 93.5756 346.238 79.3368 346.238C65.098 346.238 55.9321 347.088 53.6896 347.808Z" fill="#472C27"/>
<path d="M65.1413 361.44C64.8365 361.44 64.5752 361.2 64.5752 360.873V349.618C64.5752 349.313 64.8147 349.051 65.1413 349.051C65.4678 349.051 65.7073 349.291 65.7073 349.618V360.873C65.7073 361.179 65.4678 361.44 65.1413 361.44ZM79.3365 362.007C79.0317 362.007 78.7705 361.767 78.7705 361.44V349.924C78.7705 349.618 79.0099 349.357 79.3365 349.357C79.6631 349.357 79.9026 349.597 79.9026 349.924V361.44C79.9026 361.746 79.6631 362.007 79.3365 362.007ZM93.5536 361.331C93.2487 361.331 92.9875 361.091 92.9875 360.764V349.618C92.9875 349.313 93.227 349.051 93.5536 349.051C93.8801 349.051 94.1196 349.291 94.1196 349.618V360.764C94.1196 361.069 93.8801 361.331 93.5536 361.331Z" fill="#472C27"/>
<path d="M98.8006 336.292V347.808C98.8006 348.877 88.7637 349.771 75.7659 349.924C74.5903 349.924 73.3928 349.924 72.1954 349.924C71.847 349.924 71.5204 349.924 71.1721 349.924C69.1037 349.924 67.079 349.902 65.1413 349.858C60.3297 349.749 56.0406 349.531 52.7313 349.248C48.2898 348.877 45.5684 348.353 45.5684 347.808V336.292H98.8006Z" fill="#F09947"/>
<path d="M72.1955 350.491C71.8472 350.491 71.4988 350.491 71.1722 350.491C69.191 350.491 67.1662 350.469 65.1414 350.425C60.3734 350.316 56.0843 350.12 52.6879 349.815C50.4236 349.618 48.6383 349.4 47.3756 349.16C45.9169 348.877 45.0024 348.55 45.0024 347.83V336.313C45.0024 336.008 45.2419 335.746 45.5685 335.746H98.8007C99.1055 335.746 99.3668 335.986 99.3668 336.313V347.83C99.3668 348.528 98.5177 348.855 97.1461 349.138C95.9922 349.378 94.3375 349.596 92.2038 349.793C87.9366 350.185 82.1017 350.425 75.7661 350.491C74.6557 350.491 73.5018 350.491 72.1737 350.491H72.1955ZM46.1346 347.633C46.4394 347.786 47.7022 348.266 52.775 348.702C56.1279 348.986 60.4169 349.204 65.1414 349.313C67.1444 349.357 69.1692 349.378 71.1505 349.378C71.4988 349.378 71.8254 349.378 72.1737 349.378C73.48 349.378 74.6557 349.378 75.7443 349.378C89.7001 349.226 97.1461 348.31 98.2347 347.655V336.88H46.1346V347.655V347.633Z" fill="#472C27"/>
<path d="M72.1956 338.429C86.8892 338.429 98.8008 337.472 98.8008 336.291C98.8008 335.111 86.8892 334.154 72.1956 334.154C57.5019 334.154 45.5903 335.111 45.5903 336.291C45.5903 337.472 57.5019 338.429 72.1956 338.429Z" fill="#472C27"/>
<path d="M72.1957 338.996C65.0763 338.996 58.3706 338.778 53.3413 338.363C50.881 338.167 48.9434 337.927 47.5717 337.687C46.0041 337.382 45.0244 337.055 45.0244 336.313C45.0244 335.572 46.0041 335.223 47.5717 334.939C48.9216 334.677 50.881 334.459 53.3413 334.263C58.3923 333.87 65.0763 333.63 72.1957 333.63C79.3151 333.63 86.0208 333.848 91.0501 334.263C93.5104 334.459 95.4481 334.699 96.8197 334.939C98.3873 335.244 99.367 335.572 99.367 336.313C99.367 337.055 98.3873 337.382 96.8197 337.687C95.4698 337.949 93.5104 338.167 91.0501 338.363C85.9991 338.756 79.3151 338.996 72.1957 338.996ZM46.5267 336.291C48.7692 337.011 57.9351 337.862 72.1739 337.862C86.4127 337.862 95.5787 337.011 97.8212 336.291C95.5787 335.572 86.4127 334.721 72.1739 334.721C57.9351 334.721 48.7692 335.572 46.5267 336.291Z" fill="#472C27"/>
<path d="M54.4515 324.797V336.313C54.4515 337.491 66.3607 338.451 81.0567 338.451C95.7527 338.451 107.662 337.491 107.662 336.313V324.797H54.4297H54.4515Z" fill="#F09947"/>
<path d="M81.0565 338.996C73.9371 338.996 67.2314 338.778 62.2021 338.363C59.7419 338.167 57.8042 337.927 56.4326 337.687C54.865 337.382 53.8853 337.055 53.8853 336.313V324.797C53.8853 324.491 54.1247 324.229 54.4513 324.229H107.684C107.988 324.229 108.25 324.469 108.25 324.797V336.313C108.25 337.055 107.27 337.382 105.702 337.687C104.352 337.949 102.393 338.167 99.9328 338.363C94.8817 338.756 88.1977 338.996 81.0783 338.996H81.0565ZM54.9956 336.139C56.2366 336.88 65.6856 337.884 81.0565 337.884C96.4275 337.884 105.876 336.902 107.117 336.139V325.364H55.0174V336.139H54.9956Z" fill="#472C27"/>
<path d="M81.0569 326.934C95.7505 326.934 107.662 325.977 107.662 324.797C107.662 323.616 95.7505 322.659 81.0569 322.659C66.3632 322.659 54.4517 323.616 54.4517 324.797C54.4517 325.977 66.3632 326.934 81.0569 326.934Z" fill="#472C27"/>
<path d="M81.0565 327.48C73.9371 327.48 67.2314 327.262 62.2021 326.847C59.7419 326.651 57.8042 326.411 56.4326 326.171C54.865 325.866 53.8853 325.538 53.8853 324.797C53.8853 324.055 54.865 323.728 56.4326 323.423C57.7824 323.161 59.7419 322.943 62.2021 322.747C67.2532 322.354 73.9371 322.114 81.0565 322.114C88.1759 322.114 94.8817 322.332 99.911 322.747C102.371 322.943 104.309 323.183 105.681 323.423C107.248 323.728 108.228 324.055 108.228 324.797C108.228 325.538 107.248 325.866 105.681 326.171C104.331 326.433 102.371 326.651 99.911 326.847C94.8599 327.24 88.1759 327.48 81.0565 327.48ZM55.4093 324.797C57.6518 325.517 66.8177 326.367 81.0565 326.367C95.2953 326.367 104.461 325.517 106.704 324.797C104.461 324.077 95.2953 323.226 81.0565 323.226C66.8177 323.226 57.6518 324.077 55.4093 324.797Z" fill="#472C27"/>
<path d="M66.8615 338.429C66.5567 338.429 66.2954 338.189 66.2954 337.862V326.607C66.2954 326.302 66.5349 326.04 66.8615 326.04C67.1881 326.04 67.4275 326.28 67.4275 326.607V337.862C67.4275 338.167 67.1881 338.429 66.8615 338.429ZM81.0567 338.996C80.7519 338.996 80.4907 338.756 80.4907 338.429V326.913C80.4907 326.607 80.7302 326.345 81.0567 326.345C81.3833 326.345 81.6228 326.585 81.6228 326.913V338.429C81.6228 338.734 81.3833 338.996 81.0567 338.996ZM95.252 338.298C94.9472 338.298 94.6859 338.058 94.6859 337.731V326.585C94.6859 326.28 94.9254 326.018 95.252 326.018C95.5786 326.018 95.8181 326.258 95.8181 326.585V337.731C95.8181 338.036 95.5786 338.298 95.252 338.298Z" fill="#472C27"/>
<path d="M37.1644 313.28V324.797C37.1644 325.975 49.0736 326.934 63.7696 326.934C78.4656 326.934 90.3748 325.975 90.3748 324.797V313.28H37.1426H37.1644Z" fill="#F09947"/>
<path d="M63.7914 327.48C56.672 327.48 49.9663 327.262 44.937 326.847C42.4767 326.651 40.5391 326.411 39.1674 326.171C37.5999 325.866 36.6201 325.538 36.6201 324.797V313.28C36.6201 312.975 36.8596 312.713 37.1862 312.713H90.4184C90.7232 312.713 90.9845 312.953 90.9845 313.28V324.797C90.9845 325.538 90.0047 325.866 88.4372 326.171C87.0873 326.433 85.1278 326.651 82.6676 326.847C77.6165 327.24 70.9326 327.48 63.8132 327.48H63.7914ZM37.7305 324.622C38.9715 325.364 48.4205 326.367 63.7914 326.367C79.1623 326.367 88.6113 325.386 89.8523 324.622V313.847H37.7523V324.622H37.7305Z" fill="#472C27"/>
<path d="M63.7917 315.418C78.4854 315.418 90.397 314.461 90.397 313.28C90.397 312.1 78.4854 311.143 63.7917 311.143C49.0981 311.143 37.1865 312.1 37.1865 313.28C37.1865 314.461 49.0981 315.418 63.7917 315.418Z" fill="#472C27"/>
<path d="M63.7914 315.963C56.672 315.963 49.9663 315.745 44.937 315.331C42.4767 315.134 40.5391 314.894 39.1674 314.654C37.5999 314.349 36.6201 314.022 36.6201 313.28C36.6201 312.539 37.5999 312.211 39.1674 311.906C40.5173 311.644 42.4767 311.426 44.937 311.23C49.988 310.837 56.672 310.597 63.7914 310.597C70.9108 310.597 77.6165 310.816 82.6458 311.23C85.1061 311.426 87.0438 311.666 88.4154 311.906C89.983 312.211 90.9627 312.539 90.9627 313.28C90.9627 314.022 89.983 314.349 88.4154 314.654C87.0655 314.916 85.1061 315.134 82.6458 315.331C77.5948 315.723 70.9108 315.963 63.7914 315.963ZM38.1224 313.28C40.3649 314 49.5308 314.851 63.7696 314.851C78.0084 314.851 87.1744 314 89.4169 313.28C87.1744 312.56 78.0084 311.71 63.7696 311.71C49.5308 311.71 40.3649 312.56 38.1224 313.28Z" fill="#472C27"/>
<path d="M45.5686 301.786V313.302C45.5686 314.48 57.4779 315.44 72.1739 315.44C86.8699 315.44 98.7791 314.48 98.7791 313.302V301.786H45.5469H45.5686Z" fill="#F09947"/>
<path d="M72.1957 315.963C65.0763 315.963 58.3706 315.745 53.3413 315.33C50.881 315.134 48.9434 314.894 47.5717 314.654C46.0041 314.349 45.0244 314.022 45.0244 313.28V301.764C45.0244 301.458 45.2639 301.197 45.5905 301.197H98.8227C99.1275 301.197 99.3888 301.436 99.3888 301.764V313.28C99.3888 314.022 98.409 314.349 96.8415 314.654C95.4916 314.916 93.5321 315.134 91.0719 315.33C86.0208 315.723 79.3369 315.963 72.2175 315.963H72.1957ZM46.1348 313.127C47.3758 313.869 56.8248 314.872 72.1957 314.872C87.5666 314.872 97.0156 313.891 98.2566 313.127V302.353H46.1566V313.127H46.1348Z" fill="#472C27"/>
<path d="M72.1956 303.923C86.8892 303.923 98.8008 302.966 98.8008 301.785C98.8008 300.605 86.8892 299.648 72.1956 299.648C57.5019 299.648 45.5903 300.605 45.5903 301.785C45.5903 302.966 57.5019 303.923 72.1956 303.923Z" fill="#472C27"/>
<path d="M72.1957 304.468C65.0763 304.468 58.3706 304.25 53.3413 303.836C50.881 303.639 48.9434 303.399 47.5717 303.16C46.0041 302.854 45.0244 302.527 45.0244 301.785C45.0244 301.044 46.0041 300.717 47.5717 300.411C48.9216 300.149 50.881 299.931 53.3413 299.735C58.3923 299.342 65.0763 299.103 72.1957 299.103C79.3151 299.103 86.0208 299.321 91.0501 299.735C93.5104 299.931 95.4481 300.171 96.8197 300.411C98.3873 300.717 99.367 301.044 99.367 301.785C99.367 302.527 98.3873 302.854 96.8197 303.16C95.4698 303.421 93.5104 303.639 91.0501 303.836C85.9991 304.228 79.3151 304.468 72.1957 304.468ZM46.5267 301.785C48.7692 302.505 57.9351 303.356 72.1739 303.356C86.4127 303.356 95.5787 302.505 97.8212 301.785C95.5787 301.066 86.4127 300.215 72.1739 300.215C57.9351 300.215 48.7692 301.066 46.5267 301.785Z" fill="#472C27"/>
<path d="M41.5623 290.269V301.786C41.5623 302.963 53.4715 303.923 68.1675 303.923C82.8635 303.923 94.7727 302.963 94.7727 301.786V290.269H41.5405H41.5623Z" fill="#F09947"/>
<path d="M68.1679 304.468C61.0485 304.468 54.3427 304.25 49.3134 303.836C46.8532 303.64 44.9155 303.4 43.5439 303.16C41.9763 302.854 40.9966 302.527 40.9966 301.786V290.269C40.9966 289.964 41.2361 289.702 41.5627 289.702H94.7949C95.0997 289.702 95.3609 289.942 95.3609 290.269V301.786C95.3609 302.527 94.3812 302.854 92.8136 303.16C91.4638 303.421 89.5043 303.64 87.0441 303.836C81.993 304.228 75.309 304.468 68.1896 304.468H68.1679ZM42.1287 301.611C43.3697 302.353 52.8187 303.356 68.1896 303.356C83.5606 303.356 93.0096 302.374 94.2506 301.611V290.836H42.1505V301.611H42.1287Z" fill="#472C27"/>
<path d="M68.1677 292.406C82.8614 292.406 94.7729 291.449 94.7729 290.269C94.7729 289.088 82.8614 288.131 68.1677 288.131C53.4741 288.131 41.5625 289.088 41.5625 290.269C41.5625 291.449 53.4741 292.406 68.1677 292.406Z" fill="#472C27"/>
<path d="M68.1679 292.952C61.0485 292.952 54.3427 292.734 49.3134 292.319C46.8532 292.123 44.9155 291.883 43.5439 291.643C41.9763 291.338 40.9966 291.011 40.9966 290.269C40.9966 289.527 41.9763 289.2 43.5439 288.895C44.8937 288.633 46.8532 288.415 49.3134 288.219C54.3645 287.826 61.0485 287.586 68.1679 287.586C75.2873 287.586 81.993 287.804 87.0223 288.219C89.4825 288.415 91.4202 288.655 92.7919 288.895C94.3594 289.2 95.3392 289.527 95.3392 290.269C95.3392 291.011 94.3594 291.36 92.7919 291.643C91.442 291.905 89.4825 292.123 87.0223 292.319C81.9712 292.712 75.2873 292.952 68.1679 292.952ZM42.5206 290.269C44.7631 290.989 53.9291 291.839 68.1679 291.839C82.4067 291.839 91.5726 290.989 93.8151 290.269C91.5726 289.549 82.4067 288.699 68.1679 288.699C53.9291 288.699 44.7631 289.549 42.5206 290.269Z" fill="#472C27"/>
<path d="M45.5686 278.752V290.269C45.5686 291.447 57.4779 292.407 72.1739 292.407C86.8699 292.407 98.7791 291.447 98.7791 290.269V278.752H45.5469H45.5686Z" fill="#F09947"/>
<path d="M72.1957 292.952C65.0763 292.952 58.3706 292.734 53.3413 292.319C50.881 292.123 48.9434 291.883 47.5717 291.643C46.0041 291.338 45.0244 291.011 45.0244 290.269V278.752C45.0244 278.447 45.2639 278.185 45.5905 278.185H98.8227C99.1275 278.185 99.3888 278.425 99.3888 278.752V290.269C99.3888 291.011 98.409 291.338 96.8415 291.643C95.4916 291.905 93.5321 292.123 91.0719 292.319C86.0208 292.712 79.3369 292.952 72.2175 292.952H72.1957ZM46.1348 290.094C47.3758 290.836 56.8248 291.839 72.1957 291.839C87.5666 291.839 97.0156 290.858 98.2566 290.094V279.319H46.1566V290.094H46.1348Z" fill="#472C27"/>
<path d="M72.1956 280.89C86.8892 280.89 98.8008 279.933 98.8008 278.752C98.8008 277.572 86.8892 276.615 72.1956 276.615C57.5019 276.615 45.5903 277.572 45.5903 278.752C45.5903 279.933 57.5019 280.89 72.1956 280.89Z" fill="#472C27"/>
<path d="M72.1957 281.435C65.0763 281.435 58.3706 281.217 53.3413 280.803C50.881 280.606 48.9434 280.366 47.5717 280.127C46.0041 279.821 45.0244 279.494 45.0244 278.752C45.0244 278.011 46.0041 277.684 47.5717 277.378C48.9216 277.117 50.881 276.898 53.3413 276.702C58.3923 276.31 65.0763 276.07 72.1957 276.07C79.3151 276.07 86.0208 276.288 91.0501 276.702C93.5104 276.898 95.4481 277.138 96.8197 277.378C98.3873 277.684 99.367 278.011 99.367 278.752C99.367 279.494 98.3873 279.821 96.8197 280.127C95.4698 280.388 93.5104 280.606 91.0501 280.803C85.9991 281.195 79.3151 281.435 72.1957 281.435ZM46.5267 278.752C48.7692 279.472 57.9351 280.323 72.1739 280.323C86.4127 280.323 95.5787 279.472 97.8212 278.752C95.5787 278.033 86.4127 277.182 72.1739 277.182C57.9351 277.182 48.7692 278.033 46.5267 278.752Z" fill="#472C27"/>
<path d="M47.8548 267.258V278.774C47.8548 279.952 59.764 280.912 74.46 280.912C89.156 280.912 101.065 279.952 101.065 278.774V267.258H47.833H47.8548Z" fill="#F09947"/>
<path d="M74.4813 281.435C67.3619 281.435 60.6562 281.217 55.6269 280.803C53.1667 280.606 51.229 280.366 49.8574 280.126C48.2898 279.821 47.3101 279.494 47.3101 278.752V267.236C47.3101 266.93 47.5495 266.669 47.8761 266.669H101.108C101.413 266.669 101.674 266.909 101.674 267.236V278.752C101.674 279.494 100.695 279.821 99.1271 280.126C97.7772 280.388 95.8178 280.606 93.3576 280.803C88.3065 281.195 81.6225 281.435 74.5031 281.435H74.4813ZM48.4204 278.6C49.6614 279.341 59.1104 280.345 74.4813 280.345C89.8523 280.345 99.3013 279.363 100.542 278.6V267.825H48.4422V278.6H48.4204Z" fill="#472C27"/>
<path d="M74.4817 269.395C89.1753 269.395 101.087 268.438 101.087 267.258C101.087 266.077 89.1753 265.12 74.4817 265.12C59.788 265.12 47.8765 266.077 47.8765 267.258C47.8765 268.438 59.788 269.395 74.4817 269.395Z" fill="#472C27"/>
<path d="M74.4813 269.941C67.3619 269.941 60.6562 269.722 55.6269 269.308C53.1667 269.112 51.229 268.872 49.8574 268.632C48.2898 268.327 47.3101 267.999 47.3101 267.258C47.3101 266.516 48.2898 266.189 49.8574 265.884C51.2072 265.622 53.1667 265.404 55.6269 265.207C60.678 264.815 67.3619 264.575 74.4813 264.575C81.6007 264.575 88.3065 264.793 93.3358 265.207C95.796 265.404 97.7337 265.644 99.1053 265.884C100.673 266.189 101.653 266.516 101.653 267.258C101.653 267.999 100.673 268.327 99.1053 268.632C97.7555 268.894 95.796 269.112 93.3358 269.308C88.2847 269.701 81.6007 269.941 74.4813 269.941ZM48.8341 267.258C51.0766 267.978 60.2425 268.828 74.4813 268.828C88.7201 268.828 97.8861 267.978 100.129 267.258C97.8861 266.538 88.7201 265.687 74.4813 265.687C60.2425 265.687 51.0766 266.538 48.8341 267.258Z" fill="#472C27"/>
<path d="M74.4814 281.435C74.1766 281.435 73.9153 281.195 73.9153 280.868V269.352C73.9153 269.046 74.1548 268.785 74.4814 268.785C74.808 268.785 75.0475 269.025 75.0475 269.352V280.868C75.0475 281.174 74.808 281.435 74.4814 281.435ZM60.1337 281.13C59.8289 281.13 59.5677 280.89 59.5677 280.563V269.374C59.5677 269.068 59.8072 268.806 60.1337 268.806C60.4603 268.806 60.6998 269.046 60.6998 269.374V280.563C60.6998 280.868 60.4603 281.13 60.1337 281.13ZM88.546 281.13C88.2412 281.13 87.98 280.89 87.98 280.563V269.374C87.98 269.068 88.2194 268.806 88.546 268.806C88.8726 268.806 89.1121 269.046 89.1121 269.374V280.563C89.1121 280.868 88.8726 281.13 88.546 281.13ZM75.853 361.419C62.8117 361.288 52.7313 360.393 52.7313 359.303V349.248C48.2898 348.877 45.5684 348.353 45.5684 347.808V340.654L49.0083 337.339L50.0969 336.292L51.4903 334.961L54.4513 332.126L59.8725 326.913L60.6345 326.171L61.2223 325.604L61.4836 326.236L61.7666 326.913L64.7711 334.263L65.5985 336.313L66.3169 338.08L66.4476 338.386L69.4956 345.845L70.3012 347.83L71.1285 349.858L71.1721 349.967L75.853 361.462V361.419Z" fill="#472C27"/>
<path d="M129.368 410.124L94.3155 378.126C91.0933 375.203 92.0948 369.838 104.657 369.838H163.354L129.346 410.124H129.368Z" fill="#472C27"/>
<path d="M129.368 410.93C129.172 410.93 128.976 410.865 128.823 410.712L93.7706 378.714C92.1377 377.209 91.5499 375.29 92.2248 373.589C92.878 371.887 95.3817 369.008 104.678 369.008H163.375C163.832 369.008 164.181 369.379 164.181 369.815C164.181 370.012 164.116 370.186 163.985 370.339L129.977 410.625C129.825 410.799 129.585 410.908 129.346 410.908L129.368 410.93ZM104.657 370.644C98.6693 370.644 94.5762 371.975 93.7271 374.178C93.3134 375.246 93.7271 376.49 94.8592 377.515L129.281 408.945L161.59 370.644H104.635H104.657ZM2.26345 99.2859C-0.327399 98.1735 -0.632205 92.3061 0.978913 83.5379C2.80775 73.6136 7.05326 60.025 13.2147 45.4984C19.6156 30.383 26.7133 17.4051 32.7223 9.24752C37.5774 2.61679 41.7358 -0.873071 44.1961 0.173886C47.0046 1.37353 47.1353 8.15694 45.0452 18.1248C43.0422 27.8092 38.9491 40.5036 33.2448 53.9831C27.0181 68.6842 20.1599 81.3131 14.2598 89.5143C9.18691 96.603 4.83253 100.355 2.26345 99.264V99.2859Z" fill="#472C27"/>
<path d="M224.751 76.1661C223.075 77.562 221.376 78.8925 219.7 80.2012C198.995 96.1673 176.657 106.048 138.251 106.942C110.797 107.575 52.0347 105.219 14.2823 89.5366C14.217 89.5148 14.1734 89.493 14.1081 89.4712C9.57958 87.5954 5.18166 85.6105 1.00146 83.5384C2.80853 73.6141 7.07582 60.0255 13.2373 45.499C18.3319 33.4808 23.8619 22.8149 28.9348 14.8536C30.2411 12.8033 31.5256 10.9275 32.7448 9.24805C36.8162 12.4325 40.9311 15.3989 45.0895 18.169C77.6602 39.937 104.396 61.814 136.662 41.6819L136.923 41.5292C160.655 26.5665 251.334 42.9034 270.624 54.5726C286.823 64.366 234.94 67.834 224.794 76.1879L224.751 76.1661Z" fill="#F09947"/>
<path d="M136.64 41.6601C134.332 45.15 131.241 48.7489 126.995 51.2572C124.274 52.8713 115.217 55.9249 112.082 55.5541C98.975 54.0055 85.3022 52.2824 74.351 45.2154C71.0852 43.0997 68.1242 40.5477 64.7496 38.6283C60.7 36.2944 56.1279 34.8985 52.2308 32.3684C46.0258 28.3332 41.9762 21.7243 35.6406 17.8418C33.7247 16.664 31.2427 15.8352 28.9131 14.8536C30.2194 12.8033 31.5039 10.9275 32.7232 9.24805C36.7945 12.4325 40.9094 15.3989 45.0678 18.169C77.6385 39.937 104.374 61.814 136.64 41.6819V41.6601Z" fill="#FEF8EE"/>
<path d="M130.914 107.837C109.882 107.837 52.4264 106.266 13.9555 90.2784L13.7814 90.2129C9.14396 88.2935 4.7025 86.2868 0.631156 84.2583C0.304578 84.1057 0.130403 83.7349 0.195718 83.3859C2.08987 73.069 6.5531 59.1532 12.4751 45.1719C18.6365 30.58 25.7994 17.2967 32.0697 8.74654C32.331 8.37574 32.8535 8.3103 33.2019 8.57204C37.1861 11.6911 41.2792 14.6575 45.4812 17.4494C48.1591 19.2379 50.8153 21.0483 53.3844 22.7932C82.2321 42.3582 107.139 59.2622 136.422 40.8096C151.38 31.387 189.698 35.1604 205.461 37.2325C233.568 40.9187 261.132 47.8984 270.972 53.8311C273.563 55.4016 274.695 56.9284 274.434 58.5643C273.825 62.5558 264.724 65.0205 249.854 68.5976C239.665 71.0405 229.105 73.5925 225.23 76.777C223.553 78.1511 221.855 79.5034 220.157 80.8339C196.404 99.1557 172.672 106.942 138.229 107.749C137.054 107.771 134.506 107.815 130.892 107.815L130.914 107.837ZM1.9157 83.0587C5.81286 84.9563 10.0148 86.8539 14.4345 88.6861L14.6087 88.7515C59.3934 107.357 130.304 106.288 138.251 106.092C172.324 105.307 195.772 97.607 219.221 79.5252C220.919 78.2165 222.595 76.8642 224.25 75.4901C228.43 72.0438 239.142 69.4701 249.527 66.9835C260.239 64.4098 272.388 61.487 272.888 58.2807C273.063 57.1901 271.517 56.0123 270.189 55.2053C260.522 49.3598 233.242 42.4673 205.308 38.8248C172.324 34.5061 147.548 35.7275 137.337 42.1619C128.105 47.9856 119.31 50.4067 110.731 50.4067C91.2674 50.4067 72.8702 37.9087 52.5135 24.1019C49.9444 22.357 47.2883 20.5466 44.6103 18.7581C40.6043 16.097 36.7071 13.2834 32.8971 10.317C26.8009 18.7799 19.9428 31.6269 13.9773 45.739C8.22954 59.3495 3.85339 72.8727 1.9157 83.0151V83.0587Z" fill="#472C27"/>
<path d="M219.7 80.2014C198.995 96.1675 176.657 106.048 138.252 106.942C110.797 107.575 52.035 105.219 14.2826 89.5367C14.2173 89.5149 14.1737 89.4931 14.1084 89.4713C15.9808 89.2314 17.8749 88.8606 19.7909 88.3589C26.7579 86.5049 33.7684 83.8221 40.9531 84.4982C50.511 85.4143 59.1762 92.2196 68.734 91.3253C76.0711 90.6273 82.4503 85.4361 89.7874 84.8472C100.673 83.953 109.556 93.0266 119.68 97.1054C135.116 103.343 152.621 97.7161 167.927 91.1508C183.232 84.5855 199.278 76.9296 215.759 79.3289C217.066 79.5252 218.394 79.7869 219.657 80.2232L219.7 80.2014Z" fill="#472C27"/>
<path d="M130.914 107.837C109.883 107.837 52.4268 106.266 13.9559 90.2783L13.7818 90.2128C13.3681 90.0383 13.1722 89.5585 13.3463 89.1441C13.4552 88.8823 13.7165 88.686 13.9995 88.6642C15.8501 88.4243 17.6789 88.0753 19.5731 87.5736C20.9447 87.2028 22.3163 86.8102 23.6662 86.4176C29.2833 84.8035 35.0964 83.1241 41.0184 83.6693C45.3074 84.0838 49.4223 85.6324 53.4066 87.1592C58.5883 89.1222 63.4652 90.9762 68.6469 90.4964C72.1522 90.1692 75.5486 88.7296 78.8361 87.3119C82.2978 85.8287 85.8684 84.3237 89.722 83.9965C97.1898 83.3858 103.765 87.2901 110.122 91.0853C113.323 92.9829 116.632 94.9678 120.007 96.3201C135.291 102.493 152.665 96.7781 167.644 90.3655C168.732 89.9075 169.821 89.4276 170.909 88.9478C185.409 82.6878 200.388 76.2098 215.934 78.4782C217.501 78.6963 218.829 79.0017 219.983 79.4161C220.419 79.5688 220.636 80.0268 220.484 80.463C220.44 80.6157 220.331 80.7466 220.201 80.8338C196.448 99.1556 172.716 106.942 138.273 107.749C137.098 107.771 134.55 107.815 130.936 107.815L130.914 107.837ZM17.1346 89.7984C62.0065 107.335 130.435 106.31 138.23 106.113C171.671 105.35 194.902 97.9123 217.915 80.5285C217.175 80.354 216.434 80.2013 215.672 80.114C200.584 77.9329 185.823 84.3019 171.541 90.4746C170.452 90.9544 169.364 91.4125 168.275 91.8923C152.991 98.4358 135.225 104.26 119.397 97.8469C115.914 96.4291 112.539 94.4443 109.295 92.503C102.872 88.686 96.8197 85.0653 89.8745 85.6324C86.3039 85.9159 82.9945 87.3337 79.4893 88.8169C76.0929 90.2565 72.5876 91.7614 68.8211 92.1104C63.2475 92.6339 57.9569 90.6273 52.8405 88.6642C48.9651 87.181 44.9591 85.6542 40.8878 85.2834C35.2706 84.7599 29.6099 86.3958 24.1452 87.9662C22.7953 88.3588 21.4019 88.7514 20.0085 89.1222C19.0506 89.384 18.0926 89.6021 17.1346 89.7984Z" fill="#472C27"/>
<path d="M380.42 410.124H129.368L112.321 383.034C101.348 365.606 93.336 346.478 88.6115 326.433C85.2804 312.364 83.604 297.947 83.604 283.486V64.2571H334.655V283.464C334.655 303.989 338.03 324.382 344.649 343.795C349.33 357.558 355.622 370.71 363.351 383.012L380.398 410.102L380.42 410.124Z" fill="#FEF8EE"/>
<path d="M163.006 64.2571C148.419 68.4885 133.875 72.5019 118.853 71.4985C109.251 70.866 97.0372 69.4482 92.5522 77.9548C91.0282 80.8775 90.9411 84.3238 90.8758 87.6391L90.1573 135.167C90.0702 140.925 89.9832 146.727 91.05 152.398C91.7467 156.171 92.9659 159.879 93.3578 163.718C93.7715 168.015 93.1401 172.355 92.5958 176.631C89.5042 200.885 89.4606 225.445 92.4869 249.721C93.2489 255.894 94.2287 262.088 93.6408 268.283C92.9441 275.612 90.092 282.635 89.6566 290.007C89.1994 297.641 91.3548 305.254 90.9193 312.888C90.6581 317.49 89.5913 321.961 88.6115 326.454C85.2804 312.386 83.604 297.969 83.604 283.507V64.2571H163.006Z" fill="#F09947"/>
<path d="M380.42 410.931H129.369C129.086 410.931 128.824 410.778 128.672 410.56L111.625 383.47C92.7484 353.501 82.7769 318.929 82.7769 283.486V64.257C82.7769 63.7989 83.147 63.45 83.5824 63.45H334.634C335.091 63.45 335.439 63.8207 335.439 64.257V283.464C335.439 303.945 338.792 324.142 345.389 343.533C350.07 357.231 356.319 370.339 364.026 382.576L381.073 409.666C381.313 410.037 381.204 410.56 380.812 410.8C380.681 410.887 380.529 410.931 380.377 410.931H380.42ZM129.826 409.295H378.961L362.698 383.448C354.925 371.103 348.611 357.885 343.909 344.056C337.246 324.513 333.872 304.119 333.872 283.464V65.0858H84.4097V283.486C84.4097 318.602 94.2942 352.89 112.996 382.598L129.804 409.317L129.826 409.295Z" fill="#472C27"/>
<path d="M222.704 132.222H122.183C121.726 132.222 121.378 131.851 121.378 131.415C121.378 130.979 121.748 130.608 122.183 130.608H222.704C223.161 130.608 223.51 130.979 223.51 131.415C223.51 131.851 223.14 132.222 222.704 132.222ZM282.512 132.222H237.4C236.943 132.222 236.595 131.851 236.595 131.415C236.595 130.979 236.965 130.608 237.4 130.608H282.512C282.969 130.608 283.317 130.979 283.317 131.415C283.317 131.851 282.947 132.222 282.512 132.222ZM170.234 172.988H122.183C121.726 172.988 121.378 172.617 121.378 172.181C121.378 171.745 121.748 171.374 122.183 171.374H170.234C170.691 171.374 171.04 171.745 171.04 172.181C171.04 172.617 170.669 172.988 170.234 172.988ZM297.708 172.988H185.91C185.453 172.988 185.104 172.617 185.104 172.181C185.104 171.745 185.474 171.374 185.91 171.374H297.708C298.166 171.374 298.514 171.745 298.514 172.181C298.514 172.617 298.144 172.988 297.708 172.988ZM230.542 213.776H122.183C121.726 213.776 121.378 213.405 121.378 212.969C121.378 212.532 121.748 212.162 122.183 212.162H230.542C230.999 212.162 231.348 212.532 231.348 212.969C231.348 213.405 230.978 213.776 230.542 213.776ZM272.714 213.776H245.739C245.282 213.776 244.933 213.405 244.933 212.969C244.933 212.532 245.303 212.162 245.739 212.162H272.714C273.171 212.162 273.52 212.532 273.52 212.969C273.52 213.405 273.15 213.776 272.714 213.776ZM155.516 254.541H122.183C121.726 254.541 121.378 254.171 121.378 253.734C121.378 253.298 121.748 252.927 122.183 252.927H155.516C155.973 252.927 156.322 253.298 156.322 253.734C156.322 254.171 155.952 254.541 155.516 254.541ZM227.102 254.541H173.173C172.716 254.541 172.368 254.171 172.368 253.734C172.368 253.298 172.738 252.927 173.173 252.927H227.102C227.559 252.927 227.908 253.298 227.908 253.734C227.908 254.171 227.538 254.541 227.102 254.541ZM297.229 254.541H243.3C242.843 254.541 242.495 254.171 242.495 253.734C242.495 253.298 242.865 252.927 243.3 252.927H297.229C297.687 252.927 298.035 253.298 298.035 253.734C298.035 254.171 297.665 254.541 297.229 254.541ZM164.421 295.329H122.183C121.726 295.329 121.378 294.958 121.378 294.522C121.378 294.086 121.748 293.715 122.183 293.715H164.421C164.878 293.715 165.226 294.086 165.226 294.522C165.226 294.958 164.856 295.329 164.421 295.329ZM260.936 295.329H184.93C184.473 295.329 184.124 294.958 184.124 294.522C184.124 294.086 184.495 293.715 184.93 293.715H260.936C261.393 293.715 261.741 294.086 261.741 294.522C261.741 294.958 261.371 295.329 260.936 295.329ZM380.42 410.124H181.229C183.733 409.339 186.454 408.662 189.371 408.182C219.482 403.122 225.273 386.524 239.882 383.644C247.938 382.052 255.993 385.455 263.962 387.396C279.05 391.039 296.119 388.966 308.05 379.02C315.061 373.175 319.807 365.126 325.794 358.256C331.738 351.407 338.204 346.696 344.627 343.86C349.308 357.623 355.6 370.776 363.329 383.077L380.376 410.167L380.42 410.124Z" fill="#472C27"/>
<path d="M380.42 410.931H181.229C180.837 410.931 180.489 410.647 180.423 410.233C180.358 409.84 180.597 409.448 180.989 409.339C183.58 408.51 186.345 407.855 189.241 407.376C206.963 404.387 216.303 397.277 223.793 391.54C229.062 387.505 233.634 384.037 239.73 382.816C246.153 381.551 252.575 383.361 258.78 385.128C260.544 385.629 262.373 386.153 264.158 386.567C280.443 390.493 296.642 387.418 307.527 378.344C312.012 374.615 315.648 369.838 319.154 365.214C321.07 362.684 323.073 360.088 325.184 357.645C330.954 351.014 337.398 346.107 344.322 343.031C344.736 342.857 345.215 343.031 345.389 343.446C345.389 343.446 345.389 343.489 345.41 343.511C350.091 357.209 356.34 370.318 364.047 382.554L381.095 409.644C381.334 410.015 381.225 410.538 380.833 410.778C380.703 410.865 380.55 410.909 380.398 410.909L380.42 410.931ZM187.76 409.295H378.939L362.676 383.448C355.055 371.343 348.85 358.43 344.17 344.907C337.769 347.895 331.803 352.541 326.425 358.736C324.335 361.135 322.376 363.709 320.46 366.217C316.889 370.907 313.188 375.749 308.572 379.609C297.295 389.01 280.552 392.217 263.766 388.16C261.959 387.723 260.108 387.2 258.323 386.698C252.292 384.997 246.065 383.23 240.035 384.43C234.309 385.564 229.889 388.923 224.773 392.849C217.131 398.695 207.616 405.958 189.48 408.99C188.893 409.099 188.305 409.186 187.717 409.317L187.76 409.295Z" fill="#472C27"/>
<path d="M262.503 42.7288C268.033 41.9218 274.63 40.1769 280.422 37.4941C291.961 32.172 301.562 40.8967 291.482 53.8964C280.008 68.6847 264.006 63.6026 264.006 63.6026L262.525 42.7288H262.503Z" fill="#F09947"/>
<path d="M270.515 65.2385C266.531 65.2385 263.81 64.4097 263.744 64.3879C263.418 64.2788 263.2 63.9953 263.178 63.6681L261.698 42.7944C261.676 42.3581 261.981 41.9873 262.395 41.9219C268.447 41.0276 274.892 39.1518 280.073 36.7526C285.93 34.0479 291.852 34.7241 294.769 38.4102C297.861 42.2927 296.859 48.2691 292.113 54.3982C285.124 63.4063 276.416 65.2167 270.515 65.2167V65.2385ZM264.768 62.9701C267.598 63.6899 280.857 66.2419 290.829 53.3948C295.074 47.9201 296.076 42.6853 293.507 39.4354C291.046 36.3381 285.93 35.8583 280.77 38.2357C275.654 40.5914 269.362 42.4672 263.374 43.4269L264.768 62.9701Z" fill="#472C27"/>
<path d="M221.507 38.781C226.449 33.5244 246.784 18.6052 257.735 26.043C268.686 33.4807 285.516 62.97 291.133 69.3172C300.016 79.3942 283.6 86.941 274.282 78.7616C267.38 72.698 255.58 54.5726 252.053 54.8561C248.526 55.1397 238.641 62.4466 238.641 62.4466L221.507 38.781Z" fill="#F09947"/>
<path d="M283.644 83.0369C280.248 83.0369 276.634 81.9245 273.76 79.3944C270.777 76.777 266.967 72.022 263.266 67.398C259.281 62.4467 253.86 55.6851 252.206 55.6851C252.206 55.6851 252.184 55.6851 252.162 55.6851C249.462 55.9033 241.864 61.138 239.164 63.1229C238.794 63.3846 238.293 63.3192 238.032 62.9484L220.898 39.2828C220.658 38.9556 220.702 38.5194 220.963 38.2358C223.271 35.7711 229.672 30.5363 237.052 26.9374C243.279 23.8838 252.01 21.1574 258.236 25.3888C265.791 30.5145 276.024 45.8263 283.492 57.0156C286.997 62.2504 290.023 66.7873 291.787 68.7939C295.205 72.6764 295.466 76.7988 292.462 79.8306C290.437 81.8591 287.171 83.0587 283.666 83.0587L283.644 83.0369ZM252.14 54.0493C254.492 54.0493 258.41 58.7606 264.507 66.3728C268.164 70.9315 271.953 75.6428 274.805 78.1511C279.986 82.6879 287.759 82.1644 291.242 78.6528C293.616 76.2753 293.333 73.069 290.502 69.8627C288.652 67.7688 285.756 63.4064 282.077 57.9099C274.674 46.8296 264.55 31.6706 257.278 26.7193C251.683 22.9241 243.562 25.5415 237.705 28.3988C230.978 31.6924 225.1 36.3382 222.552 38.8684L238.816 61.3125C241.233 59.5676 248.766 54.311 251.988 54.0493C252.031 54.0493 252.075 54.0493 252.118 54.0493H252.14Z" fill="#472C27"/>
<path d="M204.22 25.9558C209.445 24.1454 220.244 23.0112 226.95 23.0112C233.656 23.0112 242.147 31.3651 244.934 36.4472C247.72 41.5293 253.381 54.3545 251.03 64.3661C248.874 73.5924 242.103 85.7196 236.203 91.4561C230.325 97.1925 216.783 98.7412 220.157 85.3706C223.51 72.0001 204.22 25.9776 204.22 25.9776V25.9558Z" fill="#F09947"/>
<path d="M226.079 96.4508C224.577 96.4508 223.162 96.1455 221.964 95.4693C219.896 94.2697 217.762 91.4996 219.352 85.1306C222.618 72.1745 203.654 26.7191 203.458 26.2611C203.284 25.8466 203.458 25.3668 203.894 25.1923H203.937C209.141 23.4037 220.027 22.2041 226.928 22.2041C234.222 22.2041 242.974 31.2123 245.63 36.0545C247.133 38.8027 254.492 53.0675 251.814 64.5404C249.68 73.7013 242.931 86.0249 236.769 92.0231C234.157 94.575 229.846 96.4726 226.079 96.4726V96.4508ZM205.331 26.4574C207.987 32.9136 224.142 72.8943 220.963 85.545C220.223 88.5114 219.94 92.3939 222.814 94.0515C226.253 96.0364 232.415 93.9861 235.659 90.8452C241.624 85.0434 248.178 73.0688 250.246 64.1478C252.837 53.0239 245.108 38.4538 244.215 36.8179C241.385 31.6485 233.046 23.8182 226.95 23.8182C220.527 23.8182 210.621 24.8651 205.331 26.4574Z" fill="#472C27"/>
<path d="M165.989 31.1907C175.634 25.127 193.008 21.0701 202.282 22.8368C217.675 25.7814 227.647 49.0108 228.931 58.5861C229.628 63.8863 222.334 85.4143 215.846 92.4377C206.049 103.016 193.966 97.7379 197.885 86.2868C201.129 76.7769 206.463 67.0926 204.721 61.9887C202.914 56.7103 199.822 50.3631 195.729 50.1886C191.636 50.0141 181.186 54.4418 181.186 54.4418L165.989 31.1907Z" fill="#F09947"/>
<path d="M204.786 98.9811C203.001 98.9811 201.411 98.5448 200.127 97.7596C196.513 95.6003 195.359 91.0853 197.101 86.0032C198.015 83.3421 199.06 80.7029 200.105 78.1292C202.674 71.7166 205.113 65.6311 203.937 62.2285C201.542 55.2052 198.537 51.1046 195.685 50.9955C191.832 50.8647 181.599 55.1397 181.49 55.1833C181.12 55.336 180.706 55.2052 180.489 54.878L165.292 31.6268C165.052 31.256 165.161 30.7325 165.531 30.4926C175.438 24.2545 193.007 20.2411 202.413 22.0297C218.611 25.127 228.496 49.3596 229.715 58.4769C230.455 64.0171 223.14 85.7414 216.412 92.9829C212.45 97.2579 208.248 98.9593 204.764 98.9593L204.786 98.9811ZM195.511 49.3596C195.511 49.3596 195.685 49.3596 195.751 49.3596C200.388 49.556 203.61 56.1649 205.483 61.705C206.833 65.6965 204.416 71.7384 201.607 78.7399C200.584 81.2918 199.539 83.931 198.646 86.5266C197.144 90.9108 198.015 94.5751 200.976 96.3419C204.22 98.2831 209.881 97.6506 215.236 91.8705C221.572 85.0434 228.8 63.8426 228.104 58.695C227.516 54.2236 224.773 46.0443 220.179 38.6501C216.456 32.6738 210.316 25.2142 202.108 23.6438C193.269 21.9425 176.853 25.6504 167.121 31.4523L181.49 53.4384C183.798 52.5005 191.723 49.3815 195.511 49.3815V49.3596Z" fill="#472C27"/>
<path d="M136.88 41.5075C157.476 27.2645 168.754 24.7998 179.531 36.5999C190.308 48.4 194.51 61.0725 190.308 72.4582C187.521 79.9832 182.144 88.5115 178.05 93.5936C173.239 99.57 157.933 97.3234 163.681 84.1492C166.12 78.5436 167.927 69.6881 166.773 64.2788C165.815 59.7856 152.556 48.4 152.556 48.4" fill="#F09947"/>
<path d="M170.648 97.5415C168.732 97.5415 166.838 97.0834 165.27 96.1237C163.441 95.0113 159.566 91.5869 162.962 83.8002C165.335 78.3691 167.121 69.6444 166.01 64.4314C165.27 60.9852 155.69 52.1079 152.055 48.9888C151.706 48.7053 151.663 48.1818 151.968 47.8328C152.251 47.4838 152.773 47.4402 153.121 47.7456C154.493 48.9234 166.62 59.4584 167.6 64.0825C168.819 69.8189 166.881 78.8489 164.443 84.4327C162.374 89.1658 162.962 92.8083 166.097 94.706C169.559 96.7999 175.067 95.9929 177.441 93.0483C181.512 88.0098 186.824 79.5905 189.568 72.1528C193.53 61.3996 189.763 48.9452 178.943 37.1233C173.674 31.365 168.449 29.1839 162.004 30.0782C155.799 30.9288 148.201 34.6586 137.359 42.1618C136.988 42.4017 136.488 42.3145 136.226 41.9219C135.987 41.5511 136.074 41.0712 136.422 40.8095C147.504 33.1536 155.32 29.3366 161.787 28.4423C168.732 27.5044 174.567 29.9037 180.14 36.0109C191.396 48.3127 195.294 61.3342 191.092 72.6981C188.283 80.3103 182.84 88.9041 178.703 94.0516C176.918 96.2764 173.761 97.4979 170.648 97.4979V97.5415Z" fill="#472C27"/>
<path d="M174.894 94.117C174.11 94.117 173.326 93.9643 172.542 93.6372C171.584 93.2445 170.844 92.4157 170.452 91.2597C169.712 89.1222 170.169 85.8722 171.497 83.5166C173.914 79.2633 179.531 79.3505 182.644 81.0519C184.735 82.1861 185.497 83.931 184.647 85.5669C181.774 91.1288 178.334 94.0952 174.894 94.0952V94.117ZM178.181 81.5971C176.156 81.5971 174.045 82.3606 172.912 84.3236C171.802 86.2648 171.41 89.0131 171.998 90.7144C172.237 91.4124 172.629 91.8922 173.152 92.1103C177.833 94.0298 181.752 87.639 183.21 84.8035C183.798 83.6693 182.47 82.7968 181.861 82.4696C180.881 81.9243 179.531 81.5971 178.159 81.5971H178.181ZM208.771 96.1891C208.118 96.1891 207.443 96.1019 206.789 95.9056C205.309 95.4693 204.264 94.5096 203.785 93.1355C202.783 90.2564 204.46 85.8722 206.463 83.0367C208.923 79.525 215.106 80.3539 218.459 82.4914C220.593 83.8437 221.355 85.5669 220.484 87.0937C218.416 90.7144 213.865 96.1673 208.771 96.1673V96.1891ZM211.928 82.2951C210.229 82.2951 208.64 82.775 207.791 83.9746C205.984 86.5484 204.547 90.3436 205.331 92.5902C205.635 93.4627 206.267 94.0298 207.268 94.3351C212.145 95.7747 217.131 89.7111 219.091 86.2866C219.657 85.2833 218.111 84.1927 217.61 83.8656C216.173 82.9495 213.952 82.2733 211.949 82.2733L211.928 82.2951ZM231.261 93.5935C230.499 93.5935 229.737 93.4409 228.997 93.0482C227.799 92.4593 226.994 91.3469 226.667 89.8856C226.101 87.3118 227.015 83.9964 229.04 81.4227C231.5 78.2818 237.052 79.7432 239.926 81.9679C241.842 83.4293 242.43 85.087 241.494 86.3521C240.492 87.7044 235.855 93.5717 231.261 93.5717V93.5935ZM233.242 81.27C232.045 81.27 230.978 81.619 230.325 82.4478C228.627 84.6071 227.799 87.4645 228.256 89.5366C228.474 90.5399 228.975 91.2161 229.715 91.6087C233.068 93.2882 237.88 88.4896 240.166 85.3924C240.579 84.8471 239.752 83.9092 238.925 83.2766C237.466 82.1642 235.18 81.27 233.22 81.27H233.242ZM289 74.6829C288.369 74.6829 287.715 74.6174 287.019 74.5084C283.078 73.8104 279.529 71.2803 277.983 68.0958C277.2 66.4817 277.113 64.9331 277.722 63.4717C279.05 60.309 283.296 58.8694 283.47 58.804C283.905 58.6513 284.363 58.8913 284.515 59.3057C284.667 59.7419 284.428 60.2 284.014 60.3526C283.971 60.3526 280.291 61.6177 279.246 64.1042C278.811 65.1076 278.898 66.1763 279.464 67.376C280.792 70.1242 283.884 72.2836 287.324 72.8943C289.566 73.2869 291.526 72.8943 292.614 71.8692C292.941 71.5638 293.463 71.5638 293.768 71.891C294.073 72.2181 294.073 72.7198 293.768 73.047C292.658 74.1158 290.981 74.7047 289.044 74.7047L289 74.6829ZM187.543 66.4817C187.391 66.4817 187.238 66.4381 187.108 66.3508C184.778 64.8676 181.817 64.4968 179.204 65.3475C178.769 65.4784 178.312 65.2602 178.181 64.824C178.051 64.3878 178.268 63.9297 178.704 63.7989C181.795 62.7955 185.257 63.2318 188 64.9767C188.37 65.2166 188.501 65.7183 188.262 66.1109C188.109 66.3508 187.848 66.4817 187.565 66.4817H187.543ZM214.714 61.7922C214.257 61.7922 213.909 61.4214 213.909 60.9852C213.909 60.7016 214.061 60.4181 214.322 60.2654C216.63 58.9567 219.243 58.2587 221.899 58.2587C223.859 58.2587 225.317 58.7822 226.21 59.8073C226.515 60.1563 226.471 60.658 226.123 60.9634C225.774 61.2687 225.274 61.2251 224.969 60.8761C224.403 60.2218 223.358 59.8946 221.877 59.8946C219.504 59.8946 217.175 60.5271 215.106 61.705C214.976 61.7704 214.845 61.814 214.693 61.814L214.714 61.7922ZM224.425 56.7973C224.316 56.7973 224.185 56.7755 224.076 56.7319C221.834 55.7068 219.156 55.6631 216.892 56.6447C216.478 56.8191 215.999 56.6447 215.825 56.2084C215.651 55.7722 215.825 55.3141 216.26 55.1397C218.938 53.9836 222.117 54.0055 224.773 55.2269C225.187 55.4232 225.361 55.9031 225.165 56.3175C225.034 56.601 224.751 56.7973 224.425 56.7973ZM238.424 58.8476C237.967 58.8476 237.618 58.4768 237.597 58.0406C237.597 57.7571 237.749 57.4953 237.989 57.3426C241.058 55.445 244.977 54.9215 248.461 55.9249C248.896 56.0557 249.136 56.492 249.027 56.9282C248.896 57.3644 248.461 57.6044 248.025 57.4953C244.977 56.6228 241.559 57.0809 238.859 58.7386C238.729 58.8258 238.576 58.8694 238.424 58.8694V58.8476ZM203.741 378.366C202.653 378.366 201.608 378.192 200.606 377.864C197.906 376.948 195.577 374.811 194.031 371.866C192.855 369.62 192.137 366.937 191.745 363.403C191.68 362.705 191.593 362.029 191.549 361.331C191.179 357.318 190.787 353.195 188.218 350.404C187.086 349.182 185.518 348.244 183.689 347.677C179.792 346.477 175.503 347.437 173.043 350.055C170.278 352.999 170.082 357.972 172.564 361.135C172.869 361.527 173.217 361.898 173.609 362.313C174.349 363.12 175.133 363.949 175.634 365.017C176.57 367.046 176.243 369.62 174.785 371.735C173.674 373.327 171.976 374.658 169.603 375.792C166.686 377.166 163.529 377.952 160.306 378.104C158.391 378.192 153.731 378.017 151.859 374.505C150.509 371.953 151.206 368.703 153.906 364.821L154.101 364.559C155.843 362.073 157.65 359.477 157.15 356.794C157.062 356.314 156.91 355.987 156.692 355.835C156.322 355.551 155.647 355.638 154.994 355.704C150.357 356.249 146.024 355.311 142.78 353.065C139.014 350.469 136.858 345.954 137.446 341.853C137.511 341.417 137.925 341.09 138.36 341.155C138.796 341.221 139.122 341.635 139.057 342.071C138.556 345.583 140.429 349.466 143.716 351.712C146.634 353.719 150.574 354.57 154.798 354.068C155.713 353.959 156.823 353.828 157.716 354.504C158.26 354.919 158.608 355.573 158.782 356.467C159.414 359.826 157.324 362.814 155.473 365.454L155.277 365.715C152.948 369.052 152.294 371.735 153.339 373.698C154.798 376.468 159.022 376.49 160.263 376.447C163.267 376.316 166.207 375.574 168.928 374.287C171.04 373.284 172.542 372.128 173.478 370.776C174.589 369.161 174.872 367.155 174.197 365.672C173.827 364.843 173.174 364.145 172.477 363.403C172.107 362.989 171.715 362.574 171.345 362.138C168.362 358.365 168.623 352.432 171.911 348.92C174.785 345.845 179.727 344.711 184.212 346.085C186.324 346.739 188.131 347.83 189.459 349.269C192.398 352.476 192.812 356.882 193.204 361.157C193.269 361.855 193.334 362.531 193.4 363.207C193.77 366.522 194.445 369.031 195.512 371.081C196.84 373.611 198.886 375.509 201.172 376.294C205.135 377.646 209.424 375.64 211.928 373.022C212.581 372.346 213.169 371.604 213.669 370.797C213.473 370.71 213.277 370.601 213.081 370.492C209.598 368.529 207.813 364.821 206.136 360.895C205.614 359.673 204.895 357.994 205.244 356.271C205.527 354.94 206.419 353.828 207.769 353.174C209.38 352.388 211.34 352.367 212.886 353.13C215.259 354.308 216.913 356.925 217.436 360.306C217.937 363.534 217.392 366.915 215.999 369.881C218.72 370.492 221.877 369.838 224.49 368.027C227.299 366.064 229.519 362.88 231.109 358.583C231.261 358.147 231.718 357.928 232.154 358.081C232.589 358.234 232.807 358.692 232.654 359.128C232.654 359.128 232.654 359.128 232.654 359.15C230.956 363.774 228.518 367.198 225.448 369.358C222.356 371.539 218.481 372.237 215.237 371.364C214.627 372.368 213.909 373.306 213.103 374.156C210.534 376.839 207.072 378.344 203.807 378.344L203.741 378.366ZM210.36 354.221C209.707 354.221 209.032 354.373 208.422 354.657C207.53 355.093 206.942 355.791 206.768 356.62C206.55 357.732 206.985 358.932 207.551 360.262C209.097 363.927 210.752 367.373 213.778 369.074C213.974 369.183 214.17 369.292 214.366 369.38C215.694 366.675 216.217 363.556 215.759 360.568C215.542 359.215 214.758 355.922 212.08 354.591C211.557 354.33 210.948 354.199 210.338 354.199L210.36 354.221Z" fill="#472C27"/>
<path d="M344.91 288.786C370.666 291.905 380.202 319.148 380.42 339.454C380.638 359.761 348.176 352.345 335.984 349.269C323.791 346.194 289.522 333.543 300.844 314.109C312.165 294.675 328.777 286.823 344.91 288.764V288.786Z" fill="#F09947"/>
<path d="M361.217 353.981C351.333 353.981 340.534 351.276 335.787 350.076C334.546 349.771 305.198 342.268 298.906 327.283C297.055 322.877 297.469 318.319 300.147 313.716C310.924 295.22 327.296 285.841 345.019 287.979C356.819 289.418 366.486 296.071 372.952 307.26C378.09 316.159 381.116 327.894 381.247 339.432C381.291 343.991 379.767 347.546 376.675 349.989C372.93 352.956 367.248 353.959 361.239 353.959L361.217 353.981ZM340.055 289.309C324.836 289.309 311.011 298.296 301.54 314.545C299.145 318.668 298.753 322.746 300.386 326.651C305.176 338.036 325.881 345.91 336.158 348.484C356.188 353.501 369.469 353.588 375.63 348.702C378.33 346.565 379.636 343.533 379.592 339.454C379.418 322.485 371.885 292.865 344.801 289.593C343.233 289.396 341.644 289.309 340.055 289.309Z" fill="#472C27"/>
<path d="M325.467 320.02C325.467 320.02 325.446 320.02 325.424 320.02C324.967 320.02 324.618 319.606 324.64 319.169C324.64 319.017 325.533 304.119 339.162 298.514C339.576 298.339 340.055 298.535 340.229 298.95C340.403 299.364 340.207 299.844 339.793 300.019C327.122 305.21 326.273 319.104 326.273 319.235C326.251 319.671 325.903 320.02 325.467 320.02ZM340.686 315.592C340.229 315.592 339.88 315.221 339.88 314.785C339.88 314.742 339.88 314.698 339.88 314.654C339.968 314.196 341.862 303.639 349.09 301.764C349.525 301.655 349.961 301.916 350.07 302.353C350.179 302.789 349.917 303.225 349.482 303.334C343.277 304.948 341.492 314.829 341.47 314.916C341.404 315.309 341.056 315.592 340.664 315.592H340.686Z" fill="#472C27"/>
<path d="M460.802 300.15L448.522 303.727L444.211 288.873L456.491 285.296C460.475 284.14 464.655 286.43 465.831 290.443L465.94 290.814C467.094 294.806 464.808 299.015 460.802 300.171V300.15Z" fill="#F09947"/>
<path d="M448.522 304.534C448.152 304.534 447.847 304.294 447.738 303.945L443.427 289.091C443.297 288.655 443.558 288.197 443.972 288.088L456.251 284.511C458.385 283.878 460.649 284.14 462.608 285.209C464.568 286.277 465.983 288.066 466.593 290.203L466.702 290.574C467.986 295.002 465.439 299.648 461.019 300.935L448.74 304.512C448.74 304.512 448.587 304.534 448.522 304.534ZM445.234 289.418L449.088 302.702L460.584 299.364C464.132 298.339 466.201 294.588 465.156 291.032L465.047 290.662C464.546 288.938 463.392 287.499 461.825 286.648C460.257 285.776 458.428 285.579 456.708 286.081L445.213 289.418H445.234ZM497.422 427.18C490.063 434.16 478.066 442.863 463.806 451.108C450.242 458.96 437.353 464.827 427.773 467.881C419.195 470.607 413.273 471.044 411.858 468.579C410.421 466.071 413.905 461.01 420.785 454.772C428.209 448.032 439.574 439.94 452.92 432.219C465.286 425.065 477.087 419.546 486.34 416.318C496.311 412.85 503.3 412.043 504.868 414.748C506.196 417.06 503.3 421.575 497.422 427.18Z" fill="#472C27"/>
<path d="M416.3 471C413.666 471 411.946 470.324 411.162 468.971C409.507 466.114 412.577 461.119 420.241 454.161C428.057 447.073 439.509 439.024 452.507 431.499C464.481 424.563 476.39 418.892 486.057 415.533C493.721 412.872 503.344 410.494 505.543 414.333C507.067 416.994 504.52 421.509 497.945 427.769C490.259 435.076 477.958 443.844 464.176 451.806C451.135 459.352 437.941 465.482 427.992 468.644C423.028 470.215 419.109 471 416.257 471H416.3ZM500.448 413.941C497.64 413.941 493.155 414.791 486.601 417.082C477.022 420.419 465.221 426.046 453.334 432.917C440.423 440.376 429.08 448.359 421.351 455.361C411.51 464.282 412.163 467.401 412.577 468.143C412.991 468.862 415.32 470.956 427.534 467.074C437.375 463.955 450.438 457.869 463.393 450.388C477.044 442.492 489.236 433.811 496.856 426.591C502.473 421.248 505.216 416.972 504.171 415.162C503.758 414.442 502.582 413.962 500.448 413.962V413.941Z" fill="#472C27"/>
<path d="M497.422 427.159C490.977 433.288 480.962 440.704 468.988 448.011C467.311 449.036 465.57 450.061 463.806 451.086C450.242 458.938 437.375 464.806 427.774 467.837C425.618 463.802 423.245 459.374 420.785 454.75C412.599 439.308 403.258 421.553 396.27 408.379C394.942 405.892 393.722 403.559 392.59 401.443C389.803 396.208 387.692 392.26 386.603 390.319C381.204 380.678 364.461 345.038 361.304 332.474C361.021 331.362 360.847 330.446 360.803 329.726C360.15 320.892 354.598 304.512 346.107 300.259C340.425 297.423 326.513 300.913 320.612 305.821C314.734 310.728 310.489 318.231 305.895 322.856C305.612 323.139 305.329 323.423 305.046 323.684C298.949 329.443 290.698 333.543 286.039 332.911C282.773 332.474 281.314 329.683 283.666 323.488C284.95 320.107 287.301 315.331 290.11 310.292C296.141 299.452 304.262 287.303 308.507 284.838C314.712 281.239 338.901 274.368 350.984 273.714C363.068 273.06 380.071 278.294 390.848 282.548C397.184 285.056 404.303 294.195 410.138 304.119C414.275 311.099 417.758 318.471 419.914 324.142C423.963 334.808 456.512 384.866 486.318 416.275C490.063 420.223 493.786 423.887 497.378 427.137L497.422 427.159Z" fill="#F09947"/>
<path d="M410.16 304.141C409.747 303.705 409.355 303.247 408.941 302.811C403.716 297.118 397.729 292.167 391.219 288.11C388.41 286.365 385.428 284.751 382.205 284.162C380.377 283.835 378.526 283.813 376.697 283.486C374.237 283.049 371.907 282.024 369.534 281.217C355.404 276.506 340.077 279.996 325.642 283.507C321.375 284.533 317.064 285.601 313.167 287.673C308.508 290.16 304.719 294.021 301.083 297.903C297.317 301.938 293.659 306.082 290.11 310.336C296.141 299.495 304.262 287.346 308.508 284.882C314.713 281.283 338.901 274.412 350.985 273.758C363.068 273.103 380.072 278.338 390.849 282.591C397.184 285.1 404.304 294.239 410.139 304.163L410.16 304.141Z" fill="#FEF8EE"/>
<path d="M427.796 468.666C427.491 468.666 427.23 468.492 427.077 468.23C424.878 464.108 422.44 459.549 420.088 455.121C415.103 445.72 409.79 435.665 404.652 425.915C401.626 420.201 398.6 414.464 395.573 408.75C395.573 408.75 395.573 408.728 395.551 408.706C394.332 406.416 393.113 404.126 391.894 401.835C388.889 396.186 386.93 392.544 385.907 390.712C380.551 381.18 363.721 345.365 360.521 332.671C360.216 331.515 360.042 330.533 359.998 329.792C359.301 320.391 353.532 304.905 345.737 300.979C340.294 298.252 326.643 301.851 321.135 306.453C317.739 309.289 314.908 312.975 312.187 316.552C310.249 319.082 308.42 321.481 306.483 323.423C306.2 323.706 305.895 323.99 305.612 324.273C299.233 330.315 290.785 334.372 285.952 333.718C284.341 333.5 283.122 332.758 282.425 331.58C281.336 329.748 281.51 326.934 282.926 323.205C287.128 312.233 301.715 287.87 308.116 284.14C314.669 280.345 339.206 273.54 350.963 272.907C365.376 272.122 385.384 279.516 391.175 281.806C402.061 286.103 415.233 309.441 420.72 323.859C424.769 334.525 457.318 384.495 486.95 415.708C490.803 419.765 494.505 423.407 497.966 426.526C498.293 426.832 498.336 427.333 498.032 427.682C498.032 427.682 498.01 427.704 497.988 427.726C491.282 434.095 481.137 441.533 469.423 448.687C467.703 449.734 465.983 450.759 464.242 451.762C451.2 459.309 438.007 465.438 428.057 468.601C427.97 468.623 427.904 468.644 427.817 468.644L427.796 468.666ZM397.032 408.052C399.753 413.199 402.845 419.045 406.067 425.174C411.205 434.902 416.518 444.979 421.504 454.358C423.724 458.524 425.945 462.69 428.166 466.856C437.941 463.693 450.721 457.695 463.393 450.366C465.134 449.363 466.833 448.338 468.553 447.313C479.809 440.442 489.584 433.331 496.203 427.181C492.893 424.171 489.388 420.702 485.752 416.864C455.99 385.499 423.267 335.223 419.174 324.47C413.579 309.769 400.537 287.281 390.544 283.355C384.84 281.108 365.114 273.801 351.028 274.565C338.64 275.241 314.734 282.221 308.921 285.58C302.956 289.048 288.543 313.084 284.45 323.815C283.23 327 283.013 329.421 283.818 330.773C284.254 331.515 285.059 331.973 286.17 332.126C290.502 332.714 298.536 328.745 304.502 323.117C304.785 322.856 305.068 322.572 305.351 322.31C307.201 320.456 309.008 318.079 310.902 315.592C313.689 311.95 316.585 308.176 320.112 305.232C326.012 300.302 340.403 296.507 346.478 299.561C355.121 303.879 360.912 320.129 361.631 329.704C361.674 330.359 361.849 331.231 362.11 332.3C365.289 344.885 382.009 380.46 387.343 389.948C388.389 391.78 390.348 395.445 393.352 401.094C394.485 403.21 395.704 405.522 397.032 408.03C397.032 408.03 397.032 408.074 397.054 408.074L397.032 408.052Z" fill="#472C27"/>
<path d="M259.717 338.8L442.709 285.536C444.647 284.969 446.694 286.103 447.26 288.044L451.527 302.767C452.093 304.708 450.983 306.759 449.023 307.326L266.031 360.59L259.717 338.8Z" fill="#FEF8EE"/>
<path d="M266.03 361.418C265.66 361.418 265.355 361.178 265.247 360.829L258.933 339.04C258.802 338.603 259.063 338.145 259.477 338.036L442.47 284.772C444.843 284.074 447.325 285.449 448.021 287.826L452.289 302.549C452.985 304.926 451.614 307.413 449.241 308.111L266.248 361.375C266.248 361.375 266.096 361.397 266.03 361.397V361.418ZM260.74 339.367L266.596 359.586L448.805 306.562C450.308 306.126 451.178 304.534 450.743 303.029L446.476 288.306C446.04 286.801 444.451 285.928 442.949 286.365L260.74 339.389V339.367Z" fill="#472C27"/>
<path d="M325.163 345.976L321.44 347.066L274.478 360.72L269.84 362.073C268.12 362.574 266.313 361.571 265.813 359.848L259.934 339.563C259.433 337.84 260.435 336.03 262.155 335.528L266.879 334.154L313.841 320.478L317.456 319.431C319.175 318.929 320.983 319.933 321.505 321.656L327.383 341.941C327.884 343.664 326.883 345.496 325.163 345.998V345.976Z" fill="#F09947"/>
<path d="M268.948 363.011C268.273 363.011 267.598 362.836 266.989 362.509C266.031 361.986 265.334 361.113 265.029 360.066L259.151 339.781C258.846 338.734 258.977 337.622 259.499 336.684C260.022 335.724 260.892 335.026 261.938 334.721L317.238 318.624C319.393 317.992 321.658 319.235 322.289 321.394L328.168 341.679C328.799 343.838 327.536 346.107 325.403 346.739L270.102 362.836C269.732 362.945 269.34 363.011 268.97 363.011H268.948ZM318.37 320.107C318.131 320.107 317.913 320.151 317.695 320.195L262.395 336.292C261.763 336.466 261.241 336.902 260.936 337.469C260.631 338.036 260.544 338.713 260.74 339.323L266.618 359.608C266.793 360.241 267.228 360.764 267.794 361.07C268.36 361.375 269.013 361.462 269.645 361.266L324.945 345.169C326.23 344.798 326.992 343.424 326.6 342.137L320.722 321.852C320.417 320.783 319.437 320.086 318.37 320.086V320.107Z" fill="#472C27"/>
<path d="M295.173 345.036C308.14 341.262 318.094 336.28 317.406 333.908C316.719 331.537 305.649 332.674 292.682 336.448C279.715 340.222 269.761 345.204 270.448 347.576C271.136 349.947 282.205 348.81 295.173 345.036Z" fill="#472C27"/>
<path d="M274.826 349.618C272.04 349.618 270.058 349.117 269.666 347.808C268.491 343.795 284.058 338.102 292.462 335.659C298.775 333.827 304.85 332.54 309.574 332.06C316.672 331.34 317.891 332.649 318.196 333.674C318.501 334.721 318.174 336.488 311.773 339.672C307.528 341.788 301.715 343.991 295.401 345.823C289.74 347.459 280.574 349.618 274.805 349.618H274.826ZM313.167 333.478C312.252 333.478 311.142 333.543 309.748 333.674C305.133 334.154 299.146 335.397 292.919 337.229C286.692 339.04 280.966 341.177 276.808 343.271C271.909 345.736 271.169 347.11 271.234 347.35C271.299 347.59 272.671 348.353 278.136 347.808C282.751 347.328 288.739 346.085 294.965 344.253C301.192 342.442 306.918 340.305 311.077 338.211C315.975 335.746 316.715 334.372 316.65 334.132C316.607 333.958 315.823 333.478 313.167 333.478ZM291.612 331.58C278.68 335.332 267.663 336.488 266.901 334.132L313.863 320.456C314.473 322.834 304.545 327.807 291.612 331.558V331.58Z" fill="#472C27"/>
<path d="M271.256 336.16C268.513 336.16 266.531 335.659 266.118 334.394C265.987 333.958 266.205 333.499 266.64 333.369C266.64 333.369 266.64 333.369 266.662 333.369L313.624 319.693C314.059 319.562 314.517 319.824 314.625 320.26C314.625 320.26 314.625 320.26 314.625 320.282C315.67 324.295 300.169 329.944 291.83 332.387C286.191 334.023 277.004 336.182 271.234 336.182L271.256 336.16ZM268.948 334.372C269.971 334.546 271.713 334.612 274.587 334.328C279.203 333.848 285.168 332.605 291.373 330.795C297.578 328.984 303.282 326.847 307.441 324.775C310.032 323.488 311.469 322.485 312.231 321.787L268.948 334.394V334.372ZM321.44 347.066L274.478 360.72C274.478 360.72 274.478 360.699 274.478 360.677C273.781 358.299 283.753 353.326 296.707 349.531C309.683 345.758 320.743 344.623 321.44 347.001C321.44 347.001 321.44 347.023 321.44 347.044V347.066Z" fill="#472C27"/>
<path d="M274.478 361.528C274.217 361.528 273.956 361.397 273.803 361.179C273.76 361.091 273.716 361.026 273.694 360.939C272.519 356.904 288.086 351.211 296.468 348.768C304.872 346.325 321.048 342.77 322.202 346.783C322.224 346.848 322.246 346.957 322.246 347.045C322.246 347.415 322.006 347.721 321.658 347.83L274.696 361.484C274.696 361.484 274.543 361.506 274.478 361.506V361.528ZM317.173 346.587C316.28 346.587 315.148 346.652 313.755 346.783C309.139 347.263 303.152 348.506 296.925 350.316C290.698 352.127 284.972 354.264 280.814 356.358C278.114 357.711 276.677 358.736 275.937 359.434L319.481 346.761C318.936 346.652 318.196 346.587 317.129 346.587H317.173Z" fill="#472C27"/>
<path d="M266.03 360.59L241.515 359.564L232.001 359.172L239.752 353.479L259.717 338.8L266.03 360.59Z" fill="#FEF8EE"/>
<path d="M266.031 361.419C266.031 361.419 266.009 361.419 265.987 361.419L231.958 360.001C231.5 360.001 231.152 359.608 231.174 359.15C231.174 358.91 231.304 358.67 231.5 358.518L259.216 338.146C259.586 337.884 260.087 337.949 260.348 338.32C260.413 338.407 260.457 338.473 260.479 338.582L266.793 360.372C266.923 360.808 266.662 361.266 266.248 361.375C266.183 361.397 266.096 361.419 266.009 361.419H266.031ZM234.353 358.452L264.942 359.717L259.26 340.13L234.353 358.43V358.452Z" fill="#472C27"/>
<path d="M401.081 403.951C399.884 405.587 398.316 407.092 396.292 408.401C393.875 404.213 390.653 401.901 386.56 399.763C377.524 395.03 364.178 391.148 345.454 370.034C337.377 360.917 315.496 357.165 295.292 346.892C286.997 342.66 284.646 337.404 286.061 332.932C287.541 328.287 293.115 324.535 300.321 323.815C301.867 323.663 303.456 323.641 305.068 323.706C321.331 324.448 340.556 335.703 361.326 332.496C362.676 332.3 364.048 332.016 365.419 331.689C390.239 361.004 411.859 389.032 401.103 403.973L401.081 403.951Z" fill="#F09947"/>
<path d="M396.292 409.208C396.008 409.208 395.747 409.055 395.595 408.793C392.438 403.319 387.822 401.159 381.443 398.149C372.669 394.005 360.629 388.356 344.845 370.558C340.185 365.301 330.584 361.811 319.459 357.732C311.838 354.94 303.195 351.8 294.922 347.59C287.672 343.904 284.058 338.865 285.015 333.761C286.061 328.199 292.309 323.772 300.256 322.986C308.115 322.201 316.715 324.6 325.794 327.152C338.357 330.664 351.354 334.307 365.223 330.882C365.658 330.773 366.094 331.035 366.225 331.471C366.333 331.907 366.072 332.344 365.637 332.474C365.637 332.474 365.637 332.474 365.615 332.474C351.311 336.008 337.529 332.147 325.359 328.745C316.432 326.236 307.985 323.881 300.43 324.644C293.223 325.364 287.541 329.246 286.648 334.089C285.821 338.494 289.043 342.791 295.705 346.172C303.87 350.338 312.47 353.457 320.068 356.227C331.39 360.372 341.187 363.927 346.107 369.489C361.674 387.025 373.518 392.609 382.183 396.688C388.584 399.698 393.635 402.075 397.054 407.986C397.271 408.379 397.141 408.881 396.749 409.099C396.618 409.164 396.487 409.208 396.335 409.208H396.292ZM241.515 359.565L232.001 359.172L239.752 353.479L241.515 359.586V359.565Z" fill="#472C27"/>
<path d="M241.515 360.393C241.515 360.393 241.494 360.393 241.472 360.393L231.958 360.001C231.5 360.001 231.152 359.608 231.174 359.15C231.174 358.91 231.304 358.67 231.5 358.518L239.251 352.825C239.621 352.563 240.122 352.628 240.383 352.999C240.449 353.086 240.492 353.174 240.514 353.261L242.277 359.368C242.408 359.804 242.147 360.262 241.711 360.372C241.646 360.372 241.559 360.393 241.494 360.393H241.515ZM234.353 358.452L240.427 358.714L239.295 354.831L234.353 358.474V358.452ZM304.088 347.546C303.87 347.546 303.631 347.524 303.413 347.481C299.995 346.805 294.029 344.362 291.656 340.501C290.655 338.865 290.372 337.164 290.851 335.441C291.46 333.194 293.093 331.537 295.619 330.621C300.016 329.006 306.113 329.988 308.812 331.886C311.294 333.609 311.055 338.713 309.378 342.661C308.05 345.78 306.134 347.546 304.11 347.546H304.088ZM292.418 335.877C292.07 337.164 292.266 338.407 293.049 339.651C295.14 343.053 300.735 345.278 303.761 345.889C305.438 346.216 307.005 344.122 307.876 342.028C309.422 338.407 309.422 334.307 307.876 333.238C305.547 331.624 299.929 330.795 296.163 332.169C294.138 332.911 292.875 334.154 292.418 335.877ZM282.534 329.77C282.076 329.77 281.728 329.399 281.728 328.963C281.728 328.548 282.033 328.199 282.447 328.156C285.125 327.872 290.045 322.419 290.763 318.101C291.09 316.05 290.437 314.676 288.739 313.891C288.325 313.717 288.129 313.237 288.303 312.822C288.477 312.408 288.956 312.212 289.37 312.386C289.37 312.386 289.392 312.386 289.414 312.386C291.765 313.455 292.81 315.57 292.375 318.341C291.613 323.074 286.235 329.377 282.621 329.77C282.599 329.77 282.555 329.77 282.534 329.77ZM323.748 352.977C323.291 352.977 322.942 352.607 322.942 352.17C322.942 351.952 323.029 351.756 323.182 351.603C325.294 349.422 326.491 346.281 326.36 343.249C326.36 342.791 326.687 342.421 327.144 342.399C327.601 342.377 327.972 342.726 327.993 343.184C328.124 346.674 326.774 350.251 324.357 352.737C324.205 352.89 323.987 352.977 323.77 352.977H323.748ZM329.365 354.286C328.908 354.286 328.559 353.915 328.559 353.479C328.559 353.261 328.646 353.065 328.799 352.912C330.41 351.232 331.324 348.855 331.216 346.543C331.216 346.085 331.542 345.714 331.999 345.692C332.457 345.692 332.827 346.02 332.848 346.478C332.957 349.226 331.89 352.061 329.975 354.046C329.822 354.199 329.604 354.286 329.387 354.286H329.365ZM468.988 448.011C467.312 449.036 465.57 450.061 463.806 451.086C450.242 458.938 437.375 464.806 427.774 467.837C425.618 463.802 423.245 459.374 420.785 454.75C412.599 439.308 403.259 421.553 396.27 408.379C393.853 404.191 390.631 401.879 386.538 399.742V399.654C388.541 400.287 390.587 400.876 392.59 401.443C395.486 402.272 398.36 403.057 401.06 403.929C409.507 406.656 416.322 410.233 417.563 418.172C418.673 425.13 421.525 433.462 430.321 434.684C440.314 436.08 451.222 438.195 451.462 445.219C451.679 451.282 463.436 451.457 468.966 447.989L468.988 448.011Z" fill="#472C27"/>
<path d="M427.795 468.666C427.49 468.666 427.229 468.492 427.077 468.23C424.878 464.108 422.439 459.549 420.088 455.121C415.102 445.72 409.79 435.665 404.652 425.915C401.625 420.201 398.599 414.464 395.573 408.75C393.222 404.715 390.13 402.533 386.189 400.461C385.906 400.309 385.732 400.025 385.754 399.698V399.611C385.776 399.153 386.167 398.804 386.603 398.825C386.668 398.825 386.734 398.825 386.799 398.869C388.911 399.545 391.023 400.156 392.83 400.658L394.049 401.007C396.596 401.726 398.991 402.403 401.321 403.166C409.376 405.783 417.018 409.382 418.39 418.063C419.936 427.791 423.876 432.982 430.451 433.877C440.88 435.316 452.027 437.519 452.289 445.197C452.332 446.527 453.072 447.574 454.488 448.338C457.884 450.148 464.524 449.69 468.334 447.444L468.552 447.313C468.944 447.095 469.445 447.225 469.663 447.596C469.88 447.967 469.771 448.447 469.401 448.687C467.681 449.734 465.94 450.759 464.198 451.784C451.157 459.331 437.963 465.46 428.013 468.623C427.926 468.644 427.861 468.666 427.773 468.666H427.795ZM397.032 408.052C399.753 413.199 402.845 419.045 406.067 425.174C411.205 434.902 416.517 444.979 421.503 454.358C423.724 458.524 425.945 462.69 428.165 466.856C437.658 463.78 450.003 458.022 462.325 450.977C459.147 451.326 455.925 450.977 453.704 449.777C451.766 448.752 450.721 447.182 450.656 445.262C450.438 439.155 440.706 436.952 430.212 435.491C422.94 434.487 418.412 428.707 416.757 418.303C415.516 410.495 408.353 407.157 400.798 404.693C398.49 403.951 396.117 403.275 393.592 402.555L392.372 402.206L391.828 402.054C393.722 403.537 395.508 405.391 396.988 407.943C396.988 407.964 397.01 407.986 397.032 408.03V408.052Z" fill="#472C27"/>
<path d="M318.762 206.076L312.165 210.002C309.857 211.376 312.884 220.755 318.936 230.963C324.989 241.171 331.76 248.325 334.068 246.951L340.665 243.025L318.762 206.076Z" fill="#F09947"/>
<path d="M311.751 209.261L318.348 205.334C318.74 205.095 319.241 205.247 319.48 205.64L341.361 242.545C341.361 242.545 341.361 242.567 341.383 242.589C341.688 243.112 341.383 243.483 341.1 243.701C341.1 243.701 341.034 243.745 341.013 243.767C340.947 243.81 340.86 243.854 340.817 243.897L334.503 247.649C330.911 249.787 322.811 239.077 318.239 231.356C315.278 226.361 312.949 221.41 311.642 217.396C310.184 212.903 310.227 210.177 311.751 209.261ZM318.479 207.188L312.579 210.7C312.165 210.94 311.773 212.554 313.188 216.916C314.451 220.821 316.737 225.663 319.633 230.549C326.534 242.218 332.435 246.973 333.654 246.231L339.554 242.72L318.501 207.188H318.479Z" fill="#472C27"/>
<path d="M328.232 243.221L334.851 239.295C335.243 239.055 335.744 239.208 335.983 239.601C336.223 239.993 336.092 240.495 335.7 240.735L329.082 244.661C328.69 244.901 328.189 244.748 327.949 244.356C327.71 243.963 327.841 243.461 328.232 243.221ZM319.197 231.378L326.142 227.255C326.534 227.015 327.035 227.168 327.275 227.561C327.514 227.953 327.383 228.455 326.991 228.695L320.046 232.817C319.654 233.057 319.154 232.905 318.914 232.512C318.675 232.119 318.805 231.618 319.197 231.378ZM312.47 217.985L319.48 213.819C319.872 213.579 320.373 213.732 320.612 214.125C320.852 214.517 320.721 215.019 320.329 215.259L313.319 219.425C312.927 219.665 312.426 219.512 312.187 219.12C311.947 218.727 312.078 218.225 312.47 217.985Z" fill="#472C27"/>
<path d="M341.017 242.779C343.322 241.407 340.289 232.024 334.242 221.822C328.196 211.619 321.425 204.46 319.119 205.832C316.813 207.203 319.846 216.586 325.893 226.788C331.94 236.991 338.711 244.15 341.017 242.779Z" fill="#FEF8EE"/>
<path d="M318.675 205.138C322.267 203.001 330.366 213.71 334.938 221.431C339.51 229.153 345.019 241.411 341.426 243.527C337.834 245.664 329.735 234.955 325.163 227.233C320.591 219.512 315.082 207.254 318.675 205.138ZM340.577 242.109C341.796 241.389 340.446 233.93 333.545 222.282C326.643 210.613 320.743 205.858 319.524 206.6C318.304 207.341 319.654 214.779 326.556 226.426C333.458 238.096 339.358 242.85 340.577 242.109Z" fill="#472C27"/>
<path d="M344.453 159.29C340.469 160.904 336.092 163.805 332.086 167.731C328.059 171.679 325.076 175.976 323.399 179.902L317.739 185.442L323.399 191.179C323.399 191.179 323.487 191.288 323.53 191.331C323.574 191.375 323.639 191.419 323.682 191.462L323.77 191.55C328.146 195.476 338.596 191.833 347.37 183.218C356.144 174.624 359.998 164.285 356.123 159.857L350.092 153.728L344.431 159.268L344.453 159.29Z" fill="#F09947"/>
<path d="M316.933 185.813C316.781 185.486 316.846 185.072 317.107 184.81L322.637 179.401C324.444 175.278 327.558 170.916 331.455 167.099C335.352 163.282 339.772 160.25 343.952 158.527L349.482 153.118C349.83 152.769 350.375 152.79 350.723 153.118L356.776 159.225C356.776 159.225 356.884 159.356 356.928 159.421C360.934 164.307 357.059 174.973 348.001 183.85C338.901 192.749 328.08 196.436 323.269 192.269C323.225 192.248 323.182 192.204 323.138 192.16L323.029 192.073C323.029 192.073 322.942 191.986 322.899 191.942C322.855 191.899 322.811 191.855 322.768 191.811L322.724 191.768L317.085 186.053C317.085 186.053 316.955 185.901 316.911 185.813H316.933ZM350.092 154.972L345.062 159.901C345.062 159.901 344.888 160.054 344.779 160.097C340.773 161.711 336.462 164.656 332.696 168.364C328.929 172.072 325.903 176.282 324.205 180.251C324.161 180.36 324.096 180.448 324.009 180.535L318.98 185.464L324.183 190.743C324.183 190.743 324.205 190.764 324.227 190.786L324.335 190.895C324.335 190.895 324.357 190.917 324.379 190.939C328.385 194.538 338.444 190.83 346.782 182.651C355.121 174.493 359.04 164.547 355.491 160.49C355.469 160.468 355.447 160.425 355.426 160.403L350.113 155.037L350.092 154.972Z" fill="#472C27"/>
<path d="M350.636 164.111C350.418 163.674 350.614 163.151 351.05 162.955C351.398 162.78 351.79 162.867 352.051 163.129L357.059 168.211C357.407 168.56 357.385 169.105 357.059 169.454C356.71 169.803 356.166 169.782 355.818 169.454L350.81 164.372C350.81 164.372 350.68 164.22 350.636 164.132V164.111ZM341.688 177.263C341.47 176.827 341.666 176.303 342.101 176.107C342.45 175.932 342.842 176.02 343.103 176.281L348.698 181.952C349.025 182.301 349.003 182.869 348.633 183.196C348.285 183.501 347.762 183.501 347.436 183.196L341.84 177.525C341.84 177.525 341.71 177.372 341.666 177.285L341.688 177.263ZM330.17 186.184C329.953 185.748 330.149 185.224 330.584 185.028C330.932 184.853 331.324 184.941 331.586 185.202L336.724 190.415C337.072 190.764 337.05 191.31 336.724 191.659C336.397 192.008 335.831 191.986 335.483 191.659L330.345 186.446C330.345 186.446 330.214 186.293 330.17 186.206V186.184Z" fill="#472C27"/>
<path d="M341.509 177.421C350.47 168.682 354.334 158.099 350.141 153.783C345.947 149.468 335.283 153.053 326.323 161.792C317.362 170.531 313.498 181.114 317.692 185.429C321.885 189.745 332.549 186.16 341.509 177.421Z" fill="#FEF8EE"/>
<path d="M315.888 184.33C313.341 179.03 317.238 169.454 325.642 161.21C330.062 156.891 335.047 153.641 339.663 152.071C344.496 150.435 348.437 150.806 350.723 153.118C355.36 157.807 351.594 168.713 342.167 177.961C337.747 182.28 332.761 185.53 328.146 187.1C323.312 188.736 319.372 188.365 317.085 186.053C316.585 185.551 316.171 184.963 315.866 184.33H315.888ZM350.353 155.604C350.135 155.146 349.83 154.71 349.482 154.361C347.675 152.55 344.387 152.311 340.229 153.728C335.853 155.211 331.107 158.309 326.861 162.453C319.219 169.934 315.3 179.052 317.477 183.567C317.695 184.025 318 184.461 318.348 184.81C320.155 186.62 323.443 186.86 327.601 185.442C331.977 183.959 336.724 180.862 340.969 176.718C348.611 169.236 352.53 160.119 350.353 155.604Z" fill="#472C27"/>
<path d="M319.589 180.927C318.827 179.335 319.132 176.936 320.504 174.035C322.05 170.763 324.771 167.121 328.189 163.805C334.547 157.589 343.103 152.79 346.456 156.193C349.809 159.574 344.845 168.015 338.487 174.231C335.091 177.568 331.39 180.229 328.08 181.713C324.51 183.305 321.723 183.37 320.243 181.865C319.981 181.604 319.764 181.298 319.611 180.949L319.589 180.927ZM345.193 157.393C343.342 155.517 336.397 158.178 329.408 165.027C326.143 168.211 323.552 171.679 322.093 174.755C320.809 177.503 320.569 179.684 321.484 180.6C322.398 181.516 324.597 181.32 327.362 180.099C330.475 178.703 334.002 176.172 337.268 172.988C344.257 166.139 347.065 159.29 345.193 157.414V157.393Z" fill="#472C27"/>
<path d="M398.425 210.22C394.833 207.865 389.977 205.902 384.447 204.833C378.917 203.764 373.692 203.764 369.512 204.615L361.761 203.11L360.281 211.049C360.281 211.049 360.237 211.18 360.237 211.246C360.237 211.311 360.237 211.376 360.215 211.442V211.551C359.497 217.396 368.423 223.918 380.485 226.252C392.547 228.586 403.215 225.859 404.63 220.167L406.219 211.704L398.447 210.199L398.425 210.22Z" fill="#F09947"/>
<path d="M360.978 202.674C361.152 202.346 361.522 202.172 361.892 202.259L369.491 203.721C373.91 202.848 379.266 202.935 384.6 203.982C389.934 205.029 394.964 206.949 398.752 209.392L406.35 210.875C406.829 210.962 407.134 211.42 407.047 211.9L405.458 220.363C405.458 220.363 405.414 220.515 405.392 220.581C403.672 226.666 392.721 229.545 380.268 227.146C367.792 224.725 358.605 217.898 359.28 211.573C359.28 211.507 359.28 211.464 359.28 211.398V211.267C359.28 211.267 359.323 211.136 359.323 211.093C359.323 211.027 359.345 210.962 359.367 210.918V210.875L360.847 202.979C360.847 202.892 360.891 202.804 360.934 202.717L360.978 202.674ZM405.175 212.402L398.273 211.071C398.164 211.049 398.055 211.006 397.946 210.94C394.332 208.563 389.477 206.687 384.295 205.684C379.114 204.68 373.932 204.593 369.708 205.465C369.599 205.487 369.469 205.487 369.36 205.465L362.458 204.135L361.087 211.42C361.087 211.42 361.087 211.464 361.087 211.485V211.638C361.087 211.638 361.065 211.682 361.065 211.704C360.39 217.047 369.164 223.22 380.616 225.445C392.068 227.67 402.453 225.227 403.759 219.992C403.759 219.948 403.781 219.905 403.803 219.883L405.196 212.445L405.175 212.402Z" fill="#472C27"/>
<path d="M397.99 218.051C398.229 217.636 398.752 217.483 399.187 217.723C399.514 217.92 399.688 218.291 399.623 218.639L398.316 225.663C398.229 226.143 397.772 226.448 397.293 226.361C396.814 226.274 396.509 225.816 396.596 225.336L397.903 218.312C397.903 218.312 397.946 218.138 397.99 218.051ZM382.096 218.16C382.336 217.745 382.858 217.593 383.294 217.832C383.62 218.029 383.795 218.4 383.729 218.749L382.271 226.579C382.162 227.059 381.704 227.342 381.225 227.233C380.768 227.124 380.485 226.688 380.551 226.252L382.009 218.421C382.009 218.421 382.053 218.247 382.096 218.16ZM368.228 213.754C368.467 213.339 368.99 213.187 369.425 213.427C369.752 213.623 369.926 213.994 369.861 214.343L368.511 221.54C368.424 222.02 367.966 222.326 367.487 222.238C367.008 222.151 366.704 221.693 366.791 221.213L368.141 214.015C368.141 214.015 368.184 213.841 368.228 213.754Z" fill="#472C27"/>
<path d="M406.205 211.774C407.358 205.863 398.344 199.123 386.071 196.719C373.798 194.316 362.914 197.16 361.76 203.071C360.607 208.982 369.621 215.722 381.894 218.126C394.167 220.529 405.051 217.685 406.205 211.774Z" fill="#FEF8EE"/>
<path d="M361.609 200.95C364.505 195.825 374.585 193.6 386.124 195.825C392.198 197.002 397.685 199.249 401.604 202.172C405.719 205.225 407.635 208.672 407.047 211.878C405.828 218.378 394.746 221.497 381.791 218.989C375.717 217.811 370.231 215.564 366.312 212.641C362.197 209.588 360.281 206.141 360.869 202.935C360.999 202.237 361.239 201.561 361.587 200.95H361.609ZM404.804 212.99C405.066 212.532 405.24 212.052 405.327 211.551C405.806 209.042 404.108 206.207 400.581 203.568C396.858 200.798 391.611 198.66 385.819 197.548C375.325 195.519 365.615 197.482 363.133 201.845C362.872 202.303 362.698 202.782 362.61 203.284C362.131 205.792 363.83 208.628 367.357 211.267C371.08 214.037 376.327 216.175 382.118 217.287C392.612 219.316 402.322 217.353 404.804 212.99Z" fill="#472C27"/>
<path d="M366.508 202.063C367.379 200.514 369.512 199.424 372.691 198.9C376.262 198.311 380.79 198.486 385.471 199.402C394.202 201.103 402.998 205.422 402.127 210.089C401.256 214.779 391.502 215.499 382.793 213.819C378.112 212.903 373.845 211.376 370.732 209.501C367.379 207.472 365.746 205.204 366.138 203.132C366.203 202.761 366.334 202.412 366.53 202.085L366.508 202.063ZM400.385 209.74C400.864 207.145 394.724 202.957 385.145 201.081C380.66 200.209 376.349 200.034 372.996 200.601C370.013 201.103 368.097 202.15 367.858 203.415C367.618 204.68 369.033 206.381 371.624 207.974C374.542 209.74 378.635 211.202 383.098 212.074C392.678 213.928 399.906 212.336 400.407 209.74H400.385Z" fill="#472C27"/>
</g>
<defs>
<clipPath id="clip0_543_10593">
<rect width="506" height="471" fill="white"/>
</clipPath>
</defs>
</svg>
