<svg width="595" height="491" viewBox="0 0 595 491" fill="none" xmlns="http://www.w3.org/2000/svg">
<g clip-path="url(#clip0_543_10551)">
<path d="M20.0289 167.981C40.7524 42.2078 190.602 -0.618052 311.277 12.3823C413.042 23.4123 535.724 89.747 496.708 231.766C469.347 331.326 372.155 408.961 259.121 394.338C247.679 392.85 75.8318 312.26 75.8318 312.26C44.8045 279.517 11.6739 249.924 20.0482 168.02C20.0482 168.02 20.0482 168.02 20.0482 168L20.0289 167.981Z" fill="#F5BE7C"/>
<path d="M588.324 296.71H226.434C225.006 296.71 223.636 296.149 222.613 295.126C221.591 294.102 221.031 292.73 221.031 291.301V6.68388C221.031 3.70906 223.424 1.29443 226.376 1.29443H588.285C590.465 1.29443 592.434 2.58867 593.263 4.61696C593.553 5.27374 593.668 5.96915 593.668 6.68388V291.378C593.649 294.334 591.237 296.729 588.285 296.71H588.304H588.324Z" fill="#FEF8EE"/>
<path d="M593.514 19.7806V7.12797C593.514 4.17247 591.141 1.75784 588.189 1.73853H226.55C223.598 1.73853 221.205 4.13384 221.186 7.08934V19.7613H593.534L593.514 19.7806Z" fill="#F09947"/>
<path d="M585.7 10.7017L588.883 7.47575C589.269 7.08941 589.25 6.49058 588.883 6.08492C588.71 5.91107 588.459 5.79517 588.189 5.79517C587.918 5.79517 587.687 5.91107 587.494 6.08492L584.31 9.31086L581.126 6.08492C580.741 5.69858 580.142 5.69858 579.737 6.08492C579.351 6.47126 579.351 7.07009 579.737 7.47575L582.921 10.7017L579.737 13.889C579.371 14.2753 579.409 14.9128 579.795 15.2798C580.162 15.6275 580.741 15.6275 581.107 15.2798L584.291 12.0539L587.475 15.2798C587.861 15.6662 588.459 15.6662 588.864 15.2798C589.25 14.8935 589.25 14.2947 588.864 13.889L585.68 10.6631L585.7 10.7017Z" fill="#472C27"/>
<path d="M588.574 9.73167e-05H226.145C222.633 9.73167e-05 219.758 2.82038 219.739 6.37471V290.992C219.758 294.527 222.633 297.386 226.145 297.366H588.574C592.067 297.405 594.942 294.585 594.981 291.069V6.37471C594.961 2.8397 592.086 -0.0192197 588.574 9.73167e-05ZM226.145 1.95112H588.574C591.025 1.95112 593.012 3.92145 593.032 6.37471V19.4717H221.668V6.37471C221.687 3.92145 223.694 1.9318 226.125 1.95112H226.145ZM593.07 21.4227V57.1398H221.687V21.4227H593.07ZM588.574 295.396H226.145C223.694 295.396 221.707 293.426 221.687 290.972V59.0716H593.07V291.069C593.032 293.503 591.025 295.454 588.613 295.415H588.594L588.574 295.396Z" fill="#472C27"/>
<path d="M571.44 15.589H567.562C565.96 15.589 564.648 14.2755 564.648 12.6721V8.78943C564.648 7.1668 565.941 5.87256 567.562 5.87256H571.44C573.042 5.87256 574.354 7.18612 574.354 8.78943V12.6721C574.354 14.2948 573.061 15.589 571.44 15.589ZM567.542 7.78494C567.002 7.78494 566.578 8.20992 566.578 8.75079V12.6335C566.578 13.1744 567.002 13.5994 567.542 13.5994H571.421C571.961 13.5994 572.385 13.1744 572.385 12.6335V8.75079C572.385 8.20992 571.961 7.78494 571.421 7.78494H567.542ZM558.512 15.589H550.774C550.234 15.589 549.81 15.164 549.81 14.6232C549.81 14.372 549.925 14.1209 550.099 13.9278C550.273 13.7539 550.524 13.638 550.794 13.638H558.531C559.071 13.638 559.496 14.063 559.496 14.6039C559.496 14.855 559.38 15.1061 559.207 15.2993C559.033 15.4731 558.782 15.589 558.512 15.589ZM550.755 49.3358H314.364C312.396 49.3358 310.814 47.7325 310.814 45.7815V32.8005C310.814 30.8301 312.415 29.2462 314.364 29.2462H550.755C552.723 29.2462 554.305 30.8495 554.305 32.8005V45.7815C554.305 47.7519 552.704 49.3358 550.755 49.3358ZM314.364 31.1585C313.477 31.1585 312.743 31.8926 312.743 32.7812V45.7622C312.743 46.6701 313.477 47.3848 314.364 47.3848H550.755C551.643 47.3848 552.376 46.6508 552.376 45.7622V32.7812C552.376 31.8733 551.643 31.1585 550.755 31.1585H314.364ZM256.883 48.0416C256.342 48.0416 255.918 47.6166 255.918 47.0758C255.918 46.786 256.053 46.5156 256.265 46.3417L264.466 39.291L256.265 32.2403C255.86 31.8926 255.821 31.2744 256.149 30.8495C256.477 30.4245 257.114 30.4052 257.5 30.7336L266.53 38.5183C266.936 38.866 266.974 39.4842 266.646 39.9091C266.627 39.9478 266.588 39.9671 266.53 40.025L257.5 47.8098C257.326 47.9643 257.095 48.0416 256.883 48.0416ZM241.369 48.0416C241.137 48.0416 240.925 47.9643 240.752 47.8098L231.721 40.025C231.316 39.6773 231.277 39.0592 231.605 38.6342C231.625 38.5956 231.663 38.5763 231.721 38.5183L240.752 30.7336C241.157 30.3859 241.793 30.4438 242.102 30.8688C242.43 31.2744 242.392 31.8539 241.986 32.2017L233.786 39.2524L241.986 46.3031C242.392 46.6508 242.43 47.2689 242.102 47.6939C241.909 47.9064 241.658 48.0416 241.369 48.0416ZM295.956 38.3058C295.416 38.3058 294.992 38.7308 294.992 39.2717C295.011 42.884 292.116 45.8395 288.547 45.8588C286.405 45.8588 284.398 44.835 283.183 43.0771C281.118 40.1216 281.832 36.0457 284.765 33.9595C286.521 32.7232 288.759 32.4335 290.766 33.1675L288.913 33.7856C288.392 33.9595 288.142 34.5197 288.315 35.0219C288.392 35.2537 288.566 35.4662 288.798 35.5821C289.029 35.698 289.299 35.7174 289.531 35.6208L293.409 34.3265C293.814 34.1913 294.085 33.805 294.085 33.38C294.085 33.2448 294.046 33.0902 293.969 32.9743L292.02 29.0916C291.769 28.6087 291.171 28.4348 290.708 28.7053C290.264 28.9371 290.052 29.4973 290.283 29.9802L290.882 31.1972C286.424 29.9222 281.774 32.5107 280.5 36.9923C280.269 37.8036 280.153 38.6535 280.172 39.5035C280.23 44.1589 284.032 47.9064 288.663 47.8291C293.294 47.7519 297.018 43.9657 296.94 39.3103C296.94 38.7694 296.516 38.3445 295.976 38.3445L295.956 38.3058ZM584.04 46.7087L578.579 41.2227C580.972 38.0933 580.548 33.6311 577.595 31.0233C574.508 28.2996 569.781 28.6087 567.079 31.7187C564.359 34.8288 564.667 39.5614 567.774 42.3045C570.456 44.6611 574.412 44.7963 577.248 42.6135L582.709 48.0996C583.095 48.4859 583.693 48.4859 584.098 48.0996C584.484 47.7132 584.484 47.1144 584.098 46.7087H584.079H584.04ZM567.234 36.6832C567.234 33.6311 569.684 31.1585 572.733 31.1585C575.782 31.1585 578.232 33.6118 578.232 36.6832C578.232 39.7546 575.782 42.2079 572.733 42.2079C569.684 42.2079 567.253 39.716 567.234 36.6832Z" fill="#472C27"/>
<path d="M257.77 132.07C287.486 93.6488 332.85 81.3825 384.909 102.979C448.315 129.598 472.28 193.247 428.691 254.56C400.577 294.14 353.303 281.101 303.655 254.521C234.673 217.587 228.074 170.453 257.79 132.051L257.77 132.07Z" fill="#FDEED7"/>
<mask id="mask0_543_10551" style="mask-type:luminance" maskUnits="userSpaceOnUse" x="-1" y="103" width="385" height="389">
<path d="M206.327 103.731L-0.0148926 326.808L177.113 491.012L383.455 267.935L206.327 103.731Z" fill="white"/>
</mask>
<g mask="url(#mask0_543_10551)">
<path d="M26.2422 311.139C26.2422 311.139 14.0666 337.314 15.4366 337.236C16.8259 337.159 23.097 328.447 23.097 328.447C23.097 328.447 19.3536 345.523 20.9359 345.369C22.5181 345.214 27.4964 333.025 28.6734 333.296C29.8504 333.566 25.1423 350.836 27.4385 350.971C29.7733 351.106 34.0762 335.189 34.0762 335.189C34.0762 335.189 34.0955 349.425 35.9479 349C37.8002 348.575 40.2894 335.633 40.2894 335.633C40.2894 335.633 42.7785 343.398 46.6762 342.008L42.7592 325.144L43.1065 318.595C43.1065 318.595 32.301 319.175 26.2422 311.1V311.139ZM251.345 156.951C251.345 156.951 260.723 154.459 260.896 155.695C261.089 156.951 253.275 162.591 253.275 162.591C253.275 162.591 253.332 160.911 251.326 156.931L251.345 156.951Z" fill="#F09947"/>
<path d="M228.711 230.491C228.711 230.491 212.175 240.593 199.575 231.669C186.975 222.744 186.319 214.129 188.827 207.02L196.777 209.358L212.406 186.351L211.596 175.649C211.596 175.649 202.623 159.655 203.704 159.191C204.785 158.747 215.243 148.683 215.243 148.683L225.373 144.066C225.373 144.066 241.639 146.751 248.045 153.377C253.12 158.515 254.857 166.068 252.58 172.945C250.978 177.832 248.837 183.512 242.45 189.152C236.063 194.812 233.072 193.981 233.072 193.981L219.391 221.605C219.391 221.605 227.09 228.25 228.692 230.568V230.529L228.711 230.491ZM278.957 209.3C278.957 209.3 275.252 199.409 273.438 194.928C271.625 190.446 268.344 184.323 267.65 184.999C266.936 185.656 269.965 195.623 269.425 196.01C268.865 196.377 268.557 196.879 267.997 196.01C267.418 195.14 262.845 187.182 260.896 184.96C258.947 182.739 257.674 183.067 257.616 184.535C257.558 186.003 258.562 188.688 258.562 188.688C258.562 188.688 254.278 182.333 253.178 183.396C252.097 184.419 253.217 188.843 254.085 190.813C254.953 192.784 257.076 198.482 257.076 198.482C257.076 198.482 253.178 193.653 253.043 193.421C252.908 193.189 249.049 188.65 248.393 189.577C247.737 190.504 250.805 196.782 251.248 197.362C251.654 197.961 254.934 203.485 254.934 203.485C254.934 203.485 249.628 199.97 248.586 199.776C247.563 199.583 244.9 199.699 244.148 201.766L258.851 212.564L261.977 216.447L278.957 209.338V209.3Z" fill="#F09947"/>
<path d="M269.965 390.493C272.821 384.061 258.774 372.857 246.483 364.589C229.406 353.076 205.576 340.346 179.392 328.776C153.207 317.205 127.776 308.106 107.766 303.219C81.6978 296.845 74.3655 299.742 72.7833 303.277C71.201 306.812 74.7514 311.777 80.2893 316.915C85.8271 322.053 90.7282 325.472 96.266 329.181C113.343 340.694 137.173 353.424 163.357 364.995C189.541 376.566 214.973 385.664 234.982 390.551C261.031 396.926 268.383 394.028 269.965 390.493Z" fill="#472C27"/>
<path d="M304.119 307.952C306.28 296.226 308.692 288.925 298.735 260.76C288.779 232.577 278.976 209.281 278.976 209.281L261.958 216.389C266.55 226.55 270.602 236.943 274.133 247.548C279.71 264.489 278.687 278.764 271.798 282.183C264.948 285.621 251.133 275.19 246.733 263.059C242.334 250.889 234.114 236.286 228.73 230.51C228.73 230.51 215.532 240.555 200.771 232.094C186.01 223.633 187.361 214.322 188.866 207.078C188.866 207.078 165.344 202.925 138.234 210.826C111.124 218.727 89.8985 232.287 68.0558 254.907C46.2324 277.508 28.5384 307.662 26.2615 311.178C30.7767 315.698 36.8934 318.229 43.2802 318.267C43.2802 318.267 59.2956 294.623 75.9284 286.78C92.5612 278.938 100.415 278.397 110.024 279.266L112.918 279.44C112.918 279.44 96.5747 306.947 87.4865 321.126C90.2844 323.309 93.5067 325.646 97.0571 328.061C114.076 339.516 137.809 352.207 163.936 363.759C168.258 365.671 172.6 367.564 176.98 369.341C180.974 366.83 197.491 349.059 204.727 339.767L211.364 330.302C211.364 330.302 221.919 338.086 238.185 342.78C254.471 347.475 269.174 345.466 279.864 339.284C290.554 333.103 301.9 319.697 304.061 307.991L304.119 307.952ZM238.398 166.281C242.662 164.793 245.614 162.07 244.958 160.196C244.302 158.322 240.327 158.013 236.024 159.501C231.76 160.988 228.808 163.712 229.464 165.585C230.12 167.459 234.095 167.768 238.398 166.281Z" fill="#FEF8EE"/>
<path d="M245.672 159.964C244.862 157.627 240.655 157.163 235.831 158.824C233.844 159.5 232.03 160.524 230.448 161.896C228.981 163.229 228.402 164.639 228.808 165.817C228.943 166.203 229.155 166.532 229.464 166.802C230.988 168.232 234.635 168.348 238.648 166.957C243.453 165.296 246.482 162.263 245.653 159.964H245.672ZM230.158 165.392C229.946 164.774 230.409 163.885 231.413 162.958C232.84 161.722 234.5 160.795 236.314 160.215C236.68 160.08 237.047 159.983 237.413 159.867C236.179 160.988 235.58 162.147 235.947 163.113C236.352 164.272 238.07 164.832 240.346 164.735C239.652 165.083 238.919 165.392 238.185 165.643C234.153 167.053 230.621 166.686 230.158 165.392ZM258.021 204.992C258.021 204.992 257.905 204.857 257.867 204.799C257.674 204.451 257.809 204.046 258.156 203.852L269.849 197.748C270.023 197.671 270.216 197.632 270.39 197.71C270.679 197.787 270.872 198.038 270.891 198.328C270.891 198.521 270.853 198.695 270.718 198.849C270.66 198.907 270.583 198.984 270.505 199.023L258.812 205.127C258.562 205.282 258.214 205.243 258.002 205.011H258.041L258.021 204.992ZM243.742 180.923C246.637 178.122 247.814 174.664 246.386 173.177C244.958 171.709 241.466 172.791 238.571 175.592C235.677 178.393 234.5 181.85 235.928 183.338C237.356 184.806 240.848 183.724 243.742 180.923Z" fill="#472C27"/>
<path d="M235.542 183.975L235.426 183.859C234.539 182.951 234.365 181.483 235.002 179.764C235.677 177.987 236.758 176.403 238.147 175.109C241.389 171.979 245.267 170.936 246.984 172.713C247.872 173.621 248.046 175.089 247.409 176.808C246.733 178.586 245.653 180.17 244.264 181.464C242.932 182.797 241.311 183.821 239.517 184.439C237.838 184.96 236.41 184.786 235.523 183.956L235.542 183.975ZM245.865 173.66C244.823 172.713 241.871 173.467 239.112 176.152C237.877 177.291 236.931 178.682 236.333 180.228C235.928 181.406 235.966 182.372 236.468 182.855L236.507 182.893C237.008 183.338 237.954 183.415 239.073 183.067C240.655 182.507 242.064 181.618 243.26 180.421C244.495 179.281 245.441 177.89 246.039 176.345C246.444 175.167 246.405 174.201 245.904 173.718L245.865 173.679V173.66Z" fill="#472C27"/>
<path d="M121.447 333.257C121.312 333.122 121.235 332.948 121.215 332.774C121.215 332.388 121.505 332.04 121.891 332.021C152.918 330.224 172.426 325.492 183.289 321.899C197.028 317.32 201.659 312.935 201.755 311.545C201.775 311.236 201.678 310.946 201.427 310.733C198.842 308.319 185.508 309.806 175.783 310.927C164.013 312.259 160.173 312.549 159.71 310.811C159.401 309.652 160.192 308.261 172.966 302.717C194.191 293.561 206.753 283.825 213.583 277.257C220.916 270.206 223.27 265.3 223.289 265.222C223.347 265.049 223.501 264.894 223.694 264.836C224.061 264.682 224.466 264.855 224.621 265.222C224.698 265.416 224.678 265.628 224.601 265.802C224.524 266.014 222.093 270.979 214.568 278.242C207.679 284.868 194.963 294.739 173.545 303.953C163.994 308.068 161.698 309.69 161.215 310.328C162.739 310.869 169.84 310.038 175.629 309.4C186.743 308.126 199.324 306.696 202.411 309.574L202.45 309.613C202.99 310.115 203.26 310.849 203.222 311.564C202.99 314.693 195.175 319.387 183.752 323.174C172.793 326.844 153.188 331.576 121.987 333.392C121.813 333.431 121.62 333.392 121.505 333.238H121.447V333.257ZM114.423 261.707C114.018 261.34 113.748 260.837 113.671 260.316C113.478 259.447 113.844 258.152 120.771 254.077C124.515 251.855 129.821 249.054 136.517 245.712C147.882 240.052 159.498 234.817 159.633 234.76C160 234.605 160.405 234.76 160.559 235.127C160.617 235.3 160.636 235.494 160.559 235.648C160.501 235.822 160.366 235.976 160.192 236.054C160.077 236.112 148.885 241.153 137.732 246.678C131.191 249.904 125.962 252.686 122.161 254.869C115.813 258.539 115.137 259.756 115.041 260.007C115.639 262.286 122.238 260.895 128.085 259.64C135.243 258.133 142.672 256.568 144.949 259.794C145.065 259.949 145.103 260.142 145.084 260.316C145.065 260.509 144.949 260.664 144.795 260.76C144.64 260.857 144.447 260.915 144.274 260.895C144.081 260.876 143.926 260.76 143.83 260.606C142.074 258.114 134.819 259.678 128.432 261.011C122.122 262.402 116.507 263.581 114.443 261.668H114.423V261.707ZM53.4876 281.681C52.6386 280.908 53.2947 279.401 54.0472 277.991C56.0539 274.244 62.5566 268.159 73.3621 259.968C81.3698 253.883 88.8951 248.803 88.953 248.764C89.3003 248.552 89.7248 248.648 89.9178 248.996C90.1107 249.325 90.0336 249.73 89.7248 249.943C89.4161 250.155 59.8745 270.129 55.2628 278.706C54.8962 279.285 54.6454 279.961 54.491 280.618C54.9155 280.579 56.3434 280.193 60.6656 277.083C63.4056 275.113 65.8754 273.065 65.914 273.046C66.1263 272.853 66.4543 272.833 66.7051 272.969C66.8788 273.046 67.0139 273.2 67.0525 273.394C67.1296 273.683 67.0525 273.973 66.8209 274.166C66.8209 274.166 64.0616 276.426 61.1866 278.493C55.6873 282.395 54.2595 282.376 53.5069 281.777C53.5069 281.777 53.4876 281.751 53.449 281.7H53.4876V281.681Z" fill="#F09947"/>
<path d="M303.077 313.863C307.341 303.045 308.209 291.185 305.585 279.884C299.912 255.236 281.215 212.564 279.729 209.203C279.729 209.165 279.729 209.087 279.69 209.029C279.69 208.952 277.471 203.099 275.001 197.169C269.907 184.922 268.769 184.497 268.209 184.284C267.958 184.168 267.65 184.207 267.399 184.304C266.222 184.883 266.724 187.027 267.958 191.354C268.364 192.822 268.769 194.31 269 195.411V195.449C269 195.449 269 195.585 268.962 195.623C268.962 195.623 268.923 195.623 268.904 195.643C268.75 195.701 268.711 195.604 268.692 195.565C267.727 193.846 265.778 190.543 263.868 187.684C260.588 182.778 259.333 182.005 258.388 182.372C257.867 182.565 257.481 182.971 257.307 183.492C257.134 184.207 257.134 184.941 257.307 185.656C256.072 183.994 254.915 182.739 254.008 182.507C253.622 182.391 253.217 182.449 252.869 182.662C251.171 183.724 252.329 187.723 255.513 195.662C251.924 190.311 249.724 187.839 248.045 188.901C247.795 189.056 247.621 189.326 247.563 189.635C247.216 191.393 250.149 197.053 253.062 201.67C251.538 200.607 249.898 199.757 248.161 199.081C246.695 198.405 244.939 198.888 244.013 200.201C243.704 200.626 243.511 201.109 243.434 201.631C243.395 201.863 243.453 202.133 243.646 202.288C243.646 202.288 243.685 202.326 243.723 202.288L258.234 212.912C258.234 212.912 258.234 212.951 258.272 212.97C260.105 215.346 261.321 216.718 261.417 216.853C262.073 218.244 266.608 227.825 270.602 239.164C274.558 250.368 278.745 265.609 276.391 274.572C275.098 279.401 272.551 282.067 268.943 282.26C265.219 282.453 260.53 279.923 256.092 275.345C251.287 270.38 246.984 263.31 244.051 255.467C239.227 242.564 232.918 233.871 228.48 228.868C226.068 226.067 223.347 223.536 220.395 221.315L233.747 194.387C236.931 193.711 239.922 192.32 242.488 190.311C247.023 186.448 250.535 181.522 252.734 175.997C254.008 172.617 255.088 168 254.22 163.151C254.895 162.669 256.285 161.683 257.713 160.544C261.359 157.627 261.745 156.468 261.707 155.734C261.687 155.367 261.475 155.038 261.166 154.845C260.626 154.478 259.468 154.169 255.378 155.174C253.68 155.579 252.117 156.062 251.499 156.236C248.701 152.025 243.569 148.509 236.584 146.075C233.033 144.82 229.367 143.912 225.624 143.39H225.489C224.949 142.965 224.37 142.579 223.772 142.25C219.198 139.643 211.114 139.971 206.695 140.396C200.115 141.014 193.651 142.637 190.197 144.491C186.975 146.191 185.084 148.219 184.524 150.479C184.08 152.334 184.524 154.285 185.875 156.275C186.82 157.685 188.827 160.621 188.403 162.34C188.268 162.842 187.92 163.267 187.457 163.48C186.936 163.77 186.203 164.04 185.431 164.368C182.903 165.412 179.777 166.706 178.986 169.256C178.543 170.666 178.928 172.25 180.048 173.988C180.376 174.491 180.762 174.935 181.186 175.34C184.042 177.968 188.596 178.141 192.049 178.257C193.96 178.296 196.333 178.412 196.333 179.03C196.333 180.015 195.677 180.884 195.06 181.715C193.979 183.164 192.648 184.96 195.542 187.278C198.822 189.886 206.367 190.369 209.223 190.427L196.7 208.527C195.04 207.812 189.946 205.9 180.955 205.205C162.817 203.794 143.193 208.469 129.937 212.661C109.04 219.345 88.7021 232.693 69.4837 252.261C57.4046 264.585 45.8079 279.285 34.848 296.149L34.8094 296.188C34.8094 296.188 34.6743 296.362 34.6551 296.477C31.6642 301.075 28.7506 305.846 25.8755 310.753C25.8177 310.811 25.7598 310.888 25.7212 310.946C25.7019 311.004 22.7497 317.185 19.9325 323.444C14.1438 336.444 14.6262 337.217 14.9349 337.739C15.1279 338.048 15.4559 338.222 15.8032 338.222C16.3049 338.222 17.1539 338.222 20.8587 332.948C21.2253 332.446 21.5726 331.963 21.9006 331.441C21.6112 332.716 21.3218 334.165 21.013 335.633C19.2571 344.326 19.9325 345.311 20.2219 345.736C20.2605 345.794 20.3377 345.871 20.3956 345.929C20.5692 346.084 20.8008 346.18 21.013 346.238C22.4216 346.431 23.6565 344.113 26.3579 338.395C27.014 336.985 27.8437 335.208 28.4805 334.126C28.3261 335.44 27.9402 337.565 27.5736 339.342C26.1457 346.721 25.3739 351.299 27.4578 351.84C28.7313 352.188 29.8311 350.758 31.2011 346.895C32.1852 344.171 33.15 340.771 33.8832 338.028C33.7289 344.48 33.9411 348.266 35.2725 349.483C35.4655 349.657 35.697 349.792 35.9672 349.87C36.2759 349.947 36.6232 349.889 36.8741 349.696C37.6459 349.174 38.7457 347.281 40.6753 338.028C41.2156 339.052 41.8137 340.037 42.4891 340.965C42.7399 341.351 43.0679 341.718 43.4153 342.046C45.0168 343.534 46.5605 343.167 47.2937 342.665C47.5252 342.51 47.6603 342.22 47.6024 341.93L43.3574 323.463V323.425H43.3381C43.7047 321.165 43.9363 319.523 44.0327 319.001C45.0747 317.456 58.0992 298.602 72.0114 289.852C83.8975 282.395 96.9992 279.169 111.953 280.019C109.155 284.598 96.4976 305.363 86.9655 321.223C86.7918 321.512 86.8304 321.899 87.0813 322.111C87.1199 322.15 87.1392 322.169 87.2164 322.188C87.39 322.266 87.583 322.304 87.7566 322.246C87.9496 322.208 88.104 322.073 88.2004 321.918C93.0436 313.824 98.7166 304.475 103.483 296.613C105.528 297.675 112.32 300.341 120.212 294.758C123.917 292.131 126.194 286.916 135.205 288.442C142.826 289.736 146.338 281.661 147.264 279.092C156.005 276.948 162.296 273.394 167.756 269.897C168.084 269.685 168.181 269.221 167.969 268.873C167.756 268.526 167.293 268.449 166.946 268.661C156.758 275.19 143.675 281.874 116.739 278.918C99.5077 277.045 84.6307 280.213 71.2589 288.596C64.0423 293.116 57.0959 300.302 51.8475 306.464C45.2098 304.243 38.244 298.216 36.3724 296.535C47.1972 279.884 58.6781 265.358 70.6028 253.227C89.0494 234.451 108.519 221.489 128.451 214.651C131.886 219.924 141.418 221.837 151.297 218.92C159.247 216.544 165.286 211.695 167.37 206.576C171.847 206.267 176.362 206.267 180.858 206.576C183.309 206.75 185.759 207.078 188.19 207.523C187.399 209.937 187.091 212.506 187.303 215.056C187.612 218.707 189.117 223.691 194.211 228.424C195.31 229.447 196.488 230.394 197.722 231.225C203.916 235.513 211.615 237.039 218.967 235.416C222.247 234.721 225.392 233.562 228.325 231.939C228.653 232.384 228.981 232.867 229.309 233.349C235.966 243.22 239.517 254.869 239.497 266.787C239.497 274.475 236.545 291.938 216.092 322.787C214.568 325.125 212.966 327.423 211.345 329.703C211.21 329.741 211.094 329.838 211.017 329.954C210.94 330.089 210.882 330.205 210.882 330.36C199.266 346.702 185.971 361.595 176.381 368.936C176.15 369.11 176.034 369.419 176.131 369.689C176.15 369.766 176.188 369.863 176.266 369.94L176.343 370.017C176.594 370.249 176.999 370.269 177.269 370.056C186.936 362.677 200.231 347.784 211.905 331.403C218.272 335.575 225.064 338.994 232.204 341.66C238.822 344.191 245.769 345.717 252.831 346.219C261.031 346.702 268.576 345.408 275.291 342.317C288.624 336.193 298.349 326.342 303.366 313.863H303.192H303.077ZM45.8658 341.563C45.3641 341.641 44.5151 341.486 43.5117 340.057C42.4891 338.647 41.6594 337.12 41.0226 335.498C41.1577 334.802 41.312 334.068 41.4471 333.276C41.833 331.132 42.1996 329.027 42.5277 327.076L45.8658 341.563ZM42.3154 319.291C42.0067 321.3 41.1384 327.134 40.0385 333.025C37.8002 345.195 36.4881 347.726 36.0636 348.266C35.8514 348.035 35.4076 347.204 35.2146 344.538C35.0603 342.162 35.1374 339.361 35.1953 337.121C35.1953 336.077 35.2339 335.208 35.2339 334.551C35.2339 333.74 35.2146 332.929 34.5007 332.832C33.7675 332.697 33.5166 333.528 33.2079 334.513C32.9956 335.285 32.6869 336.348 32.3589 337.584C31.6642 340.115 30.8152 343.263 29.9083 345.871C28.6155 349.522 27.9016 350.217 27.6893 350.333C27.5543 350.16 27.3034 349.425 27.6314 346.644C27.8823 344.519 28.4033 341.872 28.8664 339.516C29.9662 333.798 30.1399 332.369 29.3873 331.808C29.1751 331.634 28.8857 331.577 28.6348 331.654C27.7665 331.886 26.9754 333.412 24.9494 337.7C23.9653 339.844 22.1708 343.592 21.2446 344.538C20.9359 342.568 22.4602 334.571 24.1775 327.674C24.2547 327.327 24.0618 326.979 23.753 326.825C23.425 326.67 23.0391 326.825 22.8654 327.114C20.2605 331.345 17.5591 335.054 16.2663 336.29C16.8838 333.682 20.3763 325.241 26.4544 312.511C26.686 312.762 26.9947 313.09 27.3613 313.419C29.561 315.466 34.1727 318.576 42.3926 319.33L42.354 319.291H42.3154ZM39.8842 301.461C43.7819 304.359 47.3902 306.445 50.6318 307.623C46.4833 312.588 43.6275 316.722 42.7978 317.881C32.7062 317.069 28.2103 312.395 27.1684 311.1C29.7926 306.58 32.5325 302.118 35.3883 297.733C36.2566 298.486 37.8388 299.897 39.9228 301.461H39.9035H39.8842ZM260.163 155.908C259.874 156.815 257.153 159.23 253.776 161.567C253.41 160.157 252.889 158.805 252.194 157.53C252.194 157.53 252.155 157.472 252.155 157.453C255.822 156.313 259.314 155.637 260.163 155.927V155.908ZM218.407 233.948C211.056 235.474 204.283 234.141 198.243 229.988C192.262 225.893 188.962 220.832 188.48 214.96C188.268 212.526 188.557 210.053 189.367 207.754C191.779 208.237 194.133 208.933 196.372 209.937C196.43 209.957 196.449 209.976 196.507 209.976C196.584 210.015 196.68 210.034 196.758 210.034H196.835C197.086 210.034 197.356 209.879 197.491 209.647V209.609L211.191 189.828C212.329 189.017 214.876 186.834 217.558 182.179C219.604 178.644 219.7 176.171 219.43 174.761C219.179 173.467 218.176 172.443 216.902 172.153C211.461 170.82 210.863 168.695 210.824 168.097C210.67 166.841 211.133 165.585 212.078 164.755C213.12 163.866 214.51 163.48 215.86 163.731C216.941 163.963 217.713 165.025 218.176 165.875C218.504 166.474 219.063 166.918 219.7 167.111C220.356 167.285 221.032 167.227 221.649 166.899C224.138 165.508 226.975 162.07 228.267 158.863C229.367 156.275 229.792 153.435 229.541 150.634C229.329 148.586 228.518 146.635 227.225 145.051C232.242 145.959 246.251 149.224 250.998 158.206C254.317 164.523 253.024 171.052 251.364 175.437C249.242 180.749 245.884 185.463 241.543 189.171C234.461 195.044 221.495 193.923 220.047 193.769C219.816 193.692 219.526 193.769 219.334 193.943L219.276 194.001C219.121 194.175 219.083 194.387 219.121 194.6L223.386 212.043L218.832 221.199C218.677 221.489 218.755 221.856 218.986 222.068C219.025 222.107 219.102 222.146 219.16 222.204H219.198C222.209 224.715 224.929 227.554 227.264 230.703C224.505 232.21 221.533 233.311 218.465 233.948H218.427H218.407ZM262.922 216.756L278.61 210.208C279.208 211.637 280.809 215.288 282.97 220.349L267.225 226.453C265.238 221.74 263.598 218.186 262.903 216.737H262.922V216.756ZM245.711 200.433C246.328 200.144 247.023 200.144 247.66 200.414C250.747 201.399 255.416 205.147 255.494 205.205C255.802 205.436 256.246 205.398 256.516 205.069C256.748 204.76 256.709 204.316 256.4 204.084L256.362 204.046C256.362 203.93 256.304 203.852 256.227 203.756C254.278 201.013 252.561 198.135 251.017 195.16C249.531 192.243 249.049 190.698 249.01 190.137C249.319 190.253 250.052 190.678 251.461 192.397C252.869 194.117 254.355 196.415 255.551 198.25C257.269 200.878 257.539 201.225 258.002 201.322C258.214 201.36 258.407 201.322 258.581 201.187C259.102 200.781 258.87 200.144 258.523 199.197C258.272 198.502 257.867 197.536 257.423 196.454C256.458 194.078 255.281 191.161 254.471 188.611C253.294 184.864 253.564 184.014 253.66 183.898C253.873 183.937 255.204 184.477 258.87 190.659C259.179 191.18 259.468 191.702 259.758 192.185C260.684 194.097 261.668 195.99 262.768 197.825C262.961 198.173 263.385 198.27 263.713 198.077C264.061 197.883 264.196 197.478 264.022 197.13C263.54 196.241 262.382 193.904 260.935 191.374C259.449 188.225 258.33 185.192 258.735 184.014C258.754 183.937 258.793 183.859 258.87 183.801C259.777 184.188 262.845 188.206 267.495 196.299C267.92 197.072 268.923 197.343 269.695 196.898C270.274 196.57 270.602 195.913 270.486 195.256V195.198C270.274 194.02 269.811 192.494 269.406 191.007C268.923 189.403 268.537 187.819 268.248 186.177C270.062 188.708 274.442 199.023 278.166 208.894L262.228 215.539C261.745 214.96 260.781 213.781 259.526 212.197C259.488 212.081 259.391 212.004 259.314 211.946L244.997 201.476C245.151 201.071 245.402 200.723 245.769 200.511L245.711 200.453V200.433ZM274.403 340.965C269.695 343.089 264.678 344.345 259.526 344.712C260.086 340.559 250.303 339.149 251.268 335.768C252.29 332.33 251.654 328.293 242.913 323.232C234.133 318.151 242.43 316.934 241.446 308.377C240.636 301.345 234.423 297.868 232.262 296.864C239.343 281.661 240.694 271.964 240.694 266.729C240.694 256.646 238.243 246.717 233.516 237.812C237.259 243.472 240.346 249.556 242.701 255.931C246.135 265.068 251.171 272.814 256.555 277.779C261.919 282.743 257.404 278.532 257.809 278.86L262.768 290.451C263.019 291.107 263.559 291.61 264.215 291.88C264.89 292.131 265.624 292.112 266.241 291.822C267.495 291.243 269 291.687 269.714 292.904L273.612 299.665C274.886 301.848 278.05 302.891 281.176 302.021C285.093 300.978 287.447 297.405 285.788 294.391L276.661 277.914C277.105 276.948 277.471 275.924 277.741 274.862C279.71 267.367 277.741 255.197 271.914 238.604C270.563 234.702 269.097 230.973 267.766 227.748L283.491 221.624C289.84 236.807 300.182 262.905 304.157 280.135C306.743 291.165 305.913 302.717 301.745 313.225C296.844 325.356 287.409 334.918 274.423 340.887V340.945L274.403 340.965Z" fill="#472C27"/>
<path d="M267.476 330.669C267.36 330.553 267.302 330.456 267.264 330.302C267.187 329.915 267.418 329.529 267.804 329.432C284.649 325.608 293.988 309.497 294.085 309.362C294.162 309.188 294.316 309.053 294.509 309.014C294.702 308.956 294.895 308.976 295.069 309.072C295.243 309.15 295.358 309.323 295.416 309.497C295.455 309.69 295.436 309.884 295.339 310.038C293.371 313.283 291.017 316.258 288.354 318.905C284.167 323.174 277.24 328.737 268.132 330.785C267.92 330.843 267.65 330.785 267.476 330.63V330.669ZM215.455 144.916C215.301 144.781 215.224 144.588 215.243 144.375C215.243 143.989 215.571 143.661 215.957 143.661C219.141 143.603 222.228 144.82 224.505 147.08C225.489 148.065 226.299 149.243 226.859 150.518C226.994 150.885 226.801 151.291 226.415 151.426C226.068 151.561 225.682 151.387 225.527 151.04C225.45 150.789 223.154 145.148 215.976 145.109C215.783 145.109 215.61 145.051 215.474 144.916H215.455Z" fill="#F09947"/>
</g>
<path d="M485.748 213.492H336.053C334.644 213.492 333.486 212.468 333.486 211.232V202.172C333.486 200.916 334.625 199.912 336.053 199.912H485.748C487.157 199.912 488.314 200.936 488.314 202.172V211.232C488.314 212.487 487.176 213.492 485.748 213.492Z" fill="#FEF8EE"/>
<path d="M485.748 214.322H336.053C334.181 214.322 332.676 212.912 332.676 211.193V202.133C332.676 200.414 334.181 199.004 336.053 199.004H485.748C487.62 199.004 489.125 200.414 489.125 202.133V211.193C489.125 212.912 487.62 214.322 485.748 214.322ZM336.053 200.723C335.107 200.723 334.335 201.38 334.335 202.153V211.212C334.335 211.985 335.107 212.642 336.053 212.642H485.748C486.694 212.642 487.466 211.985 487.466 211.212V202.153C487.466 201.38 486.694 200.723 485.748 200.723H336.053Z" fill="#472C27"/>
<path d="M373.544 212.642H335.975C334.914 212.642 334.027 211.869 334.027 210.942V202.423C334.027 201.477 334.895 200.723 335.975 200.723H373.544V212.68V212.642Z" fill="#F09947"/>
<path d="M387.206 171.207C387.206 153.358 406.231 142.077 406.231 136.204C406.231 130.332 387.206 119.032 387.206 101.202H428.132C428.132 119.051 409.106 130.332 409.106 136.204C409.106 142.077 428.132 153.377 428.132 171.207H387.206Z" fill="#FEF8EE"/>
<path d="M428.151 172.115H387.225C386.704 172.115 386.318 171.709 386.318 171.207C386.318 159.501 394.133 150.673 399.825 144.26C402.777 140.918 405.343 138.02 405.343 136.204C405.343 134.389 402.777 131.491 399.825 128.149C394.133 121.697 386.318 112.869 386.318 101.202C386.318 89.5344 386.723 100.294 387.225 100.294H428.151C428.672 100.294 429.058 100.7 429.058 101.202C429.058 112.908 421.243 121.736 415.551 128.149C412.599 131.491 410.032 134.389 410.032 136.204C410.032 138.02 412.599 140.918 415.551 144.26C421.243 150.711 429.077 159.539 429.058 171.207C429.058 172.733 428.652 172.115 428.151 172.115ZM388.132 170.28H427.186C426.781 159.713 419.506 151.503 414.161 145.438C410.688 141.536 408.18 138.677 408.18 136.204C408.18 133.732 410.688 130.873 414.161 126.971C419.506 120.925 426.8 112.696 427.186 102.129H388.132C388.537 112.696 395.811 120.905 401.156 126.971C404.629 130.873 407.138 133.732 407.138 136.204C407.138 138.677 404.629 141.536 401.156 145.438C395.792 151.484 388.498 159.713 388.132 170.28Z" fill="#472C27"/>
<path d="M395.599 121.234C393.283 116.907 421.783 117.737 419.429 121.755C416.728 125.87 409.974 133.461 409.974 133.461C408.373 134.678 406.192 134.408 404.764 132.708C403.336 130.989 397.625 124.807 395.599 121.272V121.234Z" fill="#F09947"/>
<path d="M407.813 135.065C406.424 135.065 405.054 134.408 404.07 133.229C403.761 132.843 403.221 132.244 402.565 131.472C400.249 128.864 396.409 124.479 394.827 121.639C394.383 120.77 394.576 119.862 395.387 119.225C397.741 117.351 405.343 117.389 407.639 117.428C414.779 117.602 418.58 118.761 419.757 119.804C420.529 120.48 420.703 121.388 420.239 122.18V122.219C417.538 126.333 410.997 133.712 410.707 134.021C410.669 134.06 410.65 134.099 410.572 134.157C409.781 134.813 408.816 135.084 407.871 135.084L407.832 135.045L407.813 135.065ZM396.39 120.789C397.914 123.436 401.677 127.724 403.915 130.293C404.591 131.066 405.15 131.684 405.459 132.09C406.501 133.365 408.141 133.635 409.337 132.766C410.013 132.012 416.11 125.116 418.619 121.311C418.426 121.06 417.442 120.442 414.528 119.92C412.135 119.514 409.048 119.263 405.98 119.263H405.864C399.381 119.263 396.66 120.287 396.351 120.77V120.809H396.371L396.39 120.789ZM429.984 97.1646H385.334C384.813 97.1646 384.427 97.5702 384.427 98.0725V104.312C384.427 104.833 384.832 105.22 385.334 105.22H429.984C430.505 105.22 430.891 104.814 430.891 104.312V98.0725C430.891 97.5509 430.485 97.1646 429.984 97.1646Z" fill="#472C27"/>
<path d="M387.206 168.193C387.206 168.193 398.088 156.004 407.659 156.004C417.23 156.004 428.112 168.193 428.112 168.193H387.206Z" fill="#F09947"/>
<path d="M428.151 169.101H387.225C386.858 169.101 386.53 168.889 386.376 168.56C386.221 168.232 386.299 167.846 386.53 167.575C386.974 167.054 397.818 155.077 407.678 155.077C417.538 155.077 428.363 167.073 428.826 167.575C429.058 167.865 429.135 168.232 428.98 168.56C428.826 168.889 428.498 169.101 428.17 169.101H428.151ZM389.347 167.266H425.99C422.748 164.079 414.74 156.874 407.678 156.874C400.616 156.874 392.608 164.04 389.367 167.266H389.347Z" fill="#472C27"/>
<path d="M429.984 166.802H385.334C384.813 166.802 384.427 167.208 384.427 167.71V173.95C384.427 174.471 384.832 174.858 385.334 174.858H429.984C430.505 174.858 430.891 174.452 430.891 173.95V167.71C430.891 167.189 430.485 166.802 429.984 166.802Z" fill="#472C27"/>
<path d="M406.462 145.94C407.091 145.94 407.601 145.43 407.601 144.801C407.601 144.171 407.091 143.661 406.462 143.661C405.833 143.661 405.324 144.171 405.324 144.801C405.324 145.43 405.833 145.94 406.462 145.94Z" fill="#472C27"/>
<path d="M406.463 146.887C405.324 146.887 404.398 145.96 404.398 144.839C404.398 143.719 405.324 142.792 406.463 142.792C407.601 142.792 408.527 143.719 408.527 144.839C408.527 145.96 407.601 146.887 406.463 146.887ZM406.463 144.569C406.327 144.569 406.231 144.685 406.231 144.8C406.231 144.916 406.347 145.032 406.463 145.032C406.578 145.032 406.694 144.916 406.694 144.8C406.694 144.685 406.578 144.569 406.463 144.569Z" fill="#472C27"/>
<path d="M410.997 151.639C411.626 151.639 412.135 151.129 412.135 150.499C412.135 149.87 411.626 149.359 410.997 149.359C410.368 149.359 409.858 149.87 409.858 150.499C409.858 151.129 410.368 151.639 410.997 151.639Z" fill="#472C27"/>
<path d="M410.997 152.585C409.858 152.585 408.932 151.658 408.932 150.538C408.932 149.417 409.858 148.49 410.997 148.49C412.135 148.49 413.061 149.417 413.061 150.538C413.061 151.658 412.135 152.585 410.997 152.585ZM410.997 150.267C410.862 150.267 410.765 150.383 410.765 150.499C410.765 150.615 410.881 150.731 410.997 150.731C411.113 150.731 411.228 150.615 411.228 150.499C411.228 150.383 411.113 150.267 410.997 150.267Z" fill="#472C27"/>
</g>
<defs>
<clipPath id="clip0_543_10551">
<rect width="595" height="491" fill="white"/>
</clipPath>
</defs>
</svg>
