<svg width="266" height="226" viewBox="0 0 266 226" fill="none" xmlns="http://www.w3.org/2000/svg">
<g clip-path="url(#clip0_543_6301)">
<path d="M265.558 36.2634V83.5215C265.558 88.5038 261.51 92.5401 256.526 92.5401H201.175C196.18 92.5401 192.142 88.5038 192.142 83.5215V36.2634C192.142 31.2812 196.19 27.2449 201.175 27.2449H256.526C261.521 27.2449 265.558 31.2812 265.558 36.2634Z" fill="#FEF8EE"/>
<path d="M243.939 27.2449C214.192 31.5124 222.909 29.1159 213.13 29.1894C210.091 29.2105 207.105 29.9778 204.077 30.2826C202.51 30.4403 200.891 30.4823 199.45 31.1025C190.144 35.0652 197.568 51.9881 195.034 62.6884C194.687 64.1495 194.15 65.5685 193.93 67.0611C193.583 69.5102 194.129 72.0223 193.825 74.4819C193.572 76.5001 192.794 78.3816 192.132 80.2946V36.2845C192.132 31.3022 196.18 27.2659 201.164 27.2659H243.939V27.2449Z" fill="#F09947"/>
<path d="M256.515 92.992H201.164C195.927 92.992 191.679 88.7455 191.679 83.5215V36.2634C191.679 31.0393 195.938 26.7928 201.164 26.7928H256.515C261.752 26.7928 266 31.0393 266 36.2634V83.5215C266 88.7455 261.741 92.992 256.515 92.992ZM201.164 27.6968C196.432 27.6968 192.584 31.5439 192.584 36.2634V83.5215C192.584 88.241 196.432 92.0881 201.164 92.0881H256.515C261.247 92.0881 265.096 88.241 265.096 83.5215V36.2634C265.096 31.5439 261.247 27.6968 256.515 27.6968H201.164Z" fill="#472C27"/>
<path d="M197.305 9.46009V53.7961C197.305 58.7784 193.267 62.8146 188.294 62.8146H90.9975C86.7704 62.8146 83.2269 59.903 82.249 55.9719C82.0702 55.2571 81.9861 54.5319 81.9861 53.7961V9.46009C81.9861 4.47781 86.0239 0.441528 90.9975 0.441528H188.294C193.267 0.441528 197.305 4.47781 197.305 9.46009Z" fill="#F5BE7C"/>
<path d="M154.162 0.452039C147.274 1.67133 139.577 3.42669 133.668 7.28428C128.042 10.9632 128.337 11.0368 119.851 10.4376C108.032 9.61775 110.598 17.5432 105.845 20.0343C103.216 21.4113 99.9879 19.8976 97.0437 20.3496C93.5527 20.8752 91.0291 24.1547 90.1353 27.5603C88.3688 34.2769 91.5548 42.2233 87.7063 48.3198C86.129 50.8214 83.6265 52.5768 82.4593 55.3517C82.3752 55.5409 82.3121 55.7511 82.2385 55.9719C82.0597 55.2571 81.9756 54.5319 81.9756 53.7961V9.46009C81.9756 4.47781 86.0134 0.441528 90.987 0.441528H154.151L154.162 0.452039Z" fill="#FEF8EE"/>
<path d="M188.294 63.2665H90.9975C85.782 63.2665 81.5339 59.02 81.5339 53.796V9.47054C81.5339 4.2465 85.782 0 90.9975 0H188.294C193.509 0 197.757 4.2465 197.757 9.47054V53.8065C197.757 59.0306 193.509 63.2771 188.294 63.2771V63.2665ZM90.9975 0.903958C86.2762 0.903958 82.4382 4.75104 82.4382 9.47054V53.8065C82.4382 58.526 86.2762 62.3731 90.9975 62.3731H188.294C193.015 62.3731 196.853 58.526 196.853 53.8065V9.47054C196.853 4.75104 193.015 0.903958 188.294 0.903958H90.9975Z" fill="#472C27"/>
<path d="M117.222 44.9666C104.793 44.9666 96.9175 35.8219 94.6147 26.7718C94.5832 26.6562 94.6568 26.5301 94.7829 26.4986C94.8986 26.467 95.0248 26.5406 95.0563 26.6667C97.3171 35.5592 105.046 44.5252 117.233 44.5252C126.801 44.5252 132.658 37.1358 138.315 29.9988C143.71 23.1981 148.799 16.7758 156.727 16.7758C163.793 16.7758 167.547 20.9802 171.175 25.048C174.908 29.2315 178.43 33.1731 185.286 33.1731C185.412 33.1731 185.507 33.2782 185.507 33.3939C185.507 33.5095 185.402 33.6146 185.286 33.6146C178.22 33.6146 174.466 29.4101 170.839 25.3423C167.106 21.1589 163.583 17.2172 156.727 17.2172C149.009 17.2172 143.983 23.5554 138.662 30.2721C132.932 37.4932 127.012 44.9666 117.222 44.9666Z" fill="#472C27"/>
<path d="M102.143 42.3704C103.996 42.3704 105.498 40.8645 105.498 39.0069C105.498 37.1492 103.996 35.6433 102.143 35.6433C100.291 35.6433 98.7892 37.1492 98.7892 39.0069C98.7892 40.8645 100.291 42.3704 102.143 42.3704Z" fill="#FEF8EE"/>
<path d="M102.143 42.6017C100.167 42.6017 98.5579 40.9935 98.5579 39.0174C98.5579 37.0413 100.167 35.4331 102.143 35.4331C104.12 35.4331 105.719 37.0413 105.719 39.0174C105.719 40.9935 104.11 42.6017 102.143 42.6017ZM102.143 35.8746C100.419 35.8746 99.01 37.2831 99.01 39.0174C99.01 40.7517 100.419 42.1602 102.143 42.1602C103.868 42.1602 105.277 40.7517 105.277 39.0174C105.277 37.2831 103.868 35.8746 102.143 35.8746Z" fill="#472C27"/>
<path d="M122.501 47.2791C124.353 47.2791 125.855 45.7732 125.855 43.9156C125.855 42.0579 124.353 40.552 122.501 40.552C120.648 40.552 119.146 42.0579 119.146 43.9156C119.146 45.7732 120.648 47.2791 122.501 47.2791Z" fill="#FEF8EE"/>
<path d="M122.501 47.4999C120.524 47.4999 118.915 45.8917 118.915 43.9156C118.915 41.9395 120.524 40.3313 122.501 40.3313C124.478 40.3313 126.086 41.9395 126.086 43.9156C126.086 45.8917 124.478 47.4999 122.501 47.4999ZM122.501 40.7833C120.776 40.7833 119.367 42.1918 119.367 43.9261C119.367 45.6604 120.776 47.0689 122.501 47.0689C124.225 47.0689 125.634 45.6604 125.634 43.9261C125.634 42.1918 124.225 40.7833 122.501 40.7833Z" fill="#472C27"/>
<path d="M142.868 28.769C144.721 28.769 146.223 27.2631 146.223 25.4054C146.223 23.5478 144.721 22.0419 142.868 22.0419C141.016 22.0419 139.514 23.5478 139.514 25.4054C139.514 27.2631 141.016 28.769 142.868 28.769Z" fill="#FEF8EE"/>
<path d="M142.868 28.9898C140.892 28.9898 139.293 27.3816 139.293 25.4055C139.293 23.4294 140.902 21.8212 142.868 21.8212C144.835 21.8212 146.454 23.4294 146.454 25.4055C146.454 27.3816 144.845 28.9898 142.868 28.9898ZM142.868 22.2626C141.144 22.2626 139.735 23.6711 139.735 25.4055C139.735 27.1398 141.144 28.5483 142.868 28.5483C144.593 28.5483 146.002 27.1398 146.002 25.4055C146.002 23.6711 144.593 22.2626 142.868 22.2626Z" fill="#472C27"/>
<path d="M163.226 22.0418C165.078 22.0418 166.58 20.5359 166.58 18.6783C166.58 16.8206 165.078 15.3147 163.226 15.3147C161.373 15.3147 159.871 16.8206 159.871 18.6783C159.871 20.5359 161.373 22.0418 163.226 22.0418Z" fill="#FEF8EE"/>
<path d="M163.226 22.2626C161.249 22.2626 159.64 20.6544 159.64 18.6783C159.64 16.7022 161.249 15.094 163.226 15.094C165.202 15.094 166.811 16.7022 166.811 18.6783C166.811 20.6544 165.202 22.2626 163.226 22.2626ZM163.226 15.5355C161.501 15.5355 160.092 16.944 160.092 18.6783C160.092 20.4126 161.501 21.8211 163.226 21.8211C164.95 21.8211 166.359 20.4126 166.359 18.6783C166.359 16.944 164.95 15.5355 163.226 15.5355Z" fill="#472C27"/>
<path d="M183.593 36.7679C185.446 36.7679 186.948 35.262 186.948 33.4043C186.948 31.5467 185.446 30.0408 183.593 30.0408C181.741 30.0408 180.239 31.5467 180.239 33.4043C180.239 35.262 181.741 36.7679 183.593 36.7679Z" fill="#FEF8EE"/>
<path d="M183.593 36.9887C181.616 36.9887 180.018 35.3805 180.018 33.4044C180.018 31.4283 181.627 29.8201 183.593 29.8201C185.56 29.8201 187.179 31.4283 187.179 33.4044C187.179 35.3805 185.57 36.9887 183.593 36.9887ZM183.593 30.2615C181.869 30.2615 180.46 31.67 180.46 33.4044C180.46 35.1387 181.869 36.5472 183.593 36.5472C185.318 36.5472 186.727 35.1387 186.727 33.4044C186.727 31.67 185.318 30.2615 183.593 30.2615Z" fill="#472C27"/>
<path d="M101.807 32.3008V68.3435C101.807 73.3678 97.7377 77.4461 92.722 77.4461H9.53718C7.59189 77.4461 5.78329 76.8365 4.31118 75.7854C1.97683 74.1351 0.452148 71.4232 0.452148 68.3435V32.3008C0.452148 27.2764 4.52148 23.1981 9.53718 23.1981H92.7115C97.7272 23.1981 101.796 27.2764 101.796 32.3008H101.807Z" fill="#FEF8EE"/>
<path d="M85.088 23.1981C79.8831 24.4174 74.615 25.3003 69.3049 25.8574C41.0299 28.8006 50.5775 24.6066 32.7545 25.0586C29.7997 25.1322 10.1155 24.3859 5.56248 27.8756C-0.578329 32.5846 4.00625 53.0182 3.35431 56.5815C2.96525 58.7047 1.97684 60.7859 2.20817 62.9302C2.37641 64.4964 3.17555 65.9364 3.31225 67.5026C3.45946 69.1423 2.87062 70.7926 3.00731 72.4323C3.12298 73.7987 3.60667 74.8709 4.31118 75.7853C1.97683 74.1351 0.452148 71.4232 0.452148 68.3435V32.3008C0.452148 27.2764 4.52148 23.1981 9.53718 23.1981H85.0775H85.088Z" fill="#F09947"/>
<path d="M92.7115 77.898H9.53718C4.27964 77.898 0 73.6095 0 68.3434V32.3007C0 27.0346 4.27964 22.7461 9.53718 22.7461H92.7115C97.969 22.7461 102.249 27.0346 102.249 32.3007V68.3434C102.249 73.6095 97.969 77.898 92.7115 77.898ZM9.53718 23.6501C4.77385 23.6501 0.904297 27.5287 0.904297 32.3007V68.3434C0.904297 73.1155 4.77385 76.9941 9.53718 76.9941H92.7115C97.4748 76.9941 101.344 73.1155 101.344 68.3434V32.3007C101.344 27.5287 97.4748 23.6501 92.7115 23.6501H9.53718Z" fill="#472C27"/>
<path d="M214.36 33.7723C207.799 33.7723 202.489 39.1015 202.489 45.6815C202.489 52.2614 207.81 57.5906 214.36 57.5906C216.937 57.5906 219.313 56.7707 221.258 55.3727C224.234 53.239 226.19 49.7493 226.232 45.8076C226.232 45.7655 226.232 45.7235 226.232 45.6815C226.232 39.1015 220.911 33.7723 214.36 33.7723ZM218.735 51.82C217.462 52.7344 215.927 53.2285 214.36 53.2179C210.207 53.2179 206.832 49.8439 206.832 45.6709C206.832 41.498 210.196 38.124 214.36 38.124C218.524 38.124 221.889 41.498 221.889 45.6709V45.755C221.858 48.2567 220.627 50.464 218.735 51.82Z" fill="#F09947"/>
<path d="M214.36 58.0425C207.568 58.0425 202.037 52.5031 202.037 45.6814C202.037 38.8597 207.568 33.3203 214.36 33.3203C221.153 33.3203 226.684 38.8597 226.684 45.6814C226.684 45.734 226.684 45.776 226.684 45.8286C226.642 49.7387 224.718 53.4491 221.521 55.7301C219.429 57.2332 216.947 58.032 214.36 58.032V58.0425ZM214.36 34.2243C208.062 34.2243 202.931 39.3642 202.931 45.6814C202.931 51.9986 208.051 57.1386 214.36 57.1386C216.758 57.1386 219.061 56.4028 220.995 55.0048C223.95 52.8815 225.748 49.4444 225.78 45.8075C225.78 45.755 225.78 45.7235 225.78 45.6814C225.78 39.3642 220.659 34.2243 214.36 34.2243ZM214.36 53.6804C209.965 53.6804 206.39 50.0961 206.39 45.6814C206.39 41.2667 209.965 37.6824 214.36 37.6824C218.756 37.6824 222.331 41.2667 222.331 45.6814V45.7655C222.299 48.3092 221.059 50.7057 218.987 52.1878C217.631 53.1548 216.011 53.6804 214.35 53.6804H214.36ZM214.36 38.5864C210.459 38.5864 207.284 41.7713 207.284 45.6814C207.284 49.5916 210.459 52.7764 214.36 52.7764C215.843 52.7764 217.263 52.3245 218.472 51.4625C220.301 50.1486 221.406 48.0149 221.437 45.7655V45.6919C221.437 41.7818 218.262 38.5969 214.36 38.5969V38.5864Z" fill="#472C27"/>
<path d="M214.36 62.4152C214.287 62.4152 214.213 62.4152 214.14 62.4152C207.683 62.5308 202.489 67.8179 202.489 74.3138C202.489 80.8097 207.81 86.2229 214.36 86.2229C218.609 86.2229 222.331 83.984 224.434 80.6205C225.58 78.7915 226.232 76.6262 226.232 74.3138C226.232 67.7338 220.911 62.4047 214.36 62.4047V62.4152ZM214.36 81.8713C210.207 81.8713 206.832 78.4972 206.832 74.3243C206.832 70.1514 210.081 66.9034 214.129 66.7773C214.203 66.7773 214.276 66.7773 214.35 66.7773C218.503 66.7773 221.879 70.1514 221.879 74.3243C221.879 75.8064 221.448 77.1938 220.712 78.3606C219.376 80.4733 217.031 81.8713 214.35 81.8713H214.36Z" fill="#F09947"/>
<path d="M214.36 86.6853C207.568 86.6853 202.037 81.146 202.037 74.3242C202.037 71.0658 203.288 67.986 205.57 65.663C207.852 63.3401 210.89 62.0262 214.129 61.9736C214.203 61.9736 214.287 61.9736 214.36 61.9736C221.153 61.9736 226.684 67.513 226.684 74.3347C226.684 76.6472 226.043 78.9176 224.812 80.8832C222.541 84.52 218.64 86.6958 214.36 86.6958V86.6853ZM214.35 62.8671C214.287 62.8671 214.224 62.8671 214.15 62.8671C207.967 62.9827 202.931 68.1226 202.931 74.3137C202.931 80.5048 208.051 85.7709 214.36 85.7709C218.325 85.7709 221.942 83.7527 224.045 80.3892C225.18 78.5707 225.78 76.4685 225.78 74.3242C225.78 68.007 220.659 62.8671 214.36 62.8671H214.35ZM214.36 82.3232C209.965 82.3232 206.39 78.7389 206.39 74.3242C206.39 69.9095 209.786 66.4619 214.129 66.3358C214.213 66.3358 214.287 66.3358 214.36 66.3358C218.756 66.3358 222.331 69.9201 222.331 74.3347C222.331 75.8483 221.9 77.3304 221.101 78.6128C219.628 80.9462 217.105 82.3337 214.36 82.3337V82.3232ZM214.35 67.2292C214.287 67.2292 214.224 67.2292 214.15 67.2292C210.302 67.3448 207.284 70.4561 207.284 74.3242C207.284 78.1923 210.459 81.4192 214.36 81.4192C216.8 81.4192 219.029 80.1894 220.344 78.1187C221.059 76.9835 221.437 75.6696 221.437 74.3242C221.437 70.4141 218.262 67.2292 214.36 67.2292H214.35Z" fill="#472C27"/>
<path d="M243.098 33.7723C241.594 33.7723 240.154 34.0561 238.829 34.5712C234.381 36.2845 231.227 40.6151 231.227 45.6815C231.227 52.2614 236.547 57.5906 243.098 57.5906C249.029 57.5906 253.95 53.2285 254.833 47.5209C254.928 46.9218 254.98 46.3121 254.98 45.6815C254.98 39.1015 249.66 33.7723 243.109 33.7723H243.098ZM243.098 53.2285C238.945 53.2285 235.569 49.8544 235.569 45.6815C235.569 42.4545 237.588 39.7006 240.438 38.618C241.268 38.3026 242.162 38.1345 243.098 38.1345C247.252 38.1345 250.627 41.5085 250.627 45.6815C250.627 46.0704 250.595 46.4593 250.543 46.8377C249.985 50.4535 246.873 53.2285 243.109 53.2285H243.098Z" fill="#F09947"/>
<path d="M243.098 58.0425C236.305 58.0425 230.774 52.5031 230.774 45.6814C230.774 40.6045 233.95 35.9691 238.671 34.1507C240.08 33.6041 241.573 33.3203 243.109 33.3203C249.901 33.3203 255.432 38.8597 255.432 45.6814C255.432 46.3331 255.38 46.9743 255.285 47.5944C254.843 50.4745 253.371 53.1233 251.163 55.0363C248.923 56.9704 246.063 58.0425 243.109 58.0425H243.098ZM243.098 34.2243C241.679 34.2243 240.301 34.4765 238.987 34.9916C234.612 36.6839 231.668 40.9724 231.668 45.6814C231.668 51.9986 236.789 57.1386 243.098 57.1386C248.682 57.1386 253.529 52.9761 254.381 47.4578C254.475 46.8692 254.517 46.2805 254.517 45.6919C254.517 39.3747 249.397 34.2348 243.098 34.2348V34.2243ZM243.098 53.6804C238.703 53.6804 235.117 50.0961 235.117 45.6814C235.117 42.3704 237.189 39.3642 240.28 38.1975C241.184 37.8506 242.131 37.6824 243.098 37.6824C247.493 37.6824 251.069 41.2667 251.069 45.6814C251.069 46.1019 251.037 46.5118 250.974 46.9112C250.385 50.7688 246.989 53.6804 243.088 53.6804H243.098ZM243.098 38.5864C242.236 38.5864 241.395 38.7441 240.595 39.0384C237.862 40.0685 236.021 42.7383 236.021 45.6709C236.021 49.581 239.197 52.7659 243.098 52.7659C246.558 52.7659 249.565 50.1802 250.091 46.7641C250.143 46.4067 250.175 46.0493 250.175 45.6709C250.175 41.7608 246.999 38.5759 243.098 38.5759V38.5864Z" fill="#472C27"/>
<path d="M243.098 62.4152C237.788 62.4152 233.288 65.9049 231.773 70.7295C231.405 71.8962 231.227 73.105 231.227 74.3243C231.227 75.039 231.29 75.7328 231.405 76.416C232.394 81.9974 237.252 86.2334 243.098 86.2334C249.66 86.2334 254.97 80.9043 254.97 74.3243C254.97 67.7443 249.649 62.4152 243.098 62.4152ZM243.098 81.8713C239.386 81.8713 236.316 79.1909 235.685 75.6487C235.611 75.2177 235.569 74.7763 235.569 74.3243C235.569 73.5359 235.695 72.7686 235.916 72.0434C236.884 68.9951 239.723 66.7773 243.098 66.7773C247.252 66.7773 250.627 70.1514 250.627 74.3243C250.627 78.4972 247.262 81.8713 243.098 81.8713Z" fill="#F09947"/>
<path d="M243.098 86.6854C237.115 86.6854 232.005 82.3968 230.964 76.5001C230.838 75.7853 230.775 75.06 230.775 74.3243C230.775 73.0524 230.964 71.8016 231.342 70.5928C232.972 65.4318 237.693 61.9632 243.098 61.9632C249.891 61.9632 255.422 67.5025 255.422 74.3243C255.422 81.1355 249.891 86.6854 243.098 86.6854ZM243.098 62.8671C238.093 62.8671 233.708 66.0835 232.205 70.8661C231.858 71.9803 231.679 73.147 231.679 74.3243C231.679 74.997 231.742 75.6802 231.858 76.3424C232.825 81.8082 237.557 85.7814 243.109 85.7814C249.407 85.7814 254.528 80.6415 254.528 74.3243C254.528 68.0071 249.407 62.8671 243.109 62.8671H243.098ZM243.098 82.3232C239.229 82.3232 235.916 79.5483 235.243 75.7328C235.159 75.2703 235.117 74.7973 235.117 74.3243C235.117 73.4939 235.243 72.6845 235.485 71.9067C236.537 68.5642 239.597 66.3253 243.088 66.3253C247.483 66.3253 251.058 69.9096 251.058 74.3243C251.058 78.7284 247.483 82.3232 243.088 82.3232H243.098ZM243.098 67.2292C239.996 67.2292 237.283 69.2159 236.348 72.18C236.127 72.8737 236.022 73.599 236.022 74.3243C236.022 74.7342 236.053 75.1546 236.127 75.5751C236.726 78.9597 239.66 81.4193 243.098 81.4193C246.999 81.4193 250.175 78.2344 250.175 74.3243C250.175 70.4141 246.999 67.2292 243.098 67.2292ZM226.232 45.8075C226.19 49.7492 224.245 53.2389 221.258 55.3727L218.735 51.8304C220.617 50.4745 221.858 48.2672 221.889 45.7655L226.232 45.8075Z" fill="#472C27"/>
<path d="M221.269 55.8247C221.122 55.8247 220.985 55.7511 220.901 55.6355L218.377 52.0933C218.23 51.8935 218.283 51.6097 218.482 51.4626C220.312 50.1487 221.416 48.0149 221.448 45.7655C221.448 45.5133 221.647 45.3241 221.9 45.3136L226.242 45.3556C226.495 45.3556 226.695 45.5658 226.684 45.8076C226.642 49.7388 224.718 53.4492 221.521 55.7301C221.448 55.7827 221.353 55.8142 221.258 55.8142L221.269 55.8247ZM219.355 51.9146L221.363 54.7316C223.992 52.6924 225.612 49.5706 225.769 46.2596L222.32 46.228C222.173 48.4459 221.09 50.5271 219.355 51.9251V51.9146ZM254.97 45.6815C254.97 46.3121 254.917 46.9218 254.822 47.5209L250.532 46.8377C250.595 46.4593 250.616 46.0704 250.616 45.6815C250.616 41.519 247.252 38.1345 243.088 38.1345C242.152 38.1345 241.258 38.3026 240.427 38.618L238.818 34.5712C240.143 34.0561 241.584 33.7723 243.088 33.7723C249.649 33.7723 254.959 39.1015 254.959 45.6815H254.97Z" fill="#472C27"/>
<path d="M254.822 47.9728C254.822 47.9728 254.77 47.9728 254.749 47.9728L250.459 47.2896C250.217 47.2476 250.049 47.0163 250.08 46.7746C250.133 46.4172 250.164 46.0598 250.164 45.6919C250.164 41.7818 246.989 38.5969 243.088 38.5969C242.225 38.5969 241.384 38.7546 240.585 39.0489C240.354 39.133 240.101 39.0173 240.007 38.7966L238.398 34.7498C238.356 34.6342 238.356 34.5081 238.398 34.4029C238.45 34.2873 238.535 34.2032 238.65 34.1612C240.059 33.6146 241.552 33.3308 243.088 33.3308C249.88 33.3308 255.411 38.8702 255.411 45.6919C255.411 46.3436 255.359 46.9848 255.264 47.6049C255.232 47.8257 255.043 47.9833 254.822 47.9833V47.9728ZM251.037 46.4592L254.444 47.0058C254.496 46.5748 254.517 46.1334 254.517 45.6814C254.517 39.3642 249.397 34.2243 243.098 34.2243C241.836 34.2243 240.596 34.424 239.418 34.8339L240.701 38.0503C241.479 37.8086 242.288 37.6824 243.098 37.6824C247.493 37.6824 251.069 41.2667 251.069 45.6814C251.069 45.9442 251.058 46.207 251.026 46.4592H251.037ZM235.569 74.3243C235.569 74.7762 235.611 75.2177 235.685 75.6487L231.405 76.416C231.29 75.7327 231.227 75.039 231.227 74.3243C231.227 73.0734 231.416 71.8647 231.773 70.7294L235.927 72.0433C235.695 72.7791 235.58 73.5464 235.58 74.3243H235.569Z" fill="#472C27"/>
<path d="M231.405 76.868C231.185 76.868 230.995 76.7103 230.964 76.4896C230.838 75.7748 230.774 75.0495 230.774 74.3138C230.774 73.0419 230.964 71.7911 231.342 70.5823C231.416 70.3405 231.668 70.2144 231.91 70.288L236.064 71.6019C236.305 71.6755 236.432 71.9277 236.358 72.1695C236.137 72.8632 236.032 73.5885 236.032 74.3138C236.032 74.7237 236.064 75.1441 236.137 75.5646C236.179 75.8063 236.021 76.0376 235.769 76.0901L231.489 76.8575C231.489 76.8575 231.437 76.8575 231.405 76.8575V76.868ZM232.068 71.2971C231.805 72.2851 231.668 73.2942 231.668 74.3243C231.668 74.8498 231.7 75.3754 231.773 75.8904L235.17 75.2808C235.128 74.9655 235.117 74.6396 235.117 74.3243C235.117 73.6516 235.201 72.9894 235.359 72.3482L232.068 71.3076V71.2971ZM224.434 80.631C222.341 83.9945 218.609 86.2334 214.36 86.2334C207.799 86.2334 202.489 80.9042 202.489 74.3243C202.489 67.7443 207.683 62.5413 214.14 62.4257V66.7878C210.091 66.9034 206.842 70.2354 206.842 74.3348C206.842 78.4341 210.207 81.8818 214.371 81.8818C217.052 81.8818 219.397 80.4838 220.733 78.3711L224.444 80.6415L224.434 80.631Z" fill="#472C27"/>
<path d="M214.36 86.6853C207.568 86.6853 202.037 81.146 202.037 74.3242C202.037 71.0658 203.288 67.986 205.57 65.663C207.852 63.3401 210.89 62.0262 214.129 61.9736C214.245 61.9736 214.371 62.0157 214.455 62.0998C214.539 62.1839 214.592 62.2995 214.592 62.4256V66.7877C214.592 67.0295 214.402 67.2292 214.15 67.2397C210.302 67.3553 207.284 70.4666 207.284 74.3347C207.284 78.2028 210.459 81.4298 214.36 81.4298C216.8 81.4298 219.029 80.2 220.344 78.1293C220.48 77.919 220.754 77.856 220.964 77.9821L224.676 80.2525C224.886 80.3786 224.96 80.6624 224.823 80.8727C222.552 84.5095 218.651 86.6853 214.371 86.6853H214.36ZM213.687 62.8881C207.715 63.2455 202.941 68.2803 202.941 74.3242C202.941 80.3681 208.062 85.7814 214.371 85.7814C218.188 85.7814 221.679 83.9209 223.813 80.7781L220.869 78.9701C219.376 81.0724 216.979 82.3232 214.381 82.3232C209.986 82.3232 206.411 78.7389 206.411 74.3242C206.411 69.9095 209.587 66.6931 213.708 66.3568V62.8881H213.687Z" fill="#472C27"/>
<path d="M203.572 216.025C189.25 213.471 178.02 209.424 161.07 209.907C160.145 209.939 159.198 209.971 158.231 210.034C136.36 211.274 130.713 225.559 110.608 225.559C98.0847 225.559 92.2593 219.21 86.6232 211.978C78.1586 218.148 62.8066 212.504 64.5731 199.806C51.3451 202.981 37.4126 189.747 47.4651 176.692H33.7008C32.397 176.692 31.1667 176.535 30.01 176.24C14.8683 172.383 12.6601 145.222 37.4021 144.234C31.5768 131.883 42.3442 114.771 62.0915 118.66C65.9716 104.901 99.1362 94.1378 116.244 108.076C129.83 97.8482 159.64 99.2567 167.221 118.482C184.392 120.184 193.835 130.296 198.157 141.69C198.756 143.277 199.261 144.886 199.681 146.536C211.406 146.851 219.418 154.251 222.184 163.196C224.118 169.45 223.498 176.472 219.786 182.347C238.661 195.402 223.319 219.567 203.561 216.046L203.572 216.025Z" fill="#F09947"/>
<path d="M126.833 171.353C129.861 170.911 131.186 168.105 133.741 166.654C137.19 164.699 142.006 165.666 144.425 168.798C145.686 170.428 146.538 172.677 148.515 173.255C152.427 174.401 154.614 168.788 156.864 166.917C163.131 161.703 169.755 172.13 172.542 162.376C173.646 158.508 175.823 158.277 176.664 157.247C177.2 156.595 177.263 155.596 176.801 154.913C176.948 156.28 175.402 157.257 174.224 157.972C169.861 160.61 171.101 160.736 169.829 162.26C167.705 164.815 163.51 162.828 161.175 162.597C154.961 161.966 153.888 167.054 150.492 167.432C146.906 167.821 143.941 162.376 138.673 162.008C133.31 161.619 131.796 165.014 129.409 167.611C128.252 168.872 126.318 170.753 123.268 170.659C123.994 171.405 125.813 171.51 126.822 171.363L126.833 171.353ZM77.759 158.172C76.2869 155.05 77.3069 150.961 80.0618 148.89C81.944 147.471 84.394 147.009 86.3709 145.726C91.3761 142.51 92.0175 135.678 95.5085 131.147C97.2855 128.846 100.062 127.069 102.943 127.406C104.362 127.574 105.677 128.236 106.949 128.898C116.307 133.786 117.085 131.894 126.055 129.602C135.245 127.248 137.169 132.651 138.137 134.006C142.837 140.555 150.261 135.32 154.193 134.343C158.62 133.25 160.197 137.769 151.817 145.327C154.288 141.753 156.286 136.077 152.174 137.927C136.801 144.875 135.613 136.771 131.628 134.91C128.484 133.449 124.972 135.583 121.617 136.445C113.763 138.463 106.644 133.323 103.321 133.523C97.8744 133.849 97.254 141.711 96.8649 142.689C95.9081 145.106 92.1331 147.608 89.7462 148.68C86.9177 149.941 83.5739 150.656 81.7232 153.137C79.0629 156.711 81.0187 159.832 83.2479 162.239C80.6717 161.987 78.6844 160.127 77.7485 158.161L77.759 158.172ZM76.1082 190.367C78.4215 189.789 81.0082 190.777 83.1848 189.81C84.5413 189.211 85.4666 187.96 86.5812 186.983C89.5044 184.407 93.9312 183.777 97.5274 185.259C101.124 186.751 103.773 190.22 104.436 194.057C105.004 197.378 104.394 201.351 106.907 203.601C108.347 204.894 110.471 205.198 111.933 206.481C113.268 207.658 113.836 209.519 113.847 211.295C113.857 213.071 113.353 214.816 112.858 216.519C113.773 214.301 114.614 211.999 114.709 209.592C114.804 207.196 114.036 204.652 112.196 203.096C111.491 202.508 110.65 202.066 110.051 201.372C108.652 199.775 108.873 197.399 108.589 195.297C108.011 191.061 105.014 187.414 101.302 185.28C97.5905 183.146 93.2477 182.379 88.9786 182.2C87.864 182.158 86.6863 182.158 85.6874 182.652C83.5633 183.703 82.8799 186.573 80.8189 187.718C78.5792 188.959 75.656 187.718 73.2796 188.664C71.6287 189.327 70.5352 190.966 70.0725 192.68C69.7781 193.762 69.4942 195.276 69.8412 196.317C71.5341 192.133 73.1429 191.103 76.1292 190.357L76.1082 190.367ZM193.309 195.381C192.731 194.824 189.345 193.048 190.344 189.39C190.796 187.729 192.237 186.373 193.93 186.016C195.822 185.616 197.883 186.394 199.66 185.648C201.627 184.828 202.457 182.515 203.993 181.033C205.738 179.352 208.903 178.984 210.501 180.813C208.451 177.239 203.372 176.892 200.859 180.161C200.291 180.907 199.892 181.79 199.208 182.431C197.431 184.113 194.592 183.524 192.174 183.903C188.567 184.47 186.033 187.393 185.854 189.348C185.612 191.986 188.283 194.046 189.934 195.192C192.079 196.674 193.435 198.188 193.33 201.509C194.634 199.522 194.371 196.39 193.299 195.371L193.309 195.381Z" fill="#FEF8EE"/>
<path d="M198.178 141.669C194.613 139.43 191.48 135.362 187.757 133.082C183.625 130.548 178.493 130.212 174.119 128.11C166.338 124.357 162.1 115.633 154.708 111.166C147.464 106.793 138.305 107.182 130.051 108.99C124.782 110.146 119.462 111.839 114.11 111.166C110.24 110.682 106.623 109.001 102.837 108.065C92.0911 105.416 79.9987 109.474 73.0167 118.061C70.9768 120.573 69.2839 123.485 66.5815 125.261C62.6173 127.858 57.0759 127.605 53.6269 130.864C47.8962 136.277 51.1033 148.27 43.9636 151.623C41.6818 152.695 39.0215 152.401 36.5399 152.885C30.1888 154.114 25.7094 160.82 26.1195 167.274C26.3718 171.227 27.907 173.917 30.0416 176.23C14.8999 172.372 12.6917 145.211 37.4337 144.223C31.6083 131.873 42.3758 114.761 62.1231 118.65C66.0032 104.891 99.1677 94.1273 116.276 108.065C129.861 97.8377 159.672 99.2462 167.253 118.471C184.424 120.174 193.867 130.286 198.188 141.68L198.178 141.669Z" fill="#FEF8EE"/>
<path d="M110.629 225.769H110.619C98.2319 225.769 92.375 219.672 86.5812 212.272C82.0912 215.426 75.4878 215.52 70.43 212.493C65.9191 209.792 63.7004 205.283 64.3102 200.08C57.3388 201.614 49.6627 198.629 45.9509 192.9C42.7543 187.971 43.1434 182.158 47.0129 176.902H33.7114C24.374 176.902 18.6327 168.788 18.475 160.947C18.3278 153.536 23.1227 144.696 37.0762 144.003C34.4264 138.085 35.3938 131.084 39.6314 125.65C44.6155 119.27 52.7437 116.621 61.9549 118.366C63.7635 112.406 71.0189 106.772 80.9767 103.619C91.4602 100.308 106.213 99.6666 116.276 107.75C124.309 101.79 137.769 99.8453 149.072 103.03C157.979 105.542 164.477 110.935 167.411 118.229C189.934 120.521 197.421 136.697 199.881 146.273C208.966 146.567 216.527 151.129 220.638 158.802C224.644 166.276 224.434 175.242 220.123 182.242C227.883 187.697 230.554 195.665 227.283 203.601C224.066 211.4 214.886 218.243 203.551 216.225C199.65 215.531 195.938 214.711 192.342 213.923C181.879 211.621 172.006 209.455 158.262 210.233C147.442 210.843 140.608 214.669 134.004 218.369C127.211 222.163 120.808 225.758 110.64 225.758L110.629 225.769ZM86.6338 211.736C86.6969 211.736 86.7705 211.768 86.8125 211.82C92.5748 219.199 98.3371 225.317 110.629 225.317H110.64C120.682 225.317 127.043 221.753 133.783 217.98C140.439 214.259 147.316 210.401 158.241 209.792C172.037 209.014 181.953 211.19 192.437 213.492C196.022 214.28 199.723 215.089 203.625 215.794C214.707 217.78 223.719 211.085 226.863 203.443C230.07 195.665 227.389 187.834 219.681 182.505C219.586 182.442 219.555 182.305 219.618 182.2C223.961 175.305 224.192 166.433 220.228 159.034C216.169 151.455 208.682 146.977 199.692 146.735C199.587 146.735 199.503 146.662 199.482 146.567C197.084 137.107 189.713 120.91 167.221 118.681C167.137 118.681 167.064 118.618 167.032 118.545C164.182 111.313 157.758 105.973 148.936 103.482C145.434 102.494 141.712 102 138.021 101.979L148.515 112.48C148.599 112.564 148.599 112.711 148.515 112.795C148.431 112.879 148.284 112.879 148.2 112.795L137.621 102.21C137.558 102.147 137.537 102.053 137.569 101.979C129.577 102.011 121.744 104.207 116.402 108.233C116.318 108.296 116.202 108.296 116.129 108.233C106.202 100.14 91.5338 100.781 81.1133 104.071C71.1871 107.203 63.9948 112.816 62.3334 118.702C62.3019 118.818 62.1862 118.881 62.0705 118.86C52.9434 117.063 44.8889 119.648 39.9889 125.944C35.7828 131.337 34.8785 138.306 37.623 144.129C37.6545 144.192 37.6545 144.276 37.623 144.339C37.5809 144.402 37.5178 144.444 37.4442 144.444C23.5538 145.001 18.801 153.683 18.9377 160.947C19.0849 168.567 24.6579 176.461 33.7219 176.461H102.333C102.459 176.461 102.554 176.566 102.554 176.682C102.554 176.797 102.448 176.902 102.333 176.902H47.5808C43.6481 182.074 43.1855 187.813 46.3295 192.659C49.9992 198.314 57.6437 201.225 64.5311 199.575C64.6047 199.554 64.6783 199.575 64.7309 199.628C64.7834 199.68 64.815 199.754 64.8045 199.827C64.0894 204.978 66.224 209.455 70.6614 212.115C75.635 215.089 82.1438 214.963 86.4971 211.789C86.5391 211.757 86.5812 211.747 86.6338 211.747V211.736Z" fill="#472C27"/>
<path d="M123.542 187.666H86.2763C86.2132 187.666 86.1606 187.645 86.1186 187.603L75.7086 177.197C75.6245 177.113 75.6245 176.965 75.7086 176.881C75.7927 176.797 75.94 176.797 76.0241 176.881L86.3604 187.224H123.531C123.657 187.224 123.752 187.329 123.752 187.445C123.752 187.561 123.647 187.666 123.531 187.666H123.542ZM162.3 159.612H129.136C129.01 159.612 128.915 159.507 128.915 159.391C128.915 159.275 129.02 159.17 129.136 159.17H162.206L191.28 130.096C191.364 130.012 191.511 130.012 191.595 130.096C191.679 130.18 191.679 130.328 191.595 130.412L162.458 159.549C162.458 159.549 162.363 159.612 162.3 159.612ZM85.7505 158.119H51.0928C51.0297 158.119 50.9771 158.098 50.9351 158.056L37.2655 144.381C37.1814 144.297 37.1814 144.15 37.2655 144.066C37.3496 143.982 37.4968 143.982 37.5809 144.066L51.1875 157.678H85.7505C85.8767 157.678 85.9713 157.783 85.9713 157.898C85.9713 158.014 85.8662 158.119 85.7505 158.119ZM78.6003 135.362C78.5477 135.362 78.4846 135.341 78.4425 135.299L61.9549 118.807C61.8708 118.723 61.8708 118.576 61.9549 118.492C62.039 118.408 62.1862 118.408 62.2703 118.492L78.758 134.984C78.8421 135.068 78.8421 135.215 78.758 135.299C78.7159 135.341 78.6528 135.362 78.6003 135.362ZM105.414 119.123H93.1531C93.027 119.123 92.9323 119.018 92.9323 118.902C92.9323 118.786 93.0375 118.681 93.1531 118.681H105.319L116.097 107.897C116.181 107.813 116.328 107.813 116.412 107.897C116.497 107.981 116.497 108.128 116.412 108.212L105.561 119.06C105.561 119.06 105.466 119.123 105.403 119.123H105.414Z" fill="#472C27"/>
<path d="M139.125 215.573C139.072 215.573 139.009 215.552 138.967 215.51L127.611 204.147C127.527 204.063 127.527 203.916 127.611 203.832C127.695 203.748 127.842 203.748 127.927 203.832L139.283 215.194C139.367 215.279 139.367 215.426 139.283 215.51C139.241 215.552 139.178 215.573 139.125 215.573ZM86.6338 212.188C86.5812 212.188 86.5181 212.167 86.4761 212.125C86.3919 212.041 86.3919 211.894 86.4761 211.81L97.5905 200.7C97.6746 200.616 97.8218 200.616 97.906 200.7C97.9901 200.784 97.9901 200.931 97.906 201.015L86.7915 212.125C86.7915 212.125 86.6864 212.188 86.6338 212.188ZM153.478 210.748C153.426 210.748 153.362 210.727 153.32 210.685C153.236 210.601 153.236 210.454 153.32 210.37L171.059 192.638L154.099 175.673H141.312C141.186 175.673 141.091 175.567 141.091 175.452C141.091 175.336 141.197 175.231 141.312 175.231H154.193C154.256 175.231 154.309 175.252 154.351 175.294L171.375 192.322L182.069 181.632C182.153 181.548 182.3 181.548 182.384 181.632C182.468 181.717 182.468 181.864 182.384 181.948L171.543 192.795L153.657 210.685C153.657 210.685 153.552 210.748 153.499 210.748H153.478ZM202.079 200.279H188.052C187.926 200.279 187.831 200.174 187.831 200.058C187.831 199.943 187.936 199.838 188.052 199.838H201.984L219.65 182.168C219.734 182.084 219.881 182.084 219.965 182.168C220.049 182.253 220.049 182.4 219.965 182.484L202.237 200.216C202.237 200.216 202.142 200.279 202.079 200.279ZM203.404 168.966C203.351 168.966 203.288 168.945 203.246 168.903C203.162 168.819 203.162 168.672 203.246 168.588L217.336 154.493C217.42 154.409 217.568 154.409 217.652 154.493C217.736 154.577 217.736 154.724 217.652 154.808L203.561 168.903C203.561 168.903 203.456 168.966 203.404 168.966ZM154.014 159.612C153.962 159.612 153.899 159.591 153.857 159.549L139.104 144.791H105.687C105.561 144.791 105.466 144.686 105.466 144.57C105.466 144.455 105.571 144.349 105.687 144.349H139.199C139.262 144.349 139.314 144.37 139.356 144.412L154.172 159.233C154.256 159.317 154.256 159.464 154.172 159.549C154.13 159.591 154.067 159.612 154.014 159.612ZM156.832 129.098H134.078C133.952 129.098 133.857 128.993 133.857 128.877C133.857 128.761 133.962 128.656 134.078 128.656H156.738L167.074 118.313C167.158 118.229 167.305 118.229 167.39 118.313C167.474 118.397 167.474 118.545 167.39 118.629L156.98 129.035C156.98 129.035 156.885 129.098 156.822 129.098H156.832Z" fill="#472C27"/>
<path d="M104.793 179.152C106.158 179.152 107.264 178.046 107.264 176.682C107.264 175.317 106.158 174.212 104.793 174.212C103.429 174.212 102.322 175.317 102.322 176.682C102.322 178.046 103.429 179.152 104.793 179.152Z" fill="#FEF8EE"/>
<path d="M104.793 179.373C103.311 179.373 102.101 178.164 102.101 176.682C102.101 175.2 103.311 173.991 104.793 173.991C106.276 173.991 107.485 175.2 107.485 176.682C107.485 178.164 106.276 179.373 104.793 179.373ZM104.793 174.432C103.553 174.432 102.554 175.441 102.554 176.682C102.554 177.922 103.563 178.931 104.793 178.931C106.024 178.931 107.033 177.922 107.033 176.682C107.033 175.441 106.024 174.432 104.793 174.432Z" fill="#472C27"/>
<path d="M138.841 177.912C140.206 177.912 141.312 176.806 141.312 175.441C141.312 174.077 140.206 172.971 138.841 172.971C137.476 172.971 136.37 174.077 136.37 175.441C136.37 176.806 137.476 177.912 138.841 177.912Z" fill="#FEF8EE"/>
<path d="M138.841 178.143C137.359 178.143 136.149 176.934 136.149 175.452C136.149 173.97 137.359 172.761 138.841 172.761C140.324 172.761 141.533 173.97 141.533 175.452C141.533 176.934 140.324 178.143 138.841 178.143ZM138.841 173.203C137.6 173.203 136.601 174.212 136.601 175.452C136.601 176.692 137.611 177.701 138.841 177.701C140.071 177.701 141.081 176.692 141.081 175.452C141.081 174.212 140.071 173.203 138.841 173.203Z" fill="#472C27"/>
<path d="M126.013 189.915C127.377 189.915 128.484 188.809 128.484 187.445C128.484 186.081 127.377 184.975 126.013 184.975C124.648 184.975 123.542 186.081 123.542 187.445C123.542 188.809 124.648 189.915 126.013 189.915Z" fill="#FEF8EE"/>
<path d="M126.013 190.136C124.53 190.136 123.321 188.927 123.321 187.445C123.321 185.963 124.53 184.754 126.013 184.754C127.495 184.754 128.705 185.963 128.705 187.445C128.705 188.927 127.495 190.136 126.013 190.136ZM126.013 185.196C124.772 185.196 123.773 186.205 123.773 187.445C123.773 188.685 124.782 189.695 126.013 189.695C127.243 189.695 128.252 188.685 128.252 187.445C128.252 186.205 127.243 185.196 126.013 185.196Z" fill="#472C27"/>
<path d="M185.591 202.529C186.956 202.529 188.062 201.423 188.062 200.059C188.062 198.694 186.956 197.588 185.591 197.588C184.227 197.588 183.12 198.694 183.12 200.059C183.12 201.423 184.227 202.529 185.591 202.529Z" fill="#FEF8EE"/>
<path d="M185.591 202.749C184.109 202.749 182.899 201.541 182.899 200.059C182.899 198.576 184.109 197.368 185.591 197.368C187.074 197.368 188.283 198.576 188.283 200.059C188.283 201.541 187.074 202.749 185.591 202.749ZM185.591 197.809C184.35 197.809 183.351 198.818 183.351 200.059C183.351 201.299 184.361 202.308 185.591 202.308C186.821 202.308 187.831 201.299 187.831 200.059C187.831 198.818 186.821 197.809 185.591 197.809Z" fill="#472C27"/>
<path d="M126.675 161.861C128.04 161.861 129.146 160.755 129.146 159.391C129.146 158.027 128.04 156.921 126.675 156.921C125.31 156.921 124.204 158.027 124.204 159.391C124.204 160.755 125.31 161.861 126.675 161.861Z" fill="#FEF8EE"/>
<path d="M126.675 162.082C125.193 162.082 123.983 160.873 123.983 159.391C123.983 157.909 125.193 156.7 126.675 156.7C128.158 156.7 129.367 157.909 129.367 159.391C129.367 160.873 128.158 162.082 126.675 162.082ZM126.675 157.142C125.434 157.142 124.435 158.151 124.435 159.391C124.435 160.631 125.445 161.64 126.675 161.64C127.905 161.64 128.915 160.631 128.915 159.391C128.915 158.151 127.905 157.142 126.675 157.142Z" fill="#472C27"/>
<path d="M103.216 147.04C104.581 147.04 105.687 145.934 105.687 144.57C105.687 143.206 104.581 142.1 103.216 142.1C101.851 142.1 100.745 143.206 100.745 144.57C100.745 145.934 101.851 147.04 103.216 147.04Z" fill="#FEF8EE"/>
<path d="M103.206 147.261C101.723 147.261 100.514 146.052 100.514 144.57C100.514 143.088 101.723 141.879 103.206 141.879C104.688 141.879 105.897 143.088 105.897 144.57C105.897 146.052 104.688 147.261 103.206 147.261ZM103.206 142.321C101.965 142.321 100.966 143.33 100.966 144.57C100.966 145.81 101.975 146.82 103.206 146.82C104.436 146.82 105.445 145.81 105.445 144.57C105.445 143.33 104.436 142.321 103.206 142.321Z" fill="#472C27"/>
<path d="M88.2215 160.358C89.5863 160.358 90.6926 159.252 90.6926 157.888C90.6926 156.524 89.5863 155.418 88.2215 155.418C86.8568 155.418 85.7505 156.524 85.7505 157.888C85.7505 159.252 86.8568 160.358 88.2215 160.358Z" fill="#FEF8EE"/>
<path d="M88.2215 160.589C86.7389 160.589 85.5297 159.38 85.5297 157.898C85.5297 156.416 86.7389 155.207 88.2215 155.207C89.7042 155.207 90.9134 156.416 90.9134 157.898C90.9134 159.38 89.7042 160.589 88.2215 160.589ZM88.2215 155.649C86.9807 155.649 85.9818 156.658 85.9818 157.898C85.9818 159.139 86.9913 160.148 88.2215 160.148C89.4518 160.148 90.4612 159.139 90.4612 157.898C90.4612 156.658 89.4518 155.649 88.2215 155.649Z" fill="#472C27"/>
<path d="M80.3457 139.346C81.7105 139.346 82.8168 138.24 82.8168 136.876C82.8168 135.512 81.7105 134.406 80.3457 134.406C78.981 134.406 77.8747 135.512 77.8747 136.876C77.8747 138.24 78.981 139.346 80.3457 139.346Z" fill="#FEF8EE"/>
<path d="M80.3457 139.577C78.8631 139.577 77.6539 138.369 77.6539 136.887C77.6539 135.404 78.8631 134.196 80.3457 134.196C81.8284 134.196 83.0376 135.404 83.0376 136.887C83.0376 138.369 81.8284 139.577 80.3457 139.577ZM80.3457 134.637C79.105 134.637 78.106 135.646 78.106 136.887C78.106 138.127 79.1155 139.136 80.3457 139.136C81.576 139.136 82.5854 138.127 82.5854 136.887C82.5854 135.646 81.576 134.637 80.3457 134.637Z" fill="#472C27"/>
<path d="M126.023 204.715C127.388 204.715 128.494 203.609 128.494 202.245C128.494 200.881 127.388 199.775 126.023 199.775C124.659 199.775 123.552 200.881 123.552 202.245C123.552 203.609 124.659 204.715 126.023 204.715Z" fill="#FEF8EE"/>
<path d="M126.023 204.936C124.541 204.936 123.331 203.727 123.331 202.245C123.331 200.763 124.541 199.554 126.023 199.554C127.506 199.554 128.715 200.763 128.715 202.245C128.715 203.727 127.506 204.936 126.023 204.936ZM126.023 199.995C124.782 199.995 123.784 201.004 123.784 202.245C123.784 203.485 124.793 204.494 126.023 204.494C127.254 204.494 128.263 203.485 128.263 202.245C128.263 201.004 127.254 199.995 126.023 199.995Z" fill="#472C27"/>
<path d="M99.4938 201.572C100.858 201.572 101.965 200.466 101.965 199.102C101.965 197.738 100.858 196.632 99.4938 196.632C98.129 196.632 97.0227 197.738 97.0227 199.102C97.0227 200.466 98.129 201.572 99.4938 201.572Z" fill="#FEF8EE"/>
<path d="M99.4937 201.793C98.0111 201.793 96.8019 200.584 96.8019 199.102C96.8019 197.62 98.0111 196.411 99.4937 196.411C100.976 196.411 102.186 197.62 102.186 199.102C102.186 200.584 100.976 201.793 99.4937 201.793ZM99.4937 196.853C98.253 196.853 97.254 197.862 97.254 199.102C97.254 200.342 98.2635 201.351 99.4937 201.351C100.724 201.351 101.733 200.342 101.733 199.102C101.733 197.862 100.724 196.853 99.4937 196.853Z" fill="#472C27"/>
<path d="M201.658 172.961C203.023 172.961 204.129 171.855 204.129 170.491C204.129 169.126 203.023 168.021 201.658 168.021C200.294 168.021 199.187 169.126 199.187 170.491C199.187 171.855 200.294 172.961 201.658 172.961Z" fill="#FEF8EE"/>
<path d="M201.658 173.182C200.176 173.182 198.966 171.973 198.966 170.491C198.966 169.009 200.176 167.8 201.658 167.8C203.141 167.8 204.35 169.009 204.35 170.491C204.35 171.973 203.141 173.182 201.658 173.182ZM201.658 168.241C200.417 168.241 199.419 169.25 199.419 170.491C199.419 171.731 200.428 172.74 201.658 172.74C202.888 172.74 203.898 171.731 203.898 170.491C203.898 169.25 202.888 168.241 201.658 168.241Z" fill="#472C27"/>
<path d="M183.961 182.505C185.326 182.505 186.432 181.399 186.432 180.035C186.432 178.67 185.326 177.565 183.961 177.565C182.597 177.565 181.49 178.67 181.49 180.035C181.49 181.399 182.597 182.505 183.961 182.505Z" fill="#FEF8EE"/>
<path d="M183.961 182.726C182.479 182.726 181.27 181.517 181.27 180.035C181.27 178.553 182.479 177.344 183.961 177.344C185.444 177.344 186.653 178.553 186.653 180.035C186.653 181.517 185.444 182.726 183.961 182.726ZM183.961 177.785C182.721 177.785 181.722 178.794 181.722 180.035C181.722 181.275 182.731 182.284 183.961 182.284C185.192 182.284 186.201 181.275 186.201 180.035C186.201 178.794 185.192 177.785 183.961 177.785Z" fill="#472C27"/>
<path d="M150.113 116.852C151.478 116.852 152.584 115.746 152.584 114.382C152.584 113.018 151.478 111.912 150.113 111.912C148.749 111.912 147.642 113.018 147.642 114.382C147.642 115.746 148.749 116.852 150.113 116.852Z" fill="#FEF8EE"/>
<path d="M150.113 117.084C148.631 117.084 147.421 115.875 147.421 114.393C147.421 112.911 148.631 111.702 150.113 111.702C151.596 111.702 152.805 112.911 152.805 114.393C152.805 115.875 151.596 117.084 150.113 117.084ZM150.113 112.143C148.873 112.143 147.874 113.152 147.874 114.393C147.874 115.633 148.883 116.642 150.113 116.642C151.344 116.642 152.353 115.633 152.353 114.393C152.353 113.152 151.344 112.143 150.113 112.143Z" fill="#472C27"/>
<path d="M131.607 131.337C132.972 131.337 134.078 130.231 134.078 128.866C134.078 127.502 132.972 126.396 131.607 126.396C130.242 126.396 129.136 127.502 129.136 128.866C129.136 130.231 130.242 131.337 131.607 131.337Z" fill="#FEF8EE"/>
<path d="M131.607 131.568C130.124 131.568 128.915 130.359 128.915 128.877C128.915 127.395 130.124 126.186 131.607 126.186C133.089 126.186 134.299 127.395 134.299 128.877C134.299 130.359 133.089 131.568 131.607 131.568ZM131.607 126.628C130.366 126.628 129.367 127.637 129.367 128.877C129.367 130.117 130.377 131.126 131.607 131.126C132.837 131.126 133.846 130.117 133.846 128.877C133.846 127.637 132.837 126.628 131.607 126.628Z" fill="#472C27"/>
<path d="M90.6821 121.372C92.0468 121.372 93.1531 120.266 93.1531 118.902C93.1531 117.538 92.0468 116.432 90.6821 116.432C89.3174 116.432 88.2111 117.538 88.2111 118.902C88.2111 120.266 89.3174 121.372 90.6821 121.372Z" fill="#FEF8EE"/>
<path d="M90.6821 121.593C89.1995 121.593 87.9902 120.384 87.9902 118.902C87.9902 117.42 89.1995 116.211 90.6821 116.211C92.1647 116.211 93.374 117.42 93.374 118.902C93.374 120.384 92.1647 121.593 90.6821 121.593ZM90.6821 116.653C89.4413 116.653 88.4424 117.662 88.4424 118.902C88.4424 120.142 89.4518 121.151 90.6821 121.151C91.9124 121.151 92.9218 120.142 92.9218 118.902C92.9218 117.662 91.9124 116.653 90.6821 116.653Z" fill="#472C27"/>
<path d="M203.572 216.025C189.25 213.471 178.02 209.424 161.07 209.907C162.91 208.415 164.698 207.322 167.568 206.996C175.581 206.092 193.299 211.61 198.84 209.34C201.406 208.289 203.383 205.241 202.247 202.707C201.543 201.131 199.839 200.111 199.345 198.461C197.663 192.869 208.367 191.135 213.456 186.92C216.243 184.618 218.23 180.876 217.2 177.418C216.663 175.589 212.079 169.86 221.069 163.879C221.448 163.627 221.816 163.396 222.184 163.175C224.119 169.429 223.498 176.451 219.786 182.326C238.661 195.381 223.319 219.546 203.562 216.025H203.572ZM169.608 143.456C168.63 142.226 167.831 140.713 168.063 139.157C168.283 137.622 169.524 136.361 170.965 135.783C172.405 135.205 174.014 135.194 175.549 135.405C182.405 136.351 188.441 141.69 190.197 148.386C190.87 150.94 190.681 154.188 188.409 155.533C187.4 156.133 186.149 156.217 184.992 156.059C181.217 155.565 179.945 153.252 177.663 150.772C175.202 148.091 171.901 146.326 169.619 143.456H169.608Z" fill="#472C27"/>
<path d="M207.536 216.603C206.243 216.603 204.907 216.487 203.54 216.246C199.639 215.552 195.928 214.732 192.342 213.944C182.594 211.799 173.383 209.781 161.091 210.128C161.007 210.118 160.912 210.076 160.87 209.981C160.839 209.886 160.87 209.792 160.944 209.729C162.837 208.194 164.687 207.101 167.568 206.775C171.249 206.365 176.979 207.29 182.531 208.194C189.061 209.256 195.822 210.349 198.777 209.14C200.228 208.552 201.48 207.301 202.047 205.871C202.478 204.799 202.489 203.737 202.068 202.802C201.763 202.108 201.238 201.509 200.722 200.931C200.092 200.216 199.44 199.47 199.156 198.524C197.999 194.677 202.3 192.627 206.842 190.451C209.177 189.337 211.595 188.181 213.33 186.741C215.896 184.618 218.03 180.928 217 177.47C216.926 177.228 216.779 176.902 216.6 176.514C215.454 174.054 213.067 168.925 220.964 163.679C221.342 163.427 221.721 163.196 222.079 162.975C222.142 162.933 222.215 162.933 222.278 162.954C222.341 162.975 222.394 163.028 222.415 163.101C224.434 169.639 223.593 176.608 220.112 182.263C227.872 187.718 230.543 195.686 227.273 203.622C224.444 210.486 217 216.603 207.536 216.603ZM203.614 215.804C214.707 217.791 223.708 211.095 226.852 203.454C230.06 195.675 227.378 187.845 219.671 182.515C219.576 182.452 219.544 182.316 219.608 182.211C223.067 176.713 223.95 169.923 222.058 163.522C221.774 163.69 221.49 163.879 221.206 164.068C213.635 169.103 215.822 173.812 217 176.335C217.189 176.734 217.347 177.081 217.431 177.354C218.514 181.012 216.295 184.88 213.614 187.098C211.837 188.57 209.387 189.737 207.031 190.861C202.657 192.953 198.535 194.919 199.576 198.398C199.829 199.249 200.428 199.922 201.048 200.637C201.585 201.246 202.131 201.866 202.468 202.623C202.941 203.674 202.931 204.852 202.457 206.05C201.848 207.585 200.491 208.93 198.945 209.561C195.864 210.822 189.345 209.76 182.458 208.646C176.937 207.753 171.228 206.828 167.621 207.227C165.097 207.511 163.446 208.373 161.754 209.666C173.772 209.413 182.847 211.4 192.447 213.513C196.033 214.301 199.734 215.11 203.625 215.815L203.614 215.804ZM185.98 156.353C185.654 156.353 185.307 156.332 184.96 156.28C181.753 155.859 180.292 154.156 178.609 152.191C178.262 151.781 177.894 151.36 177.495 150.929C176.391 149.721 175.087 148.691 173.825 147.682C172.29 146.452 170.702 145.19 169.43 143.603C168.168 142.016 167.631 140.513 167.842 139.136C168.063 137.633 169.251 136.245 170.881 135.583C172.163 135.058 173.699 134.932 175.581 135.194C182.531 136.151 188.63 141.554 190.418 148.344C191.08 150.856 190.975 154.293 188.525 155.744C187.82 156.164 186.969 156.364 185.98 156.364V156.353ZM169.787 143.319C171.017 144.875 172.595 146.126 174.109 147.335C175.381 148.344 176.695 149.395 177.831 150.625C178.231 151.056 178.599 151.487 178.946 151.896C180.639 153.873 181.985 155.439 185.013 155.838C186.338 156.017 187.442 155.838 188.294 155.344C190.533 154.03 190.596 150.803 189.976 148.449C188.241 141.837 182.289 136.561 175.518 135.636C173.72 135.394 172.248 135.51 171.049 135.993C169.566 136.592 168.483 137.854 168.294 139.199C168.115 140.45 168.62 141.837 169.798 143.319H169.787Z" fill="#472C27"/>
<path d="M61.9338 119.102C61.8181 119.102 61.7025 119.06 61.6183 118.965L22.6074 79.9688C22.4286 79.7901 22.4286 79.5063 22.6074 79.3276C22.7862 79.1489 23.0701 79.1489 23.2488 79.3276L62.2598 118.324C62.4385 118.503 62.4385 118.786 62.2598 118.965C62.1756 119.049 62.06 119.102 61.9443 119.102H61.9338Z" fill="#472C27"/>
<path d="M21.1774 80.3892C22.5479 80.3892 23.6589 79.2786 23.6589 77.9086C23.6589 76.5386 22.5479 75.428 21.1774 75.428C19.8068 75.428 18.6958 76.5386 18.6958 77.9086C18.6958 79.2786 19.8068 80.3892 21.1774 80.3892Z" fill="#472C27"/>
<path d="M21.1774 80.8307C19.558 80.8307 18.2437 79.5168 18.2437 77.8981C18.2437 76.2793 19.558 74.9655 21.1774 74.9655C22.7967 74.9655 24.1111 76.2793 24.1111 77.8981C24.1111 79.5168 22.7967 80.8307 21.1774 80.8307ZM21.1774 75.8799C20.0628 75.8799 19.1479 76.7839 19.1479 77.9086C19.1479 79.0333 20.0522 79.9372 21.1774 79.9372C22.3025 79.9372 23.2068 79.0333 23.2068 77.9086C23.2068 76.7839 22.3025 75.8799 21.1774 75.8799Z" fill="#472C27"/>
<path d="M120.955 104.018C120.839 104.018 120.724 103.976 120.639 103.882C120.461 103.703 120.461 103.419 120.639 103.24L159.65 64.2441C159.829 64.0654 160.113 64.0654 160.292 64.2441C160.471 64.4228 160.471 64.7066 160.292 64.8853L121.281 103.882C121.197 103.966 121.081 104.018 120.965 104.018H120.955Z" fill="#472C27"/>
<path d="M161.722 65.2952C163.092 65.2952 164.203 64.1846 164.203 62.8146C164.203 61.4446 163.092 60.334 161.722 60.334C160.351 60.334 159.24 61.4446 159.24 62.8146C159.24 64.1846 160.351 65.2952 161.722 65.2952Z" fill="#472C27"/>
<path d="M161.722 65.7472C160.103 65.7472 158.788 64.4333 158.788 62.8146C158.788 61.1958 160.103 59.882 161.722 59.882C163.341 59.882 164.656 61.1958 164.656 62.8146C164.656 64.4333 163.341 65.7472 161.722 65.7472ZM161.722 60.7964C160.607 60.7964 159.693 61.7004 159.693 62.8251C159.693 63.9498 160.597 64.8537 161.722 64.8537C162.847 64.8537 163.751 63.9498 163.751 62.8251C163.751 61.7004 162.847 60.7964 161.722 60.7964Z" fill="#472C27"/>
<path d="M203.803 216.025C189.482 213.471 178.252 209.424 161.301 209.907C160.376 209.939 159.43 209.971 158.462 210.034C136.591 211.274 130.944 225.559 110.839 225.559C98.316 225.559 92.4906 219.21 86.8545 211.978C78.3899 218.148 63.0379 212.504 64.8044 199.806C51.5765 202.981 37.644 189.747 47.6964 176.692H33.9321C32.6283 176.692 31.398 176.535 30.2414 176.24C15.0996 172.383 12.8915 145.222 37.6335 144.234C31.8081 131.883 42.5755 114.771 62.3229 118.66C66.2029 104.901 99.3675 94.1378 116.476 108.076C130.061 97.8482 159.871 99.2567 167.453 118.482C184.624 120.184 194.066 130.296 198.388 141.69C198.987 143.277 199.492 144.886 199.913 146.536C211.637 146.851 219.65 154.251 222.415 163.196C224.35 169.45 223.729 176.472 220.018 182.347C238.892 195.402 223.551 219.567 203.793 216.046L203.803 216.025Z" fill="#F09947"/>
<path d="M127.054 171.353C130.082 170.911 131.407 168.105 133.962 166.654C137.411 164.699 142.227 165.666 144.645 168.798C145.907 170.428 146.759 172.677 148.736 173.255C152.647 174.401 154.835 168.788 157.085 166.917C163.352 161.703 169.976 172.13 172.763 162.376C173.867 158.508 176.043 158.277 176.885 157.247C177.421 156.595 177.484 155.596 177.021 154.913C177.169 156.28 175.623 157.257 174.445 157.972C170.081 160.61 171.322 160.736 170.05 162.26C167.926 164.815 163.73 162.828 161.396 162.597C155.182 161.966 154.109 167.054 150.713 167.432C147.127 167.821 144.162 162.376 138.894 162.008C133.531 161.619 132.017 165.014 129.63 167.611C128.473 168.872 126.538 170.753 123.489 170.659C124.215 171.405 126.034 171.51 127.043 171.363L127.054 171.353ZM77.9798 158.172C76.5077 155.05 77.5277 150.961 80.2826 148.89C82.1648 147.471 84.6148 147.009 86.5917 145.726C91.5969 142.51 92.2383 135.678 95.7293 131.147C97.5063 128.846 100.282 127.069 103.163 127.406C104.583 127.574 105.897 128.236 107.17 128.898C116.528 133.786 117.306 131.894 126.276 129.602C135.466 127.248 137.39 132.651 138.357 134.006C143.058 140.555 150.481 135.32 154.414 134.343C158.841 133.25 160.418 137.769 152.038 145.327C154.509 141.753 156.506 136.077 152.395 137.927C137.022 144.875 135.834 136.771 131.849 134.91C128.705 133.449 125.193 135.583 121.838 136.445C113.983 138.463 106.865 133.323 103.542 133.523C98.0952 133.849 97.4748 141.711 97.0857 142.689C96.1289 145.106 92.3539 147.608 89.967 148.68C87.1385 149.941 83.7947 150.656 81.944 153.137C79.2837 156.711 81.2395 159.832 83.4687 162.239C80.8925 161.987 78.9052 160.127 77.9693 158.161L77.9798 158.172ZM76.3395 190.367C78.6528 189.789 81.2395 190.777 83.4161 189.81C84.7726 189.211 85.6979 187.96 86.8125 186.983C89.7357 184.407 94.1625 183.777 97.7587 185.259C101.355 186.751 104.005 190.22 104.667 194.057C105.235 197.378 104.625 201.351 107.138 203.601C108.579 204.894 110.703 205.198 112.164 206.481C113.5 207.658 114.068 209.519 114.078 211.295C114.089 213.071 113.584 214.816 113.09 216.519C114.005 214.301 114.846 211.999 114.94 209.592C115.035 207.196 114.267 204.652 112.427 203.096C111.723 202.508 110.882 202.066 110.282 201.372C108.884 199.775 109.104 197.399 108.821 195.297C108.242 191.061 105.245 187.414 101.534 185.28C97.8218 183.146 93.4791 182.379 89.2099 182.2C88.0953 182.158 86.9177 182.158 85.9187 182.652C83.7947 183.703 83.1112 186.573 81.0502 187.718C78.8105 188.959 75.8873 187.718 73.5109 188.664C71.8601 189.327 70.7665 190.966 70.3038 192.68C70.0094 193.762 69.7255 195.276 70.0725 196.317C71.7654 192.133 73.3742 191.103 76.3605 190.357L76.3395 190.367ZM193.53 195.381C192.952 194.824 189.566 193.048 190.565 189.39C191.017 187.729 192.458 186.373 194.15 186.016C196.043 185.616 198.104 186.394 199.881 185.648C201.847 184.828 202.678 182.515 204.213 181.033C205.959 179.352 209.124 178.984 210.722 180.813C208.672 177.239 203.593 176.892 201.08 180.161C200.512 180.907 200.113 181.79 199.429 182.431C197.652 184.113 194.813 183.524 192.394 183.903C188.788 184.47 186.254 187.393 186.075 189.348C185.833 191.986 188.504 194.046 190.155 195.192C192.3 196.674 193.656 198.188 193.551 201.509C194.855 199.522 194.592 196.39 193.52 195.371L193.53 195.381Z" fill="#FEF8EE"/>
<path d="M198.399 141.669C194.834 139.43 191.7 135.362 187.978 133.082C183.846 130.548 178.714 130.212 174.34 128.11C166.559 124.357 162.321 115.633 154.929 111.166C147.684 106.793 138.526 107.182 130.271 108.99C125.003 110.146 119.683 111.839 114.33 111.166C110.461 110.682 106.844 109.001 103.058 108.065C92.3119 105.416 80.2196 109.474 73.2375 118.061C71.1976 120.573 69.5047 123.485 66.8023 125.261C62.8381 127.858 57.2967 127.605 53.8477 130.864C48.117 136.277 51.3241 148.27 44.1844 151.623C41.9026 152.695 39.2423 152.401 36.7607 152.885C30.4096 154.114 25.9302 160.82 26.3403 167.274C26.5926 171.227 28.1278 173.917 30.2624 176.23C15.1207 172.372 12.9125 145.211 37.6545 144.223C31.8292 131.873 42.5966 114.761 62.3439 118.65C66.224 104.891 99.3885 94.1273 116.497 108.065C130.082 97.8377 159.892 99.2462 167.474 118.471C184.645 120.174 194.087 130.286 198.409 141.68L198.399 141.669Z" fill="#FEF8EE"/>
<path d="M110.861 226H110.85C98.4527 226 92.5537 219.956 86.7705 212.577C82.2174 215.657 75.6139 215.72 70.5457 212.682C66.0557 209.992 63.795 205.524 64.2997 200.363C57.3177 201.761 49.7048 198.734 46.0035 193.016C42.8279 188.118 43.1329 182.368 46.8237 177.123H33.9532C29.5894 177.123 25.6042 175.336 22.7441 172.088C20.1259 169.114 18.5696 165.056 18.4855 160.957C18.4014 156.563 19.9681 152.475 22.9019 149.458C26.1615 146.105 31.0195 144.15 36.9815 143.792C34.4684 137.864 35.4779 130.927 39.6944 125.524C42.0288 122.528 45.2043 120.247 48.8846 118.944C52.8698 117.525 57.2967 117.241 62.0495 118.114C63.9738 112.154 71.2292 106.551 81.1449 103.419C91.6389 100.098 106.392 99.4459 116.528 107.476C124.635 101.559 138.084 99.6456 149.388 102.831C158.305 105.343 164.834 110.735 167.821 118.04C176.864 118.986 184.371 122.318 190.134 127.931C194.918 132.588 198.43 138.863 200.312 146.073C209.408 146.42 216.968 151.024 221.09 158.729C225.096 166.213 224.918 175.168 220.669 182.2C224.655 185.049 227.262 188.496 228.44 192.448C229.513 196.096 229.281 199.985 227.746 203.695C224.886 210.633 217.357 216.824 207.799 216.824C206.485 216.824 205.139 216.708 203.761 216.456C199.85 215.762 196.138 214.942 192.552 214.154C182.111 211.863 172.237 209.687 158.536 210.465C147.768 211.074 140.955 214.89 134.372 218.569C127.558 222.384 121.123 225.99 110.903 225.99L110.861 226ZM86.8546 211.516C86.9913 211.516 87.1175 211.579 87.2121 211.694C92.9323 219.031 98.663 225.107 110.85 225.107H110.861C120.85 225.107 127.18 221.564 133.889 217.801C140.566 214.059 147.464 210.202 158.441 209.582C172.269 208.804 182.195 210.98 192.699 213.292C196.285 214.08 199.986 214.89 203.877 215.584C214.855 217.549 223.761 210.917 226.873 203.359C230.038 195.686 227.378 187.96 219.776 182.694C219.576 182.557 219.523 182.284 219.65 182.084C223.94 175.263 224.182 166.475 220.259 159.149C216.243 151.644 208.83 147.198 199.913 146.967C199.713 146.967 199.534 146.82 199.492 146.63C197.673 139.441 194.203 133.197 189.471 128.583C183.804 123.054 176.39 119.806 167.432 118.913C167.263 118.892 167.116 118.786 167.053 118.629C164.225 111.471 157.863 106.173 149.114 103.703C137.937 100.55 124.625 102.484 116.759 108.412C116.591 108.538 116.36 108.528 116.202 108.401C109.735 103.135 97.1909 99.2883 81.3867 104.281C71.5446 107.392 64.4049 112.942 62.7645 118.755C62.7014 118.986 62.4701 119.123 62.2388 119.07C53.1958 117.294 45.2254 119.848 40.3674 126.071C36.2245 131.389 35.3307 138.264 38.0331 144.013C38.1382 144.234 38.0331 144.507 37.8122 144.612C37.7597 144.633 37.6966 144.654 37.6335 144.654C23.9113 145.201 19.2111 153.757 19.3478 160.926C19.4214 164.815 20.8935 168.662 23.375 171.479C25.2783 173.634 28.6536 176.209 33.9111 176.209H47.6649C47.9172 176.209 48.117 176.408 48.117 176.661C48.117 176.755 48.0855 176.86 48.0224 176.934C44.0897 182.042 43.606 187.718 46.708 192.512C50.3252 198.093 57.875 200.963 64.6678 199.333C64.9096 199.27 65.1514 199.428 65.2145 199.67C65.2251 199.722 65.2356 199.785 65.2145 199.838C64.51 204.894 66.6025 209.287 70.9558 211.894C75.8558 214.827 82.27 214.701 86.5496 211.579C86.6232 211.526 86.7179 211.495 86.8125 211.495L86.8546 211.516Z" fill="#472C27"/>
<path d="M148.589 113.089C148.473 113.089 148.357 113.037 148.273 112.953L137.684 102.368C137.506 102.2 137.495 101.905 137.674 101.727C137.853 101.548 138.137 101.538 138.315 101.716C138.315 101.716 138.315 101.716 138.326 101.727L148.915 112.312C149.093 112.49 149.093 112.774 148.915 112.953C148.83 113.037 148.715 113.089 148.599 113.089H148.589Z" fill="#472C27"/>
<path d="M102.554 177.134H47.6964C47.444 177.134 47.2443 176.934 47.2443 176.682C47.2443 176.43 47.444 176.23 47.6964 176.23H102.554C102.806 176.23 103.006 176.43 103.006 176.682C103.006 176.934 102.806 177.134 102.554 177.134Z" fill="#472C27"/>
<path d="M123.762 187.897H86.497C86.3814 187.897 86.2657 187.845 86.1816 187.761L75.7717 177.355C75.5929 177.186 75.5824 176.892 75.7611 176.713C75.9294 176.535 76.2238 176.524 76.4026 176.703C76.4026 176.703 76.4026 176.703 76.4131 176.713L86.6863 186.993H123.762C124.015 186.993 124.215 187.193 124.215 187.445C124.215 187.697 124.015 187.897 123.762 187.897ZM85.9713 158.34H51.3136C51.1979 158.34 51.0823 158.287 50.9981 158.203L37.3285 144.528C37.1498 144.36 37.1498 144.066 37.318 143.887C37.4863 143.708 37.7807 143.698 37.9594 143.877C37.9594 143.877 37.9594 143.877 37.9699 143.887L51.5134 157.425H85.9923C86.2447 157.425 86.4445 157.625 86.4445 157.877C86.4445 158.13 86.2447 158.329 85.9923 158.329L85.9713 158.34ZM78.8316 135.583C78.7159 135.583 78.6002 135.531 78.5161 135.447L62.0285 118.955C61.8497 118.786 61.8497 118.492 62.0179 118.313C62.1862 118.135 62.4806 118.124 62.6594 118.303C62.6594 118.303 62.6594 118.303 62.6699 118.313L79.1575 134.805C79.3363 134.984 79.3363 135.268 79.1575 135.447C79.0734 135.531 78.9577 135.583 78.8421 135.583H78.8316ZM105.645 119.354H93.3844C93.1321 119.354 92.9323 119.154 92.9323 118.902C92.9323 118.65 93.1321 118.45 93.3844 118.45H105.456L116.171 107.729C116.339 107.55 116.633 107.54 116.812 107.718C116.991 107.886 117.001 108.181 116.823 108.359C116.823 108.359 116.823 108.359 116.812 108.37L105.96 119.217C105.876 119.302 105.761 119.354 105.645 119.354ZM162.532 159.843H129.367C129.115 159.843 128.915 159.643 128.915 159.391C128.915 159.139 129.115 158.939 129.367 158.939H162.342L191.353 129.928C191.522 129.75 191.816 129.739 191.995 129.918C192.174 130.086 192.174 130.38 192.005 130.559C192.005 130.559 192.005 130.559 191.995 130.569L162.858 159.717C162.773 159.801 162.658 159.853 162.542 159.853L162.532 159.843Z" fill="#472C27"/>
<path d="M154.235 159.843C154.12 159.843 154.004 159.79 153.92 159.706L139.23 145.022H105.897C105.645 145.022 105.445 144.823 105.445 144.57C105.445 144.318 105.645 144.118 105.897 144.118H139.409C139.525 144.118 139.64 144.171 139.724 144.255L154.54 159.076C154.719 159.254 154.719 159.538 154.54 159.717C154.456 159.801 154.34 159.853 154.225 159.853L154.235 159.843ZM157.064 129.319H134.309C134.057 129.319 133.857 129.119 133.857 128.867C133.857 128.614 134.057 128.415 134.309 128.415H156.874L167.148 118.135C167.316 117.956 167.61 117.946 167.789 118.124C167.968 118.292 167.968 118.587 167.8 118.765C167.8 118.765 167.8 118.765 167.789 118.776L157.379 129.182C157.295 129.266 157.179 129.319 157.064 129.319ZM86.8546 212.409C86.6022 212.409 86.4024 212.209 86.4024 211.957C86.4024 211.842 86.455 211.726 86.5391 211.642L97.6535 200.532C97.8218 200.353 98.1162 200.342 98.295 200.521C98.4737 200.7 98.4737 200.984 98.3055 201.162C98.3055 201.162 98.3055 201.162 98.295 201.173L87.1805 212.283C87.0964 212.367 86.9807 212.42 86.8651 212.42L86.8546 212.409ZM202.3 200.511H188.273C188.02 200.511 187.82 200.311 187.82 200.059C187.82 199.806 188.02 199.607 188.273 199.607H202.11L219.702 182.011C219.87 181.832 220.165 181.822 220.344 182C220.522 182.179 220.522 182.463 220.354 182.642C220.354 182.642 220.354 182.642 220.344 182.652L202.615 200.384C202.531 200.469 202.415 200.521 202.3 200.521V200.511ZM139.346 215.804C139.23 215.804 139.115 215.752 139.03 215.668L127.674 204.305C127.495 204.137 127.495 203.843 127.664 203.664C127.832 203.485 128.126 203.475 128.305 203.653C128.305 203.653 128.305 203.653 128.316 203.664L139.672 215.026C139.851 215.205 139.851 215.489 139.672 215.668C139.588 215.752 139.472 215.804 139.356 215.804H139.346ZM153.699 210.98C153.447 210.98 153.247 210.78 153.247 210.528C153.247 210.412 153.299 210.296 153.383 210.212L182.121 181.464C182.289 181.286 182.584 181.275 182.763 181.454C182.941 181.633 182.941 181.916 182.773 182.095C182.773 182.095 182.773 182.095 182.763 182.106L154.025 210.854C153.941 210.938 153.825 210.99 153.709 210.99L153.699 210.98ZM203.625 169.187C203.372 169.187 203.172 168.988 203.172 168.735C203.172 168.62 203.225 168.504 203.309 168.42L217.399 154.325C217.568 154.146 217.862 154.135 218.041 154.314C218.219 154.482 218.219 154.777 218.051 154.955C218.051 154.955 218.051 154.955 218.041 154.966L203.951 169.061C203.866 169.145 203.751 169.198 203.635 169.198L203.625 169.187Z" fill="#472C27"/>
<path d="M171.596 193.079C171.48 193.079 171.364 193.027 171.28 192.943L154.225 175.893H141.533C141.281 175.893 141.081 175.694 141.081 175.441C141.081 175.189 141.281 174.99 141.533 174.99H154.414C154.53 174.99 154.645 175.042 154.729 175.126L171.911 192.312C172.09 192.491 172.09 192.774 171.911 192.953C171.827 193.037 171.711 193.09 171.596 193.09V193.079Z" fill="#472C27"/>
<path d="M105.025 179.152C106.389 179.152 107.496 178.046 107.496 176.682C107.496 175.318 106.389 174.212 105.025 174.212C103.66 174.212 102.554 175.318 102.554 176.682C102.554 178.046 103.66 179.152 105.025 179.152Z" fill="#FEF8EE"/>
<path d="M105.025 179.604C103.416 179.604 102.101 178.29 102.101 176.682C102.101 175.074 103.416 173.76 105.025 173.76C106.633 173.76 107.948 175.074 107.948 176.682C107.948 178.29 106.633 179.604 105.025 179.604ZM105.025 174.664C103.91 174.664 103.006 175.568 103.006 176.682C103.006 177.796 103.91 178.7 105.025 178.7C106.139 178.7 107.044 177.796 107.044 176.682C107.044 175.568 106.139 174.664 105.025 174.664Z" fill="#472C27"/>
<path d="M139.072 177.912C140.437 177.912 141.544 176.806 141.544 175.442C141.544 174.077 140.437 172.971 139.072 172.971C137.708 172.971 136.601 174.077 136.601 175.442C136.601 176.806 137.708 177.912 139.072 177.912Z" fill="#FEF8EE"/>
<path d="M139.072 178.364C137.464 178.364 136.149 177.05 136.149 175.442C136.149 173.833 137.464 172.519 139.072 172.519C140.681 172.519 141.996 173.833 141.996 175.442C141.996 177.05 140.681 178.364 139.072 178.364ZM139.072 173.423C137.958 173.423 137.054 174.327 137.054 175.442C137.054 176.556 137.958 177.46 139.072 177.46C140.187 177.46 141.091 176.556 141.091 175.442C141.091 174.327 140.187 173.423 139.072 173.423Z" fill="#472C27"/>
<path d="M126.234 189.915C127.598 189.915 128.705 188.809 128.705 187.445C128.705 186.081 127.598 184.975 126.234 184.975C124.869 184.975 123.763 186.081 123.763 187.445C123.763 188.809 124.869 189.915 126.234 189.915Z" fill="#FEF8EE"/>
<path d="M126.234 190.357C124.625 190.357 123.31 189.043 123.31 187.435C123.31 185.826 124.625 184.513 126.234 184.513C127.842 184.513 129.157 185.826 129.157 187.435C129.157 189.043 127.842 190.357 126.234 190.357ZM126.234 185.427C125.119 185.427 124.215 186.331 124.215 187.445C124.215 188.559 125.119 189.463 126.234 189.463C127.348 189.463 128.252 188.559 128.252 187.445C128.252 186.331 127.348 185.427 126.234 185.427Z" fill="#472C27"/>
<path d="M185.812 202.529C187.177 202.529 188.283 201.423 188.283 200.059C188.283 198.694 187.177 197.589 185.812 197.589C184.447 197.589 183.341 198.694 183.341 200.059C183.341 201.423 184.447 202.529 185.812 202.529Z" fill="#FEF8EE"/>
<path d="M185.812 202.981C184.203 202.981 182.889 201.667 182.889 200.059C182.889 198.45 184.203 197.136 185.812 197.136C187.421 197.136 188.735 198.45 188.735 200.059C188.735 201.667 187.421 202.981 185.812 202.981ZM185.812 198.04C184.697 198.04 183.793 198.944 183.793 200.059C183.793 201.173 184.697 202.077 185.812 202.077C186.927 202.077 187.831 201.173 187.831 200.059C187.831 198.944 186.927 198.04 185.812 198.04Z" fill="#472C27"/>
<path d="M126.896 161.861C128.261 161.861 129.367 160.755 129.367 159.391C129.367 158.027 128.261 156.921 126.896 156.921C125.531 156.921 124.425 158.027 124.425 159.391C124.425 160.755 125.531 161.861 126.896 161.861Z" fill="#FEF8EE"/>
<path d="M126.896 162.313C125.287 162.313 123.973 160.999 123.973 159.391C123.973 157.783 125.287 156.469 126.896 156.469C128.505 156.469 129.819 157.783 129.819 159.391C129.819 160.999 128.505 162.313 126.896 162.313ZM126.896 157.373C125.781 157.373 124.877 158.277 124.877 159.391C124.877 160.505 125.781 161.409 126.896 161.409C128.011 161.409 128.915 160.505 128.915 159.391C128.915 158.277 128.011 157.373 126.896 157.373Z" fill="#472C27"/>
<path d="M103.437 147.04C104.802 147.04 105.908 145.935 105.908 144.57C105.908 143.206 104.802 142.1 103.437 142.1C102.072 142.1 100.966 143.206 100.966 144.57C100.966 145.935 102.072 147.04 103.437 147.04Z" fill="#FEF8EE"/>
<path d="M103.437 147.492C101.828 147.492 100.514 146.178 100.514 144.57C100.514 142.962 101.828 141.648 103.437 141.648C105.046 141.648 106.36 142.962 106.36 144.57C106.36 146.178 105.046 147.492 103.437 147.492ZM103.437 142.552C102.322 142.552 101.418 143.456 101.418 144.57C101.418 145.684 102.322 146.588 103.437 146.588C104.551 146.588 105.456 145.684 105.456 144.57C105.456 143.456 104.551 142.552 103.437 142.552Z" fill="#472C27"/>
<path d="M88.4424 160.358C89.8071 160.358 90.9134 159.252 90.9134 157.888C90.9134 156.524 89.8071 155.418 88.4424 155.418C87.0776 155.418 85.9713 156.524 85.9713 157.888C85.9713 159.252 87.0776 160.358 88.4424 160.358Z" fill="#FEF8EE"/>
<path d="M88.4424 160.81C86.8335 160.81 85.5192 159.496 85.5192 157.888C85.5192 156.28 86.8335 154.966 88.4424 154.966C90.0512 154.966 91.3655 156.28 91.3655 157.888C91.3655 159.496 90.0512 160.81 88.4424 160.81ZM88.4424 155.87C87.3278 155.87 86.4235 156.774 86.4235 157.888C86.4235 159.002 87.3278 159.906 88.4424 159.906C89.557 159.906 90.4612 159.002 90.4612 157.888C90.4612 156.774 89.557 155.87 88.4424 155.87Z" fill="#472C27"/>
<path d="M80.5771 139.346C81.9418 139.346 83.0481 138.24 83.0481 136.876C83.0481 135.512 81.9418 134.406 80.5771 134.406C79.2123 134.406 78.106 135.512 78.106 136.876C78.106 138.24 79.2123 139.346 80.5771 139.346Z" fill="#FEF8EE"/>
<path d="M80.5771 139.798C78.9683 139.798 77.6539 138.484 77.6539 136.876C77.6539 135.268 78.9683 133.954 80.5771 133.954C82.1859 133.954 83.5003 135.268 83.5003 136.876C83.5003 138.484 82.1859 139.798 80.5771 139.798ZM80.5771 134.858C79.4625 134.858 78.5582 135.762 78.5582 136.876C78.5582 137.99 79.4625 138.894 80.5771 138.894C81.6917 138.894 82.596 137.99 82.596 136.876C82.596 135.762 81.6917 134.858 80.5771 134.858Z" fill="#472C27"/>
<path d="M126.244 204.715C127.609 204.715 128.715 203.609 128.715 202.245C128.715 200.881 127.609 199.775 126.244 199.775C124.879 199.775 123.773 200.881 123.773 202.245C123.773 203.609 124.879 204.715 126.244 204.715Z" fill="#FEF8EE"/>
<path d="M126.244 205.167C124.635 205.167 123.321 203.853 123.321 202.245C123.321 200.637 124.635 199.323 126.244 199.323C127.853 199.323 129.167 200.637 129.167 202.245C129.167 203.853 127.853 205.167 126.244 205.167ZM126.244 200.227C125.129 200.227 124.225 201.131 124.225 202.245C124.225 203.359 125.129 204.263 126.244 204.263C127.359 204.263 128.263 203.359 128.263 202.245C128.263 201.131 127.359 200.227 126.244 200.227Z" fill="#472C27"/>
<path d="M99.7145 201.572C101.079 201.572 102.186 200.466 102.186 199.102C102.186 197.738 101.079 196.632 99.7145 196.632C98.3498 196.632 97.2435 197.738 97.2435 199.102C97.2435 200.466 98.3498 201.572 99.7145 201.572Z" fill="#FEF8EE"/>
<path d="M99.7145 202.024C98.1057 202.024 96.7913 200.71 96.7913 199.102C96.7913 197.494 98.1057 196.18 99.7145 196.18C101.323 196.18 102.638 197.494 102.638 199.102C102.638 200.71 101.323 202.024 99.7145 202.024ZM99.7145 197.084C98.5999 197.084 97.6956 197.988 97.6956 199.102C97.6956 200.216 98.5999 201.12 99.7145 201.12C100.829 201.12 101.733 200.216 101.733 199.102C101.733 197.988 100.829 197.084 99.7145 197.084Z" fill="#472C27"/>
<path d="M201.879 172.961C203.244 172.961 204.35 171.855 204.35 170.491C204.35 169.127 203.244 168.021 201.879 168.021C200.514 168.021 199.408 169.127 199.408 170.491C199.408 171.855 200.514 172.961 201.879 172.961Z" fill="#FEF8EE"/>
<path d="M201.879 173.402C200.27 173.402 198.956 172.088 198.956 170.48C198.956 168.872 200.27 167.558 201.879 167.558C203.488 167.558 204.802 168.872 204.802 170.48C204.802 172.088 203.488 173.402 201.879 173.402ZM201.879 168.462C200.764 168.462 199.86 169.366 199.86 170.48C199.86 171.594 200.764 172.498 201.879 172.498C202.994 172.498 203.898 171.594 203.898 170.48C203.898 169.366 202.994 168.462 201.879 168.462Z" fill="#472C27"/>
<path d="M184.193 182.505C185.557 182.505 186.664 181.399 186.664 180.035C186.664 178.671 185.557 177.565 184.193 177.565C182.828 177.565 181.722 178.671 181.722 180.035C181.722 181.399 182.828 182.505 184.193 182.505Z" fill="#FEF8EE"/>
<path d="M184.193 182.957C182.584 182.957 181.269 181.643 181.269 180.035C181.269 178.427 182.584 177.113 184.193 177.113C185.801 177.113 187.116 178.427 187.116 180.035C187.116 181.643 185.801 182.957 184.193 182.957ZM184.193 178.017C183.078 178.017 182.174 178.921 182.174 180.035C182.174 181.149 183.078 182.053 184.193 182.053C185.307 182.053 186.212 181.149 186.212 180.035C186.212 178.921 185.307 178.017 184.193 178.017Z" fill="#472C27"/>
<path d="M150.334 116.852C151.699 116.852 152.805 115.747 152.805 114.382C152.805 113.018 151.699 111.912 150.334 111.912C148.969 111.912 147.863 113.018 147.863 114.382C147.863 115.747 148.969 116.852 150.334 116.852Z" fill="#FEF8EE"/>
<path d="M150.334 117.304C148.725 117.304 147.411 115.991 147.411 114.382C147.411 112.774 148.725 111.46 150.334 111.46C151.943 111.46 153.257 112.774 153.257 114.382C153.257 115.991 151.943 117.304 150.334 117.304ZM150.334 112.364C149.219 112.364 148.315 113.268 148.315 114.382C148.315 115.496 149.219 116.4 150.334 116.4C151.449 116.4 152.353 115.496 152.353 114.382C152.353 113.268 151.449 112.364 150.334 112.364Z" fill="#472C27"/>
<path d="M131.838 131.337C133.203 131.337 134.309 130.231 134.309 128.867C134.309 127.503 133.203 126.397 131.838 126.397C130.473 126.397 129.367 127.503 129.367 128.867C129.367 130.231 130.473 131.337 131.838 131.337Z" fill="#FEF8EE"/>
<path d="M131.838 131.789C130.229 131.789 128.915 130.475 128.915 128.867C128.915 127.258 130.229 125.945 131.838 125.945C133.447 125.945 134.761 127.258 134.761 128.867C134.761 130.475 133.447 131.789 131.838 131.789ZM131.838 126.849C130.724 126.849 129.819 127.752 129.819 128.867C129.819 129.981 130.724 130.885 131.838 130.885C132.953 130.885 133.857 129.981 133.857 128.867C133.857 127.752 132.953 126.849 131.838 126.849Z" fill="#472C27"/>
<path d="M90.9134 121.372C92.2781 121.372 93.3844 120.266 93.3844 118.902C93.3844 117.538 92.2781 116.432 90.9134 116.432C89.5486 116.432 88.4423 117.538 88.4423 118.902C88.4423 120.266 89.5486 121.372 90.9134 121.372Z" fill="#FEF8EE"/>
<path d="M90.9134 121.824C89.3046 121.824 87.9902 120.51 87.9902 118.902C87.9902 117.294 89.3046 115.98 90.9134 115.98C92.5222 115.98 93.8366 117.294 93.8366 118.902C93.8366 120.51 92.5222 121.824 90.9134 121.824ZM90.9134 116.884C89.7988 116.884 88.8945 117.788 88.8945 118.902C88.8945 120.016 89.7988 120.92 90.9134 120.92C92.028 120.92 92.9323 120.016 92.9323 118.902C92.9323 117.788 92.028 116.884 90.9134 116.884Z" fill="#472C27"/>
<path d="M203.803 216.025C189.482 213.471 178.252 209.424 161.301 209.907C163.141 208.415 164.929 207.322 167.8 206.996C175.812 206.092 193.53 211.61 199.072 209.34C201.637 208.289 203.614 205.241 202.478 202.707C201.774 201.131 200.07 200.111 199.576 198.461C197.894 192.869 208.598 191.135 213.687 186.92C216.474 184.618 218.461 180.876 217.431 177.418C216.895 175.589 212.31 169.86 221.3 163.879C221.679 163.627 222.047 163.396 222.415 163.175C224.35 169.429 223.729 176.45 220.018 182.326C238.892 195.381 223.551 219.546 203.793 216.025H203.803Z" fill="#472C27"/>
<path d="M207.767 216.824C206.453 216.824 205.107 216.708 203.73 216.456C199.818 215.762 196.106 214.942 192.521 214.154C182.794 212.02 173.604 209.992 161.322 210.338C161.123 210.338 160.954 210.223 160.891 210.044C160.828 209.865 160.881 209.655 161.028 209.54C162.952 207.973 164.834 206.859 167.768 206.533C171.469 206.113 177.232 207.048 182.794 207.952C189.292 209.004 196.022 210.097 198.924 208.909C200.312 208.341 201.522 207.133 202.068 205.766C202.352 205.062 202.584 203.979 202.089 202.876C201.795 202.213 201.301 201.656 200.775 201.057C200.134 200.321 199.461 199.554 199.166 198.566C197.957 194.54 202.541 192.343 206.968 190.231C209.292 189.116 211.7 187.971 213.414 186.552C216.895 183.672 217.736 179.94 217.01 177.523C216.947 177.302 216.789 176.976 216.621 176.598C215.443 174.075 213.004 168.84 221.069 163.48C221.437 163.238 221.816 162.996 222.194 162.765C222.404 162.639 222.688 162.712 222.815 162.923C222.836 162.954 222.846 162.986 222.857 163.017C224.876 169.545 224.066 176.503 220.638 182.179C224.623 185.028 227.231 188.475 228.409 192.427C229.481 196.075 229.25 199.964 227.715 203.674C224.854 210.612 217.326 216.803 207.767 216.803V216.824ZM203.877 215.573C214.855 217.539 223.761 210.906 226.873 203.349C230.038 195.675 227.378 187.95 219.776 182.684C219.576 182.547 219.523 182.274 219.65 182.074C223.025 176.713 223.929 170.112 222.163 163.848C221.973 163.963 221.774 164.1 221.563 164.237C214.15 169.166 216.285 173.749 217.441 176.219C217.631 176.629 217.799 176.976 217.883 177.27C218.63 179.772 218.051 183.892 213.992 187.256C212.194 188.749 209.734 189.915 207.357 191.05C203.078 193.09 199.04 195.024 200.028 198.314C200.27 199.113 200.849 199.775 201.458 200.468C202.005 201.089 202.563 201.73 202.91 202.508C203.404 203.611 203.404 204.862 202.91 206.102C202.268 207.69 200.88 209.088 199.271 209.739C196.127 211.022 189.587 209.96 182.657 208.835C177.158 207.942 171.459 207.017 167.884 207.427C165.697 207.669 164.172 208.362 162.7 209.403C174.403 209.235 183.32 211.19 192.731 213.261C196.317 214.049 200.018 214.858 203.908 215.552L203.877 215.573Z" fill="#472C27"/>
<path d="M169.84 143.456C168.862 142.226 168.063 140.713 168.294 139.157C168.515 137.622 169.755 136.361 171.196 135.783C172.637 135.205 174.245 135.194 175.781 135.405C182.636 136.351 188.672 141.69 190.428 148.386C191.101 150.94 190.912 154.188 188.641 155.533C187.631 156.133 186.38 156.217 185.223 156.059C181.448 155.565 180.176 153.252 177.894 150.772C175.434 148.091 172.132 146.326 169.85 143.456H169.84Z" fill="#472C27"/>
<path d="M186.201 156.574C185.865 156.574 185.518 156.553 185.15 156.5C181.858 156.069 180.376 154.335 178.651 152.327C178.304 151.918 177.936 151.497 177.547 151.066C176.454 149.878 175.16 148.848 173.909 147.85C172.363 146.62 170.765 145.338 169.482 143.729C168.178 142.09 167.631 140.534 167.842 139.083C168.073 137.507 169.314 136.046 171.017 135.352C172.332 134.816 173.909 134.679 175.833 134.953C182.868 135.92 189.051 141.396 190.859 148.26C191.543 150.845 191.427 154.398 188.861 155.912C188.115 156.353 187.232 156.563 186.201 156.563V156.574ZM174.035 135.73C173.015 135.73 172.132 135.888 171.364 136.203C169.955 136.771 168.925 137.959 168.746 139.231C168.567 140.418 169.061 141.743 170.197 143.183C171.417 144.717 172.973 145.958 174.487 147.156C175.77 148.176 177.095 149.227 178.231 150.478C178.63 150.919 178.998 151.339 179.356 151.76C181.017 153.704 182.332 155.239 185.286 155.628C186.559 155.796 187.61 155.628 188.42 155.155C189.745 154.367 190.964 152.159 190.008 148.512C188.294 141.985 182.426 136.782 175.739 135.867C175.139 135.783 174.582 135.741 174.056 135.741L174.035 135.73Z" fill="#472C27"/>
<path d="M113.521 111.45C113.405 111.45 113.289 111.408 113.205 111.313C113.027 111.134 113.027 110.851 113.205 110.672L152.216 71.6755C152.395 71.4968 152.679 71.4968 152.858 71.6755C153.036 71.8542 153.036 72.138 152.858 72.3167L113.847 111.313C113.763 111.397 113.647 111.45 113.531 111.45H113.521Z" fill="#472C27"/>
<path d="M154.288 72.7266C155.658 72.7266 156.769 71.616 156.769 70.246C156.769 68.876 155.658 67.7654 154.288 67.7654C152.917 67.7654 151.806 68.876 151.806 70.246C151.806 71.616 152.917 72.7266 154.288 72.7266Z" fill="#472C27"/>
<path d="M154.288 73.1786C152.668 73.1786 151.354 71.8647 151.354 70.246C151.354 68.6272 152.668 67.3134 154.288 67.3134C155.907 67.3134 157.221 68.6272 157.221 70.246C157.221 71.8647 155.907 73.1786 154.288 73.1786ZM154.288 68.2278C153.173 68.2278 152.258 69.1318 152.258 70.2565C152.258 71.3812 153.163 72.2851 154.288 72.2851C155.413 72.2851 156.317 71.3812 156.317 70.2565C156.317 69.1318 155.413 68.2278 154.288 68.2278Z" fill="#472C27"/>
<path d="M188.525 133.513C188.409 133.513 188.294 133.47 188.209 133.376C188.031 133.197 188.031 132.913 188.209 132.735L227.22 93.7384C227.399 93.5597 227.683 93.5597 227.862 93.7384C228.041 93.9171 228.041 94.2009 227.862 94.3796L188.851 133.376C188.767 133.46 188.651 133.513 188.535 133.513H188.525Z" fill="#472C27"/>
<path d="M229.292 94.7895C230.662 94.7895 231.773 93.6789 231.773 92.3089C231.773 90.9389 230.662 89.8282 229.292 89.8282C227.921 89.8282 226.81 90.9389 226.81 92.3089C226.81 93.6789 227.921 94.7895 229.292 94.7895Z" fill="#472C27"/>
<path d="M229.292 95.2414C227.673 95.2414 226.358 93.9275 226.358 92.3088C226.358 90.6901 227.673 89.3762 229.292 89.3762C230.911 89.3762 232.226 90.6901 232.226 92.3088C232.226 93.9275 230.911 95.2414 229.292 95.2414ZM229.292 90.2907C228.177 90.2907 227.262 91.1947 227.262 92.3193C227.262 93.444 228.167 94.348 229.292 94.348C230.417 94.348 231.321 93.444 231.321 92.3193C231.321 91.1947 230.417 90.2907 229.292 90.2907Z" fill="#472C27"/>
<path d="M13.0598 32.1956H45.7406V40.8672H13.0598V32.1956ZM13.0598 58.8728H45.7406V67.5445H13.0598V58.8728ZM56.5081 49.7702H89.1889V58.4419H56.5081V49.7702Z" fill="#F09947"/>
<path d="M29.0637 59.0935C28.9375 59.0935 28.8429 58.9884 28.8429 58.8728V40.8672C28.8429 40.7411 28.948 40.6465 29.0637 40.6465C29.1794 40.6465 29.2845 40.7516 29.2845 40.8672V44.3674H72.8485C72.9747 44.3674 73.0693 44.4725 73.0693 44.5882V49.7702C73.0693 49.8963 72.9642 49.9909 72.8485 49.9909C72.7328 49.9909 72.6277 49.8858 72.6277 49.7702V44.8089H29.295V58.8623C29.295 58.9884 29.1899 59.083 29.0742 59.083L29.0637 59.0935Z" fill="#472C27"/>
</g>
<defs>
<clipPath id="clip0_543_6301">
<rect width="266" height="226" fill="white"/>
</clipPath>
</defs>
</svg>
