<svg width="350" height="253" viewBox="0 0 350 253" fill="none" xmlns="http://www.w3.org/2000/svg">
<g clip-path="url(#clip0_543_7169)">
<mask id="mask0_543_7169" style="mask-type:luminance" maskUnits="userSpaceOnUse" x="0" y="148" width="97" height="95">
<path d="M96.732 148.719H0V242.07H96.732V148.719Z" fill="white"/>
</mask>
<g mask="url(#mask0_543_7169)">
<path d="M8.00095 204.467C7.32999 203.469 6.8869 202.344 6.73499 201.144L0.721677 157.438C0.341889 154.658 1.02551 151.828 2.63328 149.528L33.8139 236.763L33.4341 236.675C30.687 236.043 28.2816 234.388 26.6992 232.063L8.01361 204.467H8.00095Z" fill="#F09947"/>
<path d="M33.8012 237.37C33.8012 237.37 33.7126 237.37 33.662 237.357L33.2822 237.269C30.3832 236.599 27.8512 234.868 26.1802 232.404L7.4946 204.808C6.773 203.734 6.30459 202.509 6.12736 201.232L0.114048 157.526C-0.291059 154.595 0.430538 151.613 2.12692 149.187C2.20288 149.086 2.30416 149.01 2.4181 148.959C2.73459 148.846 3.08905 149.01 3.20299 149.326L34.3836 236.561C34.4089 236.624 34.4216 236.7 34.4216 236.763C34.4216 237.104 34.1431 237.37 33.8139 237.37H33.8012ZM1.31671 157.349L7.33002 201.055C7.48194 202.155 7.88704 203.203 8.50736 204.113L27.1929 231.709C28.5475 233.705 30.5351 235.184 32.8391 235.879L2.48139 150.931C1.43065 152.889 1.01288 155.126 1.31671 157.362V157.349Z" fill="#472C27"/>
<path d="M96.1246 237.168H34.0166C34.3964 240.668 36.9536 241.464 39.8147 241.464H90.1366C95.2384 241.464 96.1246 237.168 96.1246 237.168Z" fill="#F09947"/>
<path d="M39.8149 242.07C38.3591 242.07 33.9409 242.07 33.4092 237.231C33.4092 237.206 33.4092 237.18 33.4092 237.168C33.4092 236.827 33.6877 236.561 34.0168 236.561H96.1249C96.1249 236.561 96.2135 236.561 96.2514 236.574C96.5806 236.637 96.7958 236.966 96.7199 237.294C96.7199 237.345 95.6691 242.07 90.1369 242.07H39.8149ZM34.7384 237.774C35.2195 239.922 36.7766 240.857 39.8276 240.857H90.1495C93.4663 240.857 94.7956 238.886 95.2893 237.774H34.7384Z" fill="#472C27"/>
<path d="M75.9834 182.431H24.0664L34.0169 237.168H96.1249L75.9834 182.431Z" fill="#FDEED7"/>
<path d="M34.0171 237.774C33.726 237.774 33.4728 237.559 33.4221 237.269L23.4717 182.532C23.4717 182.532 23.4717 182.456 23.4717 182.418C23.4717 182.077 23.7502 181.812 24.0793 181.812H75.9964C76.2496 181.812 76.4774 181.976 76.566 182.216L96.7075 236.953C96.7328 237.016 96.7454 237.092 96.7454 237.168C96.7454 237.509 96.4669 237.774 96.1378 237.774H34.0171ZM75.5533 183.037H24.7883L34.5235 236.561H95.2516L75.5533 183.037Z" fill="#472C27"/>
<path d="M2.48145 149.326L24.0661 182.418L34.0165 237.155L9.72274 201.51L2.48145 149.326Z" fill="#472C27"/>
<path d="M34.0167 237.774C33.8141 237.774 33.6242 237.673 33.5103 237.509L9.21652 201.864C9.16588 201.788 9.1279 201.7 9.11525 201.611L1.87395 149.414C1.84863 149.187 1.94991 148.947 2.13981 148.82C2.41832 148.631 2.7981 148.719 2.988 148.997L24.5726 182.09C24.6106 182.153 24.6486 182.229 24.6612 182.317L34.6117 237.054C34.6117 237.054 34.6117 237.13 34.6117 237.168C34.6117 237.509 34.3332 237.774 34.004 237.774H34.0167ZM3.4564 151.941L10.3052 201.296L32.89 234.451L23.4712 182.658L3.44374 151.954L3.4564 151.941Z" fill="#472C27"/>
<path d="M47.7393 224.103C48.3976 224.103 49.0305 224.545 49.1571 225.101L49.9673 228.563C50.0939 229.119 49.6635 229.586 49.0052 229.586H44.8529C44.1819 229.586 43.5489 229.132 43.4223 228.563L42.6754 225.101C42.5615 224.545 42.9919 224.103 43.6502 224.103H47.7393ZM59.9305 225.113C59.7912 224.57 59.1456 224.115 58.4873 224.115H54.4109C53.7526 224.115 53.3348 224.558 53.4614 225.101L54.3096 228.55C54.4488 229.106 55.0945 229.561 55.7654 229.561H59.8925C60.5508 229.561 60.9685 229.106 60.8293 228.55L59.9305 225.101V225.113ZM69.1973 224.128H65.1335C64.4752 224.128 64.0701 224.57 64.2221 225.113L65.1589 228.563C65.3108 229.119 65.9691 229.574 66.6274 229.574H70.7418C71.4001 229.574 71.8052 229.119 71.6406 228.563L70.6405 225.126C70.4759 224.583 69.8303 224.141 69.172 224.141L69.1973 224.128ZM79.8693 224.141H75.8309C75.1853 224.141 74.7928 224.583 74.9574 225.126L75.9955 228.563C76.1601 229.119 76.831 229.574 77.4893 229.574H81.591C82.2493 229.574 82.6418 229.119 82.4645 228.563L81.3758 225.126C81.1986 224.583 80.5403 224.141 79.882 224.141H79.8693ZM47.3595 217.406C47.2329 216.875 46.6126 216.446 45.9669 216.446H41.9538C41.3082 216.446 40.8778 216.863 40.9917 217.393L41.7133 220.716C41.8272 221.26 42.4602 221.689 43.1058 221.702H47.1696C47.8279 221.702 48.2456 221.272 48.119 220.729L47.3468 217.406H47.3595ZM56.525 216.483H52.5372C51.8916 216.483 51.4738 216.9 51.6131 217.418L52.4233 220.729C52.5499 221.272 53.1829 221.702 53.8412 221.702H57.8923C58.5379 221.702 58.9557 221.272 58.8164 220.729L57.9556 217.418C57.8163 216.888 57.1833 216.458 56.5503 216.458L56.525 216.483ZM68.4504 217.456C68.2984 216.926 67.6528 216.509 67.0198 216.509H63.0447C62.3991 216.509 62.0066 216.926 62.1459 217.444L63.0447 220.754C63.1966 221.285 63.8423 221.727 64.4879 221.727H68.5263C69.172 221.727 69.5771 221.298 69.4125 220.767L68.4504 217.456ZM77.4767 216.534H73.5142C72.8812 216.534 72.4888 216.951 72.6407 217.469L73.6281 220.767C73.7927 221.298 74.4384 221.74 75.084 221.74H79.0971C79.7427 221.74 80.1225 221.31 79.9579 220.78L78.9072 217.482C78.7426 216.951 78.097 216.534 77.4513 216.534H77.4767ZM45.6378 210.027C45.5238 209.521 44.9162 209.104 44.2832 209.104H40.346C39.7131 209.092 39.2953 209.496 39.3966 210.001L40.0802 213.198C40.1941 213.716 40.8018 214.133 41.4474 214.146H45.4352C46.0808 214.159 46.4986 213.742 46.372 213.224L45.6251 210.039L45.6378 210.027ZM56.006 210.065C55.8794 209.559 55.2591 209.142 54.6261 209.142H50.7143C50.0813 209.13 49.6762 209.534 49.8028 210.039L50.5877 213.224C50.7143 213.742 51.3346 214.159 51.9676 214.159H55.9427C56.5757 214.171 56.9808 213.754 56.8542 213.236L56.0186 210.052L56.006 210.065ZM66.3235 210.103C66.1716 209.597 65.5513 209.193 64.931 209.18H61.0318C60.3989 209.168 60.0064 209.572 60.1457 210.077L61.0065 213.261C61.1458 213.779 61.7788 214.196 62.4117 214.196H66.3615C66.9945 214.209 67.387 213.792 67.235 213.274L66.3109 210.103H66.3235ZM76.6031 210.14C76.4386 209.635 75.8056 209.231 75.1853 209.218H71.2988C70.6785 209.205 70.286 209.61 70.4379 210.115L71.3874 213.287C71.5393 213.805 72.1849 214.222 72.8179 214.222H76.7551C77.388 214.234 77.7678 213.817 77.6033 213.299L76.6031 210.128V210.14ZM43.992 202.913C43.8781 202.42 43.2831 202.028 42.6628 202.028L38.8016 202.003C38.1813 202.003 37.7635 202.395 37.8648 202.875L38.5231 205.945C38.6243 206.438 39.232 206.855 39.8523 206.855H43.7641C44.3971 206.881 44.8022 206.476 44.6883 205.971L43.9794 202.9L43.992 202.913ZM54.145 202.976C54.0184 202.483 53.4108 202.092 52.8031 202.092L48.9672 202.066C48.3469 202.066 47.9418 202.458 48.0684 202.938L48.8153 206.009C48.9419 206.501 49.5369 206.918 50.1699 206.918H54.0691C54.6894 206.944 55.0945 206.539 54.9679 206.047L54.1703 202.989L54.145 202.976ZM64.2727 203.027C64.1334 202.547 63.5258 202.142 62.9055 202.142L59.0823 202.117C58.4619 202.117 58.0695 202.509 58.2087 202.989L59.0443 206.047C59.1835 206.539 59.7912 206.944 60.4242 206.956H64.298C64.9183 206.969 65.3108 206.577 65.1589 206.084L64.2727 203.027ZM74.3624 203.077C74.2105 202.597 73.5902 202.193 72.9825 202.193L69.172 202.167C68.5643 202.167 68.1845 202.559 68.3238 203.039L69.2353 206.097C69.3872 206.59 70.0075 206.994 70.6278 206.994H74.489C75.1093 207.007 75.4891 206.615 75.3245 206.122L74.3624 203.077ZM42.3969 196.09C42.283 195.622 41.7006 195.243 41.093 195.231L37.3077 195.205C36.7001 195.205 36.2823 195.584 36.3836 196.052L37.0166 199.009C37.1179 199.489 37.7002 199.88 38.3205 199.88L42.1564 199.906C42.7767 199.906 43.1818 199.527 43.0679 199.047L42.3842 196.102L42.3969 196.09ZM52.3727 196.153C52.2461 195.685 51.6637 195.306 51.0561 195.294L47.2835 195.269C46.6758 195.269 46.2834 195.635 46.3973 196.115L47.1189 199.059C47.2329 199.539 47.8279 199.931 48.4482 199.931L52.2714 199.956C52.8791 199.956 53.2842 199.577 53.1576 199.097L52.3853 196.153H52.3727ZM62.2978 196.216C62.1585 195.749 61.5635 195.37 60.9559 195.357L57.196 195.332C56.5883 195.332 56.2085 195.698 56.3351 196.178L57.1327 199.122C57.2593 199.602 57.8669 199.994 58.4746 199.994L62.2851 200.019C62.8928 200.019 63.2852 199.64 63.146 199.16L62.2978 196.216ZM72.1976 196.279C72.0457 195.812 71.438 195.433 70.843 195.433L67.0958 195.407C66.4881 195.407 66.121 195.774 66.2603 196.241L67.1464 199.173C67.2857 199.653 67.906 200.045 68.5137 200.045L72.2989 200.07C72.9065 200.07 73.2737 199.691 73.1218 199.211L72.1849 196.279H72.1976ZM39.5865 188.685L35.8645 188.66C35.2695 188.66 34.8644 189.014 34.9657 189.469L35.586 192.312C35.6873 192.767 36.257 193.146 36.8647 193.158L40.6246 193.184C41.2322 193.184 41.6373 192.817 41.5234 192.362L40.8651 189.519C40.7638 189.065 40.1941 188.698 39.5991 188.698L39.5865 188.685ZM50.651 189.583C50.537 189.128 49.9547 188.761 49.3597 188.761L45.6631 188.736C45.0681 188.736 44.6756 189.09 44.7896 189.545L45.4858 192.388C45.5998 192.842 46.1821 193.222 46.7771 193.234L50.5244 193.259C51.132 193.259 51.5118 192.893 51.3979 192.438L50.651 189.608V189.583ZM59.0949 188.837L55.411 188.812C54.816 188.812 54.4362 189.166 54.5628 189.62L55.335 192.451C55.4616 192.906 56.044 193.285 56.6516 193.297L60.3862 193.323C60.9812 193.323 61.361 192.956 61.2344 192.501L60.4115 189.671C60.2849 189.216 59.7026 188.85 59.1076 188.85L59.0949 188.837ZM70.1214 189.734C69.9822 189.279 69.3872 188.913 68.7922 188.913L65.1209 188.888C64.5259 188.888 64.1588 189.241 64.298 189.696L65.1462 192.527C65.2855 192.981 65.8805 193.361 66.4755 193.361L70.1974 193.386C70.7924 193.386 71.1595 193.019 71.0203 192.565L70.1214 189.734Z" fill="#F09947"/>
</g>
<mask id="mask1_543_7169" style="mask-type:luminance" maskUnits="userSpaceOnUse" x="143" y="168" width="187" height="85">
<path d="M329.048 168.557H143.218V252.937H329.048V168.557Z" fill="white"/>
</mask>
<g mask="url(#mask1_543_7169)">
<path d="M144.23 245.911C148.915 258.155 193.856 252.33 244.608 232.91C295.373 213.489 332.719 187.814 328.035 175.57C323.351 163.326 278.41 169.151 227.657 188.572C176.905 207.992 139.546 233.668 144.23 245.911Z" fill="#472C27"/>
<path d="M162.904 252.924C152.067 252.924 145.37 250.612 143.661 246.126C141.281 239.91 148.801 230.433 164.815 219.428C180.614 208.574 202.857 197.417 227.442 188.003C252.04 178.59 276.043 172.057 295.057 169.593C314.325 167.091 326.251 169.138 328.618 175.355C330.998 181.572 323.478 191.048 307.464 202.054C291.664 212.908 269.422 224.065 244.837 233.478C220.239 242.892 196.236 249.424 177.222 251.888C171.867 252.583 167.081 252.924 162.904 252.924ZM295.209 170.806C276.296 173.258 252.382 179.765 227.873 189.14C203.364 198.516 181.209 209.635 165.499 220.438C150.219 230.938 142.674 240.137 144.8 245.697C146.927 251.244 158.688 253.063 177.07 250.688C195.983 248.236 219.897 241.729 244.406 232.354C268.915 222.978 291.069 211.859 306.78 201.056C322.06 190.555 329.605 181.357 327.479 175.797C325.972 171.842 319.579 169.783 309.388 169.783C305.261 169.783 300.514 170.124 295.222 170.806H295.209Z" fill="#472C27"/>
</g>
<path d="M99.5553 145.207C99.5553 145.207 98.897 142.136 99.0742 139.862C99.2515 137.6 101.518 137.183 101.783 140.153C102.062 143.122 104.48 147.431 104.48 147.431" fill="#F09947"/>
<path d="M103.948 147.721C103.847 147.544 101.454 143.274 101.175 140.203C101.074 139.066 100.656 138.649 100.416 138.649C100.163 138.649 99.7576 139.053 99.6816 139.9C99.517 142.048 100.15 145.043 100.15 145.068C100.226 145.396 100.011 145.725 99.6816 145.801C99.3525 145.876 99.0233 145.662 98.96 145.333C98.9347 145.207 98.2891 142.149 98.4663 139.811C98.5802 138.257 99.5297 137.436 100.403 137.423H100.416C101.251 137.423 102.214 138.118 102.403 140.089C102.669 142.894 104.999 147.077 105.024 147.115C105.075 147.203 105.1 147.304 105.1 147.418C105.1 147.759 104.821 148.025 104.492 148.037C104.277 148.037 104.062 147.923 103.961 147.721H103.948Z" fill="#472C27"/>
<path d="M77.7173 142.566C74.8435 142.566 74.8309 145.093 77.5527 145.333C85.4903 146.041 88.0728 148.871 88.0728 148.871C88.0728 148.871 83.1862 147.873 78.7933 149.136C76.5273 149.781 76.9957 151.942 80.0466 151.512C91.7821 150.905 99.5931 159.081 103.378 162.934C103.404 162.947 104.657 164.501 106.91 167.104L117.658 156.794C117.076 156.44 116.582 156.124 116.215 155.896C100.517 145.763 93.8962 137.853 86.9968 132.571C84.0977 130.347 83.2748 132.748 85.1231 134.252C89.6426 137.929 92.6556 143.45 92.6556 143.45C92.0226 142.591 86.5537 137.815 81.819 136.299C78.7807 135.326 77.7553 137.436 80.5657 138.712C87.6551 141.934 90.2376 145.927 90.2376 145.927C90.2376 145.927 82.9963 142.579 77.7173 142.579V142.566Z" fill="#F09947"/>
<path d="M106.91 167.723H106.885C106.72 167.723 106.556 167.635 106.454 167.508C104.695 165.487 103.543 164.097 103.1 163.566L102.935 163.364L102.72 163.149C99.0106 159.384 91.3135 151.562 80.1351 152.131C77.9576 152.434 76.9828 151.575 76.8056 150.754C76.641 149.97 77.1348 148.985 78.6413 148.555C81.1225 147.848 83.7178 147.822 85.5914 147.949C84.0216 147.178 81.4517 146.293 77.5272 145.94C75.7042 145.775 74.9067 144.727 74.9447 143.817C74.9826 142.882 75.8688 141.947 77.7298 141.947H77.7424C81.2112 141.947 85.4141 143.324 88.0347 144.322C86.5788 142.92 84.0975 140.974 80.325 139.255C78.4514 138.409 78.1222 137.234 78.4134 136.501C78.7425 135.642 79.9958 135.048 82.0214 135.705C84.6292 136.539 87.503 138.371 89.6931 140.014C88.4271 138.308 86.7307 136.324 84.7558 134.707C83.6038 133.772 83.2114 132.394 83.857 131.573C84.1102 131.257 85.123 130.335 87.389 132.078C89.6551 133.81 91.8579 135.806 94.4151 138.106C99.5929 142.768 106.024 148.568 116.569 155.378C117.038 155.682 117.519 155.985 118 156.275C118.051 156.301 118.089 156.339 118.127 156.376C118.354 156.617 118.354 157.008 118.114 157.236L107.366 167.546C107.252 167.66 107.1 167.711 106.948 167.711L106.91 167.723ZM116.671 156.895C116.367 156.705 116.114 156.541 115.898 156.402C105.277 149.541 98.7953 143.703 93.5922 139.015C91.0603 136.728 88.8702 134.77 86.6421 133.051C85.5028 132.18 84.9078 132.217 84.8065 132.331C84.6672 132.508 84.7938 133.165 85.5154 133.759C90.0729 137.461 93.0732 142.907 93.1998 143.135C93.3517 143.4 93.2758 143.741 93.0226 143.931C92.7441 144.133 92.3643 144.07 92.1617 143.792C91.6047 143.033 86.2497 138.346 81.6289 136.867C80.325 136.45 79.6287 136.716 79.5401 136.943C79.4641 137.133 79.768 137.676 80.8187 138.144C87.984 141.403 90.6426 145.409 90.7565 145.573C90.8704 145.75 90.8831 145.978 90.7945 146.167C90.6552 146.47 90.2881 146.609 89.9843 146.458C89.9083 146.42 82.8189 143.172 77.7424 143.172C76.7423 143.172 76.1853 143.539 76.1726 143.867C76.1726 144.171 76.6031 144.626 77.6285 144.714C85.718 145.434 88.4398 148.328 88.5411 148.454C88.6803 148.593 88.731 148.795 88.693 148.997C88.6297 149.326 88.3005 149.541 87.9714 149.465C87.9207 149.465 83.1861 148.505 78.9831 149.718C78.2488 149.932 77.9703 150.299 78.0083 150.476C78.0589 150.691 78.6159 151.095 80.0338 150.893C91.8072 150.274 99.7828 158.373 103.606 162.265L103.809 162.467C103.809 162.467 103.897 162.568 104.062 162.77C105.024 163.92 105.986 165.07 106.973 166.207L116.683 156.882L116.671 156.895Z" fill="#472C27"/>
<path d="M52.4237 194.814C49.4993 196.241 50.6007 198.781 54.4239 197.935C60.5638 196.57 64.8934 193.588 69.2736 189.911C68.1976 194.536 68.1343 194.043 67.957 196.052C67.7798 198.061 70.2864 200.31 72.0334 195.736C73.7804 191.162 76.5149 183.164 80.4141 184.415C81.8952 184.895 83.9714 186.083 85.6045 187.106L85.6551 187.144C86.1615 187.472 86.6553 187.788 87.1616 188.117C87.782 188.534 88.1871 188.812 88.1871 188.812V188.774C92.1115 191.25 95.998 193.411 99.8339 195.269L102.695 179.259C98.8338 178.716 94.9093 177.958 90.9089 177.099C89.9594 176.897 88.2504 176.581 88.2504 176.581C88.2504 176.581 77.9708 174.698 71.2485 177.162C62.4754 180.384 60.9183 182.178 55.3354 183.53C52.1705 184.301 53.044 186.398 55.1582 186.222C57.7407 185.994 60.9436 185.059 60.9436 185.059C57.4749 187.713 57.247 192.299 52.4237 194.801V194.814Z" fill="#F09947"/>
<path d="M69.6278 199.021C69.4632 199.021 69.324 198.996 69.1974 198.971C68.0453 198.705 67.2225 197.366 67.3364 195.989C67.4503 194.65 67.5263 194.359 67.8428 193.121C67.9441 192.716 68.0707 192.211 68.2479 191.529C64.0955 194.852 60.0192 197.303 54.5502 198.516C51.8917 199.11 50.5624 198.2 50.2333 197.252C49.9548 196.444 50.2839 195.168 52.1449 194.258C54.7401 192.906 55.9554 190.871 57.1201 188.913C57.6645 188.003 58.2215 187.068 58.9178 186.209C57.8164 186.462 56.4491 186.727 55.2085 186.828C53.8792 186.942 52.8158 186.323 52.6639 185.337C52.5247 184.503 53.1197 183.429 55.1958 182.924C58.1708 182.204 59.9559 181.37 62.4245 180.207C64.4753 179.247 67.0199 178.047 71.0457 176.568C77.8565 174.066 87.9462 175.886 88.3767 175.962C89.2755 176.126 90.1617 176.303 91.0478 176.48C95.5926 177.453 99.3146 178.135 102.783 178.628C102.783 178.628 102.796 178.628 102.809 178.628C103.138 178.691 103.366 179.007 103.302 179.335L100.441 195.344C100.441 195.344 100.416 195.458 100.391 195.509C100.239 195.812 99.8716 195.938 99.5677 195.787C95.7192 193.917 91.8327 191.769 88.0349 189.381C87.9589 189.368 87.8956 189.33 87.8323 189.292C87.8323 189.292 87.4398 189.014 86.8195 188.61L86.3131 188.294C85.9713 188.079 85.6422 187.864 85.2624 187.612C83.1103 186.26 81.3632 185.35 80.2112 184.983C77.1096 183.998 74.4891 190.909 72.9319 195.041L72.5901 195.951C71.6153 198.503 70.4253 199.021 69.6151 199.021H69.6278ZM79.5909 183.657C79.9327 183.657 80.2745 183.707 80.6037 183.821C81.8696 184.225 83.6546 185.148 85.9207 186.575L85.984 186.626C86.3131 186.841 86.6423 187.056 86.9714 187.27L87.4905 187.599C87.8703 187.852 88.1741 188.066 88.3513 188.18C88.402 188.193 88.4526 188.218 88.5033 188.243C92.01 190.467 95.6433 192.501 99.3652 194.346L101.973 179.765C98.6436 179.272 95.0736 178.615 90.7693 177.693C89.8198 177.491 88.1361 177.175 88.1361 177.175C88.0349 177.162 77.9451 175.343 71.4508 177.731C67.463 179.196 64.9437 180.371 62.9182 181.332C60.4749 182.482 58.5506 183.379 55.4617 184.124C54.2211 184.427 53.8159 184.908 53.8539 185.148C53.8919 185.388 54.3477 185.678 55.0946 185.615C57.5758 185.4 60.7281 184.491 60.7661 184.478C61.0066 184.402 61.2725 184.491 61.4244 184.693C61.6269 184.958 61.5763 185.35 61.3104 185.552C59.9179 186.626 59.0697 188.041 58.1709 189.545C56.9176 191.655 55.6136 193.841 52.7019 195.357C52.7019 195.357 52.7019 195.357 52.6892 195.357C51.6258 195.875 51.2714 196.494 51.398 196.848C51.5372 197.252 52.4487 197.733 54.297 197.316C60.1457 196.014 64.3487 193.222 68.8809 189.431C69.0328 189.305 69.2227 189.254 69.4126 189.305C69.7417 189.381 69.9443 189.709 69.8683 190.038C69.6025 191.175 69.324 192.299 69.0328 193.424C68.7163 194.65 68.6657 194.864 68.5517 196.103C68.4884 196.848 68.9315 197.657 69.4632 197.783C69.9569 197.897 70.7418 197.366 71.4508 195.509L71.7926 194.612C73.4763 190.177 75.9449 183.657 79.5909 183.657Z" fill="#472C27"/>
<path d="M93.4663 177.629C94.0739 180.586 94.8968 187.687 89.4658 189.545C151.928 227.969 204.947 185.084 218.037 163.617L176.488 126.784C153.207 182.557 124.204 183.884 93.4789 177.617L93.4663 177.629Z" fill="#FDEED7"/>
<path d="M140.408 205.617C123.14 205.617 105.961 200.424 89.1492 190.075C89.0226 190 88.934 189.886 88.896 189.747C88.7821 189.431 88.9593 189.077 89.2758 188.963C94.251 187.258 93.4535 180.548 92.8838 177.743C92.8711 177.667 92.8711 177.579 92.8838 177.503C92.9471 177.175 93.2762 176.96 93.6054 177.023C122.165 182.848 152.042 183.745 175.931 126.544C175.956 126.481 175.994 126.418 176.032 126.367C176.26 126.115 176.64 126.089 176.893 126.317L218.442 163.149C218.67 163.351 218.708 163.667 218.556 163.92C212.289 174.205 192.211 195.635 161.144 203.103C154.22 204.77 147.307 205.592 140.395 205.592L140.408 205.617ZM176.716 127.82C166.031 153.117 153.371 168.886 138.028 176.037C123.469 182.823 107.784 181.117 94.2384 178.413C94.7701 181.622 95.0106 187.346 90.7949 189.646C113.734 203.469 137.306 207.601 160.879 201.94C191.122 194.675 210.783 174.041 217.252 163.743L176.728 127.82H176.716Z" fill="#472C27"/>
<path d="M243.824 232.96C257.737 227.641 270.625 221.854 281.942 216.003C281.588 205.263 282.056 112.19 225.227 89.3203C170.639 78.8075 158.562 184.541 159.992 252.368C178.475 252.874 209.846 245.962 243.824 232.973V232.96Z" fill="#FDEED7"/>
<path d="M266.776 133.873C282.018 166.927 281.929 216.003 281.929 216.003C281.929 216.003 270.915 221.323 254.028 228.664C264.662 220.072 269.966 215.384 272.624 208.662C275.093 202.408 275.422 195.054 273.561 192.021C264.649 177.49 274.739 165.537 266.763 133.885L266.776 133.873ZM234.658 94.728C238.456 95.3219 247.736 103.017 254.787 112.291C257.028 115.248 259.053 118.356 260.598 121.452C247.305 103.788 233.24 94.8797 222.923 95.8273C222.923 95.8273 229.645 93.9573 234.646 94.728H234.658Z" fill="#F09947"/>
<path d="M258.066 140.923C255.065 140.923 252.128 140.051 249.622 138.409C246.267 136.21 244.026 132.862 243.292 128.995C241.874 121.427 246.811 113.947 254.534 111.95C254.85 111.874 255.179 112.064 255.268 112.38C255.357 112.708 255.167 113.049 254.85 113.138C247.748 114.97 243.203 121.844 244.507 128.768C245.178 132.306 247.229 135.364 250.305 137.385C253.382 139.407 257.116 140.14 260.8 139.445C263.307 138.977 265.649 137.853 267.548 136.223C267.801 136.008 268.193 136.033 268.409 136.286C268.624 136.539 268.599 136.931 268.345 137.145C266.269 138.927 263.737 140.14 261.015 140.645C260.028 140.835 259.041 140.923 258.066 140.923ZM201.515 92.6684C198.781 95.2587 198.135 98.9609 198.388 103.219C214.833 89.2442 221.087 86.2496 228.544 90.6594C215.973 81.8651 204.25 90.0782 201.503 92.6558L201.515 92.6684ZM232.405 237.749C232.088 237.749 231.822 237.509 231.797 237.18C231.455 232.707 232.873 228.373 235.785 224.974C238.709 221.576 242.773 219.503 247.242 219.162C252.825 218.733 258.256 221.121 261.724 225.518C261.724 225.518 261.724 225.53 261.737 225.543C261.94 225.808 261.889 226.2 261.61 226.402C261.345 226.604 260.952 226.554 260.75 226.276C257.547 222.195 252.508 219.983 247.33 220.388C243.191 220.704 239.418 222.624 236.709 225.77C234 228.929 232.683 232.947 233.012 237.092C233.012 237.105 233.012 237.13 233.012 237.142C233.012 237.484 232.734 237.749 232.405 237.749Z" fill="#F09947"/>
<path d="M170.88 142.313C166.892 153.091 162.436 191.781 161.967 202.799C139.686 207.727 122.571 204.202 99.834 195.256C119.292 193.651 129.141 200.917 137.117 196.001C145.092 191.074 151.612 187.055 156.574 177.478C159.853 171.147 164.778 156.844 170.88 142.313Z" fill="#472C27"/>
<path d="M161.891 253C161.245 253 160.612 253 159.967 252.975C159.637 252.975 159.384 252.697 159.372 252.381C158.967 233.415 159.207 184.933 170.094 144.55C175.272 125.357 182.134 110.826 190.502 101.337C200.174 90.369 211.896 86.1235 225.341 88.7137C225.379 88.7137 225.417 88.7264 225.455 88.7516C260.75 102.967 281.005 147.494 282.499 214.146C282.512 214.904 282.524 215.523 282.55 215.991C282.55 216.231 282.423 216.446 282.22 216.559C270.498 222.624 257.648 228.336 244.039 233.541C212.39 245.646 181.222 253.013 161.891 253.013V253ZM243.596 232.379C257.028 227.249 269.713 221.614 281.309 215.624C281.309 215.22 281.284 214.727 281.271 214.159C280.41 175.873 271.966 108.842 225.05 89.9015C212.086 87.4249 200.781 91.5441 191.426 102.145C183.184 111.483 176.411 125.862 171.284 144.866C160.549 184.68 160.207 232.455 160.587 251.762C179.64 252.103 211.352 244.724 243.596 232.392V232.379Z" fill="#472C27"/>
<path d="M201.832 145.131C195.895 165.904 190.312 180.194 179.577 181.395C162.473 183.315 122.583 160.003 116.228 155.896C114.608 154.848 113 153.774 111.417 152.662C108.214 153.635 103.973 155.947 101.834 161.38C102.404 161.949 102.923 162.48 103.378 162.934C111.164 172.866 181.412 255.616 228.797 222.245C235.988 217.179 242.368 209.66 247.685 201.043C258.724 183.176 265.244 160.534 265.231 145.017" fill="#FDEED7"/>
<path d="M175.893 213.186C175.893 204.922 182.615 198.2 190.882 198.2C199.148 198.2 205.871 204.922 205.871 213.186C205.871 221.449 199.148 228.171 190.882 228.171C182.615 228.171 175.893 221.449 175.893 213.186ZM177.121 213.186C177.121 220.78 183.298 226.946 190.894 226.946C198.49 226.946 204.668 220.767 204.668 213.186C204.668 205.604 198.49 199.426 190.894 199.426C183.298 199.426 177.121 205.604 177.121 213.186ZM197.376 126.481C194.667 124.459 193.072 121.288 192.907 117.535C192.743 113.833 193.97 109.992 196.401 106.732C198.819 103.472 202.136 101.185 205.731 100.275C209.377 99.3528 212.884 99.9593 215.593 101.968C218.302 103.99 219.897 107.161 220.062 110.914C220.227 114.629 218.999 118.458 216.568 121.718C214.15 124.977 210.833 127.265 207.238 128.174C206.162 128.452 205.06 128.591 203.959 128.591C201.528 128.591 199.262 127.871 197.376 126.468V126.481ZM208.997 101.071C207.997 101.071 206.997 101.198 206.022 101.45C202.693 102.297 199.629 104.42 197.376 107.452C195.123 110.485 193.97 114.035 194.122 117.459C194.274 120.846 195.692 123.689 198.11 125.483C200.528 127.277 203.668 127.808 206.947 126.974C210.276 126.14 213.34 124.005 215.593 120.972C217.846 117.94 218.999 114.389 218.847 110.965C218.695 107.578 217.277 104.735 214.859 102.941C213.188 101.703 211.175 101.059 208.997 101.059V101.071Z" fill="#F09947"/>
<path d="M52.8668 195.306C52.5756 195.306 52.3351 195.104 52.2718 194.826C52.1958 194.498 52.3984 194.169 52.7276 194.093C57.6521 192.982 63.1464 188.824 63.2097 188.787C63.4756 188.597 63.8427 188.648 64.0452 188.9C64.2604 189.166 64.2098 189.545 63.944 189.759C63.7161 189.936 58.1838 194.106 52.9934 195.281C52.9428 195.281 52.9048 195.294 52.8541 195.294L52.8668 195.306Z" fill="#472C27"/>
<path d="M56.7021 190.834C58.8796 188.862 62.1205 187.232 62.1205 187.232L56.7021 190.834Z" fill="#F09947"/>
<path d="M56.7021 191.44C56.5248 191.44 56.3603 191.364 56.2463 191.238C56.0185 190.985 56.0438 190.606 56.2843 190.379C58.4871 188.382 61.7026 186.752 61.8292 186.676C62.133 186.525 62.5002 186.639 62.6521 186.942C62.804 187.245 62.6901 187.612 62.3862 187.763C62.3483 187.776 59.1834 189.393 57.1072 191.276C56.9932 191.377 56.854 191.44 56.7021 191.44Z" fill="#472C27"/>
<path d="M143.598 203.924C143.37 203.684 143.37 203.292 143.611 203.052C146.282 200.512 147.75 197.075 147.75 193.398C147.75 186.045 141.775 180.068 134.42 180.068C130.229 180.068 126.368 181.976 123.824 185.312C123.621 185.577 123.229 185.628 122.963 185.425C122.697 185.223 122.646 184.832 122.849 184.566C125.634 180.927 129.85 178.842 134.42 178.842C142.446 178.842 148.978 185.375 148.978 193.398C148.978 197.429 147.371 201.169 144.446 203.949C144.332 204.063 144.18 204.113 144.028 204.113C143.864 204.113 143.699 204.05 143.585 203.924H143.598ZM193.388 170.68C183.539 188.496 164.689 178.754 156.84 176.265C143.459 172.019 114.278 155.1 114.278 155.1C114.278 155.1 134.825 168.898 138.711 172.297C140.99 174.281 143.965 176.366 146.13 176.593C148.307 176.821 152.447 177.996 155.017 180.068C160.777 184.718 162.334 181.508 164.853 182.873C167.373 184.238 169.993 187.763 172.829 187.725C176.842 187.675 176.627 183.164 181.311 185.552C186.957 188.445 191.071 192.501 193.376 170.655L193.388 170.68ZM249.078 198.769C245.255 195.787 243.064 191.314 243.064 186.474C243.064 177.882 250.053 170.895 258.636 170.895C259.345 170.895 260.054 170.945 260.75 171.034C260.75 171.034 260.775 171.034 260.788 171.034C261.117 171.084 261.345 171.4 261.294 171.741C261.244 172.07 260.927 172.297 260.585 172.247C259.94 172.158 259.281 172.12 258.636 172.12C250.724 172.12 244.28 178.552 244.28 186.474C244.28 190.935 246.305 195.066 249.825 197.808C249.977 197.922 250.065 198.099 250.065 198.288C250.065 198.63 249.787 198.895 249.458 198.895C249.318 198.895 249.192 198.844 249.078 198.769Z" fill="#F09947"/>
<path d="M190.717 107.477C189.754 106.795 190.236 105.178 190.679 104.015C193.464 96.7625 200.363 92.6433 200.667 92.4791C200.857 92.3654 201.085 92.3654 201.275 92.4791C201.566 92.6433 201.68 93.0098 201.515 93.313C199.667 96.7246 198.831 99.8835 198.958 102.967C198.958 103.156 198.882 103.333 198.743 103.459C197.122 104.837 193.514 107.717 191.514 107.717C191.21 107.717 190.932 107.654 190.717 107.49V107.477ZM197.717 102.701C197.654 100.149 198.198 97.5712 199.376 94.8672C197.16 96.5856 193.565 99.8961 191.818 104.458C191.172 106.125 191.426 106.479 191.426 106.479C191.919 106.795 194.692 105.254 197.73 102.701H197.717Z" fill="#472C27"/>
<path d="M197.869 103.447L194.717 105.873L196.211 107.654C197.223 108.21 198.705 107.402 198.705 107.402L198.768 105.292L197.869 103.447Z" fill="#472C27"/>
<path d="M197.047 108.463C196.667 108.463 196.275 108.387 195.907 108.185C195.844 108.147 195.781 108.096 195.73 108.046L194.236 106.264C194.236 106.264 194.236 106.252 194.224 106.239C194.021 105.974 194.072 105.582 194.338 105.38L197.49 102.954C197.49 102.954 197.553 102.903 197.591 102.891C197.895 102.739 198.262 102.865 198.414 103.169L199.313 105.013C199.351 105.102 199.376 105.203 199.376 105.304L199.313 107.414C199.313 107.629 199.186 107.831 198.996 107.932C198.87 108.008 197.996 108.463 197.047 108.463ZM198.148 105.418L197.642 104.382L195.591 105.961L196.591 107.149C197.034 107.326 197.68 107.149 198.098 106.997L198.148 105.418Z" fill="#472C27"/>
<path d="M183.931 123.474C186.197 117.611 189.489 109.954 197.781 104.736C195.338 108.564 192.958 115.438 189.654 127.366C185.932 140.835 175.893 142.427 175.893 142.427C181.248 137.815 181.653 129.337 183.931 123.474Z" fill="#472C27"/>
<path d="M191.501 135.275C192.983 129.514 193.109 127.1 192.995 120.808C192.907 116.145 192.742 110.699 197.781 104.23C196.565 108.614 197.869 112.772 198.768 121.351C200.224 135.25 191.501 135.275 191.501 135.275ZM95.8075 193.765C95.5669 193.765 95.3391 193.626 95.2504 193.398C95.1112 193.095 95.2504 192.729 95.5543 192.59C101.137 190.075 99.4914 183.214 99.4155 182.911C99.3268 182.583 99.5294 182.254 99.8585 182.166C100.188 182.077 100.517 182.279 100.605 182.608C100.631 182.684 102.58 190.758 96.0607 193.689C95.9847 193.727 95.8961 193.74 95.8075 193.74V193.765ZM106.416 166.776C106.1 166.649 105.948 166.295 106.074 165.98C108.024 161.026 113.214 158.019 113.43 157.893C113.721 157.729 114.101 157.83 114.265 158.12C114.43 158.411 114.328 158.79 114.037 158.954C113.987 158.979 109.011 161.873 107.214 166.422C107.112 166.662 106.885 166.813 106.644 166.813C106.568 166.813 106.492 166.801 106.416 166.776Z" fill="#472C27"/>
<path d="M182.083 150.918C182.323 149.061 181.665 147.443 180.627 147.317C179.589 147.191 178.551 148.581 178.323 150.451C178.083 152.308 178.741 153.925 179.779 154.052C180.817 154.178 181.855 152.776 182.083 150.918Z" fill="#F09947"/>
<path d="M179.893 154.658C179.817 154.658 179.753 154.658 179.677 154.646C178.943 154.557 178.348 154.014 177.981 153.117C177.664 152.346 177.563 151.36 177.69 150.362C177.968 148.138 179.272 146.534 180.677 146.698C182.07 146.875 182.943 148.757 182.665 150.981C182.399 153.091 181.196 154.658 179.88 154.658H179.893ZM180.475 147.911C179.88 147.911 179.108 148.985 178.918 150.514C178.816 151.297 178.892 152.081 179.133 152.662C179.323 153.117 179.576 153.407 179.842 153.433C180.45 153.508 181.26 152.409 181.462 150.83C181.665 149.25 181.133 147.987 180.538 147.911C180.513 147.911 180.5 147.911 180.475 147.911Z" fill="#472C27"/>
<path d="M178.969 171.046C179.108 169.176 178.374 167.597 177.323 167.521C176.273 167.445 175.323 168.898 175.184 170.768C175.045 172.639 175.779 174.218 176.83 174.294C177.88 174.37 178.83 172.916 178.969 171.046Z" fill="#F09947"/>
<path d="M176.905 174.913C176.905 174.913 176.816 174.913 176.778 174.913C175.373 174.812 174.398 172.979 174.563 170.73C174.728 168.494 175.943 166.813 177.361 166.914C178.766 167.016 179.728 168.848 179.576 171.097C179.5 172.108 179.209 173.043 178.753 173.738C178.247 174.496 177.601 174.913 176.918 174.913H176.905ZM175.778 170.819C175.664 172.411 176.247 173.637 176.854 173.687C177.12 173.712 177.437 173.485 177.703 173.068C178.044 172.55 178.272 171.792 178.336 171.008C178.45 169.416 177.867 168.191 177.26 168.14H177.222C176.627 168.14 175.88 169.265 175.766 170.819H175.778Z" fill="#472C27"/>
<path d="M170.74 236.801C171.791 236.877 172.74 235.424 172.879 233.554C173.019 231.684 172.284 230.105 171.234 230.029C170.183 229.953 169.233 231.406 169.094 233.276C168.955 235.146 169.689 236.726 170.74 236.801Z" fill="#F09947"/>
<path d="M170.803 237.433C170.803 237.433 170.727 237.433 170.677 237.433C169.272 237.332 168.309 235.5 168.461 233.251C168.537 232.24 168.828 231.305 169.284 230.61C169.816 229.801 170.538 229.384 171.246 229.447C172.652 229.548 173.626 231.381 173.462 233.63C173.297 235.803 172.145 237.446 170.791 237.446L170.803 237.433ZM170.322 231.28C169.98 231.798 169.753 232.556 169.689 233.339C169.575 234.931 170.158 236.157 170.765 236.207C171.398 236.245 172.133 235.121 172.247 233.529C172.36 231.937 171.778 230.711 171.17 230.66C171.17 230.66 171.145 230.66 171.133 230.66C170.867 230.66 170.575 230.888 170.31 231.28H170.322ZM177.678 223.888C193.287 230.067 206.516 231.065 214.023 228.576C221.53 226.086 221.442 221.133 219.416 218.96C217.391 216.799 208.706 215.953 201.921 218.834C195.148 221.702 186.59 222.447 182.134 220.678C177.678 218.909 180.728 214.664 169.335 213.375C157.954 212.086 144.37 203.077 144.37 203.077C151.599 208.965 162.068 217.709 177.678 223.888Z" fill="#472C27"/>
<path d="M203.364 230.382C197.123 230.382 190.553 229.271 183.704 227.047C171.829 223.193 159.03 216.003 145.687 205.667C124.204 189.039 107.67 169.239 103.113 163.579C103.024 163.465 102.961 163.389 102.935 163.351L102.746 163.162C102.34 162.757 101.897 162.303 101.404 161.81C101.226 161.633 101.176 161.38 101.264 161.153C103.492 155.479 107.923 153.079 111.24 152.068C111.417 152.017 111.62 152.043 111.772 152.156C113.354 153.256 114.949 154.33 116.57 155.378C123.621 159.927 162.929 182.646 179.526 180.788C188.818 179.752 195.313 169.846 201.959 146.597C202.047 146.268 202.389 146.079 202.718 146.18C203.048 146.281 203.237 146.609 203.136 146.938C198.161 164.337 191.869 180.637 179.665 182.001C178.956 182.077 178.209 182.115 177.437 182.115C157.422 182.115 116.329 156.667 115.912 156.402C114.367 155.404 112.861 154.393 111.329 153.331C108.379 154.292 104.607 156.427 102.568 161.229C102.948 161.608 103.303 161.974 103.632 162.303L103.809 162.479C103.809 162.479 103.898 162.581 104.087 162.808C108.62 168.456 125.077 188.142 146.459 204.695C176.437 227.906 202.25 234.679 223.164 224.81C232.253 220.527 240.444 212.566 247.508 201.157C252.661 192.83 257.028 182.886 260.13 172.386C261.054 169.252 261.851 166.093 262.535 162.909C263.915 156.364 264.649 150.185 264.649 144.992C264.839 137.486 262.624 131.118 258.256 126.557C253.952 122.071 247.736 119.531 240.773 119.418C240.431 119.418 240.166 119.14 240.166 118.799C240.166 118.457 240.444 118.192 240.786 118.192C248.078 118.306 254.597 120.972 259.142 125.698C263.75 130.486 266.08 137.171 265.877 144.992C265.877 150.248 265.143 156.528 263.738 163.149C263.054 166.371 262.244 169.568 261.307 172.727C258.18 183.328 253.775 193.386 248.559 201.788C241.356 213.4 233 221.512 223.695 225.897C217.404 228.866 210.618 230.345 203.402 230.345L203.364 230.382Z" fill="#472C27"/>
<path d="M194.869 168.721C196.439 157.463 197.958 158.714 196.553 149.339C195.148 139.963 200.3 137.613 202.769 138.561C204.541 139.23 203.351 145.712 203.351 145.712C201.794 152.118 200.034 160.597 194.869 168.721Z" fill="#472C27"/>
<path d="M199.654 167.862C199.654 159.599 206.377 152.876 214.643 152.876C222.91 152.876 229.632 159.599 229.632 167.862C229.632 176.126 222.91 182.848 214.643 182.848C206.377 182.848 199.654 176.126 199.654 167.862ZM200.882 167.862C200.882 175.456 207.06 181.622 214.656 181.622C222.252 181.622 228.43 175.443 228.43 167.862C228.43 160.281 222.252 154.102 214.656 154.102C207.06 154.102 200.882 160.281 200.882 167.862Z" fill="#F09947"/>
<path d="M231.518 120.075C227.493 121.225 223.733 123.107 220.391 125.635L231.518 120.075Z" fill="#FDEED7"/>
<path d="M220.391 126.241C220.201 126.241 220.024 126.153 219.91 126.001C219.708 125.736 219.758 125.344 220.024 125.142C223.455 122.551 227.265 120.643 231.354 119.481C231.671 119.393 232 119.582 232.101 119.898C232.203 120.226 232.025 120.568 231.696 120.669C227.759 121.793 224.075 123.625 220.771 126.127C220.67 126.203 220.531 126.254 220.404 126.254L220.391 126.241Z" fill="#472C27"/>
<path d="M173.765 63.7207C175.968 62.95 176.487 58.6539 174.905 54.1051C173.322 49.5564 170.259 46.4986 168.056 47.2567C165.853 48.0275 165.334 52.3235 166.916 56.8723C168.499 61.4211 171.562 64.4789 173.765 63.7207Z" fill="#FDEED7"/>
<path d="M173.057 64.4534C171.981 64.4534 170.816 63.8596 169.677 62.7224C168.322 61.3704 167.132 59.3613 166.347 57.0743C164.638 52.1339 165.297 47.5724 167.867 46.6753C170.436 45.7782 173.791 48.9624 175.5 53.8902C176.298 56.1772 176.602 58.4769 176.374 60.3848C176.133 62.4444 175.272 63.8343 173.981 64.2765C173.69 64.3776 173.373 64.4282 173.07 64.4282L173.057 64.4534ZM168.765 47.762C168.588 47.762 168.424 47.7873 168.259 47.8378C166.613 48.4064 165.904 52.0959 167.499 56.67C168.234 58.7801 169.31 60.6249 170.538 61.8505C171.639 62.9498 172.741 63.4173 173.563 63.1393C174.386 62.8487 174.969 61.8 175.146 60.2585C175.348 58.5274 175.057 56.4173 174.323 54.3072C172.892 50.1627 170.436 47.762 168.753 47.762H168.765Z" fill="#472C27"/>
<path d="M225.594 88.8652C216.998 86.9952 210.377 91.645 202.389 95.9158L192.553 66.5257C192.553 66.5257 203.605 46.6754 206.769 60.7387C211.112 80.0836 225.607 88.8652 225.607 88.8652H225.594Z" fill="#F09947"/>
<path d="M201.668 94.6397C201.402 94.6397 201.174 94.4754 201.085 94.2227L191.958 66.7153C191.907 66.551 191.92 66.3615 192.021 66.2099C192.692 65.098 198.743 55.3686 203.617 56.1268C205.567 56.43 206.985 58.3253 207.82 61.7748C212.618 81.5367 230.076 90.748 230.253 90.8364C230.531 90.988 230.645 91.3418 230.506 91.6324C230.354 91.9357 230 92.062 229.683 91.9231C229.506 91.8346 211.555 82.3833 206.63 62.0654C205.921 59.1466 204.845 57.5672 203.427 57.3398C200.06 56.8217 195.059 63.6449 193.211 66.6142L202.25 93.8436C202.25 93.8436 202.275 93.97 202.275 94.0332C202.275 94.3743 201.997 94.6397 201.668 94.6397Z" fill="#472C27"/>
<path d="M210.15 57.3397L207.58 37.7673C195.388 18.4603 168.259 33.6229 172.93 48.2548C174.146 52.0581 176.222 53.6501 173.665 58.8559C172.31 61.6231 174.082 63.5437 176.88 63.8469C179.805 65.9065 181.881 76.495 188.856 75.2694C195.211 74.1575 197.376 71.4661 198.25 70.4679" fill="#F09947"/>
<path d="M179.133 68.181C178.26 66.5889 177.449 65.0853 176.639 64.4409C174.943 64.2135 173.626 63.4427 172.993 62.2929C172.588 61.5474 172.272 60.3091 173.12 58.5907C174.981 54.8127 174.259 53.1322 173.272 50.8072C172.955 50.0744 172.639 49.3289 172.36 48.4318C169.904 40.7368 175.766 33.3829 182.83 30.0977C190.198 26.6735 201.237 26.5345 208.111 37.4263C208.162 37.5021 208.187 37.5905 208.2 37.679L210.77 57.2513C210.808 57.5925 210.58 57.8957 210.238 57.9336C209.909 57.9715 209.592 57.7441 209.554 57.4029L207.01 37.9696C200.541 27.8612 190.236 28.0002 183.349 31.2096C176.779 34.2674 171.297 41.04 173.538 48.0653C173.804 48.8993 174.12 49.6195 174.411 50.3271C175.449 52.7531 176.335 54.8506 174.234 59.134C173.753 60.1069 173.702 61.0041 174.082 61.699C174.538 62.5329 175.589 63.0889 176.956 63.2405C177.057 63.2405 177.158 63.2911 177.247 63.3542C178.31 64.1124 179.196 65.7297 180.222 67.5998C182.222 71.2641 184.501 75.4211 188.767 74.6756C194.692 73.6395 196.806 71.2135 197.717 70.1774L197.819 70.0637C198.034 69.8362 198.401 69.811 198.654 70.0131C198.92 70.2279 198.958 70.6196 198.743 70.8724L198.654 70.9734C197.667 72.1106 195.337 74.7641 188.995 75.876C188.59 75.9518 188.172 75.9897 187.754 75.9897C183.425 75.9897 181.07 71.6937 179.159 68.181H179.133Z" fill="#472C27"/>
<path d="M197.085 49.0762C196.553 51.1231 195.047 52.7784 193.603 48.5202C189.97 37.7548 183.868 45.791 172.702 42.3668C161.929 39.0689 160.448 22.0742 188.704 17.3738C204.174 14.7962 214.732 19.2439 228.101 28.8595C241.887 38.7783 243.811 43.8577 259.99 41.9877C270.992 40.7115 288.259 39.2711 296.096 47.6105C310.401 62.8489 317.706 62.5456 327.656 63.7839C350.342 66.6016 355.431 87.5007 342.215 105.986C333.657 117.965 320.984 124.561 298.754 125.369C270.321 126.393 261.902 87.905 229.506 81.7262C196.946 75.5096 202.604 59.8922 204.655 54.7622C205.833 51.8307 206.58 47.5094 203.718 45.8542C199.541 43.4408 197.743 46.9029 197.097 49.0762H197.085Z" fill="#472C27"/>
<path d="M185.577 63.0511C187.856 62.255 188.388 57.8073 186.754 53.0943C185.121 48.3939 181.944 45.2224 179.665 46.0058C177.386 46.8019 176.855 51.2495 178.488 55.9626C180.121 60.663 183.298 63.8345 185.577 63.0511Z" fill="#FDEED7"/>
<path d="M184.843 63.7838C183.742 63.7838 182.526 63.1773 181.362 62.0022C179.957 60.5997 178.729 58.5275 177.918 56.1646C176.146 51.0599 176.83 46.3469 179.476 45.4371C180.817 44.9696 182.387 45.5509 183.906 47.0671C185.312 48.4696 186.54 50.5419 187.35 52.9047C188.173 55.2675 188.489 57.6556 188.261 59.6141C188.008 61.7369 187.135 63.1647 185.793 63.6322C185.489 63.7333 185.172 63.7838 184.856 63.7838H184.843ZM180.4 46.5111C180.222 46.5111 180.045 46.5364 179.868 46.5996C178.146 47.1935 177.412 51.022 179.058 55.7729C179.817 57.9589 180.944 59.8668 182.21 61.143C183.362 62.2928 184.501 62.773 185.362 62.4824C186.223 62.1791 186.818 61.0925 187.021 59.4751C187.236 57.6809 186.932 55.495 186.172 53.309C185.413 51.1231 184.286 49.2151 183.02 47.939C182.096 47.0166 181.172 46.5238 180.387 46.5238L180.4 46.5111Z" fill="#472C27"/>
<path d="M180.272 55.3308C179.943 55.2297 179.766 54.8885 179.867 54.5726C179.969 54.2441 180.31 54.0672 180.627 54.1683C182.69 54.7874 183.766 53.486 183.817 53.4228C184.02 53.1575 184.412 53.1069 184.678 53.3217C184.944 53.5239 184.994 53.9156 184.779 54.1809C184.729 54.2441 183.678 55.5708 181.703 55.5708C181.222 55.5708 180.728 55.495 180.272 55.356V55.3308Z" fill="#472C27"/>
<path d="M182.754 57.0364C183.336 56.7584 183.551 55.975 183.222 55.2674C182.893 54.5599 182.159 54.2187 181.564 54.484C180.981 54.762 180.766 55.5454 181.095 56.253C181.425 56.9606 182.159 57.3018 182.754 57.0364ZM183.083 70.6701C182.159 70.6701 181.171 70.4553 180.234 69.8361C179.956 69.6466 179.88 69.2675 180.057 68.9896C180.247 68.7116 180.627 68.6231 180.905 68.8127C183.311 70.4047 186.463 68.4336 186.488 68.421C186.767 68.2567 187.121 68.3325 187.311 68.5979C187.501 68.8758 187.438 69.2549 187.147 69.4444C187.033 69.5203 185.21 70.6574 183.07 70.6574L183.083 70.6701Z" fill="#472C27"/>
<path d="M296.399 48.0022C299.526 57.8452 307.806 63.7839 318.908 65.8182C330.112 67.8652 335.948 66.7532 346.266 75.0421C342.202 69.4193 338.315 64.8832 321.25 63.1648C305.78 61.598 296.399 48.0022 296.399 48.0022Z" fill="#F09947"/>
<path d="M199.49 53.2965C200.313 49.7838 202.073 48.3687 202.073 48.3687L199.49 53.2965Z" fill="#472C27"/>
<path d="M199.49 53.9029C199.49 53.9029 199.401 53.9029 199.351 53.8903C199.021 53.8145 198.819 53.4859 198.895 53.1574C199.756 49.4805 201.604 47.9642 201.693 47.9011C201.958 47.6863 202.338 47.7368 202.553 47.9895C202.769 48.2548 202.731 48.6339 202.465 48.8487C202.452 48.8614 200.857 50.2007 200.098 53.4354C200.034 53.7134 199.781 53.9029 199.503 53.9029H199.49Z" fill="#472C27"/>
<path d="M200.896 50.125C202.123 50.7694 202.478 52.4752 202.478 52.4752L200.896 50.125Z" fill="#472C27"/>
<path d="M202.478 53.0815C202.187 53.0815 201.934 52.8794 201.883 52.6014C201.883 52.5887 201.567 51.1736 200.617 50.6681C200.617 50.6681 200.604 50.6681 200.592 50.6555C200.301 50.4913 200.187 50.1248 200.351 49.8216C200.516 49.531 200.883 49.4172 201.187 49.5815C202.655 50.3523 203.073 52.2602 203.086 52.3487C203.086 52.3866 203.098 52.4371 203.098 52.475C203.098 52.8162 202.82 53.0815 202.491 53.0815H202.478Z" fill="#472C27"/>
<path d="M184.311 122.488C182.931 125.672 181.564 132.205 179.412 137.449C181.653 136.071 184.78 129.349 186.894 123.171C189.135 116.638 194.464 107.01 194.464 107.01C189.299 110.282 185.691 119.304 184.311 122.488ZM227.772 32.6754C230.278 35.0256 241.533 45.9552 253.724 42.5184C244.812 43.3018 243.723 40.6483 226.367 28.1392C209.01 15.6301 196.819 16.4135 196.819 16.4135C213.39 19.8504 225.265 30.3252 227.772 32.6627V32.6754Z" fill="#F09947"/>
<path d="M186.35 52.2097C186.084 52.2097 185.856 52.0455 185.767 51.7928C185.653 51.4769 185.831 51.1231 186.147 51.022L194.819 48.0527C195.135 47.939 195.49 48.1159 195.591 48.4317C195.705 48.7476 195.528 49.1014 195.211 49.2151L186.539 52.1845C186.476 52.2097 186.413 52.2224 186.337 52.2224L186.35 52.2097ZM177.678 54.2314H177.665L175.007 54.1556C174.665 54.1556 174.399 53.865 174.412 53.5238C174.412 53.1827 174.728 52.9173 175.045 52.93L177.703 53.0058C178.045 53.0058 178.311 53.2838 178.311 53.6249C178.311 53.9661 178.032 54.2314 177.69 54.2314H177.678Z" fill="#472C27"/>
<path d="M297.627 125.988C283.423 125.988 274.181 116.208 264.421 105.873C254.863 95.7516 244.976 85.2894 229.379 82.3074C215.973 79.7424 207.427 75.2821 204.009 69.0402C200.693 62.9752 203.148 56.8343 204.073 54.522C204.49 53.4733 206.44 48.1285 203.402 46.3722C202.136 45.6393 201.047 45.4498 200.135 45.8162C198.705 46.3848 197.983 48.1917 197.667 49.2278C197.262 50.7946 196.477 51.7422 195.565 51.7801H195.515C194.527 51.7801 193.717 50.7693 193.021 48.6971C190.983 42.6447 188.425 42.9606 183.792 43.5165C180.792 43.8703 177.057 44.3252 172.525 42.9353C167.689 41.457 164.651 37.3883 164.954 32.8017C165.144 29.9334 167.41 20.2799 188.603 16.7546C204.718 14.0759 215.416 18.9785 228.455 28.354C231.189 30.3251 233.456 32.0941 235.456 33.6609C243.507 39.966 247.179 42.8342 259.914 41.3685C268.32 40.3956 288.018 38.1086 296.538 47.1808C309.59 61.0798 316.591 61.8885 325.466 62.8993C326.212 62.9878 326.959 63.0762 327.732 63.1647C337.644 64.3903 344.898 69.1665 348.152 76.5962C351.911 85.1757 349.886 96.2949 342.708 106.327C333.555 119.14 319.997 125.192 298.779 125.963C298.399 125.976 298.02 125.988 297.64 125.988H297.627ZM274.004 41.6086C268.523 41.6086 263.383 42.2025 260.053 42.5942C246.824 44.123 242.773 40.9515 234.709 34.6338C232.721 33.067 230.455 31.298 227.746 29.3522C214.973 20.1662 204.503 15.3521 188.818 17.9676C172.677 20.659 166.55 27.4442 166.182 32.8901C165.917 36.8956 168.613 40.4588 172.892 41.7728C177.184 43.0869 180.766 42.6573 183.653 42.3035C188.223 41.7602 191.831 41.318 194.198 48.318C194.945 50.5419 195.527 50.5671 195.54 50.5671C195.73 50.5671 196.198 50.0744 196.502 48.9245V48.8993C196.882 47.6483 197.793 45.4498 199.705 44.679C200.971 44.1736 202.427 44.3884 204.035 45.3108C207.073 47.0671 206.643 51.4516 205.237 54.9769C203.769 58.6665 202.414 63.5185 205.111 68.4463C208.352 74.3597 216.593 78.6179 229.632 81.1071C245.609 84.1522 255.635 94.766 265.332 105.026C275.156 115.425 284.448 125.255 298.741 124.737C319.554 123.979 332.808 118.091 341.72 105.62C348.645 95.9411 350.633 85.2768 347.038 77.089C343.961 70.0637 337.049 65.5528 327.58 64.3777C326.82 64.2766 326.073 64.2008 325.326 64.1124C316.566 63.1142 309.008 62.2423 295.652 48.0148C290.829 42.8848 282.056 41.5959 274.017 41.5959L274.004 41.6086Z" fill="#472C27"/>
<path d="M198.401 103.219C198.401 103.219 199.465 120.151 212.188 104.786C225.354 88.8779 237 95.6758 237 95.6758C228.696 88.423 218.163 82.1558 198.401 103.232V103.219Z" fill="#FDEED7"/>
<path d="M203.389 111.849C202.958 111.849 202.528 111.786 202.123 111.647C198.274 110.396 197.806 103.548 197.78 103.257C197.78 103.093 197.831 102.928 197.945 102.802C217.947 81.4735 228.797 87.7027 237.392 95.2082C237.608 95.3977 237.671 95.7263 237.519 95.979C237.354 96.2696 236.975 96.3707 236.683 96.2064C236.228 95.9411 225.302 89.8887 212.656 105.178C208.946 109.651 205.895 111.862 203.376 111.862L203.389 111.849ZM234.038 94.0079C226.049 87.8544 216.289 85.1378 199.034 103.434C199.211 105.354 200.085 109.701 202.503 110.485C204.655 111.179 207.845 109.069 211.719 104.382C218.935 95.6631 225.796 93.6414 230.594 93.6414C231.746 93.6414 232.898 93.7551 234.038 93.9952V94.0079ZM196.793 71.2261C195.92 73.0961 194.742 73.69 194.742 73.69L196.211 77.329C199.667 74.4608 200.426 69.8867 199.262 69.5329C198.046 69.1665 196.806 71.2387 196.806 71.2387L196.793 71.2261Z" fill="#472C27"/>
<path d="M175.892 143.046C175.715 143.046 175.55 142.97 175.424 142.831C175.209 142.579 175.234 142.187 175.487 141.972C179.095 138.864 180.374 133.911 181.614 129.122C182.159 127.024 182.665 125.053 183.361 123.259C185.881 116.752 189.248 109.385 197.464 104.23C197.667 104.104 197.92 104.104 198.123 104.23C198.414 104.407 198.49 104.786 198.312 105.077C196.021 108.678 193.679 115.185 190.261 127.542C186.476 141.239 176.424 142.983 176.006 143.046C175.968 143.046 175.943 143.046 175.905 143.046H175.892ZM195.958 106.744C189.59 111.584 186.704 117.977 184.488 123.701C183.817 125.42 183.323 127.366 182.792 129.425C181.766 133.418 180.614 137.866 177.956 141.164C181.019 139.913 186.501 136.438 189.058 127.214C191.881 117.004 193.983 110.725 195.958 106.744Z" fill="#472C27"/>
<path d="M192.919 120.252C193.438 124.548 193.097 127.302 192.059 132.117C194.122 129.627 196.173 124.27 195.844 120.505C195.502 116.638 194.983 108.893 194.983 108.893C193.438 111.129 192.4 115.943 192.919 120.239V120.252Z" fill="#F09947"/>
<path d="M191.501 135.882C191.501 135.882 191.4 135.882 191.349 135.857C191.02 135.768 190.83 135.44 190.906 135.111C192.4 129.324 192.489 126.885 192.375 120.808V120.631C192.286 116.082 192.185 110.409 197.287 103.838C197.439 103.649 197.692 103.56 197.932 103.623C198.262 103.712 198.451 104.053 198.363 104.382C197.527 107.402 197.945 110.383 198.565 114.907C198.819 116.739 199.11 118.824 199.363 121.275C199.933 126.696 199.059 130.739 196.78 133.279C194.476 135.844 191.615 135.882 191.489 135.882H191.501ZM196.717 106.808C193.438 112.064 193.527 116.575 193.603 120.618V120.795C193.717 126.683 193.628 129.236 192.324 134.555C193.704 134.252 194.957 133.532 195.894 132.47C197.932 130.196 198.705 126.468 198.173 121.414C197.92 118.988 197.629 116.916 197.375 115.084C196.907 111.723 196.552 109.183 196.73 106.808H196.717Z" fill="#472C27"/>
<mask id="mask2_543_7169" style="mask-type:luminance" maskUnits="userSpaceOnUse" x="49" y="154" width="29" height="25">
<path d="M69.951 154.037L49.873 166.603L57.3248 178.464L77.4028 165.898L69.951 154.037Z" fill="white"/>
</mask>
<g mask="url(#mask2_543_7169)">
<path d="M77.0341 165.828C77.1607 165.537 77.0341 165.196 76.7303 165.07C76.6163 165.019 64.8302 160.193 51.8921 165.36C51.5883 165.474 51.449 165.815 51.563 166.119C51.6769 166.409 52.0187 166.561 52.3225 166.435C64.8049 161.444 76.1606 166.081 76.2745 166.131C76.4517 166.207 76.6543 166.194 76.8062 166.093C76.9075 166.03 76.9834 165.942 77.0341 165.828ZM70.4131 169.998C70.4384 169.682 70.1979 169.404 69.8814 169.379C69.5649 169.353 61.9185 168.835 55.3355 174.382C55.095 174.584 55.057 174.951 55.2596 175.204C55.4621 175.444 55.8292 175.482 56.0824 175.267C62.2856 170.036 69.7042 170.528 69.7801 170.541C69.9067 170.541 70.0333 170.516 70.1346 170.453C70.2865 170.352 70.3878 170.187 70.4131 170.01V169.998Z" fill="#472C27"/>
</g>
<mask id="mask3_543_7169" style="mask-type:luminance" maskUnits="userSpaceOnUse" x="89" y="27" width="58" height="36">
<path d="M94.3823 27.3875L89.7754 53.02L142.11 62.3904L146.717 36.7578L94.3823 27.3875Z" fill="white"/>
</mask>
<g mask="url(#mask3_543_7169)">
<path d="M98.9857 28.9351C96.6944 28.5308 94.5169 30.0471 94.1244 32.3214L92.7066 40.3071C92.3015 42.5814 93.8333 44.7421 96.112 45.1464L131.053 51.3252L135.192 60.5365L136.648 52.3108L138.965 52.7151C141.243 53.1194 143.434 51.6032 143.826 49.3288L145.244 41.3432C145.649 39.0688 144.117 36.9081 141.838 36.5038L98.9857 28.9351Z" fill="#FDEED7"/>
<path d="M135.079 61.143C134.876 61.1051 134.712 60.9788 134.623 60.7892L130.622 51.8686L95.9985 45.753C94.7452 45.5256 93.6311 44.818 92.8968 43.7819C92.1626 42.7458 91.8714 41.457 92.0993 40.206L93.5172 32.2204C93.9729 29.6175 96.4795 27.8865 99.1 28.3413L141.953 35.91C144.561 36.3775 146.308 38.8667 145.852 41.4696L144.434 49.4552C143.978 52.0581 141.472 53.7892 138.851 53.3343L137.142 53.0311L135.788 60.6629C135.724 60.9914 135.408 61.2188 135.079 61.1557V61.143ZM141.738 37.1104L98.8848 29.5291C96.9353 29.1879 95.0743 30.4767 94.7325 32.4226L93.3146 40.4082C93.15 41.3432 93.3526 42.2909 93.9096 43.0743C94.4666 43.8577 95.2895 44.401 96.2263 44.54L131.167 50.7188C131.369 50.7567 131.534 50.883 131.623 51.0725L134.939 58.4643L136.053 52.1971C136.117 51.8686 136.433 51.6411 136.762 51.7043L139.079 52.1087C141.029 52.4498 142.89 51.161 143.231 49.2151L144.649 41.2295C144.991 39.2963 143.7 37.4389 141.75 37.0977L141.738 37.1104Z" fill="#472C27"/>
<path d="M127.977 42.5436C128.129 41.6591 127.547 40.8251 126.661 40.6609C125.774 40.4966 124.926 41.0905 124.774 41.9623C124.622 42.8342 125.205 43.6808 126.091 43.845C126.977 44.0093 127.825 43.4154 127.977 42.5436ZM120.559 41.2295C120.71 40.345 120.128 39.5111 119.242 39.3468C118.356 39.1825 117.508 39.7764 117.356 40.6482C117.204 41.5327 117.786 42.3667 118.672 42.5309C119.558 42.6952 120.407 42.1013 120.559 41.2295ZM113.14 39.9154C113.292 39.0309 112.71 38.197 111.823 38.0327C110.937 37.8684 110.089 38.4623 109.937 39.3342C109.785 40.206 110.368 41.0526 111.254 41.2168C112.14 41.3811 112.988 40.7872 113.14 39.9154Z" fill="#472C27"/>
</g>
<mask id="mask4_543_7169" style="mask-type:luminance" maskUnits="userSpaceOnUse" x="32" y="40" width="38" height="29">
<path d="M37.282 40.0679L32.9688 63.0051L64.7963 68.9673L69.1095 46.0301L37.282 40.0679Z" fill="white"/>
</mask>
<g mask="url(#mask4_543_7169)">
<path d="M35.625 62.8738C34.5869 62.6843 33.9033 61.6861 34.0932 60.65L37.4227 42.7329C37.6126 41.6968 38.6127 41.0145 39.6507 41.2166L66.4511 46.1698C67.4892 46.3593 68.1728 47.3575 67.9829 48.3936L64.6535 66.3107C64.4636 67.3468 63.4635 68.0291 62.4254 67.8269L35.625 62.8738Z" fill="#FDEED7"/>
<path d="M33.8776 62.4317C33.4978 61.8757 33.3459 61.2061 33.4725 60.5364L36.802 42.6193C36.9286 41.9622 37.3083 41.381 37.8654 41.0019C38.4224 40.6229 39.106 40.4839 39.7643 40.5976L66.5647 45.5507C67.9446 45.8161 68.8434 47.1301 68.5902 48.4948L65.2607 66.4245C65.0075 67.7891 63.6783 68.6989 62.2984 68.4462L35.498 63.4931C34.8397 63.3667 34.2574 62.9877 33.8776 62.4443V62.4317ZM66.3241 46.7764L39.5238 41.8232C39.182 41.7601 38.8402 41.8232 38.5616 42.0254C38.2831 42.2149 38.0806 42.5182 38.0299 42.8467L34.7005 60.7764C34.6372 61.1176 34.7005 61.4588 34.903 61.7367C35.0929 62.0147 35.3967 62.2043 35.7259 62.2674L62.5263 67.2332C62.8681 67.2964 63.2099 67.2332 63.4884 67.031C63.7669 66.8415 63.9568 66.5509 64.0201 66.2097L67.3496 48.28C67.4762 47.585 67.0204 46.9153 66.3241 46.789V46.7764Z" fill="#472C27"/>
<path d="M50.8673 55.3685C50.1963 55.2421 49.5886 54.9009 49.1329 54.4082L38.0684 42.5687C37.8405 42.316 37.8532 41.9369 38.1064 41.7095C38.3596 41.4694 38.752 41.4821 38.9926 41.7221L50.057 53.5616C50.6267 54.1807 51.5509 54.3576 52.3105 53.9786L66.8817 46.8774C67.1855 46.7258 67.5653 46.8521 67.7172 47.168C67.8691 47.4713 67.7425 47.8503 67.426 48.002L52.8548 55.1031C52.2472 55.4064 51.5509 55.4948 50.8799 55.3685H50.8673ZM63.1218 67.0436L54.6018 57.9082C54.3866 57.6555 54.3993 57.289 54.6272 57.0616C54.8677 56.8215 55.2728 56.8215 55.5133 57.0616L64.0332 66.1844C64.1725 66.3234 64.2231 66.5256 64.1852 66.7277C64.1219 67.0689 63.7927 67.2837 63.4509 67.2205C63.3243 67.1953 63.1977 67.1321 63.1091 67.031L63.1218 67.0436ZM34.4098 61.5977C34.2579 61.2945 34.3845 60.9154 34.7009 60.7638L45.9427 55.2926C46.2465 55.141 46.6263 55.2674 46.7782 55.5833C46.9301 55.8865 46.8035 56.2656 46.487 56.4172L35.2453 61.8884C35.1187 61.9515 34.9921 61.9642 34.8529 61.9389C34.663 61.901 34.4857 61.7746 34.4098 61.5977Z" fill="#472C27"/>
</g>
<mask id="mask5_543_7169" style="mask-type:luminance" maskUnits="userSpaceOnUse" x="76" y="81" width="31" height="24">
<path d="M80.3037 81.0667L76.7314 99.9001L102.815 104.829L106.388 85.9953L80.3037 81.0667Z" fill="white"/>
</mask>
<g mask="url(#mask5_543_7169)">
<path d="M79.3375 99.7694C78.312 99.5798 77.6411 98.5943 77.831 97.5834L80.4388 83.6844C80.6287 82.6609 81.6162 82.0039 82.6416 82.1934L103.783 86.1357C104.809 86.3252 105.48 87.3108 105.29 88.3216L102.682 102.221C102.492 103.231 101.504 103.901 100.479 103.712L79.3375 99.7694Z" fill="#FDEED7"/>
<path d="M77.2233 97.4698L79.8312 83.5708C80.0844 82.2188 81.3883 81.3343 82.7556 81.587L103.897 85.5293C104.543 85.6557 105.125 86.0221 105.492 86.5654C105.872 87.1087 106.011 87.7784 105.885 88.4228L103.277 102.322C103.163 102.966 102.783 103.547 102.226 103.914C101.682 104.293 100.998 104.432 100.352 104.306L79.2109 100.363C77.8563 100.111 76.9575 98.8092 77.2107 97.4572L77.2233 97.4698ZM103.657 86.7297L82.515 82.7874C81.8188 82.661 81.1605 83.1033 81.0339 83.7982L78.426 97.6973C78.2994 98.3796 78.7551 99.0366 79.4388 99.1756L100.58 103.118C100.909 103.181 101.251 103.118 101.53 102.916C101.808 102.726 101.998 102.436 102.061 102.107L104.669 88.208C104.796 87.5257 104.34 86.8687 103.657 86.7297Z" fill="#472C27"/>
<path d="M79.8188 86.9191C79.4896 86.8559 79.2617 86.54 79.325 86.1989C79.3883 85.8704 79.7048 85.6429 80.0466 85.7061L93.8329 88.2837C94.352 88.3848 94.8837 88.1447 95.1622 87.6899L96.3016 85.7819C96.8459 84.8721 97.8967 84.4046 98.9348 84.5942C99.2639 84.6573 99.4918 84.9732 99.4285 85.3144C99.3652 85.6429 99.0487 85.8704 98.7069 85.8072C98.1752 85.7061 97.6308 85.9462 97.3523 86.4137L96.2129 88.3216C95.6812 89.2188 94.6305 89.6863 93.6051 89.4967L79.8188 86.9191Z" fill="#472C27"/>
</g>
<mask id="mask6_543_7169" style="mask-type:luminance" maskUnits="userSpaceOnUse" x="18" y="86" width="40" height="49">
<path d="M25.9309 86.4152L18.1729 128.646L49.938 134.46L57.696 92.2283L25.9309 86.4152Z" fill="white"/>
</mask>
<g mask="url(#mask6_543_7169)">
<path d="M24.6097 97.0025L19.4193 125.634C19.1661 127.037 20.1029 128.376 21.4954 128.629L46.9159 133.216C48.3211 133.468 49.663 132.533 49.9162 131.144L56.4233 95.2335C56.6765 93.831 55.7397 92.4916 54.3471 92.2389L36.2312 88.9663L24.6097 97.0025Z" fill="#FDEED7"/>
<path d="M21.3818 129.223C20.5463 129.071 19.8121 128.604 19.331 127.909C18.8499 127.214 18.66 126.355 18.812 125.521L24.0024 96.8887C24.0277 96.7244 24.129 96.5854 24.2556 96.497L35.8771 88.4608C36.0163 88.3724 36.1809 88.3345 36.3328 88.3597L54.4487 91.6323C55.2843 91.7839 56.0185 92.2641 56.4996 92.9464C56.9807 93.6414 57.1705 94.5006 57.0186 95.3345L50.5116 131.245C50.3597 132.078 49.8913 132.811 49.1823 133.291C48.4861 133.772 47.6252 133.961 46.7897 133.81L21.3692 129.223H21.3818ZM54.2462 92.8327L36.3835 89.6106L25.1797 97.3688L20.0399 125.748C19.9513 126.266 20.0653 126.784 20.3564 127.214C20.6603 127.643 21.1033 127.934 21.6224 128.022L47.0429 132.609C47.5619 132.698 48.0936 132.584 48.5114 132.293C48.9418 132.003 49.233 131.548 49.3216 131.03L55.8286 95.1197C55.9172 94.6017 55.8033 94.0836 55.5121 93.654C55.2083 93.2244 54.7652 92.9338 54.2462 92.8453V92.8327Z" fill="#472C27"/>
<path d="M29.2304 105.013C28.9012 104.95 28.6733 104.634 28.7366 104.306C28.7999 103.977 29.1164 103.75 29.4456 103.813L47.8146 107.136C48.1438 107.199 48.3717 107.515 48.3084 107.844C48.2451 108.172 47.9286 108.4 47.5994 108.337L29.2304 105.013ZM27.7872 109.587C27.8505 109.259 28.1669 109.031 28.4961 109.095L46.8652 112.418C47.1943 112.481 47.4222 112.797 47.3589 113.125C47.2956 113.454 46.9791 113.681 46.65 113.618L28.2809 110.295C27.9517 110.232 27.7239 109.916 27.7872 109.587ZM27.3188 115.577C26.9896 115.513 26.7617 115.198 26.825 114.869C26.8883 114.541 27.2048 114.313 27.534 114.376L45.903 117.699C46.2322 117.763 46.4601 118.078 46.3968 118.407C46.3335 118.736 46.017 118.963 45.6878 118.9L27.3188 115.577ZM31.8636 121.844C31.5344 121.781 31.3065 121.465 31.3698 121.136C31.4331 120.808 31.7496 120.58 32.0788 120.643L44.9409 122.968C45.2701 123.032 45.4979 123.347 45.4346 123.676C45.3713 124.005 45.0549 124.232 44.7257 124.169L31.8636 121.844Z" fill="#472C27"/>
<path d="M24.5977 97.0151L31.9276 98.3418C33.3328 98.5945 34.6747 97.6721 34.9279 96.2696L36.2571 88.9663L24.6103 97.0277L24.5977 97.0151Z" fill="#FDEED7"/>
<path d="M24.0913 97.3564C23.9014 97.0784 23.9647 96.6993 24.2432 96.5098L35.8901 88.4484C36.0293 88.3599 36.1939 88.322 36.3458 88.3473C36.675 88.4105 36.9028 88.7264 36.8395 89.0549L35.5103 96.3582C35.3584 97.1921 34.89 97.925 34.181 98.4051C33.4721 98.8853 32.6239 99.0748 31.7884 98.9232L24.4585 97.5964C24.2939 97.5712 24.1546 97.4701 24.066 97.3437L24.0913 97.3564ZM26.1675 96.6741L32.0416 97.7354C32.5606 97.8239 33.0796 97.7102 33.5101 97.4196C33.9405 97.1289 34.2317 96.6741 34.3203 96.156L35.3837 90.3058L26.1675 96.6867V96.6741Z" fill="#472C27"/>
</g>
<mask id="mask7_543_7169" style="mask-type:luminance" maskUnits="userSpaceOnUse" x="58" y="-1" width="27" height="22">
<path d="M61.3407 -0.00430573L58.5508 16.3379L81.4885 20.2389L84.2785 3.8967L61.3407 -0.00430573Z" fill="white"/>
</mask>
<g mask="url(#mask7_543_7169)">
<path d="M58.6519 15.7564C58.7025 15.4279 59.019 15.2131 59.3355 15.2763L80.515 18.8016L82.933 4.29604C82.9836 3.96752 83.3001 3.75271 83.6166 3.80326C83.9458 3.8538 84.161 4.16968 84.1103 4.48557L81.5911 19.585C81.5404 19.9135 81.2239 20.1283 80.9074 20.0777L59.1329 16.464C58.8038 16.4135 58.5886 16.0976 58.6392 15.7817L58.6519 15.7564Z" fill="#472C27"/>
<path d="M72.4385 17.9171L77.2744 18.7257L78.8063 9.51448L73.9703 8.70581L72.4385 17.9171Z" fill="#FDEED7"/>
<path d="M72.337 18.4982C72.0079 18.4477 71.7927 18.1318 71.8433 17.8159L73.3751 8.60463C73.4258 8.27611 73.7422 8.06131 74.0587 8.11185L78.8947 8.92052C79.2239 8.97106 79.4391 9.28695 79.3884 9.60283L77.8566 18.8141C77.806 19.1426 77.4895 19.3574 77.173 19.3069L72.337 18.4982ZM78.1225 10.0072L74.4638 9.40067L73.1219 17.4368L76.7806 18.0433L78.1225 10.0072Z" fill="#472C27"/>
<path d="M67.4121 17.0832L72.2481 17.8919L74.2863 5.66072L69.4503 4.85205L67.4121 17.0832Z" fill="#FDEED7"/>
<path d="M67.3107 17.6643C66.9815 17.6138 66.7663 17.2979 66.8169 16.982L68.8551 4.75087C68.9058 4.42235 69.2223 4.20755 69.5388 4.25809L74.3747 5.06676C74.7039 5.1173 74.9191 5.43319 74.8684 5.74908L72.8303 17.9802C72.7796 18.3087 72.4631 18.5235 72.1466 18.473L67.3107 17.6643ZM73.6025 6.14077L69.9439 5.53427L68.0956 16.6029L71.7542 17.2094L73.6025 6.14077Z" fill="#472C27"/>
<path d="M62.5635 16.2744L67.3994 17.0831L68.4249 10.9044L63.5889 10.0957L62.5635 16.2744Z" fill="#FDEED7"/>
<path d="M62.4747 16.8683C62.1456 16.8177 61.9304 16.5019 61.981 16.186L63.0064 10.0072C63.0571 9.6787 63.3736 9.4639 63.6901 9.51444L68.526 10.3231C68.8552 10.3736 69.0704 10.6895 69.0197 11.0054L67.9943 17.1842C67.9437 17.5127 67.6272 17.7275 67.3107 17.6769L62.4747 16.8683ZM67.7538 11.3845L64.0952 10.778L63.2596 15.7816L66.9183 16.3881L67.7538 11.3845Z" fill="#472C27"/>
</g>
</g>
<defs>
<clipPath id="clip0_543_7169">
<rect width="350" height="253" fill="white"/>
</clipPath>
</defs>
</svg>
