<svg width="22" height="22" viewBox="0 0 22 22" fill="none" xmlns="http://www.w3.org/2000/svg">
<path d="M6.41667 10.0834H8.25V11.9167H6.41667V10.0834ZM19.25 5.50004V18.3334C19.25 19.3417 18.425 20.1667 17.4167 20.1667H4.58333C3.56583 20.1667 2.75 19.3417 2.75 18.3334L2.75917 5.50004C2.75917 4.49171 3.56583 3.66671 4.58333 3.66671H5.5V1.83337H7.33333V3.66671H14.6667V1.83337H16.5V3.66671H17.4167C18.425 3.66671 19.25 4.49171 19.25 5.50004ZM4.58333 7.33337H17.4167V5.50004H4.58333V7.33337ZM17.4167 18.3334V9.16671H4.58333V18.3334H17.4167ZM13.75 11.9167H15.5833V10.0834H13.75V11.9167ZM10.0833 11.9167H11.9167V10.0834H10.0833V11.9167Z" fill="#763318"/>
</svg>
