<svg width="22" height="22" viewBox="0 0 22 22" fill="none" xmlns="http://www.w3.org/2000/svg">
<path d="M6.41667 10.0833H8.25V11.9166H6.41667V10.0833ZM19.25 5.49992V18.3333C19.25 19.3416 18.425 20.1666 17.4167 20.1666H4.58333C3.56583 20.1666 2.75 19.3416 2.75 18.3333L2.75917 5.49992C2.75917 4.49159 3.56583 3.66659 4.58333 3.66659H5.5V1.83325H7.33333V3.66659H14.6667V1.83325H16.5V3.66659H17.4167C18.425 3.66659 19.25 4.49159 19.25 5.49992ZM4.58333 7.33325H17.4167V5.49992H4.58333V7.33325ZM17.4167 18.3333V9.16658H4.58333V18.3333H17.4167ZM13.75 11.9166H15.5833V10.0833H13.75V11.9166ZM10.0833 11.9166H11.9167V10.0833H10.0833V11.9166Z" fill="#763318"/>
</svg>
