<svg width="22" height="22" viewBox="0 0 22 22" fill="none" xmlns="http://www.w3.org/2000/svg">
<path d="M10.9998 5.40841C12.0632 5.40841 12.9248 6.27008 12.9248 7.33341C12.9248 8.39675 12.0632 9.25842 10.9998 9.25842C9.9365 9.25842 9.07484 8.39675 9.07484 7.33341C9.07484 6.27008 9.9365 5.40841 10.9998 5.40841ZM10.9998 13.6584C13.7223 13.6584 16.5915 14.9967 16.5915 15.5834V16.5917H5.40817V15.5834C5.40817 14.9967 8.27734 13.6584 10.9998 13.6584ZM10.9998 3.66675C8.974 3.66675 7.33317 5.30758 7.33317 7.33341C7.33317 9.35925 8.974 11.0001 10.9998 11.0001C13.0257 11.0001 14.6665 9.35925 14.6665 7.33341C14.6665 5.30758 13.0257 3.66675 10.9998 3.66675ZM10.9998 11.9167C8.55234 11.9167 3.6665 13.1451 3.6665 15.5834V18.3334H18.3332V15.5834C18.3332 13.1451 13.4473 11.9167 10.9998 11.9167Z" fill="#763318"/>
</svg>
