<svg width="22" height="22" viewBox="0 0 22 22" fill="none" xmlns="http://www.w3.org/2000/svg">
<path d="M11.0001 5.40829C12.0634 5.40829 12.9251 6.26996 12.9251 7.33329C12.9251 8.39663 12.0634 9.25829 11.0001 9.25829C9.93675 9.25829 9.07508 8.39663 9.07508 7.33329C9.07508 6.26996 9.93675 5.40829 11.0001 5.40829ZM11.0001 13.6583C13.7226 13.6583 16.5917 14.9966 16.5917 15.5833V16.5916H5.40841V15.5833C5.40841 14.9966 8.27758 13.6583 11.0001 13.6583ZM11.0001 3.66663C8.97425 3.66663 7.33341 5.30746 7.33341 7.33329C7.33341 9.35913 8.97425 11 11.0001 11C13.0259 11 14.6667 9.35913 14.6667 7.33329C14.6667 5.30746 13.0259 3.66663 11.0001 3.66663ZM11.0001 11.9166C8.55258 11.9166 3.66675 13.145 3.66675 15.5833V18.3333H18.3334V15.5833C18.3334 13.145 13.4476 11.9166 11.0001 11.9166Z" fill="#763318"/>
</svg>
