<svg width="21" height="20" viewBox="0 0 21 20" fill="none" xmlns="http://www.w3.org/2000/svg">
<g clip-path="url(#clip0_1048_6899)">
<path d="M19.674 9.71058C19.674 8.93171 19.6121 8.36334 19.4782 7.77393H10.7725V11.2894H15.8825C15.7796 12.163 15.2232 13.4787 13.9869 14.3628L13.9695 14.4805L16.7221 16.659L16.9128 16.6784C18.6643 15.0259 19.674 12.5945 19.674 9.71058Z" fill="#4285F4"/>
<path d="M10.7726 18.9729C13.2761 18.9729 15.3779 18.1308 16.913 16.6783L13.987 14.3627C13.2041 14.9205 12.1532 15.31 10.7726 15.31C8.32061 15.31 6.23948 13.6575 5.49762 11.3735L5.38888 11.383L2.52669 13.6459L2.48926 13.7522C4.01404 16.8467 7.14606 18.9729 10.7726 18.9729Z" fill="#34A853"/>
<path d="M5.4974 11.3736C5.30165 10.7842 5.18836 10.1526 5.18836 9.50004C5.18836 8.84742 5.30165 8.21592 5.4871 7.62651L5.48191 7.50098L2.58385 5.20166L2.48903 5.24774C1.8606 6.53185 1.5 7.97386 1.5 9.50004C1.5 11.0262 1.8606 12.4682 2.48903 13.7523L5.4974 11.3736Z" fill="#FBBC05"/>
<path d="M10.7726 3.68991C12.5138 3.68991 13.6882 4.45826 14.3579 5.10036L16.9748 2.49004C15.3676 0.963864 13.2761 0.0270996 10.7726 0.0270996C7.14606 0.0270996 4.01404 2.15321 2.48926 5.24766L5.48732 7.62643C6.23949 5.34242 8.32061 3.68991 10.7726 3.68991Z" fill="#EB4335"/>
</g>
<defs>
<clipPath id="clip0_1048_6899">
<rect x="1.5" width="18.1739" height="19" rx="9.08696" fill="white"/>
</clipPath>
</defs>
</svg>
