<svg width="38" height="38" viewBox="0 0 38 38" fill="none" xmlns="http://www.w3.org/2000/svg">
<path d="M7.9169 15.6125C10.9512 22.2212 16.3504 27.4754 23.063 30.3239L24.139 30.8033C26.6008 31.9001 29.4947 31.0668 30.9963 28.8288L32.4024 26.7329C32.8596 26.0515 32.7204 25.1337 32.0817 24.6185L27.313 20.7713C26.6125 20.2062 25.5826 20.3378 25.0467 21.0609L23.5715 23.0516C19.786 21.1843 16.7127 18.1109 14.8454 14.3255L16.8361 12.8502C17.5591 12.3144 17.6907 11.2844 17.1256 10.584L13.2784 5.81508C12.7632 5.17656 11.8457 5.03727 11.1643 5.49417L9.05393 6.9092C6.80189 8.41924 5.9732 11.3371 7.09536 13.8054L7.91566 15.6098L7.9169 15.6125Z" fill="#FEF8EE"/>
</svg>
