<svg width="48" height="48" viewBox="0 0 48 48" fill="none" xmlns="http://www.w3.org/2000/svg">
<path d="M10.1114 19.755C13.9138 28.0365 20.6796 34.6208 29.0914 38.1903L30.4398 38.7911C33.5248 40.1655 37.1513 39.1213 39.0329 36.3167L40.795 33.6903C41.3679 32.8364 41.1934 31.6863 40.3931 31.0407L34.4172 26.2196C33.5395 25.5115 32.2488 25.6765 31.5773 26.5825L29.7286 29.0771C24.985 26.7371 21.1337 22.8858 18.7937 18.1422L21.2883 16.2935C22.1943 15.622 22.3593 14.3313 21.6512 13.4536L16.83 7.47752C16.1845 6.67736 15.0347 6.50282 14.1808 7.07538L11.5362 8.84859C8.71412 10.7409 7.67566 14.3973 9.08188 17.4905L10.1098 19.7516L10.1114 19.755Z" fill="#FEF8EE"/>
</svg>
