<svg width="48" height="48" viewBox="0 0 48 48" fill="none" xmlns="http://www.w3.org/2000/svg">
<path d="M10.1115 19.7549C13.9139 28.0364 20.6798 34.6207 29.0916 38.1902L30.44 38.791C33.5249 40.1655 37.1514 39.1212 39.033 36.3167L40.7951 33.6902C41.368 32.8363 41.1936 31.6862 40.3932 31.0406L34.4174 26.2196C33.5396 25.5114 32.2489 25.6764 31.5774 26.5824L29.7288 29.077C24.9851 26.737 21.1338 22.8857 18.7938 18.1421L21.2884 16.2934C22.1945 15.6219 22.3594 14.3313 21.6513 13.4535L16.8301 7.47743C16.1846 6.67727 15.0348 6.50273 14.1809 7.07529L11.5363 8.84849C8.71424 10.7408 7.67578 14.3972 9.082 17.4904L10.11 19.7515L10.1115 19.7549Z" fill="#FEF8EE"/>
</svg>
