<svg width="38" height="38" viewBox="0 0 38 38" fill="none" xmlns="http://www.w3.org/2000/svg">
<path d="M7.91702 15.6125C10.9513 22.2212 16.3505 27.4754 23.0631 30.3239L24.1391 30.8033C26.6009 31.9001 29.4949 31.0668 30.9964 28.8288L32.4025 26.7329C32.8597 26.0515 32.7205 25.1337 32.0818 24.6185L27.3131 20.7713C26.6127 20.2062 25.5827 20.3378 25.0468 21.0609L23.5716 23.0516C19.7862 21.1843 16.7128 18.1109 14.8455 14.3255L16.8362 12.8502C17.5592 12.3144 17.6908 11.2844 17.1258 10.584L13.2785 5.81508C12.7633 5.17656 11.8458 5.03727 11.1644 5.49417L9.05405 6.9092C6.80201 8.41924 5.97332 11.3371 7.09548 13.8054L7.91579 15.6098L7.91702 15.6125Z" fill="#FEF8EE"/>
</svg>
