<svg width="48" height="48" viewBox="0 0 48 48" fill="none" xmlns="http://www.w3.org/2000/svg">
<path d="M10.1119 19.7549C13.9142 28.0364 20.6801 34.6207 29.0919 38.1902L30.4403 38.791C33.5253 40.1655 37.1518 39.1212 39.0334 36.3167L40.7955 33.6902C41.3684 32.8363 41.1939 31.6862 40.3936 31.0406L34.4177 26.2196C33.54 25.5114 32.2493 25.6764 31.5778 26.5824L29.7291 29.077C24.9855 26.737 21.1342 22.8857 18.7942 18.1421L21.2888 16.2934C22.1948 15.6219 22.3598 14.3313 21.6516 13.4535L16.8305 7.47743C16.185 6.67727 15.0351 6.50273 14.1812 7.07529L11.5367 8.84849C8.7146 10.7408 7.67615 14.3972 9.08236 17.4904L10.1103 19.7515L10.1119 19.7549Z" fill="#FEF8EE"/>
</svg>
