<svg width="48" height="48" viewBox="0 0 48 48" fill="none" xmlns="http://www.w3.org/2000/svg">
<path d="M10.1114 19.7549C13.9138 28.0364 20.6796 34.6207 29.0914 38.1902L30.4398 38.791C33.5248 40.1655 37.1513 39.1212 39.0329 36.3167L40.795 33.6902C41.3679 32.8363 41.1934 31.6862 40.3931 31.0406L34.4172 26.2196C33.5395 25.5114 32.2488 25.6764 31.5773 26.5824L29.7286 29.077C24.985 26.737 21.1337 22.8857 18.7937 18.1421L21.2883 16.2934C22.1943 15.6219 22.3593 14.3313 21.6512 13.4535L16.83 7.47743C16.1845 6.67727 15.0347 6.50273 14.1808 7.07529L11.5362 8.84849C8.71412 10.7408 7.67566 14.3972 9.08188 17.4904L10.1098 19.7515L10.1114 19.7549Z" fill="#FEF8EE"/>
</svg>
