<svg width="268" height="30" viewBox="0 0 268 30" fill="none" xmlns="http://www.w3.org/2000/svg">
<g clip-path="url(#clip0_996_9421)">
<mask id="path-1-inside-1_996_9421" fill="white">
<path d="M0 4C0 1.79086 1.79086 0 4 0H110C112.209 0 114 1.79086 114 4V30H0V4Z"/>
</mask>
<path d="M0 0H114H0ZM114 31H0V29H114V31ZM0 30V0V30ZM114 0V30V0Z" fill="#DD6219" mask="url(#path-1-inside-1_996_9421)"/>
<path d="M14.8182 9.36364V21H13.4091V9.36364H14.8182ZM18.8026 15.75V21H17.4616V12.2727H18.7571V13.6364H18.8707C19.0753 13.1932 19.3859 12.8371 19.8026 12.5682C20.2192 12.2955 20.7571 12.1591 21.4162 12.1591C22.0071 12.1591 22.5241 12.2803 22.9673 12.5227C23.4105 12.7614 23.7552 13.125 24.0014 13.6136C24.2476 14.0985 24.3707 14.7121 24.3707 15.4545V21H23.0298V15.5455C23.0298 14.8598 22.8518 14.3258 22.4957 13.9432C22.1397 13.5568 21.651 13.3636 21.0298 13.3636C20.6018 13.3636 20.2192 13.4564 19.8821 13.642C19.5488 13.8277 19.2855 14.0985 19.0923 14.4545C18.8991 14.8106 18.8026 15.2424 18.8026 15.75ZM30.7074 12.2727V13.4091H26.0028V12.2727H30.7074ZM27.4119 21V11.0682C27.4119 10.5682 27.5294 10.1515 27.7642 9.81818C27.9991 9.48485 28.304 9.23485 28.679 9.06818C29.054 8.90151 29.4498 8.81818 29.8665 8.81818C30.196 8.81818 30.465 8.8447 30.6733 8.89773C30.8816 8.95076 31.0369 9 31.1392 9.04545L30.7528 10.2045C30.6847 10.1818 30.59 10.1534 30.4688 10.1193C30.3513 10.0852 30.196 10.0682 30.0028 10.0682C29.5597 10.0682 29.2396 10.1799 29.0426 10.4034C28.8494 10.6269 28.7528 10.9545 28.7528 11.3864V21H27.4119ZM35.7727 21.1818C34.9848 21.1818 34.2936 20.9943 33.6989 20.6193C33.108 20.2443 32.6458 19.7197 32.3125 19.0455C31.983 18.3712 31.8182 17.5833 31.8182 16.6818C31.8182 15.7727 31.983 14.9792 32.3125 14.3011C32.6458 13.6231 33.108 13.0966 33.6989 12.7216C34.2936 12.3466 34.9848 12.1591 35.7727 12.1591C36.5606 12.1591 37.25 12.3466 37.8409 12.7216C38.4356 13.0966 38.8977 13.6231 39.2273 14.3011C39.5606 14.9792 39.7273 15.7727 39.7273 16.6818C39.7273 17.5833 39.5606 18.3712 39.2273 19.0455C38.8977 19.7197 38.4356 20.2443 37.8409 20.6193C37.25 20.9943 36.5606 21.1818 35.7727 21.1818ZM35.7727 19.9773C36.3712 19.9773 36.8636 19.8239 37.25 19.517C37.6364 19.2102 37.9223 18.8068 38.108 18.3068C38.2936 17.8068 38.3864 17.2652 38.3864 16.6818C38.3864 16.0985 38.2936 15.5549 38.108 15.0511C37.9223 14.5473 37.6364 14.1402 37.25 13.8295C36.8636 13.5189 36.3712 13.3636 35.7727 13.3636C35.1742 13.3636 34.6818 13.5189 34.2955 13.8295C33.9091 14.1402 33.6231 14.5473 33.4375 15.0511C33.2519 15.5549 33.1591 16.0985 33.1591 16.6818C33.1591 17.2652 33.2519 17.8068 33.4375 18.3068C33.6231 18.8068 33.9091 19.2102 34.2955 19.517C34.6818 19.8239 35.1742 19.9773 35.7727 19.9773ZM41.7741 21V12.2727H43.0696V13.5909H43.1605C43.3196 13.1591 43.6075 12.8087 44.0241 12.5398C44.4408 12.2708 44.9105 12.1364 45.4332 12.1364C45.5317 12.1364 45.6548 12.1383 45.8026 12.142C45.9503 12.1458 46.062 12.1515 46.1378 12.1591V13.5227C46.0923 13.5114 45.9882 13.4943 45.8253 13.4716C45.6662 13.4451 45.4976 13.4318 45.3196 13.4318C44.8954 13.4318 44.5166 13.5208 44.1832 13.6989C43.8537 13.8731 43.5923 14.1155 43.3991 14.4261C43.2098 14.733 43.1151 15.0833 43.1151 15.4773V21H41.7741ZM47.7273 21V12.2727H49.0227V13.6364H49.1364C49.3182 13.1705 49.6117 12.8087 50.017 12.5511C50.4223 12.2898 50.9091 12.1591 51.4773 12.1591C52.053 12.1591 52.5322 12.2898 52.9148 12.5511C53.3011 12.8087 53.6023 13.1705 53.8182 13.6364H53.9091C54.1326 13.1856 54.4678 12.8277 54.9148 12.5625C55.3617 12.2936 55.8977 12.1591 56.5227 12.1591C57.303 12.1591 57.9413 12.4034 58.4375 12.892C58.9337 13.3769 59.1818 14.1326 59.1818 15.1591V21H57.8409V15.1591C57.8409 14.5152 57.6648 14.0549 57.3125 13.7784C56.9602 13.5019 56.5455 13.3636 56.0682 13.3636C55.4545 13.3636 54.9792 13.5492 54.642 13.9205C54.3049 14.2879 54.1364 14.7538 54.1364 15.3182V21H52.7727V15.0227C52.7727 14.5265 52.6117 14.1269 52.2898 13.8239C51.9678 13.517 51.553 13.3636 51.0455 13.3636C50.697 13.3636 50.3712 13.4564 50.0682 13.642C49.7689 13.8277 49.5265 14.0852 49.3409 14.4148C49.1591 14.7405 49.0682 15.1174 49.0682 15.5455V21H47.7273ZM64.2017 21.2045C63.6487 21.2045 63.1468 21.1004 62.696 20.892C62.2453 20.6799 61.8873 20.375 61.6222 19.9773C61.357 19.5758 61.2244 19.0909 61.2244 18.5227C61.2244 18.0227 61.3229 17.6174 61.5199 17.3068C61.7169 16.9924 61.9801 16.7462 62.3097 16.5682C62.6392 16.3902 63.0028 16.2576 63.4006 16.1705C63.8021 16.0795 64.2055 16.0076 64.6108 15.9545C65.1411 15.8864 65.571 15.8352 65.9006 15.8011C66.2339 15.7633 66.4763 15.7008 66.6278 15.6136C66.7831 15.5265 66.8608 15.375 66.8608 15.1591V15.1136C66.8608 14.553 66.7074 14.1174 66.4006 13.8068C66.0975 13.4962 65.6373 13.3409 65.0199 13.3409C64.3797 13.3409 63.8778 13.4811 63.5142 13.7614C63.1506 14.0417 62.8949 14.3409 62.7472 14.6591L61.4744 14.2045C61.7017 13.6742 62.0047 13.2614 62.3835 12.9659C62.7661 12.6667 63.1828 12.4583 63.6335 12.3409C64.0881 12.2197 64.535 12.1591 64.9744 12.1591C65.2547 12.1591 65.5767 12.1932 65.9403 12.2614C66.3078 12.3258 66.6619 12.4602 67.0028 12.6648C67.3475 12.8693 67.6335 13.178 67.8608 13.5909C68.0881 14.0038 68.2017 14.5568 68.2017 15.25V21H66.8608V19.8182H66.7926C66.7017 20.0076 66.5502 20.2102 66.3381 20.4261C66.1259 20.642 65.8438 20.8258 65.4915 20.9773C65.1392 21.1288 64.7093 21.2045 64.2017 21.2045ZM64.4062 20C64.9366 20 65.3835 19.8958 65.7472 19.6875C66.1146 19.4792 66.3911 19.2102 66.5767 18.8807C66.7661 18.5511 66.8608 18.2045 66.8608 17.8409V16.6136C66.804 16.6818 66.679 16.7443 66.4858 16.8011C66.2964 16.8542 66.0767 16.9015 65.8267 16.9432C65.5805 16.9811 65.34 17.0152 65.1051 17.0455C64.8741 17.072 64.6866 17.0947 64.5426 17.1136C64.1941 17.1591 63.8684 17.233 63.5653 17.3352C63.2661 17.4337 63.0237 17.5833 62.8381 17.7841C62.6563 17.9811 62.5653 18.25 62.5653 18.5909C62.5653 19.0568 62.7377 19.4091 63.0824 19.6477C63.4309 19.8826 63.8722 20 64.4062 20ZM74.1946 21.1818C73.3764 21.1818 72.6719 20.9886 72.081 20.6023C71.4901 20.2159 71.0355 19.6837 70.7173 19.0057C70.3991 18.3277 70.2401 17.553 70.2401 16.6818C70.2401 15.7955 70.4029 15.0133 70.7287 14.3352C71.0582 13.6534 71.5166 13.1212 72.1037 12.7386C72.6946 12.3523 73.384 12.1591 74.1719 12.1591C74.7855 12.1591 75.3385 12.2727 75.831 12.5C76.3234 12.7273 76.7268 13.0455 77.0412 13.4545C77.3556 13.8636 77.5507 14.3409 77.6264 14.8864H76.2855C76.1832 14.4886 75.956 14.1364 75.6037 13.8295C75.2552 13.5189 74.7855 13.3636 74.1946 13.3636C73.6719 13.3636 73.2135 13.5 72.8196 13.7727C72.4295 14.0417 72.1245 14.4223 71.9048 14.9148C71.6889 15.4034 71.581 15.9773 71.581 16.6364C71.581 17.3106 71.687 17.8977 71.8991 18.3977C72.1151 18.8977 72.4181 19.286 72.8082 19.5625C73.2022 19.839 73.6643 19.9773 74.1946 19.9773C74.5431 19.9773 74.8594 19.9167 75.1435 19.7955C75.4276 19.6742 75.6681 19.5 75.8651 19.2727C76.062 19.0455 76.2022 18.7727 76.2855 18.4545H77.6264C77.5507 18.9697 77.3632 19.4337 77.0639 19.8466C76.7685 20.2557 76.3764 20.5814 75.8878 20.8239C75.4029 21.0625 74.8385 21.1818 74.1946 21.1818ZM79.5866 21V12.2727H80.9276V21H79.5866ZM80.2685 10.8182C80.0071 10.8182 79.7817 10.7292 79.5923 10.5511C79.4067 10.3731 79.3139 10.1591 79.3139 9.90909C79.3139 9.65909 79.4067 9.44508 79.5923 9.26705C79.7817 9.08902 80.0071 9 80.2685 9C80.5298 9 80.7533 9.08902 80.9389 9.26705C81.1283 9.44508 81.223 9.65909 81.223 9.90909C81.223 10.1591 81.1283 10.3731 80.9389 10.5511C80.7533 10.7292 80.5298 10.8182 80.2685 10.8182ZM86.929 21.1818C86.1411 21.1818 85.4498 20.9943 84.8551 20.6193C84.2642 20.2443 83.8021 19.7197 83.4688 19.0455C83.1392 18.3712 82.9744 17.5833 82.9744 16.6818C82.9744 15.7727 83.1392 14.9792 83.4688 14.3011C83.8021 13.6231 84.2642 13.0966 84.8551 12.7216C85.4498 12.3466 86.1411 12.1591 86.929 12.1591C87.7169 12.1591 88.4063 12.3466 88.9972 12.7216C89.5919 13.0966 90.054 13.6231 90.3835 14.3011C90.7169 14.9792 90.8835 15.7727 90.8835 16.6818C90.8835 17.5833 90.7169 18.3712 90.3835 19.0455C90.054 19.7197 89.5919 20.2443 88.9972 20.6193C88.4063 20.9943 87.7169 21.1818 86.929 21.1818ZM86.929 19.9773C87.5275 19.9773 88.0199 19.8239 88.4062 19.517C88.7926 19.2102 89.0786 18.8068 89.2642 18.3068C89.4498 17.8068 89.5426 17.2652 89.5426 16.6818C89.5426 16.0985 89.4498 15.5549 89.2642 15.0511C89.0786 14.5473 88.7926 14.1402 88.4062 13.8295C88.0199 13.5189 87.5275 13.3636 86.929 13.3636C86.3305 13.3636 85.8381 13.5189 85.4517 13.8295C85.0653 14.1402 84.7794 14.5473 84.5938 15.0511C84.4081 15.5549 84.3153 16.0985 84.3153 16.6818C84.3153 17.2652 84.4081 17.8068 84.5938 18.3068C84.7794 18.8068 85.0653 19.2102 85.4517 19.517C85.8381 19.8239 86.3305 19.9773 86.929 19.9773ZM86.3153 11.0909L87.7017 8.45455H89.2699L87.4972 11.0909H86.3153ZM94.2713 15.75V21H92.9304V12.2727H94.2259V13.6364H94.3395C94.544 13.1932 94.8546 12.8371 95.2713 12.5682C95.688 12.2955 96.2259 12.1591 96.8849 12.1591C97.4759 12.1591 97.9929 12.2803 98.4361 12.5227C98.8793 12.7614 99.224 13.125 99.4702 13.6136C99.7164 14.0985 99.8395 14.7121 99.8395 15.4545V21H98.4986V15.5455C98.4986 14.8598 98.3205 14.3258 97.9645 13.9432C97.6084 13.5568 97.1198 13.3636 96.4986 13.3636C96.0705 13.3636 95.688 13.4564 95.3509 13.642C95.0175 13.8277 94.7543 14.0985 94.5611 14.4545C94.3679 14.8106 94.2713 15.2424 94.2713 15.75Z" fill="#DD6219"/>
<mask id="path-4-inside-2_996_9421" fill="white">
<path d="M114 4C114 1.79086 115.791 0 118 0H204C206.209 0 208 1.79086 208 4V30H114V4Z"/>
</mask>
<path d="M114 0H208H114ZM208 31H114V29H208V31ZM114 30V0V30ZM208 0V30V0Z" fill="#F9D9AF" mask="url(#path-4-inside-2_996_9421)"/>
<path d="M127.409 21V9.36364H131.341C132.254 9.36364 133 9.52841 133.58 9.85795C134.163 10.1837 134.595 10.625 134.875 11.1818C135.155 11.7386 135.295 12.3598 135.295 13.0455C135.295 13.7311 135.155 14.3542 134.875 14.9148C134.598 15.4754 134.17 15.9223 133.591 16.2557C133.011 16.5852 132.269 16.75 131.364 16.75H128.545V15.5H131.318C131.943 15.5 132.445 15.392 132.824 15.1761C133.203 14.9602 133.477 14.6686 133.648 14.3011C133.822 13.9299 133.909 13.5114 133.909 13.0455C133.909 12.5795 133.822 12.1629 133.648 11.7955C133.477 11.428 133.201 11.1402 132.818 10.9318C132.436 10.7197 131.928 10.6136 131.295 10.6136H128.818V21H127.409ZM140.835 21.1818C140.047 21.1818 139.356 20.9943 138.761 20.6193C138.17 20.2443 137.708 19.7197 137.375 19.0455C137.045 18.3712 136.881 17.5833 136.881 16.6818C136.881 15.7727 137.045 14.9792 137.375 14.3011C137.708 13.6231 138.17 13.0966 138.761 12.7216C139.356 12.3466 140.047 12.1591 140.835 12.1591C141.623 12.1591 142.313 12.3466 142.903 12.7216C143.498 13.0966 143.96 13.6231 144.29 14.3011C144.623 14.9792 144.79 15.7727 144.79 16.6818C144.79 17.5833 144.623 18.3712 144.29 19.0455C143.96 19.7197 143.498 20.2443 142.903 20.6193C142.313 20.9943 141.623 21.1818 140.835 21.1818ZM140.835 19.9773C141.434 19.9773 141.926 19.8239 142.312 19.517C142.699 19.2102 142.985 18.8068 143.17 18.3068C143.356 17.8068 143.449 17.2652 143.449 16.6818C143.449 16.0985 143.356 15.5549 143.17 15.0511C142.985 14.5473 142.699 14.1402 142.312 13.8295C141.926 13.5189 141.434 13.3636 140.835 13.3636C140.237 13.3636 139.744 13.5189 139.358 13.8295C138.972 14.1402 138.686 14.5473 138.5 15.0511C138.314 15.5549 138.222 16.0985 138.222 16.6818C138.222 17.2652 138.314 17.8068 138.5 18.3068C138.686 18.8068 138.972 19.2102 139.358 19.517C139.744 19.8239 140.237 19.9773 140.835 19.9773ZM150.632 12.2727V13.4091H146.109V12.2727H150.632ZM147.428 10.1818H148.768V18.5C148.768 18.8788 148.823 19.1629 148.933 19.3523C149.047 19.5379 149.191 19.6629 149.365 19.7273C149.543 19.7879 149.731 19.8182 149.928 19.8182C150.075 19.8182 150.196 19.8106 150.291 19.7955C150.386 19.7765 150.462 19.7614 150.518 19.75L150.791 20.9545C150.7 20.9886 150.573 21.0227 150.411 21.0568C150.248 21.0947 150.041 21.1136 149.791 21.1136C149.412 21.1136 149.041 21.0322 148.678 20.8693C148.318 20.7064 148.018 20.4583 147.78 20.125C147.545 19.7917 147.428 19.3712 147.428 18.8636V10.1818ZM156.214 21.1818C155.374 21.1818 154.648 20.9962 154.038 20.625C153.432 20.25 152.964 19.7273 152.635 19.0568C152.309 18.3826 152.146 17.5985 152.146 16.7045C152.146 15.8106 152.309 15.0227 152.635 14.3409C152.964 13.6553 153.423 13.1212 154.01 12.7386C154.601 12.3523 155.29 12.1591 156.078 12.1591C156.533 12.1591 156.982 12.2348 157.425 12.3864C157.868 12.5379 158.271 12.7841 158.635 13.125C158.999 13.4621 159.288 13.9091 159.504 14.4659C159.72 15.0227 159.828 15.7083 159.828 16.5227V17.0909H153.101V15.9318H158.464C158.464 15.4394 158.366 15 158.169 14.6136C157.976 14.2273 157.699 13.9223 157.339 13.6989C156.983 13.4754 156.563 13.3636 156.078 13.3636C155.544 13.3636 155.082 13.4962 154.692 13.7614C154.305 14.0227 154.008 14.3636 153.8 14.7841C153.591 15.2045 153.487 15.6553 153.487 16.1364V16.9091C153.487 17.5682 153.601 18.1269 153.828 18.5852C154.059 19.0398 154.379 19.3864 154.788 19.625C155.197 19.8598 155.673 19.9773 156.214 19.9773C156.567 19.9773 156.885 19.928 157.169 19.8295C157.457 19.7273 157.705 19.5758 157.913 19.375C158.122 19.1705 158.283 18.9167 158.396 18.6136L159.692 18.9773C159.555 19.4167 159.326 19.803 159.004 20.1364C158.682 20.4659 158.285 20.7235 157.811 20.9091C157.338 21.0909 156.805 21.1818 156.214 21.1818ZM163.209 15.75V21H161.868V12.2727H163.163V13.6364H163.277C163.482 13.1932 163.792 12.8371 164.209 12.5682C164.625 12.2955 165.163 12.1591 165.822 12.1591C166.413 12.1591 166.93 12.2803 167.374 12.5227C167.817 12.7614 168.161 13.125 168.408 13.6136C168.654 14.0985 168.777 14.7121 168.777 15.4545V21H167.436V15.5455C167.436 14.8598 167.258 14.3258 166.902 13.9432C166.546 13.5568 166.057 13.3636 165.436 13.3636C165.008 13.3636 164.625 13.4564 164.288 13.642C163.955 13.8277 163.692 14.0985 163.499 14.4545C163.305 14.8106 163.209 15.2424 163.209 15.75ZM174.773 21.1818C173.955 21.1818 173.25 20.9886 172.659 20.6023C172.068 20.2159 171.614 19.6837 171.295 19.0057C170.977 18.3277 170.818 17.553 170.818 16.6818C170.818 15.7955 170.981 15.0133 171.307 14.3352C171.636 13.6534 172.095 13.1212 172.682 12.7386C173.273 12.3523 173.962 12.1591 174.75 12.1591C175.364 12.1591 175.917 12.2727 176.409 12.5C176.902 12.7273 177.305 13.0455 177.619 13.4545C177.934 13.8636 178.129 14.3409 178.205 14.8864H176.864C176.761 14.4886 176.534 14.1364 176.182 13.8295C175.833 13.5189 175.364 13.3636 174.773 13.3636C174.25 13.3636 173.792 13.5 173.398 13.7727C173.008 14.0417 172.703 14.4223 172.483 14.9148C172.267 15.4034 172.159 15.9773 172.159 16.6364C172.159 17.3106 172.265 17.8977 172.477 18.3977C172.693 18.8977 172.996 19.286 173.386 19.5625C173.78 19.839 174.242 19.9773 174.773 19.9773C175.121 19.9773 175.438 19.9167 175.722 19.7955C176.006 19.6742 176.246 19.5 176.443 19.2727C176.64 19.0455 176.78 18.7727 176.864 18.4545H178.205C178.129 18.9697 177.941 19.4337 177.642 19.8466C177.347 20.2557 176.955 20.5814 176.466 20.8239C175.981 21.0625 175.417 21.1818 174.773 21.1818ZM180.165 21V12.2727H181.506V21H180.165ZM180.847 10.8182C180.585 10.8182 180.36 10.7292 180.17 10.5511C179.985 10.3731 179.892 10.1591 179.892 9.90909C179.892 9.65909 179.985 9.44508 180.17 9.26705C180.36 9.08902 180.585 9 180.847 9C181.108 9 181.331 9.08902 181.517 9.26705C181.706 9.44508 181.801 9.65909 181.801 9.90909C181.801 10.1591 181.706 10.3731 181.517 10.5511C181.331 10.7292 181.108 10.8182 180.847 10.8182ZM186.53 21.2045C185.977 21.2045 185.475 21.1004 185.024 20.892C184.573 20.6799 184.215 20.375 183.95 19.9773C183.685 19.5758 183.553 19.0909 183.553 18.5227C183.553 18.0227 183.651 17.6174 183.848 17.3068C184.045 16.9924 184.308 16.7462 184.638 16.5682C184.967 16.3902 185.331 16.2576 185.729 16.1705C186.13 16.0795 186.534 16.0076 186.939 15.9545C187.469 15.8864 187.899 15.8352 188.229 15.8011C188.562 15.7633 188.804 15.7008 188.956 15.6136C189.111 15.5265 189.189 15.375 189.189 15.1591V15.1136C189.189 14.553 189.036 14.1174 188.729 13.8068C188.426 13.4962 187.965 13.3409 187.348 13.3409C186.708 13.3409 186.206 13.4811 185.842 13.7614C185.479 14.0417 185.223 14.3409 185.075 14.6591L183.803 14.2045C184.03 13.6742 184.333 13.2614 184.712 12.9659C185.094 12.6667 185.511 12.4583 185.962 12.3409C186.416 12.2197 186.863 12.1591 187.303 12.1591C187.583 12.1591 187.905 12.1932 188.268 12.2614C188.636 12.3258 188.99 12.4602 189.331 12.6648C189.676 12.8693 189.962 13.178 190.189 13.5909C190.416 14.0038 190.53 14.5568 190.53 15.25V21H189.189V19.8182H189.121C189.03 20.0076 188.878 20.2102 188.666 20.4261C188.454 20.642 188.172 20.8258 187.82 20.9773C187.467 21.1288 187.037 21.2045 186.53 21.2045ZM186.734 20C187.265 20 187.712 19.8958 188.075 19.6875C188.443 19.4792 188.719 19.2102 188.905 18.8807C189.094 18.5511 189.189 18.2045 189.189 17.8409V16.6136C189.132 16.6818 189.007 16.7443 188.814 16.8011C188.625 16.8542 188.405 16.9015 188.155 16.9432C187.909 16.9811 187.668 17.0152 187.433 17.0455C187.202 17.072 187.015 17.0947 186.871 17.1136C186.522 17.1591 186.196 17.233 185.893 17.3352C185.594 17.4337 185.352 17.5833 185.166 17.7841C184.984 17.9811 184.893 18.25 184.893 18.5909C184.893 19.0568 185.066 19.4091 185.411 19.6477C185.759 19.8826 186.2 20 186.734 20ZM194.318 9.36364V21H192.977V9.36364H194.318Z" fill="#763318"/>
<mask id="path-7-inside-3_996_9421" fill="white">
<path d="M208 4C208 1.79086 209.791 0 212 0H276C278.209 0 280 1.79086 280 4V30H208V4Z"/>
</mask>
<path d="M208 0H280H208ZM280 31H208V29H280V31ZM208 30V0V30ZM280 0V30V0Z" fill="#F9D9AF" mask="url(#path-7-inside-3_996_9421)"/>
<path d="M221.409 21V9.36364H225.341C226.254 9.36364 227 9.52841 227.58 9.85795C228.163 10.1837 228.595 10.625 228.875 11.1818C229.155 11.7386 229.295 12.3598 229.295 13.0455C229.295 13.7311 229.155 14.3542 228.875 14.9148C228.598 15.4754 228.17 15.9223 227.591 16.2557C227.011 16.5852 226.269 16.75 225.364 16.75H222.545V15.5H225.318C225.943 15.5 226.445 15.392 226.824 15.1761C227.203 14.9602 227.477 14.6686 227.648 14.3011C227.822 13.9299 227.909 13.5114 227.909 13.0455C227.909 12.5795 227.822 12.1629 227.648 11.7955C227.477 11.428 227.201 11.1402 226.818 10.9318C226.436 10.7197 225.928 10.6136 225.295 10.6136H222.818V21H221.409ZM231.384 21V12.2727H232.679V13.5909H232.77C232.929 13.1591 233.217 12.8087 233.634 12.5398C234.05 12.2708 234.52 12.1364 235.043 12.1364C235.141 12.1364 235.264 12.1383 235.412 12.142C235.56 12.1458 235.671 12.1515 235.747 12.1591V13.5227C235.702 13.5114 235.598 13.4943 235.435 13.4716C235.276 13.4451 235.107 13.4318 234.929 13.4318C234.505 13.4318 234.126 13.5208 233.793 13.6989C233.463 13.8731 233.202 14.1155 233.009 14.4261C232.819 14.733 232.724 15.0833 232.724 15.4773V21H231.384ZM240.73 21.1818C239.889 21.1818 239.164 20.9962 238.554 20.625C237.948 20.25 237.48 19.7273 237.151 19.0568C236.825 18.3826 236.662 17.5985 236.662 16.7045C236.662 15.8106 236.825 15.0227 237.151 14.3409C237.48 13.6553 237.938 13.1212 238.526 12.7386C239.116 12.3523 239.806 12.1591 240.594 12.1591C241.048 12.1591 241.497 12.2348 241.94 12.3864C242.384 12.5379 242.787 12.7841 243.151 13.125C243.514 13.4621 243.804 13.9091 244.02 14.4659C244.236 15.0227 244.344 15.7083 244.344 16.5227V17.0909H237.616V15.9318H242.98C242.98 15.4394 242.882 15 242.685 14.6136C242.491 14.2273 242.215 13.9223 241.855 13.6989C241.499 13.4754 241.079 13.3636 240.594 13.3636C240.06 13.3636 239.598 13.4962 239.207 13.7614C238.821 14.0227 238.524 14.3636 238.315 14.7841C238.107 15.2045 238.003 15.6553 238.003 16.1364V16.9091C238.003 17.5682 238.116 18.1269 238.344 18.5852C238.575 19.0398 238.895 19.3864 239.304 19.625C239.713 19.8598 240.188 19.9773 240.73 19.9773C241.082 19.9773 241.401 19.928 241.685 19.8295C241.973 19.7273 242.221 19.5758 242.429 19.375C242.637 19.1705 242.798 18.9167 242.912 18.6136L244.207 18.9773C244.071 19.4167 243.842 19.803 243.52 20.1364C243.198 20.4659 242.8 20.7235 242.327 20.9091C241.853 21.0909 241.321 21.1818 240.73 21.1818ZM249.929 21.1818C249.111 21.1818 248.406 20.9886 247.815 20.6023C247.224 20.2159 246.77 19.6837 246.452 19.0057C246.134 18.3277 245.974 17.553 245.974 16.6818C245.974 15.7955 246.137 15.0133 246.463 14.3352C246.793 13.6534 247.251 13.1212 247.838 12.7386C248.429 12.3523 249.118 12.1591 249.906 12.1591C250.52 12.1591 251.073 12.2727 251.565 12.5C252.058 12.7273 252.461 13.0455 252.776 13.4545C253.09 13.8636 253.285 14.3409 253.361 14.8864H252.02C251.918 14.4886 251.69 14.1364 251.338 13.8295C250.99 13.5189 250.52 13.3636 249.929 13.3636C249.406 13.3636 248.948 13.5 248.554 13.7727C248.164 14.0417 247.859 14.4223 247.639 14.9148C247.423 15.4034 247.315 15.9773 247.315 16.6364C247.315 17.3106 247.421 17.8977 247.634 18.3977C247.849 18.8977 248.152 19.286 248.543 19.5625C248.937 19.839 249.399 19.9773 249.929 19.9773C250.277 19.9773 250.594 19.9167 250.878 19.7955C251.162 19.6742 251.402 19.5 251.599 19.2727C251.796 19.0455 251.937 18.7727 252.02 18.4545H253.361C253.285 18.9697 253.098 19.4337 252.798 19.8466C252.503 20.2557 252.111 20.5814 251.622 20.8239C251.137 21.0625 250.573 21.1818 249.929 21.1818ZM255.321 21V12.2727H256.662V21H255.321ZM256.003 10.8182C255.741 10.8182 255.516 10.7292 255.327 10.5511C255.141 10.3731 255.048 10.1591 255.048 9.90909C255.048 9.65909 255.141 9.44508 255.327 9.26705C255.516 9.08902 255.741 9 256.003 9C256.264 9 256.488 9.08902 256.673 9.26705C256.863 9.44508 256.957 9.65909 256.957 9.90909C256.957 10.1591 256.863 10.3731 256.673 10.5511C256.488 10.7292 256.264 10.8182 256.003 10.8182ZM262.663 21.1818C261.875 21.1818 261.184 20.9943 260.589 20.6193C259.999 20.2443 259.536 19.7197 259.203 19.0455C258.874 18.3712 258.709 17.5833 258.709 16.6818C258.709 15.7727 258.874 14.9792 259.203 14.3011C259.536 13.6231 259.999 13.0966 260.589 12.7216C261.184 12.3466 261.875 12.1591 262.663 12.1591C263.451 12.1591 264.141 12.3466 264.732 12.7216C265.326 13.0966 265.788 13.6231 266.118 14.3011C266.451 14.9792 266.618 15.7727 266.618 16.6818C266.618 17.5833 266.451 18.3712 266.118 19.0455C265.788 19.7197 265.326 20.2443 264.732 20.6193C264.141 20.9943 263.451 21.1818 262.663 21.1818ZM262.663 19.9773C263.262 19.9773 263.754 19.8239 264.141 19.517C264.527 19.2102 264.813 18.8068 264.999 18.3068C265.184 17.8068 265.277 17.2652 265.277 16.6818C265.277 16.0985 265.184 15.5549 264.999 15.0511C264.813 14.5473 264.527 14.1402 264.141 13.8295C263.754 13.5189 263.262 13.3636 262.663 13.3636C262.065 13.3636 261.572 13.5189 261.186 13.8295C260.8 14.1402 260.514 14.5473 260.328 15.0511C260.143 15.5549 260.05 16.0985 260.05 16.6818C260.05 17.2652 260.143 17.8068 260.328 18.3068C260.514 18.8068 260.8 19.2102 261.186 19.517C261.572 19.8239 262.065 19.9773 262.663 19.9773Z" fill="#763318"/>
</g>
<defs>
<clipPath id="clip0_996_9421">
<rect width="280" height="30" fill="white"/>
</clipPath>
</defs>
</svg>
