<svg width="22" height="22" viewBox="0 0 22 22" fill="none" xmlns="http://www.w3.org/2000/svg">
<path fill-rule="evenodd" clip-rule="evenodd" d="M16.7744 17.2011L21.3368 11.8777C21.5546 11.6292 21.6661 11.3154 21.6663 11C21.6664 10.7842 21.6144 10.5676 21.5087 10.3706C21.4617 10.2828 21.4044 10.1994 21.3368 10.1223L16.7744 4.79894C16.2952 4.23982 15.4534 4.17502 14.8943 4.65422C14.3352 5.13342 14.2704 5.97515 14.7496 6.53427L17.4341 9.6666L7.10796 9.6666C6.37158 9.6666 5.77463 10.2636 5.77463 10.9999C5.77463 11.7363 6.37158 12.3333 7.10796 12.3333L17.4343 12.3333L14.7496 15.4658C14.2704 16.0249 14.3352 16.8666 14.8943 17.3458C15.4534 17.825 16.2952 17.7602 16.7744 17.2011ZM8.33293 2.99992C9.06931 2.99992 9.66626 3.59687 9.66626 4.33325L9.66626 6.33325C9.66626 7.06963 10.2632 7.66658 10.9996 7.66658C11.736 7.66659 12.3329 7.06963 12.3329 6.33325L12.3329 4.33325C12.3329 2.12411 10.5421 0.333251 8.33293 0.333251L4.33293 0.333251C2.12379 0.333251 0.332926 2.12411 0.332926 4.33325L0.332925 17.6666C0.332925 19.8757 2.12379 21.6666 4.33292 21.6666L8.33292 21.6666C10.5421 21.6666 12.3329 19.8757 12.3329 17.6666L12.3329 15.6666C12.3329 14.9302 11.736 14.3333 10.9996 14.3333C10.2632 14.3333 9.66626 14.9302 9.66626 15.6666L9.66626 17.6666C9.66626 18.403 9.0693 18.9999 8.33292 18.9999L4.33292 18.9999C3.59655 18.9999 2.99959 18.403 2.99959 17.6666L2.99959 4.33325C2.99959 3.59687 3.59655 2.99992 4.33293 2.99992L8.33293 2.99992Z" fill="#40180A"/>
</svg>
