<svg width="22" height="22" viewBox="0 0 22 22" fill="none" xmlns="http://www.w3.org/2000/svg">
<path fill-rule="evenodd" clip-rule="evenodd" d="M16.7751 17.2012L21.3375 11.8779C21.5554 11.6293 21.6668 11.3156 21.667 11.0001C21.6671 10.7843 21.6151 10.5677 21.5094 10.3708C21.4625 10.283 21.4051 10.1996 21.3375 10.1224L16.7751 4.79907C16.2959 4.23994 15.4542 4.17514 14.8951 4.65434C14.3359 5.13354 14.2711 5.97527 14.7503 6.5344L17.4349 9.66673L7.10869 9.66673C6.37231 9.66672 5.77536 10.2637 5.77536 11.0001C5.77536 11.7364 6.37231 12.3334 7.10869 12.3334L17.435 12.3334L14.7503 15.4659C14.2711 16.025 14.3359 16.8668 14.8951 17.346C15.4542 17.8252 16.2959 17.7604 16.7751 17.2012ZM8.33366 3.00004C9.07004 3.00004 9.66699 3.59699 9.66699 4.33337L9.66699 6.33337C9.66699 7.06975 10.2639 7.66671 11.0003 7.66671C11.7367 7.66671 12.3337 7.06975 12.3337 6.33337L12.3337 4.33337C12.3337 2.12423 10.5428 0.333374 8.33366 0.333373L4.33366 0.333373C2.12452 0.333373 0.333658 2.12423 0.333658 4.33337L0.333657 17.6667C0.333657 19.8758 2.12452 21.6667 4.33366 21.6667L8.33366 21.6667C10.5428 21.6667 12.3337 19.8758 12.3337 17.6667L12.3337 15.6667C12.3337 14.9303 11.7367 14.3334 11.0003 14.3334C10.2639 14.3334 9.66699 14.9303 9.66699 15.6667L9.66699 17.6667C9.66699 18.4031 9.07004 19 8.33366 19L4.33366 19C3.59728 19 3.00032 18.4031 3.00032 17.6667L3.00032 4.33337C3.00032 3.59699 3.59728 3.00004 4.33366 3.00004L8.33366 3.00004Z" fill="#40180A"/>
</svg>
