<svg width="22" height="22" viewBox="0 0 22 22" fill="none" xmlns="http://www.w3.org/2000/svg">
<path fill-rule="evenodd" clip-rule="evenodd" d="M16.7745 17.2012L21.3369 11.8779C21.5547 11.6293 21.6662 11.3156 21.6664 11.0001C21.6665 10.7843 21.6145 10.5677 21.5088 10.3708C21.4618 10.283 21.4045 10.1996 21.3369 10.1224L16.7745 4.79907C16.2953 4.23994 15.4536 4.17514 14.8944 4.65434C14.3353 5.13354 14.2705 5.97527 14.7497 6.5344L17.4343 9.66673L7.10808 9.66673C6.3717 9.66672 5.77475 10.2637 5.77475 11.0001C5.77475 11.7364 6.3717 12.3334 7.10808 12.3334L17.4344 12.3334L14.7497 15.4659C14.2705 16.025 14.3353 16.8668 14.8944 17.346C15.4536 17.8252 16.2953 17.7604 16.7745 17.2012ZM8.33305 3.00004C9.06943 3.00004 9.66638 3.59699 9.66638 4.33337L9.66638 6.33337C9.66638 7.06975 10.2633 7.66671 10.9997 7.66671C11.7361 7.66671 12.333 7.06975 12.333 6.33337L12.333 4.33337C12.333 2.12423 10.5422 0.333374 8.33305 0.333373L4.33305 0.333373C2.12391 0.333373 0.333048 2.12423 0.333048 4.33337L0.333047 17.6667C0.333047 19.8758 2.12391 21.6667 4.33305 21.6667L8.33305 21.6667C10.5422 21.6667 12.333 19.8758 12.333 17.6667L12.333 15.6667C12.333 14.9303 11.7361 14.3334 10.9997 14.3334C10.2633 14.3334 9.66638 14.9303 9.66638 15.6667L9.66638 17.6667C9.66638 18.4031 9.06943 19 8.33305 19L4.33305 19C3.59667 19 2.99971 18.4031 2.99971 17.6667L2.99971 4.33337C2.99971 3.59699 3.59667 3.00004 4.33305 3.00004L8.33305 3.00004Z" fill="#40180A"/>
</svg>
