<svg width="30" height="30" viewBox="0 0 30 30" fill="none" xmlns="http://www.w3.org/2000/svg">
<path fill-rule="evenodd" clip-rule="evenodd" d="M1.6665 15H4.62939V25.3703C4.62939 26.1562 4.94156 26.9098 5.49723 27.4655C6.05289 28.0211 6.80653 28.3333 7.59236 28.3333H22.4072C23.193 28.3333 23.9466 28.0211 24.5023 27.4655C25.058 26.9098 25.3701 26.1562 25.3701 25.3703V15H25.3702H28.3332L14.9998 1.66663L1.6665 15Z" fill="white"/>
<path d="M4.62939 15H5.62939C5.62939 14.4477 5.18168 14 4.62939 14V15ZM1.6665 15L0.959397 14.2929C0.673399 14.5789 0.587843 15.009 0.742624 15.3826C0.897405 15.7563 1.26204 16 1.6665 16L1.6665 15ZM5.49723 27.4655L6.20433 26.7584L5.49723 27.4655ZM24.5023 27.4655L23.7952 26.7584L23.7952 26.7584L24.5023 27.4655ZM25.3701 15V14C24.8179 14 24.3701 14.4477 24.3701 15H25.3701ZM28.3332 15V16C28.7376 16 29.1023 15.7563 29.2571 15.3826C29.4118 15.009 29.3263 14.5789 29.0403 14.2929L28.3332 15ZM14.9998 1.66663L15.7069 0.959519C15.3164 0.568995 14.6833 0.568995 14.2927 0.959519L14.9998 1.66663ZM4.62939 14H1.6665V16H4.62939V14ZM3.62939 15V25.3703H5.62939V15H3.62939ZM3.62939 25.3703C3.62939 26.4214 4.04692 27.4294 4.79012 28.1726L6.20433 26.7584C5.83621 26.3902 5.62939 25.8909 5.62939 25.3703H3.62939ZM4.79012 28.1726C5.53332 28.9158 6.54131 29.3333 7.59236 29.3333V27.3333C7.07175 27.3333 6.57246 27.1265 6.20433 26.7584L4.79012 28.1726ZM7.59236 29.3333H22.4072V27.3333H7.59236V29.3333ZM22.4072 29.3333C23.4582 29.3333 24.4662 28.9158 25.2094 28.1726L23.7952 26.7584C23.4271 27.1265 22.9278 27.3333 22.4072 27.3333V29.3333ZM25.2094 28.1726C25.9526 27.4294 26.3701 26.4214 26.3701 25.3703H24.3701C24.3701 25.8909 24.1633 26.3902 23.7952 26.7584L25.2094 28.1726ZM26.3701 25.3703V15H24.3701V25.3703H26.3701ZM25.3702 14H25.3701V16H25.3702V14ZM28.3332 14H25.3702V16H28.3332V14ZM14.2927 2.37373L27.6261 15.7071L29.0403 14.2929L15.7069 0.959519L14.2927 2.37373ZM2.37361 15.7071L15.7069 2.37373L14.2927 0.959519L0.959397 14.2929L2.37361 15.7071Z" fill="white"/>
</svg>
