<svg width="22" height="22" viewBox="0 0 22 22" fill="none" xmlns="http://www.w3.org/2000/svg">
<path fill-rule="evenodd" clip-rule="evenodd" d="M16.7751 17.2012L21.3375 11.8778C21.5554 11.6293 21.6668 11.3155 21.667 11.0001C21.6671 10.7843 21.6151 10.5677 21.5094 10.3707C21.4625 10.2829 21.4051 10.1995 21.3375 10.1224L16.7751 4.79904C16.2959 4.23991 15.4542 4.17511 14.8951 4.65431C14.3359 5.13351 14.2711 5.97524 14.7503 6.53437L17.4349 9.6667L7.10869 9.66669C6.37231 9.66669 5.77536 10.2636 5.77536 11C5.77536 11.7364 6.37231 12.3334 7.10869 12.3334L17.435 12.3334L14.7503 15.4659C14.2711 16.025 14.3359 16.8667 14.8951 17.3459C15.4542 17.8251 16.2959 17.7603 16.7751 17.2012ZM8.33366 3.00001C9.07004 3.00001 9.66699 3.59696 9.66699 4.33334L9.66699 6.33334C9.66699 7.06972 10.2639 7.66668 11.0003 7.66668C11.7367 7.66668 12.3337 7.06972 12.3337 6.33334L12.3337 4.33334C12.3337 2.1242 10.5428 0.333343 8.33366 0.333343L4.33366 0.333343C2.12452 0.333343 0.333658 2.1242 0.333658 4.33334L0.333657 17.6667C0.333657 19.8758 2.12452 21.6667 4.33366 21.6667L8.33366 21.6667C10.5428 21.6667 12.3337 19.8758 12.3337 17.6667L12.3337 15.6667C12.3337 14.9303 11.7367 14.3333 11.0003 14.3333C10.2639 14.3333 9.66699 14.9303 9.66699 15.6667L9.66699 17.6667C9.66699 18.4031 9.07004 19 8.33366 19L4.33366 19C3.59728 19 3.00032 18.4031 3.00032 17.6667L3.00032 4.33334C3.00032 3.59696 3.59728 3.00001 4.33366 3.00001L8.33366 3.00001Z" fill="#40180A"/>
</svg>
