<svg width="33" height="32" viewBox="0 0 33 32" fill="none" xmlns="http://www.w3.org/2000/svg">
<path d="M14.7779 3.49866C15.0278 3.22411 15.3323 3.00477 15.6719 2.85468C16.0114 2.7046 16.3786 2.62708 16.7499 2.62708C17.1211 2.62708 17.4883 2.7046 17.8279 2.85468C18.1675 3.00477 18.472 3.22411 18.7219 3.49866L20.0819 4.99199C20.3459 5.28188 20.6707 5.50996 21.033 5.66C21.3953 5.81003 21.7862 5.87831 22.1779 5.85999L24.1952 5.76666C24.5659 5.74919 24.9362 5.8093 25.2823 5.94312C25.6285 6.07695 25.9429 6.28156 26.2054 6.54385C26.468 6.80614 26.6729 7.12035 26.807 7.46637C26.9412 7.81239 27.0016 8.1826 26.9845 8.55332L26.8899 10.572C26.8715 10.9637 26.9398 11.3546 27.0899 11.7169C27.2399 12.0792 27.468 12.4039 27.7579 12.668L29.2512 14.028C29.5258 14.2779 29.7451 14.5824 29.8952 14.922C30.0453 15.2616 30.1228 15.6287 30.1228 16C30.1228 16.3713 30.0453 16.7384 29.8952 17.078C29.7451 17.4176 29.5258 17.7221 29.2512 17.972L27.7579 19.332C27.468 19.5961 27.2399 19.9208 27.0899 20.2831C26.9398 20.6454 26.8715 21.0363 26.8899 21.428L26.9832 23.4453C27.0007 23.816 26.9406 24.1863 26.8067 24.5325C26.6729 24.8786 26.4683 25.193 26.206 25.4555C25.9437 25.7181 25.6295 25.923 25.2835 26.0572C24.9375 26.1913 24.5673 26.2518 24.1965 26.2347L22.1779 26.14C21.7862 26.1217 21.3953 26.19 21.033 26.34C20.6707 26.49 20.3459 26.7181 20.0819 27.008L18.7219 28.5013C18.472 28.7759 18.1675 28.9952 17.8279 29.1453C17.4883 29.2954 17.1211 29.3729 16.7499 29.3729C16.3786 29.3729 16.0114 29.2954 15.6719 29.1453C15.3323 28.9952 15.0278 28.7759 14.7779 28.5013L13.4179 27.008C13.1538 26.7181 12.8291 26.49 12.4668 26.34C12.1045 26.19 11.7136 26.1217 11.3219 26.14L9.30454 26.2333C8.93383 26.2508 8.56356 26.1907 8.21741 26.0569C7.87126 25.923 7.55686 25.7184 7.29432 25.4561C7.03177 25.1938 6.82687 24.8796 6.69271 24.5336C6.55855 24.1876 6.49809 23.8174 6.5152 23.4467L6.60987 21.428C6.62819 21.0363 6.55991 20.6454 6.40987 20.2831C6.25984 19.9208 6.03176 19.5961 5.74187 19.332L4.24854 17.972C3.97399 17.7221 3.75465 17.4176 3.60456 17.078C3.45448 16.7384 3.37695 16.3713 3.37695 16C3.37695 15.6287 3.45448 15.2616 3.60456 14.922C3.75465 14.5824 3.97399 14.2779 4.24854 14.028L5.74187 12.668C6.03176 12.4039 6.25984 12.0792 6.40987 11.7169C6.55991 11.3546 6.62819 10.9637 6.60987 10.572L6.51654 8.55466C6.49907 8.18395 6.55917 7.81368 6.693 7.46753C6.82683 7.12139 7.03143 6.80698 7.29373 6.54444C7.55602 6.28189 7.87023 6.07699 8.21625 5.94283C8.56227 5.80867 8.93248 5.74821 9.3032 5.76532L11.3219 5.85999C11.7136 5.87831 12.1045 5.81003 12.4668 5.66C12.8291 5.50996 13.1538 5.28188 13.4179 4.99199L14.7779 3.49866V3.49866Z" stroke="#FEF8EE" stroke-width="1.2"/>
<path d="M12.75 16L15.4167 18.6667L20.75 13.3334" stroke="#FEF8EE" stroke-width="1.2" stroke-linecap="round" stroke-linejoin="round"/>
</svg>
