<svg width="33" height="32" viewBox="0 0 33 32" fill="none" xmlns="http://www.w3.org/2000/svg">
<path d="M14.2779 3.49866C14.5278 3.22411 14.8323 3.00477 15.1719 2.85468C15.5114 2.7046 15.8786 2.62708 16.2499 2.62708C16.6211 2.62708 16.9883 2.7046 17.3279 2.85468C17.6675 3.00477 17.972 3.22411 18.2219 3.49866L19.5819 4.99199C19.8459 5.28188 20.1707 5.50996 20.533 5.66C20.8953 5.81003 21.2862 5.87831 21.6779 5.85999L23.6952 5.76666C24.0659 5.74919 24.4362 5.8093 24.7823 5.94312C25.1285 6.07695 25.4429 6.28156 25.7054 6.54385C25.968 6.80614 26.1729 7.12035 26.307 7.46637C26.4412 7.81239 26.5016 8.1826 26.4845 8.55332L26.3899 10.572C26.3715 10.9637 26.4398 11.3546 26.5899 11.7169C26.7399 12.0792 26.968 12.4039 27.2579 12.668L28.7512 14.028C29.0258 14.2779 29.2451 14.5824 29.3952 14.922C29.5453 15.2616 29.6228 15.6287 29.6228 16C29.6228 16.3713 29.5453 16.7384 29.3952 17.078C29.2451 17.4176 29.0258 17.7221 28.7512 17.972L27.2579 19.332C26.968 19.5961 26.7399 19.9208 26.5899 20.2831C26.4398 20.6454 26.3715 21.0363 26.3899 21.428L26.4832 23.4453C26.5007 23.816 26.4406 24.1863 26.3067 24.5325C26.1729 24.8786 25.9683 25.193 25.706 25.4555C25.4437 25.7181 25.1295 25.923 24.7835 26.0572C24.4375 26.1913 24.0673 26.2518 23.6965 26.2347L21.6779 26.14C21.2862 26.1217 20.8953 26.19 20.533 26.34C20.1707 26.49 19.8459 26.7181 19.5819 27.008L18.2219 28.5013C17.972 28.7759 17.6675 28.9952 17.3279 29.1453C16.9883 29.2954 16.6211 29.3729 16.2499 29.3729C15.8786 29.3729 15.5114 29.2954 15.1719 29.1453C14.8323 28.9952 14.5278 28.7759 14.2779 28.5013L12.9179 27.008C12.6538 26.7181 12.3291 26.49 11.9668 26.34C11.6045 26.19 11.2136 26.1217 10.8219 26.14L8.80454 26.2333C8.43383 26.2508 8.06356 26.1907 7.71741 26.0569C7.37126 25.923 7.05686 25.7184 6.79432 25.4561C6.53177 25.1938 6.32687 24.8796 6.19271 24.5336C6.05855 24.1876 5.99809 23.8174 6.0152 23.4467L6.10987 21.428C6.12819 21.0363 6.05991 20.6454 5.90987 20.2831C5.75984 19.9208 5.53176 19.5961 5.24187 19.332L3.74854 17.972C3.47399 17.7221 3.25465 17.4176 3.10456 17.078C2.95448 16.7384 2.87695 16.3713 2.87695 16C2.87695 15.6287 2.95448 15.2616 3.10456 14.922C3.25465 14.5824 3.47399 14.2779 3.74854 14.028L5.24187 12.668C5.53176 12.4039 5.75984 12.0792 5.90987 11.7169C6.05991 11.3546 6.12819 10.9637 6.10987 10.572L6.01654 8.55466C5.99907 8.18395 6.05917 7.81368 6.193 7.46753C6.32683 7.12139 6.53143 6.80698 6.79373 6.54444C7.05602 6.28189 7.37023 6.07699 7.71625 5.94283C8.06227 5.80867 8.43248 5.74821 8.8032 5.76532L10.8219 5.85999C11.2136 5.87831 11.6045 5.81003 11.9668 5.66C12.3291 5.50996 12.6538 5.28188 12.9179 4.99199L14.2779 3.49866V3.49866Z" stroke="#EC7C23" stroke-width="1.2"/>
<path d="M12.25 16L14.9167 18.6667L20.25 13.3334" stroke="#EC7C23" stroke-width="1.2" stroke-linecap="round" stroke-linejoin="round"/>
</svg>
